M48
; DRILL file {KiCad (5.1.6-0-10_14)} date Tuesday, May 26, 2020 at 03:54:10 PM
; FORMAT={-:-/ absolute / inch / decimal}
; #@! TF.CreationDate,2020-05-26T15:54:10+02:00
; #@! TF.GenerationSoftware,Kicad,Pcbnew,(5.1.6-0-10_14)
FMAT,2
INCH
T1C0.0157
T2C0.0197
T3C0.0354
T4C0.0197
T5C0.0354
T6C0.0454
%
G90
G05
T1
X2.5197Y-1.9921
X2.5197Y-2.0236
X2.5276Y-2.3307
X2.6142Y-3.0315
X2.6142Y-3.6535
X2.6299Y-2.0748
X2.6309Y-2.0384
X2.6496Y-2.7165
X2.6496Y-2.752
X2.6535Y-3.1417
X2.6535Y-3.5276
X2.6614Y-2.9213
X2.6614Y-3.0315
X2.6811Y-2.0394
X2.6929Y-3.5906
X2.6929Y-3.6299
X2.7087Y-3.5039
X2.7136Y-3.4528
X2.7303Y-2.0394
X2.7815Y-2.0394
X2.7874Y-3.1102
X2.8307Y-2.0394
X2.8386Y-3.3307
X2.8386Y-3.4252
X2.8425Y-2.2283
X2.874Y-2.2283
X2.8819Y-2.0394
X2.8819Y-3.9606
X2.8898Y-2.8583
X2.9068Y-2.2274
X2.9134Y-2.563
X2.9134Y-2.6181
X2.9213Y-3.5669
X2.937Y-2.8583
X2.9449Y-3.9606
X2.9606Y-3.5669
X2.9921Y-1.9921
X2.9921Y-2.0236
X3.0Y-3.5669
X3.1496Y-1.9921
X3.1496Y-2.0236
X3.1575Y-2.3307
X3.2441Y-3.0315
X3.2441Y-3.6535
X3.2598Y-2.0748
X3.2608Y-2.0384
X3.2795Y-2.7165
X3.2795Y-2.752
X3.2835Y-3.1417
X3.2835Y-3.5276
X3.2913Y-2.9213
X3.2913Y-3.0315
X3.311Y-2.0394
X3.3228Y-3.5906
X3.3228Y-3.6299
X3.3386Y-3.5039
X3.3435Y-3.4528
X3.3602Y-2.0394
X3.4114Y-2.0394
X3.4173Y-3.1102
X3.4606Y-2.0394
X3.4685Y-3.3307
X3.4685Y-3.4252
X3.4724Y-2.2283
X3.5039Y-2.2283
X3.5118Y-2.0394
X3.5118Y-3.9606
X3.5197Y-2.8583
X3.5367Y-2.2274
X3.5433Y-2.563
X3.5433Y-2.6181
X3.5512Y-3.5669
X3.5669Y-2.8583
X3.5748Y-3.9606
X3.5906Y-3.5669
X3.622Y-1.9921
X3.622Y-2.0236
X3.6299Y-3.5669
T2
X3.5906Y-2.9803
X3.5906Y-3.0803
X3.5906Y-3.1803
X3.5906Y-3.2803
X3.5906Y-3.3803
X3.5906Y-3.4803
X2.9606Y-2.9803
X2.9606Y-3.0803
X2.9606Y-3.1803
X2.9606Y-3.2803
X2.9606Y-3.3803
X2.9606Y-3.4803
T3
X2.5563Y-3.8819
X2.6563Y-3.8819
X3.1862Y-3.8819
X3.2862Y-3.8819
T4
X3.0315Y-5.8661
X3.0315Y-5.9055
X3.0315Y-1.3583
X3.0315Y-1.3976
X3.0315Y-1.437
X3.0315Y-3.6417
X3.0315Y-3.6811
X3.0315Y-3.7205
X3.6614Y-5.8661
X3.6614Y-5.9055
X3.6614Y-5.9449
X2.4803Y-5.8661
X2.4803Y-5.9055
X2.4803Y-5.9449
X3.4902Y-2.5118
X3.4902Y-2.6693
X3.0315Y-5.9449
X2.8602Y-2.5118
X2.8602Y-2.6693
T5
X3.1969Y-2.6969
X3.1969Y-2.815
X2.5669Y-2.6969
X2.5669Y-2.815
T6
X3.5827Y-1.1811
X2.9528Y-1.1811
X2.3622Y-5.9055
X3.7795Y-5.9055
T0
M30
