G04 #@! TF.GenerationSoftware,KiCad,Pcbnew,(5.1.6-0-10_14)*
G04 #@! TF.CreationDate,2020-05-26T15:54:01+02:00*
G04 #@! TF.ProjectId,Sensor 2x,53656e73-6f72-4203-9278-2e6b69636164,rev?*
G04 #@! TF.SameCoordinates,Original*
G04 #@! TF.FileFunction,Copper,L2,Bot*
G04 #@! TF.FilePolarity,Positive*
%FSLAX46Y46*%
G04 Gerber Fmt 4.6, Leading zero omitted, Abs format (unit mm)*
G04 Created by KiCad (PCBNEW (5.1.6-0-10_14)) date 2020-05-26 15:54:01*
%MOMM*%
%LPD*%
G01*
G04 APERTURE LIST*
G04 #@! TA.AperFunction,ComponentPad*
%ADD10C,1.600000*%
G04 #@! TD*
G04 #@! TA.AperFunction,ComponentPad*
%ADD11C,1.100000*%
G04 #@! TD*
G04 #@! TA.AperFunction,ViaPad*
%ADD12C,0.800000*%
G04 #@! TD*
G04 #@! TA.AperFunction,Conductor*
%ADD13C,0.250000*%
G04 #@! TD*
G04 #@! TA.AperFunction,Conductor*
%ADD14C,1.000000*%
G04 #@! TD*
G04 #@! TA.AperFunction,Conductor*
%ADD15C,0.900000*%
G04 #@! TD*
G04 #@! TA.AperFunction,Conductor*
%ADD16C,0.750000*%
G04 #@! TD*
G04 #@! TA.AperFunction,Conductor*
%ADD17C,0.200000*%
G04 #@! TD*
G04 APERTURE END LIST*
G04 #@! TA.AperFunction,ComponentPad*
G36*
G01*
X84270000Y-98100800D02*
X84270000Y-99099200D01*
G75*
G02*
X83969200Y-99400000I-300800J0D01*
G01*
X82970800Y-99400000D01*
G75*
G02*
X82670000Y-99099200I0J300800D01*
G01*
X82670000Y-98100800D01*
G75*
G02*
X82970800Y-97800000I300800J0D01*
G01*
X83969200Y-97800000D01*
G75*
G02*
X84270000Y-98100800I0J-300800D01*
G01*
G37*
G04 #@! TD.AperFunction*
D10*
X80930000Y-98600000D03*
D11*
X91200000Y-88400000D03*
X91200000Y-85860000D03*
X91200000Y-83320000D03*
X91200000Y-80780000D03*
X91200000Y-78240000D03*
X91200000Y-75700000D03*
X75200000Y-75700000D03*
X75200000Y-78240000D03*
X75200000Y-80780000D03*
X75200000Y-83320000D03*
X75200000Y-85860000D03*
X75200000Y-88400000D03*
D10*
X64930000Y-98600000D03*
G04 #@! TA.AperFunction,ComponentPad*
G36*
G01*
X68270000Y-98100800D02*
X68270000Y-99099200D01*
G75*
G02*
X67969200Y-99400000I-300800J0D01*
G01*
X66970800Y-99400000D01*
G75*
G02*
X66670000Y-99099200I0J300800D01*
G01*
X66670000Y-98100800D01*
G75*
G02*
X66970800Y-97800000I300800J0D01*
G01*
X67969200Y-97800000D01*
G75*
G02*
X68270000Y-98100800I0J-300800D01*
G01*
G37*
G04 #@! TD.AperFunction*
D12*
X72200000Y-56600000D03*
X73000000Y-56600000D03*
X73832636Y-56575000D03*
X64000000Y-50600000D03*
X64000000Y-51400000D03*
X76000000Y-50600000D03*
X76000000Y-51400000D03*
X73400000Y-72600000D03*
X74000000Y-66500000D03*
X74000000Y-65100000D03*
X74600000Y-72600000D03*
X67400000Y-79800000D03*
X67600000Y-77000000D03*
X72100000Y-87000000D03*
X72100000Y-84600000D03*
X75200000Y-90600000D03*
X76200000Y-90600000D03*
X74200000Y-90600000D03*
X67600000Y-74200000D03*
X67400000Y-89600000D03*
X64200000Y-59200000D03*
X74800000Y-100600000D03*
X73200000Y-100600000D03*
X66800000Y-52700000D03*
X66824981Y-51775019D03*
X66400000Y-77000000D03*
X88200000Y-56600000D03*
X89000000Y-56600000D03*
X89832636Y-56575000D03*
X80000000Y-50600000D03*
X80000000Y-51400000D03*
X92000000Y-50600000D03*
X92000000Y-51400000D03*
X89400000Y-72600000D03*
X90000000Y-66500000D03*
X90000000Y-65100000D03*
X90600000Y-72600000D03*
X83400000Y-79800000D03*
X83600000Y-77000000D03*
X88100000Y-87000000D03*
X88100000Y-84600000D03*
X91200000Y-90600000D03*
X92200000Y-90600000D03*
X90200000Y-90600000D03*
X83600000Y-74200000D03*
X83400000Y-89600000D03*
X80200000Y-59200000D03*
X90800000Y-100600000D03*
X89200000Y-100600000D03*
X82800000Y-52700000D03*
X82824981Y-51775019D03*
X82400000Y-77000000D03*
X71900000Y-51800000D03*
X68400000Y-92200000D03*
X70800002Y-79000000D03*
X87900000Y-51800000D03*
X84400000Y-92200000D03*
X86800002Y-79000000D03*
X73200000Y-51800000D03*
X66400000Y-92800000D03*
X89200000Y-51800000D03*
X82400000Y-92800000D03*
X70650000Y-51800000D03*
X68400000Y-91200000D03*
X86650000Y-51800000D03*
X84400000Y-91200000D03*
X68100000Y-51800000D03*
X68800000Y-89000000D03*
X84100000Y-51800000D03*
X84800000Y-89000000D03*
X69350000Y-51800000D03*
X68924979Y-87700000D03*
X85350000Y-51800000D03*
X84924979Y-87700000D03*
X67300000Y-69000020D03*
X67300000Y-69900000D03*
X83300000Y-69000020D03*
X83300000Y-69900000D03*
D13*
X72200000Y-56600000D02*
X73000000Y-56600000D01*
D14*
X73807636Y-56600000D02*
X73832636Y-56575000D01*
X72200000Y-56600000D02*
X73807636Y-56600000D01*
D13*
X88200000Y-56600000D02*
X89000000Y-56600000D01*
D14*
X89807636Y-56600000D02*
X89832636Y-56575000D01*
X88200000Y-56600000D02*
X89807636Y-56600000D01*
D13*
X70800002Y-79799998D02*
X70800002Y-79000000D01*
X70600000Y-80000000D02*
X70800002Y-79799998D01*
X70600000Y-90100000D02*
X70600000Y-80000000D01*
X68500000Y-92200000D02*
X70600000Y-90100000D01*
X68400000Y-92200000D02*
X68500000Y-92200000D01*
X70800000Y-78300000D02*
X70800000Y-78999998D01*
X70600000Y-78100000D02*
X70800000Y-78300000D01*
X70600000Y-53100000D02*
X70600000Y-78100000D01*
X70800000Y-78999998D02*
X70800002Y-79000000D01*
X71900000Y-51800000D02*
X70600000Y-53100000D01*
X86800002Y-79799998D02*
X86800002Y-79000000D01*
X86600000Y-80000000D02*
X86800002Y-79799998D01*
X86600000Y-90100000D02*
X86600000Y-80000000D01*
X84500000Y-92200000D02*
X86600000Y-90100000D01*
X84400000Y-92200000D02*
X84500000Y-92200000D01*
X86800000Y-78300000D02*
X86800000Y-78999998D01*
X86600000Y-78100000D02*
X86800000Y-78300000D01*
X86600000Y-53100000D02*
X86600000Y-78100000D01*
X86800000Y-78999998D02*
X86800002Y-79000000D01*
X87900000Y-51800000D02*
X86600000Y-53100000D01*
X66799999Y-93199999D02*
X66400000Y-92800000D01*
X71300000Y-90500000D02*
X68600001Y-93199999D01*
X71625001Y-80074999D02*
X71300000Y-80400000D01*
X71300000Y-77963499D02*
X71625001Y-78288500D01*
X68600001Y-93199999D02*
X66799999Y-93199999D01*
X71300000Y-53850000D02*
X71300000Y-77963499D01*
X71625001Y-78288500D02*
X71625001Y-80074999D01*
X73200000Y-51950000D02*
X71300000Y-53850000D01*
X73200000Y-51800000D02*
X73200000Y-51950000D01*
X71320000Y-83320000D02*
X71300000Y-83300000D01*
X71680000Y-83320000D02*
X71300000Y-83700000D01*
X71720000Y-83320000D02*
X71680000Y-83320000D01*
X71300000Y-83700000D02*
X71300000Y-90500000D01*
X71300000Y-83300000D02*
X71300000Y-83700000D01*
X75200000Y-83320000D02*
X71720000Y-83320000D01*
X71720000Y-83320000D02*
X71320000Y-83320000D01*
X71300000Y-83000000D02*
X71300000Y-83300000D01*
X71300000Y-80400000D02*
X71300000Y-83000000D01*
X71350000Y-83000000D02*
X71300000Y-83000000D01*
X71670000Y-83320000D02*
X71350000Y-83000000D01*
X71680000Y-83320000D02*
X71670000Y-83320000D01*
X82799999Y-93199999D02*
X82400000Y-92800000D01*
X87300000Y-90500000D02*
X84600001Y-93199999D01*
X87625001Y-80074999D02*
X87300000Y-80400000D01*
X87300000Y-77963499D02*
X87625001Y-78288500D01*
X84600001Y-93199999D02*
X82799999Y-93199999D01*
X87300000Y-53850000D02*
X87300000Y-77963499D01*
X87625001Y-78288500D02*
X87625001Y-80074999D01*
X89200000Y-51950000D02*
X87300000Y-53850000D01*
X89200000Y-51800000D02*
X89200000Y-51950000D01*
X87320000Y-83320000D02*
X87300000Y-83300000D01*
X87680000Y-83320000D02*
X87300000Y-83700000D01*
X87720000Y-83320000D02*
X87680000Y-83320000D01*
X87300000Y-83700000D02*
X87300000Y-90500000D01*
X87300000Y-83300000D02*
X87300000Y-83700000D01*
X91200000Y-83320000D02*
X87720000Y-83320000D01*
X87720000Y-83320000D02*
X87320000Y-83320000D01*
X87300000Y-83000000D02*
X87300000Y-83300000D01*
X87300000Y-80400000D02*
X87300000Y-83000000D01*
X87350000Y-83000000D02*
X87300000Y-83000000D01*
X87670000Y-83320000D02*
X87350000Y-83000000D01*
X87680000Y-83320000D02*
X87670000Y-83320000D01*
X69900000Y-89700000D02*
X68799999Y-90800001D01*
X69900000Y-52550000D02*
X69900000Y-89700000D01*
X68799999Y-90800001D02*
X68400000Y-91200000D01*
X70650000Y-51800000D02*
X69900000Y-52550000D01*
X85900000Y-89700000D02*
X84799999Y-90800001D01*
X85900000Y-52550000D02*
X85900000Y-89700000D01*
X84799999Y-90800001D02*
X84400000Y-91200000D01*
X86650000Y-51800000D02*
X85900000Y-52550000D01*
X68100000Y-51800000D02*
X68000000Y-51900000D01*
X68100000Y-52100000D02*
X68100000Y-51800000D01*
X68600000Y-86600000D02*
X68600000Y-52600000D01*
X68600000Y-52600000D02*
X68100000Y-52100000D01*
X68000000Y-87200000D02*
X68600000Y-86600000D01*
X68000000Y-88200000D02*
X68000000Y-87200000D01*
X68800000Y-89000000D02*
X68000000Y-88200000D01*
X84100000Y-51800000D02*
X84000000Y-51900000D01*
X84100000Y-52100000D02*
X84100000Y-51800000D01*
X84600000Y-86600000D02*
X84600000Y-52600000D01*
X84600000Y-52600000D02*
X84100000Y-52100000D01*
X84000000Y-87200000D02*
X84600000Y-86600000D01*
X84000000Y-88200000D02*
X84000000Y-87200000D01*
X84800000Y-89000000D02*
X84000000Y-88200000D01*
X68924979Y-87524979D02*
X68924979Y-87700000D01*
X69300000Y-87149958D02*
X68924979Y-87524979D01*
X69300000Y-51850000D02*
X69300000Y-87149958D01*
X69350000Y-51800000D02*
X69300000Y-51850000D01*
X84924979Y-87524979D02*
X84924979Y-87700000D01*
X85300000Y-87149958D02*
X84924979Y-87524979D01*
X85300000Y-51850000D02*
X85300000Y-87149958D01*
X85350000Y-51800000D02*
X85300000Y-51850000D01*
D15*
X67300000Y-69000020D02*
X67300000Y-69900000D01*
D16*
X67300000Y-71500000D02*
X67300000Y-69000020D01*
X64930000Y-73870000D02*
X67300000Y-71500000D01*
X64930000Y-98600000D02*
X64930000Y-73870000D01*
D15*
X83300000Y-69000020D02*
X83300000Y-69900000D01*
D16*
X83300000Y-71500000D02*
X83300000Y-69000020D01*
X80930000Y-73870000D02*
X83300000Y-71500000D01*
X80930000Y-98600000D02*
X80930000Y-73870000D01*
D17*
G36*
X76103307Y-44321571D02*
G01*
X76199570Y-44361444D01*
X76287472Y-44428894D01*
X76650000Y-44791422D01*
X76650001Y-91017189D01*
X76651767Y-91035119D01*
X76651767Y-91048116D01*
X76652278Y-91052976D01*
X76674033Y-91246926D01*
X76680617Y-91277898D01*
X76686790Y-91309074D01*
X76688236Y-91313743D01*
X76700000Y-91350827D01*
X76700000Y-92038975D01*
X76649396Y-92072787D01*
X76572787Y-92149396D01*
X76512597Y-92239477D01*
X76471136Y-92339571D01*
X76450000Y-92445830D01*
X76450000Y-92554170D01*
X76471136Y-92660429D01*
X76512597Y-92760523D01*
X76572787Y-92850604D01*
X76649396Y-92927213D01*
X76700000Y-92961025D01*
X76700000Y-93038975D01*
X76649396Y-93072787D01*
X76572787Y-93149396D01*
X76512597Y-93239477D01*
X76471136Y-93339571D01*
X76450000Y-93445830D01*
X76450000Y-93554170D01*
X76471136Y-93660429D01*
X76512597Y-93760523D01*
X76572787Y-93850604D01*
X76649396Y-93927213D01*
X76700000Y-93961025D01*
X76700000Y-94038975D01*
X76649396Y-94072787D01*
X76572787Y-94149396D01*
X76512597Y-94239477D01*
X76471136Y-94339571D01*
X76450000Y-94445830D01*
X76450000Y-94554170D01*
X76471136Y-94660429D01*
X76512597Y-94760523D01*
X76572787Y-94850604D01*
X76649396Y-94927213D01*
X76700000Y-94961025D01*
X76700000Y-95651554D01*
X76683983Y-95704605D01*
X76677827Y-95735697D01*
X76671226Y-95766752D01*
X76670715Y-95771612D01*
X76651670Y-95965846D01*
X76651670Y-95965866D01*
X76650001Y-95982811D01*
X76650001Y-107208577D01*
X76287472Y-107571106D01*
X76199570Y-107638556D01*
X76103307Y-107678429D01*
X76000000Y-107692030D01*
X75896693Y-107678429D01*
X75800430Y-107638556D01*
X75712528Y-107571106D01*
X74424264Y-106282842D01*
X74414429Y-106274218D01*
X74310876Y-106194759D01*
X74288268Y-106181706D01*
X74167678Y-106131756D01*
X74142463Y-106124999D01*
X74013053Y-106107962D01*
X73986947Y-106107962D01*
X73857537Y-106124999D01*
X73832322Y-106131756D01*
X73711732Y-106181706D01*
X73689124Y-106194759D01*
X73585571Y-106274218D01*
X73575736Y-106282842D01*
X72287472Y-107571106D01*
X72199570Y-107638556D01*
X72103307Y-107678429D01*
X72000000Y-107692030D01*
X71896693Y-107678429D01*
X71800430Y-107638556D01*
X71712528Y-107571106D01*
X70424264Y-106282842D01*
X70414429Y-106274218D01*
X70310876Y-106194759D01*
X70288268Y-106181706D01*
X70167678Y-106131756D01*
X70142463Y-106124999D01*
X70013053Y-106107962D01*
X69986947Y-106107962D01*
X69857537Y-106124999D01*
X69832322Y-106131756D01*
X69711732Y-106181706D01*
X69689124Y-106194759D01*
X69585571Y-106274218D01*
X69575736Y-106282842D01*
X68287472Y-107571106D01*
X68199570Y-107638556D01*
X68103307Y-107678429D01*
X68000000Y-107692030D01*
X67896693Y-107678429D01*
X67800430Y-107638556D01*
X67712528Y-107571106D01*
X66424264Y-106282842D01*
X66414429Y-106274218D01*
X66310876Y-106194759D01*
X66288268Y-106181706D01*
X66167678Y-106131756D01*
X66142463Y-106124999D01*
X66013053Y-106107962D01*
X65986947Y-106107962D01*
X65857537Y-106124999D01*
X65832322Y-106131756D01*
X65711732Y-106181706D01*
X65689124Y-106194759D01*
X65585571Y-106274218D01*
X65575736Y-106282842D01*
X64287472Y-107571106D01*
X64199570Y-107638556D01*
X64103307Y-107678429D01*
X64000000Y-107692030D01*
X63896693Y-107678429D01*
X63800430Y-107638556D01*
X63712528Y-107571106D01*
X63350000Y-107208578D01*
X63350000Y-98491659D01*
X63830000Y-98491659D01*
X63830000Y-98708341D01*
X63872273Y-98920858D01*
X63955193Y-99121045D01*
X64075575Y-99301209D01*
X64228791Y-99454425D01*
X64408955Y-99574807D01*
X64609142Y-99657727D01*
X64821659Y-99700000D01*
X65038341Y-99700000D01*
X65250858Y-99657727D01*
X65451045Y-99574807D01*
X65631209Y-99454425D01*
X65685634Y-99400000D01*
X66167581Y-99400000D01*
X66177235Y-99498017D01*
X66205825Y-99592267D01*
X66252254Y-99679129D01*
X66314736Y-99755264D01*
X66390871Y-99817746D01*
X66477733Y-99864175D01*
X66571983Y-99892765D01*
X66670000Y-99902419D01*
X67195000Y-99900000D01*
X67320000Y-99775000D01*
X67320000Y-98750000D01*
X67620000Y-98750000D01*
X67620000Y-99775000D01*
X67745000Y-99900000D01*
X68270000Y-99902419D01*
X68368017Y-99892765D01*
X68462267Y-99864175D01*
X68549129Y-99817746D01*
X68625264Y-99755264D01*
X68687746Y-99679129D01*
X68734175Y-99592267D01*
X68762765Y-99498017D01*
X68772419Y-99400000D01*
X68770000Y-98875000D01*
X68645000Y-98750000D01*
X67620000Y-98750000D01*
X67320000Y-98750000D01*
X66295000Y-98750000D01*
X66170000Y-98875000D01*
X66167581Y-99400000D01*
X65685634Y-99400000D01*
X65784425Y-99301209D01*
X65904807Y-99121045D01*
X65987727Y-98920858D01*
X66030000Y-98708341D01*
X66030000Y-98491659D01*
X65987727Y-98279142D01*
X65904807Y-98078955D01*
X65784425Y-97898791D01*
X65685634Y-97800000D01*
X66167581Y-97800000D01*
X66170000Y-98325000D01*
X66295000Y-98450000D01*
X67320000Y-98450000D01*
X67320000Y-97425000D01*
X67620000Y-97425000D01*
X67620000Y-98450000D01*
X68645000Y-98450000D01*
X68770000Y-98325000D01*
X68772419Y-97800000D01*
X68762765Y-97701983D01*
X68734175Y-97607733D01*
X68687746Y-97520871D01*
X68625264Y-97444736D01*
X68549129Y-97382254D01*
X68462267Y-97335825D01*
X68368017Y-97307235D01*
X68270000Y-97297581D01*
X67745000Y-97300000D01*
X67620000Y-97425000D01*
X67320000Y-97425000D01*
X67195000Y-97300000D01*
X66670000Y-97297581D01*
X66571983Y-97307235D01*
X66477733Y-97335825D01*
X66390871Y-97382254D01*
X66314736Y-97444736D01*
X66252254Y-97520871D01*
X66205825Y-97607733D01*
X66177235Y-97701983D01*
X66167581Y-97800000D01*
X65685634Y-97800000D01*
X65631209Y-97745575D01*
X65605000Y-97728063D01*
X65605000Y-92731056D01*
X65700000Y-92731056D01*
X65700000Y-92868944D01*
X65726901Y-93004182D01*
X65779668Y-93131574D01*
X65856274Y-93246224D01*
X65953776Y-93343726D01*
X66068426Y-93420332D01*
X66195818Y-93473099D01*
X66331056Y-93500000D01*
X66468944Y-93500000D01*
X66492552Y-93495304D01*
X66498025Y-93501973D01*
X66562739Y-93555083D01*
X66636572Y-93594547D01*
X66692382Y-93611477D01*
X66716684Y-93618849D01*
X66725097Y-93619678D01*
X66779125Y-93624999D01*
X66779131Y-93624999D01*
X66799998Y-93627054D01*
X66820865Y-93624999D01*
X68579134Y-93624999D01*
X68600001Y-93627054D01*
X68620868Y-93624999D01*
X68620875Y-93624999D01*
X68683315Y-93618849D01*
X68763428Y-93594547D01*
X68837261Y-93555083D01*
X68901975Y-93501973D01*
X68915284Y-93485756D01*
X71585762Y-90815279D01*
X71601974Y-90801974D01*
X71655084Y-90737260D01*
X71694548Y-90663427D01*
X71718850Y-90583314D01*
X71725000Y-90520874D01*
X71725000Y-90520868D01*
X71727055Y-90500001D01*
X71725000Y-90479134D01*
X71725000Y-89155124D01*
X74657008Y-89155124D01*
X74707491Y-89333076D01*
X74898988Y-89411231D01*
X75102054Y-89450525D01*
X75308883Y-89449448D01*
X75511529Y-89408042D01*
X75692509Y-89333076D01*
X75742992Y-89155124D01*
X75200000Y-88612132D01*
X74657008Y-89155124D01*
X71725000Y-89155124D01*
X71725000Y-88302054D01*
X74149475Y-88302054D01*
X74150552Y-88508883D01*
X74191958Y-88711529D01*
X74266924Y-88892509D01*
X74444876Y-88942992D01*
X74987868Y-88400000D01*
X75412132Y-88400000D01*
X75955124Y-88942992D01*
X76133076Y-88892509D01*
X76211231Y-88701012D01*
X76250525Y-88497946D01*
X76249448Y-88291117D01*
X76208042Y-88088471D01*
X76133076Y-87907491D01*
X75955124Y-87857008D01*
X75412132Y-88400000D01*
X74987868Y-88400000D01*
X74444876Y-87857008D01*
X74266924Y-87907491D01*
X74188769Y-88098988D01*
X74149475Y-88302054D01*
X71725000Y-88302054D01*
X71725000Y-87644876D01*
X74657008Y-87644876D01*
X75200000Y-88187868D01*
X75742992Y-87644876D01*
X75692509Y-87466924D01*
X75501012Y-87388769D01*
X75297946Y-87349475D01*
X75091117Y-87350552D01*
X74888471Y-87391958D01*
X74707491Y-87466924D01*
X74657008Y-87644876D01*
X71725000Y-87644876D01*
X71725000Y-85776282D01*
X74350000Y-85776282D01*
X74350000Y-85943718D01*
X74382665Y-86107936D01*
X74446740Y-86262626D01*
X74539762Y-86401844D01*
X74658156Y-86520238D01*
X74797374Y-86613260D01*
X74952064Y-86677335D01*
X75116282Y-86710000D01*
X75283718Y-86710000D01*
X75447936Y-86677335D01*
X75602626Y-86613260D01*
X75741844Y-86520238D01*
X75860238Y-86401844D01*
X75953260Y-86262626D01*
X76017335Y-86107936D01*
X76050000Y-85943718D01*
X76050000Y-85776282D01*
X76017335Y-85612064D01*
X75953260Y-85457374D01*
X75860238Y-85318156D01*
X75741844Y-85199762D01*
X75602626Y-85106740D01*
X75447936Y-85042665D01*
X75283718Y-85010000D01*
X75116282Y-85010000D01*
X74952064Y-85042665D01*
X74797374Y-85106740D01*
X74658156Y-85199762D01*
X74539762Y-85318156D01*
X74446740Y-85457374D01*
X74382665Y-85612064D01*
X74350000Y-85776282D01*
X71725000Y-85776282D01*
X71725000Y-83876040D01*
X71856041Y-83745000D01*
X74461690Y-83745000D01*
X74539762Y-83861844D01*
X74658156Y-83980238D01*
X74797374Y-84073260D01*
X74952064Y-84137335D01*
X75116282Y-84170000D01*
X75283718Y-84170000D01*
X75447936Y-84137335D01*
X75602626Y-84073260D01*
X75741844Y-83980238D01*
X75860238Y-83861844D01*
X75953260Y-83722626D01*
X76017335Y-83567936D01*
X76050000Y-83403718D01*
X76050000Y-83236282D01*
X76017335Y-83072064D01*
X75953260Y-82917374D01*
X75860238Y-82778156D01*
X75741844Y-82659762D01*
X75602626Y-82566740D01*
X75447936Y-82502665D01*
X75283718Y-82470000D01*
X75116282Y-82470000D01*
X74952064Y-82502665D01*
X74797374Y-82566740D01*
X74658156Y-82659762D01*
X74539762Y-82778156D01*
X74461690Y-82895000D01*
X71846041Y-82895000D01*
X71725000Y-82773960D01*
X71725000Y-80696282D01*
X74350000Y-80696282D01*
X74350000Y-80863718D01*
X74382665Y-81027936D01*
X74446740Y-81182626D01*
X74539762Y-81321844D01*
X74658156Y-81440238D01*
X74797374Y-81533260D01*
X74952064Y-81597335D01*
X75116282Y-81630000D01*
X75283718Y-81630000D01*
X75447936Y-81597335D01*
X75602626Y-81533260D01*
X75741844Y-81440238D01*
X75860238Y-81321844D01*
X75953260Y-81182626D01*
X76017335Y-81027936D01*
X76050000Y-80863718D01*
X76050000Y-80696282D01*
X76017335Y-80532064D01*
X75953260Y-80377374D01*
X75860238Y-80238156D01*
X75741844Y-80119762D01*
X75602626Y-80026740D01*
X75447936Y-79962665D01*
X75283718Y-79930000D01*
X75116282Y-79930000D01*
X74952064Y-79962665D01*
X74797374Y-80026740D01*
X74658156Y-80119762D01*
X74539762Y-80238156D01*
X74446740Y-80377374D01*
X74382665Y-80532064D01*
X74350000Y-80696282D01*
X71725000Y-80696282D01*
X71725000Y-80576040D01*
X71910763Y-80390278D01*
X71926975Y-80376973D01*
X71980085Y-80312259D01*
X72005802Y-80264144D01*
X72019549Y-80238427D01*
X72043851Y-80158314D01*
X72047648Y-80119762D01*
X72050001Y-80095873D01*
X72050001Y-80095866D01*
X72052056Y-80074999D01*
X72050001Y-80054132D01*
X72050001Y-78309367D01*
X72052056Y-78288500D01*
X72050001Y-78267633D01*
X72050001Y-78267626D01*
X72043851Y-78205186D01*
X72042508Y-78200758D01*
X72029017Y-78156282D01*
X74350000Y-78156282D01*
X74350000Y-78323718D01*
X74382665Y-78487936D01*
X74446740Y-78642626D01*
X74539762Y-78781844D01*
X74658156Y-78900238D01*
X74797374Y-78993260D01*
X74952064Y-79057335D01*
X75116282Y-79090000D01*
X75283718Y-79090000D01*
X75447936Y-79057335D01*
X75602626Y-78993260D01*
X75741844Y-78900238D01*
X75860238Y-78781844D01*
X75953260Y-78642626D01*
X76017335Y-78487936D01*
X76050000Y-78323718D01*
X76050000Y-78156282D01*
X76017335Y-77992064D01*
X75953260Y-77837374D01*
X75860238Y-77698156D01*
X75741844Y-77579762D01*
X75602626Y-77486740D01*
X75447936Y-77422665D01*
X75283718Y-77390000D01*
X75116282Y-77390000D01*
X74952064Y-77422665D01*
X74797374Y-77486740D01*
X74658156Y-77579762D01*
X74539762Y-77698156D01*
X74446740Y-77837374D01*
X74382665Y-77992064D01*
X74350000Y-78156282D01*
X72029017Y-78156282D01*
X72019549Y-78125072D01*
X71986232Y-78062741D01*
X71980085Y-78051240D01*
X71926975Y-77986526D01*
X71910764Y-77973222D01*
X71725000Y-77787459D01*
X71725000Y-75616282D01*
X74350000Y-75616282D01*
X74350000Y-75783718D01*
X74382665Y-75947936D01*
X74446740Y-76102626D01*
X74539762Y-76241844D01*
X74658156Y-76360238D01*
X74797374Y-76453260D01*
X74952064Y-76517335D01*
X75116282Y-76550000D01*
X75283718Y-76550000D01*
X75447936Y-76517335D01*
X75602626Y-76453260D01*
X75741844Y-76360238D01*
X75860238Y-76241844D01*
X75953260Y-76102626D01*
X76017335Y-75947936D01*
X76050000Y-75783718D01*
X76050000Y-75616282D01*
X76017335Y-75452064D01*
X75953260Y-75297374D01*
X75860238Y-75158156D01*
X75741844Y-75039762D01*
X75602626Y-74946740D01*
X75447936Y-74882665D01*
X75283718Y-74850000D01*
X75116282Y-74850000D01*
X74952064Y-74882665D01*
X74797374Y-74946740D01*
X74658156Y-75039762D01*
X74539762Y-75158156D01*
X74446740Y-75297374D01*
X74382665Y-75452064D01*
X74350000Y-75616282D01*
X71725000Y-75616282D01*
X71725000Y-67745830D01*
X72100000Y-67745830D01*
X72100000Y-67854170D01*
X72121136Y-67960429D01*
X72162597Y-68060523D01*
X72222787Y-68150604D01*
X72299396Y-68227213D01*
X72389477Y-68287403D01*
X72489571Y-68328864D01*
X72595830Y-68350000D01*
X72704170Y-68350000D01*
X72810429Y-68328864D01*
X72910523Y-68287403D01*
X73000604Y-68227213D01*
X73077213Y-68150604D01*
X73137403Y-68060523D01*
X73178864Y-67960429D01*
X73200000Y-67854170D01*
X73200000Y-67745830D01*
X73178864Y-67639571D01*
X73137403Y-67539477D01*
X73077213Y-67449396D01*
X73000604Y-67372787D01*
X72910523Y-67312597D01*
X72810429Y-67271136D01*
X72704170Y-67250000D01*
X72595830Y-67250000D01*
X72489571Y-67271136D01*
X72389477Y-67312597D01*
X72299396Y-67372787D01*
X72222787Y-67449396D01*
X72162597Y-67539477D01*
X72121136Y-67639571D01*
X72100000Y-67745830D01*
X71725000Y-67745830D01*
X71725000Y-63745830D01*
X72100000Y-63745830D01*
X72100000Y-63854170D01*
X72121136Y-63960429D01*
X72162597Y-64060523D01*
X72222787Y-64150604D01*
X72299396Y-64227213D01*
X72389477Y-64287403D01*
X72489571Y-64328864D01*
X72595830Y-64350000D01*
X72704170Y-64350000D01*
X72810429Y-64328864D01*
X72910523Y-64287403D01*
X73000604Y-64227213D01*
X73077213Y-64150604D01*
X73137403Y-64060523D01*
X73178864Y-63960429D01*
X73200000Y-63854170D01*
X73200000Y-63745830D01*
X73178864Y-63639571D01*
X73137403Y-63539477D01*
X73077213Y-63449396D01*
X73000604Y-63372787D01*
X72910523Y-63312597D01*
X72810429Y-63271136D01*
X72704170Y-63250000D01*
X72595830Y-63250000D01*
X72489571Y-63271136D01*
X72389477Y-63312597D01*
X72299396Y-63372787D01*
X72222787Y-63449396D01*
X72162597Y-63539477D01*
X72121136Y-63639571D01*
X72100000Y-63745830D01*
X71725000Y-63745830D01*
X71725000Y-54026040D01*
X73251041Y-52500000D01*
X73268944Y-52500000D01*
X73404182Y-52473099D01*
X73531574Y-52420332D01*
X73646224Y-52343726D01*
X73743726Y-52246224D01*
X73820332Y-52131574D01*
X73873099Y-52004182D01*
X73900000Y-51868944D01*
X73900000Y-51731056D01*
X73873099Y-51595818D01*
X73820332Y-51468426D01*
X73743726Y-51353776D01*
X73646224Y-51256274D01*
X73531574Y-51179668D01*
X73404182Y-51126901D01*
X73268944Y-51100000D01*
X73131056Y-51100000D01*
X72995818Y-51126901D01*
X72868426Y-51179668D01*
X72753776Y-51256274D01*
X72656274Y-51353776D01*
X72579668Y-51468426D01*
X72550000Y-51540052D01*
X72520332Y-51468426D01*
X72443726Y-51353776D01*
X72346224Y-51256274D01*
X72231574Y-51179668D01*
X72104182Y-51126901D01*
X71968944Y-51100000D01*
X71831056Y-51100000D01*
X71695818Y-51126901D01*
X71568426Y-51179668D01*
X71453776Y-51256274D01*
X71356274Y-51353776D01*
X71279668Y-51468426D01*
X71275000Y-51479696D01*
X71270332Y-51468426D01*
X71193726Y-51353776D01*
X71096224Y-51256274D01*
X70981574Y-51179668D01*
X70854182Y-51126901D01*
X70718944Y-51100000D01*
X70581056Y-51100000D01*
X70445818Y-51126901D01*
X70318426Y-51179668D01*
X70203776Y-51256274D01*
X70106274Y-51353776D01*
X70029668Y-51468426D01*
X70000000Y-51540052D01*
X69970332Y-51468426D01*
X69893726Y-51353776D01*
X69796224Y-51256274D01*
X69681574Y-51179668D01*
X69554182Y-51126901D01*
X69418944Y-51100000D01*
X69281056Y-51100000D01*
X69145818Y-51126901D01*
X69018426Y-51179668D01*
X68903776Y-51256274D01*
X68806274Y-51353776D01*
X68729668Y-51468426D01*
X68725000Y-51479696D01*
X68720332Y-51468426D01*
X68643726Y-51353776D01*
X68546224Y-51256274D01*
X68431574Y-51179668D01*
X68304182Y-51126901D01*
X68168944Y-51100000D01*
X68031056Y-51100000D01*
X67895818Y-51126901D01*
X67768426Y-51179668D01*
X67653776Y-51256274D01*
X67556274Y-51353776D01*
X67479668Y-51468426D01*
X67426901Y-51595818D01*
X67400000Y-51731056D01*
X67400000Y-51868944D01*
X67426901Y-52004182D01*
X67479668Y-52131574D01*
X67556274Y-52246224D01*
X67653776Y-52343726D01*
X67768426Y-52420332D01*
X67855259Y-52456299D01*
X68175001Y-52776042D01*
X68175000Y-86423959D01*
X67714239Y-86884721D01*
X67698027Y-86898026D01*
X67644917Y-86962740D01*
X67614926Y-87018850D01*
X67605453Y-87036573D01*
X67581150Y-87116686D01*
X67572945Y-87200000D01*
X67575001Y-87220876D01*
X67575000Y-88179133D01*
X67572945Y-88200000D01*
X67575000Y-88220867D01*
X67575000Y-88220873D01*
X67581150Y-88283313D01*
X67605452Y-88363426D01*
X67644916Y-88437259D01*
X67698026Y-88501974D01*
X67714243Y-88515283D01*
X68104980Y-88906020D01*
X68100000Y-88931056D01*
X68100000Y-89068944D01*
X68126901Y-89204182D01*
X68179668Y-89331574D01*
X68256274Y-89446224D01*
X68353776Y-89543726D01*
X68468426Y-89620332D01*
X68595818Y-89673099D01*
X68731056Y-89700000D01*
X68868944Y-89700000D01*
X69004182Y-89673099D01*
X69131574Y-89620332D01*
X69246224Y-89543726D01*
X69343726Y-89446224D01*
X69420332Y-89331574D01*
X69473099Y-89204182D01*
X69475001Y-89194620D01*
X69475001Y-89523958D01*
X68514243Y-90484717D01*
X68514238Y-90484721D01*
X68493979Y-90504980D01*
X68468944Y-90500000D01*
X68331056Y-90500000D01*
X68195818Y-90526901D01*
X68068426Y-90579668D01*
X67953776Y-90656274D01*
X67856274Y-90753776D01*
X67779668Y-90868426D01*
X67726901Y-90995818D01*
X67700000Y-91131056D01*
X67700000Y-91268944D01*
X67726901Y-91404182D01*
X67779668Y-91531574D01*
X67856274Y-91646224D01*
X67910050Y-91700000D01*
X67856274Y-91753776D01*
X67779668Y-91868426D01*
X67726901Y-91995818D01*
X67700000Y-92131056D01*
X67700000Y-92268944D01*
X67726901Y-92404182D01*
X67779668Y-92531574D01*
X67856274Y-92646224D01*
X67953776Y-92743726D01*
X68000580Y-92774999D01*
X67100000Y-92774999D01*
X67100000Y-92731056D01*
X67073099Y-92595818D01*
X67020332Y-92468426D01*
X66943726Y-92353776D01*
X66846224Y-92256274D01*
X66731574Y-92179668D01*
X66604182Y-92126901D01*
X66468944Y-92100000D01*
X66331056Y-92100000D01*
X66195818Y-92126901D01*
X66068426Y-92179668D01*
X65953776Y-92256274D01*
X65856274Y-92353776D01*
X65779668Y-92468426D01*
X65726901Y-92595818D01*
X65700000Y-92731056D01*
X65605000Y-92731056D01*
X65605000Y-74149594D01*
X67753857Y-72000737D01*
X67779605Y-71979606D01*
X67800738Y-71953856D01*
X67800743Y-71953851D01*
X67863957Y-71876825D01*
X67863958Y-71876824D01*
X67926636Y-71759561D01*
X67965233Y-71632323D01*
X67975000Y-71533159D01*
X67975000Y-71533153D01*
X67978265Y-71500001D01*
X67975000Y-71466849D01*
X67975000Y-70228178D01*
X67996261Y-70188401D01*
X68039147Y-70047026D01*
X68050000Y-69936835D01*
X68050000Y-68963185D01*
X68039147Y-68852994D01*
X67996261Y-68711619D01*
X67926619Y-68581327D01*
X67832895Y-68467125D01*
X67718692Y-68373401D01*
X67588400Y-68303759D01*
X67447025Y-68260873D01*
X67300000Y-68246392D01*
X67152974Y-68260873D01*
X67011599Y-68303759D01*
X66881307Y-68373401D01*
X66767105Y-68467125D01*
X66673381Y-68581328D01*
X66603739Y-68711620D01*
X66560853Y-68852995D01*
X66550000Y-68963186D01*
X66550000Y-69936835D01*
X66560854Y-70047026D01*
X66603740Y-70188401D01*
X66625001Y-70228177D01*
X66625000Y-71220406D01*
X64476143Y-73369263D01*
X64450395Y-73390394D01*
X64429264Y-73416142D01*
X64429256Y-73416150D01*
X64366043Y-73493176D01*
X64303365Y-73610439D01*
X64264767Y-73737677D01*
X64251735Y-73870000D01*
X64255001Y-73903162D01*
X64255000Y-97728063D01*
X64228791Y-97745575D01*
X64075575Y-97898791D01*
X63955193Y-98078955D01*
X63872273Y-98279142D01*
X63830000Y-98491659D01*
X63350000Y-98491659D01*
X63350000Y-71426131D01*
X64450000Y-71426131D01*
X64450000Y-71573869D01*
X64478822Y-71718767D01*
X64535359Y-71855258D01*
X64617437Y-71978097D01*
X64721903Y-72082563D01*
X64844742Y-72164641D01*
X64981233Y-72221178D01*
X65126131Y-72250000D01*
X65273869Y-72250000D01*
X65418767Y-72221178D01*
X65555258Y-72164641D01*
X65678097Y-72082563D01*
X65782563Y-71978097D01*
X65864641Y-71855258D01*
X65921178Y-71718767D01*
X65950000Y-71573869D01*
X65950000Y-71426131D01*
X65921178Y-71281233D01*
X65864641Y-71144742D01*
X65782563Y-71021903D01*
X65678097Y-70917437D01*
X65555258Y-70835359D01*
X65418767Y-70778822D01*
X65273869Y-70750000D01*
X65126131Y-70750000D01*
X64981233Y-70778822D01*
X64844742Y-70835359D01*
X64721903Y-70917437D01*
X64617437Y-71021903D01*
X64535359Y-71144742D01*
X64478822Y-71281233D01*
X64450000Y-71426131D01*
X63350000Y-71426131D01*
X63350000Y-68426131D01*
X64450000Y-68426131D01*
X64450000Y-68573869D01*
X64478822Y-68718767D01*
X64535359Y-68855258D01*
X64617437Y-68978097D01*
X64721903Y-69082563D01*
X64844742Y-69164641D01*
X64981233Y-69221178D01*
X65126131Y-69250000D01*
X65273869Y-69250000D01*
X65418767Y-69221178D01*
X65555258Y-69164641D01*
X65678097Y-69082563D01*
X65782563Y-68978097D01*
X65864641Y-68855258D01*
X65921178Y-68718767D01*
X65950000Y-68573869D01*
X65950000Y-68426131D01*
X65921178Y-68281233D01*
X65864641Y-68144742D01*
X65782563Y-68021903D01*
X65678097Y-67917437D01*
X65555258Y-67835359D01*
X65418767Y-67778822D01*
X65273869Y-67750000D01*
X65126131Y-67750000D01*
X64981233Y-67778822D01*
X64844742Y-67835359D01*
X64721903Y-67917437D01*
X64617437Y-68021903D01*
X64535359Y-68144742D01*
X64478822Y-68281233D01*
X64450000Y-68426131D01*
X63350000Y-68426131D01*
X63350000Y-44791422D01*
X63712528Y-44428894D01*
X63800430Y-44361444D01*
X63896693Y-44321571D01*
X64000000Y-44307970D01*
X64103307Y-44321571D01*
X64199570Y-44361444D01*
X64287472Y-44428894D01*
X65575736Y-45717158D01*
X65585571Y-45725782D01*
X65689124Y-45805241D01*
X65711732Y-45818294D01*
X65832322Y-45868244D01*
X65857537Y-45875001D01*
X65986947Y-45892038D01*
X66013053Y-45892038D01*
X66142463Y-45875001D01*
X66167678Y-45868244D01*
X66288268Y-45818294D01*
X66310876Y-45805241D01*
X66414429Y-45725782D01*
X66424264Y-45717158D01*
X67712528Y-44428894D01*
X67800430Y-44361444D01*
X67896693Y-44321571D01*
X68000000Y-44307970D01*
X68103307Y-44321571D01*
X68199570Y-44361444D01*
X68287472Y-44428894D01*
X69575736Y-45717158D01*
X69585571Y-45725782D01*
X69689124Y-45805241D01*
X69711732Y-45818294D01*
X69832322Y-45868244D01*
X69857537Y-45875001D01*
X69986947Y-45892038D01*
X70013053Y-45892038D01*
X70142463Y-45875001D01*
X70167678Y-45868244D01*
X70288268Y-45818294D01*
X70310876Y-45805241D01*
X70414429Y-45725782D01*
X70424264Y-45717158D01*
X71712528Y-44428894D01*
X71800430Y-44361444D01*
X71896693Y-44321571D01*
X72000000Y-44307970D01*
X72103307Y-44321571D01*
X72199570Y-44361444D01*
X72287472Y-44428894D01*
X73575736Y-45717158D01*
X73585571Y-45725782D01*
X73689124Y-45805241D01*
X73711732Y-45818294D01*
X73832322Y-45868244D01*
X73857537Y-45875001D01*
X73986947Y-45892038D01*
X74013053Y-45892038D01*
X74142463Y-45875001D01*
X74167678Y-45868244D01*
X74288268Y-45818294D01*
X74310876Y-45805241D01*
X74414429Y-45725782D01*
X74424264Y-45717158D01*
X75712528Y-44428894D01*
X75800430Y-44361444D01*
X75896693Y-44321571D01*
X76000000Y-44307970D01*
X76103307Y-44321571D01*
G37*
X76103307Y-44321571D02*
X76199570Y-44361444D01*
X76287472Y-44428894D01*
X76650000Y-44791422D01*
X76650001Y-91017189D01*
X76651767Y-91035119D01*
X76651767Y-91048116D01*
X76652278Y-91052976D01*
X76674033Y-91246926D01*
X76680617Y-91277898D01*
X76686790Y-91309074D01*
X76688236Y-91313743D01*
X76700000Y-91350827D01*
X76700000Y-92038975D01*
X76649396Y-92072787D01*
X76572787Y-92149396D01*
X76512597Y-92239477D01*
X76471136Y-92339571D01*
X76450000Y-92445830D01*
X76450000Y-92554170D01*
X76471136Y-92660429D01*
X76512597Y-92760523D01*
X76572787Y-92850604D01*
X76649396Y-92927213D01*
X76700000Y-92961025D01*
X76700000Y-93038975D01*
X76649396Y-93072787D01*
X76572787Y-93149396D01*
X76512597Y-93239477D01*
X76471136Y-93339571D01*
X76450000Y-93445830D01*
X76450000Y-93554170D01*
X76471136Y-93660429D01*
X76512597Y-93760523D01*
X76572787Y-93850604D01*
X76649396Y-93927213D01*
X76700000Y-93961025D01*
X76700000Y-94038975D01*
X76649396Y-94072787D01*
X76572787Y-94149396D01*
X76512597Y-94239477D01*
X76471136Y-94339571D01*
X76450000Y-94445830D01*
X76450000Y-94554170D01*
X76471136Y-94660429D01*
X76512597Y-94760523D01*
X76572787Y-94850604D01*
X76649396Y-94927213D01*
X76700000Y-94961025D01*
X76700000Y-95651554D01*
X76683983Y-95704605D01*
X76677827Y-95735697D01*
X76671226Y-95766752D01*
X76670715Y-95771612D01*
X76651670Y-95965846D01*
X76651670Y-95965866D01*
X76650001Y-95982811D01*
X76650001Y-107208577D01*
X76287472Y-107571106D01*
X76199570Y-107638556D01*
X76103307Y-107678429D01*
X76000000Y-107692030D01*
X75896693Y-107678429D01*
X75800430Y-107638556D01*
X75712528Y-107571106D01*
X74424264Y-106282842D01*
X74414429Y-106274218D01*
X74310876Y-106194759D01*
X74288268Y-106181706D01*
X74167678Y-106131756D01*
X74142463Y-106124999D01*
X74013053Y-106107962D01*
X73986947Y-106107962D01*
X73857537Y-106124999D01*
X73832322Y-106131756D01*
X73711732Y-106181706D01*
X73689124Y-106194759D01*
X73585571Y-106274218D01*
X73575736Y-106282842D01*
X72287472Y-107571106D01*
X72199570Y-107638556D01*
X72103307Y-107678429D01*
X72000000Y-107692030D01*
X71896693Y-107678429D01*
X71800430Y-107638556D01*
X71712528Y-107571106D01*
X70424264Y-106282842D01*
X70414429Y-106274218D01*
X70310876Y-106194759D01*
X70288268Y-106181706D01*
X70167678Y-106131756D01*
X70142463Y-106124999D01*
X70013053Y-106107962D01*
X69986947Y-106107962D01*
X69857537Y-106124999D01*
X69832322Y-106131756D01*
X69711732Y-106181706D01*
X69689124Y-106194759D01*
X69585571Y-106274218D01*
X69575736Y-106282842D01*
X68287472Y-107571106D01*
X68199570Y-107638556D01*
X68103307Y-107678429D01*
X68000000Y-107692030D01*
X67896693Y-107678429D01*
X67800430Y-107638556D01*
X67712528Y-107571106D01*
X66424264Y-106282842D01*
X66414429Y-106274218D01*
X66310876Y-106194759D01*
X66288268Y-106181706D01*
X66167678Y-106131756D01*
X66142463Y-106124999D01*
X66013053Y-106107962D01*
X65986947Y-106107962D01*
X65857537Y-106124999D01*
X65832322Y-106131756D01*
X65711732Y-106181706D01*
X65689124Y-106194759D01*
X65585571Y-106274218D01*
X65575736Y-106282842D01*
X64287472Y-107571106D01*
X64199570Y-107638556D01*
X64103307Y-107678429D01*
X64000000Y-107692030D01*
X63896693Y-107678429D01*
X63800430Y-107638556D01*
X63712528Y-107571106D01*
X63350000Y-107208578D01*
X63350000Y-98491659D01*
X63830000Y-98491659D01*
X63830000Y-98708341D01*
X63872273Y-98920858D01*
X63955193Y-99121045D01*
X64075575Y-99301209D01*
X64228791Y-99454425D01*
X64408955Y-99574807D01*
X64609142Y-99657727D01*
X64821659Y-99700000D01*
X65038341Y-99700000D01*
X65250858Y-99657727D01*
X65451045Y-99574807D01*
X65631209Y-99454425D01*
X65685634Y-99400000D01*
X66167581Y-99400000D01*
X66177235Y-99498017D01*
X66205825Y-99592267D01*
X66252254Y-99679129D01*
X66314736Y-99755264D01*
X66390871Y-99817746D01*
X66477733Y-99864175D01*
X66571983Y-99892765D01*
X66670000Y-99902419D01*
X67195000Y-99900000D01*
X67320000Y-99775000D01*
X67320000Y-98750000D01*
X67620000Y-98750000D01*
X67620000Y-99775000D01*
X67745000Y-99900000D01*
X68270000Y-99902419D01*
X68368017Y-99892765D01*
X68462267Y-99864175D01*
X68549129Y-99817746D01*
X68625264Y-99755264D01*
X68687746Y-99679129D01*
X68734175Y-99592267D01*
X68762765Y-99498017D01*
X68772419Y-99400000D01*
X68770000Y-98875000D01*
X68645000Y-98750000D01*
X67620000Y-98750000D01*
X67320000Y-98750000D01*
X66295000Y-98750000D01*
X66170000Y-98875000D01*
X66167581Y-99400000D01*
X65685634Y-99400000D01*
X65784425Y-99301209D01*
X65904807Y-99121045D01*
X65987727Y-98920858D01*
X66030000Y-98708341D01*
X66030000Y-98491659D01*
X65987727Y-98279142D01*
X65904807Y-98078955D01*
X65784425Y-97898791D01*
X65685634Y-97800000D01*
X66167581Y-97800000D01*
X66170000Y-98325000D01*
X66295000Y-98450000D01*
X67320000Y-98450000D01*
X67320000Y-97425000D01*
X67620000Y-97425000D01*
X67620000Y-98450000D01*
X68645000Y-98450000D01*
X68770000Y-98325000D01*
X68772419Y-97800000D01*
X68762765Y-97701983D01*
X68734175Y-97607733D01*
X68687746Y-97520871D01*
X68625264Y-97444736D01*
X68549129Y-97382254D01*
X68462267Y-97335825D01*
X68368017Y-97307235D01*
X68270000Y-97297581D01*
X67745000Y-97300000D01*
X67620000Y-97425000D01*
X67320000Y-97425000D01*
X67195000Y-97300000D01*
X66670000Y-97297581D01*
X66571983Y-97307235D01*
X66477733Y-97335825D01*
X66390871Y-97382254D01*
X66314736Y-97444736D01*
X66252254Y-97520871D01*
X66205825Y-97607733D01*
X66177235Y-97701983D01*
X66167581Y-97800000D01*
X65685634Y-97800000D01*
X65631209Y-97745575D01*
X65605000Y-97728063D01*
X65605000Y-92731056D01*
X65700000Y-92731056D01*
X65700000Y-92868944D01*
X65726901Y-93004182D01*
X65779668Y-93131574D01*
X65856274Y-93246224D01*
X65953776Y-93343726D01*
X66068426Y-93420332D01*
X66195818Y-93473099D01*
X66331056Y-93500000D01*
X66468944Y-93500000D01*
X66492552Y-93495304D01*
X66498025Y-93501973D01*
X66562739Y-93555083D01*
X66636572Y-93594547D01*
X66692382Y-93611477D01*
X66716684Y-93618849D01*
X66725097Y-93619678D01*
X66779125Y-93624999D01*
X66779131Y-93624999D01*
X66799998Y-93627054D01*
X66820865Y-93624999D01*
X68579134Y-93624999D01*
X68600001Y-93627054D01*
X68620868Y-93624999D01*
X68620875Y-93624999D01*
X68683315Y-93618849D01*
X68763428Y-93594547D01*
X68837261Y-93555083D01*
X68901975Y-93501973D01*
X68915284Y-93485756D01*
X71585762Y-90815279D01*
X71601974Y-90801974D01*
X71655084Y-90737260D01*
X71694548Y-90663427D01*
X71718850Y-90583314D01*
X71725000Y-90520874D01*
X71725000Y-90520868D01*
X71727055Y-90500001D01*
X71725000Y-90479134D01*
X71725000Y-89155124D01*
X74657008Y-89155124D01*
X74707491Y-89333076D01*
X74898988Y-89411231D01*
X75102054Y-89450525D01*
X75308883Y-89449448D01*
X75511529Y-89408042D01*
X75692509Y-89333076D01*
X75742992Y-89155124D01*
X75200000Y-88612132D01*
X74657008Y-89155124D01*
X71725000Y-89155124D01*
X71725000Y-88302054D01*
X74149475Y-88302054D01*
X74150552Y-88508883D01*
X74191958Y-88711529D01*
X74266924Y-88892509D01*
X74444876Y-88942992D01*
X74987868Y-88400000D01*
X75412132Y-88400000D01*
X75955124Y-88942992D01*
X76133076Y-88892509D01*
X76211231Y-88701012D01*
X76250525Y-88497946D01*
X76249448Y-88291117D01*
X76208042Y-88088471D01*
X76133076Y-87907491D01*
X75955124Y-87857008D01*
X75412132Y-88400000D01*
X74987868Y-88400000D01*
X74444876Y-87857008D01*
X74266924Y-87907491D01*
X74188769Y-88098988D01*
X74149475Y-88302054D01*
X71725000Y-88302054D01*
X71725000Y-87644876D01*
X74657008Y-87644876D01*
X75200000Y-88187868D01*
X75742992Y-87644876D01*
X75692509Y-87466924D01*
X75501012Y-87388769D01*
X75297946Y-87349475D01*
X75091117Y-87350552D01*
X74888471Y-87391958D01*
X74707491Y-87466924D01*
X74657008Y-87644876D01*
X71725000Y-87644876D01*
X71725000Y-85776282D01*
X74350000Y-85776282D01*
X74350000Y-85943718D01*
X74382665Y-86107936D01*
X74446740Y-86262626D01*
X74539762Y-86401844D01*
X74658156Y-86520238D01*
X74797374Y-86613260D01*
X74952064Y-86677335D01*
X75116282Y-86710000D01*
X75283718Y-86710000D01*
X75447936Y-86677335D01*
X75602626Y-86613260D01*
X75741844Y-86520238D01*
X75860238Y-86401844D01*
X75953260Y-86262626D01*
X76017335Y-86107936D01*
X76050000Y-85943718D01*
X76050000Y-85776282D01*
X76017335Y-85612064D01*
X75953260Y-85457374D01*
X75860238Y-85318156D01*
X75741844Y-85199762D01*
X75602626Y-85106740D01*
X75447936Y-85042665D01*
X75283718Y-85010000D01*
X75116282Y-85010000D01*
X74952064Y-85042665D01*
X74797374Y-85106740D01*
X74658156Y-85199762D01*
X74539762Y-85318156D01*
X74446740Y-85457374D01*
X74382665Y-85612064D01*
X74350000Y-85776282D01*
X71725000Y-85776282D01*
X71725000Y-83876040D01*
X71856041Y-83745000D01*
X74461690Y-83745000D01*
X74539762Y-83861844D01*
X74658156Y-83980238D01*
X74797374Y-84073260D01*
X74952064Y-84137335D01*
X75116282Y-84170000D01*
X75283718Y-84170000D01*
X75447936Y-84137335D01*
X75602626Y-84073260D01*
X75741844Y-83980238D01*
X75860238Y-83861844D01*
X75953260Y-83722626D01*
X76017335Y-83567936D01*
X76050000Y-83403718D01*
X76050000Y-83236282D01*
X76017335Y-83072064D01*
X75953260Y-82917374D01*
X75860238Y-82778156D01*
X75741844Y-82659762D01*
X75602626Y-82566740D01*
X75447936Y-82502665D01*
X75283718Y-82470000D01*
X75116282Y-82470000D01*
X74952064Y-82502665D01*
X74797374Y-82566740D01*
X74658156Y-82659762D01*
X74539762Y-82778156D01*
X74461690Y-82895000D01*
X71846041Y-82895000D01*
X71725000Y-82773960D01*
X71725000Y-80696282D01*
X74350000Y-80696282D01*
X74350000Y-80863718D01*
X74382665Y-81027936D01*
X74446740Y-81182626D01*
X74539762Y-81321844D01*
X74658156Y-81440238D01*
X74797374Y-81533260D01*
X74952064Y-81597335D01*
X75116282Y-81630000D01*
X75283718Y-81630000D01*
X75447936Y-81597335D01*
X75602626Y-81533260D01*
X75741844Y-81440238D01*
X75860238Y-81321844D01*
X75953260Y-81182626D01*
X76017335Y-81027936D01*
X76050000Y-80863718D01*
X76050000Y-80696282D01*
X76017335Y-80532064D01*
X75953260Y-80377374D01*
X75860238Y-80238156D01*
X75741844Y-80119762D01*
X75602626Y-80026740D01*
X75447936Y-79962665D01*
X75283718Y-79930000D01*
X75116282Y-79930000D01*
X74952064Y-79962665D01*
X74797374Y-80026740D01*
X74658156Y-80119762D01*
X74539762Y-80238156D01*
X74446740Y-80377374D01*
X74382665Y-80532064D01*
X74350000Y-80696282D01*
X71725000Y-80696282D01*
X71725000Y-80576040D01*
X71910763Y-80390278D01*
X71926975Y-80376973D01*
X71980085Y-80312259D01*
X72005802Y-80264144D01*
X72019549Y-80238427D01*
X72043851Y-80158314D01*
X72047648Y-80119762D01*
X72050001Y-80095873D01*
X72050001Y-80095866D01*
X72052056Y-80074999D01*
X72050001Y-80054132D01*
X72050001Y-78309367D01*
X72052056Y-78288500D01*
X72050001Y-78267633D01*
X72050001Y-78267626D01*
X72043851Y-78205186D01*
X72042508Y-78200758D01*
X72029017Y-78156282D01*
X74350000Y-78156282D01*
X74350000Y-78323718D01*
X74382665Y-78487936D01*
X74446740Y-78642626D01*
X74539762Y-78781844D01*
X74658156Y-78900238D01*
X74797374Y-78993260D01*
X74952064Y-79057335D01*
X75116282Y-79090000D01*
X75283718Y-79090000D01*
X75447936Y-79057335D01*
X75602626Y-78993260D01*
X75741844Y-78900238D01*
X75860238Y-78781844D01*
X75953260Y-78642626D01*
X76017335Y-78487936D01*
X76050000Y-78323718D01*
X76050000Y-78156282D01*
X76017335Y-77992064D01*
X75953260Y-77837374D01*
X75860238Y-77698156D01*
X75741844Y-77579762D01*
X75602626Y-77486740D01*
X75447936Y-77422665D01*
X75283718Y-77390000D01*
X75116282Y-77390000D01*
X74952064Y-77422665D01*
X74797374Y-77486740D01*
X74658156Y-77579762D01*
X74539762Y-77698156D01*
X74446740Y-77837374D01*
X74382665Y-77992064D01*
X74350000Y-78156282D01*
X72029017Y-78156282D01*
X72019549Y-78125072D01*
X71986232Y-78062741D01*
X71980085Y-78051240D01*
X71926975Y-77986526D01*
X71910764Y-77973222D01*
X71725000Y-77787459D01*
X71725000Y-75616282D01*
X74350000Y-75616282D01*
X74350000Y-75783718D01*
X74382665Y-75947936D01*
X74446740Y-76102626D01*
X74539762Y-76241844D01*
X74658156Y-76360238D01*
X74797374Y-76453260D01*
X74952064Y-76517335D01*
X75116282Y-76550000D01*
X75283718Y-76550000D01*
X75447936Y-76517335D01*
X75602626Y-76453260D01*
X75741844Y-76360238D01*
X75860238Y-76241844D01*
X75953260Y-76102626D01*
X76017335Y-75947936D01*
X76050000Y-75783718D01*
X76050000Y-75616282D01*
X76017335Y-75452064D01*
X75953260Y-75297374D01*
X75860238Y-75158156D01*
X75741844Y-75039762D01*
X75602626Y-74946740D01*
X75447936Y-74882665D01*
X75283718Y-74850000D01*
X75116282Y-74850000D01*
X74952064Y-74882665D01*
X74797374Y-74946740D01*
X74658156Y-75039762D01*
X74539762Y-75158156D01*
X74446740Y-75297374D01*
X74382665Y-75452064D01*
X74350000Y-75616282D01*
X71725000Y-75616282D01*
X71725000Y-67745830D01*
X72100000Y-67745830D01*
X72100000Y-67854170D01*
X72121136Y-67960429D01*
X72162597Y-68060523D01*
X72222787Y-68150604D01*
X72299396Y-68227213D01*
X72389477Y-68287403D01*
X72489571Y-68328864D01*
X72595830Y-68350000D01*
X72704170Y-68350000D01*
X72810429Y-68328864D01*
X72910523Y-68287403D01*
X73000604Y-68227213D01*
X73077213Y-68150604D01*
X73137403Y-68060523D01*
X73178864Y-67960429D01*
X73200000Y-67854170D01*
X73200000Y-67745830D01*
X73178864Y-67639571D01*
X73137403Y-67539477D01*
X73077213Y-67449396D01*
X73000604Y-67372787D01*
X72910523Y-67312597D01*
X72810429Y-67271136D01*
X72704170Y-67250000D01*
X72595830Y-67250000D01*
X72489571Y-67271136D01*
X72389477Y-67312597D01*
X72299396Y-67372787D01*
X72222787Y-67449396D01*
X72162597Y-67539477D01*
X72121136Y-67639571D01*
X72100000Y-67745830D01*
X71725000Y-67745830D01*
X71725000Y-63745830D01*
X72100000Y-63745830D01*
X72100000Y-63854170D01*
X72121136Y-63960429D01*
X72162597Y-64060523D01*
X72222787Y-64150604D01*
X72299396Y-64227213D01*
X72389477Y-64287403D01*
X72489571Y-64328864D01*
X72595830Y-64350000D01*
X72704170Y-64350000D01*
X72810429Y-64328864D01*
X72910523Y-64287403D01*
X73000604Y-64227213D01*
X73077213Y-64150604D01*
X73137403Y-64060523D01*
X73178864Y-63960429D01*
X73200000Y-63854170D01*
X73200000Y-63745830D01*
X73178864Y-63639571D01*
X73137403Y-63539477D01*
X73077213Y-63449396D01*
X73000604Y-63372787D01*
X72910523Y-63312597D01*
X72810429Y-63271136D01*
X72704170Y-63250000D01*
X72595830Y-63250000D01*
X72489571Y-63271136D01*
X72389477Y-63312597D01*
X72299396Y-63372787D01*
X72222787Y-63449396D01*
X72162597Y-63539477D01*
X72121136Y-63639571D01*
X72100000Y-63745830D01*
X71725000Y-63745830D01*
X71725000Y-54026040D01*
X73251041Y-52500000D01*
X73268944Y-52500000D01*
X73404182Y-52473099D01*
X73531574Y-52420332D01*
X73646224Y-52343726D01*
X73743726Y-52246224D01*
X73820332Y-52131574D01*
X73873099Y-52004182D01*
X73900000Y-51868944D01*
X73900000Y-51731056D01*
X73873099Y-51595818D01*
X73820332Y-51468426D01*
X73743726Y-51353776D01*
X73646224Y-51256274D01*
X73531574Y-51179668D01*
X73404182Y-51126901D01*
X73268944Y-51100000D01*
X73131056Y-51100000D01*
X72995818Y-51126901D01*
X72868426Y-51179668D01*
X72753776Y-51256274D01*
X72656274Y-51353776D01*
X72579668Y-51468426D01*
X72550000Y-51540052D01*
X72520332Y-51468426D01*
X72443726Y-51353776D01*
X72346224Y-51256274D01*
X72231574Y-51179668D01*
X72104182Y-51126901D01*
X71968944Y-51100000D01*
X71831056Y-51100000D01*
X71695818Y-51126901D01*
X71568426Y-51179668D01*
X71453776Y-51256274D01*
X71356274Y-51353776D01*
X71279668Y-51468426D01*
X71275000Y-51479696D01*
X71270332Y-51468426D01*
X71193726Y-51353776D01*
X71096224Y-51256274D01*
X70981574Y-51179668D01*
X70854182Y-51126901D01*
X70718944Y-51100000D01*
X70581056Y-51100000D01*
X70445818Y-51126901D01*
X70318426Y-51179668D01*
X70203776Y-51256274D01*
X70106274Y-51353776D01*
X70029668Y-51468426D01*
X70000000Y-51540052D01*
X69970332Y-51468426D01*
X69893726Y-51353776D01*
X69796224Y-51256274D01*
X69681574Y-51179668D01*
X69554182Y-51126901D01*
X69418944Y-51100000D01*
X69281056Y-51100000D01*
X69145818Y-51126901D01*
X69018426Y-51179668D01*
X68903776Y-51256274D01*
X68806274Y-51353776D01*
X68729668Y-51468426D01*
X68725000Y-51479696D01*
X68720332Y-51468426D01*
X68643726Y-51353776D01*
X68546224Y-51256274D01*
X68431574Y-51179668D01*
X68304182Y-51126901D01*
X68168944Y-51100000D01*
X68031056Y-51100000D01*
X67895818Y-51126901D01*
X67768426Y-51179668D01*
X67653776Y-51256274D01*
X67556274Y-51353776D01*
X67479668Y-51468426D01*
X67426901Y-51595818D01*
X67400000Y-51731056D01*
X67400000Y-51868944D01*
X67426901Y-52004182D01*
X67479668Y-52131574D01*
X67556274Y-52246224D01*
X67653776Y-52343726D01*
X67768426Y-52420332D01*
X67855259Y-52456299D01*
X68175001Y-52776042D01*
X68175000Y-86423959D01*
X67714239Y-86884721D01*
X67698027Y-86898026D01*
X67644917Y-86962740D01*
X67614926Y-87018850D01*
X67605453Y-87036573D01*
X67581150Y-87116686D01*
X67572945Y-87200000D01*
X67575001Y-87220876D01*
X67575000Y-88179133D01*
X67572945Y-88200000D01*
X67575000Y-88220867D01*
X67575000Y-88220873D01*
X67581150Y-88283313D01*
X67605452Y-88363426D01*
X67644916Y-88437259D01*
X67698026Y-88501974D01*
X67714243Y-88515283D01*
X68104980Y-88906020D01*
X68100000Y-88931056D01*
X68100000Y-89068944D01*
X68126901Y-89204182D01*
X68179668Y-89331574D01*
X68256274Y-89446224D01*
X68353776Y-89543726D01*
X68468426Y-89620332D01*
X68595818Y-89673099D01*
X68731056Y-89700000D01*
X68868944Y-89700000D01*
X69004182Y-89673099D01*
X69131574Y-89620332D01*
X69246224Y-89543726D01*
X69343726Y-89446224D01*
X69420332Y-89331574D01*
X69473099Y-89204182D01*
X69475001Y-89194620D01*
X69475001Y-89523958D01*
X68514243Y-90484717D01*
X68514238Y-90484721D01*
X68493979Y-90504980D01*
X68468944Y-90500000D01*
X68331056Y-90500000D01*
X68195818Y-90526901D01*
X68068426Y-90579668D01*
X67953776Y-90656274D01*
X67856274Y-90753776D01*
X67779668Y-90868426D01*
X67726901Y-90995818D01*
X67700000Y-91131056D01*
X67700000Y-91268944D01*
X67726901Y-91404182D01*
X67779668Y-91531574D01*
X67856274Y-91646224D01*
X67910050Y-91700000D01*
X67856274Y-91753776D01*
X67779668Y-91868426D01*
X67726901Y-91995818D01*
X67700000Y-92131056D01*
X67700000Y-92268944D01*
X67726901Y-92404182D01*
X67779668Y-92531574D01*
X67856274Y-92646224D01*
X67953776Y-92743726D01*
X68000580Y-92774999D01*
X67100000Y-92774999D01*
X67100000Y-92731056D01*
X67073099Y-92595818D01*
X67020332Y-92468426D01*
X66943726Y-92353776D01*
X66846224Y-92256274D01*
X66731574Y-92179668D01*
X66604182Y-92126901D01*
X66468944Y-92100000D01*
X66331056Y-92100000D01*
X66195818Y-92126901D01*
X66068426Y-92179668D01*
X65953776Y-92256274D01*
X65856274Y-92353776D01*
X65779668Y-92468426D01*
X65726901Y-92595818D01*
X65700000Y-92731056D01*
X65605000Y-92731056D01*
X65605000Y-74149594D01*
X67753857Y-72000737D01*
X67779605Y-71979606D01*
X67800738Y-71953856D01*
X67800743Y-71953851D01*
X67863957Y-71876825D01*
X67863958Y-71876824D01*
X67926636Y-71759561D01*
X67965233Y-71632323D01*
X67975000Y-71533159D01*
X67975000Y-71533153D01*
X67978265Y-71500001D01*
X67975000Y-71466849D01*
X67975000Y-70228178D01*
X67996261Y-70188401D01*
X68039147Y-70047026D01*
X68050000Y-69936835D01*
X68050000Y-68963185D01*
X68039147Y-68852994D01*
X67996261Y-68711619D01*
X67926619Y-68581327D01*
X67832895Y-68467125D01*
X67718692Y-68373401D01*
X67588400Y-68303759D01*
X67447025Y-68260873D01*
X67300000Y-68246392D01*
X67152974Y-68260873D01*
X67011599Y-68303759D01*
X66881307Y-68373401D01*
X66767105Y-68467125D01*
X66673381Y-68581328D01*
X66603739Y-68711620D01*
X66560853Y-68852995D01*
X66550000Y-68963186D01*
X66550000Y-69936835D01*
X66560854Y-70047026D01*
X66603740Y-70188401D01*
X66625001Y-70228177D01*
X66625000Y-71220406D01*
X64476143Y-73369263D01*
X64450395Y-73390394D01*
X64429264Y-73416142D01*
X64429256Y-73416150D01*
X64366043Y-73493176D01*
X64303365Y-73610439D01*
X64264767Y-73737677D01*
X64251735Y-73870000D01*
X64255001Y-73903162D01*
X64255000Y-97728063D01*
X64228791Y-97745575D01*
X64075575Y-97898791D01*
X63955193Y-98078955D01*
X63872273Y-98279142D01*
X63830000Y-98491659D01*
X63350000Y-98491659D01*
X63350000Y-71426131D01*
X64450000Y-71426131D01*
X64450000Y-71573869D01*
X64478822Y-71718767D01*
X64535359Y-71855258D01*
X64617437Y-71978097D01*
X64721903Y-72082563D01*
X64844742Y-72164641D01*
X64981233Y-72221178D01*
X65126131Y-72250000D01*
X65273869Y-72250000D01*
X65418767Y-72221178D01*
X65555258Y-72164641D01*
X65678097Y-72082563D01*
X65782563Y-71978097D01*
X65864641Y-71855258D01*
X65921178Y-71718767D01*
X65950000Y-71573869D01*
X65950000Y-71426131D01*
X65921178Y-71281233D01*
X65864641Y-71144742D01*
X65782563Y-71021903D01*
X65678097Y-70917437D01*
X65555258Y-70835359D01*
X65418767Y-70778822D01*
X65273869Y-70750000D01*
X65126131Y-70750000D01*
X64981233Y-70778822D01*
X64844742Y-70835359D01*
X64721903Y-70917437D01*
X64617437Y-71021903D01*
X64535359Y-71144742D01*
X64478822Y-71281233D01*
X64450000Y-71426131D01*
X63350000Y-71426131D01*
X63350000Y-68426131D01*
X64450000Y-68426131D01*
X64450000Y-68573869D01*
X64478822Y-68718767D01*
X64535359Y-68855258D01*
X64617437Y-68978097D01*
X64721903Y-69082563D01*
X64844742Y-69164641D01*
X64981233Y-69221178D01*
X65126131Y-69250000D01*
X65273869Y-69250000D01*
X65418767Y-69221178D01*
X65555258Y-69164641D01*
X65678097Y-69082563D01*
X65782563Y-68978097D01*
X65864641Y-68855258D01*
X65921178Y-68718767D01*
X65950000Y-68573869D01*
X65950000Y-68426131D01*
X65921178Y-68281233D01*
X65864641Y-68144742D01*
X65782563Y-68021903D01*
X65678097Y-67917437D01*
X65555258Y-67835359D01*
X65418767Y-67778822D01*
X65273869Y-67750000D01*
X65126131Y-67750000D01*
X64981233Y-67778822D01*
X64844742Y-67835359D01*
X64721903Y-67917437D01*
X64617437Y-68021903D01*
X64535359Y-68144742D01*
X64478822Y-68281233D01*
X64450000Y-68426131D01*
X63350000Y-68426131D01*
X63350000Y-44791422D01*
X63712528Y-44428894D01*
X63800430Y-44361444D01*
X63896693Y-44321571D01*
X64000000Y-44307970D01*
X64103307Y-44321571D01*
X64199570Y-44361444D01*
X64287472Y-44428894D01*
X65575736Y-45717158D01*
X65585571Y-45725782D01*
X65689124Y-45805241D01*
X65711732Y-45818294D01*
X65832322Y-45868244D01*
X65857537Y-45875001D01*
X65986947Y-45892038D01*
X66013053Y-45892038D01*
X66142463Y-45875001D01*
X66167678Y-45868244D01*
X66288268Y-45818294D01*
X66310876Y-45805241D01*
X66414429Y-45725782D01*
X66424264Y-45717158D01*
X67712528Y-44428894D01*
X67800430Y-44361444D01*
X67896693Y-44321571D01*
X68000000Y-44307970D01*
X68103307Y-44321571D01*
X68199570Y-44361444D01*
X68287472Y-44428894D01*
X69575736Y-45717158D01*
X69585571Y-45725782D01*
X69689124Y-45805241D01*
X69711732Y-45818294D01*
X69832322Y-45868244D01*
X69857537Y-45875001D01*
X69986947Y-45892038D01*
X70013053Y-45892038D01*
X70142463Y-45875001D01*
X70167678Y-45868244D01*
X70288268Y-45818294D01*
X70310876Y-45805241D01*
X70414429Y-45725782D01*
X70424264Y-45717158D01*
X71712528Y-44428894D01*
X71800430Y-44361444D01*
X71896693Y-44321571D01*
X72000000Y-44307970D01*
X72103307Y-44321571D01*
X72199570Y-44361444D01*
X72287472Y-44428894D01*
X73575736Y-45717158D01*
X73585571Y-45725782D01*
X73689124Y-45805241D01*
X73711732Y-45818294D01*
X73832322Y-45868244D01*
X73857537Y-45875001D01*
X73986947Y-45892038D01*
X74013053Y-45892038D01*
X74142463Y-45875001D01*
X74167678Y-45868244D01*
X74288268Y-45818294D01*
X74310876Y-45805241D01*
X74414429Y-45725782D01*
X74424264Y-45717158D01*
X75712528Y-44428894D01*
X75800430Y-44361444D01*
X75896693Y-44321571D01*
X76000000Y-44307970D01*
X76103307Y-44321571D01*
G36*
X81603307Y-46114464D02*
G01*
X81699567Y-46154336D01*
X81782232Y-46217768D01*
X81845664Y-46300433D01*
X81885536Y-46396693D01*
X81900000Y-46506559D01*
X81900000Y-68230105D01*
X81864641Y-68144742D01*
X81782563Y-68021903D01*
X81678097Y-67917437D01*
X81555258Y-67835359D01*
X81418767Y-67778822D01*
X81273869Y-67750000D01*
X81126131Y-67750000D01*
X80981233Y-67778822D01*
X80844742Y-67835359D01*
X80721903Y-67917437D01*
X80617437Y-68021903D01*
X80535359Y-68144742D01*
X80478822Y-68281233D01*
X80450000Y-68426131D01*
X80450000Y-68573869D01*
X80478822Y-68718767D01*
X80535359Y-68855258D01*
X80617437Y-68978097D01*
X80721903Y-69082563D01*
X80844742Y-69164641D01*
X80981233Y-69221178D01*
X81126131Y-69250000D01*
X81273869Y-69250000D01*
X81418767Y-69221178D01*
X81555258Y-69164641D01*
X81678097Y-69082563D01*
X81782563Y-68978097D01*
X81864641Y-68855258D01*
X81900000Y-68769895D01*
X81900000Y-71230105D01*
X81864641Y-71144742D01*
X81782563Y-71021903D01*
X81678097Y-70917437D01*
X81555258Y-70835359D01*
X81418767Y-70778822D01*
X81273869Y-70750000D01*
X81126131Y-70750000D01*
X80981233Y-70778822D01*
X80844742Y-70835359D01*
X80721903Y-70917437D01*
X80617437Y-71021903D01*
X80535359Y-71144742D01*
X80478822Y-71281233D01*
X80450000Y-71426131D01*
X80450000Y-71573869D01*
X80478822Y-71718767D01*
X80535359Y-71855258D01*
X80617437Y-71978097D01*
X80721903Y-72082563D01*
X80844742Y-72164641D01*
X80981233Y-72221178D01*
X81126131Y-72250000D01*
X81273869Y-72250000D01*
X81418767Y-72221178D01*
X81555258Y-72164641D01*
X81678097Y-72082563D01*
X81782563Y-71978097D01*
X81864641Y-71855258D01*
X81900000Y-71769895D01*
X81900000Y-71945406D01*
X80476143Y-73369263D01*
X80450395Y-73390394D01*
X80429264Y-73416142D01*
X80429256Y-73416150D01*
X80366043Y-73493176D01*
X80303365Y-73610439D01*
X80264767Y-73737677D01*
X80251735Y-73870000D01*
X80255001Y-73903162D01*
X80255000Y-97728063D01*
X80228791Y-97745575D01*
X80075575Y-97898791D01*
X79955193Y-98078955D01*
X79872273Y-98279142D01*
X79830000Y-98491659D01*
X79830000Y-98708341D01*
X79872273Y-98920858D01*
X79955193Y-99121045D01*
X80075575Y-99301209D01*
X80228791Y-99454425D01*
X80408955Y-99574807D01*
X80609142Y-99657727D01*
X80821659Y-99700000D01*
X81038341Y-99700000D01*
X81250858Y-99657727D01*
X81451045Y-99574807D01*
X81631209Y-99454425D01*
X81784425Y-99301209D01*
X81900000Y-99128239D01*
X81900000Y-105493441D01*
X81885536Y-105603307D01*
X81845664Y-105699567D01*
X81782232Y-105782232D01*
X81699567Y-105845664D01*
X81603307Y-105885536D01*
X81493441Y-105900000D01*
X79350000Y-105900000D01*
X79350000Y-95982811D01*
X79348233Y-95964871D01*
X79348233Y-95951884D01*
X79347722Y-95947024D01*
X79325967Y-95753074D01*
X79319382Y-95722096D01*
X79313210Y-95690926D01*
X79311764Y-95686257D01*
X79300000Y-95649173D01*
X79300000Y-91348446D01*
X79316017Y-91295395D01*
X79322170Y-91264318D01*
X79328774Y-91233249D01*
X79329285Y-91228388D01*
X79348330Y-91034155D01*
X79348330Y-91034144D01*
X79350000Y-91017189D01*
X79350000Y-46100000D01*
X81493441Y-46100000D01*
X81603307Y-46114464D01*
G37*
X81603307Y-46114464D02*
X81699567Y-46154336D01*
X81782232Y-46217768D01*
X81845664Y-46300433D01*
X81885536Y-46396693D01*
X81900000Y-46506559D01*
X81900000Y-68230105D01*
X81864641Y-68144742D01*
X81782563Y-68021903D01*
X81678097Y-67917437D01*
X81555258Y-67835359D01*
X81418767Y-67778822D01*
X81273869Y-67750000D01*
X81126131Y-67750000D01*
X80981233Y-67778822D01*
X80844742Y-67835359D01*
X80721903Y-67917437D01*
X80617437Y-68021903D01*
X80535359Y-68144742D01*
X80478822Y-68281233D01*
X80450000Y-68426131D01*
X80450000Y-68573869D01*
X80478822Y-68718767D01*
X80535359Y-68855258D01*
X80617437Y-68978097D01*
X80721903Y-69082563D01*
X80844742Y-69164641D01*
X80981233Y-69221178D01*
X81126131Y-69250000D01*
X81273869Y-69250000D01*
X81418767Y-69221178D01*
X81555258Y-69164641D01*
X81678097Y-69082563D01*
X81782563Y-68978097D01*
X81864641Y-68855258D01*
X81900000Y-68769895D01*
X81900000Y-71230105D01*
X81864641Y-71144742D01*
X81782563Y-71021903D01*
X81678097Y-70917437D01*
X81555258Y-70835359D01*
X81418767Y-70778822D01*
X81273869Y-70750000D01*
X81126131Y-70750000D01*
X80981233Y-70778822D01*
X80844742Y-70835359D01*
X80721903Y-70917437D01*
X80617437Y-71021903D01*
X80535359Y-71144742D01*
X80478822Y-71281233D01*
X80450000Y-71426131D01*
X80450000Y-71573869D01*
X80478822Y-71718767D01*
X80535359Y-71855258D01*
X80617437Y-71978097D01*
X80721903Y-72082563D01*
X80844742Y-72164641D01*
X80981233Y-72221178D01*
X81126131Y-72250000D01*
X81273869Y-72250000D01*
X81418767Y-72221178D01*
X81555258Y-72164641D01*
X81678097Y-72082563D01*
X81782563Y-71978097D01*
X81864641Y-71855258D01*
X81900000Y-71769895D01*
X81900000Y-71945406D01*
X80476143Y-73369263D01*
X80450395Y-73390394D01*
X80429264Y-73416142D01*
X80429256Y-73416150D01*
X80366043Y-73493176D01*
X80303365Y-73610439D01*
X80264767Y-73737677D01*
X80251735Y-73870000D01*
X80255001Y-73903162D01*
X80255000Y-97728063D01*
X80228791Y-97745575D01*
X80075575Y-97898791D01*
X79955193Y-98078955D01*
X79872273Y-98279142D01*
X79830000Y-98491659D01*
X79830000Y-98708341D01*
X79872273Y-98920858D01*
X79955193Y-99121045D01*
X80075575Y-99301209D01*
X80228791Y-99454425D01*
X80408955Y-99574807D01*
X80609142Y-99657727D01*
X80821659Y-99700000D01*
X81038341Y-99700000D01*
X81250858Y-99657727D01*
X81451045Y-99574807D01*
X81631209Y-99454425D01*
X81784425Y-99301209D01*
X81900000Y-99128239D01*
X81900000Y-105493441D01*
X81885536Y-105603307D01*
X81845664Y-105699567D01*
X81782232Y-105782232D01*
X81699567Y-105845664D01*
X81603307Y-105885536D01*
X81493441Y-105900000D01*
X79350000Y-105900000D01*
X79350000Y-95982811D01*
X79348233Y-95964871D01*
X79348233Y-95951884D01*
X79347722Y-95947024D01*
X79325967Y-95753074D01*
X79319382Y-95722096D01*
X79313210Y-95690926D01*
X79311764Y-95686257D01*
X79300000Y-95649173D01*
X79300000Y-91348446D01*
X79316017Y-91295395D01*
X79322170Y-91264318D01*
X79328774Y-91233249D01*
X79329285Y-91228388D01*
X79348330Y-91034155D01*
X79348330Y-91034144D01*
X79350000Y-91017189D01*
X79350000Y-46100000D01*
X81493441Y-46100000D01*
X81603307Y-46114464D01*
G36*
X81900000Y-92310050D02*
G01*
X81856274Y-92353776D01*
X81779668Y-92468426D01*
X81726901Y-92595818D01*
X81700000Y-92731056D01*
X81700000Y-92868944D01*
X81726901Y-93004182D01*
X81779668Y-93131574D01*
X81856274Y-93246224D01*
X81900000Y-93289950D01*
X81900000Y-98071761D01*
X81784425Y-97898791D01*
X81631209Y-97745575D01*
X81605000Y-97728063D01*
X81605000Y-74149594D01*
X81900000Y-73854594D01*
X81900000Y-92310050D01*
G37*
X81900000Y-92310050D02*
X81856274Y-92353776D01*
X81779668Y-92468426D01*
X81726901Y-92595818D01*
X81700000Y-92731056D01*
X81700000Y-92868944D01*
X81726901Y-93004182D01*
X81779668Y-93131574D01*
X81856274Y-93246224D01*
X81900000Y-93289950D01*
X81900000Y-98071761D01*
X81784425Y-97898791D01*
X81631209Y-97745575D01*
X81605000Y-97728063D01*
X81605000Y-74149594D01*
X81900000Y-73854594D01*
X81900000Y-92310050D01*
G36*
X92103307Y-44321571D02*
G01*
X92199570Y-44361444D01*
X92287472Y-44428894D01*
X92650001Y-44791423D01*
X92650000Y-107208578D01*
X92287472Y-107571106D01*
X92199570Y-107638556D01*
X92103307Y-107678429D01*
X92000000Y-107692030D01*
X91896693Y-107678429D01*
X91800430Y-107638556D01*
X91712528Y-107571106D01*
X90424264Y-106282842D01*
X90414429Y-106274218D01*
X90310876Y-106194759D01*
X90288268Y-106181706D01*
X90167678Y-106131756D01*
X90142463Y-106124999D01*
X90013053Y-106107962D01*
X89986947Y-106107962D01*
X89857537Y-106124999D01*
X89832322Y-106131756D01*
X89711732Y-106181706D01*
X89689124Y-106194759D01*
X89585571Y-106274218D01*
X89575736Y-106282842D01*
X88287472Y-107571106D01*
X88199570Y-107638556D01*
X88103307Y-107678429D01*
X88000000Y-107692030D01*
X87896693Y-107678429D01*
X87800430Y-107638556D01*
X87712528Y-107571106D01*
X86424264Y-106282842D01*
X86414429Y-106274218D01*
X86310876Y-106194759D01*
X86288268Y-106181706D01*
X86167678Y-106131756D01*
X86142463Y-106124999D01*
X86013053Y-106107962D01*
X85986947Y-106107962D01*
X85857537Y-106124999D01*
X85832322Y-106131756D01*
X85711732Y-106181706D01*
X85689124Y-106194759D01*
X85585571Y-106274218D01*
X85575736Y-106282842D01*
X84287472Y-107571106D01*
X84199570Y-107638556D01*
X84103307Y-107678429D01*
X84000000Y-107692030D01*
X83896693Y-107678429D01*
X83800430Y-107638556D01*
X83712528Y-107571106D01*
X82424264Y-106282842D01*
X82414429Y-106274218D01*
X82310876Y-106194759D01*
X82288268Y-106181706D01*
X82167678Y-106131756D01*
X82142463Y-106124999D01*
X82013053Y-106107962D01*
X81986947Y-106107962D01*
X81857537Y-106124999D01*
X81832322Y-106131756D01*
X81711732Y-106181706D01*
X81689124Y-106194759D01*
X81585571Y-106274218D01*
X81575736Y-106282842D01*
X80287472Y-107571106D01*
X80199570Y-107638556D01*
X80103307Y-107678429D01*
X80000000Y-107692030D01*
X79896693Y-107678429D01*
X79800430Y-107638556D01*
X79712528Y-107571106D01*
X79350000Y-107208578D01*
X79350000Y-98491659D01*
X79830000Y-98491659D01*
X79830000Y-98708341D01*
X79872273Y-98920858D01*
X79955193Y-99121045D01*
X80075575Y-99301209D01*
X80228791Y-99454425D01*
X80408955Y-99574807D01*
X80609142Y-99657727D01*
X80821659Y-99700000D01*
X81038341Y-99700000D01*
X81250858Y-99657727D01*
X81451045Y-99574807D01*
X81631209Y-99454425D01*
X81685634Y-99400000D01*
X82167581Y-99400000D01*
X82177235Y-99498017D01*
X82205825Y-99592267D01*
X82252254Y-99679129D01*
X82314736Y-99755264D01*
X82390871Y-99817746D01*
X82477733Y-99864175D01*
X82571983Y-99892765D01*
X82670000Y-99902419D01*
X83195000Y-99900000D01*
X83320000Y-99775000D01*
X83320000Y-98750000D01*
X83620000Y-98750000D01*
X83620000Y-99775000D01*
X83745000Y-99900000D01*
X84270000Y-99902419D01*
X84368017Y-99892765D01*
X84462267Y-99864175D01*
X84549129Y-99817746D01*
X84625264Y-99755264D01*
X84687746Y-99679129D01*
X84734175Y-99592267D01*
X84762765Y-99498017D01*
X84772419Y-99400000D01*
X84770000Y-98875000D01*
X84645000Y-98750000D01*
X83620000Y-98750000D01*
X83320000Y-98750000D01*
X82295000Y-98750000D01*
X82170000Y-98875000D01*
X82167581Y-99400000D01*
X81685634Y-99400000D01*
X81784425Y-99301209D01*
X81904807Y-99121045D01*
X81987727Y-98920858D01*
X82030000Y-98708341D01*
X82030000Y-98491659D01*
X81987727Y-98279142D01*
X81904807Y-98078955D01*
X81784425Y-97898791D01*
X81685634Y-97800000D01*
X82167581Y-97800000D01*
X82170000Y-98325000D01*
X82295000Y-98450000D01*
X83320000Y-98450000D01*
X83320000Y-97425000D01*
X83620000Y-97425000D01*
X83620000Y-98450000D01*
X84645000Y-98450000D01*
X84770000Y-98325000D01*
X84772419Y-97800000D01*
X84762765Y-97701983D01*
X84734175Y-97607733D01*
X84687746Y-97520871D01*
X84625264Y-97444736D01*
X84549129Y-97382254D01*
X84462267Y-97335825D01*
X84368017Y-97307235D01*
X84270000Y-97297581D01*
X83745000Y-97300000D01*
X83620000Y-97425000D01*
X83320000Y-97425000D01*
X83195000Y-97300000D01*
X82670000Y-97297581D01*
X82571983Y-97307235D01*
X82477733Y-97335825D01*
X82390871Y-97382254D01*
X82314736Y-97444736D01*
X82252254Y-97520871D01*
X82205825Y-97607733D01*
X82177235Y-97701983D01*
X82167581Y-97800000D01*
X81685634Y-97800000D01*
X81631209Y-97745575D01*
X81605000Y-97728063D01*
X81605000Y-92731056D01*
X81700000Y-92731056D01*
X81700000Y-92868944D01*
X81726901Y-93004182D01*
X81779668Y-93131574D01*
X81856274Y-93246224D01*
X81953776Y-93343726D01*
X82068426Y-93420332D01*
X82195818Y-93473099D01*
X82331056Y-93500000D01*
X82468944Y-93500000D01*
X82492552Y-93495304D01*
X82498025Y-93501973D01*
X82562739Y-93555083D01*
X82636572Y-93594547D01*
X82692382Y-93611477D01*
X82716684Y-93618849D01*
X82725097Y-93619678D01*
X82779125Y-93624999D01*
X82779131Y-93624999D01*
X82799998Y-93627054D01*
X82820865Y-93624999D01*
X84579134Y-93624999D01*
X84600001Y-93627054D01*
X84620868Y-93624999D01*
X84620875Y-93624999D01*
X84683315Y-93618849D01*
X84763428Y-93594547D01*
X84837261Y-93555083D01*
X84901975Y-93501973D01*
X84915284Y-93485756D01*
X87585762Y-90815279D01*
X87601974Y-90801974D01*
X87655084Y-90737260D01*
X87694548Y-90663427D01*
X87718850Y-90583314D01*
X87725000Y-90520874D01*
X87725000Y-90520868D01*
X87727055Y-90500001D01*
X87725000Y-90479134D01*
X87725000Y-89155124D01*
X90657008Y-89155124D01*
X90707491Y-89333076D01*
X90898988Y-89411231D01*
X91102054Y-89450525D01*
X91308883Y-89449448D01*
X91511529Y-89408042D01*
X91692509Y-89333076D01*
X91742992Y-89155124D01*
X91200000Y-88612132D01*
X90657008Y-89155124D01*
X87725000Y-89155124D01*
X87725000Y-88302054D01*
X90149475Y-88302054D01*
X90150552Y-88508883D01*
X90191958Y-88711529D01*
X90266924Y-88892509D01*
X90444876Y-88942992D01*
X90987868Y-88400000D01*
X91412132Y-88400000D01*
X91955124Y-88942992D01*
X92133076Y-88892509D01*
X92211231Y-88701012D01*
X92250525Y-88497946D01*
X92249448Y-88291117D01*
X92208042Y-88088471D01*
X92133076Y-87907491D01*
X91955124Y-87857008D01*
X91412132Y-88400000D01*
X90987868Y-88400000D01*
X90444876Y-87857008D01*
X90266924Y-87907491D01*
X90188769Y-88098988D01*
X90149475Y-88302054D01*
X87725000Y-88302054D01*
X87725000Y-87644876D01*
X90657008Y-87644876D01*
X91200000Y-88187868D01*
X91742992Y-87644876D01*
X91692509Y-87466924D01*
X91501012Y-87388769D01*
X91297946Y-87349475D01*
X91091117Y-87350552D01*
X90888471Y-87391958D01*
X90707491Y-87466924D01*
X90657008Y-87644876D01*
X87725000Y-87644876D01*
X87725000Y-85776282D01*
X90350000Y-85776282D01*
X90350000Y-85943718D01*
X90382665Y-86107936D01*
X90446740Y-86262626D01*
X90539762Y-86401844D01*
X90658156Y-86520238D01*
X90797374Y-86613260D01*
X90952064Y-86677335D01*
X91116282Y-86710000D01*
X91283718Y-86710000D01*
X91447936Y-86677335D01*
X91602626Y-86613260D01*
X91741844Y-86520238D01*
X91860238Y-86401844D01*
X91953260Y-86262626D01*
X92017335Y-86107936D01*
X92050000Y-85943718D01*
X92050000Y-85776282D01*
X92017335Y-85612064D01*
X91953260Y-85457374D01*
X91860238Y-85318156D01*
X91741844Y-85199762D01*
X91602626Y-85106740D01*
X91447936Y-85042665D01*
X91283718Y-85010000D01*
X91116282Y-85010000D01*
X90952064Y-85042665D01*
X90797374Y-85106740D01*
X90658156Y-85199762D01*
X90539762Y-85318156D01*
X90446740Y-85457374D01*
X90382665Y-85612064D01*
X90350000Y-85776282D01*
X87725000Y-85776282D01*
X87725000Y-83876040D01*
X87856041Y-83745000D01*
X90461690Y-83745000D01*
X90539762Y-83861844D01*
X90658156Y-83980238D01*
X90797374Y-84073260D01*
X90952064Y-84137335D01*
X91116282Y-84170000D01*
X91283718Y-84170000D01*
X91447936Y-84137335D01*
X91602626Y-84073260D01*
X91741844Y-83980238D01*
X91860238Y-83861844D01*
X91953260Y-83722626D01*
X92017335Y-83567936D01*
X92050000Y-83403718D01*
X92050000Y-83236282D01*
X92017335Y-83072064D01*
X91953260Y-82917374D01*
X91860238Y-82778156D01*
X91741844Y-82659762D01*
X91602626Y-82566740D01*
X91447936Y-82502665D01*
X91283718Y-82470000D01*
X91116282Y-82470000D01*
X90952064Y-82502665D01*
X90797374Y-82566740D01*
X90658156Y-82659762D01*
X90539762Y-82778156D01*
X90461690Y-82895000D01*
X87846041Y-82895000D01*
X87725000Y-82773960D01*
X87725000Y-80696282D01*
X90350000Y-80696282D01*
X90350000Y-80863718D01*
X90382665Y-81027936D01*
X90446740Y-81182626D01*
X90539762Y-81321844D01*
X90658156Y-81440238D01*
X90797374Y-81533260D01*
X90952064Y-81597335D01*
X91116282Y-81630000D01*
X91283718Y-81630000D01*
X91447936Y-81597335D01*
X91602626Y-81533260D01*
X91741844Y-81440238D01*
X91860238Y-81321844D01*
X91953260Y-81182626D01*
X92017335Y-81027936D01*
X92050000Y-80863718D01*
X92050000Y-80696282D01*
X92017335Y-80532064D01*
X91953260Y-80377374D01*
X91860238Y-80238156D01*
X91741844Y-80119762D01*
X91602626Y-80026740D01*
X91447936Y-79962665D01*
X91283718Y-79930000D01*
X91116282Y-79930000D01*
X90952064Y-79962665D01*
X90797374Y-80026740D01*
X90658156Y-80119762D01*
X90539762Y-80238156D01*
X90446740Y-80377374D01*
X90382665Y-80532064D01*
X90350000Y-80696282D01*
X87725000Y-80696282D01*
X87725000Y-80576040D01*
X87910763Y-80390278D01*
X87926975Y-80376973D01*
X87980085Y-80312259D01*
X88005802Y-80264144D01*
X88019549Y-80238427D01*
X88043851Y-80158314D01*
X88047648Y-80119762D01*
X88050001Y-80095873D01*
X88050001Y-80095866D01*
X88052056Y-80074999D01*
X88050001Y-80054132D01*
X88050001Y-78309367D01*
X88052056Y-78288500D01*
X88050001Y-78267633D01*
X88050001Y-78267626D01*
X88043851Y-78205186D01*
X88042508Y-78200758D01*
X88029017Y-78156282D01*
X90350000Y-78156282D01*
X90350000Y-78323718D01*
X90382665Y-78487936D01*
X90446740Y-78642626D01*
X90539762Y-78781844D01*
X90658156Y-78900238D01*
X90797374Y-78993260D01*
X90952064Y-79057335D01*
X91116282Y-79090000D01*
X91283718Y-79090000D01*
X91447936Y-79057335D01*
X91602626Y-78993260D01*
X91741844Y-78900238D01*
X91860238Y-78781844D01*
X91953260Y-78642626D01*
X92017335Y-78487936D01*
X92050000Y-78323718D01*
X92050000Y-78156282D01*
X92017335Y-77992064D01*
X91953260Y-77837374D01*
X91860238Y-77698156D01*
X91741844Y-77579762D01*
X91602626Y-77486740D01*
X91447936Y-77422665D01*
X91283718Y-77390000D01*
X91116282Y-77390000D01*
X90952064Y-77422665D01*
X90797374Y-77486740D01*
X90658156Y-77579762D01*
X90539762Y-77698156D01*
X90446740Y-77837374D01*
X90382665Y-77992064D01*
X90350000Y-78156282D01*
X88029017Y-78156282D01*
X88019549Y-78125072D01*
X87986232Y-78062741D01*
X87980085Y-78051240D01*
X87926975Y-77986526D01*
X87910764Y-77973222D01*
X87725000Y-77787459D01*
X87725000Y-75616282D01*
X90350000Y-75616282D01*
X90350000Y-75783718D01*
X90382665Y-75947936D01*
X90446740Y-76102626D01*
X90539762Y-76241844D01*
X90658156Y-76360238D01*
X90797374Y-76453260D01*
X90952064Y-76517335D01*
X91116282Y-76550000D01*
X91283718Y-76550000D01*
X91447936Y-76517335D01*
X91602626Y-76453260D01*
X91741844Y-76360238D01*
X91860238Y-76241844D01*
X91953260Y-76102626D01*
X92017335Y-75947936D01*
X92050000Y-75783718D01*
X92050000Y-75616282D01*
X92017335Y-75452064D01*
X91953260Y-75297374D01*
X91860238Y-75158156D01*
X91741844Y-75039762D01*
X91602626Y-74946740D01*
X91447936Y-74882665D01*
X91283718Y-74850000D01*
X91116282Y-74850000D01*
X90952064Y-74882665D01*
X90797374Y-74946740D01*
X90658156Y-75039762D01*
X90539762Y-75158156D01*
X90446740Y-75297374D01*
X90382665Y-75452064D01*
X90350000Y-75616282D01*
X87725000Y-75616282D01*
X87725000Y-67745830D01*
X88100000Y-67745830D01*
X88100000Y-67854170D01*
X88121136Y-67960429D01*
X88162597Y-68060523D01*
X88222787Y-68150604D01*
X88299396Y-68227213D01*
X88389477Y-68287403D01*
X88489571Y-68328864D01*
X88595830Y-68350000D01*
X88704170Y-68350000D01*
X88810429Y-68328864D01*
X88910523Y-68287403D01*
X89000604Y-68227213D01*
X89077213Y-68150604D01*
X89137403Y-68060523D01*
X89178864Y-67960429D01*
X89200000Y-67854170D01*
X89200000Y-67745830D01*
X89178864Y-67639571D01*
X89137403Y-67539477D01*
X89077213Y-67449396D01*
X89000604Y-67372787D01*
X88910523Y-67312597D01*
X88810429Y-67271136D01*
X88704170Y-67250000D01*
X88595830Y-67250000D01*
X88489571Y-67271136D01*
X88389477Y-67312597D01*
X88299396Y-67372787D01*
X88222787Y-67449396D01*
X88162597Y-67539477D01*
X88121136Y-67639571D01*
X88100000Y-67745830D01*
X87725000Y-67745830D01*
X87725000Y-63745830D01*
X88100000Y-63745830D01*
X88100000Y-63854170D01*
X88121136Y-63960429D01*
X88162597Y-64060523D01*
X88222787Y-64150604D01*
X88299396Y-64227213D01*
X88389477Y-64287403D01*
X88489571Y-64328864D01*
X88595830Y-64350000D01*
X88704170Y-64350000D01*
X88810429Y-64328864D01*
X88910523Y-64287403D01*
X89000604Y-64227213D01*
X89077213Y-64150604D01*
X89137403Y-64060523D01*
X89178864Y-63960429D01*
X89200000Y-63854170D01*
X89200000Y-63745830D01*
X89178864Y-63639571D01*
X89137403Y-63539477D01*
X89077213Y-63449396D01*
X89000604Y-63372787D01*
X88910523Y-63312597D01*
X88810429Y-63271136D01*
X88704170Y-63250000D01*
X88595830Y-63250000D01*
X88489571Y-63271136D01*
X88389477Y-63312597D01*
X88299396Y-63372787D01*
X88222787Y-63449396D01*
X88162597Y-63539477D01*
X88121136Y-63639571D01*
X88100000Y-63745830D01*
X87725000Y-63745830D01*
X87725000Y-54026040D01*
X89251041Y-52500000D01*
X89268944Y-52500000D01*
X89404182Y-52473099D01*
X89531574Y-52420332D01*
X89646224Y-52343726D01*
X89743726Y-52246224D01*
X89820332Y-52131574D01*
X89873099Y-52004182D01*
X89900000Y-51868944D01*
X89900000Y-51731056D01*
X89873099Y-51595818D01*
X89820332Y-51468426D01*
X89743726Y-51353776D01*
X89646224Y-51256274D01*
X89531574Y-51179668D01*
X89404182Y-51126901D01*
X89268944Y-51100000D01*
X89131056Y-51100000D01*
X88995818Y-51126901D01*
X88868426Y-51179668D01*
X88753776Y-51256274D01*
X88656274Y-51353776D01*
X88579668Y-51468426D01*
X88550000Y-51540052D01*
X88520332Y-51468426D01*
X88443726Y-51353776D01*
X88346224Y-51256274D01*
X88231574Y-51179668D01*
X88104182Y-51126901D01*
X87968944Y-51100000D01*
X87831056Y-51100000D01*
X87695818Y-51126901D01*
X87568426Y-51179668D01*
X87453776Y-51256274D01*
X87356274Y-51353776D01*
X87279668Y-51468426D01*
X87275000Y-51479696D01*
X87270332Y-51468426D01*
X87193726Y-51353776D01*
X87096224Y-51256274D01*
X86981574Y-51179668D01*
X86854182Y-51126901D01*
X86718944Y-51100000D01*
X86581056Y-51100000D01*
X86445818Y-51126901D01*
X86318426Y-51179668D01*
X86203776Y-51256274D01*
X86106274Y-51353776D01*
X86029668Y-51468426D01*
X86000000Y-51540052D01*
X85970332Y-51468426D01*
X85893726Y-51353776D01*
X85796224Y-51256274D01*
X85681574Y-51179668D01*
X85554182Y-51126901D01*
X85418944Y-51100000D01*
X85281056Y-51100000D01*
X85145818Y-51126901D01*
X85018426Y-51179668D01*
X84903776Y-51256274D01*
X84806274Y-51353776D01*
X84729668Y-51468426D01*
X84725000Y-51479696D01*
X84720332Y-51468426D01*
X84643726Y-51353776D01*
X84546224Y-51256274D01*
X84431574Y-51179668D01*
X84304182Y-51126901D01*
X84168944Y-51100000D01*
X84031056Y-51100000D01*
X83895818Y-51126901D01*
X83768426Y-51179668D01*
X83653776Y-51256274D01*
X83556274Y-51353776D01*
X83479668Y-51468426D01*
X83426901Y-51595818D01*
X83400000Y-51731056D01*
X83400000Y-51868944D01*
X83426901Y-52004182D01*
X83479668Y-52131574D01*
X83556274Y-52246224D01*
X83653776Y-52343726D01*
X83768426Y-52420332D01*
X83855259Y-52456299D01*
X84175001Y-52776042D01*
X84175000Y-86423959D01*
X83714239Y-86884721D01*
X83698027Y-86898026D01*
X83644917Y-86962740D01*
X83614926Y-87018850D01*
X83605453Y-87036573D01*
X83581150Y-87116686D01*
X83572945Y-87200000D01*
X83575001Y-87220876D01*
X83575000Y-88179133D01*
X83572945Y-88200000D01*
X83575000Y-88220867D01*
X83575000Y-88220873D01*
X83581150Y-88283313D01*
X83605452Y-88363426D01*
X83644916Y-88437259D01*
X83698026Y-88501974D01*
X83714243Y-88515283D01*
X84104980Y-88906020D01*
X84100000Y-88931056D01*
X84100000Y-89068944D01*
X84126901Y-89204182D01*
X84179668Y-89331574D01*
X84256274Y-89446224D01*
X84353776Y-89543726D01*
X84468426Y-89620332D01*
X84595818Y-89673099D01*
X84731056Y-89700000D01*
X84868944Y-89700000D01*
X85004182Y-89673099D01*
X85131574Y-89620332D01*
X85246224Y-89543726D01*
X85343726Y-89446224D01*
X85420332Y-89331574D01*
X85473099Y-89204182D01*
X85475001Y-89194620D01*
X85475001Y-89523958D01*
X84514243Y-90484717D01*
X84514238Y-90484721D01*
X84493979Y-90504980D01*
X84468944Y-90500000D01*
X84331056Y-90500000D01*
X84195818Y-90526901D01*
X84068426Y-90579668D01*
X83953776Y-90656274D01*
X83856274Y-90753776D01*
X83779668Y-90868426D01*
X83726901Y-90995818D01*
X83700000Y-91131056D01*
X83700000Y-91268944D01*
X83726901Y-91404182D01*
X83779668Y-91531574D01*
X83856274Y-91646224D01*
X83910050Y-91700000D01*
X83856274Y-91753776D01*
X83779668Y-91868426D01*
X83726901Y-91995818D01*
X83700000Y-92131056D01*
X83700000Y-92268944D01*
X83726901Y-92404182D01*
X83779668Y-92531574D01*
X83856274Y-92646224D01*
X83953776Y-92743726D01*
X84000580Y-92774999D01*
X83100000Y-92774999D01*
X83100000Y-92731056D01*
X83073099Y-92595818D01*
X83020332Y-92468426D01*
X82943726Y-92353776D01*
X82846224Y-92256274D01*
X82731574Y-92179668D01*
X82604182Y-92126901D01*
X82468944Y-92100000D01*
X82331056Y-92100000D01*
X82195818Y-92126901D01*
X82068426Y-92179668D01*
X81953776Y-92256274D01*
X81856274Y-92353776D01*
X81779668Y-92468426D01*
X81726901Y-92595818D01*
X81700000Y-92731056D01*
X81605000Y-92731056D01*
X81605000Y-74149594D01*
X83753857Y-72000737D01*
X83779605Y-71979606D01*
X83800738Y-71953856D01*
X83800743Y-71953851D01*
X83863957Y-71876825D01*
X83863958Y-71876824D01*
X83926636Y-71759561D01*
X83965233Y-71632323D01*
X83975000Y-71533159D01*
X83975000Y-71533153D01*
X83978265Y-71500001D01*
X83975000Y-71466849D01*
X83975000Y-70228178D01*
X83996261Y-70188401D01*
X84039147Y-70047026D01*
X84050000Y-69936835D01*
X84050000Y-68963185D01*
X84039147Y-68852994D01*
X83996261Y-68711619D01*
X83926619Y-68581327D01*
X83832895Y-68467125D01*
X83718692Y-68373401D01*
X83588400Y-68303759D01*
X83447025Y-68260873D01*
X83300000Y-68246392D01*
X83152974Y-68260873D01*
X83011599Y-68303759D01*
X82881307Y-68373401D01*
X82767105Y-68467125D01*
X82673381Y-68581328D01*
X82603739Y-68711620D01*
X82560853Y-68852995D01*
X82550000Y-68963186D01*
X82550000Y-69936835D01*
X82560854Y-70047026D01*
X82603740Y-70188401D01*
X82625001Y-70228177D01*
X82625000Y-71220406D01*
X80476143Y-73369263D01*
X80450395Y-73390394D01*
X80429264Y-73416142D01*
X80429256Y-73416150D01*
X80366043Y-73493176D01*
X80303365Y-73610439D01*
X80264767Y-73737677D01*
X80251735Y-73870000D01*
X80255001Y-73903162D01*
X80255000Y-97728063D01*
X80228791Y-97745575D01*
X80075575Y-97898791D01*
X79955193Y-98078955D01*
X79872273Y-98279142D01*
X79830000Y-98491659D01*
X79350000Y-98491659D01*
X79350000Y-95982811D01*
X79348233Y-95964871D01*
X79348233Y-95951884D01*
X79347722Y-95947024D01*
X79325967Y-95753074D01*
X79319382Y-95722096D01*
X79313210Y-95690926D01*
X79311764Y-95686257D01*
X79300000Y-95649173D01*
X79300000Y-91348446D01*
X79316017Y-91295395D01*
X79322170Y-91264318D01*
X79328774Y-91233249D01*
X79329285Y-91228388D01*
X79348330Y-91034155D01*
X79348330Y-91034144D01*
X79350000Y-91017189D01*
X79350000Y-71426131D01*
X80450000Y-71426131D01*
X80450000Y-71573869D01*
X80478822Y-71718767D01*
X80535359Y-71855258D01*
X80617437Y-71978097D01*
X80721903Y-72082563D01*
X80844742Y-72164641D01*
X80981233Y-72221178D01*
X81126131Y-72250000D01*
X81273869Y-72250000D01*
X81418767Y-72221178D01*
X81555258Y-72164641D01*
X81678097Y-72082563D01*
X81782563Y-71978097D01*
X81864641Y-71855258D01*
X81921178Y-71718767D01*
X81950000Y-71573869D01*
X81950000Y-71426131D01*
X81921178Y-71281233D01*
X81864641Y-71144742D01*
X81782563Y-71021903D01*
X81678097Y-70917437D01*
X81555258Y-70835359D01*
X81418767Y-70778822D01*
X81273869Y-70750000D01*
X81126131Y-70750000D01*
X80981233Y-70778822D01*
X80844742Y-70835359D01*
X80721903Y-70917437D01*
X80617437Y-71021903D01*
X80535359Y-71144742D01*
X80478822Y-71281233D01*
X80450000Y-71426131D01*
X79350000Y-71426131D01*
X79350000Y-68426131D01*
X80450000Y-68426131D01*
X80450000Y-68573869D01*
X80478822Y-68718767D01*
X80535359Y-68855258D01*
X80617437Y-68978097D01*
X80721903Y-69082563D01*
X80844742Y-69164641D01*
X80981233Y-69221178D01*
X81126131Y-69250000D01*
X81273869Y-69250000D01*
X81418767Y-69221178D01*
X81555258Y-69164641D01*
X81678097Y-69082563D01*
X81782563Y-68978097D01*
X81864641Y-68855258D01*
X81921178Y-68718767D01*
X81950000Y-68573869D01*
X81950000Y-68426131D01*
X81921178Y-68281233D01*
X81864641Y-68144742D01*
X81782563Y-68021903D01*
X81678097Y-67917437D01*
X81555258Y-67835359D01*
X81418767Y-67778822D01*
X81273869Y-67750000D01*
X81126131Y-67750000D01*
X80981233Y-67778822D01*
X80844742Y-67835359D01*
X80721903Y-67917437D01*
X80617437Y-68021903D01*
X80535359Y-68144742D01*
X80478822Y-68281233D01*
X80450000Y-68426131D01*
X79350000Y-68426131D01*
X79350000Y-44791422D01*
X79712528Y-44428894D01*
X79800430Y-44361444D01*
X79896693Y-44321571D01*
X80000000Y-44307970D01*
X80103307Y-44321571D01*
X80199570Y-44361444D01*
X80287472Y-44428894D01*
X81575736Y-45717158D01*
X81585571Y-45725782D01*
X81689124Y-45805241D01*
X81711732Y-45818294D01*
X81832322Y-45868244D01*
X81857537Y-45875001D01*
X81986947Y-45892038D01*
X82013053Y-45892038D01*
X82142463Y-45875001D01*
X82167678Y-45868244D01*
X82288268Y-45818294D01*
X82310876Y-45805241D01*
X82414429Y-45725782D01*
X82424264Y-45717158D01*
X83712528Y-44428894D01*
X83800430Y-44361444D01*
X83896693Y-44321571D01*
X84000000Y-44307970D01*
X84103307Y-44321571D01*
X84199570Y-44361444D01*
X84287472Y-44428894D01*
X85575736Y-45717158D01*
X85585571Y-45725782D01*
X85689124Y-45805241D01*
X85711732Y-45818294D01*
X85832322Y-45868244D01*
X85857537Y-45875001D01*
X85986947Y-45892038D01*
X86013053Y-45892038D01*
X86142463Y-45875001D01*
X86167678Y-45868244D01*
X86288268Y-45818294D01*
X86310876Y-45805241D01*
X86414429Y-45725782D01*
X86424264Y-45717158D01*
X87712528Y-44428894D01*
X87800430Y-44361444D01*
X87896693Y-44321571D01*
X88000000Y-44307970D01*
X88103307Y-44321571D01*
X88199570Y-44361444D01*
X88287472Y-44428894D01*
X89575736Y-45717158D01*
X89585571Y-45725782D01*
X89689124Y-45805241D01*
X89711732Y-45818294D01*
X89832322Y-45868244D01*
X89857537Y-45875001D01*
X89986947Y-45892038D01*
X90013053Y-45892038D01*
X90142463Y-45875001D01*
X90167678Y-45868244D01*
X90288268Y-45818294D01*
X90310876Y-45805241D01*
X90414429Y-45725782D01*
X90424264Y-45717158D01*
X91712528Y-44428894D01*
X91800430Y-44361444D01*
X91896693Y-44321571D01*
X92000000Y-44307970D01*
X92103307Y-44321571D01*
G37*
X92103307Y-44321571D02*
X92199570Y-44361444D01*
X92287472Y-44428894D01*
X92650001Y-44791423D01*
X92650000Y-107208578D01*
X92287472Y-107571106D01*
X92199570Y-107638556D01*
X92103307Y-107678429D01*
X92000000Y-107692030D01*
X91896693Y-107678429D01*
X91800430Y-107638556D01*
X91712528Y-107571106D01*
X90424264Y-106282842D01*
X90414429Y-106274218D01*
X90310876Y-106194759D01*
X90288268Y-106181706D01*
X90167678Y-106131756D01*
X90142463Y-106124999D01*
X90013053Y-106107962D01*
X89986947Y-106107962D01*
X89857537Y-106124999D01*
X89832322Y-106131756D01*
X89711732Y-106181706D01*
X89689124Y-106194759D01*
X89585571Y-106274218D01*
X89575736Y-106282842D01*
X88287472Y-107571106D01*
X88199570Y-107638556D01*
X88103307Y-107678429D01*
X88000000Y-107692030D01*
X87896693Y-107678429D01*
X87800430Y-107638556D01*
X87712528Y-107571106D01*
X86424264Y-106282842D01*
X86414429Y-106274218D01*
X86310876Y-106194759D01*
X86288268Y-106181706D01*
X86167678Y-106131756D01*
X86142463Y-106124999D01*
X86013053Y-106107962D01*
X85986947Y-106107962D01*
X85857537Y-106124999D01*
X85832322Y-106131756D01*
X85711732Y-106181706D01*
X85689124Y-106194759D01*
X85585571Y-106274218D01*
X85575736Y-106282842D01*
X84287472Y-107571106D01*
X84199570Y-107638556D01*
X84103307Y-107678429D01*
X84000000Y-107692030D01*
X83896693Y-107678429D01*
X83800430Y-107638556D01*
X83712528Y-107571106D01*
X82424264Y-106282842D01*
X82414429Y-106274218D01*
X82310876Y-106194759D01*
X82288268Y-106181706D01*
X82167678Y-106131756D01*
X82142463Y-106124999D01*
X82013053Y-106107962D01*
X81986947Y-106107962D01*
X81857537Y-106124999D01*
X81832322Y-106131756D01*
X81711732Y-106181706D01*
X81689124Y-106194759D01*
X81585571Y-106274218D01*
X81575736Y-106282842D01*
X80287472Y-107571106D01*
X80199570Y-107638556D01*
X80103307Y-107678429D01*
X80000000Y-107692030D01*
X79896693Y-107678429D01*
X79800430Y-107638556D01*
X79712528Y-107571106D01*
X79350000Y-107208578D01*
X79350000Y-98491659D01*
X79830000Y-98491659D01*
X79830000Y-98708341D01*
X79872273Y-98920858D01*
X79955193Y-99121045D01*
X80075575Y-99301209D01*
X80228791Y-99454425D01*
X80408955Y-99574807D01*
X80609142Y-99657727D01*
X80821659Y-99700000D01*
X81038341Y-99700000D01*
X81250858Y-99657727D01*
X81451045Y-99574807D01*
X81631209Y-99454425D01*
X81685634Y-99400000D01*
X82167581Y-99400000D01*
X82177235Y-99498017D01*
X82205825Y-99592267D01*
X82252254Y-99679129D01*
X82314736Y-99755264D01*
X82390871Y-99817746D01*
X82477733Y-99864175D01*
X82571983Y-99892765D01*
X82670000Y-99902419D01*
X83195000Y-99900000D01*
X83320000Y-99775000D01*
X83320000Y-98750000D01*
X83620000Y-98750000D01*
X83620000Y-99775000D01*
X83745000Y-99900000D01*
X84270000Y-99902419D01*
X84368017Y-99892765D01*
X84462267Y-99864175D01*
X84549129Y-99817746D01*
X84625264Y-99755264D01*
X84687746Y-99679129D01*
X84734175Y-99592267D01*
X84762765Y-99498017D01*
X84772419Y-99400000D01*
X84770000Y-98875000D01*
X84645000Y-98750000D01*
X83620000Y-98750000D01*
X83320000Y-98750000D01*
X82295000Y-98750000D01*
X82170000Y-98875000D01*
X82167581Y-99400000D01*
X81685634Y-99400000D01*
X81784425Y-99301209D01*
X81904807Y-99121045D01*
X81987727Y-98920858D01*
X82030000Y-98708341D01*
X82030000Y-98491659D01*
X81987727Y-98279142D01*
X81904807Y-98078955D01*
X81784425Y-97898791D01*
X81685634Y-97800000D01*
X82167581Y-97800000D01*
X82170000Y-98325000D01*
X82295000Y-98450000D01*
X83320000Y-98450000D01*
X83320000Y-97425000D01*
X83620000Y-97425000D01*
X83620000Y-98450000D01*
X84645000Y-98450000D01*
X84770000Y-98325000D01*
X84772419Y-97800000D01*
X84762765Y-97701983D01*
X84734175Y-97607733D01*
X84687746Y-97520871D01*
X84625264Y-97444736D01*
X84549129Y-97382254D01*
X84462267Y-97335825D01*
X84368017Y-97307235D01*
X84270000Y-97297581D01*
X83745000Y-97300000D01*
X83620000Y-97425000D01*
X83320000Y-97425000D01*
X83195000Y-97300000D01*
X82670000Y-97297581D01*
X82571983Y-97307235D01*
X82477733Y-97335825D01*
X82390871Y-97382254D01*
X82314736Y-97444736D01*
X82252254Y-97520871D01*
X82205825Y-97607733D01*
X82177235Y-97701983D01*
X82167581Y-97800000D01*
X81685634Y-97800000D01*
X81631209Y-97745575D01*
X81605000Y-97728063D01*
X81605000Y-92731056D01*
X81700000Y-92731056D01*
X81700000Y-92868944D01*
X81726901Y-93004182D01*
X81779668Y-93131574D01*
X81856274Y-93246224D01*
X81953776Y-93343726D01*
X82068426Y-93420332D01*
X82195818Y-93473099D01*
X82331056Y-93500000D01*
X82468944Y-93500000D01*
X82492552Y-93495304D01*
X82498025Y-93501973D01*
X82562739Y-93555083D01*
X82636572Y-93594547D01*
X82692382Y-93611477D01*
X82716684Y-93618849D01*
X82725097Y-93619678D01*
X82779125Y-93624999D01*
X82779131Y-93624999D01*
X82799998Y-93627054D01*
X82820865Y-93624999D01*
X84579134Y-93624999D01*
X84600001Y-93627054D01*
X84620868Y-93624999D01*
X84620875Y-93624999D01*
X84683315Y-93618849D01*
X84763428Y-93594547D01*
X84837261Y-93555083D01*
X84901975Y-93501973D01*
X84915284Y-93485756D01*
X87585762Y-90815279D01*
X87601974Y-90801974D01*
X87655084Y-90737260D01*
X87694548Y-90663427D01*
X87718850Y-90583314D01*
X87725000Y-90520874D01*
X87725000Y-90520868D01*
X87727055Y-90500001D01*
X87725000Y-90479134D01*
X87725000Y-89155124D01*
X90657008Y-89155124D01*
X90707491Y-89333076D01*
X90898988Y-89411231D01*
X91102054Y-89450525D01*
X91308883Y-89449448D01*
X91511529Y-89408042D01*
X91692509Y-89333076D01*
X91742992Y-89155124D01*
X91200000Y-88612132D01*
X90657008Y-89155124D01*
X87725000Y-89155124D01*
X87725000Y-88302054D01*
X90149475Y-88302054D01*
X90150552Y-88508883D01*
X90191958Y-88711529D01*
X90266924Y-88892509D01*
X90444876Y-88942992D01*
X90987868Y-88400000D01*
X91412132Y-88400000D01*
X91955124Y-88942992D01*
X92133076Y-88892509D01*
X92211231Y-88701012D01*
X92250525Y-88497946D01*
X92249448Y-88291117D01*
X92208042Y-88088471D01*
X92133076Y-87907491D01*
X91955124Y-87857008D01*
X91412132Y-88400000D01*
X90987868Y-88400000D01*
X90444876Y-87857008D01*
X90266924Y-87907491D01*
X90188769Y-88098988D01*
X90149475Y-88302054D01*
X87725000Y-88302054D01*
X87725000Y-87644876D01*
X90657008Y-87644876D01*
X91200000Y-88187868D01*
X91742992Y-87644876D01*
X91692509Y-87466924D01*
X91501012Y-87388769D01*
X91297946Y-87349475D01*
X91091117Y-87350552D01*
X90888471Y-87391958D01*
X90707491Y-87466924D01*
X90657008Y-87644876D01*
X87725000Y-87644876D01*
X87725000Y-85776282D01*
X90350000Y-85776282D01*
X90350000Y-85943718D01*
X90382665Y-86107936D01*
X90446740Y-86262626D01*
X90539762Y-86401844D01*
X90658156Y-86520238D01*
X90797374Y-86613260D01*
X90952064Y-86677335D01*
X91116282Y-86710000D01*
X91283718Y-86710000D01*
X91447936Y-86677335D01*
X91602626Y-86613260D01*
X91741844Y-86520238D01*
X91860238Y-86401844D01*
X91953260Y-86262626D01*
X92017335Y-86107936D01*
X92050000Y-85943718D01*
X92050000Y-85776282D01*
X92017335Y-85612064D01*
X91953260Y-85457374D01*
X91860238Y-85318156D01*
X91741844Y-85199762D01*
X91602626Y-85106740D01*
X91447936Y-85042665D01*
X91283718Y-85010000D01*
X91116282Y-85010000D01*
X90952064Y-85042665D01*
X90797374Y-85106740D01*
X90658156Y-85199762D01*
X90539762Y-85318156D01*
X90446740Y-85457374D01*
X90382665Y-85612064D01*
X90350000Y-85776282D01*
X87725000Y-85776282D01*
X87725000Y-83876040D01*
X87856041Y-83745000D01*
X90461690Y-83745000D01*
X90539762Y-83861844D01*
X90658156Y-83980238D01*
X90797374Y-84073260D01*
X90952064Y-84137335D01*
X91116282Y-84170000D01*
X91283718Y-84170000D01*
X91447936Y-84137335D01*
X91602626Y-84073260D01*
X91741844Y-83980238D01*
X91860238Y-83861844D01*
X91953260Y-83722626D01*
X92017335Y-83567936D01*
X92050000Y-83403718D01*
X92050000Y-83236282D01*
X92017335Y-83072064D01*
X91953260Y-82917374D01*
X91860238Y-82778156D01*
X91741844Y-82659762D01*
X91602626Y-82566740D01*
X91447936Y-82502665D01*
X91283718Y-82470000D01*
X91116282Y-82470000D01*
X90952064Y-82502665D01*
X90797374Y-82566740D01*
X90658156Y-82659762D01*
X90539762Y-82778156D01*
X90461690Y-82895000D01*
X87846041Y-82895000D01*
X87725000Y-82773960D01*
X87725000Y-80696282D01*
X90350000Y-80696282D01*
X90350000Y-80863718D01*
X90382665Y-81027936D01*
X90446740Y-81182626D01*
X90539762Y-81321844D01*
X90658156Y-81440238D01*
X90797374Y-81533260D01*
X90952064Y-81597335D01*
X91116282Y-81630000D01*
X91283718Y-81630000D01*
X91447936Y-81597335D01*
X91602626Y-81533260D01*
X91741844Y-81440238D01*
X91860238Y-81321844D01*
X91953260Y-81182626D01*
X92017335Y-81027936D01*
X92050000Y-80863718D01*
X92050000Y-80696282D01*
X92017335Y-80532064D01*
X91953260Y-80377374D01*
X91860238Y-80238156D01*
X91741844Y-80119762D01*
X91602626Y-80026740D01*
X91447936Y-79962665D01*
X91283718Y-79930000D01*
X91116282Y-79930000D01*
X90952064Y-79962665D01*
X90797374Y-80026740D01*
X90658156Y-80119762D01*
X90539762Y-80238156D01*
X90446740Y-80377374D01*
X90382665Y-80532064D01*
X90350000Y-80696282D01*
X87725000Y-80696282D01*
X87725000Y-80576040D01*
X87910763Y-80390278D01*
X87926975Y-80376973D01*
X87980085Y-80312259D01*
X88005802Y-80264144D01*
X88019549Y-80238427D01*
X88043851Y-80158314D01*
X88047648Y-80119762D01*
X88050001Y-80095873D01*
X88050001Y-80095866D01*
X88052056Y-80074999D01*
X88050001Y-80054132D01*
X88050001Y-78309367D01*
X88052056Y-78288500D01*
X88050001Y-78267633D01*
X88050001Y-78267626D01*
X88043851Y-78205186D01*
X88042508Y-78200758D01*
X88029017Y-78156282D01*
X90350000Y-78156282D01*
X90350000Y-78323718D01*
X90382665Y-78487936D01*
X90446740Y-78642626D01*
X90539762Y-78781844D01*
X90658156Y-78900238D01*
X90797374Y-78993260D01*
X90952064Y-79057335D01*
X91116282Y-79090000D01*
X91283718Y-79090000D01*
X91447936Y-79057335D01*
X91602626Y-78993260D01*
X91741844Y-78900238D01*
X91860238Y-78781844D01*
X91953260Y-78642626D01*
X92017335Y-78487936D01*
X92050000Y-78323718D01*
X92050000Y-78156282D01*
X92017335Y-77992064D01*
X91953260Y-77837374D01*
X91860238Y-77698156D01*
X91741844Y-77579762D01*
X91602626Y-77486740D01*
X91447936Y-77422665D01*
X91283718Y-77390000D01*
X91116282Y-77390000D01*
X90952064Y-77422665D01*
X90797374Y-77486740D01*
X90658156Y-77579762D01*
X90539762Y-77698156D01*
X90446740Y-77837374D01*
X90382665Y-77992064D01*
X90350000Y-78156282D01*
X88029017Y-78156282D01*
X88019549Y-78125072D01*
X87986232Y-78062741D01*
X87980085Y-78051240D01*
X87926975Y-77986526D01*
X87910764Y-77973222D01*
X87725000Y-77787459D01*
X87725000Y-75616282D01*
X90350000Y-75616282D01*
X90350000Y-75783718D01*
X90382665Y-75947936D01*
X90446740Y-76102626D01*
X90539762Y-76241844D01*
X90658156Y-76360238D01*
X90797374Y-76453260D01*
X90952064Y-76517335D01*
X91116282Y-76550000D01*
X91283718Y-76550000D01*
X91447936Y-76517335D01*
X91602626Y-76453260D01*
X91741844Y-76360238D01*
X91860238Y-76241844D01*
X91953260Y-76102626D01*
X92017335Y-75947936D01*
X92050000Y-75783718D01*
X92050000Y-75616282D01*
X92017335Y-75452064D01*
X91953260Y-75297374D01*
X91860238Y-75158156D01*
X91741844Y-75039762D01*
X91602626Y-74946740D01*
X91447936Y-74882665D01*
X91283718Y-74850000D01*
X91116282Y-74850000D01*
X90952064Y-74882665D01*
X90797374Y-74946740D01*
X90658156Y-75039762D01*
X90539762Y-75158156D01*
X90446740Y-75297374D01*
X90382665Y-75452064D01*
X90350000Y-75616282D01*
X87725000Y-75616282D01*
X87725000Y-67745830D01*
X88100000Y-67745830D01*
X88100000Y-67854170D01*
X88121136Y-67960429D01*
X88162597Y-68060523D01*
X88222787Y-68150604D01*
X88299396Y-68227213D01*
X88389477Y-68287403D01*
X88489571Y-68328864D01*
X88595830Y-68350000D01*
X88704170Y-68350000D01*
X88810429Y-68328864D01*
X88910523Y-68287403D01*
X89000604Y-68227213D01*
X89077213Y-68150604D01*
X89137403Y-68060523D01*
X89178864Y-67960429D01*
X89200000Y-67854170D01*
X89200000Y-67745830D01*
X89178864Y-67639571D01*
X89137403Y-67539477D01*
X89077213Y-67449396D01*
X89000604Y-67372787D01*
X88910523Y-67312597D01*
X88810429Y-67271136D01*
X88704170Y-67250000D01*
X88595830Y-67250000D01*
X88489571Y-67271136D01*
X88389477Y-67312597D01*
X88299396Y-67372787D01*
X88222787Y-67449396D01*
X88162597Y-67539477D01*
X88121136Y-67639571D01*
X88100000Y-67745830D01*
X87725000Y-67745830D01*
X87725000Y-63745830D01*
X88100000Y-63745830D01*
X88100000Y-63854170D01*
X88121136Y-63960429D01*
X88162597Y-64060523D01*
X88222787Y-64150604D01*
X88299396Y-64227213D01*
X88389477Y-64287403D01*
X88489571Y-64328864D01*
X88595830Y-64350000D01*
X88704170Y-64350000D01*
X88810429Y-64328864D01*
X88910523Y-64287403D01*
X89000604Y-64227213D01*
X89077213Y-64150604D01*
X89137403Y-64060523D01*
X89178864Y-63960429D01*
X89200000Y-63854170D01*
X89200000Y-63745830D01*
X89178864Y-63639571D01*
X89137403Y-63539477D01*
X89077213Y-63449396D01*
X89000604Y-63372787D01*
X88910523Y-63312597D01*
X88810429Y-63271136D01*
X88704170Y-63250000D01*
X88595830Y-63250000D01*
X88489571Y-63271136D01*
X88389477Y-63312597D01*
X88299396Y-63372787D01*
X88222787Y-63449396D01*
X88162597Y-63539477D01*
X88121136Y-63639571D01*
X88100000Y-63745830D01*
X87725000Y-63745830D01*
X87725000Y-54026040D01*
X89251041Y-52500000D01*
X89268944Y-52500000D01*
X89404182Y-52473099D01*
X89531574Y-52420332D01*
X89646224Y-52343726D01*
X89743726Y-52246224D01*
X89820332Y-52131574D01*
X89873099Y-52004182D01*
X89900000Y-51868944D01*
X89900000Y-51731056D01*
X89873099Y-51595818D01*
X89820332Y-51468426D01*
X89743726Y-51353776D01*
X89646224Y-51256274D01*
X89531574Y-51179668D01*
X89404182Y-51126901D01*
X89268944Y-51100000D01*
X89131056Y-51100000D01*
X88995818Y-51126901D01*
X88868426Y-51179668D01*
X88753776Y-51256274D01*
X88656274Y-51353776D01*
X88579668Y-51468426D01*
X88550000Y-51540052D01*
X88520332Y-51468426D01*
X88443726Y-51353776D01*
X88346224Y-51256274D01*
X88231574Y-51179668D01*
X88104182Y-51126901D01*
X87968944Y-51100000D01*
X87831056Y-51100000D01*
X87695818Y-51126901D01*
X87568426Y-51179668D01*
X87453776Y-51256274D01*
X87356274Y-51353776D01*
X87279668Y-51468426D01*
X87275000Y-51479696D01*
X87270332Y-51468426D01*
X87193726Y-51353776D01*
X87096224Y-51256274D01*
X86981574Y-51179668D01*
X86854182Y-51126901D01*
X86718944Y-51100000D01*
X86581056Y-51100000D01*
X86445818Y-51126901D01*
X86318426Y-51179668D01*
X86203776Y-51256274D01*
X86106274Y-51353776D01*
X86029668Y-51468426D01*
X86000000Y-51540052D01*
X85970332Y-51468426D01*
X85893726Y-51353776D01*
X85796224Y-51256274D01*
X85681574Y-51179668D01*
X85554182Y-51126901D01*
X85418944Y-51100000D01*
X85281056Y-51100000D01*
X85145818Y-51126901D01*
X85018426Y-51179668D01*
X84903776Y-51256274D01*
X84806274Y-51353776D01*
X84729668Y-51468426D01*
X84725000Y-51479696D01*
X84720332Y-51468426D01*
X84643726Y-51353776D01*
X84546224Y-51256274D01*
X84431574Y-51179668D01*
X84304182Y-51126901D01*
X84168944Y-51100000D01*
X84031056Y-51100000D01*
X83895818Y-51126901D01*
X83768426Y-51179668D01*
X83653776Y-51256274D01*
X83556274Y-51353776D01*
X83479668Y-51468426D01*
X83426901Y-51595818D01*
X83400000Y-51731056D01*
X83400000Y-51868944D01*
X83426901Y-52004182D01*
X83479668Y-52131574D01*
X83556274Y-52246224D01*
X83653776Y-52343726D01*
X83768426Y-52420332D01*
X83855259Y-52456299D01*
X84175001Y-52776042D01*
X84175000Y-86423959D01*
X83714239Y-86884721D01*
X83698027Y-86898026D01*
X83644917Y-86962740D01*
X83614926Y-87018850D01*
X83605453Y-87036573D01*
X83581150Y-87116686D01*
X83572945Y-87200000D01*
X83575001Y-87220876D01*
X83575000Y-88179133D01*
X83572945Y-88200000D01*
X83575000Y-88220867D01*
X83575000Y-88220873D01*
X83581150Y-88283313D01*
X83605452Y-88363426D01*
X83644916Y-88437259D01*
X83698026Y-88501974D01*
X83714243Y-88515283D01*
X84104980Y-88906020D01*
X84100000Y-88931056D01*
X84100000Y-89068944D01*
X84126901Y-89204182D01*
X84179668Y-89331574D01*
X84256274Y-89446224D01*
X84353776Y-89543726D01*
X84468426Y-89620332D01*
X84595818Y-89673099D01*
X84731056Y-89700000D01*
X84868944Y-89700000D01*
X85004182Y-89673099D01*
X85131574Y-89620332D01*
X85246224Y-89543726D01*
X85343726Y-89446224D01*
X85420332Y-89331574D01*
X85473099Y-89204182D01*
X85475001Y-89194620D01*
X85475001Y-89523958D01*
X84514243Y-90484717D01*
X84514238Y-90484721D01*
X84493979Y-90504980D01*
X84468944Y-90500000D01*
X84331056Y-90500000D01*
X84195818Y-90526901D01*
X84068426Y-90579668D01*
X83953776Y-90656274D01*
X83856274Y-90753776D01*
X83779668Y-90868426D01*
X83726901Y-90995818D01*
X83700000Y-91131056D01*
X83700000Y-91268944D01*
X83726901Y-91404182D01*
X83779668Y-91531574D01*
X83856274Y-91646224D01*
X83910050Y-91700000D01*
X83856274Y-91753776D01*
X83779668Y-91868426D01*
X83726901Y-91995818D01*
X83700000Y-92131056D01*
X83700000Y-92268944D01*
X83726901Y-92404182D01*
X83779668Y-92531574D01*
X83856274Y-92646224D01*
X83953776Y-92743726D01*
X84000580Y-92774999D01*
X83100000Y-92774999D01*
X83100000Y-92731056D01*
X83073099Y-92595818D01*
X83020332Y-92468426D01*
X82943726Y-92353776D01*
X82846224Y-92256274D01*
X82731574Y-92179668D01*
X82604182Y-92126901D01*
X82468944Y-92100000D01*
X82331056Y-92100000D01*
X82195818Y-92126901D01*
X82068426Y-92179668D01*
X81953776Y-92256274D01*
X81856274Y-92353776D01*
X81779668Y-92468426D01*
X81726901Y-92595818D01*
X81700000Y-92731056D01*
X81605000Y-92731056D01*
X81605000Y-74149594D01*
X83753857Y-72000737D01*
X83779605Y-71979606D01*
X83800738Y-71953856D01*
X83800743Y-71953851D01*
X83863957Y-71876825D01*
X83863958Y-71876824D01*
X83926636Y-71759561D01*
X83965233Y-71632323D01*
X83975000Y-71533159D01*
X83975000Y-71533153D01*
X83978265Y-71500001D01*
X83975000Y-71466849D01*
X83975000Y-70228178D01*
X83996261Y-70188401D01*
X84039147Y-70047026D01*
X84050000Y-69936835D01*
X84050000Y-68963185D01*
X84039147Y-68852994D01*
X83996261Y-68711619D01*
X83926619Y-68581327D01*
X83832895Y-68467125D01*
X83718692Y-68373401D01*
X83588400Y-68303759D01*
X83447025Y-68260873D01*
X83300000Y-68246392D01*
X83152974Y-68260873D01*
X83011599Y-68303759D01*
X82881307Y-68373401D01*
X82767105Y-68467125D01*
X82673381Y-68581328D01*
X82603739Y-68711620D01*
X82560853Y-68852995D01*
X82550000Y-68963186D01*
X82550000Y-69936835D01*
X82560854Y-70047026D01*
X82603740Y-70188401D01*
X82625001Y-70228177D01*
X82625000Y-71220406D01*
X80476143Y-73369263D01*
X80450395Y-73390394D01*
X80429264Y-73416142D01*
X80429256Y-73416150D01*
X80366043Y-73493176D01*
X80303365Y-73610439D01*
X80264767Y-73737677D01*
X80251735Y-73870000D01*
X80255001Y-73903162D01*
X80255000Y-97728063D01*
X80228791Y-97745575D01*
X80075575Y-97898791D01*
X79955193Y-98078955D01*
X79872273Y-98279142D01*
X79830000Y-98491659D01*
X79350000Y-98491659D01*
X79350000Y-95982811D01*
X79348233Y-95964871D01*
X79348233Y-95951884D01*
X79347722Y-95947024D01*
X79325967Y-95753074D01*
X79319382Y-95722096D01*
X79313210Y-95690926D01*
X79311764Y-95686257D01*
X79300000Y-95649173D01*
X79300000Y-91348446D01*
X79316017Y-91295395D01*
X79322170Y-91264318D01*
X79328774Y-91233249D01*
X79329285Y-91228388D01*
X79348330Y-91034155D01*
X79348330Y-91034144D01*
X79350000Y-91017189D01*
X79350000Y-71426131D01*
X80450000Y-71426131D01*
X80450000Y-71573869D01*
X80478822Y-71718767D01*
X80535359Y-71855258D01*
X80617437Y-71978097D01*
X80721903Y-72082563D01*
X80844742Y-72164641D01*
X80981233Y-72221178D01*
X81126131Y-72250000D01*
X81273869Y-72250000D01*
X81418767Y-72221178D01*
X81555258Y-72164641D01*
X81678097Y-72082563D01*
X81782563Y-71978097D01*
X81864641Y-71855258D01*
X81921178Y-71718767D01*
X81950000Y-71573869D01*
X81950000Y-71426131D01*
X81921178Y-71281233D01*
X81864641Y-71144742D01*
X81782563Y-71021903D01*
X81678097Y-70917437D01*
X81555258Y-70835359D01*
X81418767Y-70778822D01*
X81273869Y-70750000D01*
X81126131Y-70750000D01*
X80981233Y-70778822D01*
X80844742Y-70835359D01*
X80721903Y-70917437D01*
X80617437Y-71021903D01*
X80535359Y-71144742D01*
X80478822Y-71281233D01*
X80450000Y-71426131D01*
X79350000Y-71426131D01*
X79350000Y-68426131D01*
X80450000Y-68426131D01*
X80450000Y-68573869D01*
X80478822Y-68718767D01*
X80535359Y-68855258D01*
X80617437Y-68978097D01*
X80721903Y-69082563D01*
X80844742Y-69164641D01*
X80981233Y-69221178D01*
X81126131Y-69250000D01*
X81273869Y-69250000D01*
X81418767Y-69221178D01*
X81555258Y-69164641D01*
X81678097Y-69082563D01*
X81782563Y-68978097D01*
X81864641Y-68855258D01*
X81921178Y-68718767D01*
X81950000Y-68573869D01*
X81950000Y-68426131D01*
X81921178Y-68281233D01*
X81864641Y-68144742D01*
X81782563Y-68021903D01*
X81678097Y-67917437D01*
X81555258Y-67835359D01*
X81418767Y-67778822D01*
X81273869Y-67750000D01*
X81126131Y-67750000D01*
X80981233Y-67778822D01*
X80844742Y-67835359D01*
X80721903Y-67917437D01*
X80617437Y-68021903D01*
X80535359Y-68144742D01*
X80478822Y-68281233D01*
X80450000Y-68426131D01*
X79350000Y-68426131D01*
X79350000Y-44791422D01*
X79712528Y-44428894D01*
X79800430Y-44361444D01*
X79896693Y-44321571D01*
X80000000Y-44307970D01*
X80103307Y-44321571D01*
X80199570Y-44361444D01*
X80287472Y-44428894D01*
X81575736Y-45717158D01*
X81585571Y-45725782D01*
X81689124Y-45805241D01*
X81711732Y-45818294D01*
X81832322Y-45868244D01*
X81857537Y-45875001D01*
X81986947Y-45892038D01*
X82013053Y-45892038D01*
X82142463Y-45875001D01*
X82167678Y-45868244D01*
X82288268Y-45818294D01*
X82310876Y-45805241D01*
X82414429Y-45725782D01*
X82424264Y-45717158D01*
X83712528Y-44428894D01*
X83800430Y-44361444D01*
X83896693Y-44321571D01*
X84000000Y-44307970D01*
X84103307Y-44321571D01*
X84199570Y-44361444D01*
X84287472Y-44428894D01*
X85575736Y-45717158D01*
X85585571Y-45725782D01*
X85689124Y-45805241D01*
X85711732Y-45818294D01*
X85832322Y-45868244D01*
X85857537Y-45875001D01*
X85986947Y-45892038D01*
X86013053Y-45892038D01*
X86142463Y-45875001D01*
X86167678Y-45868244D01*
X86288268Y-45818294D01*
X86310876Y-45805241D01*
X86414429Y-45725782D01*
X86424264Y-45717158D01*
X87712528Y-44428894D01*
X87800430Y-44361444D01*
X87896693Y-44321571D01*
X88000000Y-44307970D01*
X88103307Y-44321571D01*
X88199570Y-44361444D01*
X88287472Y-44428894D01*
X89575736Y-45717158D01*
X89585571Y-45725782D01*
X89689124Y-45805241D01*
X89711732Y-45818294D01*
X89832322Y-45868244D01*
X89857537Y-45875001D01*
X89986947Y-45892038D01*
X90013053Y-45892038D01*
X90142463Y-45875001D01*
X90167678Y-45868244D01*
X90288268Y-45818294D01*
X90310876Y-45805241D01*
X90414429Y-45725782D01*
X90424264Y-45717158D01*
X91712528Y-44428894D01*
X91800430Y-44361444D01*
X91896693Y-44321571D01*
X92000000Y-44307970D01*
X92103307Y-44321571D01*
G36*
X76650001Y-91017189D02*
G01*
X76651767Y-91035119D01*
X76651767Y-91048116D01*
X76652278Y-91052976D01*
X76674033Y-91246926D01*
X76680617Y-91277898D01*
X76686790Y-91309074D01*
X76688236Y-91313743D01*
X76700000Y-91350827D01*
X76700000Y-92038975D01*
X76649396Y-92072787D01*
X76572787Y-92149396D01*
X76512597Y-92239477D01*
X76471136Y-92339571D01*
X76450000Y-92445830D01*
X76450000Y-92554170D01*
X76471136Y-92660429D01*
X76512597Y-92760523D01*
X76572787Y-92850604D01*
X76649396Y-92927213D01*
X76700000Y-92961025D01*
X76700000Y-93038975D01*
X76649396Y-93072787D01*
X76572787Y-93149396D01*
X76512597Y-93239477D01*
X76471136Y-93339571D01*
X76450000Y-93445830D01*
X76450000Y-93554170D01*
X76471136Y-93660429D01*
X76512597Y-93760523D01*
X76572787Y-93850604D01*
X76649396Y-93927213D01*
X76700000Y-93961025D01*
X76700000Y-94038975D01*
X76649396Y-94072787D01*
X76572787Y-94149396D01*
X76512597Y-94239477D01*
X76471136Y-94339571D01*
X76450000Y-94445830D01*
X76450000Y-94554170D01*
X76471136Y-94660429D01*
X76512597Y-94760523D01*
X76572787Y-94850604D01*
X76649396Y-94927213D01*
X76700000Y-94961025D01*
X76700000Y-95651554D01*
X76683983Y-95704605D01*
X76677827Y-95735697D01*
X76671226Y-95766752D01*
X76670715Y-95771612D01*
X76651670Y-95965846D01*
X76651670Y-95965866D01*
X76650001Y-95982811D01*
X76650001Y-105900000D01*
X74506559Y-105900000D01*
X74396693Y-105885536D01*
X74300433Y-105845664D01*
X74217768Y-105782232D01*
X74154336Y-105699567D01*
X74114464Y-105603307D01*
X74100000Y-105493441D01*
X74100000Y-89155124D01*
X74657008Y-89155124D01*
X74707491Y-89333076D01*
X74898988Y-89411231D01*
X75102054Y-89450525D01*
X75308883Y-89449448D01*
X75511529Y-89408042D01*
X75692509Y-89333076D01*
X75742992Y-89155124D01*
X75200000Y-88612132D01*
X74657008Y-89155124D01*
X74100000Y-89155124D01*
X74100000Y-88302054D01*
X74149475Y-88302054D01*
X74150552Y-88508883D01*
X74191958Y-88711529D01*
X74266924Y-88892509D01*
X74444876Y-88942992D01*
X74987868Y-88400000D01*
X75412132Y-88400000D01*
X75955124Y-88942992D01*
X76133076Y-88892509D01*
X76211231Y-88701012D01*
X76250525Y-88497946D01*
X76249448Y-88291117D01*
X76208042Y-88088471D01*
X76133076Y-87907491D01*
X75955124Y-87857008D01*
X75412132Y-88400000D01*
X74987868Y-88400000D01*
X74444876Y-87857008D01*
X74266924Y-87907491D01*
X74188769Y-88098988D01*
X74149475Y-88302054D01*
X74100000Y-88302054D01*
X74100000Y-87644876D01*
X74657008Y-87644876D01*
X75200000Y-88187868D01*
X75742992Y-87644876D01*
X75692509Y-87466924D01*
X75501012Y-87388769D01*
X75297946Y-87349475D01*
X75091117Y-87350552D01*
X74888471Y-87391958D01*
X74707491Y-87466924D01*
X74657008Y-87644876D01*
X74100000Y-87644876D01*
X74100000Y-85776282D01*
X74350000Y-85776282D01*
X74350000Y-85943718D01*
X74382665Y-86107936D01*
X74446740Y-86262626D01*
X74539762Y-86401844D01*
X74658156Y-86520238D01*
X74797374Y-86613260D01*
X74952064Y-86677335D01*
X75116282Y-86710000D01*
X75283718Y-86710000D01*
X75447936Y-86677335D01*
X75602626Y-86613260D01*
X75741844Y-86520238D01*
X75860238Y-86401844D01*
X75953260Y-86262626D01*
X76017335Y-86107936D01*
X76050000Y-85943718D01*
X76050000Y-85776282D01*
X76017335Y-85612064D01*
X75953260Y-85457374D01*
X75860238Y-85318156D01*
X75741844Y-85199762D01*
X75602626Y-85106740D01*
X75447936Y-85042665D01*
X75283718Y-85010000D01*
X75116282Y-85010000D01*
X74952064Y-85042665D01*
X74797374Y-85106740D01*
X74658156Y-85199762D01*
X74539762Y-85318156D01*
X74446740Y-85457374D01*
X74382665Y-85612064D01*
X74350000Y-85776282D01*
X74100000Y-85776282D01*
X74100000Y-83745000D01*
X74461690Y-83745000D01*
X74539762Y-83861844D01*
X74658156Y-83980238D01*
X74797374Y-84073260D01*
X74952064Y-84137335D01*
X75116282Y-84170000D01*
X75283718Y-84170000D01*
X75447936Y-84137335D01*
X75602626Y-84073260D01*
X75741844Y-83980238D01*
X75860238Y-83861844D01*
X75953260Y-83722626D01*
X76017335Y-83567936D01*
X76050000Y-83403718D01*
X76050000Y-83236282D01*
X76017335Y-83072064D01*
X75953260Y-82917374D01*
X75860238Y-82778156D01*
X75741844Y-82659762D01*
X75602626Y-82566740D01*
X75447936Y-82502665D01*
X75283718Y-82470000D01*
X75116282Y-82470000D01*
X74952064Y-82502665D01*
X74797374Y-82566740D01*
X74658156Y-82659762D01*
X74539762Y-82778156D01*
X74461690Y-82895000D01*
X74100000Y-82895000D01*
X74100000Y-80696282D01*
X74350000Y-80696282D01*
X74350000Y-80863718D01*
X74382665Y-81027936D01*
X74446740Y-81182626D01*
X74539762Y-81321844D01*
X74658156Y-81440238D01*
X74797374Y-81533260D01*
X74952064Y-81597335D01*
X75116282Y-81630000D01*
X75283718Y-81630000D01*
X75447936Y-81597335D01*
X75602626Y-81533260D01*
X75741844Y-81440238D01*
X75860238Y-81321844D01*
X75953260Y-81182626D01*
X76017335Y-81027936D01*
X76050000Y-80863718D01*
X76050000Y-80696282D01*
X76017335Y-80532064D01*
X75953260Y-80377374D01*
X75860238Y-80238156D01*
X75741844Y-80119762D01*
X75602626Y-80026740D01*
X75447936Y-79962665D01*
X75283718Y-79930000D01*
X75116282Y-79930000D01*
X74952064Y-79962665D01*
X74797374Y-80026740D01*
X74658156Y-80119762D01*
X74539762Y-80238156D01*
X74446740Y-80377374D01*
X74382665Y-80532064D01*
X74350000Y-80696282D01*
X74100000Y-80696282D01*
X74100000Y-78156282D01*
X74350000Y-78156282D01*
X74350000Y-78323718D01*
X74382665Y-78487936D01*
X74446740Y-78642626D01*
X74539762Y-78781844D01*
X74658156Y-78900238D01*
X74797374Y-78993260D01*
X74952064Y-79057335D01*
X75116282Y-79090000D01*
X75283718Y-79090000D01*
X75447936Y-79057335D01*
X75602626Y-78993260D01*
X75741844Y-78900238D01*
X75860238Y-78781844D01*
X75953260Y-78642626D01*
X76017335Y-78487936D01*
X76050000Y-78323718D01*
X76050000Y-78156282D01*
X76017335Y-77992064D01*
X75953260Y-77837374D01*
X75860238Y-77698156D01*
X75741844Y-77579762D01*
X75602626Y-77486740D01*
X75447936Y-77422665D01*
X75283718Y-77390000D01*
X75116282Y-77390000D01*
X74952064Y-77422665D01*
X74797374Y-77486740D01*
X74658156Y-77579762D01*
X74539762Y-77698156D01*
X74446740Y-77837374D01*
X74382665Y-77992064D01*
X74350000Y-78156282D01*
X74100000Y-78156282D01*
X74100000Y-75616282D01*
X74350000Y-75616282D01*
X74350000Y-75783718D01*
X74382665Y-75947936D01*
X74446740Y-76102626D01*
X74539762Y-76241844D01*
X74658156Y-76360238D01*
X74797374Y-76453260D01*
X74952064Y-76517335D01*
X75116282Y-76550000D01*
X75283718Y-76550000D01*
X75447936Y-76517335D01*
X75602626Y-76453260D01*
X75741844Y-76360238D01*
X75860238Y-76241844D01*
X75953260Y-76102626D01*
X76017335Y-75947936D01*
X76050000Y-75783718D01*
X76050000Y-75616282D01*
X76017335Y-75452064D01*
X75953260Y-75297374D01*
X75860238Y-75158156D01*
X75741844Y-75039762D01*
X75602626Y-74946740D01*
X75447936Y-74882665D01*
X75283718Y-74850000D01*
X75116282Y-74850000D01*
X74952064Y-74882665D01*
X74797374Y-74946740D01*
X74658156Y-75039762D01*
X74539762Y-75158156D01*
X74446740Y-75297374D01*
X74382665Y-75452064D01*
X74350000Y-75616282D01*
X74100000Y-75616282D01*
X74100000Y-46506559D01*
X74114464Y-46396693D01*
X74154336Y-46300433D01*
X74217768Y-46217768D01*
X74300433Y-46154336D01*
X74396693Y-46114464D01*
X74506559Y-46100000D01*
X76650000Y-46100000D01*
X76650001Y-91017189D01*
G37*
X76650001Y-91017189D02*
X76651767Y-91035119D01*
X76651767Y-91048116D01*
X76652278Y-91052976D01*
X76674033Y-91246926D01*
X76680617Y-91277898D01*
X76686790Y-91309074D01*
X76688236Y-91313743D01*
X76700000Y-91350827D01*
X76700000Y-92038975D01*
X76649396Y-92072787D01*
X76572787Y-92149396D01*
X76512597Y-92239477D01*
X76471136Y-92339571D01*
X76450000Y-92445830D01*
X76450000Y-92554170D01*
X76471136Y-92660429D01*
X76512597Y-92760523D01*
X76572787Y-92850604D01*
X76649396Y-92927213D01*
X76700000Y-92961025D01*
X76700000Y-93038975D01*
X76649396Y-93072787D01*
X76572787Y-93149396D01*
X76512597Y-93239477D01*
X76471136Y-93339571D01*
X76450000Y-93445830D01*
X76450000Y-93554170D01*
X76471136Y-93660429D01*
X76512597Y-93760523D01*
X76572787Y-93850604D01*
X76649396Y-93927213D01*
X76700000Y-93961025D01*
X76700000Y-94038975D01*
X76649396Y-94072787D01*
X76572787Y-94149396D01*
X76512597Y-94239477D01*
X76471136Y-94339571D01*
X76450000Y-94445830D01*
X76450000Y-94554170D01*
X76471136Y-94660429D01*
X76512597Y-94760523D01*
X76572787Y-94850604D01*
X76649396Y-94927213D01*
X76700000Y-94961025D01*
X76700000Y-95651554D01*
X76683983Y-95704605D01*
X76677827Y-95735697D01*
X76671226Y-95766752D01*
X76670715Y-95771612D01*
X76651670Y-95965846D01*
X76651670Y-95965866D01*
X76650001Y-95982811D01*
X76650001Y-105900000D01*
X74506559Y-105900000D01*
X74396693Y-105885536D01*
X74300433Y-105845664D01*
X74217768Y-105782232D01*
X74154336Y-105699567D01*
X74114464Y-105603307D01*
X74100000Y-105493441D01*
X74100000Y-89155124D01*
X74657008Y-89155124D01*
X74707491Y-89333076D01*
X74898988Y-89411231D01*
X75102054Y-89450525D01*
X75308883Y-89449448D01*
X75511529Y-89408042D01*
X75692509Y-89333076D01*
X75742992Y-89155124D01*
X75200000Y-88612132D01*
X74657008Y-89155124D01*
X74100000Y-89155124D01*
X74100000Y-88302054D01*
X74149475Y-88302054D01*
X74150552Y-88508883D01*
X74191958Y-88711529D01*
X74266924Y-88892509D01*
X74444876Y-88942992D01*
X74987868Y-88400000D01*
X75412132Y-88400000D01*
X75955124Y-88942992D01*
X76133076Y-88892509D01*
X76211231Y-88701012D01*
X76250525Y-88497946D01*
X76249448Y-88291117D01*
X76208042Y-88088471D01*
X76133076Y-87907491D01*
X75955124Y-87857008D01*
X75412132Y-88400000D01*
X74987868Y-88400000D01*
X74444876Y-87857008D01*
X74266924Y-87907491D01*
X74188769Y-88098988D01*
X74149475Y-88302054D01*
X74100000Y-88302054D01*
X74100000Y-87644876D01*
X74657008Y-87644876D01*
X75200000Y-88187868D01*
X75742992Y-87644876D01*
X75692509Y-87466924D01*
X75501012Y-87388769D01*
X75297946Y-87349475D01*
X75091117Y-87350552D01*
X74888471Y-87391958D01*
X74707491Y-87466924D01*
X74657008Y-87644876D01*
X74100000Y-87644876D01*
X74100000Y-85776282D01*
X74350000Y-85776282D01*
X74350000Y-85943718D01*
X74382665Y-86107936D01*
X74446740Y-86262626D01*
X74539762Y-86401844D01*
X74658156Y-86520238D01*
X74797374Y-86613260D01*
X74952064Y-86677335D01*
X75116282Y-86710000D01*
X75283718Y-86710000D01*
X75447936Y-86677335D01*
X75602626Y-86613260D01*
X75741844Y-86520238D01*
X75860238Y-86401844D01*
X75953260Y-86262626D01*
X76017335Y-86107936D01*
X76050000Y-85943718D01*
X76050000Y-85776282D01*
X76017335Y-85612064D01*
X75953260Y-85457374D01*
X75860238Y-85318156D01*
X75741844Y-85199762D01*
X75602626Y-85106740D01*
X75447936Y-85042665D01*
X75283718Y-85010000D01*
X75116282Y-85010000D01*
X74952064Y-85042665D01*
X74797374Y-85106740D01*
X74658156Y-85199762D01*
X74539762Y-85318156D01*
X74446740Y-85457374D01*
X74382665Y-85612064D01*
X74350000Y-85776282D01*
X74100000Y-85776282D01*
X74100000Y-83745000D01*
X74461690Y-83745000D01*
X74539762Y-83861844D01*
X74658156Y-83980238D01*
X74797374Y-84073260D01*
X74952064Y-84137335D01*
X75116282Y-84170000D01*
X75283718Y-84170000D01*
X75447936Y-84137335D01*
X75602626Y-84073260D01*
X75741844Y-83980238D01*
X75860238Y-83861844D01*
X75953260Y-83722626D01*
X76017335Y-83567936D01*
X76050000Y-83403718D01*
X76050000Y-83236282D01*
X76017335Y-83072064D01*
X75953260Y-82917374D01*
X75860238Y-82778156D01*
X75741844Y-82659762D01*
X75602626Y-82566740D01*
X75447936Y-82502665D01*
X75283718Y-82470000D01*
X75116282Y-82470000D01*
X74952064Y-82502665D01*
X74797374Y-82566740D01*
X74658156Y-82659762D01*
X74539762Y-82778156D01*
X74461690Y-82895000D01*
X74100000Y-82895000D01*
X74100000Y-80696282D01*
X74350000Y-80696282D01*
X74350000Y-80863718D01*
X74382665Y-81027936D01*
X74446740Y-81182626D01*
X74539762Y-81321844D01*
X74658156Y-81440238D01*
X74797374Y-81533260D01*
X74952064Y-81597335D01*
X75116282Y-81630000D01*
X75283718Y-81630000D01*
X75447936Y-81597335D01*
X75602626Y-81533260D01*
X75741844Y-81440238D01*
X75860238Y-81321844D01*
X75953260Y-81182626D01*
X76017335Y-81027936D01*
X76050000Y-80863718D01*
X76050000Y-80696282D01*
X76017335Y-80532064D01*
X75953260Y-80377374D01*
X75860238Y-80238156D01*
X75741844Y-80119762D01*
X75602626Y-80026740D01*
X75447936Y-79962665D01*
X75283718Y-79930000D01*
X75116282Y-79930000D01*
X74952064Y-79962665D01*
X74797374Y-80026740D01*
X74658156Y-80119762D01*
X74539762Y-80238156D01*
X74446740Y-80377374D01*
X74382665Y-80532064D01*
X74350000Y-80696282D01*
X74100000Y-80696282D01*
X74100000Y-78156282D01*
X74350000Y-78156282D01*
X74350000Y-78323718D01*
X74382665Y-78487936D01*
X74446740Y-78642626D01*
X74539762Y-78781844D01*
X74658156Y-78900238D01*
X74797374Y-78993260D01*
X74952064Y-79057335D01*
X75116282Y-79090000D01*
X75283718Y-79090000D01*
X75447936Y-79057335D01*
X75602626Y-78993260D01*
X75741844Y-78900238D01*
X75860238Y-78781844D01*
X75953260Y-78642626D01*
X76017335Y-78487936D01*
X76050000Y-78323718D01*
X76050000Y-78156282D01*
X76017335Y-77992064D01*
X75953260Y-77837374D01*
X75860238Y-77698156D01*
X75741844Y-77579762D01*
X75602626Y-77486740D01*
X75447936Y-77422665D01*
X75283718Y-77390000D01*
X75116282Y-77390000D01*
X74952064Y-77422665D01*
X74797374Y-77486740D01*
X74658156Y-77579762D01*
X74539762Y-77698156D01*
X74446740Y-77837374D01*
X74382665Y-77992064D01*
X74350000Y-78156282D01*
X74100000Y-78156282D01*
X74100000Y-75616282D01*
X74350000Y-75616282D01*
X74350000Y-75783718D01*
X74382665Y-75947936D01*
X74446740Y-76102626D01*
X74539762Y-76241844D01*
X74658156Y-76360238D01*
X74797374Y-76453260D01*
X74952064Y-76517335D01*
X75116282Y-76550000D01*
X75283718Y-76550000D01*
X75447936Y-76517335D01*
X75602626Y-76453260D01*
X75741844Y-76360238D01*
X75860238Y-76241844D01*
X75953260Y-76102626D01*
X76017335Y-75947936D01*
X76050000Y-75783718D01*
X76050000Y-75616282D01*
X76017335Y-75452064D01*
X75953260Y-75297374D01*
X75860238Y-75158156D01*
X75741844Y-75039762D01*
X75602626Y-74946740D01*
X75447936Y-74882665D01*
X75283718Y-74850000D01*
X75116282Y-74850000D01*
X74952064Y-74882665D01*
X74797374Y-74946740D01*
X74658156Y-75039762D01*
X74539762Y-75158156D01*
X74446740Y-75297374D01*
X74382665Y-75452064D01*
X74350000Y-75616282D01*
X74100000Y-75616282D01*
X74100000Y-46506559D01*
X74114464Y-46396693D01*
X74154336Y-46300433D01*
X74217768Y-46217768D01*
X74300433Y-46154336D01*
X74396693Y-46114464D01*
X74506559Y-46100000D01*
X76650000Y-46100000D01*
X76650001Y-91017189D01*
M02*
