G04 #@! TF.GenerationSoftware,KiCad,Pcbnew,(5.1.6-0-10_14)*
G04 #@! TF.CreationDate,2020-05-26T15:54:01+02:00*
G04 #@! TF.ProjectId,Sensor 2x,53656e73-6f72-4203-9278-2e6b69636164,rev?*
G04 #@! TF.SameCoordinates,Original*
G04 #@! TF.FileFunction,Soldermask,Top*
G04 #@! TF.FilePolarity,Negative*
%FSLAX46Y46*%
G04 Gerber Fmt 4.6, Leading zero omitted, Abs format (unit mm)*
G04 Created by KiCad (PCBNEW (5.1.6-0-10_14)) date 2020-05-26 15:54:01*
%MOMM*%
%LPD*%
G01*
G04 APERTURE LIST*
%ADD10C,0.100000*%
G04 APERTURE END LIST*
D10*
G36*
X93087797Y-150710567D02*
G01*
X93142575Y-150733257D01*
X93142577Y-150733258D01*
X93191876Y-150766198D01*
X93233802Y-150808124D01*
X93266742Y-150857423D01*
X93266743Y-150857425D01*
X93289433Y-150912203D01*
X93301000Y-150970353D01*
X93301000Y-151029647D01*
X93289433Y-151087797D01*
X93266743Y-151142575D01*
X93266742Y-151142577D01*
X93233802Y-151191876D01*
X93191876Y-151233802D01*
X93142577Y-151266742D01*
X93142576Y-151266743D01*
X93142575Y-151266743D01*
X93087797Y-151289433D01*
X93029647Y-151301000D01*
X92970353Y-151301000D01*
X92912203Y-151289433D01*
X92857425Y-151266743D01*
X92857424Y-151266743D01*
X92857423Y-151266742D01*
X92808124Y-151233802D01*
X92766198Y-151191876D01*
X92733258Y-151142577D01*
X92733257Y-151142575D01*
X92710567Y-151087797D01*
X92699000Y-151029647D01*
X92699000Y-150970353D01*
X92710567Y-150912203D01*
X92733257Y-150857425D01*
X92733258Y-150857423D01*
X92766198Y-150808124D01*
X92808124Y-150766198D01*
X92857423Y-150733258D01*
X92857425Y-150733257D01*
X92912203Y-150710567D01*
X92970353Y-150699000D01*
X93029647Y-150699000D01*
X93087797Y-150710567D01*
G37*
G36*
X77087797Y-150710567D02*
G01*
X77142575Y-150733257D01*
X77142577Y-150733258D01*
X77191876Y-150766198D01*
X77233802Y-150808124D01*
X77266742Y-150857423D01*
X77266743Y-150857425D01*
X77289433Y-150912203D01*
X77301000Y-150970353D01*
X77301000Y-151029647D01*
X77289433Y-151087797D01*
X77266743Y-151142575D01*
X77266742Y-151142577D01*
X77233802Y-151191876D01*
X77191876Y-151233802D01*
X77142577Y-151266742D01*
X77142576Y-151266743D01*
X77142575Y-151266743D01*
X77087797Y-151289433D01*
X77029647Y-151301000D01*
X76970353Y-151301000D01*
X76912203Y-151289433D01*
X76857425Y-151266743D01*
X76857424Y-151266743D01*
X76857423Y-151266742D01*
X76808124Y-151233802D01*
X76766198Y-151191876D01*
X76733258Y-151142577D01*
X76733257Y-151142575D01*
X76710567Y-151087797D01*
X76699000Y-151029647D01*
X76699000Y-150970353D01*
X76710567Y-150912203D01*
X76733257Y-150857425D01*
X76733258Y-150857423D01*
X76766198Y-150808124D01*
X76808124Y-150766198D01*
X76857423Y-150733258D01*
X76857425Y-150733257D01*
X76912203Y-150710567D01*
X76970353Y-150699000D01*
X77029647Y-150699000D01*
X77087797Y-150710567D01*
G37*
G36*
X63087797Y-150710567D02*
G01*
X63142575Y-150733257D01*
X63142577Y-150733258D01*
X63191876Y-150766198D01*
X63233802Y-150808124D01*
X63266742Y-150857423D01*
X63266743Y-150857425D01*
X63289433Y-150912203D01*
X63301000Y-150970353D01*
X63301000Y-151029647D01*
X63289433Y-151087797D01*
X63266743Y-151142575D01*
X63266742Y-151142577D01*
X63233802Y-151191876D01*
X63191876Y-151233802D01*
X63142577Y-151266742D01*
X63142576Y-151266743D01*
X63142575Y-151266743D01*
X63087797Y-151289433D01*
X63029647Y-151301000D01*
X62970353Y-151301000D01*
X62912203Y-151289433D01*
X62857425Y-151266743D01*
X62857424Y-151266743D01*
X62857423Y-151266742D01*
X62808124Y-151233802D01*
X62766198Y-151191876D01*
X62733258Y-151142577D01*
X62733257Y-151142575D01*
X62710567Y-151087797D01*
X62699000Y-151029647D01*
X62699000Y-150970353D01*
X62710567Y-150912203D01*
X62733257Y-150857425D01*
X62733258Y-150857423D01*
X62766198Y-150808124D01*
X62808124Y-150766198D01*
X62857423Y-150733258D01*
X62857425Y-150733257D01*
X62912203Y-150710567D01*
X62970353Y-150699000D01*
X63029647Y-150699000D01*
X63087797Y-150710567D01*
G37*
G36*
X96138835Y-149289432D02*
G01*
X96211183Y-149303823D01*
X96265759Y-149326429D01*
X96342942Y-149358399D01*
X96461522Y-149437632D01*
X96562368Y-149538478D01*
X96641601Y-149657058D01*
X96663765Y-149710567D01*
X96696177Y-149788817D01*
X96724000Y-149928692D01*
X96724000Y-150071308D01*
X96700018Y-150191875D01*
X96696177Y-150211182D01*
X96641601Y-150342942D01*
X96562368Y-150461522D01*
X96461522Y-150562368D01*
X96342942Y-150641601D01*
X96265759Y-150673571D01*
X96211183Y-150696177D01*
X96141246Y-150710088D01*
X96071309Y-150724000D01*
X95928691Y-150724000D01*
X95858754Y-150710088D01*
X95788817Y-150696177D01*
X95734241Y-150673571D01*
X95657058Y-150641601D01*
X95538478Y-150562368D01*
X95437632Y-150461522D01*
X95358399Y-150342942D01*
X95303823Y-150211182D01*
X95299983Y-150191875D01*
X95276000Y-150071308D01*
X95276000Y-149928692D01*
X95303823Y-149788817D01*
X95336235Y-149710567D01*
X95358399Y-149657058D01*
X95437632Y-149538478D01*
X95538478Y-149437632D01*
X95657058Y-149358399D01*
X95734241Y-149326429D01*
X95788817Y-149303823D01*
X95861165Y-149289432D01*
X95928691Y-149276000D01*
X96071309Y-149276000D01*
X96138835Y-149289432D01*
G37*
G36*
X60138835Y-149289432D02*
G01*
X60211183Y-149303823D01*
X60265759Y-149326429D01*
X60342942Y-149358399D01*
X60461522Y-149437632D01*
X60562368Y-149538478D01*
X60641601Y-149657058D01*
X60663765Y-149710567D01*
X60696177Y-149788817D01*
X60724000Y-149928692D01*
X60724000Y-150071308D01*
X60700018Y-150191875D01*
X60696177Y-150211182D01*
X60641601Y-150342942D01*
X60562368Y-150461522D01*
X60461522Y-150562368D01*
X60342942Y-150641601D01*
X60265759Y-150673571D01*
X60211183Y-150696177D01*
X60141246Y-150710088D01*
X60071309Y-150724000D01*
X59928691Y-150724000D01*
X59858754Y-150710088D01*
X59788817Y-150696177D01*
X59734241Y-150673571D01*
X59657058Y-150641601D01*
X59538478Y-150562368D01*
X59437632Y-150461522D01*
X59358399Y-150342942D01*
X59303823Y-150211182D01*
X59299983Y-150191875D01*
X59276000Y-150071308D01*
X59276000Y-149928692D01*
X59303823Y-149788817D01*
X59336235Y-149710567D01*
X59358399Y-149657058D01*
X59437632Y-149538478D01*
X59538478Y-149437632D01*
X59657058Y-149358399D01*
X59734241Y-149326429D01*
X59788817Y-149303823D01*
X59861165Y-149289432D01*
X59928691Y-149276000D01*
X60071309Y-149276000D01*
X60138835Y-149289432D01*
G37*
G36*
X93087797Y-149710567D02*
G01*
X93142575Y-149733257D01*
X93142577Y-149733258D01*
X93191876Y-149766198D01*
X93233802Y-149808124D01*
X93266742Y-149857423D01*
X93266743Y-149857425D01*
X93289433Y-149912203D01*
X93301000Y-149970353D01*
X93301000Y-150029647D01*
X93289433Y-150087797D01*
X93266743Y-150142575D01*
X93266742Y-150142577D01*
X93233802Y-150191876D01*
X93191876Y-150233802D01*
X93142577Y-150266742D01*
X93142576Y-150266743D01*
X93142575Y-150266743D01*
X93087797Y-150289433D01*
X93029647Y-150301000D01*
X92970353Y-150301000D01*
X92912203Y-150289433D01*
X92857425Y-150266743D01*
X92857424Y-150266743D01*
X92857423Y-150266742D01*
X92808124Y-150233802D01*
X92766198Y-150191876D01*
X92733258Y-150142577D01*
X92733257Y-150142575D01*
X92710567Y-150087797D01*
X92699000Y-150029647D01*
X92699000Y-149970353D01*
X92710567Y-149912203D01*
X92733257Y-149857425D01*
X92733258Y-149857423D01*
X92766198Y-149808124D01*
X92808124Y-149766198D01*
X92857423Y-149733258D01*
X92857425Y-149733257D01*
X92912203Y-149710567D01*
X92970353Y-149699000D01*
X93029647Y-149699000D01*
X93087797Y-149710567D01*
G37*
G36*
X77087797Y-149710567D02*
G01*
X77142575Y-149733257D01*
X77142577Y-149733258D01*
X77191876Y-149766198D01*
X77233802Y-149808124D01*
X77266742Y-149857423D01*
X77266743Y-149857425D01*
X77289433Y-149912203D01*
X77301000Y-149970353D01*
X77301000Y-150029647D01*
X77289433Y-150087797D01*
X77266743Y-150142575D01*
X77266742Y-150142577D01*
X77233802Y-150191876D01*
X77191876Y-150233802D01*
X77142577Y-150266742D01*
X77142576Y-150266743D01*
X77142575Y-150266743D01*
X77087797Y-150289433D01*
X77029647Y-150301000D01*
X76970353Y-150301000D01*
X76912203Y-150289433D01*
X76857425Y-150266743D01*
X76857424Y-150266743D01*
X76857423Y-150266742D01*
X76808124Y-150233802D01*
X76766198Y-150191876D01*
X76733258Y-150142577D01*
X76733257Y-150142575D01*
X76710567Y-150087797D01*
X76699000Y-150029647D01*
X76699000Y-149970353D01*
X76710567Y-149912203D01*
X76733257Y-149857425D01*
X76733258Y-149857423D01*
X76766198Y-149808124D01*
X76808124Y-149766198D01*
X76857423Y-149733258D01*
X76857425Y-149733257D01*
X76912203Y-149710567D01*
X76970353Y-149699000D01*
X77029647Y-149699000D01*
X77087797Y-149710567D01*
G37*
G36*
X63087797Y-149710567D02*
G01*
X63142575Y-149733257D01*
X63142577Y-149733258D01*
X63191876Y-149766198D01*
X63233802Y-149808124D01*
X63266742Y-149857423D01*
X63266743Y-149857425D01*
X63289433Y-149912203D01*
X63301000Y-149970353D01*
X63301000Y-150029647D01*
X63289433Y-150087797D01*
X63266743Y-150142575D01*
X63266742Y-150142577D01*
X63233802Y-150191876D01*
X63191876Y-150233802D01*
X63142577Y-150266742D01*
X63142576Y-150266743D01*
X63142575Y-150266743D01*
X63087797Y-150289433D01*
X63029647Y-150301000D01*
X62970353Y-150301000D01*
X62912203Y-150289433D01*
X62857425Y-150266743D01*
X62857424Y-150266743D01*
X62857423Y-150266742D01*
X62808124Y-150233802D01*
X62766198Y-150191876D01*
X62733258Y-150142577D01*
X62733257Y-150142575D01*
X62710567Y-150087797D01*
X62699000Y-150029647D01*
X62699000Y-149970353D01*
X62710567Y-149912203D01*
X62733257Y-149857425D01*
X62733258Y-149857423D01*
X62766198Y-149808124D01*
X62808124Y-149766198D01*
X62857423Y-149733258D01*
X62857425Y-149733257D01*
X62912203Y-149710567D01*
X62970353Y-149699000D01*
X63029647Y-149699000D01*
X63087797Y-149710567D01*
G37*
G36*
X93087797Y-148710567D02*
G01*
X93142575Y-148733257D01*
X93142577Y-148733258D01*
X93191876Y-148766198D01*
X93233802Y-148808124D01*
X93266742Y-148857423D01*
X93266743Y-148857425D01*
X93289433Y-148912203D01*
X93301000Y-148970353D01*
X93301000Y-149029647D01*
X93289433Y-149087797D01*
X93266743Y-149142575D01*
X93266742Y-149142577D01*
X93233802Y-149191876D01*
X93191876Y-149233802D01*
X93142577Y-149266742D01*
X93142576Y-149266743D01*
X93142575Y-149266743D01*
X93087797Y-149289433D01*
X93029647Y-149301000D01*
X92970353Y-149301000D01*
X92912203Y-149289433D01*
X92857425Y-149266743D01*
X92857424Y-149266743D01*
X92857423Y-149266742D01*
X92808124Y-149233802D01*
X92766198Y-149191876D01*
X92733258Y-149142577D01*
X92733257Y-149142575D01*
X92710567Y-149087797D01*
X92699000Y-149029647D01*
X92699000Y-148970353D01*
X92710567Y-148912203D01*
X92733257Y-148857425D01*
X92733258Y-148857423D01*
X92766198Y-148808124D01*
X92808124Y-148766198D01*
X92857423Y-148733258D01*
X92857425Y-148733257D01*
X92912203Y-148710567D01*
X92970353Y-148699000D01*
X93029647Y-148699000D01*
X93087797Y-148710567D01*
G37*
G36*
X77087797Y-148710567D02*
G01*
X77142575Y-148733257D01*
X77142577Y-148733258D01*
X77191876Y-148766198D01*
X77233802Y-148808124D01*
X77266742Y-148857423D01*
X77266743Y-148857425D01*
X77289433Y-148912203D01*
X77301000Y-148970353D01*
X77301000Y-149029647D01*
X77289433Y-149087797D01*
X77266743Y-149142575D01*
X77266742Y-149142577D01*
X77233802Y-149191876D01*
X77191876Y-149233802D01*
X77142577Y-149266742D01*
X77142576Y-149266743D01*
X77142575Y-149266743D01*
X77087797Y-149289433D01*
X77029647Y-149301000D01*
X76970353Y-149301000D01*
X76912203Y-149289433D01*
X76857425Y-149266743D01*
X76857424Y-149266743D01*
X76857423Y-149266742D01*
X76808124Y-149233802D01*
X76766198Y-149191876D01*
X76733258Y-149142577D01*
X76733257Y-149142575D01*
X76710567Y-149087797D01*
X76699000Y-149029647D01*
X76699000Y-148970353D01*
X76710567Y-148912203D01*
X76733257Y-148857425D01*
X76733258Y-148857423D01*
X76766198Y-148808124D01*
X76808124Y-148766198D01*
X76857423Y-148733258D01*
X76857425Y-148733257D01*
X76912203Y-148710567D01*
X76970353Y-148699000D01*
X77029647Y-148699000D01*
X77087797Y-148710567D01*
G37*
G36*
X63087797Y-148710567D02*
G01*
X63142575Y-148733257D01*
X63142577Y-148733258D01*
X63191876Y-148766198D01*
X63233802Y-148808124D01*
X63266742Y-148857423D01*
X63266743Y-148857425D01*
X63289433Y-148912203D01*
X63301000Y-148970353D01*
X63301000Y-149029647D01*
X63289433Y-149087797D01*
X63266743Y-149142575D01*
X63266742Y-149142577D01*
X63233802Y-149191876D01*
X63191876Y-149233802D01*
X63142577Y-149266742D01*
X63142576Y-149266743D01*
X63142575Y-149266743D01*
X63087797Y-149289433D01*
X63029647Y-149301000D01*
X62970353Y-149301000D01*
X62912203Y-149289433D01*
X62857425Y-149266743D01*
X62857424Y-149266743D01*
X62857423Y-149266742D01*
X62808124Y-149233802D01*
X62766198Y-149191876D01*
X62733258Y-149142577D01*
X62733257Y-149142575D01*
X62710567Y-149087797D01*
X62699000Y-149029647D01*
X62699000Y-148970353D01*
X62710567Y-148912203D01*
X62733257Y-148857425D01*
X62733258Y-148857423D01*
X62766198Y-148808124D01*
X62808124Y-148766198D01*
X62857423Y-148733258D01*
X62857425Y-148733257D01*
X62912203Y-148710567D01*
X62970353Y-148699000D01*
X63029647Y-148699000D01*
X63087797Y-148710567D01*
G37*
G36*
X74922948Y-116855722D02*
G01*
X75186831Y-116965026D01*
X75186833Y-116965027D01*
X75424321Y-117123711D01*
X75626289Y-117325679D01*
X75784973Y-117563167D01*
X75784974Y-117563169D01*
X75894278Y-117827052D01*
X75950000Y-118107186D01*
X75950000Y-118392814D01*
X75894278Y-118672948D01*
X75784974Y-118936831D01*
X75784973Y-118936833D01*
X75626289Y-119174321D01*
X75424321Y-119376289D01*
X75186833Y-119534973D01*
X75186832Y-119534974D01*
X75186831Y-119534974D01*
X74922948Y-119644278D01*
X74642814Y-119700000D01*
X74357186Y-119700000D01*
X74077052Y-119644278D01*
X73813169Y-119534974D01*
X73813168Y-119534974D01*
X73813167Y-119534973D01*
X73575679Y-119376289D01*
X73373711Y-119174321D01*
X73215027Y-118936833D01*
X73215026Y-118936831D01*
X73105722Y-118672948D01*
X73050000Y-118392814D01*
X73050000Y-118107186D01*
X73105722Y-117827052D01*
X73215026Y-117563169D01*
X73215027Y-117563167D01*
X73373711Y-117325679D01*
X73575679Y-117123711D01*
X73813167Y-116965027D01*
X73813169Y-116965026D01*
X74077052Y-116855722D01*
X74357186Y-116800000D01*
X74642814Y-116800000D01*
X74922948Y-116855722D01*
G37*
G36*
X90922948Y-116855722D02*
G01*
X91186831Y-116965026D01*
X91186833Y-116965027D01*
X91424321Y-117123711D01*
X91626289Y-117325679D01*
X91784973Y-117563167D01*
X91784974Y-117563169D01*
X91894278Y-117827052D01*
X91950000Y-118107186D01*
X91950000Y-118392814D01*
X91894278Y-118672948D01*
X91784974Y-118936831D01*
X91784973Y-118936833D01*
X91626289Y-119174321D01*
X91424321Y-119376289D01*
X91186833Y-119534973D01*
X91186832Y-119534974D01*
X91186831Y-119534974D01*
X90922948Y-119644278D01*
X90642814Y-119700000D01*
X90357186Y-119700000D01*
X90077052Y-119644278D01*
X89813169Y-119534974D01*
X89813168Y-119534974D01*
X89813167Y-119534973D01*
X89575679Y-119376289D01*
X89373711Y-119174321D01*
X89215027Y-118936833D01*
X89215026Y-118936831D01*
X89105722Y-118672948D01*
X89050000Y-118392814D01*
X89050000Y-118107186D01*
X89105722Y-117827052D01*
X89215026Y-117563169D01*
X89215027Y-117563167D01*
X89373711Y-117325679D01*
X89575679Y-117123711D01*
X89813167Y-116965027D01*
X89813169Y-116965026D01*
X90077052Y-116855722D01*
X90357186Y-116800000D01*
X90642814Y-116800000D01*
X90922948Y-116855722D01*
G37*
G36*
X71979434Y-98403686D02*
G01*
X72019284Y-98415774D01*
X72055999Y-98435399D01*
X72088186Y-98461814D01*
X72114601Y-98494001D01*
X72134226Y-98530716D01*
X72146314Y-98570566D01*
X72151000Y-98618141D01*
X72151000Y-99581859D01*
X72146314Y-99629434D01*
X72134226Y-99669284D01*
X72114601Y-99705999D01*
X72088186Y-99738186D01*
X72055999Y-99764601D01*
X72019284Y-99784226D01*
X71979434Y-99796314D01*
X71931859Y-99801000D01*
X71268141Y-99801000D01*
X71220566Y-99796314D01*
X71180716Y-99784226D01*
X71144001Y-99764601D01*
X71111814Y-99738186D01*
X71085399Y-99705999D01*
X71065774Y-99669284D01*
X71053686Y-99629434D01*
X71049000Y-99581859D01*
X71049000Y-98618141D01*
X71053686Y-98570566D01*
X71065774Y-98530716D01*
X71085399Y-98494001D01*
X71111814Y-98461814D01*
X71144001Y-98435399D01*
X71180716Y-98415774D01*
X71220566Y-98403686D01*
X71268141Y-98399000D01*
X71931859Y-98399000D01*
X71979434Y-98403686D01*
G37*
G36*
X70379434Y-98403686D02*
G01*
X70419284Y-98415774D01*
X70455999Y-98435399D01*
X70488186Y-98461814D01*
X70514601Y-98494001D01*
X70534226Y-98530716D01*
X70546314Y-98570566D01*
X70551000Y-98618141D01*
X70551000Y-99581859D01*
X70546314Y-99629434D01*
X70534226Y-99669284D01*
X70514601Y-99705999D01*
X70488186Y-99738186D01*
X70455999Y-99764601D01*
X70419284Y-99784226D01*
X70379434Y-99796314D01*
X70331859Y-99801000D01*
X69668141Y-99801000D01*
X69620566Y-99796314D01*
X69580716Y-99784226D01*
X69544001Y-99764601D01*
X69511814Y-99738186D01*
X69485399Y-99705999D01*
X69465774Y-99669284D01*
X69453686Y-99629434D01*
X69449000Y-99581859D01*
X69449000Y-98618141D01*
X69453686Y-98570566D01*
X69465774Y-98530716D01*
X69485399Y-98494001D01*
X69511814Y-98461814D01*
X69544001Y-98435399D01*
X69580716Y-98415774D01*
X69620566Y-98403686D01*
X69668141Y-98399000D01*
X70331859Y-98399000D01*
X70379434Y-98403686D01*
G37*
G36*
X73579434Y-98403686D02*
G01*
X73619284Y-98415774D01*
X73655999Y-98435399D01*
X73688186Y-98461814D01*
X73714601Y-98494001D01*
X73734226Y-98530716D01*
X73746314Y-98570566D01*
X73751000Y-98618141D01*
X73751000Y-99581859D01*
X73746314Y-99629434D01*
X73734226Y-99669284D01*
X73714601Y-99705999D01*
X73688186Y-99738186D01*
X73655999Y-99764601D01*
X73619284Y-99784226D01*
X73579434Y-99796314D01*
X73531859Y-99801000D01*
X72868141Y-99801000D01*
X72820566Y-99796314D01*
X72780716Y-99784226D01*
X72744001Y-99764601D01*
X72711814Y-99738186D01*
X72685399Y-99705999D01*
X72665774Y-99669284D01*
X72653686Y-99629434D01*
X72649000Y-99581859D01*
X72649000Y-98618141D01*
X72653686Y-98570566D01*
X72665774Y-98530716D01*
X72685399Y-98494001D01*
X72711814Y-98461814D01*
X72744001Y-98435399D01*
X72780716Y-98415774D01*
X72820566Y-98403686D01*
X72868141Y-98399000D01*
X73531859Y-98399000D01*
X73579434Y-98403686D01*
G37*
G36*
X89579434Y-98403686D02*
G01*
X89619284Y-98415774D01*
X89655999Y-98435399D01*
X89688186Y-98461814D01*
X89714601Y-98494001D01*
X89734226Y-98530716D01*
X89746314Y-98570566D01*
X89751000Y-98618141D01*
X89751000Y-99581859D01*
X89746314Y-99629434D01*
X89734226Y-99669284D01*
X89714601Y-99705999D01*
X89688186Y-99738186D01*
X89655999Y-99764601D01*
X89619284Y-99784226D01*
X89579434Y-99796314D01*
X89531859Y-99801000D01*
X88868141Y-99801000D01*
X88820566Y-99796314D01*
X88780716Y-99784226D01*
X88744001Y-99764601D01*
X88711814Y-99738186D01*
X88685399Y-99705999D01*
X88665774Y-99669284D01*
X88653686Y-99629434D01*
X88649000Y-99581859D01*
X88649000Y-98618141D01*
X88653686Y-98570566D01*
X88665774Y-98530716D01*
X88685399Y-98494001D01*
X88711814Y-98461814D01*
X88744001Y-98435399D01*
X88780716Y-98415774D01*
X88820566Y-98403686D01*
X88868141Y-98399000D01*
X89531859Y-98399000D01*
X89579434Y-98403686D01*
G37*
G36*
X86379434Y-98403686D02*
G01*
X86419284Y-98415774D01*
X86455999Y-98435399D01*
X86488186Y-98461814D01*
X86514601Y-98494001D01*
X86534226Y-98530716D01*
X86546314Y-98570566D01*
X86551000Y-98618141D01*
X86551000Y-99581859D01*
X86546314Y-99629434D01*
X86534226Y-99669284D01*
X86514601Y-99705999D01*
X86488186Y-99738186D01*
X86455999Y-99764601D01*
X86419284Y-99784226D01*
X86379434Y-99796314D01*
X86331859Y-99801000D01*
X85668141Y-99801000D01*
X85620566Y-99796314D01*
X85580716Y-99784226D01*
X85544001Y-99764601D01*
X85511814Y-99738186D01*
X85485399Y-99705999D01*
X85465774Y-99669284D01*
X85453686Y-99629434D01*
X85449000Y-99581859D01*
X85449000Y-98618141D01*
X85453686Y-98570566D01*
X85465774Y-98530716D01*
X85485399Y-98494001D01*
X85511814Y-98461814D01*
X85544001Y-98435399D01*
X85580716Y-98415774D01*
X85620566Y-98403686D01*
X85668141Y-98399000D01*
X86331859Y-98399000D01*
X86379434Y-98403686D01*
G37*
G36*
X87979434Y-98403686D02*
G01*
X88019284Y-98415774D01*
X88055999Y-98435399D01*
X88088186Y-98461814D01*
X88114601Y-98494001D01*
X88134226Y-98530716D01*
X88146314Y-98570566D01*
X88151000Y-98618141D01*
X88151000Y-99581859D01*
X88146314Y-99629434D01*
X88134226Y-99669284D01*
X88114601Y-99705999D01*
X88088186Y-99738186D01*
X88055999Y-99764601D01*
X88019284Y-99784226D01*
X87979434Y-99796314D01*
X87931859Y-99801000D01*
X87268141Y-99801000D01*
X87220566Y-99796314D01*
X87180716Y-99784226D01*
X87144001Y-99764601D01*
X87111814Y-99738186D01*
X87085399Y-99705999D01*
X87065774Y-99669284D01*
X87053686Y-99629434D01*
X87049000Y-99581859D01*
X87049000Y-98618141D01*
X87053686Y-98570566D01*
X87065774Y-98530716D01*
X87085399Y-98494001D01*
X87111814Y-98461814D01*
X87144001Y-98435399D01*
X87180716Y-98415774D01*
X87220566Y-98403686D01*
X87268141Y-98399000D01*
X87931859Y-98399000D01*
X87979434Y-98403686D01*
G37*
G36*
X91179434Y-98403686D02*
G01*
X91219284Y-98415774D01*
X91255999Y-98435399D01*
X91288186Y-98461814D01*
X91314601Y-98494001D01*
X91334226Y-98530716D01*
X91346314Y-98570566D01*
X91351000Y-98618141D01*
X91351000Y-99581859D01*
X91346314Y-99629434D01*
X91334226Y-99669284D01*
X91314601Y-99705999D01*
X91288186Y-99738186D01*
X91255999Y-99764601D01*
X91219284Y-99784226D01*
X91179434Y-99796314D01*
X91131859Y-99801000D01*
X90468141Y-99801000D01*
X90420566Y-99796314D01*
X90380716Y-99784226D01*
X90344001Y-99764601D01*
X90311814Y-99738186D01*
X90285399Y-99705999D01*
X90265774Y-99669284D01*
X90253686Y-99629434D01*
X90249000Y-99581859D01*
X90249000Y-98618141D01*
X90253686Y-98570566D01*
X90265774Y-98530716D01*
X90285399Y-98494001D01*
X90311814Y-98461814D01*
X90344001Y-98435399D01*
X90380716Y-98415774D01*
X90420566Y-98403686D01*
X90468141Y-98399000D01*
X91131859Y-98399000D01*
X91179434Y-98403686D01*
G37*
G36*
X75179434Y-98403686D02*
G01*
X75219284Y-98415774D01*
X75255999Y-98435399D01*
X75288186Y-98461814D01*
X75314601Y-98494001D01*
X75334226Y-98530716D01*
X75346314Y-98570566D01*
X75351000Y-98618141D01*
X75351000Y-99581859D01*
X75346314Y-99629434D01*
X75334226Y-99669284D01*
X75314601Y-99705999D01*
X75288186Y-99738186D01*
X75255999Y-99764601D01*
X75219284Y-99784226D01*
X75179434Y-99796314D01*
X75131859Y-99801000D01*
X74468141Y-99801000D01*
X74420566Y-99796314D01*
X74380716Y-99784226D01*
X74344001Y-99764601D01*
X74311814Y-99738186D01*
X74285399Y-99705999D01*
X74265774Y-99669284D01*
X74253686Y-99629434D01*
X74249000Y-99581859D01*
X74249000Y-98618141D01*
X74253686Y-98570566D01*
X74265774Y-98530716D01*
X74285399Y-98494001D01*
X74311814Y-98461814D01*
X74344001Y-98435399D01*
X74380716Y-98415774D01*
X74420566Y-98403686D01*
X74468141Y-98399000D01*
X75131859Y-98399000D01*
X75179434Y-98403686D01*
G37*
G36*
X68126111Y-97754242D02*
G01*
X68171395Y-97767979D01*
X68213121Y-97790282D01*
X68249700Y-97820300D01*
X68279718Y-97856879D01*
X68302021Y-97898605D01*
X68315758Y-97943889D01*
X68321000Y-97997116D01*
X68321000Y-99202884D01*
X68315758Y-99256111D01*
X68302021Y-99301395D01*
X68279718Y-99343121D01*
X68249700Y-99379700D01*
X68213121Y-99409718D01*
X68171395Y-99432021D01*
X68126111Y-99445758D01*
X68072884Y-99451000D01*
X66867116Y-99451000D01*
X66813889Y-99445758D01*
X66768605Y-99432021D01*
X66726879Y-99409718D01*
X66690300Y-99379700D01*
X66660282Y-99343121D01*
X66637979Y-99301395D01*
X66624242Y-99256111D01*
X66619000Y-99202884D01*
X66619000Y-97997116D01*
X66624242Y-97943889D01*
X66637979Y-97898605D01*
X66660282Y-97856879D01*
X66690300Y-97820300D01*
X66726879Y-97790282D01*
X66768605Y-97767979D01*
X66813889Y-97754242D01*
X66867116Y-97749000D01*
X68072884Y-97749000D01*
X68126111Y-97754242D01*
G37*
G36*
X65178228Y-97781703D02*
G01*
X65333100Y-97845853D01*
X65472481Y-97938985D01*
X65591015Y-98057519D01*
X65684147Y-98196900D01*
X65748297Y-98351772D01*
X65781000Y-98516184D01*
X65781000Y-98683816D01*
X65748297Y-98848228D01*
X65684147Y-99003100D01*
X65591015Y-99142481D01*
X65472481Y-99261015D01*
X65333100Y-99354147D01*
X65178228Y-99418297D01*
X65013816Y-99451000D01*
X64846184Y-99451000D01*
X64681772Y-99418297D01*
X64526900Y-99354147D01*
X64387519Y-99261015D01*
X64268985Y-99142481D01*
X64175853Y-99003100D01*
X64111703Y-98848228D01*
X64079000Y-98683816D01*
X64079000Y-98516184D01*
X64111703Y-98351772D01*
X64175853Y-98196900D01*
X64268985Y-98057519D01*
X64387519Y-97938985D01*
X64526900Y-97845853D01*
X64681772Y-97781703D01*
X64846184Y-97749000D01*
X65013816Y-97749000D01*
X65178228Y-97781703D01*
G37*
G36*
X81178228Y-97781703D02*
G01*
X81333100Y-97845853D01*
X81472481Y-97938985D01*
X81591015Y-98057519D01*
X81684147Y-98196900D01*
X81748297Y-98351772D01*
X81781000Y-98516184D01*
X81781000Y-98683816D01*
X81748297Y-98848228D01*
X81684147Y-99003100D01*
X81591015Y-99142481D01*
X81472481Y-99261015D01*
X81333100Y-99354147D01*
X81178228Y-99418297D01*
X81013816Y-99451000D01*
X80846184Y-99451000D01*
X80681772Y-99418297D01*
X80526900Y-99354147D01*
X80387519Y-99261015D01*
X80268985Y-99142481D01*
X80175853Y-99003100D01*
X80111703Y-98848228D01*
X80079000Y-98683816D01*
X80079000Y-98516184D01*
X80111703Y-98351772D01*
X80175853Y-98196900D01*
X80268985Y-98057519D01*
X80387519Y-97938985D01*
X80526900Y-97845853D01*
X80681772Y-97781703D01*
X80846184Y-97749000D01*
X81013816Y-97749000D01*
X81178228Y-97781703D01*
G37*
G36*
X84126111Y-97754242D02*
G01*
X84171395Y-97767979D01*
X84213121Y-97790282D01*
X84249700Y-97820300D01*
X84279718Y-97856879D01*
X84302021Y-97898605D01*
X84315758Y-97943889D01*
X84321000Y-97997116D01*
X84321000Y-99202884D01*
X84315758Y-99256111D01*
X84302021Y-99301395D01*
X84279718Y-99343121D01*
X84249700Y-99379700D01*
X84213121Y-99409718D01*
X84171395Y-99432021D01*
X84126111Y-99445758D01*
X84072884Y-99451000D01*
X82867116Y-99451000D01*
X82813889Y-99445758D01*
X82768605Y-99432021D01*
X82726879Y-99409718D01*
X82690300Y-99379700D01*
X82660282Y-99343121D01*
X82637979Y-99301395D01*
X82624242Y-99256111D01*
X82619000Y-99202884D01*
X82619000Y-97997116D01*
X82624242Y-97943889D01*
X82637979Y-97898605D01*
X82660282Y-97856879D01*
X82690300Y-97820300D01*
X82726879Y-97790282D01*
X82768605Y-97767979D01*
X82813889Y-97754242D01*
X82867116Y-97749000D01*
X84072884Y-97749000D01*
X84126111Y-97754242D01*
G37*
G36*
X75179434Y-96203686D02*
G01*
X75219284Y-96215774D01*
X75255999Y-96235399D01*
X75288186Y-96261814D01*
X75314601Y-96294001D01*
X75334226Y-96330716D01*
X75346314Y-96370566D01*
X75351000Y-96418141D01*
X75351000Y-97381859D01*
X75346314Y-97429434D01*
X75334226Y-97469284D01*
X75314601Y-97505999D01*
X75288186Y-97538186D01*
X75255999Y-97564601D01*
X75219284Y-97584226D01*
X75179434Y-97596314D01*
X75131859Y-97601000D01*
X74468141Y-97601000D01*
X74420566Y-97596314D01*
X74380716Y-97584226D01*
X74344001Y-97564601D01*
X74311814Y-97538186D01*
X74285399Y-97505999D01*
X74265774Y-97469284D01*
X74253686Y-97429434D01*
X74249000Y-97381859D01*
X74249000Y-96418141D01*
X74253686Y-96370566D01*
X74265774Y-96330716D01*
X74285399Y-96294001D01*
X74311814Y-96261814D01*
X74344001Y-96235399D01*
X74380716Y-96215774D01*
X74420566Y-96203686D01*
X74468141Y-96199000D01*
X75131859Y-96199000D01*
X75179434Y-96203686D01*
G37*
G36*
X89579434Y-96203686D02*
G01*
X89619284Y-96215774D01*
X89655999Y-96235399D01*
X89688186Y-96261814D01*
X89714601Y-96294001D01*
X89734226Y-96330716D01*
X89746314Y-96370566D01*
X89751000Y-96418141D01*
X89751000Y-97381859D01*
X89746314Y-97429434D01*
X89734226Y-97469284D01*
X89714601Y-97505999D01*
X89688186Y-97538186D01*
X89655999Y-97564601D01*
X89619284Y-97584226D01*
X89579434Y-97596314D01*
X89531859Y-97601000D01*
X88868141Y-97601000D01*
X88820566Y-97596314D01*
X88780716Y-97584226D01*
X88744001Y-97564601D01*
X88711814Y-97538186D01*
X88685399Y-97505999D01*
X88665774Y-97469284D01*
X88653686Y-97429434D01*
X88649000Y-97381859D01*
X88649000Y-96418141D01*
X88653686Y-96370566D01*
X88665774Y-96330716D01*
X88685399Y-96294001D01*
X88711814Y-96261814D01*
X88744001Y-96235399D01*
X88780716Y-96215774D01*
X88820566Y-96203686D01*
X88868141Y-96199000D01*
X89531859Y-96199000D01*
X89579434Y-96203686D01*
G37*
G36*
X91179434Y-96203686D02*
G01*
X91219284Y-96215774D01*
X91255999Y-96235399D01*
X91288186Y-96261814D01*
X91314601Y-96294001D01*
X91334226Y-96330716D01*
X91346314Y-96370566D01*
X91351000Y-96418141D01*
X91351000Y-97381859D01*
X91346314Y-97429434D01*
X91334226Y-97469284D01*
X91314601Y-97505999D01*
X91288186Y-97538186D01*
X91255999Y-97564601D01*
X91219284Y-97584226D01*
X91179434Y-97596314D01*
X91131859Y-97601000D01*
X90468141Y-97601000D01*
X90420566Y-97596314D01*
X90380716Y-97584226D01*
X90344001Y-97564601D01*
X90311814Y-97538186D01*
X90285399Y-97505999D01*
X90265774Y-97469284D01*
X90253686Y-97429434D01*
X90249000Y-97381859D01*
X90249000Y-96418141D01*
X90253686Y-96370566D01*
X90265774Y-96330716D01*
X90285399Y-96294001D01*
X90311814Y-96261814D01*
X90344001Y-96235399D01*
X90380716Y-96215774D01*
X90420566Y-96203686D01*
X90468141Y-96199000D01*
X91131859Y-96199000D01*
X91179434Y-96203686D01*
G37*
G36*
X71979434Y-96203686D02*
G01*
X72019284Y-96215774D01*
X72055999Y-96235399D01*
X72088186Y-96261814D01*
X72114601Y-96294001D01*
X72134226Y-96330716D01*
X72146314Y-96370566D01*
X72151000Y-96418141D01*
X72151000Y-97381859D01*
X72146314Y-97429434D01*
X72134226Y-97469284D01*
X72114601Y-97505999D01*
X72088186Y-97538186D01*
X72055999Y-97564601D01*
X72019284Y-97584226D01*
X71979434Y-97596314D01*
X71931859Y-97601000D01*
X71268141Y-97601000D01*
X71220566Y-97596314D01*
X71180716Y-97584226D01*
X71144001Y-97564601D01*
X71111814Y-97538186D01*
X71085399Y-97505999D01*
X71065774Y-97469284D01*
X71053686Y-97429434D01*
X71049000Y-97381859D01*
X71049000Y-96418141D01*
X71053686Y-96370566D01*
X71065774Y-96330716D01*
X71085399Y-96294001D01*
X71111814Y-96261814D01*
X71144001Y-96235399D01*
X71180716Y-96215774D01*
X71220566Y-96203686D01*
X71268141Y-96199000D01*
X71931859Y-96199000D01*
X71979434Y-96203686D01*
G37*
G36*
X87979434Y-96203686D02*
G01*
X88019284Y-96215774D01*
X88055999Y-96235399D01*
X88088186Y-96261814D01*
X88114601Y-96294001D01*
X88134226Y-96330716D01*
X88146314Y-96370566D01*
X88151000Y-96418141D01*
X88151000Y-97381859D01*
X88146314Y-97429434D01*
X88134226Y-97469284D01*
X88114601Y-97505999D01*
X88088186Y-97538186D01*
X88055999Y-97564601D01*
X88019284Y-97584226D01*
X87979434Y-97596314D01*
X87931859Y-97601000D01*
X87268141Y-97601000D01*
X87220566Y-97596314D01*
X87180716Y-97584226D01*
X87144001Y-97564601D01*
X87111814Y-97538186D01*
X87085399Y-97505999D01*
X87065774Y-97469284D01*
X87053686Y-97429434D01*
X87049000Y-97381859D01*
X87049000Y-96418141D01*
X87053686Y-96370566D01*
X87065774Y-96330716D01*
X87085399Y-96294001D01*
X87111814Y-96261814D01*
X87144001Y-96235399D01*
X87180716Y-96215774D01*
X87220566Y-96203686D01*
X87268141Y-96199000D01*
X87931859Y-96199000D01*
X87979434Y-96203686D01*
G37*
G36*
X86379434Y-96203686D02*
G01*
X86419284Y-96215774D01*
X86455999Y-96235399D01*
X86488186Y-96261814D01*
X86514601Y-96294001D01*
X86534226Y-96330716D01*
X86546314Y-96370566D01*
X86551000Y-96418141D01*
X86551000Y-97381859D01*
X86546314Y-97429434D01*
X86534226Y-97469284D01*
X86514601Y-97505999D01*
X86488186Y-97538186D01*
X86455999Y-97564601D01*
X86419284Y-97584226D01*
X86379434Y-97596314D01*
X86331859Y-97601000D01*
X85668141Y-97601000D01*
X85620566Y-97596314D01*
X85580716Y-97584226D01*
X85544001Y-97564601D01*
X85511814Y-97538186D01*
X85485399Y-97505999D01*
X85465774Y-97469284D01*
X85453686Y-97429434D01*
X85449000Y-97381859D01*
X85449000Y-96418141D01*
X85453686Y-96370566D01*
X85465774Y-96330716D01*
X85485399Y-96294001D01*
X85511814Y-96261814D01*
X85544001Y-96235399D01*
X85580716Y-96215774D01*
X85620566Y-96203686D01*
X85668141Y-96199000D01*
X86331859Y-96199000D01*
X86379434Y-96203686D01*
G37*
G36*
X70379434Y-96203686D02*
G01*
X70419284Y-96215774D01*
X70455999Y-96235399D01*
X70488186Y-96261814D01*
X70514601Y-96294001D01*
X70534226Y-96330716D01*
X70546314Y-96370566D01*
X70551000Y-96418141D01*
X70551000Y-97381859D01*
X70546314Y-97429434D01*
X70534226Y-97469284D01*
X70514601Y-97505999D01*
X70488186Y-97538186D01*
X70455999Y-97564601D01*
X70419284Y-97584226D01*
X70379434Y-97596314D01*
X70331859Y-97601000D01*
X69668141Y-97601000D01*
X69620566Y-97596314D01*
X69580716Y-97584226D01*
X69544001Y-97564601D01*
X69511814Y-97538186D01*
X69485399Y-97505999D01*
X69465774Y-97469284D01*
X69453686Y-97429434D01*
X69449000Y-97381859D01*
X69449000Y-96418141D01*
X69453686Y-96370566D01*
X69465774Y-96330716D01*
X69485399Y-96294001D01*
X69511814Y-96261814D01*
X69544001Y-96235399D01*
X69580716Y-96215774D01*
X69620566Y-96203686D01*
X69668141Y-96199000D01*
X70331859Y-96199000D01*
X70379434Y-96203686D01*
G37*
G36*
X73579434Y-96203686D02*
G01*
X73619284Y-96215774D01*
X73655999Y-96235399D01*
X73688186Y-96261814D01*
X73714601Y-96294001D01*
X73734226Y-96330716D01*
X73746314Y-96370566D01*
X73751000Y-96418141D01*
X73751000Y-97381859D01*
X73746314Y-97429434D01*
X73734226Y-97469284D01*
X73714601Y-97505999D01*
X73688186Y-97538186D01*
X73655999Y-97564601D01*
X73619284Y-97584226D01*
X73579434Y-97596314D01*
X73531859Y-97601000D01*
X72868141Y-97601000D01*
X72820566Y-97596314D01*
X72780716Y-97584226D01*
X72744001Y-97564601D01*
X72711814Y-97538186D01*
X72685399Y-97505999D01*
X72665774Y-97469284D01*
X72653686Y-97429434D01*
X72649000Y-97381859D01*
X72649000Y-96418141D01*
X72653686Y-96370566D01*
X72665774Y-96330716D01*
X72685399Y-96294001D01*
X72711814Y-96261814D01*
X72744001Y-96235399D01*
X72780716Y-96215774D01*
X72820566Y-96203686D01*
X72868141Y-96199000D01*
X73531859Y-96199000D01*
X73579434Y-96203686D01*
G37*
G36*
X77087797Y-94210567D02*
G01*
X77142575Y-94233257D01*
X77142577Y-94233258D01*
X77191876Y-94266198D01*
X77233802Y-94308124D01*
X77266742Y-94357423D01*
X77266743Y-94357425D01*
X77289433Y-94412203D01*
X77301000Y-94470353D01*
X77301000Y-94529647D01*
X77289433Y-94587797D01*
X77266743Y-94642575D01*
X77266742Y-94642577D01*
X77233802Y-94691876D01*
X77191876Y-94733802D01*
X77142577Y-94766742D01*
X77142576Y-94766743D01*
X77142575Y-94766743D01*
X77087797Y-94789433D01*
X77029647Y-94801000D01*
X76970353Y-94801000D01*
X76912203Y-94789433D01*
X76857425Y-94766743D01*
X76857424Y-94766743D01*
X76857423Y-94766742D01*
X76808124Y-94733802D01*
X76766198Y-94691876D01*
X76733258Y-94642577D01*
X76733257Y-94642575D01*
X76710567Y-94587797D01*
X76699000Y-94529647D01*
X76699000Y-94470353D01*
X76710567Y-94412203D01*
X76733257Y-94357425D01*
X76733258Y-94357423D01*
X76766198Y-94308124D01*
X76808124Y-94266198D01*
X76857423Y-94233258D01*
X76857425Y-94233257D01*
X76912203Y-94210567D01*
X76970353Y-94199000D01*
X77029647Y-94199000D01*
X77087797Y-94210567D01*
G37*
G36*
X77087797Y-93210567D02*
G01*
X77142575Y-93233257D01*
X77142577Y-93233258D01*
X77191876Y-93266198D01*
X77233802Y-93308124D01*
X77266742Y-93357423D01*
X77266743Y-93357425D01*
X77289433Y-93412203D01*
X77301000Y-93470353D01*
X77301000Y-93529647D01*
X77289433Y-93587797D01*
X77266743Y-93642575D01*
X77266742Y-93642577D01*
X77233802Y-93691876D01*
X77191876Y-93733802D01*
X77142577Y-93766742D01*
X77142576Y-93766743D01*
X77142575Y-93766743D01*
X77087797Y-93789433D01*
X77029647Y-93801000D01*
X76970353Y-93801000D01*
X76912203Y-93789433D01*
X76857425Y-93766743D01*
X76857424Y-93766743D01*
X76857423Y-93766742D01*
X76808124Y-93733802D01*
X76766198Y-93691876D01*
X76733258Y-93642577D01*
X76733257Y-93642575D01*
X76710567Y-93587797D01*
X76699000Y-93529647D01*
X76699000Y-93470353D01*
X76710567Y-93412203D01*
X76733257Y-93357425D01*
X76733258Y-93357423D01*
X76766198Y-93308124D01*
X76808124Y-93266198D01*
X76857423Y-93233258D01*
X76857425Y-93233257D01*
X76912203Y-93210567D01*
X76970353Y-93199000D01*
X77029647Y-93199000D01*
X77087797Y-93210567D01*
G37*
G36*
X82059928Y-92461764D02*
G01*
X82081009Y-92468160D01*
X82100445Y-92478548D01*
X82117476Y-92492524D01*
X82131452Y-92509555D01*
X82141840Y-92528991D01*
X82148236Y-92550072D01*
X82151000Y-92578140D01*
X82151000Y-93041860D01*
X82148236Y-93069928D01*
X82141840Y-93091009D01*
X82131452Y-93110445D01*
X82117476Y-93127476D01*
X82100445Y-93141452D01*
X82081009Y-93151840D01*
X82059928Y-93158236D01*
X82031860Y-93161000D01*
X80218140Y-93161000D01*
X80190072Y-93158236D01*
X80168991Y-93151840D01*
X80149555Y-93141452D01*
X80132524Y-93127476D01*
X80118548Y-93110445D01*
X80108160Y-93091009D01*
X80101764Y-93069928D01*
X80099000Y-93041860D01*
X80099000Y-92578140D01*
X80101764Y-92550072D01*
X80108160Y-92528991D01*
X80118548Y-92509555D01*
X80132524Y-92492524D01*
X80149555Y-92478548D01*
X80168991Y-92468160D01*
X80190072Y-92461764D01*
X80218140Y-92459000D01*
X82031860Y-92459000D01*
X82059928Y-92461764D01*
G37*
G36*
X87009928Y-92461764D02*
G01*
X87031009Y-92468160D01*
X87050445Y-92478548D01*
X87067476Y-92492524D01*
X87081452Y-92509555D01*
X87091840Y-92528991D01*
X87098236Y-92550072D01*
X87101000Y-92578140D01*
X87101000Y-93041860D01*
X87098236Y-93069928D01*
X87091840Y-93091009D01*
X87081452Y-93110445D01*
X87067476Y-93127476D01*
X87050445Y-93141452D01*
X87031009Y-93151840D01*
X87009928Y-93158236D01*
X86981860Y-93161000D01*
X85168140Y-93161000D01*
X85140072Y-93158236D01*
X85118991Y-93151840D01*
X85099555Y-93141452D01*
X85082524Y-93127476D01*
X85068548Y-93110445D01*
X85058160Y-93091009D01*
X85051764Y-93069928D01*
X85049000Y-93041860D01*
X85049000Y-92578140D01*
X85051764Y-92550072D01*
X85058160Y-92528991D01*
X85068548Y-92509555D01*
X85082524Y-92492524D01*
X85099555Y-92478548D01*
X85118991Y-92468160D01*
X85140072Y-92461764D01*
X85168140Y-92459000D01*
X86981860Y-92459000D01*
X87009928Y-92461764D01*
G37*
G36*
X71009928Y-92461764D02*
G01*
X71031009Y-92468160D01*
X71050445Y-92478548D01*
X71067476Y-92492524D01*
X71081452Y-92509555D01*
X71091840Y-92528991D01*
X71098236Y-92550072D01*
X71101000Y-92578140D01*
X71101000Y-93041860D01*
X71098236Y-93069928D01*
X71091840Y-93091009D01*
X71081452Y-93110445D01*
X71067476Y-93127476D01*
X71050445Y-93141452D01*
X71031009Y-93151840D01*
X71009928Y-93158236D01*
X70981860Y-93161000D01*
X69168140Y-93161000D01*
X69140072Y-93158236D01*
X69118991Y-93151840D01*
X69099555Y-93141452D01*
X69082524Y-93127476D01*
X69068548Y-93110445D01*
X69058160Y-93091009D01*
X69051764Y-93069928D01*
X69049000Y-93041860D01*
X69049000Y-92578140D01*
X69051764Y-92550072D01*
X69058160Y-92528991D01*
X69068548Y-92509555D01*
X69082524Y-92492524D01*
X69099555Y-92478548D01*
X69118991Y-92468160D01*
X69140072Y-92461764D01*
X69168140Y-92459000D01*
X70981860Y-92459000D01*
X71009928Y-92461764D01*
G37*
G36*
X66059928Y-92461764D02*
G01*
X66081009Y-92468160D01*
X66100445Y-92478548D01*
X66117476Y-92492524D01*
X66131452Y-92509555D01*
X66141840Y-92528991D01*
X66148236Y-92550072D01*
X66151000Y-92578140D01*
X66151000Y-93041860D01*
X66148236Y-93069928D01*
X66141840Y-93091009D01*
X66131452Y-93110445D01*
X66117476Y-93127476D01*
X66100445Y-93141452D01*
X66081009Y-93151840D01*
X66059928Y-93158236D01*
X66031860Y-93161000D01*
X64218140Y-93161000D01*
X64190072Y-93158236D01*
X64168991Y-93151840D01*
X64149555Y-93141452D01*
X64132524Y-93127476D01*
X64118548Y-93110445D01*
X64108160Y-93091009D01*
X64101764Y-93069928D01*
X64099000Y-93041860D01*
X64099000Y-92578140D01*
X64101764Y-92550072D01*
X64108160Y-92528991D01*
X64118548Y-92509555D01*
X64132524Y-92492524D01*
X64149555Y-92478548D01*
X64168991Y-92468160D01*
X64190072Y-92461764D01*
X64218140Y-92459000D01*
X66031860Y-92459000D01*
X66059928Y-92461764D01*
G37*
G36*
X77087797Y-92210567D02*
G01*
X77142575Y-92233257D01*
X77142577Y-92233258D01*
X77191876Y-92266198D01*
X77233802Y-92308124D01*
X77266742Y-92357423D01*
X77266743Y-92357425D01*
X77289433Y-92412203D01*
X77301000Y-92470353D01*
X77301000Y-92529647D01*
X77289433Y-92587797D01*
X77270088Y-92634500D01*
X77266742Y-92642577D01*
X77233802Y-92691876D01*
X77191876Y-92733802D01*
X77142577Y-92766742D01*
X77142576Y-92766743D01*
X77142575Y-92766743D01*
X77087797Y-92789433D01*
X77029647Y-92801000D01*
X76970353Y-92801000D01*
X76912203Y-92789433D01*
X76857425Y-92766743D01*
X76857424Y-92766743D01*
X76857423Y-92766742D01*
X76808124Y-92733802D01*
X76766198Y-92691876D01*
X76733258Y-92642577D01*
X76729912Y-92634500D01*
X76710567Y-92587797D01*
X76699000Y-92529647D01*
X76699000Y-92470353D01*
X76710567Y-92412203D01*
X76733257Y-92357425D01*
X76733258Y-92357423D01*
X76766198Y-92308124D01*
X76808124Y-92266198D01*
X76857423Y-92233258D01*
X76857425Y-92233257D01*
X76912203Y-92210567D01*
X76970353Y-92199000D01*
X77029647Y-92199000D01*
X77087797Y-92210567D01*
G37*
G36*
X82059928Y-91191764D02*
G01*
X82081009Y-91198160D01*
X82100445Y-91208548D01*
X82117476Y-91222524D01*
X82131452Y-91239555D01*
X82141840Y-91258991D01*
X82148236Y-91280072D01*
X82151000Y-91308140D01*
X82151000Y-91771860D01*
X82148236Y-91799928D01*
X82141840Y-91821009D01*
X82131452Y-91840445D01*
X82117476Y-91857476D01*
X82100445Y-91871452D01*
X82081009Y-91881840D01*
X82059928Y-91888236D01*
X82031860Y-91891000D01*
X80218140Y-91891000D01*
X80190072Y-91888236D01*
X80168991Y-91881840D01*
X80149555Y-91871452D01*
X80132524Y-91857476D01*
X80118548Y-91840445D01*
X80108160Y-91821009D01*
X80101764Y-91799928D01*
X80099000Y-91771860D01*
X80099000Y-91308140D01*
X80101764Y-91280072D01*
X80108160Y-91258991D01*
X80118548Y-91239555D01*
X80132524Y-91222524D01*
X80149555Y-91208548D01*
X80168991Y-91198160D01*
X80190072Y-91191764D01*
X80218140Y-91189000D01*
X82031860Y-91189000D01*
X82059928Y-91191764D01*
G37*
G36*
X87009928Y-91191764D02*
G01*
X87031009Y-91198160D01*
X87050445Y-91208548D01*
X87067476Y-91222524D01*
X87081452Y-91239555D01*
X87091840Y-91258991D01*
X87098236Y-91280072D01*
X87101000Y-91308140D01*
X87101000Y-91771860D01*
X87098236Y-91799928D01*
X87091840Y-91821009D01*
X87081452Y-91840445D01*
X87067476Y-91857476D01*
X87050445Y-91871452D01*
X87031009Y-91881840D01*
X87009928Y-91888236D01*
X86981860Y-91891000D01*
X85168140Y-91891000D01*
X85140072Y-91888236D01*
X85118991Y-91881840D01*
X85099555Y-91871452D01*
X85082524Y-91857476D01*
X85068548Y-91840445D01*
X85058160Y-91821009D01*
X85051764Y-91799928D01*
X85049000Y-91771860D01*
X85049000Y-91308140D01*
X85051764Y-91280072D01*
X85058160Y-91258991D01*
X85068548Y-91239555D01*
X85082524Y-91222524D01*
X85099555Y-91208548D01*
X85118991Y-91198160D01*
X85140072Y-91191764D01*
X85168140Y-91189000D01*
X86981860Y-91189000D01*
X87009928Y-91191764D01*
G37*
G36*
X71009928Y-91191764D02*
G01*
X71031009Y-91198160D01*
X71050445Y-91208548D01*
X71067476Y-91222524D01*
X71081452Y-91239555D01*
X71091840Y-91258991D01*
X71098236Y-91280072D01*
X71101000Y-91308140D01*
X71101000Y-91771860D01*
X71098236Y-91799928D01*
X71091840Y-91821009D01*
X71081452Y-91840445D01*
X71067476Y-91857476D01*
X71050445Y-91871452D01*
X71031009Y-91881840D01*
X71009928Y-91888236D01*
X70981860Y-91891000D01*
X69168140Y-91891000D01*
X69140072Y-91888236D01*
X69118991Y-91881840D01*
X69099555Y-91871452D01*
X69082524Y-91857476D01*
X69068548Y-91840445D01*
X69058160Y-91821009D01*
X69051764Y-91799928D01*
X69049000Y-91771860D01*
X69049000Y-91308140D01*
X69051764Y-91280072D01*
X69058160Y-91258991D01*
X69068548Y-91239555D01*
X69082524Y-91222524D01*
X69099555Y-91208548D01*
X69118991Y-91198160D01*
X69140072Y-91191764D01*
X69168140Y-91189000D01*
X70981860Y-91189000D01*
X71009928Y-91191764D01*
G37*
G36*
X66059928Y-91191764D02*
G01*
X66081009Y-91198160D01*
X66100445Y-91208548D01*
X66117476Y-91222524D01*
X66131452Y-91239555D01*
X66141840Y-91258991D01*
X66148236Y-91280072D01*
X66151000Y-91308140D01*
X66151000Y-91771860D01*
X66148236Y-91799928D01*
X66141840Y-91821009D01*
X66131452Y-91840445D01*
X66117476Y-91857476D01*
X66100445Y-91871452D01*
X66081009Y-91881840D01*
X66059928Y-91888236D01*
X66031860Y-91891000D01*
X64218140Y-91891000D01*
X64190072Y-91888236D01*
X64168991Y-91881840D01*
X64149555Y-91871452D01*
X64132524Y-91857476D01*
X64118548Y-91840445D01*
X64108160Y-91821009D01*
X64101764Y-91799928D01*
X64099000Y-91771860D01*
X64099000Y-91308140D01*
X64101764Y-91280072D01*
X64108160Y-91258991D01*
X64118548Y-91239555D01*
X64132524Y-91222524D01*
X64149555Y-91208548D01*
X64168991Y-91198160D01*
X64190072Y-91191764D01*
X64218140Y-91189000D01*
X66031860Y-91189000D01*
X66059928Y-91191764D01*
G37*
G36*
X82059928Y-89921764D02*
G01*
X82081009Y-89928160D01*
X82100445Y-89938548D01*
X82117476Y-89952524D01*
X82131452Y-89969555D01*
X82141840Y-89988991D01*
X82148236Y-90010072D01*
X82151000Y-90038140D01*
X82151000Y-90501860D01*
X82148236Y-90529928D01*
X82141840Y-90551009D01*
X82131452Y-90570445D01*
X82117476Y-90587476D01*
X82100445Y-90601452D01*
X82081009Y-90611840D01*
X82059928Y-90618236D01*
X82031860Y-90621000D01*
X80218140Y-90621000D01*
X80190072Y-90618236D01*
X80168991Y-90611840D01*
X80149555Y-90601452D01*
X80132524Y-90587476D01*
X80118548Y-90570445D01*
X80108160Y-90551009D01*
X80101764Y-90529928D01*
X80099000Y-90501860D01*
X80099000Y-90038140D01*
X80101764Y-90010072D01*
X80108160Y-89988991D01*
X80118548Y-89969555D01*
X80132524Y-89952524D01*
X80149555Y-89938548D01*
X80168991Y-89928160D01*
X80190072Y-89921764D01*
X80218140Y-89919000D01*
X82031860Y-89919000D01*
X82059928Y-89921764D01*
G37*
G36*
X87009928Y-89921764D02*
G01*
X87031009Y-89928160D01*
X87050445Y-89938548D01*
X87067476Y-89952524D01*
X87081452Y-89969555D01*
X87091840Y-89988991D01*
X87098236Y-90010072D01*
X87101000Y-90038140D01*
X87101000Y-90501860D01*
X87098236Y-90529928D01*
X87091840Y-90551009D01*
X87081452Y-90570445D01*
X87067476Y-90587476D01*
X87050445Y-90601452D01*
X87031009Y-90611840D01*
X87009928Y-90618236D01*
X86981860Y-90621000D01*
X85168140Y-90621000D01*
X85140072Y-90618236D01*
X85118991Y-90611840D01*
X85099555Y-90601452D01*
X85082524Y-90587476D01*
X85068548Y-90570445D01*
X85058160Y-90551009D01*
X85051764Y-90529928D01*
X85049000Y-90501860D01*
X85049000Y-90038140D01*
X85051764Y-90010072D01*
X85058160Y-89988991D01*
X85068548Y-89969555D01*
X85082524Y-89952524D01*
X85099555Y-89938548D01*
X85118991Y-89928160D01*
X85140072Y-89921764D01*
X85168140Y-89919000D01*
X86981860Y-89919000D01*
X87009928Y-89921764D01*
G37*
G36*
X71009928Y-89921764D02*
G01*
X71031009Y-89928160D01*
X71050445Y-89938548D01*
X71067476Y-89952524D01*
X71081452Y-89969555D01*
X71091840Y-89988991D01*
X71098236Y-90010072D01*
X71101000Y-90038140D01*
X71101000Y-90501860D01*
X71098236Y-90529928D01*
X71091840Y-90551009D01*
X71081452Y-90570445D01*
X71067476Y-90587476D01*
X71050445Y-90601452D01*
X71031009Y-90611840D01*
X71009928Y-90618236D01*
X70981860Y-90621000D01*
X69168140Y-90621000D01*
X69140072Y-90618236D01*
X69118991Y-90611840D01*
X69099555Y-90601452D01*
X69082524Y-90587476D01*
X69068548Y-90570445D01*
X69058160Y-90551009D01*
X69051764Y-90529928D01*
X69049000Y-90501860D01*
X69049000Y-90038140D01*
X69051764Y-90010072D01*
X69058160Y-89988991D01*
X69068548Y-89969555D01*
X69082524Y-89952524D01*
X69099555Y-89938548D01*
X69118991Y-89928160D01*
X69140072Y-89921764D01*
X69168140Y-89919000D01*
X70981860Y-89919000D01*
X71009928Y-89921764D01*
G37*
G36*
X66059928Y-89921764D02*
G01*
X66081009Y-89928160D01*
X66100445Y-89938548D01*
X66117476Y-89952524D01*
X66131452Y-89969555D01*
X66141840Y-89988991D01*
X66148236Y-90010072D01*
X66151000Y-90038140D01*
X66151000Y-90501860D01*
X66148236Y-90529928D01*
X66141840Y-90551009D01*
X66131452Y-90570445D01*
X66117476Y-90587476D01*
X66100445Y-90601452D01*
X66081009Y-90611840D01*
X66059928Y-90618236D01*
X66031860Y-90621000D01*
X64218140Y-90621000D01*
X64190072Y-90618236D01*
X64168991Y-90611840D01*
X64149555Y-90601452D01*
X64132524Y-90587476D01*
X64118548Y-90570445D01*
X64108160Y-90551009D01*
X64101764Y-90529928D01*
X64099000Y-90501860D01*
X64099000Y-90038140D01*
X64101764Y-90010072D01*
X64108160Y-89988991D01*
X64118548Y-89969555D01*
X64132524Y-89952524D01*
X64149555Y-89938548D01*
X64168991Y-89928160D01*
X64190072Y-89921764D01*
X64218140Y-89919000D01*
X66031860Y-89919000D01*
X66059928Y-89921764D01*
G37*
G36*
X66059928Y-88651764D02*
G01*
X66081009Y-88658160D01*
X66100445Y-88668548D01*
X66117476Y-88682524D01*
X66131452Y-88699555D01*
X66141840Y-88718991D01*
X66148236Y-88740072D01*
X66151000Y-88768140D01*
X66151000Y-89231860D01*
X66148236Y-89259928D01*
X66141840Y-89281009D01*
X66131452Y-89300445D01*
X66117476Y-89317476D01*
X66100445Y-89331452D01*
X66081009Y-89341840D01*
X66059928Y-89348236D01*
X66031860Y-89351000D01*
X64218140Y-89351000D01*
X64190072Y-89348236D01*
X64168991Y-89341840D01*
X64149555Y-89331452D01*
X64132524Y-89317476D01*
X64118548Y-89300445D01*
X64108160Y-89281009D01*
X64101764Y-89259928D01*
X64099000Y-89231860D01*
X64099000Y-88768140D01*
X64101764Y-88740072D01*
X64108160Y-88718991D01*
X64118548Y-88699555D01*
X64132524Y-88682524D01*
X64149555Y-88668548D01*
X64168991Y-88658160D01*
X64190072Y-88651764D01*
X64218140Y-88649000D01*
X66031860Y-88649000D01*
X66059928Y-88651764D01*
G37*
G36*
X82059928Y-88651764D02*
G01*
X82081009Y-88658160D01*
X82100445Y-88668548D01*
X82117476Y-88682524D01*
X82131452Y-88699555D01*
X82141840Y-88718991D01*
X82148236Y-88740072D01*
X82151000Y-88768140D01*
X82151000Y-89231860D01*
X82148236Y-89259928D01*
X82141840Y-89281009D01*
X82131452Y-89300445D01*
X82117476Y-89317476D01*
X82100445Y-89331452D01*
X82081009Y-89341840D01*
X82059928Y-89348236D01*
X82031860Y-89351000D01*
X80218140Y-89351000D01*
X80190072Y-89348236D01*
X80168991Y-89341840D01*
X80149555Y-89331452D01*
X80132524Y-89317476D01*
X80118548Y-89300445D01*
X80108160Y-89281009D01*
X80101764Y-89259928D01*
X80099000Y-89231860D01*
X80099000Y-88768140D01*
X80101764Y-88740072D01*
X80108160Y-88718991D01*
X80118548Y-88699555D01*
X80132524Y-88682524D01*
X80149555Y-88668548D01*
X80168991Y-88658160D01*
X80190072Y-88651764D01*
X80218140Y-88649000D01*
X82031860Y-88649000D01*
X82059928Y-88651764D01*
G37*
G36*
X71009928Y-88651764D02*
G01*
X71031009Y-88658160D01*
X71050445Y-88668548D01*
X71067476Y-88682524D01*
X71081452Y-88699555D01*
X71091840Y-88718991D01*
X71098236Y-88740072D01*
X71101000Y-88768140D01*
X71101000Y-89231860D01*
X71098236Y-89259928D01*
X71091840Y-89281009D01*
X71081452Y-89300445D01*
X71067476Y-89317476D01*
X71050445Y-89331452D01*
X71031009Y-89341840D01*
X71009928Y-89348236D01*
X70981860Y-89351000D01*
X69168140Y-89351000D01*
X69140072Y-89348236D01*
X69118991Y-89341840D01*
X69099555Y-89331452D01*
X69082524Y-89317476D01*
X69068548Y-89300445D01*
X69058160Y-89281009D01*
X69051764Y-89259928D01*
X69049000Y-89231860D01*
X69049000Y-88768140D01*
X69051764Y-88740072D01*
X69058160Y-88718991D01*
X69068548Y-88699555D01*
X69082524Y-88682524D01*
X69099555Y-88668548D01*
X69118991Y-88658160D01*
X69140072Y-88651764D01*
X69168140Y-88649000D01*
X70981860Y-88649000D01*
X71009928Y-88651764D01*
G37*
G36*
X87009928Y-88651764D02*
G01*
X87031009Y-88658160D01*
X87050445Y-88668548D01*
X87067476Y-88682524D01*
X87081452Y-88699555D01*
X87091840Y-88718991D01*
X87098236Y-88740072D01*
X87101000Y-88768140D01*
X87101000Y-89231860D01*
X87098236Y-89259928D01*
X87091840Y-89281009D01*
X87081452Y-89300445D01*
X87067476Y-89317476D01*
X87050445Y-89331452D01*
X87031009Y-89341840D01*
X87009928Y-89348236D01*
X86981860Y-89351000D01*
X85168140Y-89351000D01*
X85140072Y-89348236D01*
X85118991Y-89341840D01*
X85099555Y-89331452D01*
X85082524Y-89317476D01*
X85068548Y-89300445D01*
X85058160Y-89281009D01*
X85051764Y-89259928D01*
X85049000Y-89231860D01*
X85049000Y-88768140D01*
X85051764Y-88740072D01*
X85058160Y-88718991D01*
X85068548Y-88699555D01*
X85082524Y-88682524D01*
X85099555Y-88668548D01*
X85118991Y-88658160D01*
X85140072Y-88651764D01*
X85168140Y-88649000D01*
X86981860Y-88649000D01*
X87009928Y-88651764D01*
G37*
G36*
X92365816Y-87552817D02*
G01*
X92397183Y-87562332D01*
X92426089Y-87577783D01*
X92451425Y-87598575D01*
X92472217Y-87623911D01*
X92487668Y-87652817D01*
X92497183Y-87684184D01*
X92501000Y-87722940D01*
X92501000Y-89077060D01*
X92497183Y-89115816D01*
X92487668Y-89147183D01*
X92472217Y-89176089D01*
X92451425Y-89201425D01*
X92426089Y-89222217D01*
X92397183Y-89237668D01*
X92365816Y-89247183D01*
X92327060Y-89251000D01*
X90072940Y-89251000D01*
X90034184Y-89247183D01*
X90002817Y-89237668D01*
X89973911Y-89222217D01*
X89948575Y-89201425D01*
X89927783Y-89176089D01*
X89912332Y-89147183D01*
X89902817Y-89115816D01*
X89899000Y-89077060D01*
X89899000Y-87722940D01*
X89902817Y-87684184D01*
X89912332Y-87652817D01*
X89927783Y-87623911D01*
X89948575Y-87598575D01*
X89973911Y-87577783D01*
X90002817Y-87562332D01*
X90034184Y-87552817D01*
X90072940Y-87549000D01*
X92327060Y-87549000D01*
X92365816Y-87552817D01*
G37*
G36*
X76365816Y-87552817D02*
G01*
X76397183Y-87562332D01*
X76426089Y-87577783D01*
X76451425Y-87598575D01*
X76472217Y-87623911D01*
X76487668Y-87652817D01*
X76497183Y-87684184D01*
X76501000Y-87722940D01*
X76501000Y-89077060D01*
X76497183Y-89115816D01*
X76487668Y-89147183D01*
X76472217Y-89176089D01*
X76451425Y-89201425D01*
X76426089Y-89222217D01*
X76397183Y-89237668D01*
X76365816Y-89247183D01*
X76327060Y-89251000D01*
X74072940Y-89251000D01*
X74034184Y-89247183D01*
X74002817Y-89237668D01*
X73973911Y-89222217D01*
X73948575Y-89201425D01*
X73927783Y-89176089D01*
X73912332Y-89147183D01*
X73902817Y-89115816D01*
X73899000Y-89077060D01*
X73899000Y-87722940D01*
X73902817Y-87684184D01*
X73912332Y-87652817D01*
X73927783Y-87623911D01*
X73948575Y-87598575D01*
X73973911Y-87577783D01*
X74002817Y-87562332D01*
X74034184Y-87552817D01*
X74072940Y-87549000D01*
X76327060Y-87549000D01*
X76365816Y-87552817D01*
G37*
G36*
X71009928Y-87381764D02*
G01*
X71031009Y-87388160D01*
X71050445Y-87398548D01*
X71067476Y-87412524D01*
X71081452Y-87429555D01*
X71091840Y-87448991D01*
X71098236Y-87470072D01*
X71101000Y-87498140D01*
X71101000Y-87961860D01*
X71098236Y-87989928D01*
X71091840Y-88011009D01*
X71081452Y-88030445D01*
X71067476Y-88047476D01*
X71050445Y-88061452D01*
X71031009Y-88071840D01*
X71009928Y-88078236D01*
X70981860Y-88081000D01*
X69168140Y-88081000D01*
X69140072Y-88078236D01*
X69118991Y-88071840D01*
X69099555Y-88061452D01*
X69082524Y-88047476D01*
X69068548Y-88030445D01*
X69058160Y-88011009D01*
X69051764Y-87989928D01*
X69049000Y-87961860D01*
X69049000Y-87498140D01*
X69051764Y-87470072D01*
X69058160Y-87448991D01*
X69068548Y-87429555D01*
X69082524Y-87412524D01*
X69099555Y-87398548D01*
X69118991Y-87388160D01*
X69140072Y-87381764D01*
X69168140Y-87379000D01*
X70981860Y-87379000D01*
X71009928Y-87381764D01*
G37*
G36*
X66059928Y-87381764D02*
G01*
X66081009Y-87388160D01*
X66100445Y-87398548D01*
X66117476Y-87412524D01*
X66131452Y-87429555D01*
X66141840Y-87448991D01*
X66148236Y-87470072D01*
X66151000Y-87498140D01*
X66151000Y-87961860D01*
X66148236Y-87989928D01*
X66141840Y-88011009D01*
X66131452Y-88030445D01*
X66117476Y-88047476D01*
X66100445Y-88061452D01*
X66081009Y-88071840D01*
X66059928Y-88078236D01*
X66031860Y-88081000D01*
X64218140Y-88081000D01*
X64190072Y-88078236D01*
X64168991Y-88071840D01*
X64149555Y-88061452D01*
X64132524Y-88047476D01*
X64118548Y-88030445D01*
X64108160Y-88011009D01*
X64101764Y-87989928D01*
X64099000Y-87961860D01*
X64099000Y-87498140D01*
X64101764Y-87470072D01*
X64108160Y-87448991D01*
X64118548Y-87429555D01*
X64132524Y-87412524D01*
X64149555Y-87398548D01*
X64168991Y-87388160D01*
X64190072Y-87381764D01*
X64218140Y-87379000D01*
X66031860Y-87379000D01*
X66059928Y-87381764D01*
G37*
G36*
X87009928Y-87381764D02*
G01*
X87031009Y-87388160D01*
X87050445Y-87398548D01*
X87067476Y-87412524D01*
X87081452Y-87429555D01*
X87091840Y-87448991D01*
X87098236Y-87470072D01*
X87101000Y-87498140D01*
X87101000Y-87961860D01*
X87098236Y-87989928D01*
X87091840Y-88011009D01*
X87081452Y-88030445D01*
X87067476Y-88047476D01*
X87050445Y-88061452D01*
X87031009Y-88071840D01*
X87009928Y-88078236D01*
X86981860Y-88081000D01*
X85168140Y-88081000D01*
X85140072Y-88078236D01*
X85118991Y-88071840D01*
X85099555Y-88061452D01*
X85082524Y-88047476D01*
X85068548Y-88030445D01*
X85058160Y-88011009D01*
X85051764Y-87989928D01*
X85049000Y-87961860D01*
X85049000Y-87498140D01*
X85051764Y-87470072D01*
X85058160Y-87448991D01*
X85068548Y-87429555D01*
X85082524Y-87412524D01*
X85099555Y-87398548D01*
X85118991Y-87388160D01*
X85140072Y-87381764D01*
X85168140Y-87379000D01*
X86981860Y-87379000D01*
X87009928Y-87381764D01*
G37*
G36*
X82059928Y-87381764D02*
G01*
X82081009Y-87388160D01*
X82100445Y-87398548D01*
X82117476Y-87412524D01*
X82131452Y-87429555D01*
X82141840Y-87448991D01*
X82148236Y-87470072D01*
X82151000Y-87498140D01*
X82151000Y-87961860D01*
X82148236Y-87989928D01*
X82141840Y-88011009D01*
X82131452Y-88030445D01*
X82117476Y-88047476D01*
X82100445Y-88061452D01*
X82081009Y-88071840D01*
X82059928Y-88078236D01*
X82031860Y-88081000D01*
X80218140Y-88081000D01*
X80190072Y-88078236D01*
X80168991Y-88071840D01*
X80149555Y-88061452D01*
X80132524Y-88047476D01*
X80118548Y-88030445D01*
X80108160Y-88011009D01*
X80101764Y-87989928D01*
X80099000Y-87961860D01*
X80099000Y-87498140D01*
X80101764Y-87470072D01*
X80108160Y-87448991D01*
X80118548Y-87429555D01*
X80132524Y-87412524D01*
X80149555Y-87398548D01*
X80168991Y-87388160D01*
X80190072Y-87381764D01*
X80218140Y-87379000D01*
X82031860Y-87379000D01*
X82059928Y-87381764D01*
G37*
G36*
X87009928Y-86111764D02*
G01*
X87031009Y-86118160D01*
X87050445Y-86128548D01*
X87067476Y-86142524D01*
X87081452Y-86159555D01*
X87091840Y-86178991D01*
X87098236Y-86200072D01*
X87101000Y-86228140D01*
X87101000Y-86691860D01*
X87098236Y-86719928D01*
X87091840Y-86741009D01*
X87081452Y-86760445D01*
X87067476Y-86777476D01*
X87050445Y-86791452D01*
X87031009Y-86801840D01*
X87009928Y-86808236D01*
X86981860Y-86811000D01*
X85168140Y-86811000D01*
X85140072Y-86808236D01*
X85118991Y-86801840D01*
X85099555Y-86791452D01*
X85082524Y-86777476D01*
X85068548Y-86760445D01*
X85058160Y-86741009D01*
X85051764Y-86719928D01*
X85049000Y-86691860D01*
X85049000Y-86228140D01*
X85051764Y-86200072D01*
X85058160Y-86178991D01*
X85068548Y-86159555D01*
X85082524Y-86142524D01*
X85099555Y-86128548D01*
X85118991Y-86118160D01*
X85140072Y-86111764D01*
X85168140Y-86109000D01*
X86981860Y-86109000D01*
X87009928Y-86111764D01*
G37*
G36*
X82059928Y-86111764D02*
G01*
X82081009Y-86118160D01*
X82100445Y-86128548D01*
X82117476Y-86142524D01*
X82131452Y-86159555D01*
X82141840Y-86178991D01*
X82148236Y-86200072D01*
X82151000Y-86228140D01*
X82151000Y-86691860D01*
X82148236Y-86719928D01*
X82141840Y-86741009D01*
X82131452Y-86760445D01*
X82117476Y-86777476D01*
X82100445Y-86791452D01*
X82081009Y-86801840D01*
X82059928Y-86808236D01*
X82031860Y-86811000D01*
X80218140Y-86811000D01*
X80190072Y-86808236D01*
X80168991Y-86801840D01*
X80149555Y-86791452D01*
X80132524Y-86777476D01*
X80118548Y-86760445D01*
X80108160Y-86741009D01*
X80101764Y-86719928D01*
X80099000Y-86691860D01*
X80099000Y-86228140D01*
X80101764Y-86200072D01*
X80108160Y-86178991D01*
X80118548Y-86159555D01*
X80132524Y-86142524D01*
X80149555Y-86128548D01*
X80168991Y-86118160D01*
X80190072Y-86111764D01*
X80218140Y-86109000D01*
X82031860Y-86109000D01*
X82059928Y-86111764D01*
G37*
G36*
X71009928Y-86111764D02*
G01*
X71031009Y-86118160D01*
X71050445Y-86128548D01*
X71067476Y-86142524D01*
X71081452Y-86159555D01*
X71091840Y-86178991D01*
X71098236Y-86200072D01*
X71101000Y-86228140D01*
X71101000Y-86691860D01*
X71098236Y-86719928D01*
X71091840Y-86741009D01*
X71081452Y-86760445D01*
X71067476Y-86777476D01*
X71050445Y-86791452D01*
X71031009Y-86801840D01*
X71009928Y-86808236D01*
X70981860Y-86811000D01*
X69168140Y-86811000D01*
X69140072Y-86808236D01*
X69118991Y-86801840D01*
X69099555Y-86791452D01*
X69082524Y-86777476D01*
X69068548Y-86760445D01*
X69058160Y-86741009D01*
X69051764Y-86719928D01*
X69049000Y-86691860D01*
X69049000Y-86228140D01*
X69051764Y-86200072D01*
X69058160Y-86178991D01*
X69068548Y-86159555D01*
X69082524Y-86142524D01*
X69099555Y-86128548D01*
X69118991Y-86118160D01*
X69140072Y-86111764D01*
X69168140Y-86109000D01*
X70981860Y-86109000D01*
X71009928Y-86111764D01*
G37*
G36*
X66059928Y-86111764D02*
G01*
X66081009Y-86118160D01*
X66100445Y-86128548D01*
X66117476Y-86142524D01*
X66131452Y-86159555D01*
X66141840Y-86178991D01*
X66148236Y-86200072D01*
X66151000Y-86228140D01*
X66151000Y-86691860D01*
X66148236Y-86719928D01*
X66141840Y-86741009D01*
X66131452Y-86760445D01*
X66117476Y-86777476D01*
X66100445Y-86791452D01*
X66081009Y-86801840D01*
X66059928Y-86808236D01*
X66031860Y-86811000D01*
X64218140Y-86811000D01*
X64190072Y-86808236D01*
X64168991Y-86801840D01*
X64149555Y-86791452D01*
X64132524Y-86777476D01*
X64118548Y-86760445D01*
X64108160Y-86741009D01*
X64101764Y-86719928D01*
X64099000Y-86691860D01*
X64099000Y-86228140D01*
X64101764Y-86200072D01*
X64108160Y-86178991D01*
X64118548Y-86159555D01*
X64132524Y-86142524D01*
X64149555Y-86128548D01*
X64168991Y-86118160D01*
X64190072Y-86111764D01*
X64218140Y-86109000D01*
X66031860Y-86109000D01*
X66059928Y-86111764D01*
G37*
G36*
X76365816Y-85012817D02*
G01*
X76397183Y-85022332D01*
X76426089Y-85037783D01*
X76451425Y-85058575D01*
X76472217Y-85083911D01*
X76487668Y-85112817D01*
X76497183Y-85144184D01*
X76501000Y-85182940D01*
X76501000Y-86537060D01*
X76497183Y-86575816D01*
X76487668Y-86607183D01*
X76472217Y-86636089D01*
X76451425Y-86661425D01*
X76426089Y-86682217D01*
X76397183Y-86697668D01*
X76365816Y-86707183D01*
X76327060Y-86711000D01*
X74072940Y-86711000D01*
X74034184Y-86707183D01*
X74002817Y-86697668D01*
X73973911Y-86682217D01*
X73948575Y-86661425D01*
X73927783Y-86636089D01*
X73912332Y-86607183D01*
X73902817Y-86575816D01*
X73899000Y-86537060D01*
X73899000Y-85182940D01*
X73902817Y-85144184D01*
X73912332Y-85112817D01*
X73927783Y-85083911D01*
X73948575Y-85058575D01*
X73973911Y-85037783D01*
X74002817Y-85022332D01*
X74034184Y-85012817D01*
X74072940Y-85009000D01*
X76327060Y-85009000D01*
X76365816Y-85012817D01*
G37*
G36*
X92365816Y-85012817D02*
G01*
X92397183Y-85022332D01*
X92426089Y-85037783D01*
X92451425Y-85058575D01*
X92472217Y-85083911D01*
X92487668Y-85112817D01*
X92497183Y-85144184D01*
X92501000Y-85182940D01*
X92501000Y-86537060D01*
X92497183Y-86575816D01*
X92487668Y-86607183D01*
X92472217Y-86636089D01*
X92451425Y-86661425D01*
X92426089Y-86682217D01*
X92397183Y-86697668D01*
X92365816Y-86707183D01*
X92327060Y-86711000D01*
X90072940Y-86711000D01*
X90034184Y-86707183D01*
X90002817Y-86697668D01*
X89973911Y-86682217D01*
X89948575Y-86661425D01*
X89927783Y-86636089D01*
X89912332Y-86607183D01*
X89902817Y-86575816D01*
X89899000Y-86537060D01*
X89899000Y-85182940D01*
X89902817Y-85144184D01*
X89912332Y-85112817D01*
X89927783Y-85083911D01*
X89948575Y-85058575D01*
X89973911Y-85037783D01*
X90002817Y-85022332D01*
X90034184Y-85012817D01*
X90072940Y-85009000D01*
X92327060Y-85009000D01*
X92365816Y-85012817D01*
G37*
G36*
X66059928Y-84841764D02*
G01*
X66081009Y-84848160D01*
X66100445Y-84858548D01*
X66117476Y-84872524D01*
X66131452Y-84889555D01*
X66141840Y-84908991D01*
X66148236Y-84930072D01*
X66151000Y-84958140D01*
X66151000Y-85421860D01*
X66148236Y-85449928D01*
X66141840Y-85471009D01*
X66131452Y-85490445D01*
X66117476Y-85507476D01*
X66100445Y-85521452D01*
X66081009Y-85531840D01*
X66059928Y-85538236D01*
X66031860Y-85541000D01*
X64218140Y-85541000D01*
X64190072Y-85538236D01*
X64168991Y-85531840D01*
X64149555Y-85521452D01*
X64132524Y-85507476D01*
X64118548Y-85490445D01*
X64108160Y-85471009D01*
X64101764Y-85449928D01*
X64099000Y-85421860D01*
X64099000Y-84958140D01*
X64101764Y-84930072D01*
X64108160Y-84908991D01*
X64118548Y-84889555D01*
X64132524Y-84872524D01*
X64149555Y-84858548D01*
X64168991Y-84848160D01*
X64190072Y-84841764D01*
X64218140Y-84839000D01*
X66031860Y-84839000D01*
X66059928Y-84841764D01*
G37*
G36*
X82059928Y-84841764D02*
G01*
X82081009Y-84848160D01*
X82100445Y-84858548D01*
X82117476Y-84872524D01*
X82131452Y-84889555D01*
X82141840Y-84908991D01*
X82148236Y-84930072D01*
X82151000Y-84958140D01*
X82151000Y-85421860D01*
X82148236Y-85449928D01*
X82141840Y-85471009D01*
X82131452Y-85490445D01*
X82117476Y-85507476D01*
X82100445Y-85521452D01*
X82081009Y-85531840D01*
X82059928Y-85538236D01*
X82031860Y-85541000D01*
X80218140Y-85541000D01*
X80190072Y-85538236D01*
X80168991Y-85531840D01*
X80149555Y-85521452D01*
X80132524Y-85507476D01*
X80118548Y-85490445D01*
X80108160Y-85471009D01*
X80101764Y-85449928D01*
X80099000Y-85421860D01*
X80099000Y-84958140D01*
X80101764Y-84930072D01*
X80108160Y-84908991D01*
X80118548Y-84889555D01*
X80132524Y-84872524D01*
X80149555Y-84858548D01*
X80168991Y-84848160D01*
X80190072Y-84841764D01*
X80218140Y-84839000D01*
X82031860Y-84839000D01*
X82059928Y-84841764D01*
G37*
G36*
X87009928Y-84841764D02*
G01*
X87031009Y-84848160D01*
X87050445Y-84858548D01*
X87067476Y-84872524D01*
X87081452Y-84889555D01*
X87091840Y-84908991D01*
X87098236Y-84930072D01*
X87101000Y-84958140D01*
X87101000Y-85421860D01*
X87098236Y-85449928D01*
X87091840Y-85471009D01*
X87081452Y-85490445D01*
X87067476Y-85507476D01*
X87050445Y-85521452D01*
X87031009Y-85531840D01*
X87009928Y-85538236D01*
X86981860Y-85541000D01*
X85168140Y-85541000D01*
X85140072Y-85538236D01*
X85118991Y-85531840D01*
X85099555Y-85521452D01*
X85082524Y-85507476D01*
X85068548Y-85490445D01*
X85058160Y-85471009D01*
X85051764Y-85449928D01*
X85049000Y-85421860D01*
X85049000Y-84958140D01*
X85051764Y-84930072D01*
X85058160Y-84908991D01*
X85068548Y-84889555D01*
X85082524Y-84872524D01*
X85099555Y-84858548D01*
X85118991Y-84848160D01*
X85140072Y-84841764D01*
X85168140Y-84839000D01*
X86981860Y-84839000D01*
X87009928Y-84841764D01*
G37*
G36*
X71009928Y-84841764D02*
G01*
X71031009Y-84848160D01*
X71050445Y-84858548D01*
X71067476Y-84872524D01*
X71081452Y-84889555D01*
X71091840Y-84908991D01*
X71098236Y-84930072D01*
X71101000Y-84958140D01*
X71101000Y-85421860D01*
X71098236Y-85449928D01*
X71091840Y-85471009D01*
X71081452Y-85490445D01*
X71067476Y-85507476D01*
X71050445Y-85521452D01*
X71031009Y-85531840D01*
X71009928Y-85538236D01*
X70981860Y-85541000D01*
X69168140Y-85541000D01*
X69140072Y-85538236D01*
X69118991Y-85531840D01*
X69099555Y-85521452D01*
X69082524Y-85507476D01*
X69068548Y-85490445D01*
X69058160Y-85471009D01*
X69051764Y-85449928D01*
X69049000Y-85421860D01*
X69049000Y-84958140D01*
X69051764Y-84930072D01*
X69058160Y-84908991D01*
X69068548Y-84889555D01*
X69082524Y-84872524D01*
X69099555Y-84858548D01*
X69118991Y-84848160D01*
X69140072Y-84841764D01*
X69168140Y-84839000D01*
X70981860Y-84839000D01*
X71009928Y-84841764D01*
G37*
G36*
X92365816Y-82472817D02*
G01*
X92397183Y-82482332D01*
X92426089Y-82497783D01*
X92451425Y-82518575D01*
X92472217Y-82543911D01*
X92487668Y-82572817D01*
X92497183Y-82604184D01*
X92501000Y-82642940D01*
X92501000Y-83997060D01*
X92497183Y-84035816D01*
X92487668Y-84067183D01*
X92472217Y-84096089D01*
X92451425Y-84121425D01*
X92426089Y-84142217D01*
X92397183Y-84157668D01*
X92365816Y-84167183D01*
X92327060Y-84171000D01*
X90072940Y-84171000D01*
X90034184Y-84167183D01*
X90002817Y-84157668D01*
X89973911Y-84142217D01*
X89948575Y-84121425D01*
X89927783Y-84096089D01*
X89912332Y-84067183D01*
X89902817Y-84035816D01*
X89899000Y-83997060D01*
X89899000Y-82642940D01*
X89902817Y-82604184D01*
X89912332Y-82572817D01*
X89927783Y-82543911D01*
X89948575Y-82518575D01*
X89973911Y-82497783D01*
X90002817Y-82482332D01*
X90034184Y-82472817D01*
X90072940Y-82469000D01*
X92327060Y-82469000D01*
X92365816Y-82472817D01*
G37*
G36*
X76365816Y-82472817D02*
G01*
X76397183Y-82482332D01*
X76426089Y-82497783D01*
X76451425Y-82518575D01*
X76472217Y-82543911D01*
X76487668Y-82572817D01*
X76497183Y-82604184D01*
X76501000Y-82642940D01*
X76501000Y-83997060D01*
X76497183Y-84035816D01*
X76487668Y-84067183D01*
X76472217Y-84096089D01*
X76451425Y-84121425D01*
X76426089Y-84142217D01*
X76397183Y-84157668D01*
X76365816Y-84167183D01*
X76327060Y-84171000D01*
X74072940Y-84171000D01*
X74034184Y-84167183D01*
X74002817Y-84157668D01*
X73973911Y-84142217D01*
X73948575Y-84121425D01*
X73927783Y-84096089D01*
X73912332Y-84067183D01*
X73902817Y-84035816D01*
X73899000Y-83997060D01*
X73899000Y-82642940D01*
X73902817Y-82604184D01*
X73912332Y-82572817D01*
X73927783Y-82543911D01*
X73948575Y-82518575D01*
X73973911Y-82497783D01*
X74002817Y-82482332D01*
X74034184Y-82472817D01*
X74072940Y-82469000D01*
X76327060Y-82469000D01*
X76365816Y-82472817D01*
G37*
G36*
X65379434Y-82403686D02*
G01*
X65419284Y-82415774D01*
X65455999Y-82435399D01*
X65488186Y-82461814D01*
X65514601Y-82494001D01*
X65534226Y-82530716D01*
X65546314Y-82570566D01*
X65551000Y-82618141D01*
X65551000Y-83581859D01*
X65546314Y-83629434D01*
X65534226Y-83669284D01*
X65514601Y-83705999D01*
X65488186Y-83738186D01*
X65455999Y-83764601D01*
X65419284Y-83784226D01*
X65379434Y-83796314D01*
X65331859Y-83801000D01*
X64668141Y-83801000D01*
X64620566Y-83796314D01*
X64580716Y-83784226D01*
X64544001Y-83764601D01*
X64511814Y-83738186D01*
X64485399Y-83705999D01*
X64465774Y-83669284D01*
X64453686Y-83629434D01*
X64449000Y-83581859D01*
X64449000Y-82618141D01*
X64453686Y-82570566D01*
X64465774Y-82530716D01*
X64485399Y-82494001D01*
X64511814Y-82461814D01*
X64544001Y-82435399D01*
X64580716Y-82415774D01*
X64620566Y-82403686D01*
X64668141Y-82399000D01*
X65331859Y-82399000D01*
X65379434Y-82403686D01*
G37*
G36*
X86379434Y-82403686D02*
G01*
X86419284Y-82415774D01*
X86455999Y-82435399D01*
X86488186Y-82461814D01*
X86514601Y-82494001D01*
X86534226Y-82530716D01*
X86546314Y-82570566D01*
X86551000Y-82618141D01*
X86551000Y-83581859D01*
X86546314Y-83629434D01*
X86534226Y-83669284D01*
X86514601Y-83705999D01*
X86488186Y-83738186D01*
X86455999Y-83764601D01*
X86419284Y-83784226D01*
X86379434Y-83796314D01*
X86331859Y-83801000D01*
X85668141Y-83801000D01*
X85620566Y-83796314D01*
X85580716Y-83784226D01*
X85544001Y-83764601D01*
X85511814Y-83738186D01*
X85485399Y-83705999D01*
X85465774Y-83669284D01*
X85453686Y-83629434D01*
X85449000Y-83581859D01*
X85449000Y-82618141D01*
X85453686Y-82570566D01*
X85465774Y-82530716D01*
X85485399Y-82494001D01*
X85511814Y-82461814D01*
X85544001Y-82435399D01*
X85580716Y-82415774D01*
X85620566Y-82403686D01*
X85668141Y-82399000D01*
X86331859Y-82399000D01*
X86379434Y-82403686D01*
G37*
G36*
X82979434Y-82403686D02*
G01*
X83019284Y-82415774D01*
X83055999Y-82435399D01*
X83088186Y-82461814D01*
X83114601Y-82494001D01*
X83134226Y-82530716D01*
X83146314Y-82570566D01*
X83151000Y-82618141D01*
X83151000Y-83581859D01*
X83146314Y-83629434D01*
X83134226Y-83669284D01*
X83114601Y-83705999D01*
X83088186Y-83738186D01*
X83055999Y-83764601D01*
X83019284Y-83784226D01*
X82979434Y-83796314D01*
X82931859Y-83801000D01*
X82268141Y-83801000D01*
X82220566Y-83796314D01*
X82180716Y-83784226D01*
X82144001Y-83764601D01*
X82111814Y-83738186D01*
X82085399Y-83705999D01*
X82065774Y-83669284D01*
X82053686Y-83629434D01*
X82049000Y-83581859D01*
X82049000Y-82618141D01*
X82053686Y-82570566D01*
X82065774Y-82530716D01*
X82085399Y-82494001D01*
X82111814Y-82461814D01*
X82144001Y-82435399D01*
X82180716Y-82415774D01*
X82220566Y-82403686D01*
X82268141Y-82399000D01*
X82931859Y-82399000D01*
X82979434Y-82403686D01*
G37*
G36*
X66979434Y-82403686D02*
G01*
X67019284Y-82415774D01*
X67055999Y-82435399D01*
X67088186Y-82461814D01*
X67114601Y-82494001D01*
X67134226Y-82530716D01*
X67146314Y-82570566D01*
X67151000Y-82618141D01*
X67151000Y-83581859D01*
X67146314Y-83629434D01*
X67134226Y-83669284D01*
X67114601Y-83705999D01*
X67088186Y-83738186D01*
X67055999Y-83764601D01*
X67019284Y-83784226D01*
X66979434Y-83796314D01*
X66931859Y-83801000D01*
X66268141Y-83801000D01*
X66220566Y-83796314D01*
X66180716Y-83784226D01*
X66144001Y-83764601D01*
X66111814Y-83738186D01*
X66085399Y-83705999D01*
X66065774Y-83669284D01*
X66053686Y-83629434D01*
X66049000Y-83581859D01*
X66049000Y-82618141D01*
X66053686Y-82570566D01*
X66065774Y-82530716D01*
X66085399Y-82494001D01*
X66111814Y-82461814D01*
X66144001Y-82435399D01*
X66180716Y-82415774D01*
X66220566Y-82403686D01*
X66268141Y-82399000D01*
X66931859Y-82399000D01*
X66979434Y-82403686D01*
G37*
G36*
X88369453Y-82203924D02*
G01*
X88411628Y-82216718D01*
X88450488Y-82237489D01*
X88484554Y-82265446D01*
X88512511Y-82299512D01*
X88533282Y-82338372D01*
X88546076Y-82380547D01*
X88551000Y-82430540D01*
X88551000Y-83569460D01*
X88546076Y-83619453D01*
X88533282Y-83661628D01*
X88512511Y-83700488D01*
X88484554Y-83734554D01*
X88450488Y-83762511D01*
X88411628Y-83783282D01*
X88369453Y-83796076D01*
X88319460Y-83801000D01*
X87280540Y-83801000D01*
X87230547Y-83796076D01*
X87188372Y-83783282D01*
X87149512Y-83762511D01*
X87115446Y-83734554D01*
X87087489Y-83700488D01*
X87066718Y-83661628D01*
X87053924Y-83619453D01*
X87049000Y-83569460D01*
X87049000Y-82430540D01*
X87053924Y-82380547D01*
X87066718Y-82338372D01*
X87087489Y-82299512D01*
X87115446Y-82265446D01*
X87149512Y-82237489D01*
X87188372Y-82216718D01*
X87230547Y-82203924D01*
X87280540Y-82199000D01*
X88319460Y-82199000D01*
X88369453Y-82203924D01*
G37*
G36*
X84579434Y-82403686D02*
G01*
X84619284Y-82415774D01*
X84655999Y-82435399D01*
X84688186Y-82461814D01*
X84714601Y-82494001D01*
X84734226Y-82530716D01*
X84746314Y-82570566D01*
X84751000Y-82618141D01*
X84751000Y-83581859D01*
X84746314Y-83629434D01*
X84734226Y-83669284D01*
X84714601Y-83705999D01*
X84688186Y-83738186D01*
X84655999Y-83764601D01*
X84619284Y-83784226D01*
X84579434Y-83796314D01*
X84531859Y-83801000D01*
X83868141Y-83801000D01*
X83820566Y-83796314D01*
X83780716Y-83784226D01*
X83744001Y-83764601D01*
X83711814Y-83738186D01*
X83685399Y-83705999D01*
X83665774Y-83669284D01*
X83653686Y-83629434D01*
X83649000Y-83581859D01*
X83649000Y-82618141D01*
X83653686Y-82570566D01*
X83665774Y-82530716D01*
X83685399Y-82494001D01*
X83711814Y-82461814D01*
X83744001Y-82435399D01*
X83780716Y-82415774D01*
X83820566Y-82403686D01*
X83868141Y-82399000D01*
X84531859Y-82399000D01*
X84579434Y-82403686D01*
G37*
G36*
X70379434Y-82403686D02*
G01*
X70419284Y-82415774D01*
X70455999Y-82435399D01*
X70488186Y-82461814D01*
X70514601Y-82494001D01*
X70534226Y-82530716D01*
X70546314Y-82570566D01*
X70551000Y-82618141D01*
X70551000Y-83581859D01*
X70546314Y-83629434D01*
X70534226Y-83669284D01*
X70514601Y-83705999D01*
X70488186Y-83738186D01*
X70455999Y-83764601D01*
X70419284Y-83784226D01*
X70379434Y-83796314D01*
X70331859Y-83801000D01*
X69668141Y-83801000D01*
X69620566Y-83796314D01*
X69580716Y-83784226D01*
X69544001Y-83764601D01*
X69511814Y-83738186D01*
X69485399Y-83705999D01*
X69465774Y-83669284D01*
X69453686Y-83629434D01*
X69449000Y-83581859D01*
X69449000Y-82618141D01*
X69453686Y-82570566D01*
X69465774Y-82530716D01*
X69485399Y-82494001D01*
X69511814Y-82461814D01*
X69544001Y-82435399D01*
X69580716Y-82415774D01*
X69620566Y-82403686D01*
X69668141Y-82399000D01*
X70331859Y-82399000D01*
X70379434Y-82403686D01*
G37*
G36*
X72369453Y-82203924D02*
G01*
X72411628Y-82216718D01*
X72450488Y-82237489D01*
X72484554Y-82265446D01*
X72512511Y-82299512D01*
X72533282Y-82338372D01*
X72546076Y-82380547D01*
X72551000Y-82430540D01*
X72551000Y-83569460D01*
X72546076Y-83619453D01*
X72533282Y-83661628D01*
X72512511Y-83700488D01*
X72484554Y-83734554D01*
X72450488Y-83762511D01*
X72411628Y-83783282D01*
X72369453Y-83796076D01*
X72319460Y-83801000D01*
X71280540Y-83801000D01*
X71230547Y-83796076D01*
X71188372Y-83783282D01*
X71149512Y-83762511D01*
X71115446Y-83734554D01*
X71087489Y-83700488D01*
X71066718Y-83661628D01*
X71053924Y-83619453D01*
X71049000Y-83569460D01*
X71049000Y-82430540D01*
X71053924Y-82380547D01*
X71066718Y-82338372D01*
X71087489Y-82299512D01*
X71115446Y-82265446D01*
X71149512Y-82237489D01*
X71188372Y-82216718D01*
X71230547Y-82203924D01*
X71280540Y-82199000D01*
X72319460Y-82199000D01*
X72369453Y-82203924D01*
G37*
G36*
X68579434Y-82403686D02*
G01*
X68619284Y-82415774D01*
X68655999Y-82435399D01*
X68688186Y-82461814D01*
X68714601Y-82494001D01*
X68734226Y-82530716D01*
X68746314Y-82570566D01*
X68751000Y-82618141D01*
X68751000Y-83581859D01*
X68746314Y-83629434D01*
X68734226Y-83669284D01*
X68714601Y-83705999D01*
X68688186Y-83738186D01*
X68655999Y-83764601D01*
X68619284Y-83784226D01*
X68579434Y-83796314D01*
X68531859Y-83801000D01*
X67868141Y-83801000D01*
X67820566Y-83796314D01*
X67780716Y-83784226D01*
X67744001Y-83764601D01*
X67711814Y-83738186D01*
X67685399Y-83705999D01*
X67665774Y-83669284D01*
X67653686Y-83629434D01*
X67649000Y-83581859D01*
X67649000Y-82618141D01*
X67653686Y-82570566D01*
X67665774Y-82530716D01*
X67685399Y-82494001D01*
X67711814Y-82461814D01*
X67744001Y-82435399D01*
X67780716Y-82415774D01*
X67820566Y-82403686D01*
X67868141Y-82399000D01*
X68531859Y-82399000D01*
X68579434Y-82403686D01*
G37*
G36*
X81379434Y-82403686D02*
G01*
X81419284Y-82415774D01*
X81455999Y-82435399D01*
X81488186Y-82461814D01*
X81514601Y-82494001D01*
X81534226Y-82530716D01*
X81546314Y-82570566D01*
X81551000Y-82618141D01*
X81551000Y-83581859D01*
X81546314Y-83629434D01*
X81534226Y-83669284D01*
X81514601Y-83705999D01*
X81488186Y-83738186D01*
X81455999Y-83764601D01*
X81419284Y-83784226D01*
X81379434Y-83796314D01*
X81331859Y-83801000D01*
X80668141Y-83801000D01*
X80620566Y-83796314D01*
X80580716Y-83784226D01*
X80544001Y-83764601D01*
X80511814Y-83738186D01*
X80485399Y-83705999D01*
X80465774Y-83669284D01*
X80453686Y-83629434D01*
X80449000Y-83581859D01*
X80449000Y-82618141D01*
X80453686Y-82570566D01*
X80465774Y-82530716D01*
X80485399Y-82494001D01*
X80511814Y-82461814D01*
X80544001Y-82435399D01*
X80580716Y-82415774D01*
X80620566Y-82403686D01*
X80668141Y-82399000D01*
X81331859Y-82399000D01*
X81379434Y-82403686D01*
G37*
G36*
X92365816Y-79932817D02*
G01*
X92397183Y-79942332D01*
X92426089Y-79957783D01*
X92451425Y-79978575D01*
X92472217Y-80003911D01*
X92487668Y-80032817D01*
X92497183Y-80064184D01*
X92501000Y-80102940D01*
X92501000Y-81457060D01*
X92497183Y-81495816D01*
X92487668Y-81527183D01*
X92472217Y-81556089D01*
X92451425Y-81581425D01*
X92426089Y-81602217D01*
X92397183Y-81617668D01*
X92365816Y-81627183D01*
X92327060Y-81631000D01*
X90072940Y-81631000D01*
X90034184Y-81627183D01*
X90002817Y-81617668D01*
X89973911Y-81602217D01*
X89948575Y-81581425D01*
X89927783Y-81556089D01*
X89912332Y-81527183D01*
X89902817Y-81495816D01*
X89899000Y-81457060D01*
X89899000Y-80102940D01*
X89902817Y-80064184D01*
X89912332Y-80032817D01*
X89927783Y-80003911D01*
X89948575Y-79978575D01*
X89973911Y-79957783D01*
X90002817Y-79942332D01*
X90034184Y-79932817D01*
X90072940Y-79929000D01*
X92327060Y-79929000D01*
X92365816Y-79932817D01*
G37*
G36*
X76365816Y-79932817D02*
G01*
X76397183Y-79942332D01*
X76426089Y-79957783D01*
X76451425Y-79978575D01*
X76472217Y-80003911D01*
X76487668Y-80032817D01*
X76497183Y-80064184D01*
X76501000Y-80102940D01*
X76501000Y-81457060D01*
X76497183Y-81495816D01*
X76487668Y-81527183D01*
X76472217Y-81556089D01*
X76451425Y-81581425D01*
X76426089Y-81602217D01*
X76397183Y-81617668D01*
X76365816Y-81627183D01*
X76327060Y-81631000D01*
X74072940Y-81631000D01*
X74034184Y-81627183D01*
X74002817Y-81617668D01*
X73973911Y-81602217D01*
X73948575Y-81581425D01*
X73927783Y-81556089D01*
X73912332Y-81527183D01*
X73902817Y-81495816D01*
X73899000Y-81457060D01*
X73899000Y-80102940D01*
X73902817Y-80064184D01*
X73912332Y-80032817D01*
X73927783Y-80003911D01*
X73948575Y-79978575D01*
X73973911Y-79957783D01*
X74002817Y-79942332D01*
X74034184Y-79932817D01*
X74072940Y-79929000D01*
X76327060Y-79929000D01*
X76365816Y-79932817D01*
G37*
G36*
X68579434Y-80203686D02*
G01*
X68619284Y-80215774D01*
X68655999Y-80235399D01*
X68688186Y-80261814D01*
X68714601Y-80294001D01*
X68734226Y-80330716D01*
X68746314Y-80370566D01*
X68751000Y-80418141D01*
X68751000Y-81381859D01*
X68746314Y-81429434D01*
X68734226Y-81469284D01*
X68714601Y-81505999D01*
X68688186Y-81538186D01*
X68655999Y-81564601D01*
X68619284Y-81584226D01*
X68579434Y-81596314D01*
X68531859Y-81601000D01*
X67868141Y-81601000D01*
X67820566Y-81596314D01*
X67780716Y-81584226D01*
X67744001Y-81564601D01*
X67711814Y-81538186D01*
X67685399Y-81505999D01*
X67665774Y-81469284D01*
X67653686Y-81429434D01*
X67649000Y-81381859D01*
X67649000Y-80418141D01*
X67653686Y-80370566D01*
X67665774Y-80330716D01*
X67685399Y-80294001D01*
X67711814Y-80261814D01*
X67744001Y-80235399D01*
X67780716Y-80215774D01*
X67820566Y-80203686D01*
X67868141Y-80199000D01*
X68531859Y-80199000D01*
X68579434Y-80203686D01*
G37*
G36*
X70379434Y-80203686D02*
G01*
X70419284Y-80215774D01*
X70455999Y-80235399D01*
X70488186Y-80261814D01*
X70514601Y-80294001D01*
X70534226Y-80330716D01*
X70546314Y-80370566D01*
X70551000Y-80418141D01*
X70551000Y-81381859D01*
X70546314Y-81429434D01*
X70534226Y-81469284D01*
X70514601Y-81505999D01*
X70488186Y-81538186D01*
X70455999Y-81564601D01*
X70419284Y-81584226D01*
X70379434Y-81596314D01*
X70331859Y-81601000D01*
X69668141Y-81601000D01*
X69620566Y-81596314D01*
X69580716Y-81584226D01*
X69544001Y-81564601D01*
X69511814Y-81538186D01*
X69485399Y-81505999D01*
X69465774Y-81469284D01*
X69453686Y-81429434D01*
X69449000Y-81381859D01*
X69449000Y-80418141D01*
X69453686Y-80370566D01*
X69465774Y-80330716D01*
X69485399Y-80294001D01*
X69511814Y-80261814D01*
X69544001Y-80235399D01*
X69580716Y-80215774D01*
X69620566Y-80203686D01*
X69668141Y-80199000D01*
X70331859Y-80199000D01*
X70379434Y-80203686D01*
G37*
G36*
X86379434Y-80203686D02*
G01*
X86419284Y-80215774D01*
X86455999Y-80235399D01*
X86488186Y-80261814D01*
X86514601Y-80294001D01*
X86534226Y-80330716D01*
X86546314Y-80370566D01*
X86551000Y-80418141D01*
X86551000Y-81381859D01*
X86546314Y-81429434D01*
X86534226Y-81469284D01*
X86514601Y-81505999D01*
X86488186Y-81538186D01*
X86455999Y-81564601D01*
X86419284Y-81584226D01*
X86379434Y-81596314D01*
X86331859Y-81601000D01*
X85668141Y-81601000D01*
X85620566Y-81596314D01*
X85580716Y-81584226D01*
X85544001Y-81564601D01*
X85511814Y-81538186D01*
X85485399Y-81505999D01*
X85465774Y-81469284D01*
X85453686Y-81429434D01*
X85449000Y-81381859D01*
X85449000Y-80418141D01*
X85453686Y-80370566D01*
X85465774Y-80330716D01*
X85485399Y-80294001D01*
X85511814Y-80261814D01*
X85544001Y-80235399D01*
X85580716Y-80215774D01*
X85620566Y-80203686D01*
X85668141Y-80199000D01*
X86331859Y-80199000D01*
X86379434Y-80203686D01*
G37*
G36*
X81379434Y-80203686D02*
G01*
X81419284Y-80215774D01*
X81455999Y-80235399D01*
X81488186Y-80261814D01*
X81514601Y-80294001D01*
X81534226Y-80330716D01*
X81546314Y-80370566D01*
X81551000Y-80418141D01*
X81551000Y-81381859D01*
X81546314Y-81429434D01*
X81534226Y-81469284D01*
X81514601Y-81505999D01*
X81488186Y-81538186D01*
X81455999Y-81564601D01*
X81419284Y-81584226D01*
X81379434Y-81596314D01*
X81331859Y-81601000D01*
X80668141Y-81601000D01*
X80620566Y-81596314D01*
X80580716Y-81584226D01*
X80544001Y-81564601D01*
X80511814Y-81538186D01*
X80485399Y-81505999D01*
X80465774Y-81469284D01*
X80453686Y-81429434D01*
X80449000Y-81381859D01*
X80449000Y-80418141D01*
X80453686Y-80370566D01*
X80465774Y-80330716D01*
X80485399Y-80294001D01*
X80511814Y-80261814D01*
X80544001Y-80235399D01*
X80580716Y-80215774D01*
X80620566Y-80203686D01*
X80668141Y-80199000D01*
X81331859Y-80199000D01*
X81379434Y-80203686D01*
G37*
G36*
X65379434Y-80203686D02*
G01*
X65419284Y-80215774D01*
X65455999Y-80235399D01*
X65488186Y-80261814D01*
X65514601Y-80294001D01*
X65534226Y-80330716D01*
X65546314Y-80370566D01*
X65551000Y-80418141D01*
X65551000Y-81381859D01*
X65546314Y-81429434D01*
X65534226Y-81469284D01*
X65514601Y-81505999D01*
X65488186Y-81538186D01*
X65455999Y-81564601D01*
X65419284Y-81584226D01*
X65379434Y-81596314D01*
X65331859Y-81601000D01*
X64668141Y-81601000D01*
X64620566Y-81596314D01*
X64580716Y-81584226D01*
X64544001Y-81564601D01*
X64511814Y-81538186D01*
X64485399Y-81505999D01*
X64465774Y-81469284D01*
X64453686Y-81429434D01*
X64449000Y-81381859D01*
X64449000Y-80418141D01*
X64453686Y-80370566D01*
X64465774Y-80330716D01*
X64485399Y-80294001D01*
X64511814Y-80261814D01*
X64544001Y-80235399D01*
X64580716Y-80215774D01*
X64620566Y-80203686D01*
X64668141Y-80199000D01*
X65331859Y-80199000D01*
X65379434Y-80203686D01*
G37*
G36*
X66979434Y-80203686D02*
G01*
X67019284Y-80215774D01*
X67055999Y-80235399D01*
X67088186Y-80261814D01*
X67114601Y-80294001D01*
X67134226Y-80330716D01*
X67146314Y-80370566D01*
X67151000Y-80418141D01*
X67151000Y-81381859D01*
X67146314Y-81429434D01*
X67134226Y-81469284D01*
X67114601Y-81505999D01*
X67088186Y-81538186D01*
X67055999Y-81564601D01*
X67019284Y-81584226D01*
X66979434Y-81596314D01*
X66931859Y-81601000D01*
X66268141Y-81601000D01*
X66220566Y-81596314D01*
X66180716Y-81584226D01*
X66144001Y-81564601D01*
X66111814Y-81538186D01*
X66085399Y-81505999D01*
X66065774Y-81469284D01*
X66053686Y-81429434D01*
X66049000Y-81381859D01*
X66049000Y-80418141D01*
X66053686Y-80370566D01*
X66065774Y-80330716D01*
X66085399Y-80294001D01*
X66111814Y-80261814D01*
X66144001Y-80235399D01*
X66180716Y-80215774D01*
X66220566Y-80203686D01*
X66268141Y-80199000D01*
X66931859Y-80199000D01*
X66979434Y-80203686D01*
G37*
G36*
X82979434Y-80203686D02*
G01*
X83019284Y-80215774D01*
X83055999Y-80235399D01*
X83088186Y-80261814D01*
X83114601Y-80294001D01*
X83134226Y-80330716D01*
X83146314Y-80370566D01*
X83151000Y-80418141D01*
X83151000Y-81381859D01*
X83146314Y-81429434D01*
X83134226Y-81469284D01*
X83114601Y-81505999D01*
X83088186Y-81538186D01*
X83055999Y-81564601D01*
X83019284Y-81584226D01*
X82979434Y-81596314D01*
X82931859Y-81601000D01*
X82268141Y-81601000D01*
X82220566Y-81596314D01*
X82180716Y-81584226D01*
X82144001Y-81564601D01*
X82111814Y-81538186D01*
X82085399Y-81505999D01*
X82065774Y-81469284D01*
X82053686Y-81429434D01*
X82049000Y-81381859D01*
X82049000Y-80418141D01*
X82053686Y-80370566D01*
X82065774Y-80330716D01*
X82085399Y-80294001D01*
X82111814Y-80261814D01*
X82144001Y-80235399D01*
X82180716Y-80215774D01*
X82220566Y-80203686D01*
X82268141Y-80199000D01*
X82931859Y-80199000D01*
X82979434Y-80203686D01*
G37*
G36*
X84579434Y-80203686D02*
G01*
X84619284Y-80215774D01*
X84655999Y-80235399D01*
X84688186Y-80261814D01*
X84714601Y-80294001D01*
X84734226Y-80330716D01*
X84746314Y-80370566D01*
X84751000Y-80418141D01*
X84751000Y-81381859D01*
X84746314Y-81429434D01*
X84734226Y-81469284D01*
X84714601Y-81505999D01*
X84688186Y-81538186D01*
X84655999Y-81564601D01*
X84619284Y-81584226D01*
X84579434Y-81596314D01*
X84531859Y-81601000D01*
X83868141Y-81601000D01*
X83820566Y-81596314D01*
X83780716Y-81584226D01*
X83744001Y-81564601D01*
X83711814Y-81538186D01*
X83685399Y-81505999D01*
X83665774Y-81469284D01*
X83653686Y-81429434D01*
X83649000Y-81381859D01*
X83649000Y-80418141D01*
X83653686Y-80370566D01*
X83665774Y-80330716D01*
X83685399Y-80294001D01*
X83711814Y-80261814D01*
X83744001Y-80235399D01*
X83780716Y-80215774D01*
X83820566Y-80203686D01*
X83868141Y-80199000D01*
X84531859Y-80199000D01*
X84579434Y-80203686D01*
G37*
G36*
X72369453Y-79803924D02*
G01*
X72411628Y-79816718D01*
X72450488Y-79837489D01*
X72484554Y-79865446D01*
X72512511Y-79899512D01*
X72533282Y-79938372D01*
X72546076Y-79980547D01*
X72551000Y-80030540D01*
X72551000Y-81169460D01*
X72546076Y-81219453D01*
X72533282Y-81261628D01*
X72512511Y-81300488D01*
X72484554Y-81334554D01*
X72450488Y-81362511D01*
X72411628Y-81383282D01*
X72369453Y-81396076D01*
X72319460Y-81401000D01*
X71280540Y-81401000D01*
X71230547Y-81396076D01*
X71188372Y-81383282D01*
X71149512Y-81362511D01*
X71115446Y-81334554D01*
X71087489Y-81300488D01*
X71066718Y-81261628D01*
X71053924Y-81219453D01*
X71049000Y-81169460D01*
X71049000Y-80030540D01*
X71053924Y-79980547D01*
X71066718Y-79938372D01*
X71087489Y-79899512D01*
X71115446Y-79865446D01*
X71149512Y-79837489D01*
X71188372Y-79816718D01*
X71230547Y-79803924D01*
X71280540Y-79799000D01*
X72319460Y-79799000D01*
X72369453Y-79803924D01*
G37*
G36*
X88369453Y-79803924D02*
G01*
X88411628Y-79816718D01*
X88450488Y-79837489D01*
X88484554Y-79865446D01*
X88512511Y-79899512D01*
X88533282Y-79938372D01*
X88546076Y-79980547D01*
X88551000Y-80030540D01*
X88551000Y-81169460D01*
X88546076Y-81219453D01*
X88533282Y-81261628D01*
X88512511Y-81300488D01*
X88484554Y-81334554D01*
X88450488Y-81362511D01*
X88411628Y-81383282D01*
X88369453Y-81396076D01*
X88319460Y-81401000D01*
X87280540Y-81401000D01*
X87230547Y-81396076D01*
X87188372Y-81383282D01*
X87149512Y-81362511D01*
X87115446Y-81334554D01*
X87087489Y-81300488D01*
X87066718Y-81261628D01*
X87053924Y-81219453D01*
X87049000Y-81169460D01*
X87049000Y-80030540D01*
X87053924Y-79980547D01*
X87066718Y-79938372D01*
X87087489Y-79899512D01*
X87115446Y-79865446D01*
X87149512Y-79837489D01*
X87188372Y-79816718D01*
X87230547Y-79803924D01*
X87280540Y-79799000D01*
X88319460Y-79799000D01*
X88369453Y-79803924D01*
G37*
G36*
X76365816Y-77392817D02*
G01*
X76397183Y-77402332D01*
X76426089Y-77417783D01*
X76451425Y-77438575D01*
X76472217Y-77463911D01*
X76487668Y-77492817D01*
X76497183Y-77524184D01*
X76501000Y-77562940D01*
X76501000Y-78917060D01*
X76497183Y-78955816D01*
X76487668Y-78987183D01*
X76472217Y-79016089D01*
X76451425Y-79041425D01*
X76426089Y-79062217D01*
X76397183Y-79077668D01*
X76365816Y-79087183D01*
X76327060Y-79091000D01*
X74072940Y-79091000D01*
X74034184Y-79087183D01*
X74002817Y-79077668D01*
X73973911Y-79062217D01*
X73948575Y-79041425D01*
X73927783Y-79016089D01*
X73912332Y-78987183D01*
X73902817Y-78955816D01*
X73899000Y-78917060D01*
X73899000Y-77562940D01*
X73902817Y-77524184D01*
X73912332Y-77492817D01*
X73927783Y-77463911D01*
X73948575Y-77438575D01*
X73973911Y-77417783D01*
X74002817Y-77402332D01*
X74034184Y-77392817D01*
X74072940Y-77389000D01*
X76327060Y-77389000D01*
X76365816Y-77392817D01*
G37*
G36*
X92365816Y-77392817D02*
G01*
X92397183Y-77402332D01*
X92426089Y-77417783D01*
X92451425Y-77438575D01*
X92472217Y-77463911D01*
X92487668Y-77492817D01*
X92497183Y-77524184D01*
X92501000Y-77562940D01*
X92501000Y-78917060D01*
X92497183Y-78955816D01*
X92487668Y-78987183D01*
X92472217Y-79016089D01*
X92451425Y-79041425D01*
X92426089Y-79062217D01*
X92397183Y-79077668D01*
X92365816Y-79087183D01*
X92327060Y-79091000D01*
X90072940Y-79091000D01*
X90034184Y-79087183D01*
X90002817Y-79077668D01*
X89973911Y-79062217D01*
X89948575Y-79041425D01*
X89927783Y-79016089D01*
X89912332Y-78987183D01*
X89902817Y-78955816D01*
X89899000Y-78917060D01*
X89899000Y-77562940D01*
X89902817Y-77524184D01*
X89912332Y-77492817D01*
X89927783Y-77463911D01*
X89948575Y-77438575D01*
X89973911Y-77417783D01*
X90002817Y-77402332D01*
X90034184Y-77392817D01*
X90072940Y-77389000D01*
X92327060Y-77389000D01*
X92365816Y-77392817D01*
G37*
G36*
X76365816Y-74852817D02*
G01*
X76397183Y-74862332D01*
X76426089Y-74877783D01*
X76451425Y-74898575D01*
X76472217Y-74923911D01*
X76487668Y-74952817D01*
X76497183Y-74984184D01*
X76501000Y-75022940D01*
X76501000Y-76377060D01*
X76497183Y-76415816D01*
X76487668Y-76447183D01*
X76472217Y-76476089D01*
X76451425Y-76501425D01*
X76426089Y-76522217D01*
X76397183Y-76537668D01*
X76365816Y-76547183D01*
X76327060Y-76551000D01*
X74072940Y-76551000D01*
X74034184Y-76547183D01*
X74002817Y-76537668D01*
X73973911Y-76522217D01*
X73948575Y-76501425D01*
X73927783Y-76476089D01*
X73912332Y-76447183D01*
X73902817Y-76415816D01*
X73899000Y-76377060D01*
X73899000Y-75022940D01*
X73902817Y-74984184D01*
X73912332Y-74952817D01*
X73927783Y-74923911D01*
X73948575Y-74898575D01*
X73973911Y-74877783D01*
X74002817Y-74862332D01*
X74034184Y-74852817D01*
X74072940Y-74849000D01*
X76327060Y-74849000D01*
X76365816Y-74852817D01*
G37*
G36*
X92365816Y-74852817D02*
G01*
X92397183Y-74862332D01*
X92426089Y-74877783D01*
X92451425Y-74898575D01*
X92472217Y-74923911D01*
X92487668Y-74952817D01*
X92497183Y-74984184D01*
X92501000Y-75022940D01*
X92501000Y-76377060D01*
X92497183Y-76415816D01*
X92487668Y-76447183D01*
X92472217Y-76476089D01*
X92451425Y-76501425D01*
X92426089Y-76522217D01*
X92397183Y-76537668D01*
X92365816Y-76547183D01*
X92327060Y-76551000D01*
X90072940Y-76551000D01*
X90034184Y-76547183D01*
X90002817Y-76537668D01*
X89973911Y-76522217D01*
X89948575Y-76501425D01*
X89927783Y-76476089D01*
X89912332Y-76447183D01*
X89902817Y-76415816D01*
X89899000Y-76377060D01*
X89899000Y-75022940D01*
X89902817Y-74984184D01*
X89912332Y-74952817D01*
X89927783Y-74923911D01*
X89948575Y-74898575D01*
X89973911Y-74877783D01*
X90002817Y-74862332D01*
X90034184Y-74852817D01*
X90072940Y-74849000D01*
X92327060Y-74849000D01*
X92365816Y-74852817D01*
G37*
G36*
X80449560Y-73353205D02*
G01*
X80484713Y-73363869D01*
X80517110Y-73381186D01*
X80545509Y-73404491D01*
X80568814Y-73432890D01*
X80586131Y-73465287D01*
X80596795Y-73500440D01*
X80601000Y-73543140D01*
X80601000Y-74456860D01*
X80596795Y-74499560D01*
X80586131Y-74534713D01*
X80568814Y-74567110D01*
X80545509Y-74595509D01*
X80517110Y-74618814D01*
X80484713Y-74636131D01*
X80449560Y-74646795D01*
X80406860Y-74651000D01*
X79793140Y-74651000D01*
X79750440Y-74646795D01*
X79715287Y-74636131D01*
X79682890Y-74618814D01*
X79654491Y-74595509D01*
X79631186Y-74567110D01*
X79613869Y-74534713D01*
X79603205Y-74499560D01*
X79599000Y-74456860D01*
X79599000Y-73543140D01*
X79603205Y-73500440D01*
X79613869Y-73465287D01*
X79631186Y-73432890D01*
X79654491Y-73404491D01*
X79682890Y-73381186D01*
X79715287Y-73363869D01*
X79750440Y-73353205D01*
X79793140Y-73349000D01*
X80406860Y-73349000D01*
X80449560Y-73353205D01*
G37*
G36*
X82649560Y-73353205D02*
G01*
X82684713Y-73363869D01*
X82717110Y-73381186D01*
X82745509Y-73404491D01*
X82768814Y-73432890D01*
X82786131Y-73465287D01*
X82796795Y-73500440D01*
X82801000Y-73543140D01*
X82801000Y-74456860D01*
X82796795Y-74499560D01*
X82786131Y-74534713D01*
X82768814Y-74567110D01*
X82745509Y-74595509D01*
X82717110Y-74618814D01*
X82684713Y-74636131D01*
X82649560Y-74646795D01*
X82606860Y-74651000D01*
X81993140Y-74651000D01*
X81950440Y-74646795D01*
X81915287Y-74636131D01*
X81882890Y-74618814D01*
X81854491Y-74595509D01*
X81831186Y-74567110D01*
X81813869Y-74534713D01*
X81803205Y-74499560D01*
X81799000Y-74456860D01*
X81799000Y-73543140D01*
X81803205Y-73500440D01*
X81813869Y-73465287D01*
X81831186Y-73432890D01*
X81854491Y-73404491D01*
X81882890Y-73381186D01*
X81915287Y-73363869D01*
X81950440Y-73353205D01*
X81993140Y-73349000D01*
X82606860Y-73349000D01*
X82649560Y-73353205D01*
G37*
G36*
X66649560Y-73353205D02*
G01*
X66684713Y-73363869D01*
X66717110Y-73381186D01*
X66745509Y-73404491D01*
X66768814Y-73432890D01*
X66786131Y-73465287D01*
X66796795Y-73500440D01*
X66801000Y-73543140D01*
X66801000Y-74456860D01*
X66796795Y-74499560D01*
X66786131Y-74534713D01*
X66768814Y-74567110D01*
X66745509Y-74595509D01*
X66717110Y-74618814D01*
X66684713Y-74636131D01*
X66649560Y-74646795D01*
X66606860Y-74651000D01*
X65993140Y-74651000D01*
X65950440Y-74646795D01*
X65915287Y-74636131D01*
X65882890Y-74618814D01*
X65854491Y-74595509D01*
X65831186Y-74567110D01*
X65813869Y-74534713D01*
X65803205Y-74499560D01*
X65799000Y-74456860D01*
X65799000Y-73543140D01*
X65803205Y-73500440D01*
X65813869Y-73465287D01*
X65831186Y-73432890D01*
X65854491Y-73404491D01*
X65882890Y-73381186D01*
X65915287Y-73363869D01*
X65950440Y-73353205D01*
X65993140Y-73349000D01*
X66606860Y-73349000D01*
X66649560Y-73353205D01*
G37*
G36*
X64449560Y-73353205D02*
G01*
X64484713Y-73363869D01*
X64517110Y-73381186D01*
X64545509Y-73404491D01*
X64568814Y-73432890D01*
X64586131Y-73465287D01*
X64596795Y-73500440D01*
X64601000Y-73543140D01*
X64601000Y-74456860D01*
X64596795Y-74499560D01*
X64586131Y-74534713D01*
X64568814Y-74567110D01*
X64545509Y-74595509D01*
X64517110Y-74618814D01*
X64484713Y-74636131D01*
X64449560Y-74646795D01*
X64406860Y-74651000D01*
X63793140Y-74651000D01*
X63750440Y-74646795D01*
X63715287Y-74636131D01*
X63682890Y-74618814D01*
X63654491Y-74595509D01*
X63631186Y-74567110D01*
X63613869Y-74534713D01*
X63603205Y-74499560D01*
X63599000Y-74456860D01*
X63599000Y-73543140D01*
X63603205Y-73500440D01*
X63613869Y-73465287D01*
X63631186Y-73432890D01*
X63654491Y-73404491D01*
X63682890Y-73381186D01*
X63715287Y-73363869D01*
X63750440Y-73353205D01*
X63793140Y-73349000D01*
X64406860Y-73349000D01*
X64449560Y-73353205D01*
G37*
G36*
X68069683Y-71802725D02*
G01*
X68100143Y-71811966D01*
X68128223Y-71826974D01*
X68152831Y-71847169D01*
X68173026Y-71871777D01*
X68188034Y-71899857D01*
X68197275Y-71930317D01*
X68201000Y-71968140D01*
X68201000Y-72531860D01*
X68197275Y-72569683D01*
X68188034Y-72600143D01*
X68173026Y-72628223D01*
X68152831Y-72652831D01*
X68128223Y-72673026D01*
X68100143Y-72688034D01*
X68069683Y-72697275D01*
X68031860Y-72701000D01*
X66768140Y-72701000D01*
X66730317Y-72697275D01*
X66699857Y-72688034D01*
X66671777Y-72673026D01*
X66647169Y-72652831D01*
X66626974Y-72628223D01*
X66611966Y-72600143D01*
X66602725Y-72569683D01*
X66599000Y-72531860D01*
X66599000Y-71968140D01*
X66602725Y-71930317D01*
X66611966Y-71899857D01*
X66626974Y-71871777D01*
X66647169Y-71847169D01*
X66671777Y-71826974D01*
X66699857Y-71811966D01*
X66730317Y-71802725D01*
X66768140Y-71799000D01*
X68031860Y-71799000D01*
X68069683Y-71802725D01*
G37*
G36*
X84069683Y-71802725D02*
G01*
X84100143Y-71811966D01*
X84128223Y-71826974D01*
X84152831Y-71847169D01*
X84173026Y-71871777D01*
X84188034Y-71899857D01*
X84197275Y-71930317D01*
X84201000Y-71968140D01*
X84201000Y-72531860D01*
X84197275Y-72569683D01*
X84188034Y-72600143D01*
X84173026Y-72628223D01*
X84152831Y-72652831D01*
X84128223Y-72673026D01*
X84100143Y-72688034D01*
X84069683Y-72697275D01*
X84031860Y-72701000D01*
X82768140Y-72701000D01*
X82730317Y-72697275D01*
X82699857Y-72688034D01*
X82671777Y-72673026D01*
X82647169Y-72652831D01*
X82626974Y-72628223D01*
X82611966Y-72600143D01*
X82602725Y-72569683D01*
X82599000Y-72531860D01*
X82599000Y-71968140D01*
X82602725Y-71930317D01*
X82611966Y-71899857D01*
X82626974Y-71871777D01*
X82647169Y-71847169D01*
X82671777Y-71826974D01*
X82699857Y-71811966D01*
X82730317Y-71802725D01*
X82768140Y-71799000D01*
X84031860Y-71799000D01*
X84069683Y-71802725D01*
G37*
G36*
X81297740Y-71008626D02*
G01*
X81346136Y-71018253D01*
X81383902Y-71033896D01*
X81437311Y-71056019D01*
X81478062Y-71083248D01*
X81519369Y-71110848D01*
X81589152Y-71180631D01*
X81589153Y-71180633D01*
X81643981Y-71262689D01*
X81681747Y-71353865D01*
X81701000Y-71450655D01*
X81701000Y-71549345D01*
X81681747Y-71646135D01*
X81643981Y-71737311D01*
X81643980Y-71737312D01*
X81589152Y-71819369D01*
X81519369Y-71889152D01*
X81478062Y-71916752D01*
X81437311Y-71943981D01*
X81383902Y-71966104D01*
X81346136Y-71981747D01*
X81297740Y-71991374D01*
X81249345Y-72001000D01*
X81150655Y-72001000D01*
X81102260Y-71991374D01*
X81053864Y-71981747D01*
X81016098Y-71966104D01*
X80962689Y-71943981D01*
X80921938Y-71916752D01*
X80880631Y-71889152D01*
X80810848Y-71819369D01*
X80756020Y-71737312D01*
X80756019Y-71737311D01*
X80718253Y-71646135D01*
X80699000Y-71549345D01*
X80699000Y-71450655D01*
X80718253Y-71353865D01*
X80756019Y-71262689D01*
X80810847Y-71180633D01*
X80810848Y-71180631D01*
X80880631Y-71110848D01*
X80921938Y-71083248D01*
X80962689Y-71056019D01*
X81016098Y-71033896D01*
X81053864Y-71018253D01*
X81102260Y-71008626D01*
X81150655Y-70999000D01*
X81249345Y-70999000D01*
X81297740Y-71008626D01*
G37*
G36*
X65297740Y-71008626D02*
G01*
X65346136Y-71018253D01*
X65383902Y-71033896D01*
X65437311Y-71056019D01*
X65478062Y-71083248D01*
X65519369Y-71110848D01*
X65589152Y-71180631D01*
X65589153Y-71180633D01*
X65643981Y-71262689D01*
X65681747Y-71353865D01*
X65701000Y-71450655D01*
X65701000Y-71549345D01*
X65681747Y-71646135D01*
X65643981Y-71737311D01*
X65643980Y-71737312D01*
X65589152Y-71819369D01*
X65519369Y-71889152D01*
X65478062Y-71916752D01*
X65437311Y-71943981D01*
X65383902Y-71966104D01*
X65346136Y-71981747D01*
X65297740Y-71991374D01*
X65249345Y-72001000D01*
X65150655Y-72001000D01*
X65102260Y-71991374D01*
X65053864Y-71981747D01*
X65016098Y-71966104D01*
X64962689Y-71943981D01*
X64921938Y-71916752D01*
X64880631Y-71889152D01*
X64810848Y-71819369D01*
X64756020Y-71737312D01*
X64756019Y-71737311D01*
X64718253Y-71646135D01*
X64699000Y-71549345D01*
X64699000Y-71450655D01*
X64718253Y-71353865D01*
X64756019Y-71262689D01*
X64810847Y-71180633D01*
X64810848Y-71180631D01*
X64880631Y-71110848D01*
X64921938Y-71083248D01*
X64962689Y-71056019D01*
X65016098Y-71033896D01*
X65053864Y-71018253D01*
X65102260Y-71008626D01*
X65150655Y-70999000D01*
X65249345Y-70999000D01*
X65297740Y-71008626D01*
G37*
G36*
X68069683Y-70302725D02*
G01*
X68100143Y-70311966D01*
X68128223Y-70326974D01*
X68152831Y-70347169D01*
X68173026Y-70371777D01*
X68188034Y-70399857D01*
X68197275Y-70430317D01*
X68201000Y-70468140D01*
X68201000Y-71031860D01*
X68197275Y-71069683D01*
X68188034Y-71100143D01*
X68173026Y-71128223D01*
X68152831Y-71152831D01*
X68128223Y-71173026D01*
X68100143Y-71188034D01*
X68069683Y-71197275D01*
X68031860Y-71201000D01*
X66768140Y-71201000D01*
X66730317Y-71197275D01*
X66699857Y-71188034D01*
X66671777Y-71173026D01*
X66647169Y-71152831D01*
X66626974Y-71128223D01*
X66611966Y-71100143D01*
X66602725Y-71069683D01*
X66599000Y-71031860D01*
X66599000Y-70468140D01*
X66602725Y-70430317D01*
X66611966Y-70399857D01*
X66626974Y-70371777D01*
X66647169Y-70347169D01*
X66671777Y-70326974D01*
X66699857Y-70311966D01*
X66730317Y-70302725D01*
X66768140Y-70299000D01*
X68031860Y-70299000D01*
X68069683Y-70302725D01*
G37*
G36*
X84069683Y-70302725D02*
G01*
X84100143Y-70311966D01*
X84128223Y-70326974D01*
X84152831Y-70347169D01*
X84173026Y-70371777D01*
X84188034Y-70399857D01*
X84197275Y-70430317D01*
X84201000Y-70468140D01*
X84201000Y-71031860D01*
X84197275Y-71069683D01*
X84188034Y-71100143D01*
X84173026Y-71128223D01*
X84152831Y-71152831D01*
X84128223Y-71173026D01*
X84100143Y-71188034D01*
X84069683Y-71197275D01*
X84031860Y-71201000D01*
X82768140Y-71201000D01*
X82730317Y-71197275D01*
X82699857Y-71188034D01*
X82671777Y-71173026D01*
X82647169Y-71152831D01*
X82626974Y-71128223D01*
X82611966Y-71100143D01*
X82602725Y-71069683D01*
X82599000Y-71031860D01*
X82599000Y-70468140D01*
X82602725Y-70430317D01*
X82611966Y-70399857D01*
X82626974Y-70371777D01*
X82647169Y-70347169D01*
X82671777Y-70326974D01*
X82699857Y-70311966D01*
X82730317Y-70302725D01*
X82768140Y-70299000D01*
X84031860Y-70299000D01*
X84069683Y-70302725D01*
G37*
G36*
X75352505Y-69003732D02*
G01*
X75392798Y-69015955D01*
X75429935Y-69035805D01*
X75462483Y-69062517D01*
X75489195Y-69095065D01*
X75509045Y-69132202D01*
X75521268Y-69172495D01*
X75526000Y-69220541D01*
X75526000Y-70579459D01*
X75521268Y-70627505D01*
X75509045Y-70667798D01*
X75489195Y-70704935D01*
X75462483Y-70737483D01*
X75429935Y-70764195D01*
X75392798Y-70784045D01*
X75352505Y-70796268D01*
X75304459Y-70801000D01*
X74295541Y-70801000D01*
X74247495Y-70796268D01*
X74207202Y-70784045D01*
X74170065Y-70764195D01*
X74137517Y-70737483D01*
X74110805Y-70704935D01*
X74090955Y-70667798D01*
X74078732Y-70627505D01*
X74074000Y-70579459D01*
X74074000Y-69220541D01*
X74078732Y-69172495D01*
X74090955Y-69132202D01*
X74110805Y-69095065D01*
X74137517Y-69062517D01*
X74170065Y-69035805D01*
X74207202Y-69015955D01*
X74247495Y-69003732D01*
X74295541Y-68999000D01*
X75304459Y-68999000D01*
X75352505Y-69003732D01*
G37*
G36*
X91352505Y-69003732D02*
G01*
X91392798Y-69015955D01*
X91429935Y-69035805D01*
X91462483Y-69062517D01*
X91489195Y-69095065D01*
X91509045Y-69132202D01*
X91521268Y-69172495D01*
X91526000Y-69220541D01*
X91526000Y-70579459D01*
X91521268Y-70627505D01*
X91509045Y-70667798D01*
X91489195Y-70704935D01*
X91462483Y-70737483D01*
X91429935Y-70764195D01*
X91392798Y-70784045D01*
X91352505Y-70796268D01*
X91304459Y-70801000D01*
X90295541Y-70801000D01*
X90247495Y-70796268D01*
X90207202Y-70784045D01*
X90170065Y-70764195D01*
X90137517Y-70737483D01*
X90110805Y-70704935D01*
X90090955Y-70667798D01*
X90078732Y-70627505D01*
X90074000Y-70579459D01*
X90074000Y-69220541D01*
X90078732Y-69172495D01*
X90090955Y-69132202D01*
X90110805Y-69095065D01*
X90137517Y-69062517D01*
X90170065Y-69035805D01*
X90207202Y-69015955D01*
X90247495Y-69003732D01*
X90295541Y-68999000D01*
X91304459Y-68999000D01*
X91352505Y-69003732D01*
G37*
G36*
X72653355Y-61754308D02*
G01*
X72699281Y-61768240D01*
X72741602Y-61790861D01*
X72778697Y-61821303D01*
X72809139Y-61858398D01*
X72831760Y-61900719D01*
X72845692Y-61946645D01*
X72851000Y-62000540D01*
X72851000Y-63099460D01*
X72845692Y-63153355D01*
X72831760Y-63199281D01*
X72809139Y-63241602D01*
X72778697Y-63278697D01*
X72738422Y-63311750D01*
X72721095Y-63329077D01*
X72707481Y-63349452D01*
X72698104Y-63372091D01*
X72693324Y-63396124D01*
X72693324Y-63420628D01*
X72698105Y-63444661D01*
X72707482Y-63467300D01*
X72721096Y-63487674D01*
X72738423Y-63505001D01*
X72769886Y-63523859D01*
X72792576Y-63533257D01*
X72792577Y-63533258D01*
X72841876Y-63566198D01*
X72883802Y-63608124D01*
X72911114Y-63649000D01*
X72916743Y-63657425D01*
X72939433Y-63712203D01*
X72951000Y-63770353D01*
X72951000Y-63829647D01*
X72939433Y-63887797D01*
X72926864Y-63918141D01*
X72916742Y-63942577D01*
X72883802Y-63991876D01*
X72841876Y-64033802D01*
X72810818Y-64054554D01*
X72792577Y-64066742D01*
X72767467Y-64077143D01*
X72745857Y-64088695D01*
X72726915Y-64104240D01*
X72711370Y-64123182D01*
X72699819Y-64144793D01*
X72692706Y-64168242D01*
X72690304Y-64192628D01*
X72692706Y-64217014D01*
X72699819Y-64240463D01*
X72711371Y-64262073D01*
X72736003Y-64289252D01*
X72736725Y-64289844D01*
X72739448Y-64291300D01*
X72777484Y-64322515D01*
X72808699Y-64360551D01*
X72831894Y-64403945D01*
X72846177Y-64451031D01*
X72851000Y-64499999D01*
X72851000Y-64500001D01*
X72846177Y-64548969D01*
X72831894Y-64596055D01*
X72808699Y-64639449D01*
X72777484Y-64677485D01*
X72739448Y-64708700D01*
X72721730Y-64718170D01*
X72706458Y-64728375D01*
X72689131Y-64745702D01*
X72675518Y-64766076D01*
X72666140Y-64788715D01*
X72661360Y-64812748D01*
X72661360Y-64837252D01*
X72666140Y-64861285D01*
X72675518Y-64883924D01*
X72689132Y-64904299D01*
X72706459Y-64921626D01*
X72721730Y-64931829D01*
X72739448Y-64941300D01*
X72777484Y-64972515D01*
X72808699Y-65010551D01*
X72831894Y-65053945D01*
X72846177Y-65101031D01*
X72851000Y-65149999D01*
X72851000Y-65150001D01*
X72846177Y-65198969D01*
X72831894Y-65246055D01*
X72808699Y-65289449D01*
X72777484Y-65327485D01*
X72739448Y-65358700D01*
X72721730Y-65368170D01*
X72706458Y-65378375D01*
X72689131Y-65395702D01*
X72675518Y-65416076D01*
X72666140Y-65438715D01*
X72661360Y-65462748D01*
X72661360Y-65487252D01*
X72666140Y-65511285D01*
X72675518Y-65533924D01*
X72689132Y-65554299D01*
X72706459Y-65571626D01*
X72721730Y-65581829D01*
X72739448Y-65591300D01*
X72777484Y-65622515D01*
X72808699Y-65660551D01*
X72831894Y-65703945D01*
X72846177Y-65751031D01*
X72851000Y-65799999D01*
X72851000Y-65800001D01*
X72846177Y-65848969D01*
X72831894Y-65896055D01*
X72808699Y-65939449D01*
X72777484Y-65977485D01*
X72739448Y-66008700D01*
X72721730Y-66018170D01*
X72706458Y-66028375D01*
X72689131Y-66045702D01*
X72675518Y-66066076D01*
X72666140Y-66088715D01*
X72661360Y-66112748D01*
X72661360Y-66137252D01*
X72666140Y-66161285D01*
X72675518Y-66183924D01*
X72689132Y-66204299D01*
X72706459Y-66221626D01*
X72721730Y-66231829D01*
X72739448Y-66241300D01*
X72777484Y-66272515D01*
X72808699Y-66310551D01*
X72831894Y-66353945D01*
X72846177Y-66401031D01*
X72851000Y-66449999D01*
X72851000Y-66450001D01*
X72846177Y-66498969D01*
X72831894Y-66546055D01*
X72808699Y-66589449D01*
X72777484Y-66627485D01*
X72739448Y-66658700D01*
X72721730Y-66668170D01*
X72706458Y-66678375D01*
X72689131Y-66695702D01*
X72675518Y-66716076D01*
X72666140Y-66738715D01*
X72661360Y-66762748D01*
X72661360Y-66787252D01*
X72666140Y-66811285D01*
X72675518Y-66833924D01*
X72689132Y-66854299D01*
X72706459Y-66871626D01*
X72721730Y-66881829D01*
X72739448Y-66891300D01*
X72777484Y-66922515D01*
X72808699Y-66960551D01*
X72831894Y-67003945D01*
X72846177Y-67051031D01*
X72851000Y-67099999D01*
X72851000Y-67100001D01*
X72846177Y-67148969D01*
X72831894Y-67196055D01*
X72808699Y-67239449D01*
X72777484Y-67277485D01*
X72739448Y-67308700D01*
X72736725Y-67310156D01*
X72736003Y-67310748D01*
X72718677Y-67328076D01*
X72705063Y-67348450D01*
X72695686Y-67371089D01*
X72690906Y-67395122D01*
X72690906Y-67419626D01*
X72695687Y-67443660D01*
X72705064Y-67466298D01*
X72718678Y-67486673D01*
X72736006Y-67503999D01*
X72767467Y-67522857D01*
X72792577Y-67533258D01*
X72841876Y-67566198D01*
X72883802Y-67608124D01*
X72895412Y-67625500D01*
X72916743Y-67657425D01*
X72939433Y-67712203D01*
X72951000Y-67770353D01*
X72951000Y-67829647D01*
X72939433Y-67887797D01*
X72935905Y-67896314D01*
X72916742Y-67942577D01*
X72883802Y-67991876D01*
X72841876Y-68033802D01*
X72810816Y-68054555D01*
X72792576Y-68066743D01*
X72769886Y-68076141D01*
X72748276Y-68087692D01*
X72729334Y-68103237D01*
X72713788Y-68122179D01*
X72702237Y-68143789D01*
X72695124Y-68167238D01*
X72692722Y-68191624D01*
X72695124Y-68216011D01*
X72702237Y-68239460D01*
X72713788Y-68261070D01*
X72738422Y-68288250D01*
X72778697Y-68321303D01*
X72809139Y-68358398D01*
X72831760Y-68400719D01*
X72845692Y-68446645D01*
X72851000Y-68500540D01*
X72851000Y-69599460D01*
X72845692Y-69653355D01*
X72831760Y-69699281D01*
X72809139Y-69741602D01*
X72778697Y-69778697D01*
X72741602Y-69809139D01*
X72699281Y-69831760D01*
X72653355Y-69845692D01*
X72599460Y-69851000D01*
X71400540Y-69851000D01*
X71346645Y-69845692D01*
X71300719Y-69831760D01*
X71258398Y-69809139D01*
X71221303Y-69778697D01*
X71190861Y-69741602D01*
X71168240Y-69699281D01*
X71154308Y-69653355D01*
X71149000Y-69599460D01*
X71149000Y-68500540D01*
X71154308Y-68446645D01*
X71168240Y-68400719D01*
X71190861Y-68358398D01*
X71221303Y-68321303D01*
X71258398Y-68290861D01*
X71300719Y-68268240D01*
X71346645Y-68254308D01*
X71400540Y-68249000D01*
X72371548Y-68249000D01*
X72395934Y-68246598D01*
X72419383Y-68239485D01*
X72440994Y-68227934D01*
X72459936Y-68212389D01*
X72475481Y-68193447D01*
X72487032Y-68171836D01*
X72494145Y-68148387D01*
X72496547Y-68124001D01*
X72494145Y-68099615D01*
X72487032Y-68076166D01*
X72475481Y-68054555D01*
X72459936Y-68035613D01*
X72458127Y-68033804D01*
X72458124Y-68033802D01*
X72416198Y-67991876D01*
X72383258Y-67942577D01*
X72364095Y-67896314D01*
X72360567Y-67887797D01*
X72349000Y-67829647D01*
X72349000Y-67770353D01*
X72360567Y-67712203D01*
X72383257Y-67657425D01*
X72404588Y-67625500D01*
X72416198Y-67608124D01*
X72458124Y-67566198D01*
X72458127Y-67566196D01*
X72459935Y-67564388D01*
X72475480Y-67545446D01*
X72487031Y-67523835D01*
X72494144Y-67500386D01*
X72496546Y-67476000D01*
X72494144Y-67451614D01*
X72487031Y-67428165D01*
X72475480Y-67406554D01*
X72459935Y-67387612D01*
X72440993Y-67372067D01*
X72419382Y-67360516D01*
X72395933Y-67353403D01*
X72371547Y-67351001D01*
X71000000Y-67351001D01*
X70951032Y-67346178D01*
X70903946Y-67331895D01*
X70860552Y-67308700D01*
X70822516Y-67277485D01*
X70791301Y-67239449D01*
X70768106Y-67196055D01*
X70753823Y-67148969D01*
X70749000Y-67100001D01*
X70749000Y-67099999D01*
X70753823Y-67051031D01*
X70768106Y-67003945D01*
X70791301Y-66960551D01*
X70822516Y-66922515D01*
X70860552Y-66891300D01*
X70878270Y-66881830D01*
X70893542Y-66871625D01*
X70910869Y-66854298D01*
X70924482Y-66833924D01*
X70933860Y-66811285D01*
X70938640Y-66787252D01*
X70938640Y-66762748D01*
X70933860Y-66738715D01*
X70924482Y-66716076D01*
X70910868Y-66695701D01*
X70893541Y-66678374D01*
X70878270Y-66668171D01*
X70860552Y-66658700D01*
X70822516Y-66627485D01*
X70791301Y-66589449D01*
X70768106Y-66546055D01*
X70753823Y-66498969D01*
X70749000Y-66450001D01*
X70749000Y-66449999D01*
X70753823Y-66401031D01*
X70768106Y-66353945D01*
X70791301Y-66310551D01*
X70822516Y-66272515D01*
X70860552Y-66241300D01*
X70878270Y-66231830D01*
X70893542Y-66221625D01*
X70910869Y-66204298D01*
X70924482Y-66183924D01*
X70933860Y-66161285D01*
X70938640Y-66137252D01*
X70938640Y-66112748D01*
X70933860Y-66088715D01*
X70924482Y-66066076D01*
X70910868Y-66045701D01*
X70893541Y-66028374D01*
X70878270Y-66018171D01*
X70860552Y-66008700D01*
X70822516Y-65977485D01*
X70791301Y-65939449D01*
X70768106Y-65896055D01*
X70753823Y-65848969D01*
X70749000Y-65800001D01*
X70749000Y-65799999D01*
X70753823Y-65751031D01*
X70768106Y-65703945D01*
X70791301Y-65660551D01*
X70822516Y-65622515D01*
X70860552Y-65591300D01*
X70878270Y-65581830D01*
X70893542Y-65571625D01*
X70910869Y-65554298D01*
X70924482Y-65533924D01*
X70933860Y-65511285D01*
X70938640Y-65487252D01*
X70938640Y-65462748D01*
X70933860Y-65438715D01*
X70924482Y-65416076D01*
X70910868Y-65395701D01*
X70893541Y-65378374D01*
X70878270Y-65368171D01*
X70860552Y-65358700D01*
X70822516Y-65327485D01*
X70791301Y-65289449D01*
X70768106Y-65246055D01*
X70753823Y-65198969D01*
X70749000Y-65150001D01*
X70749000Y-65149999D01*
X70753823Y-65101031D01*
X70768106Y-65053945D01*
X70791301Y-65010551D01*
X70822516Y-64972515D01*
X70860552Y-64941300D01*
X70878270Y-64931830D01*
X70893542Y-64921625D01*
X70910869Y-64904298D01*
X70924482Y-64883924D01*
X70933860Y-64861285D01*
X70938640Y-64837252D01*
X70938640Y-64812748D01*
X70933860Y-64788715D01*
X70924482Y-64766076D01*
X70910868Y-64745701D01*
X70893541Y-64728374D01*
X70878270Y-64718171D01*
X70860552Y-64708700D01*
X70822516Y-64677485D01*
X70791301Y-64639449D01*
X70768106Y-64596055D01*
X70753823Y-64548969D01*
X70749000Y-64500001D01*
X70749000Y-64499999D01*
X70753823Y-64451031D01*
X70768106Y-64403945D01*
X70791301Y-64360551D01*
X70822516Y-64322515D01*
X70860552Y-64291300D01*
X70903946Y-64268105D01*
X70951032Y-64253822D01*
X71000000Y-64248999D01*
X72371547Y-64248999D01*
X72395933Y-64246597D01*
X72419382Y-64239484D01*
X72440993Y-64227933D01*
X72459935Y-64212388D01*
X72475480Y-64193446D01*
X72487031Y-64171835D01*
X72494144Y-64148386D01*
X72496546Y-64124000D01*
X72494144Y-64099614D01*
X72487031Y-64076165D01*
X72475480Y-64054554D01*
X72459935Y-64035612D01*
X72458127Y-64033804D01*
X72458124Y-64033802D01*
X72416198Y-63991876D01*
X72383258Y-63942577D01*
X72373136Y-63918141D01*
X72360567Y-63887797D01*
X72349000Y-63829647D01*
X72349000Y-63770353D01*
X72360567Y-63712203D01*
X72383257Y-63657425D01*
X72388886Y-63649000D01*
X72416198Y-63608124D01*
X72458124Y-63566198D01*
X72458127Y-63566196D01*
X72459936Y-63564387D01*
X72475481Y-63545445D01*
X72487032Y-63523834D01*
X72494145Y-63500385D01*
X72496547Y-63475999D01*
X72494145Y-63451613D01*
X72487032Y-63428164D01*
X72475481Y-63406553D01*
X72459936Y-63387611D01*
X72440994Y-63372066D01*
X72419383Y-63360515D01*
X72395934Y-63353402D01*
X72371548Y-63351000D01*
X71400540Y-63351000D01*
X71346645Y-63345692D01*
X71300719Y-63331760D01*
X71258398Y-63309139D01*
X71221303Y-63278697D01*
X71190861Y-63241602D01*
X71168240Y-63199281D01*
X71154308Y-63153355D01*
X71149000Y-63099460D01*
X71149000Y-62000540D01*
X71154308Y-61946645D01*
X71168240Y-61900719D01*
X71190861Y-61858398D01*
X71221303Y-61821303D01*
X71258398Y-61790861D01*
X71300719Y-61768240D01*
X71346645Y-61754308D01*
X71400540Y-61749000D01*
X72599460Y-61749000D01*
X72653355Y-61754308D01*
G37*
G36*
X88653355Y-61754308D02*
G01*
X88699281Y-61768240D01*
X88741602Y-61790861D01*
X88778697Y-61821303D01*
X88809139Y-61858398D01*
X88831760Y-61900719D01*
X88845692Y-61946645D01*
X88851000Y-62000540D01*
X88851000Y-63099460D01*
X88845692Y-63153355D01*
X88831760Y-63199281D01*
X88809139Y-63241602D01*
X88778697Y-63278697D01*
X88738422Y-63311750D01*
X88721095Y-63329077D01*
X88707481Y-63349452D01*
X88698104Y-63372091D01*
X88693324Y-63396124D01*
X88693324Y-63420628D01*
X88698105Y-63444661D01*
X88707482Y-63467300D01*
X88721096Y-63487674D01*
X88738423Y-63505001D01*
X88769886Y-63523859D01*
X88792576Y-63533257D01*
X88792577Y-63533258D01*
X88841876Y-63566198D01*
X88883802Y-63608124D01*
X88911114Y-63649000D01*
X88916743Y-63657425D01*
X88939433Y-63712203D01*
X88951000Y-63770353D01*
X88951000Y-63829647D01*
X88939433Y-63887797D01*
X88926864Y-63918141D01*
X88916742Y-63942577D01*
X88883802Y-63991876D01*
X88841876Y-64033802D01*
X88810818Y-64054554D01*
X88792577Y-64066742D01*
X88767467Y-64077143D01*
X88745857Y-64088695D01*
X88726915Y-64104240D01*
X88711370Y-64123182D01*
X88699819Y-64144793D01*
X88692706Y-64168242D01*
X88690304Y-64192628D01*
X88692706Y-64217014D01*
X88699819Y-64240463D01*
X88711371Y-64262073D01*
X88736003Y-64289252D01*
X88736725Y-64289844D01*
X88739448Y-64291300D01*
X88777484Y-64322515D01*
X88808699Y-64360551D01*
X88831894Y-64403945D01*
X88846177Y-64451031D01*
X88851000Y-64499999D01*
X88851000Y-64500001D01*
X88846177Y-64548969D01*
X88831894Y-64596055D01*
X88808699Y-64639449D01*
X88777484Y-64677485D01*
X88739448Y-64708700D01*
X88721730Y-64718170D01*
X88706458Y-64728375D01*
X88689131Y-64745702D01*
X88675518Y-64766076D01*
X88666140Y-64788715D01*
X88661360Y-64812748D01*
X88661360Y-64837252D01*
X88666140Y-64861285D01*
X88675518Y-64883924D01*
X88689132Y-64904299D01*
X88706459Y-64921626D01*
X88721730Y-64931829D01*
X88739448Y-64941300D01*
X88777484Y-64972515D01*
X88808699Y-65010551D01*
X88831894Y-65053945D01*
X88846177Y-65101031D01*
X88851000Y-65149999D01*
X88851000Y-65150001D01*
X88846177Y-65198969D01*
X88831894Y-65246055D01*
X88808699Y-65289449D01*
X88777484Y-65327485D01*
X88739448Y-65358700D01*
X88721730Y-65368170D01*
X88706458Y-65378375D01*
X88689131Y-65395702D01*
X88675518Y-65416076D01*
X88666140Y-65438715D01*
X88661360Y-65462748D01*
X88661360Y-65487252D01*
X88666140Y-65511285D01*
X88675518Y-65533924D01*
X88689132Y-65554299D01*
X88706459Y-65571626D01*
X88721730Y-65581829D01*
X88739448Y-65591300D01*
X88777484Y-65622515D01*
X88808699Y-65660551D01*
X88831894Y-65703945D01*
X88846177Y-65751031D01*
X88851000Y-65799999D01*
X88851000Y-65800001D01*
X88846177Y-65848969D01*
X88831894Y-65896055D01*
X88808699Y-65939449D01*
X88777484Y-65977485D01*
X88739448Y-66008700D01*
X88721730Y-66018170D01*
X88706458Y-66028375D01*
X88689131Y-66045702D01*
X88675518Y-66066076D01*
X88666140Y-66088715D01*
X88661360Y-66112748D01*
X88661360Y-66137252D01*
X88666140Y-66161285D01*
X88675518Y-66183924D01*
X88689132Y-66204299D01*
X88706459Y-66221626D01*
X88721730Y-66231829D01*
X88739448Y-66241300D01*
X88777484Y-66272515D01*
X88808699Y-66310551D01*
X88831894Y-66353945D01*
X88846177Y-66401031D01*
X88851000Y-66449999D01*
X88851000Y-66450001D01*
X88846177Y-66498969D01*
X88831894Y-66546055D01*
X88808699Y-66589449D01*
X88777484Y-66627485D01*
X88739448Y-66658700D01*
X88721730Y-66668170D01*
X88706458Y-66678375D01*
X88689131Y-66695702D01*
X88675518Y-66716076D01*
X88666140Y-66738715D01*
X88661360Y-66762748D01*
X88661360Y-66787252D01*
X88666140Y-66811285D01*
X88675518Y-66833924D01*
X88689132Y-66854299D01*
X88706459Y-66871626D01*
X88721730Y-66881829D01*
X88739448Y-66891300D01*
X88777484Y-66922515D01*
X88808699Y-66960551D01*
X88831894Y-67003945D01*
X88846177Y-67051031D01*
X88851000Y-67099999D01*
X88851000Y-67100001D01*
X88846177Y-67148969D01*
X88831894Y-67196055D01*
X88808699Y-67239449D01*
X88777484Y-67277485D01*
X88739448Y-67308700D01*
X88736725Y-67310156D01*
X88736003Y-67310748D01*
X88718677Y-67328076D01*
X88705063Y-67348450D01*
X88695686Y-67371089D01*
X88690906Y-67395122D01*
X88690906Y-67419626D01*
X88695687Y-67443660D01*
X88705064Y-67466298D01*
X88718678Y-67486673D01*
X88736006Y-67503999D01*
X88767467Y-67522857D01*
X88792577Y-67533258D01*
X88841876Y-67566198D01*
X88883802Y-67608124D01*
X88895412Y-67625500D01*
X88916743Y-67657425D01*
X88939433Y-67712203D01*
X88951000Y-67770353D01*
X88951000Y-67829647D01*
X88939433Y-67887797D01*
X88935905Y-67896314D01*
X88916742Y-67942577D01*
X88883802Y-67991876D01*
X88841876Y-68033802D01*
X88810816Y-68054555D01*
X88792576Y-68066743D01*
X88769886Y-68076141D01*
X88748276Y-68087692D01*
X88729334Y-68103237D01*
X88713788Y-68122179D01*
X88702237Y-68143789D01*
X88695124Y-68167238D01*
X88692722Y-68191624D01*
X88695124Y-68216011D01*
X88702237Y-68239460D01*
X88713788Y-68261070D01*
X88738422Y-68288250D01*
X88778697Y-68321303D01*
X88809139Y-68358398D01*
X88831760Y-68400719D01*
X88845692Y-68446645D01*
X88851000Y-68500540D01*
X88851000Y-69599460D01*
X88845692Y-69653355D01*
X88831760Y-69699281D01*
X88809139Y-69741602D01*
X88778697Y-69778697D01*
X88741602Y-69809139D01*
X88699281Y-69831760D01*
X88653355Y-69845692D01*
X88599460Y-69851000D01*
X87400540Y-69851000D01*
X87346645Y-69845692D01*
X87300719Y-69831760D01*
X87258398Y-69809139D01*
X87221303Y-69778697D01*
X87190861Y-69741602D01*
X87168240Y-69699281D01*
X87154308Y-69653355D01*
X87149000Y-69599460D01*
X87149000Y-68500540D01*
X87154308Y-68446645D01*
X87168240Y-68400719D01*
X87190861Y-68358398D01*
X87221303Y-68321303D01*
X87258398Y-68290861D01*
X87300719Y-68268240D01*
X87346645Y-68254308D01*
X87400540Y-68249000D01*
X88371548Y-68249000D01*
X88395934Y-68246598D01*
X88419383Y-68239485D01*
X88440994Y-68227934D01*
X88459936Y-68212389D01*
X88475481Y-68193447D01*
X88487032Y-68171836D01*
X88494145Y-68148387D01*
X88496547Y-68124001D01*
X88494145Y-68099615D01*
X88487032Y-68076166D01*
X88475481Y-68054555D01*
X88459936Y-68035613D01*
X88458127Y-68033804D01*
X88458124Y-68033802D01*
X88416198Y-67991876D01*
X88383258Y-67942577D01*
X88364095Y-67896314D01*
X88360567Y-67887797D01*
X88349000Y-67829647D01*
X88349000Y-67770353D01*
X88360567Y-67712203D01*
X88383257Y-67657425D01*
X88404588Y-67625500D01*
X88416198Y-67608124D01*
X88458124Y-67566198D01*
X88458127Y-67566196D01*
X88459935Y-67564388D01*
X88475480Y-67545446D01*
X88487031Y-67523835D01*
X88494144Y-67500386D01*
X88496546Y-67476000D01*
X88494144Y-67451614D01*
X88487031Y-67428165D01*
X88475480Y-67406554D01*
X88459935Y-67387612D01*
X88440993Y-67372067D01*
X88419382Y-67360516D01*
X88395933Y-67353403D01*
X88371547Y-67351001D01*
X87000000Y-67351001D01*
X86951032Y-67346178D01*
X86903946Y-67331895D01*
X86860552Y-67308700D01*
X86822516Y-67277485D01*
X86791301Y-67239449D01*
X86768106Y-67196055D01*
X86753823Y-67148969D01*
X86749000Y-67100001D01*
X86749000Y-67099999D01*
X86753823Y-67051031D01*
X86768106Y-67003945D01*
X86791301Y-66960551D01*
X86822516Y-66922515D01*
X86860552Y-66891300D01*
X86878270Y-66881830D01*
X86893542Y-66871625D01*
X86910869Y-66854298D01*
X86924482Y-66833924D01*
X86933860Y-66811285D01*
X86938640Y-66787252D01*
X86938640Y-66762748D01*
X86933860Y-66738715D01*
X86924482Y-66716076D01*
X86910868Y-66695701D01*
X86893541Y-66678374D01*
X86878270Y-66668171D01*
X86860552Y-66658700D01*
X86822516Y-66627485D01*
X86791301Y-66589449D01*
X86768106Y-66546055D01*
X86753823Y-66498969D01*
X86749000Y-66450001D01*
X86749000Y-66449999D01*
X86753823Y-66401031D01*
X86768106Y-66353945D01*
X86791301Y-66310551D01*
X86822516Y-66272515D01*
X86860552Y-66241300D01*
X86878270Y-66231830D01*
X86893542Y-66221625D01*
X86910869Y-66204298D01*
X86924482Y-66183924D01*
X86933860Y-66161285D01*
X86938640Y-66137252D01*
X86938640Y-66112748D01*
X86933860Y-66088715D01*
X86924482Y-66066076D01*
X86910868Y-66045701D01*
X86893541Y-66028374D01*
X86878270Y-66018171D01*
X86860552Y-66008700D01*
X86822516Y-65977485D01*
X86791301Y-65939449D01*
X86768106Y-65896055D01*
X86753823Y-65848969D01*
X86749000Y-65800001D01*
X86749000Y-65799999D01*
X86753823Y-65751031D01*
X86768106Y-65703945D01*
X86791301Y-65660551D01*
X86822516Y-65622515D01*
X86860552Y-65591300D01*
X86878270Y-65581830D01*
X86893542Y-65571625D01*
X86910869Y-65554298D01*
X86924482Y-65533924D01*
X86933860Y-65511285D01*
X86938640Y-65487252D01*
X86938640Y-65462748D01*
X86933860Y-65438715D01*
X86924482Y-65416076D01*
X86910868Y-65395701D01*
X86893541Y-65378374D01*
X86878270Y-65368171D01*
X86860552Y-65358700D01*
X86822516Y-65327485D01*
X86791301Y-65289449D01*
X86768106Y-65246055D01*
X86753823Y-65198969D01*
X86749000Y-65150001D01*
X86749000Y-65149999D01*
X86753823Y-65101031D01*
X86768106Y-65053945D01*
X86791301Y-65010551D01*
X86822516Y-64972515D01*
X86860552Y-64941300D01*
X86878270Y-64931830D01*
X86893542Y-64921625D01*
X86910869Y-64904298D01*
X86924482Y-64883924D01*
X86933860Y-64861285D01*
X86938640Y-64837252D01*
X86938640Y-64812748D01*
X86933860Y-64788715D01*
X86924482Y-64766076D01*
X86910868Y-64745701D01*
X86893541Y-64728374D01*
X86878270Y-64718171D01*
X86860552Y-64708700D01*
X86822516Y-64677485D01*
X86791301Y-64639449D01*
X86768106Y-64596055D01*
X86753823Y-64548969D01*
X86749000Y-64500001D01*
X86749000Y-64499999D01*
X86753823Y-64451031D01*
X86768106Y-64403945D01*
X86791301Y-64360551D01*
X86822516Y-64322515D01*
X86860552Y-64291300D01*
X86903946Y-64268105D01*
X86951032Y-64253822D01*
X87000000Y-64248999D01*
X88371547Y-64248999D01*
X88395933Y-64246597D01*
X88419382Y-64239484D01*
X88440993Y-64227933D01*
X88459935Y-64212388D01*
X88475480Y-64193446D01*
X88487031Y-64171835D01*
X88494144Y-64148386D01*
X88496546Y-64124000D01*
X88494144Y-64099614D01*
X88487031Y-64076165D01*
X88475480Y-64054554D01*
X88459935Y-64035612D01*
X88458127Y-64033804D01*
X88458124Y-64033802D01*
X88416198Y-63991876D01*
X88383258Y-63942577D01*
X88373136Y-63918141D01*
X88360567Y-63887797D01*
X88349000Y-63829647D01*
X88349000Y-63770353D01*
X88360567Y-63712203D01*
X88383257Y-63657425D01*
X88388886Y-63649000D01*
X88416198Y-63608124D01*
X88458124Y-63566198D01*
X88458127Y-63566196D01*
X88459936Y-63564387D01*
X88475481Y-63545445D01*
X88487032Y-63523834D01*
X88494145Y-63500385D01*
X88496547Y-63475999D01*
X88494145Y-63451613D01*
X88487032Y-63428164D01*
X88475481Y-63406553D01*
X88459936Y-63387611D01*
X88440994Y-63372066D01*
X88419383Y-63360515D01*
X88395934Y-63353402D01*
X88371548Y-63351000D01*
X87400540Y-63351000D01*
X87346645Y-63345692D01*
X87300719Y-63331760D01*
X87258398Y-63309139D01*
X87221303Y-63278697D01*
X87190861Y-63241602D01*
X87168240Y-63199281D01*
X87154308Y-63153355D01*
X87149000Y-63099460D01*
X87149000Y-62000540D01*
X87154308Y-61946645D01*
X87168240Y-61900719D01*
X87190861Y-61858398D01*
X87221303Y-61821303D01*
X87258398Y-61790861D01*
X87300719Y-61768240D01*
X87346645Y-61754308D01*
X87400540Y-61749000D01*
X88599460Y-61749000D01*
X88653355Y-61754308D01*
G37*
G36*
X65297740Y-68008626D02*
G01*
X65346136Y-68018253D01*
X65383674Y-68033802D01*
X65437311Y-68056019D01*
X65467426Y-68076141D01*
X65519369Y-68110848D01*
X65589152Y-68180631D01*
X65589153Y-68180633D01*
X65643981Y-68262689D01*
X65655650Y-68290861D01*
X65668260Y-68321303D01*
X65681747Y-68353865D01*
X65701000Y-68450655D01*
X65701000Y-68549345D01*
X65681747Y-68646135D01*
X65643981Y-68737311D01*
X65643980Y-68737312D01*
X65589152Y-68819369D01*
X65519369Y-68889152D01*
X65478062Y-68916752D01*
X65437311Y-68943981D01*
X65383902Y-68966104D01*
X65346136Y-68981747D01*
X65297740Y-68991374D01*
X65249345Y-69001000D01*
X65150655Y-69001000D01*
X65102260Y-68991374D01*
X65053864Y-68981747D01*
X65016098Y-68966104D01*
X64962689Y-68943981D01*
X64921938Y-68916752D01*
X64880631Y-68889152D01*
X64810848Y-68819369D01*
X64756020Y-68737312D01*
X64756019Y-68737311D01*
X64718253Y-68646135D01*
X64699000Y-68549345D01*
X64699000Y-68450655D01*
X64718253Y-68353865D01*
X64731741Y-68321303D01*
X64744350Y-68290861D01*
X64756019Y-68262689D01*
X64810847Y-68180633D01*
X64810848Y-68180631D01*
X64880631Y-68110848D01*
X64932574Y-68076141D01*
X64962689Y-68056019D01*
X65016326Y-68033802D01*
X65053864Y-68018253D01*
X65102260Y-68008626D01*
X65150655Y-67999000D01*
X65249345Y-67999000D01*
X65297740Y-68008626D01*
G37*
G36*
X81297740Y-68008626D02*
G01*
X81346136Y-68018253D01*
X81383674Y-68033802D01*
X81437311Y-68056019D01*
X81467426Y-68076141D01*
X81519369Y-68110848D01*
X81589152Y-68180631D01*
X81589153Y-68180633D01*
X81643981Y-68262689D01*
X81655650Y-68290861D01*
X81668260Y-68321303D01*
X81681747Y-68353865D01*
X81701000Y-68450655D01*
X81701000Y-68549345D01*
X81681747Y-68646135D01*
X81643981Y-68737311D01*
X81643980Y-68737312D01*
X81589152Y-68819369D01*
X81519369Y-68889152D01*
X81478062Y-68916752D01*
X81437311Y-68943981D01*
X81383902Y-68966104D01*
X81346136Y-68981747D01*
X81297740Y-68991374D01*
X81249345Y-69001000D01*
X81150655Y-69001000D01*
X81102260Y-68991374D01*
X81053864Y-68981747D01*
X81016098Y-68966104D01*
X80962689Y-68943981D01*
X80921938Y-68916752D01*
X80880631Y-68889152D01*
X80810848Y-68819369D01*
X80756020Y-68737312D01*
X80756019Y-68737311D01*
X80718253Y-68646135D01*
X80699000Y-68549345D01*
X80699000Y-68450655D01*
X80718253Y-68353865D01*
X80731741Y-68321303D01*
X80744350Y-68290861D01*
X80756019Y-68262689D01*
X80810847Y-68180633D01*
X80810848Y-68180631D01*
X80880631Y-68110848D01*
X80932574Y-68076141D01*
X80962689Y-68056019D01*
X81016326Y-68033802D01*
X81053864Y-68018253D01*
X81102260Y-68008626D01*
X81150655Y-67999000D01*
X81249345Y-67999000D01*
X81297740Y-68008626D01*
G37*
G36*
X84069683Y-67302725D02*
G01*
X84100143Y-67311966D01*
X84128223Y-67326974D01*
X84152831Y-67347169D01*
X84173026Y-67371777D01*
X84188034Y-67399857D01*
X84197275Y-67430317D01*
X84201000Y-67468140D01*
X84201000Y-68031860D01*
X84197275Y-68069683D01*
X84188034Y-68100143D01*
X84173026Y-68128223D01*
X84152831Y-68152831D01*
X84128223Y-68173026D01*
X84100143Y-68188034D01*
X84069683Y-68197275D01*
X84031860Y-68201000D01*
X82768140Y-68201000D01*
X82730317Y-68197275D01*
X82699857Y-68188034D01*
X82671777Y-68173026D01*
X82647169Y-68152831D01*
X82626974Y-68128223D01*
X82611966Y-68100143D01*
X82602725Y-68069683D01*
X82599000Y-68031860D01*
X82599000Y-67468140D01*
X82602725Y-67430317D01*
X82611966Y-67399857D01*
X82626974Y-67371777D01*
X82647169Y-67347169D01*
X82671777Y-67326974D01*
X82699857Y-67311966D01*
X82730317Y-67302725D01*
X82768140Y-67299000D01*
X84031860Y-67299000D01*
X84069683Y-67302725D01*
G37*
G36*
X68069683Y-67302725D02*
G01*
X68100143Y-67311966D01*
X68128223Y-67326974D01*
X68152831Y-67347169D01*
X68173026Y-67371777D01*
X68188034Y-67399857D01*
X68197275Y-67430317D01*
X68201000Y-67468140D01*
X68201000Y-68031860D01*
X68197275Y-68069683D01*
X68188034Y-68100143D01*
X68173026Y-68128223D01*
X68152831Y-68152831D01*
X68128223Y-68173026D01*
X68100143Y-68188034D01*
X68069683Y-68197275D01*
X68031860Y-68201000D01*
X66768140Y-68201000D01*
X66730317Y-68197275D01*
X66699857Y-68188034D01*
X66671777Y-68173026D01*
X66647169Y-68152831D01*
X66626974Y-68128223D01*
X66611966Y-68100143D01*
X66602725Y-68069683D01*
X66599000Y-68031860D01*
X66599000Y-67468140D01*
X66602725Y-67430317D01*
X66611966Y-67399857D01*
X66626974Y-67371777D01*
X66647169Y-67347169D01*
X66671777Y-67326974D01*
X66699857Y-67311966D01*
X66730317Y-67302725D01*
X66768140Y-67299000D01*
X68031860Y-67299000D01*
X68069683Y-67302725D01*
G37*
G36*
X92329434Y-66703686D02*
G01*
X92369284Y-66715774D01*
X92405999Y-66735399D01*
X92438186Y-66761814D01*
X92464601Y-66794001D01*
X92484226Y-66830716D01*
X92496314Y-66870566D01*
X92501000Y-66918141D01*
X92501000Y-67681859D01*
X92496314Y-67729434D01*
X92484226Y-67769284D01*
X92464601Y-67805999D01*
X92438186Y-67838186D01*
X92405999Y-67864601D01*
X92369284Y-67884226D01*
X92329434Y-67896314D01*
X92281859Y-67901000D01*
X91618141Y-67901000D01*
X91570566Y-67896314D01*
X91530716Y-67884226D01*
X91494001Y-67864601D01*
X91461814Y-67838186D01*
X91435399Y-67805999D01*
X91415774Y-67769284D01*
X91403686Y-67729434D01*
X91399000Y-67681859D01*
X91399000Y-66918141D01*
X91403686Y-66870566D01*
X91415774Y-66830716D01*
X91435399Y-66794001D01*
X91461814Y-66761814D01*
X91494001Y-66735399D01*
X91530716Y-66715774D01*
X91570566Y-66703686D01*
X91618141Y-66699000D01*
X92281859Y-66699000D01*
X92329434Y-66703686D01*
G37*
G36*
X76329434Y-66703686D02*
G01*
X76369284Y-66715774D01*
X76405999Y-66735399D01*
X76438186Y-66761814D01*
X76464601Y-66794001D01*
X76484226Y-66830716D01*
X76496314Y-66870566D01*
X76501000Y-66918141D01*
X76501000Y-67681859D01*
X76496314Y-67729434D01*
X76484226Y-67769284D01*
X76464601Y-67805999D01*
X76438186Y-67838186D01*
X76405999Y-67864601D01*
X76369284Y-67884226D01*
X76329434Y-67896314D01*
X76281859Y-67901000D01*
X75618141Y-67901000D01*
X75570566Y-67896314D01*
X75530716Y-67884226D01*
X75494001Y-67864601D01*
X75461814Y-67838186D01*
X75435399Y-67805999D01*
X75415774Y-67769284D01*
X75403686Y-67729434D01*
X75399000Y-67681859D01*
X75399000Y-66918141D01*
X75403686Y-66870566D01*
X75415774Y-66830716D01*
X75435399Y-66794001D01*
X75461814Y-66761814D01*
X75494001Y-66735399D01*
X75530716Y-66715774D01*
X75570566Y-66703686D01*
X75618141Y-66699000D01*
X76281859Y-66699000D01*
X76329434Y-66703686D01*
G37*
G36*
X82649560Y-65353205D02*
G01*
X82684713Y-65363869D01*
X82717110Y-65381186D01*
X82745509Y-65404491D01*
X82768814Y-65432890D01*
X82786131Y-65465287D01*
X82796795Y-65500440D01*
X82801000Y-65543140D01*
X82801000Y-66456860D01*
X82796795Y-66499560D01*
X82786131Y-66534713D01*
X82768814Y-66567110D01*
X82745509Y-66595509D01*
X82717110Y-66618814D01*
X82684713Y-66636131D01*
X82649560Y-66646795D01*
X82606860Y-66651000D01*
X81993140Y-66651000D01*
X81950440Y-66646795D01*
X81915287Y-66636131D01*
X81882890Y-66618814D01*
X81854491Y-66595509D01*
X81831186Y-66567110D01*
X81813869Y-66534713D01*
X81803205Y-66499560D01*
X81799000Y-66456860D01*
X81799000Y-65543140D01*
X81803205Y-65500440D01*
X81813869Y-65465287D01*
X81831186Y-65432890D01*
X81854491Y-65404491D01*
X81882890Y-65381186D01*
X81915287Y-65363869D01*
X81950440Y-65353205D01*
X81993140Y-65349000D01*
X82606860Y-65349000D01*
X82649560Y-65353205D01*
G37*
G36*
X80449560Y-65353205D02*
G01*
X80484713Y-65363869D01*
X80517110Y-65381186D01*
X80545509Y-65404491D01*
X80568814Y-65432890D01*
X80586131Y-65465287D01*
X80596795Y-65500440D01*
X80601000Y-65543140D01*
X80601000Y-66456860D01*
X80596795Y-66499560D01*
X80586131Y-66534713D01*
X80568814Y-66567110D01*
X80545509Y-66595509D01*
X80517110Y-66618814D01*
X80484713Y-66636131D01*
X80449560Y-66646795D01*
X80406860Y-66651000D01*
X79793140Y-66651000D01*
X79750440Y-66646795D01*
X79715287Y-66636131D01*
X79682890Y-66618814D01*
X79654491Y-66595509D01*
X79631186Y-66567110D01*
X79613869Y-66534713D01*
X79603205Y-66499560D01*
X79599000Y-66456860D01*
X79599000Y-65543140D01*
X79603205Y-65500440D01*
X79613869Y-65465287D01*
X79631186Y-65432890D01*
X79654491Y-65404491D01*
X79682890Y-65381186D01*
X79715287Y-65363869D01*
X79750440Y-65353205D01*
X79793140Y-65349000D01*
X80406860Y-65349000D01*
X80449560Y-65353205D01*
G37*
G36*
X66649560Y-65353205D02*
G01*
X66684713Y-65363869D01*
X66717110Y-65381186D01*
X66745509Y-65404491D01*
X66768814Y-65432890D01*
X66786131Y-65465287D01*
X66796795Y-65500440D01*
X66801000Y-65543140D01*
X66801000Y-66456860D01*
X66796795Y-66499560D01*
X66786131Y-66534713D01*
X66768814Y-66567110D01*
X66745509Y-66595509D01*
X66717110Y-66618814D01*
X66684713Y-66636131D01*
X66649560Y-66646795D01*
X66606860Y-66651000D01*
X65993140Y-66651000D01*
X65950440Y-66646795D01*
X65915287Y-66636131D01*
X65882890Y-66618814D01*
X65854491Y-66595509D01*
X65831186Y-66567110D01*
X65813869Y-66534713D01*
X65803205Y-66499560D01*
X65799000Y-66456860D01*
X65799000Y-65543140D01*
X65803205Y-65500440D01*
X65813869Y-65465287D01*
X65831186Y-65432890D01*
X65854491Y-65404491D01*
X65882890Y-65381186D01*
X65915287Y-65363869D01*
X65950440Y-65353205D01*
X65993140Y-65349000D01*
X66606860Y-65349000D01*
X66649560Y-65353205D01*
G37*
G36*
X64449560Y-65353205D02*
G01*
X64484713Y-65363869D01*
X64517110Y-65381186D01*
X64545509Y-65404491D01*
X64568814Y-65432890D01*
X64586131Y-65465287D01*
X64596795Y-65500440D01*
X64601000Y-65543140D01*
X64601000Y-66456860D01*
X64596795Y-66499560D01*
X64586131Y-66534713D01*
X64568814Y-66567110D01*
X64545509Y-66595509D01*
X64517110Y-66618814D01*
X64484713Y-66636131D01*
X64449560Y-66646795D01*
X64406860Y-66651000D01*
X63793140Y-66651000D01*
X63750440Y-66646795D01*
X63715287Y-66636131D01*
X63682890Y-66618814D01*
X63654491Y-66595509D01*
X63631186Y-66567110D01*
X63613869Y-66534713D01*
X63603205Y-66499560D01*
X63599000Y-66456860D01*
X63599000Y-65543140D01*
X63603205Y-65500440D01*
X63613869Y-65465287D01*
X63631186Y-65432890D01*
X63654491Y-65404491D01*
X63682890Y-65381186D01*
X63715287Y-65363869D01*
X63750440Y-65353205D01*
X63793140Y-65349000D01*
X64406860Y-65349000D01*
X64449560Y-65353205D01*
G37*
G36*
X92329434Y-63703686D02*
G01*
X92369284Y-63715774D01*
X92405999Y-63735399D01*
X92438186Y-63761814D01*
X92464601Y-63794001D01*
X92484226Y-63830716D01*
X92496314Y-63870566D01*
X92501000Y-63918141D01*
X92501000Y-64681859D01*
X92496314Y-64729434D01*
X92484226Y-64769284D01*
X92464601Y-64805999D01*
X92438186Y-64838186D01*
X92405999Y-64864601D01*
X92369284Y-64884226D01*
X92329434Y-64896314D01*
X92281859Y-64901000D01*
X91618141Y-64901000D01*
X91570566Y-64896314D01*
X91530716Y-64884226D01*
X91494001Y-64864601D01*
X91461814Y-64838186D01*
X91435399Y-64805999D01*
X91415774Y-64769284D01*
X91403686Y-64729434D01*
X91399000Y-64681859D01*
X91399000Y-63918141D01*
X91403686Y-63870566D01*
X91415774Y-63830716D01*
X91435399Y-63794001D01*
X91461814Y-63761814D01*
X91494001Y-63735399D01*
X91530716Y-63715774D01*
X91570566Y-63703686D01*
X91618141Y-63699000D01*
X92281859Y-63699000D01*
X92329434Y-63703686D01*
G37*
G36*
X76329434Y-63703686D02*
G01*
X76369284Y-63715774D01*
X76405999Y-63735399D01*
X76438186Y-63761814D01*
X76464601Y-63794001D01*
X76484226Y-63830716D01*
X76496314Y-63870566D01*
X76501000Y-63918141D01*
X76501000Y-64681859D01*
X76496314Y-64729434D01*
X76484226Y-64769284D01*
X76464601Y-64805999D01*
X76438186Y-64838186D01*
X76405999Y-64864601D01*
X76369284Y-64884226D01*
X76329434Y-64896314D01*
X76281859Y-64901000D01*
X75618141Y-64901000D01*
X75570566Y-64896314D01*
X75530716Y-64884226D01*
X75494001Y-64864601D01*
X75461814Y-64838186D01*
X75435399Y-64805999D01*
X75415774Y-64769284D01*
X75403686Y-64729434D01*
X75399000Y-64681859D01*
X75399000Y-63918141D01*
X75403686Y-63870566D01*
X75415774Y-63830716D01*
X75435399Y-63794001D01*
X75461814Y-63761814D01*
X75494001Y-63735399D01*
X75530716Y-63715774D01*
X75570566Y-63703686D01*
X75618141Y-63699000D01*
X76281859Y-63699000D01*
X76329434Y-63703686D01*
G37*
G36*
X83229434Y-63653686D02*
G01*
X83269284Y-63665774D01*
X83305999Y-63685399D01*
X83338186Y-63711814D01*
X83364601Y-63744001D01*
X83384226Y-63780716D01*
X83396314Y-63820566D01*
X83401000Y-63868141D01*
X83401000Y-64531859D01*
X83396314Y-64579434D01*
X83384226Y-64619284D01*
X83364601Y-64655999D01*
X83338186Y-64688186D01*
X83305999Y-64714601D01*
X83269284Y-64734226D01*
X83229434Y-64746314D01*
X83181859Y-64751000D01*
X82218141Y-64751000D01*
X82170566Y-64746314D01*
X82130716Y-64734226D01*
X82094001Y-64714601D01*
X82061814Y-64688186D01*
X82035399Y-64655999D01*
X82015774Y-64619284D01*
X82003686Y-64579434D01*
X81999000Y-64531859D01*
X81999000Y-63868141D01*
X82003686Y-63820566D01*
X82015774Y-63780716D01*
X82035399Y-63744001D01*
X82061814Y-63711814D01*
X82094001Y-63685399D01*
X82130716Y-63665774D01*
X82170566Y-63653686D01*
X82218141Y-63649000D01*
X83181859Y-63649000D01*
X83229434Y-63653686D01*
G37*
G36*
X81029434Y-63653686D02*
G01*
X81069284Y-63665774D01*
X81105999Y-63685399D01*
X81138186Y-63711814D01*
X81164601Y-63744001D01*
X81184226Y-63780716D01*
X81196314Y-63820566D01*
X81201000Y-63868141D01*
X81201000Y-64531859D01*
X81196314Y-64579434D01*
X81184226Y-64619284D01*
X81164601Y-64655999D01*
X81138186Y-64688186D01*
X81105999Y-64714601D01*
X81069284Y-64734226D01*
X81029434Y-64746314D01*
X80981859Y-64751000D01*
X80018141Y-64751000D01*
X79970566Y-64746314D01*
X79930716Y-64734226D01*
X79894001Y-64714601D01*
X79861814Y-64688186D01*
X79835399Y-64655999D01*
X79815774Y-64619284D01*
X79803686Y-64579434D01*
X79799000Y-64531859D01*
X79799000Y-63868141D01*
X79803686Y-63820566D01*
X79815774Y-63780716D01*
X79835399Y-63744001D01*
X79861814Y-63711814D01*
X79894001Y-63685399D01*
X79930716Y-63665774D01*
X79970566Y-63653686D01*
X80018141Y-63649000D01*
X80981859Y-63649000D01*
X81029434Y-63653686D01*
G37*
G36*
X67229434Y-63653686D02*
G01*
X67269284Y-63665774D01*
X67305999Y-63685399D01*
X67338186Y-63711814D01*
X67364601Y-63744001D01*
X67384226Y-63780716D01*
X67396314Y-63820566D01*
X67401000Y-63868141D01*
X67401000Y-64531859D01*
X67396314Y-64579434D01*
X67384226Y-64619284D01*
X67364601Y-64655999D01*
X67338186Y-64688186D01*
X67305999Y-64714601D01*
X67269284Y-64734226D01*
X67229434Y-64746314D01*
X67181859Y-64751000D01*
X66218141Y-64751000D01*
X66170566Y-64746314D01*
X66130716Y-64734226D01*
X66094001Y-64714601D01*
X66061814Y-64688186D01*
X66035399Y-64655999D01*
X66015774Y-64619284D01*
X66003686Y-64579434D01*
X65999000Y-64531859D01*
X65999000Y-63868141D01*
X66003686Y-63820566D01*
X66015774Y-63780716D01*
X66035399Y-63744001D01*
X66061814Y-63711814D01*
X66094001Y-63685399D01*
X66130716Y-63665774D01*
X66170566Y-63653686D01*
X66218141Y-63649000D01*
X67181859Y-63649000D01*
X67229434Y-63653686D01*
G37*
G36*
X65029434Y-63653686D02*
G01*
X65069284Y-63665774D01*
X65105999Y-63685399D01*
X65138186Y-63711814D01*
X65164601Y-63744001D01*
X65184226Y-63780716D01*
X65196314Y-63820566D01*
X65201000Y-63868141D01*
X65201000Y-64531859D01*
X65196314Y-64579434D01*
X65184226Y-64619284D01*
X65164601Y-64655999D01*
X65138186Y-64688186D01*
X65105999Y-64714601D01*
X65069284Y-64734226D01*
X65029434Y-64746314D01*
X64981859Y-64751000D01*
X64018141Y-64751000D01*
X63970566Y-64746314D01*
X63930716Y-64734226D01*
X63894001Y-64714601D01*
X63861814Y-64688186D01*
X63835399Y-64655999D01*
X63815774Y-64619284D01*
X63803686Y-64579434D01*
X63799000Y-64531859D01*
X63799000Y-63868141D01*
X63803686Y-63820566D01*
X63815774Y-63780716D01*
X63835399Y-63744001D01*
X63861814Y-63711814D01*
X63894001Y-63685399D01*
X63930716Y-63665774D01*
X63970566Y-63653686D01*
X64018141Y-63649000D01*
X64981859Y-63649000D01*
X65029434Y-63653686D01*
G37*
G36*
X83229434Y-62053686D02*
G01*
X83269284Y-62065774D01*
X83305999Y-62085399D01*
X83338186Y-62111814D01*
X83364601Y-62144001D01*
X83384226Y-62180716D01*
X83396314Y-62220566D01*
X83401000Y-62268141D01*
X83401000Y-62931859D01*
X83396314Y-62979434D01*
X83384226Y-63019284D01*
X83364601Y-63055999D01*
X83338186Y-63088186D01*
X83305999Y-63114601D01*
X83269284Y-63134226D01*
X83229434Y-63146314D01*
X83181859Y-63151000D01*
X82218141Y-63151000D01*
X82170566Y-63146314D01*
X82130716Y-63134226D01*
X82094001Y-63114601D01*
X82061814Y-63088186D01*
X82035399Y-63055999D01*
X82015774Y-63019284D01*
X82003686Y-62979434D01*
X81999000Y-62931859D01*
X81999000Y-62268141D01*
X82003686Y-62220566D01*
X82015774Y-62180716D01*
X82035399Y-62144001D01*
X82061814Y-62111814D01*
X82094001Y-62085399D01*
X82130716Y-62065774D01*
X82170566Y-62053686D01*
X82218141Y-62049000D01*
X83181859Y-62049000D01*
X83229434Y-62053686D01*
G37*
G36*
X65029434Y-62053686D02*
G01*
X65069284Y-62065774D01*
X65105999Y-62085399D01*
X65138186Y-62111814D01*
X65164601Y-62144001D01*
X65184226Y-62180716D01*
X65196314Y-62220566D01*
X65201000Y-62268141D01*
X65201000Y-62931859D01*
X65196314Y-62979434D01*
X65184226Y-63019284D01*
X65164601Y-63055999D01*
X65138186Y-63088186D01*
X65105999Y-63114601D01*
X65069284Y-63134226D01*
X65029434Y-63146314D01*
X64981859Y-63151000D01*
X64018141Y-63151000D01*
X63970566Y-63146314D01*
X63930716Y-63134226D01*
X63894001Y-63114601D01*
X63861814Y-63088186D01*
X63835399Y-63055999D01*
X63815774Y-63019284D01*
X63803686Y-62979434D01*
X63799000Y-62931859D01*
X63799000Y-62268141D01*
X63803686Y-62220566D01*
X63815774Y-62180716D01*
X63835399Y-62144001D01*
X63861814Y-62111814D01*
X63894001Y-62085399D01*
X63930716Y-62065774D01*
X63970566Y-62053686D01*
X64018141Y-62049000D01*
X64981859Y-62049000D01*
X65029434Y-62053686D01*
G37*
G36*
X67229434Y-62053686D02*
G01*
X67269284Y-62065774D01*
X67305999Y-62085399D01*
X67338186Y-62111814D01*
X67364601Y-62144001D01*
X67384226Y-62180716D01*
X67396314Y-62220566D01*
X67401000Y-62268141D01*
X67401000Y-62931859D01*
X67396314Y-62979434D01*
X67384226Y-63019284D01*
X67364601Y-63055999D01*
X67338186Y-63088186D01*
X67305999Y-63114601D01*
X67269284Y-63134226D01*
X67229434Y-63146314D01*
X67181859Y-63151000D01*
X66218141Y-63151000D01*
X66170566Y-63146314D01*
X66130716Y-63134226D01*
X66094001Y-63114601D01*
X66061814Y-63088186D01*
X66035399Y-63055999D01*
X66015774Y-63019284D01*
X66003686Y-62979434D01*
X65999000Y-62931859D01*
X65999000Y-62268141D01*
X66003686Y-62220566D01*
X66015774Y-62180716D01*
X66035399Y-62144001D01*
X66061814Y-62111814D01*
X66094001Y-62085399D01*
X66130716Y-62065774D01*
X66170566Y-62053686D01*
X66218141Y-62049000D01*
X67181859Y-62049000D01*
X67229434Y-62053686D01*
G37*
G36*
X81029434Y-62053686D02*
G01*
X81069284Y-62065774D01*
X81105999Y-62085399D01*
X81138186Y-62111814D01*
X81164601Y-62144001D01*
X81184226Y-62180716D01*
X81196314Y-62220566D01*
X81201000Y-62268141D01*
X81201000Y-62931859D01*
X81196314Y-62979434D01*
X81184226Y-63019284D01*
X81164601Y-63055999D01*
X81138186Y-63088186D01*
X81105999Y-63114601D01*
X81069284Y-63134226D01*
X81029434Y-63146314D01*
X80981859Y-63151000D01*
X80018141Y-63151000D01*
X79970566Y-63146314D01*
X79930716Y-63134226D01*
X79894001Y-63114601D01*
X79861814Y-63088186D01*
X79835399Y-63055999D01*
X79815774Y-63019284D01*
X79803686Y-62979434D01*
X79799000Y-62931859D01*
X79799000Y-62268141D01*
X79803686Y-62220566D01*
X79815774Y-62180716D01*
X79835399Y-62144001D01*
X79861814Y-62111814D01*
X79894001Y-62085399D01*
X79930716Y-62065774D01*
X79970566Y-62053686D01*
X80018141Y-62049000D01*
X80981859Y-62049000D01*
X81029434Y-62053686D01*
G37*
G36*
X91352505Y-60803732D02*
G01*
X91392798Y-60815955D01*
X91429935Y-60835805D01*
X91462483Y-60862517D01*
X91489195Y-60895065D01*
X91509045Y-60932202D01*
X91521268Y-60972495D01*
X91526000Y-61020541D01*
X91526000Y-62379459D01*
X91521268Y-62427505D01*
X91509045Y-62467798D01*
X91489195Y-62504935D01*
X91462483Y-62537483D01*
X91429935Y-62564195D01*
X91392798Y-62584045D01*
X91352505Y-62596268D01*
X91304459Y-62601000D01*
X90295541Y-62601000D01*
X90247495Y-62596268D01*
X90207202Y-62584045D01*
X90170065Y-62564195D01*
X90137517Y-62537483D01*
X90110805Y-62504935D01*
X90090955Y-62467798D01*
X90078732Y-62427505D01*
X90074000Y-62379459D01*
X90074000Y-61020541D01*
X90078732Y-60972495D01*
X90090955Y-60932202D01*
X90110805Y-60895065D01*
X90137517Y-60862517D01*
X90170065Y-60835805D01*
X90207202Y-60815955D01*
X90247495Y-60803732D01*
X90295541Y-60799000D01*
X91304459Y-60799000D01*
X91352505Y-60803732D01*
G37*
G36*
X75352505Y-60803732D02*
G01*
X75392798Y-60815955D01*
X75429935Y-60835805D01*
X75462483Y-60862517D01*
X75489195Y-60895065D01*
X75509045Y-60932202D01*
X75521268Y-60972495D01*
X75526000Y-61020541D01*
X75526000Y-62379459D01*
X75521268Y-62427505D01*
X75509045Y-62467798D01*
X75489195Y-62504935D01*
X75462483Y-62537483D01*
X75429935Y-62564195D01*
X75392798Y-62584045D01*
X75352505Y-62596268D01*
X75304459Y-62601000D01*
X74295541Y-62601000D01*
X74247495Y-62596268D01*
X74207202Y-62584045D01*
X74170065Y-62564195D01*
X74137517Y-62537483D01*
X74110805Y-62504935D01*
X74090955Y-62467798D01*
X74078732Y-62427505D01*
X74074000Y-62379459D01*
X74074000Y-61020541D01*
X74078732Y-60972495D01*
X74090955Y-60932202D01*
X74110805Y-60895065D01*
X74137517Y-60862517D01*
X74170065Y-60835805D01*
X74207202Y-60815955D01*
X74247495Y-60803732D01*
X74295541Y-60799000D01*
X75304459Y-60799000D01*
X75352505Y-60803732D01*
G37*
G36*
X67229434Y-60453686D02*
G01*
X67269284Y-60465774D01*
X67305999Y-60485399D01*
X67338186Y-60511814D01*
X67364601Y-60544001D01*
X67384226Y-60580716D01*
X67396314Y-60620566D01*
X67401000Y-60668141D01*
X67401000Y-61331859D01*
X67396314Y-61379434D01*
X67384226Y-61419284D01*
X67364601Y-61455999D01*
X67338186Y-61488186D01*
X67305999Y-61514601D01*
X67269284Y-61534226D01*
X67229434Y-61546314D01*
X67181859Y-61551000D01*
X66218141Y-61551000D01*
X66170566Y-61546314D01*
X66130716Y-61534226D01*
X66094001Y-61514601D01*
X66061814Y-61488186D01*
X66035399Y-61455999D01*
X66015774Y-61419284D01*
X66003686Y-61379434D01*
X65999000Y-61331859D01*
X65999000Y-60668141D01*
X66003686Y-60620566D01*
X66015774Y-60580716D01*
X66035399Y-60544001D01*
X66061814Y-60511814D01*
X66094001Y-60485399D01*
X66130716Y-60465774D01*
X66170566Y-60453686D01*
X66218141Y-60449000D01*
X67181859Y-60449000D01*
X67229434Y-60453686D01*
G37*
G36*
X81029434Y-60453686D02*
G01*
X81069284Y-60465774D01*
X81105999Y-60485399D01*
X81138186Y-60511814D01*
X81164601Y-60544001D01*
X81184226Y-60580716D01*
X81196314Y-60620566D01*
X81201000Y-60668141D01*
X81201000Y-61331859D01*
X81196314Y-61379434D01*
X81184226Y-61419284D01*
X81164601Y-61455999D01*
X81138186Y-61488186D01*
X81105999Y-61514601D01*
X81069284Y-61534226D01*
X81029434Y-61546314D01*
X80981859Y-61551000D01*
X80018141Y-61551000D01*
X79970566Y-61546314D01*
X79930716Y-61534226D01*
X79894001Y-61514601D01*
X79861814Y-61488186D01*
X79835399Y-61455999D01*
X79815774Y-61419284D01*
X79803686Y-61379434D01*
X79799000Y-61331859D01*
X79799000Y-60668141D01*
X79803686Y-60620566D01*
X79815774Y-60580716D01*
X79835399Y-60544001D01*
X79861814Y-60511814D01*
X79894001Y-60485399D01*
X79930716Y-60465774D01*
X79970566Y-60453686D01*
X80018141Y-60449000D01*
X80981859Y-60449000D01*
X81029434Y-60453686D01*
G37*
G36*
X65029434Y-60453686D02*
G01*
X65069284Y-60465774D01*
X65105999Y-60485399D01*
X65138186Y-60511814D01*
X65164601Y-60544001D01*
X65184226Y-60580716D01*
X65196314Y-60620566D01*
X65201000Y-60668141D01*
X65201000Y-61331859D01*
X65196314Y-61379434D01*
X65184226Y-61419284D01*
X65164601Y-61455999D01*
X65138186Y-61488186D01*
X65105999Y-61514601D01*
X65069284Y-61534226D01*
X65029434Y-61546314D01*
X64981859Y-61551000D01*
X64018141Y-61551000D01*
X63970566Y-61546314D01*
X63930716Y-61534226D01*
X63894001Y-61514601D01*
X63861814Y-61488186D01*
X63835399Y-61455999D01*
X63815774Y-61419284D01*
X63803686Y-61379434D01*
X63799000Y-61331859D01*
X63799000Y-60668141D01*
X63803686Y-60620566D01*
X63815774Y-60580716D01*
X63835399Y-60544001D01*
X63861814Y-60511814D01*
X63894001Y-60485399D01*
X63930716Y-60465774D01*
X63970566Y-60453686D01*
X64018141Y-60449000D01*
X64981859Y-60449000D01*
X65029434Y-60453686D01*
G37*
G36*
X83229434Y-60453686D02*
G01*
X83269284Y-60465774D01*
X83305999Y-60485399D01*
X83338186Y-60511814D01*
X83364601Y-60544001D01*
X83384226Y-60580716D01*
X83396314Y-60620566D01*
X83401000Y-60668141D01*
X83401000Y-61331859D01*
X83396314Y-61379434D01*
X83384226Y-61419284D01*
X83364601Y-61455999D01*
X83338186Y-61488186D01*
X83305999Y-61514601D01*
X83269284Y-61534226D01*
X83229434Y-61546314D01*
X83181859Y-61551000D01*
X82218141Y-61551000D01*
X82170566Y-61546314D01*
X82130716Y-61534226D01*
X82094001Y-61514601D01*
X82061814Y-61488186D01*
X82035399Y-61455999D01*
X82015774Y-61419284D01*
X82003686Y-61379434D01*
X81999000Y-61331859D01*
X81999000Y-60668141D01*
X82003686Y-60620566D01*
X82015774Y-60580716D01*
X82035399Y-60544001D01*
X82061814Y-60511814D01*
X82094001Y-60485399D01*
X82130716Y-60465774D01*
X82170566Y-60453686D01*
X82218141Y-60449000D01*
X83181859Y-60449000D01*
X83229434Y-60453686D01*
G37*
G36*
X90019453Y-58853924D02*
G01*
X90061628Y-58866718D01*
X90100488Y-58887489D01*
X90134554Y-58915446D01*
X90162511Y-58949512D01*
X90183282Y-58988372D01*
X90196076Y-59030547D01*
X90201000Y-59080540D01*
X90201000Y-60119460D01*
X90196076Y-60169453D01*
X90183282Y-60211628D01*
X90162511Y-60250488D01*
X90134554Y-60284554D01*
X90100488Y-60312511D01*
X90061628Y-60333282D01*
X90019453Y-60346076D01*
X89969460Y-60351000D01*
X88830540Y-60351000D01*
X88780547Y-60346076D01*
X88738372Y-60333282D01*
X88699512Y-60312511D01*
X88665446Y-60284554D01*
X88637489Y-60250488D01*
X88616718Y-60211628D01*
X88603924Y-60169453D01*
X88599000Y-60119460D01*
X88599000Y-59080540D01*
X88603924Y-59030547D01*
X88616718Y-58988372D01*
X88637489Y-58949512D01*
X88665446Y-58915446D01*
X88699512Y-58887489D01*
X88738372Y-58866718D01*
X88780547Y-58853924D01*
X88830540Y-58849000D01*
X89969460Y-58849000D01*
X90019453Y-58853924D01*
G37*
G36*
X71619453Y-58853924D02*
G01*
X71661628Y-58866718D01*
X71700488Y-58887489D01*
X71734554Y-58915446D01*
X71762511Y-58949512D01*
X71783282Y-58988372D01*
X71796076Y-59030547D01*
X71801000Y-59080540D01*
X71801000Y-60119460D01*
X71796076Y-60169453D01*
X71783282Y-60211628D01*
X71762511Y-60250488D01*
X71734554Y-60284554D01*
X71700488Y-60312511D01*
X71661628Y-60333282D01*
X71619453Y-60346076D01*
X71569460Y-60351000D01*
X70430540Y-60351000D01*
X70380547Y-60346076D01*
X70338372Y-60333282D01*
X70299512Y-60312511D01*
X70265446Y-60284554D01*
X70237489Y-60250488D01*
X70216718Y-60211628D01*
X70203924Y-60169453D01*
X70199000Y-60119460D01*
X70199000Y-59080540D01*
X70203924Y-59030547D01*
X70216718Y-58988372D01*
X70237489Y-58949512D01*
X70265446Y-58915446D01*
X70299512Y-58887489D01*
X70338372Y-58866718D01*
X70380547Y-58853924D01*
X70430540Y-58849000D01*
X71569460Y-58849000D01*
X71619453Y-58853924D01*
G37*
G36*
X87619453Y-58853924D02*
G01*
X87661628Y-58866718D01*
X87700488Y-58887489D01*
X87734554Y-58915446D01*
X87762511Y-58949512D01*
X87783282Y-58988372D01*
X87796076Y-59030547D01*
X87801000Y-59080540D01*
X87801000Y-60119460D01*
X87796076Y-60169453D01*
X87783282Y-60211628D01*
X87762511Y-60250488D01*
X87734554Y-60284554D01*
X87700488Y-60312511D01*
X87661628Y-60333282D01*
X87619453Y-60346076D01*
X87569460Y-60351000D01*
X86430540Y-60351000D01*
X86380547Y-60346076D01*
X86338372Y-60333282D01*
X86299512Y-60312511D01*
X86265446Y-60284554D01*
X86237489Y-60250488D01*
X86216718Y-60211628D01*
X86203924Y-60169453D01*
X86199000Y-60119460D01*
X86199000Y-59080540D01*
X86203924Y-59030547D01*
X86216718Y-58988372D01*
X86237489Y-58949512D01*
X86265446Y-58915446D01*
X86299512Y-58887489D01*
X86338372Y-58866718D01*
X86380547Y-58853924D01*
X86430540Y-58849000D01*
X87569460Y-58849000D01*
X87619453Y-58853924D01*
G37*
G36*
X74019453Y-58853924D02*
G01*
X74061628Y-58866718D01*
X74100488Y-58887489D01*
X74134554Y-58915446D01*
X74162511Y-58949512D01*
X74183282Y-58988372D01*
X74196076Y-59030547D01*
X74201000Y-59080540D01*
X74201000Y-60119460D01*
X74196076Y-60169453D01*
X74183282Y-60211628D01*
X74162511Y-60250488D01*
X74134554Y-60284554D01*
X74100488Y-60312511D01*
X74061628Y-60333282D01*
X74019453Y-60346076D01*
X73969460Y-60351000D01*
X72830540Y-60351000D01*
X72780547Y-60346076D01*
X72738372Y-60333282D01*
X72699512Y-60312511D01*
X72665446Y-60284554D01*
X72637489Y-60250488D01*
X72616718Y-60211628D01*
X72603924Y-60169453D01*
X72599000Y-60119460D01*
X72599000Y-59080540D01*
X72603924Y-59030547D01*
X72616718Y-58988372D01*
X72637489Y-58949512D01*
X72665446Y-58915446D01*
X72699512Y-58887489D01*
X72738372Y-58866718D01*
X72780547Y-58853924D01*
X72830540Y-58849000D01*
X73969460Y-58849000D01*
X74019453Y-58853924D01*
G37*
G36*
X66051000Y-59901000D02*
G01*
X65149000Y-59901000D01*
X65149000Y-57899000D01*
X66051000Y-57899000D01*
X66051000Y-59901000D01*
G37*
G36*
X82051000Y-59901000D02*
G01*
X81149000Y-59901000D01*
X81149000Y-57899000D01*
X82051000Y-57899000D01*
X82051000Y-59901000D01*
G37*
G36*
X68979434Y-57003686D02*
G01*
X69019284Y-57015774D01*
X69055999Y-57035399D01*
X69088186Y-57061814D01*
X69114601Y-57094001D01*
X69134226Y-57130716D01*
X69146314Y-57170566D01*
X69151000Y-57218141D01*
X69151000Y-58181859D01*
X69146314Y-58229434D01*
X69134226Y-58269284D01*
X69114601Y-58305999D01*
X69088186Y-58338186D01*
X69055999Y-58364601D01*
X69019284Y-58384226D01*
X68979434Y-58396314D01*
X68931859Y-58401000D01*
X68268141Y-58401000D01*
X68220566Y-58396314D01*
X68180716Y-58384226D01*
X68144001Y-58364601D01*
X68111814Y-58338186D01*
X68085399Y-58305999D01*
X68065774Y-58269284D01*
X68053686Y-58229434D01*
X68049000Y-58181859D01*
X68049000Y-57218141D01*
X68053686Y-57170566D01*
X68065774Y-57130716D01*
X68085399Y-57094001D01*
X68111814Y-57061814D01*
X68144001Y-57035399D01*
X68180716Y-57015774D01*
X68220566Y-57003686D01*
X68268141Y-56999000D01*
X68931859Y-56999000D01*
X68979434Y-57003686D01*
G37*
G36*
X91779434Y-57003686D02*
G01*
X91819284Y-57015774D01*
X91855999Y-57035399D01*
X91888186Y-57061814D01*
X91914601Y-57094001D01*
X91934226Y-57130716D01*
X91946314Y-57170566D01*
X91951000Y-57218141D01*
X91951000Y-58181859D01*
X91946314Y-58229434D01*
X91934226Y-58269284D01*
X91914601Y-58305999D01*
X91888186Y-58338186D01*
X91855999Y-58364601D01*
X91819284Y-58384226D01*
X91779434Y-58396314D01*
X91731859Y-58401000D01*
X91068141Y-58401000D01*
X91020566Y-58396314D01*
X90980716Y-58384226D01*
X90944001Y-58364601D01*
X90911814Y-58338186D01*
X90885399Y-58305999D01*
X90865774Y-58269284D01*
X90853686Y-58229434D01*
X90849000Y-58181859D01*
X90849000Y-57218141D01*
X90853686Y-57170566D01*
X90865774Y-57130716D01*
X90885399Y-57094001D01*
X90911814Y-57061814D01*
X90944001Y-57035399D01*
X90980716Y-57015774D01*
X91020566Y-57003686D01*
X91068141Y-56999000D01*
X91731859Y-56999000D01*
X91779434Y-57003686D01*
G37*
G36*
X75779434Y-57003686D02*
G01*
X75819284Y-57015774D01*
X75855999Y-57035399D01*
X75888186Y-57061814D01*
X75914601Y-57094001D01*
X75934226Y-57130716D01*
X75946314Y-57170566D01*
X75951000Y-57218141D01*
X75951000Y-58181859D01*
X75946314Y-58229434D01*
X75934226Y-58269284D01*
X75914601Y-58305999D01*
X75888186Y-58338186D01*
X75855999Y-58364601D01*
X75819284Y-58384226D01*
X75779434Y-58396314D01*
X75731859Y-58401000D01*
X75068141Y-58401000D01*
X75020566Y-58396314D01*
X74980716Y-58384226D01*
X74944001Y-58364601D01*
X74911814Y-58338186D01*
X74885399Y-58305999D01*
X74865774Y-58269284D01*
X74853686Y-58229434D01*
X74849000Y-58181859D01*
X74849000Y-57218141D01*
X74853686Y-57170566D01*
X74865774Y-57130716D01*
X74885399Y-57094001D01*
X74911814Y-57061814D01*
X74944001Y-57035399D01*
X74980716Y-57015774D01*
X75020566Y-57003686D01*
X75068141Y-56999000D01*
X75731859Y-56999000D01*
X75779434Y-57003686D01*
G37*
G36*
X84979434Y-57003686D02*
G01*
X85019284Y-57015774D01*
X85055999Y-57035399D01*
X85088186Y-57061814D01*
X85114601Y-57094001D01*
X85134226Y-57130716D01*
X85146314Y-57170566D01*
X85151000Y-57218141D01*
X85151000Y-58181859D01*
X85146314Y-58229434D01*
X85134226Y-58269284D01*
X85114601Y-58305999D01*
X85088186Y-58338186D01*
X85055999Y-58364601D01*
X85019284Y-58384226D01*
X84979434Y-58396314D01*
X84931859Y-58401000D01*
X84268141Y-58401000D01*
X84220566Y-58396314D01*
X84180716Y-58384226D01*
X84144001Y-58364601D01*
X84111814Y-58338186D01*
X84085399Y-58305999D01*
X84065774Y-58269284D01*
X84053686Y-58229434D01*
X84049000Y-58181859D01*
X84049000Y-57218141D01*
X84053686Y-57170566D01*
X84065774Y-57130716D01*
X84085399Y-57094001D01*
X84111814Y-57061814D01*
X84144001Y-57035399D01*
X84180716Y-57015774D01*
X84220566Y-57003686D01*
X84268141Y-56999000D01*
X84931859Y-56999000D01*
X84979434Y-57003686D01*
G37*
G36*
X90181000Y-57926000D02*
G01*
X88519000Y-57926000D01*
X88519000Y-57174000D01*
X90181000Y-57174000D01*
X90181000Y-57926000D01*
G37*
G36*
X87481000Y-57926000D02*
G01*
X85819000Y-57926000D01*
X85819000Y-55274000D01*
X87481000Y-55274000D01*
X87481000Y-57926000D01*
G37*
G36*
X74181000Y-57926000D02*
G01*
X72519000Y-57926000D01*
X72519000Y-57174000D01*
X74181000Y-57174000D01*
X74181000Y-57926000D01*
G37*
G36*
X71481000Y-57926000D02*
G01*
X69819000Y-57926000D01*
X69819000Y-55274000D01*
X71481000Y-55274000D01*
X71481000Y-57926000D01*
G37*
G36*
X83001000Y-56901000D02*
G01*
X82099000Y-56901000D01*
X82099000Y-54899000D01*
X83001000Y-54899000D01*
X83001000Y-56901000D01*
G37*
G36*
X81101000Y-56901000D02*
G01*
X80199000Y-56901000D01*
X80199000Y-54899000D01*
X81101000Y-54899000D01*
X81101000Y-56901000D01*
G37*
G36*
X67001000Y-56901000D02*
G01*
X66099000Y-56901000D01*
X66099000Y-54899000D01*
X67001000Y-54899000D01*
X67001000Y-56901000D01*
G37*
G36*
X65101000Y-56901000D02*
G01*
X64199000Y-56901000D01*
X64199000Y-54899000D01*
X65101000Y-54899000D01*
X65101000Y-56901000D01*
G37*
G36*
X68979434Y-54803686D02*
G01*
X69019284Y-54815774D01*
X69055999Y-54835399D01*
X69088186Y-54861814D01*
X69114601Y-54894001D01*
X69134226Y-54930716D01*
X69146314Y-54970566D01*
X69151000Y-55018141D01*
X69151000Y-55981859D01*
X69146314Y-56029434D01*
X69134226Y-56069284D01*
X69114601Y-56105999D01*
X69088186Y-56138186D01*
X69055999Y-56164601D01*
X69019284Y-56184226D01*
X68979434Y-56196314D01*
X68931859Y-56201000D01*
X68268141Y-56201000D01*
X68220566Y-56196314D01*
X68180716Y-56184226D01*
X68144001Y-56164601D01*
X68111814Y-56138186D01*
X68085399Y-56105999D01*
X68065774Y-56069284D01*
X68053686Y-56029434D01*
X68049000Y-55981859D01*
X68049000Y-55018141D01*
X68053686Y-54970566D01*
X68065774Y-54930716D01*
X68085399Y-54894001D01*
X68111814Y-54861814D01*
X68144001Y-54835399D01*
X68180716Y-54815774D01*
X68220566Y-54803686D01*
X68268141Y-54799000D01*
X68931859Y-54799000D01*
X68979434Y-54803686D01*
G37*
G36*
X91779434Y-54803686D02*
G01*
X91819284Y-54815774D01*
X91855999Y-54835399D01*
X91888186Y-54861814D01*
X91914601Y-54894001D01*
X91934226Y-54930716D01*
X91946314Y-54970566D01*
X91951000Y-55018141D01*
X91951000Y-55981859D01*
X91946314Y-56029434D01*
X91934226Y-56069284D01*
X91914601Y-56105999D01*
X91888186Y-56138186D01*
X91855999Y-56164601D01*
X91819284Y-56184226D01*
X91779434Y-56196314D01*
X91731859Y-56201000D01*
X91068141Y-56201000D01*
X91020566Y-56196314D01*
X90980716Y-56184226D01*
X90944001Y-56164601D01*
X90911814Y-56138186D01*
X90885399Y-56105999D01*
X90865774Y-56069284D01*
X90853686Y-56029434D01*
X90849000Y-55981859D01*
X90849000Y-55018141D01*
X90853686Y-54970566D01*
X90865774Y-54930716D01*
X90885399Y-54894001D01*
X90911814Y-54861814D01*
X90944001Y-54835399D01*
X90980716Y-54815774D01*
X91020566Y-54803686D01*
X91068141Y-54799000D01*
X91731859Y-54799000D01*
X91779434Y-54803686D01*
G37*
G36*
X84979434Y-54803686D02*
G01*
X85019284Y-54815774D01*
X85055999Y-54835399D01*
X85088186Y-54861814D01*
X85114601Y-54894001D01*
X85134226Y-54930716D01*
X85146314Y-54970566D01*
X85151000Y-55018141D01*
X85151000Y-55981859D01*
X85146314Y-56029434D01*
X85134226Y-56069284D01*
X85114601Y-56105999D01*
X85088186Y-56138186D01*
X85055999Y-56164601D01*
X85019284Y-56184226D01*
X84979434Y-56196314D01*
X84931859Y-56201000D01*
X84268141Y-56201000D01*
X84220566Y-56196314D01*
X84180716Y-56184226D01*
X84144001Y-56164601D01*
X84111814Y-56138186D01*
X84085399Y-56105999D01*
X84065774Y-56069284D01*
X84053686Y-56029434D01*
X84049000Y-55981859D01*
X84049000Y-55018141D01*
X84053686Y-54970566D01*
X84065774Y-54930716D01*
X84085399Y-54894001D01*
X84111814Y-54861814D01*
X84144001Y-54835399D01*
X84180716Y-54815774D01*
X84220566Y-54803686D01*
X84268141Y-54799000D01*
X84931859Y-54799000D01*
X84979434Y-54803686D01*
G37*
G36*
X75779434Y-54803686D02*
G01*
X75819284Y-54815774D01*
X75855999Y-54835399D01*
X75888186Y-54861814D01*
X75914601Y-54894001D01*
X75934226Y-54930716D01*
X75946314Y-54970566D01*
X75951000Y-55018141D01*
X75951000Y-55981859D01*
X75946314Y-56029434D01*
X75934226Y-56069284D01*
X75914601Y-56105999D01*
X75888186Y-56138186D01*
X75855999Y-56164601D01*
X75819284Y-56184226D01*
X75779434Y-56196314D01*
X75731859Y-56201000D01*
X75068141Y-56201000D01*
X75020566Y-56196314D01*
X74980716Y-56184226D01*
X74944001Y-56164601D01*
X74911814Y-56138186D01*
X74885399Y-56105999D01*
X74865774Y-56069284D01*
X74853686Y-56029434D01*
X74849000Y-55981859D01*
X74849000Y-55018141D01*
X74853686Y-54970566D01*
X74865774Y-54930716D01*
X74885399Y-54894001D01*
X74911814Y-54861814D01*
X74944001Y-54835399D01*
X74980716Y-54815774D01*
X75020566Y-54803686D01*
X75068141Y-54799000D01*
X75731859Y-54799000D01*
X75779434Y-54803686D01*
G37*
G36*
X90181000Y-56026000D02*
G01*
X88519000Y-56026000D01*
X88519000Y-55274000D01*
X90181000Y-55274000D01*
X90181000Y-56026000D01*
G37*
G36*
X74181000Y-56026000D02*
G01*
X72519000Y-56026000D01*
X72519000Y-55274000D01*
X74181000Y-55274000D01*
X74181000Y-56026000D01*
G37*
G36*
X69229434Y-53253686D02*
G01*
X69269284Y-53265774D01*
X69305999Y-53285399D01*
X69338186Y-53311814D01*
X69364601Y-53344001D01*
X69384226Y-53380716D01*
X69396314Y-53420566D01*
X69401000Y-53468141D01*
X69401000Y-54131859D01*
X69396314Y-54179434D01*
X69384226Y-54219284D01*
X69364601Y-54255999D01*
X69338186Y-54288186D01*
X69305999Y-54314601D01*
X69269284Y-54334226D01*
X69229434Y-54346314D01*
X69181859Y-54351000D01*
X68218141Y-54351000D01*
X68170566Y-54346314D01*
X68130716Y-54334226D01*
X68094001Y-54314601D01*
X68061814Y-54288186D01*
X68035399Y-54255999D01*
X68015774Y-54219284D01*
X68003686Y-54179434D01*
X67999000Y-54131859D01*
X67999000Y-53468141D01*
X68003686Y-53420566D01*
X68015774Y-53380716D01*
X68035399Y-53344001D01*
X68061814Y-53311814D01*
X68094001Y-53285399D01*
X68130716Y-53265774D01*
X68170566Y-53253686D01*
X68218141Y-53249000D01*
X69181859Y-53249000D01*
X69229434Y-53253686D01*
G37*
G36*
X71429434Y-53253686D02*
G01*
X71469284Y-53265774D01*
X71505999Y-53285399D01*
X71538186Y-53311814D01*
X71564601Y-53344001D01*
X71584226Y-53380716D01*
X71596314Y-53420566D01*
X71601000Y-53468141D01*
X71601000Y-54131859D01*
X71596314Y-54179434D01*
X71584226Y-54219284D01*
X71564601Y-54255999D01*
X71538186Y-54288186D01*
X71505999Y-54314601D01*
X71469284Y-54334226D01*
X71429434Y-54346314D01*
X71381859Y-54351000D01*
X70418141Y-54351000D01*
X70370566Y-54346314D01*
X70330716Y-54334226D01*
X70294001Y-54314601D01*
X70261814Y-54288186D01*
X70235399Y-54255999D01*
X70215774Y-54219284D01*
X70203686Y-54179434D01*
X70199000Y-54131859D01*
X70199000Y-53468141D01*
X70203686Y-53420566D01*
X70215774Y-53380716D01*
X70235399Y-53344001D01*
X70261814Y-53311814D01*
X70294001Y-53285399D01*
X70330716Y-53265774D01*
X70370566Y-53253686D01*
X70418141Y-53249000D01*
X71381859Y-53249000D01*
X71429434Y-53253686D01*
G37*
G36*
X73629434Y-53253686D02*
G01*
X73669284Y-53265774D01*
X73705999Y-53285399D01*
X73738186Y-53311814D01*
X73764601Y-53344001D01*
X73784226Y-53380716D01*
X73796314Y-53420566D01*
X73801000Y-53468141D01*
X73801000Y-54131859D01*
X73796314Y-54179434D01*
X73784226Y-54219284D01*
X73764601Y-54255999D01*
X73738186Y-54288186D01*
X73705999Y-54314601D01*
X73669284Y-54334226D01*
X73629434Y-54346314D01*
X73581859Y-54351000D01*
X72618141Y-54351000D01*
X72570566Y-54346314D01*
X72530716Y-54334226D01*
X72494001Y-54314601D01*
X72461814Y-54288186D01*
X72435399Y-54255999D01*
X72415774Y-54219284D01*
X72403686Y-54179434D01*
X72399000Y-54131859D01*
X72399000Y-53468141D01*
X72403686Y-53420566D01*
X72415774Y-53380716D01*
X72435399Y-53344001D01*
X72461814Y-53311814D01*
X72494001Y-53285399D01*
X72530716Y-53265774D01*
X72570566Y-53253686D01*
X72618141Y-53249000D01*
X73581859Y-53249000D01*
X73629434Y-53253686D01*
G37*
G36*
X75829434Y-53253686D02*
G01*
X75869284Y-53265774D01*
X75905999Y-53285399D01*
X75938186Y-53311814D01*
X75964601Y-53344001D01*
X75984226Y-53380716D01*
X75996314Y-53420566D01*
X76001000Y-53468141D01*
X76001000Y-54131859D01*
X75996314Y-54179434D01*
X75984226Y-54219284D01*
X75964601Y-54255999D01*
X75938186Y-54288186D01*
X75905999Y-54314601D01*
X75869284Y-54334226D01*
X75829434Y-54346314D01*
X75781859Y-54351000D01*
X74818141Y-54351000D01*
X74770566Y-54346314D01*
X74730716Y-54334226D01*
X74694001Y-54314601D01*
X74661814Y-54288186D01*
X74635399Y-54255999D01*
X74615774Y-54219284D01*
X74603686Y-54179434D01*
X74599000Y-54131859D01*
X74599000Y-53468141D01*
X74603686Y-53420566D01*
X74615774Y-53380716D01*
X74635399Y-53344001D01*
X74661814Y-53311814D01*
X74694001Y-53285399D01*
X74730716Y-53265774D01*
X74770566Y-53253686D01*
X74818141Y-53249000D01*
X75781859Y-53249000D01*
X75829434Y-53253686D01*
G37*
G36*
X87429434Y-53253686D02*
G01*
X87469284Y-53265774D01*
X87505999Y-53285399D01*
X87538186Y-53311814D01*
X87564601Y-53344001D01*
X87584226Y-53380716D01*
X87596314Y-53420566D01*
X87601000Y-53468141D01*
X87601000Y-54131859D01*
X87596314Y-54179434D01*
X87584226Y-54219284D01*
X87564601Y-54255999D01*
X87538186Y-54288186D01*
X87505999Y-54314601D01*
X87469284Y-54334226D01*
X87429434Y-54346314D01*
X87381859Y-54351000D01*
X86418141Y-54351000D01*
X86370566Y-54346314D01*
X86330716Y-54334226D01*
X86294001Y-54314601D01*
X86261814Y-54288186D01*
X86235399Y-54255999D01*
X86215774Y-54219284D01*
X86203686Y-54179434D01*
X86199000Y-54131859D01*
X86199000Y-53468141D01*
X86203686Y-53420566D01*
X86215774Y-53380716D01*
X86235399Y-53344001D01*
X86261814Y-53311814D01*
X86294001Y-53285399D01*
X86330716Y-53265774D01*
X86370566Y-53253686D01*
X86418141Y-53249000D01*
X87381859Y-53249000D01*
X87429434Y-53253686D01*
G37*
G36*
X85229434Y-53253686D02*
G01*
X85269284Y-53265774D01*
X85305999Y-53285399D01*
X85338186Y-53311814D01*
X85364601Y-53344001D01*
X85384226Y-53380716D01*
X85396314Y-53420566D01*
X85401000Y-53468141D01*
X85401000Y-54131859D01*
X85396314Y-54179434D01*
X85384226Y-54219284D01*
X85364601Y-54255999D01*
X85338186Y-54288186D01*
X85305999Y-54314601D01*
X85269284Y-54334226D01*
X85229434Y-54346314D01*
X85181859Y-54351000D01*
X84218141Y-54351000D01*
X84170566Y-54346314D01*
X84130716Y-54334226D01*
X84094001Y-54314601D01*
X84061814Y-54288186D01*
X84035399Y-54255999D01*
X84015774Y-54219284D01*
X84003686Y-54179434D01*
X83999000Y-54131859D01*
X83999000Y-53468141D01*
X84003686Y-53420566D01*
X84015774Y-53380716D01*
X84035399Y-53344001D01*
X84061814Y-53311814D01*
X84094001Y-53285399D01*
X84130716Y-53265774D01*
X84170566Y-53253686D01*
X84218141Y-53249000D01*
X85181859Y-53249000D01*
X85229434Y-53253686D01*
G37*
G36*
X91829434Y-53253686D02*
G01*
X91869284Y-53265774D01*
X91905999Y-53285399D01*
X91938186Y-53311814D01*
X91964601Y-53344001D01*
X91984226Y-53380716D01*
X91996314Y-53420566D01*
X92001000Y-53468141D01*
X92001000Y-54131859D01*
X91996314Y-54179434D01*
X91984226Y-54219284D01*
X91964601Y-54255999D01*
X91938186Y-54288186D01*
X91905999Y-54314601D01*
X91869284Y-54334226D01*
X91829434Y-54346314D01*
X91781859Y-54351000D01*
X90818141Y-54351000D01*
X90770566Y-54346314D01*
X90730716Y-54334226D01*
X90694001Y-54314601D01*
X90661814Y-54288186D01*
X90635399Y-54255999D01*
X90615774Y-54219284D01*
X90603686Y-54179434D01*
X90599000Y-54131859D01*
X90599000Y-53468141D01*
X90603686Y-53420566D01*
X90615774Y-53380716D01*
X90635399Y-53344001D01*
X90661814Y-53311814D01*
X90694001Y-53285399D01*
X90730716Y-53265774D01*
X90770566Y-53253686D01*
X90818141Y-53249000D01*
X91781859Y-53249000D01*
X91829434Y-53253686D01*
G37*
G36*
X89629434Y-53253686D02*
G01*
X89669284Y-53265774D01*
X89705999Y-53285399D01*
X89738186Y-53311814D01*
X89764601Y-53344001D01*
X89784226Y-53380716D01*
X89796314Y-53420566D01*
X89801000Y-53468141D01*
X89801000Y-54131859D01*
X89796314Y-54179434D01*
X89784226Y-54219284D01*
X89764601Y-54255999D01*
X89738186Y-54288186D01*
X89705999Y-54314601D01*
X89669284Y-54334226D01*
X89629434Y-54346314D01*
X89581859Y-54351000D01*
X88618141Y-54351000D01*
X88570566Y-54346314D01*
X88530716Y-54334226D01*
X88494001Y-54314601D01*
X88461814Y-54288186D01*
X88435399Y-54255999D01*
X88415774Y-54219284D01*
X88403686Y-54179434D01*
X88399000Y-54131859D01*
X88399000Y-53468141D01*
X88403686Y-53420566D01*
X88415774Y-53380716D01*
X88435399Y-53344001D01*
X88461814Y-53311814D01*
X88494001Y-53285399D01*
X88530716Y-53265774D01*
X88570566Y-53253686D01*
X88618141Y-53249000D01*
X89581859Y-53249000D01*
X89629434Y-53253686D01*
G37*
G36*
X81029434Y-53253686D02*
G01*
X81069284Y-53265774D01*
X81105999Y-53285399D01*
X81138186Y-53311814D01*
X81164601Y-53344001D01*
X81184226Y-53380716D01*
X81196314Y-53420566D01*
X81201000Y-53468141D01*
X81201000Y-54131859D01*
X81196314Y-54179434D01*
X81184226Y-54219284D01*
X81164601Y-54255999D01*
X81138186Y-54288186D01*
X81105999Y-54314601D01*
X81069284Y-54334226D01*
X81029434Y-54346314D01*
X80981859Y-54351000D01*
X80018141Y-54351000D01*
X79970566Y-54346314D01*
X79930716Y-54334226D01*
X79894001Y-54314601D01*
X79861814Y-54288186D01*
X79835399Y-54255999D01*
X79815774Y-54219284D01*
X79803686Y-54179434D01*
X79799000Y-54131859D01*
X79799000Y-53468141D01*
X79803686Y-53420566D01*
X79815774Y-53380716D01*
X79835399Y-53344001D01*
X79861814Y-53311814D01*
X79894001Y-53285399D01*
X79930716Y-53265774D01*
X79970566Y-53253686D01*
X80018141Y-53249000D01*
X80981859Y-53249000D01*
X81029434Y-53253686D01*
G37*
G36*
X83229434Y-53253686D02*
G01*
X83269284Y-53265774D01*
X83305999Y-53285399D01*
X83338186Y-53311814D01*
X83364601Y-53344001D01*
X83384226Y-53380716D01*
X83396314Y-53420566D01*
X83401000Y-53468141D01*
X83401000Y-54131859D01*
X83396314Y-54179434D01*
X83384226Y-54219284D01*
X83364601Y-54255999D01*
X83338186Y-54288186D01*
X83305999Y-54314601D01*
X83269284Y-54334226D01*
X83229434Y-54346314D01*
X83181859Y-54351000D01*
X82218141Y-54351000D01*
X82170566Y-54346314D01*
X82130716Y-54334226D01*
X82094001Y-54314601D01*
X82061814Y-54288186D01*
X82035399Y-54255999D01*
X82015774Y-54219284D01*
X82003686Y-54179434D01*
X81999000Y-54131859D01*
X81999000Y-53468141D01*
X82003686Y-53420566D01*
X82015774Y-53380716D01*
X82035399Y-53344001D01*
X82061814Y-53311814D01*
X82094001Y-53285399D01*
X82130716Y-53265774D01*
X82170566Y-53253686D01*
X82218141Y-53249000D01*
X83181859Y-53249000D01*
X83229434Y-53253686D01*
G37*
G36*
X65029434Y-53253686D02*
G01*
X65069284Y-53265774D01*
X65105999Y-53285399D01*
X65138186Y-53311814D01*
X65164601Y-53344001D01*
X65184226Y-53380716D01*
X65196314Y-53420566D01*
X65201000Y-53468141D01*
X65201000Y-54131859D01*
X65196314Y-54179434D01*
X65184226Y-54219284D01*
X65164601Y-54255999D01*
X65138186Y-54288186D01*
X65105999Y-54314601D01*
X65069284Y-54334226D01*
X65029434Y-54346314D01*
X64981859Y-54351000D01*
X64018141Y-54351000D01*
X63970566Y-54346314D01*
X63930716Y-54334226D01*
X63894001Y-54314601D01*
X63861814Y-54288186D01*
X63835399Y-54255999D01*
X63815774Y-54219284D01*
X63803686Y-54179434D01*
X63799000Y-54131859D01*
X63799000Y-53468141D01*
X63803686Y-53420566D01*
X63815774Y-53380716D01*
X63835399Y-53344001D01*
X63861814Y-53311814D01*
X63894001Y-53285399D01*
X63930716Y-53265774D01*
X63970566Y-53253686D01*
X64018141Y-53249000D01*
X64981859Y-53249000D01*
X65029434Y-53253686D01*
G37*
G36*
X67229434Y-53253686D02*
G01*
X67269284Y-53265774D01*
X67305999Y-53285399D01*
X67338186Y-53311814D01*
X67364601Y-53344001D01*
X67384226Y-53380716D01*
X67396314Y-53420566D01*
X67401000Y-53468141D01*
X67401000Y-54131859D01*
X67396314Y-54179434D01*
X67384226Y-54219284D01*
X67364601Y-54255999D01*
X67338186Y-54288186D01*
X67305999Y-54314601D01*
X67269284Y-54334226D01*
X67229434Y-54346314D01*
X67181859Y-54351000D01*
X66218141Y-54351000D01*
X66170566Y-54346314D01*
X66130716Y-54334226D01*
X66094001Y-54314601D01*
X66061814Y-54288186D01*
X66035399Y-54255999D01*
X66015774Y-54219284D01*
X66003686Y-54179434D01*
X65999000Y-54131859D01*
X65999000Y-53468141D01*
X66003686Y-53420566D01*
X66015774Y-53380716D01*
X66035399Y-53344001D01*
X66061814Y-53311814D01*
X66094001Y-53285399D01*
X66130716Y-53265774D01*
X66170566Y-53253686D01*
X66218141Y-53249000D01*
X67181859Y-53249000D01*
X67229434Y-53253686D01*
G37*
G36*
X84293395Y-48960814D02*
G01*
X84363784Y-48982166D01*
X84428646Y-49016836D01*
X84485503Y-49063497D01*
X84532164Y-49120354D01*
X84566834Y-49185216D01*
X84588186Y-49255605D01*
X84596000Y-49334940D01*
X84596000Y-51173060D01*
X84588186Y-51252395D01*
X84566834Y-51322784D01*
X84532164Y-51387646D01*
X84485503Y-51444503D01*
X84428646Y-51491164D01*
X84363784Y-51525834D01*
X84293395Y-51547186D01*
X84214060Y-51555000D01*
X83975940Y-51555000D01*
X83896605Y-51547186D01*
X83826216Y-51525834D01*
X83761354Y-51491164D01*
X83704497Y-51444503D01*
X83657836Y-51387646D01*
X83623166Y-51322784D01*
X83601814Y-51252395D01*
X83594000Y-51173060D01*
X83594000Y-49334940D01*
X83601814Y-49255605D01*
X83623166Y-49185216D01*
X83657836Y-49120354D01*
X83704497Y-49063497D01*
X83761354Y-49016836D01*
X83826216Y-48982166D01*
X83896605Y-48960814D01*
X83975940Y-48953000D01*
X84214060Y-48953000D01*
X84293395Y-48960814D01*
G37*
G36*
X83023395Y-48960814D02*
G01*
X83093784Y-48982166D01*
X83158646Y-49016836D01*
X83215503Y-49063497D01*
X83262164Y-49120354D01*
X83296834Y-49185216D01*
X83318186Y-49255605D01*
X83326000Y-49334940D01*
X83326000Y-51173060D01*
X83318186Y-51252395D01*
X83296834Y-51322784D01*
X83262164Y-51387646D01*
X83215503Y-51444503D01*
X83158646Y-51491164D01*
X83093784Y-51525834D01*
X83023395Y-51547186D01*
X82944060Y-51555000D01*
X82705940Y-51555000D01*
X82626605Y-51547186D01*
X82556216Y-51525834D01*
X82491354Y-51491164D01*
X82434497Y-51444503D01*
X82387836Y-51387646D01*
X82353166Y-51322784D01*
X82331814Y-51252395D01*
X82324000Y-51173060D01*
X82324000Y-49334940D01*
X82331814Y-49255605D01*
X82353166Y-49185216D01*
X82387836Y-49120354D01*
X82434497Y-49063497D01*
X82491354Y-49016836D01*
X82556216Y-48982166D01*
X82626605Y-48960814D01*
X82705940Y-48953000D01*
X82944060Y-48953000D01*
X83023395Y-48960814D01*
G37*
G36*
X81753395Y-48960814D02*
G01*
X81823784Y-48982166D01*
X81888646Y-49016836D01*
X81945503Y-49063497D01*
X81992164Y-49120354D01*
X82026834Y-49185216D01*
X82048186Y-49255605D01*
X82056000Y-49334940D01*
X82056000Y-51173060D01*
X82048186Y-51252395D01*
X82026834Y-51322784D01*
X81992164Y-51387646D01*
X81945503Y-51444503D01*
X81888646Y-51491164D01*
X81823784Y-51525834D01*
X81753395Y-51547186D01*
X81674060Y-51555000D01*
X81435940Y-51555000D01*
X81356605Y-51547186D01*
X81286216Y-51525834D01*
X81221354Y-51491164D01*
X81164497Y-51444503D01*
X81117836Y-51387646D01*
X81083166Y-51322784D01*
X81061814Y-51252395D01*
X81054000Y-51173060D01*
X81054000Y-49334940D01*
X81061814Y-49255605D01*
X81083166Y-49185216D01*
X81117836Y-49120354D01*
X81164497Y-49063497D01*
X81221354Y-49016836D01*
X81286216Y-48982166D01*
X81356605Y-48960814D01*
X81435940Y-48953000D01*
X81674060Y-48953000D01*
X81753395Y-48960814D01*
G37*
G36*
X74643395Y-48960814D02*
G01*
X74713784Y-48982166D01*
X74778646Y-49016836D01*
X74835503Y-49063497D01*
X74882164Y-49120354D01*
X74916834Y-49185216D01*
X74938186Y-49255605D01*
X74946000Y-49334940D01*
X74946000Y-51173060D01*
X74938186Y-51252395D01*
X74916834Y-51322784D01*
X74882164Y-51387646D01*
X74835503Y-51444503D01*
X74778646Y-51491164D01*
X74713784Y-51525834D01*
X74643395Y-51547186D01*
X74564060Y-51555000D01*
X74325940Y-51555000D01*
X74246605Y-51547186D01*
X74176216Y-51525834D01*
X74111354Y-51491164D01*
X74054497Y-51444503D01*
X74007836Y-51387646D01*
X73973166Y-51322784D01*
X73951814Y-51252395D01*
X73944000Y-51173060D01*
X73944000Y-49334940D01*
X73951814Y-49255605D01*
X73973166Y-49185216D01*
X74007836Y-49120354D01*
X74054497Y-49063497D01*
X74111354Y-49016836D01*
X74176216Y-48982166D01*
X74246605Y-48960814D01*
X74325940Y-48953000D01*
X74564060Y-48953000D01*
X74643395Y-48960814D01*
G37*
G36*
X73373395Y-48960814D02*
G01*
X73443784Y-48982166D01*
X73508646Y-49016836D01*
X73565503Y-49063497D01*
X73612164Y-49120354D01*
X73646834Y-49185216D01*
X73668186Y-49255605D01*
X73676000Y-49334940D01*
X73676000Y-51173060D01*
X73668186Y-51252395D01*
X73646834Y-51322784D01*
X73612164Y-51387646D01*
X73565503Y-51444503D01*
X73508646Y-51491164D01*
X73443784Y-51525834D01*
X73373395Y-51547186D01*
X73294060Y-51555000D01*
X73055940Y-51555000D01*
X72976605Y-51547186D01*
X72906216Y-51525834D01*
X72841354Y-51491164D01*
X72784497Y-51444503D01*
X72737836Y-51387646D01*
X72703166Y-51322784D01*
X72681814Y-51252395D01*
X72674000Y-51173060D01*
X72674000Y-49334940D01*
X72681814Y-49255605D01*
X72703166Y-49185216D01*
X72737836Y-49120354D01*
X72784497Y-49063497D01*
X72841354Y-49016836D01*
X72906216Y-48982166D01*
X72976605Y-48960814D01*
X73055940Y-48953000D01*
X73294060Y-48953000D01*
X73373395Y-48960814D01*
G37*
G36*
X72103395Y-48960814D02*
G01*
X72173784Y-48982166D01*
X72238646Y-49016836D01*
X72295503Y-49063497D01*
X72342164Y-49120354D01*
X72376834Y-49185216D01*
X72398186Y-49255605D01*
X72406000Y-49334940D01*
X72406000Y-51173060D01*
X72398186Y-51252395D01*
X72376834Y-51322784D01*
X72342164Y-51387646D01*
X72295503Y-51444503D01*
X72238646Y-51491164D01*
X72173784Y-51525834D01*
X72103395Y-51547186D01*
X72024060Y-51555000D01*
X71785940Y-51555000D01*
X71706605Y-51547186D01*
X71636216Y-51525834D01*
X71571354Y-51491164D01*
X71514497Y-51444503D01*
X71467836Y-51387646D01*
X71433166Y-51322784D01*
X71411814Y-51252395D01*
X71404000Y-51173060D01*
X71404000Y-49334940D01*
X71411814Y-49255605D01*
X71433166Y-49185216D01*
X71467836Y-49120354D01*
X71514497Y-49063497D01*
X71571354Y-49016836D01*
X71636216Y-48982166D01*
X71706605Y-48960814D01*
X71785940Y-48953000D01*
X72024060Y-48953000D01*
X72103395Y-48960814D01*
G37*
G36*
X70833395Y-48960814D02*
G01*
X70903784Y-48982166D01*
X70968646Y-49016836D01*
X71025503Y-49063497D01*
X71072164Y-49120354D01*
X71106834Y-49185216D01*
X71128186Y-49255605D01*
X71136000Y-49334940D01*
X71136000Y-51173060D01*
X71128186Y-51252395D01*
X71106834Y-51322784D01*
X71072164Y-51387646D01*
X71025503Y-51444503D01*
X70968646Y-51491164D01*
X70903784Y-51525834D01*
X70833395Y-51547186D01*
X70754060Y-51555000D01*
X70515940Y-51555000D01*
X70436605Y-51547186D01*
X70366216Y-51525834D01*
X70301354Y-51491164D01*
X70244497Y-51444503D01*
X70197836Y-51387646D01*
X70163166Y-51322784D01*
X70141814Y-51252395D01*
X70134000Y-51173060D01*
X70134000Y-49334940D01*
X70141814Y-49255605D01*
X70163166Y-49185216D01*
X70197836Y-49120354D01*
X70244497Y-49063497D01*
X70301354Y-49016836D01*
X70366216Y-48982166D01*
X70436605Y-48960814D01*
X70515940Y-48953000D01*
X70754060Y-48953000D01*
X70833395Y-48960814D01*
G37*
G36*
X69563395Y-48960814D02*
G01*
X69633784Y-48982166D01*
X69698646Y-49016836D01*
X69755503Y-49063497D01*
X69802164Y-49120354D01*
X69836834Y-49185216D01*
X69858186Y-49255605D01*
X69866000Y-49334940D01*
X69866000Y-51173060D01*
X69858186Y-51252395D01*
X69836834Y-51322784D01*
X69802164Y-51387646D01*
X69755503Y-51444503D01*
X69698646Y-51491164D01*
X69633784Y-51525834D01*
X69563395Y-51547186D01*
X69484060Y-51555000D01*
X69245940Y-51555000D01*
X69166605Y-51547186D01*
X69096216Y-51525834D01*
X69031354Y-51491164D01*
X68974497Y-51444503D01*
X68927836Y-51387646D01*
X68893166Y-51322784D01*
X68871814Y-51252395D01*
X68864000Y-51173060D01*
X68864000Y-49334940D01*
X68871814Y-49255605D01*
X68893166Y-49185216D01*
X68927836Y-49120354D01*
X68974497Y-49063497D01*
X69031354Y-49016836D01*
X69096216Y-48982166D01*
X69166605Y-48960814D01*
X69245940Y-48953000D01*
X69484060Y-48953000D01*
X69563395Y-48960814D01*
G37*
G36*
X68293395Y-48960814D02*
G01*
X68363784Y-48982166D01*
X68428646Y-49016836D01*
X68485503Y-49063497D01*
X68532164Y-49120354D01*
X68566834Y-49185216D01*
X68588186Y-49255605D01*
X68596000Y-49334940D01*
X68596000Y-51173060D01*
X68588186Y-51252395D01*
X68566834Y-51322784D01*
X68532164Y-51387646D01*
X68485503Y-51444503D01*
X68428646Y-51491164D01*
X68363784Y-51525834D01*
X68293395Y-51547186D01*
X68214060Y-51555000D01*
X67975940Y-51555000D01*
X67896605Y-51547186D01*
X67826216Y-51525834D01*
X67761354Y-51491164D01*
X67704497Y-51444503D01*
X67657836Y-51387646D01*
X67623166Y-51322784D01*
X67601814Y-51252395D01*
X67594000Y-51173060D01*
X67594000Y-49334940D01*
X67601814Y-49255605D01*
X67623166Y-49185216D01*
X67657836Y-49120354D01*
X67704497Y-49063497D01*
X67761354Y-49016836D01*
X67826216Y-48982166D01*
X67896605Y-48960814D01*
X67975940Y-48953000D01*
X68214060Y-48953000D01*
X68293395Y-48960814D01*
G37*
G36*
X67023395Y-48960814D02*
G01*
X67093784Y-48982166D01*
X67158646Y-49016836D01*
X67215503Y-49063497D01*
X67262164Y-49120354D01*
X67296834Y-49185216D01*
X67318186Y-49255605D01*
X67326000Y-49334940D01*
X67326000Y-51173060D01*
X67318186Y-51252395D01*
X67296834Y-51322784D01*
X67262164Y-51387646D01*
X67215503Y-51444503D01*
X67158646Y-51491164D01*
X67093784Y-51525834D01*
X67023395Y-51547186D01*
X66944060Y-51555000D01*
X66705940Y-51555000D01*
X66626605Y-51547186D01*
X66556216Y-51525834D01*
X66491354Y-51491164D01*
X66434497Y-51444503D01*
X66387836Y-51387646D01*
X66353166Y-51322784D01*
X66331814Y-51252395D01*
X66324000Y-51173060D01*
X66324000Y-49334940D01*
X66331814Y-49255605D01*
X66353166Y-49185216D01*
X66387836Y-49120354D01*
X66434497Y-49063497D01*
X66491354Y-49016836D01*
X66556216Y-48982166D01*
X66626605Y-48960814D01*
X66705940Y-48953000D01*
X66944060Y-48953000D01*
X67023395Y-48960814D01*
G37*
G36*
X65753395Y-48960814D02*
G01*
X65823784Y-48982166D01*
X65888646Y-49016836D01*
X65945503Y-49063497D01*
X65992164Y-49120354D01*
X66026834Y-49185216D01*
X66048186Y-49255605D01*
X66056000Y-49334940D01*
X66056000Y-51173060D01*
X66048186Y-51252395D01*
X66026834Y-51322784D01*
X65992164Y-51387646D01*
X65945503Y-51444503D01*
X65888646Y-51491164D01*
X65823784Y-51525834D01*
X65753395Y-51547186D01*
X65674060Y-51555000D01*
X65435940Y-51555000D01*
X65356605Y-51547186D01*
X65286216Y-51525834D01*
X65221354Y-51491164D01*
X65164497Y-51444503D01*
X65117836Y-51387646D01*
X65083166Y-51322784D01*
X65061814Y-51252395D01*
X65054000Y-51173060D01*
X65054000Y-49334940D01*
X65061814Y-49255605D01*
X65083166Y-49185216D01*
X65117836Y-49120354D01*
X65164497Y-49063497D01*
X65221354Y-49016836D01*
X65286216Y-48982166D01*
X65356605Y-48960814D01*
X65435940Y-48953000D01*
X65674060Y-48953000D01*
X65753395Y-48960814D01*
G37*
G36*
X90643395Y-48960814D02*
G01*
X90713784Y-48982166D01*
X90778646Y-49016836D01*
X90835503Y-49063497D01*
X90882164Y-49120354D01*
X90916834Y-49185216D01*
X90938186Y-49255605D01*
X90946000Y-49334940D01*
X90946000Y-51173060D01*
X90938186Y-51252395D01*
X90916834Y-51322784D01*
X90882164Y-51387646D01*
X90835503Y-51444503D01*
X90778646Y-51491164D01*
X90713784Y-51525834D01*
X90643395Y-51547186D01*
X90564060Y-51555000D01*
X90325940Y-51555000D01*
X90246605Y-51547186D01*
X90176216Y-51525834D01*
X90111354Y-51491164D01*
X90054497Y-51444503D01*
X90007836Y-51387646D01*
X89973166Y-51322784D01*
X89951814Y-51252395D01*
X89944000Y-51173060D01*
X89944000Y-49334940D01*
X89951814Y-49255605D01*
X89973166Y-49185216D01*
X90007836Y-49120354D01*
X90054497Y-49063497D01*
X90111354Y-49016836D01*
X90176216Y-48982166D01*
X90246605Y-48960814D01*
X90325940Y-48953000D01*
X90564060Y-48953000D01*
X90643395Y-48960814D01*
G37*
G36*
X89373395Y-48960814D02*
G01*
X89443784Y-48982166D01*
X89508646Y-49016836D01*
X89565503Y-49063497D01*
X89612164Y-49120354D01*
X89646834Y-49185216D01*
X89668186Y-49255605D01*
X89676000Y-49334940D01*
X89676000Y-51173060D01*
X89668186Y-51252395D01*
X89646834Y-51322784D01*
X89612164Y-51387646D01*
X89565503Y-51444503D01*
X89508646Y-51491164D01*
X89443784Y-51525834D01*
X89373395Y-51547186D01*
X89294060Y-51555000D01*
X89055940Y-51555000D01*
X88976605Y-51547186D01*
X88906216Y-51525834D01*
X88841354Y-51491164D01*
X88784497Y-51444503D01*
X88737836Y-51387646D01*
X88703166Y-51322784D01*
X88681814Y-51252395D01*
X88674000Y-51173060D01*
X88674000Y-49334940D01*
X88681814Y-49255605D01*
X88703166Y-49185216D01*
X88737836Y-49120354D01*
X88784497Y-49063497D01*
X88841354Y-49016836D01*
X88906216Y-48982166D01*
X88976605Y-48960814D01*
X89055940Y-48953000D01*
X89294060Y-48953000D01*
X89373395Y-48960814D01*
G37*
G36*
X85563395Y-48960814D02*
G01*
X85633784Y-48982166D01*
X85698646Y-49016836D01*
X85755503Y-49063497D01*
X85802164Y-49120354D01*
X85836834Y-49185216D01*
X85858186Y-49255605D01*
X85866000Y-49334940D01*
X85866000Y-51173060D01*
X85858186Y-51252395D01*
X85836834Y-51322784D01*
X85802164Y-51387646D01*
X85755503Y-51444503D01*
X85698646Y-51491164D01*
X85633784Y-51525834D01*
X85563395Y-51547186D01*
X85484060Y-51555000D01*
X85245940Y-51555000D01*
X85166605Y-51547186D01*
X85096216Y-51525834D01*
X85031354Y-51491164D01*
X84974497Y-51444503D01*
X84927836Y-51387646D01*
X84893166Y-51322784D01*
X84871814Y-51252395D01*
X84864000Y-51173060D01*
X84864000Y-49334940D01*
X84871814Y-49255605D01*
X84893166Y-49185216D01*
X84927836Y-49120354D01*
X84974497Y-49063497D01*
X85031354Y-49016836D01*
X85096216Y-48982166D01*
X85166605Y-48960814D01*
X85245940Y-48953000D01*
X85484060Y-48953000D01*
X85563395Y-48960814D01*
G37*
G36*
X86833395Y-48960814D02*
G01*
X86903784Y-48982166D01*
X86968646Y-49016836D01*
X87025503Y-49063497D01*
X87072164Y-49120354D01*
X87106834Y-49185216D01*
X87128186Y-49255605D01*
X87136000Y-49334940D01*
X87136000Y-51173060D01*
X87128186Y-51252395D01*
X87106834Y-51322784D01*
X87072164Y-51387646D01*
X87025503Y-51444503D01*
X86968646Y-51491164D01*
X86903784Y-51525834D01*
X86833395Y-51547186D01*
X86754060Y-51555000D01*
X86515940Y-51555000D01*
X86436605Y-51547186D01*
X86366216Y-51525834D01*
X86301354Y-51491164D01*
X86244497Y-51444503D01*
X86197836Y-51387646D01*
X86163166Y-51322784D01*
X86141814Y-51252395D01*
X86134000Y-51173060D01*
X86134000Y-49334940D01*
X86141814Y-49255605D01*
X86163166Y-49185216D01*
X86197836Y-49120354D01*
X86244497Y-49063497D01*
X86301354Y-49016836D01*
X86366216Y-48982166D01*
X86436605Y-48960814D01*
X86515940Y-48953000D01*
X86754060Y-48953000D01*
X86833395Y-48960814D01*
G37*
G36*
X88103395Y-48960814D02*
G01*
X88173784Y-48982166D01*
X88238646Y-49016836D01*
X88295503Y-49063497D01*
X88342164Y-49120354D01*
X88376834Y-49185216D01*
X88398186Y-49255605D01*
X88406000Y-49334940D01*
X88406000Y-51173060D01*
X88398186Y-51252395D01*
X88376834Y-51322784D01*
X88342164Y-51387646D01*
X88295503Y-51444503D01*
X88238646Y-51491164D01*
X88173784Y-51525834D01*
X88103395Y-51547186D01*
X88024060Y-51555000D01*
X87785940Y-51555000D01*
X87706605Y-51547186D01*
X87636216Y-51525834D01*
X87571354Y-51491164D01*
X87514497Y-51444503D01*
X87467836Y-51387646D01*
X87433166Y-51322784D01*
X87411814Y-51252395D01*
X87404000Y-51173060D01*
X87404000Y-49334940D01*
X87411814Y-49255605D01*
X87433166Y-49185216D01*
X87467836Y-49120354D01*
X87514497Y-49063497D01*
X87571354Y-49016836D01*
X87636216Y-48982166D01*
X87706605Y-48960814D01*
X87785940Y-48953000D01*
X88024060Y-48953000D01*
X88103395Y-48960814D01*
G37*
G36*
X92463395Y-38006814D02*
G01*
X92533784Y-38028166D01*
X92598646Y-38062836D01*
X92655503Y-38109497D01*
X92702164Y-38166354D01*
X92736834Y-38231216D01*
X92758186Y-38301605D01*
X92766000Y-38380940D01*
X92766000Y-38619060D01*
X92758186Y-38698395D01*
X92736834Y-38768784D01*
X92702164Y-38833646D01*
X92655503Y-38890503D01*
X92598646Y-38937164D01*
X92533784Y-38971834D01*
X92463395Y-38993186D01*
X92384060Y-39001000D01*
X91045940Y-39001000D01*
X90966605Y-38993186D01*
X90896216Y-38971834D01*
X90831354Y-38937164D01*
X90774497Y-38890503D01*
X90727836Y-38833646D01*
X90693166Y-38768784D01*
X90671814Y-38698395D01*
X90664000Y-38619060D01*
X90664000Y-38380940D01*
X90671814Y-38301605D01*
X90693166Y-38231216D01*
X90727836Y-38166354D01*
X90774497Y-38109497D01*
X90831354Y-38062836D01*
X90896216Y-38028166D01*
X90966605Y-38006814D01*
X91045940Y-37999000D01*
X92384060Y-37999000D01*
X92463395Y-38006814D01*
G37*
G36*
X76463395Y-38006814D02*
G01*
X76533784Y-38028166D01*
X76598646Y-38062836D01*
X76655503Y-38109497D01*
X76702164Y-38166354D01*
X76736834Y-38231216D01*
X76758186Y-38301605D01*
X76766000Y-38380940D01*
X76766000Y-38619060D01*
X76758186Y-38698395D01*
X76736834Y-38768784D01*
X76702164Y-38833646D01*
X76655503Y-38890503D01*
X76598646Y-38937164D01*
X76533784Y-38971834D01*
X76463395Y-38993186D01*
X76384060Y-39001000D01*
X75045940Y-39001000D01*
X74966605Y-38993186D01*
X74896216Y-38971834D01*
X74831354Y-38937164D01*
X74774497Y-38890503D01*
X74727836Y-38833646D01*
X74693166Y-38768784D01*
X74671814Y-38698395D01*
X74664000Y-38619060D01*
X74664000Y-38380940D01*
X74671814Y-38301605D01*
X74693166Y-38231216D01*
X74727836Y-38166354D01*
X74774497Y-38109497D01*
X74831354Y-38062836D01*
X74896216Y-38028166D01*
X74966605Y-38006814D01*
X75045940Y-37999000D01*
X76384060Y-37999000D01*
X76463395Y-38006814D01*
G37*
G36*
X77087797Y-36210567D02*
G01*
X77142575Y-36233257D01*
X77142577Y-36233258D01*
X77191876Y-36266198D01*
X77233802Y-36308124D01*
X77266742Y-36357423D01*
X77266743Y-36357425D01*
X77289433Y-36412203D01*
X77301000Y-36470353D01*
X77301000Y-36529647D01*
X77289433Y-36587797D01*
X77266743Y-36642575D01*
X77266742Y-36642577D01*
X77233802Y-36691876D01*
X77191876Y-36733802D01*
X77142577Y-36766742D01*
X77142576Y-36766743D01*
X77142575Y-36766743D01*
X77087797Y-36789433D01*
X77029647Y-36801000D01*
X76970353Y-36801000D01*
X76912203Y-36789433D01*
X76857425Y-36766743D01*
X76857424Y-36766743D01*
X76857423Y-36766742D01*
X76808124Y-36733802D01*
X76766198Y-36691876D01*
X76733258Y-36642577D01*
X76733257Y-36642575D01*
X76710567Y-36587797D01*
X76699000Y-36529647D01*
X76699000Y-36470353D01*
X76710567Y-36412203D01*
X76733257Y-36357425D01*
X76733258Y-36357423D01*
X76766198Y-36308124D01*
X76808124Y-36266198D01*
X76857423Y-36233258D01*
X76857425Y-36233257D01*
X76912203Y-36210567D01*
X76970353Y-36199000D01*
X77029647Y-36199000D01*
X77087797Y-36210567D01*
G37*
G36*
X77087797Y-35210567D02*
G01*
X77142575Y-35233257D01*
X77142577Y-35233258D01*
X77191876Y-35266198D01*
X77233802Y-35308124D01*
X77266742Y-35357423D01*
X77266743Y-35357425D01*
X77289433Y-35412203D01*
X77301000Y-35470353D01*
X77301000Y-35529647D01*
X77289433Y-35587797D01*
X77266743Y-35642575D01*
X77266742Y-35642577D01*
X77233802Y-35691876D01*
X77191876Y-35733802D01*
X77142577Y-35766742D01*
X77142576Y-35766743D01*
X77142575Y-35766743D01*
X77087797Y-35789433D01*
X77029647Y-35801000D01*
X76970353Y-35801000D01*
X76912203Y-35789433D01*
X76857425Y-35766743D01*
X76857424Y-35766743D01*
X76857423Y-35766742D01*
X76808124Y-35733802D01*
X76766198Y-35691876D01*
X76733258Y-35642577D01*
X76733257Y-35642575D01*
X76710567Y-35587797D01*
X76699000Y-35529647D01*
X76699000Y-35470353D01*
X76710567Y-35412203D01*
X76733257Y-35357425D01*
X76733258Y-35357423D01*
X76766198Y-35308124D01*
X76808124Y-35266198D01*
X76857423Y-35233258D01*
X76857425Y-35233257D01*
X76912203Y-35210567D01*
X76970353Y-35199000D01*
X77029647Y-35199000D01*
X77087797Y-35210567D01*
G37*
G36*
X77087797Y-34210567D02*
G01*
X77142575Y-34233257D01*
X77142577Y-34233258D01*
X77191876Y-34266198D01*
X77233802Y-34308124D01*
X77266742Y-34357423D01*
X77266743Y-34357425D01*
X77289433Y-34412203D01*
X77301000Y-34470353D01*
X77301000Y-34529647D01*
X77289433Y-34587797D01*
X77266743Y-34642575D01*
X77266742Y-34642577D01*
X77233802Y-34691876D01*
X77191876Y-34733802D01*
X77142577Y-34766742D01*
X77142576Y-34766743D01*
X77142575Y-34766743D01*
X77087797Y-34789433D01*
X77029647Y-34801000D01*
X76970353Y-34801000D01*
X76912203Y-34789433D01*
X76857425Y-34766743D01*
X76857424Y-34766743D01*
X76857423Y-34766742D01*
X76808124Y-34733802D01*
X76766198Y-34691876D01*
X76733258Y-34642577D01*
X76733257Y-34642575D01*
X76710567Y-34587797D01*
X76699000Y-34529647D01*
X76699000Y-34470353D01*
X76710567Y-34412203D01*
X76733257Y-34357425D01*
X76733258Y-34357423D01*
X76766198Y-34308124D01*
X76808124Y-34266198D01*
X76857423Y-34233258D01*
X76857425Y-34233257D01*
X76912203Y-34210567D01*
X76970353Y-34199000D01*
X77029647Y-34199000D01*
X77087797Y-34210567D01*
G37*
G36*
X81422948Y-28605722D02*
G01*
X81686831Y-28715026D01*
X81686833Y-28715027D01*
X81924321Y-28873711D01*
X82126289Y-29075679D01*
X82284973Y-29313167D01*
X82284974Y-29313169D01*
X82394278Y-29577052D01*
X82450000Y-29857186D01*
X82450000Y-30142814D01*
X82394278Y-30422948D01*
X82336528Y-30562368D01*
X82284973Y-30686833D01*
X82126289Y-30924321D01*
X81924321Y-31126289D01*
X81686833Y-31284973D01*
X81686832Y-31284974D01*
X81686831Y-31284974D01*
X81422948Y-31394278D01*
X81142814Y-31450000D01*
X80857186Y-31450000D01*
X80577052Y-31394278D01*
X80313169Y-31284974D01*
X80313168Y-31284974D01*
X80313167Y-31284973D01*
X80075679Y-31126289D01*
X79873711Y-30924321D01*
X79715027Y-30686833D01*
X79663472Y-30562368D01*
X79605722Y-30422948D01*
X79550000Y-30142814D01*
X79550000Y-29857186D01*
X79605722Y-29577052D01*
X79715026Y-29313169D01*
X79715027Y-29313167D01*
X79873711Y-29075679D01*
X80075679Y-28873711D01*
X80313167Y-28715027D01*
X80313169Y-28715026D01*
X80577052Y-28605722D01*
X80857186Y-28550000D01*
X81142814Y-28550000D01*
X81422948Y-28605722D01*
G37*
G36*
X65422948Y-28605722D02*
G01*
X65686831Y-28715026D01*
X65686833Y-28715027D01*
X65924321Y-28873711D01*
X66126289Y-29075679D01*
X66284973Y-29313167D01*
X66284974Y-29313169D01*
X66394278Y-29577052D01*
X66450000Y-29857186D01*
X66450000Y-30142814D01*
X66394278Y-30422948D01*
X66336528Y-30562368D01*
X66284973Y-30686833D01*
X66126289Y-30924321D01*
X65924321Y-31126289D01*
X65686833Y-31284973D01*
X65686832Y-31284974D01*
X65686831Y-31284974D01*
X65422948Y-31394278D01*
X65142814Y-31450000D01*
X64857186Y-31450000D01*
X64577052Y-31394278D01*
X64313169Y-31284974D01*
X64313168Y-31284974D01*
X64313167Y-31284973D01*
X64075679Y-31126289D01*
X63873711Y-30924321D01*
X63715027Y-30686833D01*
X63663472Y-30562368D01*
X63605722Y-30422948D01*
X63550000Y-30142814D01*
X63550000Y-29857186D01*
X63605722Y-29577052D01*
X63715026Y-29313169D01*
X63715027Y-29313167D01*
X63873711Y-29075679D01*
X64075679Y-28873711D01*
X64313167Y-28715027D01*
X64313169Y-28715026D01*
X64577052Y-28605722D01*
X64857186Y-28550000D01*
X65142814Y-28550000D01*
X65422948Y-28605722D01*
G37*
G36*
X75141246Y-29289912D02*
G01*
X75211183Y-29303823D01*
X75233741Y-29313167D01*
X75342942Y-29358399D01*
X75461522Y-29437632D01*
X75562368Y-29538478D01*
X75641601Y-29657058D01*
X75696177Y-29788818D01*
X75724000Y-29928691D01*
X75724000Y-30071309D01*
X75696177Y-30211182D01*
X75641601Y-30342942D01*
X75562368Y-30461522D01*
X75461522Y-30562368D01*
X75342942Y-30641601D01*
X75265759Y-30673571D01*
X75211183Y-30696177D01*
X75141245Y-30710089D01*
X75071309Y-30724000D01*
X74928691Y-30724000D01*
X74858755Y-30710089D01*
X74788817Y-30696177D01*
X74734241Y-30673571D01*
X74657058Y-30641601D01*
X74538478Y-30562368D01*
X74437632Y-30461522D01*
X74358399Y-30342942D01*
X74303823Y-30211182D01*
X74276000Y-30071309D01*
X74276000Y-29928691D01*
X74303823Y-29788818D01*
X74358399Y-29657058D01*
X74437632Y-29538478D01*
X74538478Y-29437632D01*
X74657058Y-29358399D01*
X74766259Y-29313167D01*
X74788817Y-29303823D01*
X74858754Y-29289912D01*
X74928691Y-29276000D01*
X75071309Y-29276000D01*
X75141246Y-29289912D01*
G37*
G36*
X91141246Y-29289912D02*
G01*
X91211183Y-29303823D01*
X91233741Y-29313167D01*
X91342942Y-29358399D01*
X91461522Y-29437632D01*
X91562368Y-29538478D01*
X91641601Y-29657058D01*
X91696177Y-29788818D01*
X91724000Y-29928691D01*
X91724000Y-30071309D01*
X91696177Y-30211182D01*
X91641601Y-30342942D01*
X91562368Y-30461522D01*
X91461522Y-30562368D01*
X91342942Y-30641601D01*
X91265759Y-30673571D01*
X91211183Y-30696177D01*
X91141245Y-30710089D01*
X91071309Y-30724000D01*
X90928691Y-30724000D01*
X90858755Y-30710089D01*
X90788817Y-30696177D01*
X90734241Y-30673571D01*
X90657058Y-30641601D01*
X90538478Y-30562368D01*
X90437632Y-30461522D01*
X90358399Y-30342942D01*
X90303823Y-30211182D01*
X90276000Y-30071309D01*
X90276000Y-29928691D01*
X90303823Y-29788818D01*
X90358399Y-29657058D01*
X90437632Y-29538478D01*
X90538478Y-29437632D01*
X90657058Y-29358399D01*
X90766259Y-29313167D01*
X90788817Y-29303823D01*
X90858754Y-29289912D01*
X90928691Y-29276000D01*
X91071309Y-29276000D01*
X91141246Y-29289912D01*
G37*
M02*
