<?xml version="1.0" encoding="UTF-8" standalone="no"?>
<!DOCTYPE svg PUBLIC "-//W3C//DTD SVG 1.1//EN" "http://www.w3.org/Graphics/SVG/1.1/DTD/svg11.dtd">
<svg width="100%" height="100%" viewBox="0 0 2386 119" version="1.1" xmlns="http://www.w3.org/2000/svg" xmlns:xlink="http://www.w3.org/1999/xlink" xml:space="preserve" xmlns:serif="http://www.serif.com/" style="fill-rule:evenodd;clip-rule:evenodd;stroke-linejoin:round;stroke-miterlimit:2;">
    <g transform="matrix(4,0,0,4,0,0)">
        <g id="Layer1">
            <rect x="0" y="0" width="596.457" height="29.528"/>
        </g>
    </g>
    <g transform="matrix(3.65824,0,0,4,0,0)">
        <rect x="0" y="0" width="103.315" height="29.528" style="fill:white;"/>
    </g>
    <g transform="matrix(3.65824,0,0,4,402.523,0)">
        <rect x="0" y="0" width="103.315" height="29.528" style="fill:white;"/>
    </g>
    <g transform="matrix(3.65824,0,0,4,804.219,0)">
        <rect x="0" y="0" width="103.315" height="29.528" style="fill:white;"/>
    </g>
    <g transform="matrix(3.65824,0,0,4,1206.48,0)">
        <rect x="0" y="0" width="103.315" height="29.528" style="fill:white;"/>
    </g>
    <g transform="matrix(3.65824,0,0,4,1608.55,0)">
        <rect x="0" y="0" width="103.315" height="29.528" style="fill:white;"/>
    </g>
    <g transform="matrix(3.65824,0,0,4,2007.87,0)">
        <rect x="0" y="0" width="103.315" height="29.528" style="fill:white;"/>
    </g>
    <g transform="matrix(4,0,0,4,0,0)">
        <path d="M83.102,6.014C87.991,6.014 91.96,9.983 91.96,14.872C91.96,19.761 87.991,23.73 83.102,23.73C78.213,23.73 74.243,19.761 74.243,14.872C74.243,9.983 78.213,6.014 83.102,6.014ZM11.757,6.014C16.646,6.014 20.616,9.983 20.616,14.872C20.616,19.761 16.646,23.73 11.757,23.73C6.868,23.73 2.899,19.761 2.899,14.872C2.899,9.983 6.868,6.014 11.757,6.014ZM84.683,13.522L88.769,13.522L88.769,16.439L84.683,16.439L84.683,20.733L81.52,20.733L81.52,16.439L77.434,16.439L77.434,13.522L81.52,13.522L81.52,9.011L84.683,9.011L84.683,13.522ZM6.09,13.522L17.425,13.522L17.425,16.439L6.09,16.439L6.09,13.522Z"/>
    </g>
    <g transform="matrix(4,0,0,4,-6.82869,24.5966)">
        <text x="27.685px" y="14.625px" style="font-family:'LucidaGrande-Bold', 'Lucida Grande', sans-serif;font-weight:600;font-size:18.75px;">Pump</text>
    </g>
    <g transform="matrix(4,0,0,4,401.781,0.433431)">
        <path d="M83.102,6.014C87.991,6.014 91.96,9.983 91.96,14.872C91.96,19.761 87.991,23.73 83.102,23.73C78.213,23.73 74.243,19.761 74.243,14.872C74.243,9.983 78.213,6.014 83.102,6.014ZM11.757,6.014C16.646,6.014 20.616,9.983 20.616,14.872C20.616,19.761 16.646,23.73 11.757,23.73C6.868,23.73 2.899,19.761 2.899,14.872C2.899,9.983 6.868,6.014 11.757,6.014ZM84.683,13.522L88.769,13.522L88.769,16.439L84.683,16.439L84.683,20.733L81.52,20.733L81.52,16.439L77.434,16.439L77.434,13.522L81.52,13.522L81.52,9.011L84.683,9.011L84.683,13.522ZM6.09,13.522L17.425,13.522L17.425,16.439L6.09,16.439L6.09,13.522Z"/>
    </g>
    <g transform="matrix(4,0,0,4,803.478,-0.433431)">
        <path d="M83.102,6.014C87.991,6.014 91.96,9.983 91.96,14.872C91.96,19.761 87.991,23.73 83.102,23.73C78.213,23.73 74.243,19.761 74.243,14.872C74.243,9.983 78.213,6.014 83.102,6.014ZM11.757,6.014C16.646,6.014 20.616,9.983 20.616,14.872C20.616,19.761 16.646,23.73 11.757,23.73C6.868,23.73 2.899,19.761 2.899,14.872C2.899,9.983 6.868,6.014 11.757,6.014ZM84.683,13.522L88.769,13.522L88.769,16.439L84.683,16.439L84.683,20.733L81.52,20.733L81.52,16.439L77.434,16.439L77.434,13.522L81.52,13.522L81.52,9.011L84.683,9.011L84.683,13.522ZM6.09,13.522L17.425,13.522L17.425,16.439L6.09,16.439L6.09,13.522Z"/>
    </g>
    <g transform="matrix(4,0,0,4,1205.74,0.866862)">
        <path d="M83.102,6.014C87.991,6.014 91.96,9.983 91.96,14.872C91.96,19.761 87.991,23.73 83.102,23.73C78.213,23.73 74.243,19.761 74.243,14.872C74.243,9.983 78.213,6.014 83.102,6.014ZM11.757,6.014C16.646,6.014 20.616,9.983 20.616,14.872C20.616,19.761 16.646,23.73 11.757,23.73C6.868,23.73 2.899,19.761 2.899,14.872C2.899,9.983 6.868,6.014 11.757,6.014ZM84.683,13.522L88.769,13.522L88.769,16.439L84.683,16.439L84.683,20.733L81.52,20.733L81.52,16.439L77.434,16.439L77.434,13.522L81.52,13.522L81.52,9.011L84.683,9.011L84.683,13.522ZM6.09,13.522L17.425,13.522L17.425,16.439L6.09,16.439L6.09,13.522Z"/>
    </g>
    <g transform="matrix(4,0,0,4,1607.81,-0.433431)">
        <path d="M83.102,6.014C87.991,6.014 91.96,9.983 91.96,14.872C91.96,19.761 87.991,23.73 83.102,23.73C78.213,23.73 74.243,19.761 74.243,14.872C74.243,9.983 78.213,6.014 83.102,6.014ZM11.757,6.014C16.646,6.014 20.616,9.983 20.616,14.872C20.616,19.761 16.646,23.73 11.757,23.73C6.868,23.73 2.899,19.761 2.899,14.872C2.899,9.983 6.868,6.014 11.757,6.014ZM84.683,13.522L88.769,13.522L88.769,16.439L84.683,16.439L84.683,20.733L81.52,20.733L81.52,16.439L77.434,16.439L77.434,13.522L81.52,13.522L81.52,9.011L84.683,9.011L84.683,13.522ZM6.09,13.522L17.425,13.522L17.425,16.439L6.09,16.439L6.09,13.522Z"/>
    </g>
    <g transform="matrix(4,0,0,4,2007.13,-4.53255)">
        <path d="M83.102,6.014C87.991,6.014 91.96,9.983 91.96,14.872C91.96,19.761 87.991,23.73 83.102,23.73C78.213,23.73 74.243,19.761 74.243,14.872C74.243,9.983 78.213,6.014 83.102,6.014ZM11.757,6.014C16.646,6.014 20.616,9.983 20.616,14.872C20.616,19.761 16.646,23.73 11.757,23.73C6.868,23.73 2.899,19.761 2.899,14.872C2.899,9.983 6.868,6.014 11.757,6.014ZM84.683,13.522L88.769,13.522L88.769,16.439L84.683,16.439L84.683,20.733L81.52,20.733L81.52,16.439L77.434,16.439L77.434,13.522L81.52,13.522L81.52,9.011L84.683,9.011L84.683,13.522ZM6.09,13.522L17.425,13.522L17.425,16.439L6.09,16.439L6.09,13.522Z"/>
    </g>
    <g transform="matrix(4,0,0,4,415.21,26.8475)">
        <text x="27.685px" y="14.625px" style="font-family:'LucidaGrande-Bold', 'Lucida Grande', sans-serif;font-weight:600;font-size:18.75px;">Ch.1</text>
    </g>
    <g transform="matrix(4,0,0,4,812.603,24.5966)">
        <text x="27.685px" y="14.625px" style="font-family:'LucidaGrande-Bold', 'Lucida Grande', sans-serif;font-weight:600;font-size:18.75px;">Ch.2</text>
    </g>
    <g transform="matrix(4,0,0,4,1215.19,24.5966)">
        <text x="27.685px" y="14.625px" style="font-family:'LucidaGrande-Bold', 'Lucida Grande', sans-serif;font-weight:600;font-size:18.75px;">Ch.3</text>
    </g>
    <g transform="matrix(4,0,0,4,1616.71,24.5966)">
        <text x="27.685px" y="14.625px" style="font-family:'LucidaGrande-Bold', 'Lucida Grande', sans-serif;font-weight:600;font-size:18.75px;">Ch.4</text>
    </g>
    <g transform="matrix(4,0,0,4,2016.39,24.5966)">
        <text x="27.685px" y="14.625px" style="font-family:'LucidaGrande-Bold', 'Lucida Grande', sans-serif;font-weight:600;font-size:18.75px;">Ch.5</text>
    </g>
</svg>
