<?xml version="1.0" encoding="UTF-8" standalone="no"?>
<!DOCTYPE svg PUBLIC "-//W3C//DTD SVG 1.1//EN" "http://www.w3.org/Graphics/SVG/1.1/DTD/svg11.dtd">
<svg width="100%" height="100%" viewBox="0 0 497 1772" version="1.1" xmlns="http://www.w3.org/2000/svg" xmlns:xlink="http://www.w3.org/1999/xlink" xml:space="preserve" xmlns:serif="http://www.serif.com/" style="fill-rule:evenodd;clip-rule:evenodd;stroke-linejoin:round;stroke-miterlimit:2;">
    <g id="Background" transform="matrix(3,0,0,3,0,0)">
        <rect x="0" y="0" width="165.354" height="590.551"/>
    </g>
    <g id="Back">
        <g transform="matrix(6,0,0,5.90551,-132.205,-678.16)">
            <circle cx="39" cy="178" r="6" style="fill:white;"/>
        </g>
        <g transform="matrix(6,0,0,5.90551,87.643,-684.095)">
            <circle cx="39" cy="178" r="6" style="fill:white;"/>
        </g>
        <g transform="matrix(3,0,0,2.95276,165.124,-218.872)">
            <circle cx="39" cy="178" r="6" style="fill:white;"/>
        </g>
        <g transform="matrix(4.42913,0,0,4.35938,229.386,-439.056)">
            <circle cx="39" cy="178" r="6" style="fill:white;"/>
        </g>
        <g transform="matrix(4.42913,0,0,4.35938,164.182,-311.456)">
            <circle cx="39" cy="178" r="6" style="fill:white;"/>
        </g>
        <g transform="matrix(4.42913,0,0,4.35938,-124.697,-458.711)">
            <circle cx="39" cy="178" r="6" style="fill:white;"/>
        </g>
        <g transform="matrix(8.75,0,0,8.90551,-134.026,-1230.14)">
            <circle cx="39" cy="178" r="6" style="fill:white;"/>
        </g>
        <g transform="matrix(3,0,0,2.95276,-3.35715,-218.346)">
            <circle cx="39" cy="178" r="6" style="fill:white;"/>
        </g>
        <g transform="matrix(3,0,0,2.95276,234.695,-226.334)">
            <circle cx="39" cy="178" r="6" style="fill:white;"/>
        </g>
        <g transform="matrix(6,0,0,5.90551,194.238,-637.699)">
            <circle cx="39" cy="178" r="6" style="fill:white;"/>
        </g>
        <g transform="matrix(3,0,0,2.95276,342.832,-216.848)">
            <circle cx="39" cy="178" r="6" style="fill:white;"/>
        </g>
        <g transform="matrix(3,0,0,2.95276,130.877,-73.6925)">
            <circle cx="39" cy="178" r="6" style="fill:white;"/>
        </g>
        <g transform="matrix(3,0,0,2.95276,338.375,160.972)">
            <circle cx="39" cy="178" r="6" style="fill:white;"/>
        </g>
        <g transform="matrix(3,0,0,2.95276,-73.2956,-108.087)">
            <circle cx="39" cy="178" r="6" style="fill:white;"/>
        </g>
        <g transform="matrix(4.42913,0,0,4.35938,-17.1765,-321.324)">
            <circle cx="39" cy="178" r="6" style="fill:white;"/>
        </g>
        <g transform="matrix(4.42913,0,0,4.35938,-96.7234,-132.191)">
            <circle cx="39" cy="178" r="6" style="fill:white;"/>
        </g>
        <g transform="matrix(6,0,0,5.90551,25.2897,-490.917)">
            <circle cx="39" cy="178" r="6" style="fill:white;"/>
        </g>
        <g transform="matrix(3,0,0,2.95276,59.645,92.6533)">
            <circle cx="39" cy="178" r="6" style="fill:white;"/>
        </g>
        <g transform="matrix(3,0,0,2.95276,326.003,-13.2258)">
            <circle cx="39" cy="178" r="6" style="fill:white;"/>
        </g>
        <g transform="matrix(3,0,0,2.95276,307.182,404.631)">
            <circle cx="39" cy="178" r="6" style="fill:white;"/>
        </g>
        <g transform="matrix(3,0,0,2.95276,11.1152,371.096)">
            <circle cx="39" cy="178" r="6" style="fill:white;"/>
        </g>
        <g transform="matrix(3,0,0,2.95276,-42.5976,547.842)">
            <circle cx="39" cy="178" r="6" style="fill:white;"/>
        </g>
        <g transform="matrix(3,0,0,2.95276,289.172,548.144)">
            <circle cx="39" cy="178" r="6" style="fill:white;"/>
        </g>
        <g transform="matrix(3,0,0,2.95276,253.252,196.435)">
            <circle cx="39" cy="178" r="6" style="fill:white;"/>
        </g>
        <g transform="matrix(4.42913,0,0,4.35938,-86.4206,-239.126)">
            <circle cx="39" cy="178" r="6" style="fill:white;"/>
        </g>
        <g transform="matrix(3,0,0,2.95276,-48.0751,267.717)">
            <circle cx="39" cy="178" r="6" style="fill:white;"/>
        </g>
        <g transform="matrix(6,0,0,5.90551,1.60091,-329.867)">
            <circle cx="39" cy="178" r="6" style="fill:white;"/>
        </g>
        <g transform="matrix(4.42913,0,0,4.35938,115.831,72.39)">
            <circle cx="39" cy="178" r="6" style="fill:white;"/>
        </g>
        <g transform="matrix(3,0,0,2.95276,151.311,519.613)">
            <circle cx="39" cy="178" r="6" style="fill:white;"/>
        </g>
        <g transform="matrix(2.06693,0,0,2.03438,182.661,1079.66)">
            <circle cx="39" cy="178" r="6" style="fill:white;"/>
        </g>
        <g transform="matrix(1.47638,0,0,1.45313,116.272,936.597)">
            <circle cx="39" cy="178" r="6" style="fill:white;"/>
        </g>
        <g transform="matrix(4.42913,0,0,4.35938,188.52,-172.432)">
            <circle cx="39" cy="178" r="6" style="fill:white;"/>
        </g>
    </g>
    <g transform="matrix(2.9763,0,0,2,3.44321,28)">
        <path d="M88.603,115.842L104.424,111.393C104.635,111.333 104.85,111.307 105.065,111.314L121.065,111.814C121.277,111.82 121.488,111.859 121.695,111.93L133.339,115.914L157.907,114.815C159.631,114.737 161.072,116.774 161.124,119.36C161.175,121.946 159.817,124.108 158.093,124.185L133.126,125.303C132.861,125.314 132.596,125.276 132.338,125.187L120.616,121.177L105.258,120.697L89.576,125.107C89.457,125.141 89.336,125.164 89.215,125.176L69.892,127.176C69.667,127.2 69.441,127.186 69.217,127.136L53.846,123.705L27.154,125.682C27.07,125.688 26.985,125.689 26.901,125.685L5.901,124.685C4.177,124.603 2.822,122.437 2.877,119.851C2.931,117.265 4.375,115.233 6.099,115.315L26.972,116.309L53.846,114.318C54.051,114.303 54.257,114.318 54.46,114.364L69.801,117.789L88.603,115.842Z" style="fill:white;"/>
    </g>
</svg>
