<?xml version="1.0" encoding="UTF-8" standalone="no"?>
<!DOCTYPE svg PUBLIC "-//W3C//DTD SVG 1.1//EN" "http://www.w3.org/Graphics/SVG/1.1/DTD/svg11.dtd">
<svg width="100%" height="100%" viewBox="0 0 497 1772" version="1.1" xmlns="http://www.w3.org/2000/svg" xmlns:xlink="http://www.w3.org/1999/xlink" xml:space="preserve" xmlns:serif="http://www.serif.com/" style="fill-rule:evenodd;clip-rule:evenodd;stroke-linejoin:round;stroke-miterlimit:2;">
    <g id="Background" transform="matrix(3,0,0,3,0,0)">
        <rect x="0" y="0" width="165.354" height="590.551"/>
    </g>
    <g id="Front">
        <g transform="matrix(6,0,0,5.90551,-132.205,-678.16)">
            <circle cx="39" cy="178" r="6" style="fill:white;"/>
        </g>
        <g transform="matrix(6,0,0,5.90551,87.643,-684.095)">
            <circle cx="39" cy="178" r="6" style="fill:white;"/>
        </g>
        <g transform="matrix(3,0,0,2.95276,165.124,-218.872)">
            <circle cx="39" cy="178" r="6" style="fill:white;"/>
        </g>
        <g transform="matrix(4.42913,0,0,4.35938,229.386,-439.056)">
            <circle cx="39" cy="178" r="6" style="fill:white;"/>
        </g>
        <g transform="matrix(4.42913,0,0,4.35938,164.182,-311.456)">
            <circle cx="39" cy="178" r="6" style="fill:white;"/>
        </g>
        <g transform="matrix(4.42913,0,0,4.35938,-124.697,-458.711)">
            <circle cx="39" cy="178" r="6" style="fill:white;"/>
        </g>
        <g transform="matrix(8.75,0,0,8.90551,-134.026,-1230.14)">
            <circle cx="39" cy="178" r="6" style="fill:white;"/>
        </g>
        <g transform="matrix(3,0,0,2.95276,-3.35715,-218.346)">
            <circle cx="39" cy="178" r="6" style="fill:white;"/>
        </g>
        <g transform="matrix(3,0,0,2.95276,234.695,-226.334)">
            <circle cx="39" cy="178" r="6" style="fill:white;"/>
        </g>
        <g transform="matrix(6,0,0,5.90551,194.238,-637.699)">
            <circle cx="39" cy="178" r="6" style="fill:white;"/>
        </g>
        <g transform="matrix(3,0,0,2.95276,342.832,-216.848)">
            <circle cx="39" cy="178" r="6" style="fill:white;"/>
        </g>
        <g transform="matrix(3,0,0,2.95276,130.877,-73.6925)">
            <circle cx="39" cy="178" r="6" style="fill:white;"/>
        </g>
        <g transform="matrix(3,0,0,2.95276,338.375,160.972)">
            <circle cx="39" cy="178" r="6" style="fill:white;"/>
        </g>
        <g transform="matrix(3,0,0,2.95276,-73.2956,-108.087)">
            <circle cx="39" cy="178" r="6" style="fill:white;"/>
        </g>
        <g transform="matrix(4.42913,0,0,4.35938,-17.1765,-321.324)">
            <circle cx="39" cy="178" r="6" style="fill:white;"/>
        </g>
        <g transform="matrix(4.42913,0,0,4.35938,-96.7234,-132.191)">
            <circle cx="39" cy="178" r="6" style="fill:white;"/>
        </g>
        <g transform="matrix(6,0,0,5.90551,25.2897,-490.917)">
            <circle cx="39" cy="178" r="6" style="fill:white;"/>
        </g>
        <g transform="matrix(3,0,0,2.95276,59.645,92.6533)">
            <circle cx="39" cy="178" r="6" style="fill:white;"/>
        </g>
        <g transform="matrix(3,0,0,2.95276,326.003,-13.2258)">
            <circle cx="39" cy="178" r="6" style="fill:white;"/>
        </g>
        <g transform="matrix(3,0,0,2.95276,307.182,404.631)">
            <circle cx="39" cy="178" r="6" style="fill:white;"/>
        </g>
        <g transform="matrix(3,0,0,2.95276,11.1152,371.096)">
            <circle cx="39" cy="178" r="6" style="fill:white;"/>
        </g>
        <g transform="matrix(3,0,0,2.95276,-42.5976,547.842)">
            <circle cx="39" cy="178" r="6" style="fill:white;"/>
        </g>
        <g transform="matrix(3,0,0,2.95276,289.172,548.144)">
            <circle cx="39" cy="178" r="6" style="fill:white;"/>
        </g>
        <g transform="matrix(3,0,0,2.95276,253.252,196.435)">
            <circle cx="39" cy="178" r="6" style="fill:white;"/>
        </g>
        <g transform="matrix(4.42913,0,0,4.35938,-86.4206,-239.126)">
            <circle cx="39" cy="178" r="6" style="fill:white;"/>
        </g>
        <g transform="matrix(3,0,0,2.95276,-48.0751,267.717)">
            <circle cx="39" cy="178" r="6" style="fill:white;"/>
        </g>
        <path d="M12.005,228.703C12.068,226.68 12,219.65 12,217.459L12,34.041C12,28.499 16.499,24 22.041,24L472.959,24C478.501,24 483,28.499 483,34.041L483,217.459C483,219.429 482.942,225.906 482.996,227.72C483.149,232.892 479.107,237.217 473.976,237.371L399.666,239.605C398.878,239.629 398.089,239.551 397.32,239.374L362.433,231.353L316.723,230.393L270.048,239.214C269.693,239.282 269.335,239.328 268.974,239.353L211.464,243.353C210.793,243.399 210.119,243.373 209.454,243.273L163.704,236.409L84.262,240.364C84.011,240.376 83.76,240.378 83.508,240.37L21.006,238.37C15.875,238.206 11.842,233.874 12.005,228.703ZM52.663,138.79L55.373,125.094C48.634,124.947 45.265,122.262 45.265,117.037C45.265,114.596 46.108,112.606 47.792,111.068C49.477,109.53 51.955,108.761 55.226,108.761L58.669,108.761L62.843,87.447L55.226,87.447C52.052,87.447 49.599,86.654 47.865,85.067C46.132,83.48 45.265,81.539 45.265,79.244C45.265,76.803 46.108,74.838 47.792,73.348C49.477,71.859 51.955,71.114 55.226,71.114L66.139,71.114L69.582,54.342C70.119,51.51 70.717,49.288 71.376,47.677C72.035,46.066 72.939,44.845 74.086,44.015C75.234,43.185 76.735,42.77 78.59,42.77C81.178,42.77 83.156,43.453 84.523,44.821C85.89,46.188 86.574,47.946 86.574,50.094C86.574,50.582 86.159,53.048 85.329,57.491L82.619,71.114L98.659,71.114L102.174,54.342C102.663,51.803 103.127,49.752 103.566,48.19C104.005,46.627 104.799,45.309 105.946,44.235C107.094,43.16 108.766,42.623 110.963,42.623C113.503,42.623 115.468,43.282 116.859,44.601C118.251,45.919 118.947,47.701 118.947,49.947C118.947,50.973 118.886,51.974 118.764,52.95C118.642,53.927 118.483,54.867 118.288,55.77C118.092,56.674 117.97,57.247 117.922,57.491L115.212,71.261C122.194,71.407 125.685,74.117 125.685,79.391C125.685,81.832 124.855,83.785 123.195,85.25C121.535,86.715 119.069,87.447 115.797,87.447L112.062,87.447L107.668,108.761L115.797,108.761C119.069,108.761 121.535,109.542 123.195,111.105C124.855,112.667 125.685,114.645 125.685,117.037C125.685,119.43 124.867,121.371 123.232,122.86C121.596,124.349 119.118,125.094 115.797,125.094L104.518,125.094L101.076,141.94C100.539,144.625 100.063,146.7 99.648,148.165C99.233,149.63 98.439,150.912 97.267,152.01C96.095,153.109 94.411,153.658 92.213,153.658C89.772,153.658 87.843,152.975 86.427,151.608C85.011,150.24 84.303,148.458 84.303,146.261C84.303,144.259 84.645,141.769 85.329,138.79L88.039,125.094L71.852,125.094L68.41,141.94C67.531,146.09 66.615,149.081 65.663,150.912C64.711,152.743 62.672,153.658 59.547,153.658C57.057,153.658 55.104,152.975 53.688,151.608C52.272,150.24 51.564,148.458 51.564,146.261C51.564,145.138 51.698,143.881 51.967,142.489C52.235,141.097 52.467,139.864 52.663,138.79ZM95.509,87.447L79.323,87.447L75.002,108.761L91.335,108.761L95.509,87.447Z" style="fill:white;"/>
    </g>
    <g transform="matrix(2.9763,0,0,2,3.44321,28)">
        <path d="M88.603,115.842L104.424,111.393C104.635,111.333 104.85,111.307 105.065,111.314L121.065,111.814C121.277,111.82 121.488,111.859 121.695,111.93L133.339,115.914L157.907,114.815C159.631,114.737 161.072,116.774 161.124,119.36C161.175,121.946 159.817,124.108 158.093,124.185L133.126,125.303C132.861,125.314 132.596,125.276 132.338,125.187L120.616,121.177L105.258,120.697L89.576,125.107C89.457,125.141 89.336,125.164 89.215,125.176L69.892,127.176C69.667,127.2 69.441,127.186 69.217,127.136L53.846,123.705L27.154,125.682C27.07,125.688 26.985,125.689 26.901,125.685L5.901,124.685C4.177,124.603 2.822,122.437 2.877,119.851C2.931,117.265 4.375,115.233 6.099,115.315L26.972,116.309L53.846,114.318C54.051,114.303 54.257,114.318 54.46,114.364L69.801,117.789L88.603,115.842Z" style="fill:white;"/>
    </g>
</svg>
