<?xml version="1.0" encoding="UTF-8" standalone="no"?>
<!DOCTYPE svg PUBLIC "-//W3C//DTD SVG 1.1//EN" "http://www.w3.org/Graphics/SVG/1.1/DTD/svg11.dtd">
<svg width="100%" height="100%" viewBox="0 0 32 32" version="1.1" xmlns="http://www.w3.org/2000/svg" xmlns:xlink="http://www.w3.org/1999/xlink" xml:space="preserve" xmlns:serif="http://www.serif.com/" style="fill-rule:evenodd;clip-rule:evenodd;stroke-linejoin:round;stroke-miterlimit:2;">
    <path d="M0,19C0,16.783 1.208,14.842 3.002,13.803C3.107,8.923 7.095,5 12,5C15.233,5 18.069,6.705 19.655,9.265C20.24,9.093 20.859,9 21.5,9C24.285,9 26.66,10.751 27.586,13.212C30.13,13.907 32,16.235 32,19C32,22.307 29.314,25 26,25L6,25C2.687,25 0,22.314 0,19ZM19.488,22.168L9.782,12.462C9.546,12.225 9.546,11.841 9.782,11.604C10.019,11.367 10.404,11.367 10.64,11.604L12.341,13.304L13.302,12.343C13.674,11.971 14.278,11.971 14.649,12.343L15.177,12.87L16.978,11.069C17.31,10.737 17.848,10.737 18.18,11.069C18.511,11.4 18.511,11.938 18.18,12.27L16.378,14.071L17.879,15.573L19.681,13.771C20.012,13.44 20.55,13.44 20.882,13.771C21.213,14.102 21.213,14.641 20.882,14.972L19.08,16.774L19.308,17.001C19.679,17.373 19.679,17.976 19.308,18.348L18.346,19.31L20.346,21.31C20.583,21.547 20.583,21.931 20.346,22.168C20.11,22.405 19.725,22.405 19.488,22.168ZM11.171,19.108C11.505,19.622 11.932,20.068 12.429,20.424L11.124,21.713C10.767,22.065 10.19,22.062 9.837,21.705C9.485,21.347 9.488,20.771 9.845,20.418L11.171,19.108ZM11.053,15.463L16.188,20.598C14.794,20.937 13.262,20.563 12.174,19.476C11.087,18.389 10.713,16.856 11.053,15.463Z" style="fill:rgb(20,20,50);fill-opacity:0.35;"/>
</svg>
