<?xml version="1.0" encoding="UTF-8" standalone="no"?>
<!-- Created with Inkscape (http://www.inkscape.org/) -->

<svg
   xmlns:dc="http://purl.org/dc/elements/1.1/"
   xmlns:cc="http://creativecommons.org/ns#"
   xmlns:rdf="http://www.w3.org/1999/02/22-rdf-syntax-ns#"
   xmlns:svg="http://www.w3.org/2000/svg"
   xmlns="http://www.w3.org/2000/svg"
   xmlns:sodipodi="http://sodipodi.sourceforge.net/DTD/sodipodi-0.dtd"
   xmlns:inkscape="http://www.inkscape.org/namespaces/inkscape"
   width="170"
   height="22.913847"
   id="svg2"
   version="1.1"
   inkscape:version="0.48.2 r9819"
   sodipodi:docname="weloveOSH.svg">
  <defs
     id="defs4">
    <clipPath
       id="clipPath3122"
       clipPathUnits="userSpaceOnUse">
      <path
         id="path3124"
         d="M 0,0 172,0 172,180 0,180 0,0 z"
         inkscape:connector-curvature="0" />
    </clipPath>
    <clipPath
       id="clipPath3116"
       clipPathUnits="userSpaceOnUse">
      <path
         id="path3118"
         d="m 0,180.994 172.238,0 L 172.238,0 0,0 0,180.994 z"
         inkscape:connector-curvature="0" />
    </clipPath>
  </defs>
  <sodipodi:namedview
     id="base"
     pagecolor="#ffffff"
     bordercolor="#666666"
     borderopacity="1.0"
     inkscape:pageopacity="0.0"
     inkscape:pageshadow="2"
     inkscape:zoom="5.6"
     inkscape:cx="80.749481"
     inkscape:cy="-18.188564"
     inkscape:document-units="px"
     inkscape:current-layer="g4108"
     showgrid="false"
     showguides="false"
     inkscape:guide-bbox="true"
     inkscape:window-width="1920"
     inkscape:window-height="1032"
     inkscape:window-x="50"
     inkscape:window-y="40"
     inkscape:window-maximized="0"
     fit-margin-top="0"
     fit-margin-left="0"
     fit-margin-right="0"
     fit-margin-bottom="0">
    <sodipodi:guide
       orientation="0,1"
       position="36.536944,145.14942"
       id="guide4059" />
    <sodipodi:guide
       orientation="0,1"
       position="28.455724,4.7382155"
       id="guide4061" />
    <inkscape:grid
       type="xygrid"
       id="grid4063"
       empspacing="5"
       visible="true"
       enabled="true"
       snapvisiblegridlinesonly="true" />
  </sodipodi:namedview>
  <metadata
     id="metadata7">
    <rdf:RDF>
      <cc:Work
         rdf:about="">
        <dc:format>image/svg+xml</dc:format>
        <dc:type
           rdf:resource="http://purl.org/dc/dcmitype/StillImage" />
        <dc:title />
      </cc:Work>
    </rdf:RDF>
  </metadata>
  <g
     inkscape:label="Ebene 1"
     inkscape:groupmode="layer"
     id="layer1"
     transform="translate(-357.42255,-545.27273)">
    <g
       id="g3110"
       transform="matrix(1.25,0,0,-1.25,242.5,644.86218)" />
    <g
       id="g4108">
      <g
         id="g4033"
         transform="matrix(0.3083295,0,0,0.3083295,247.21863,392.99789)">
        <g
           inkscape:export-ydpi="300"
           inkscape:export-xdpi="300"
           inkscape:export-filename="/Users/airiclenz/Desktop/welove.png"
           style="fill:#c6c6c6;fill-opacity:1"
           id="g3120"
           clip-path="url(#clipPath3122)"
           transform="matrix(0.62179958,0,0,-0.62179958,582.51403,605.7944)">
          <path
             inkscape:connector-curvature="0"
             d="m 152.3359,123.3896 -16.439,3.057 c -0.401,0.075 -0.838,0.451 -0.973,0.837 l -5.039,11.756 c -0.188,0.363 -0.153,0.933 0.08,1.271 l 9.578,13.96 c 0.229,0.336 0.184,0.847 -0.105,1.136 l -11.963,11.963 c -0.289,0.289 -0.799,0.336 -1.135,0.105 l -14.205,-9.748 c -0.336,-0.231 -0.912,-0.272 -1.278,-0.092 l -11.396,4.665 c -0.387,0.128 -0.764,0.561 -0.84,0.962 l -3.164,17.003 c -0.074,0.401 -0.469,0.729 -0.877,0.729 l -16.92,0 c -0.407,0 -0.803,-0.328 -0.877,-0.729 l -3.163,-17.003 c -0.076,-0.401 -0.452,-0.834 -0.841,-0.962 l -11.397,-4.665 c -0.365,-0.18 -0.942,-0.139 -1.276,0.092 l -14.205,9.748 c -0.336,0.231 -0.848,0.184 -1.135,-0.105 l -11.964,-11.963 c -0.287,-0.289 -0.336,-0.8 -0.105,-1.136 l 9.579,-13.96 c 0.23,-0.338 0.267,-0.908 0.08,-1.271 l -5.041,-11.756 c -0.133,-0.386 -0.57,-0.762 -0.973,-0.837 l -16.438,-3.057 c -0.401,-0.076 -0.729,-0.47 -0.729,-0.878 l 10e-4,-16.919 c 0,-0.408 0.328,-0.805 0.729,-0.878 l 16.035,-2.984 c 0.401,-0.073 0.831,-0.454 0.953,-0.843 l 5.005,-12.505 c 0.18,-0.367 0.138,-0.941 -0.095,-1.277 l -9.108,-13.274 c -0.23,-0.336 -0.183,-0.847 0.105,-1.136 l 11.966,-11.963 c 0.287,-0.287 0.799,-0.334 1.135,-0.106 l 13.039,8.95 c 0.335,0.23 0.898,0.248 1.25,0.042 l 5.75,-3.07 c 0.363,-0.185 0.789,-0.029 0.944,0.348 l 11.856,28.648 c 0.158,0.377 0,0.859 -0.347,1.072 l -1.439,0.88 c -0.266,0.163 -0.627,0.442 -0.91,0.698 -5.191,3.324 -8.636,9.139 -8.636,15.761 0,10.334 8.379,18.711 18.712,18.711 10.333,0 18.71,-8.377 18.71,-18.711 0,-6.622 -3.443,-12.437 -8.635,-15.761 -0.281,-0.256 -0.642,-0.535 -0.908,-0.698 l -1.439,-0.88 c -0.346,-0.213 -0.504,-0.695 -0.348,-1.072 l 11.856,-28.648 c 0.156,-0.377 0.58,-0.533 0.945,-0.348 l 5.75,3.07 c 0.351,0.206 0.914,0.188 1.25,-0.042 l 13.039,-8.95 c 0.336,-0.228 0.848,-0.181 1.135,0.106 l 11.965,11.963 c 0.289,0.289 0.335,0.8 0.105,1.136 l -9.109,13.274 c -0.231,0.336 -0.274,0.91 -0.094,1.277 l 5.006,12.505 c 0.123,0.389 0.549,0.77 0.951,0.843 l 16.035,2.984 c 0.4,0.073 0.729,0.47 0.729,0.878 l 0.002,16.919 c 0,0.408 -0.329,0.802 -0.729,0.878"
             style="fill:#c6c6c6;fill-opacity:1;fill-rule:nonzero;stroke:none"
             id="path3126" />
        </g>
        <path
           inkscape:connector-curvature="0"
           d="m 748.20423,555.1836 c 0,3.54905 -1.3022,3.95226 -5.11879,3.95226 -3.09892,0 -4.31237,-1.34658 -4.31237,-2.87195 0,-1.6623 1.25783,-2.74261 3.95353,-2.74261 l 5.47763,0 0,1.6623 z m 0,7.99455 4.58117,0 0,-15.5377 c 0,-5.61203 -3.86223,-7.49877 -9.47553,-7.49877 -3.41338,0 -5.92776,0.89646 -7.67882,3.32335 l 3.59215,2.73881 c 0.8077,-1.3022 1.93112,-1.7536 4.3111,-1.7536 3.2777,0 4.66993,0.76586 4.66993,2.92014 l 0,2.37997 -6.33224,0 c -4.89436,0 -7.40874,3.10019 -7.40874,6.73546 0,3.95353 2.96324,6.96242 8.03765,6.96242 3.09892,0 4.6712,-0.71894 5.6133,-2.29122 l 0.09,0 0,2.02114 z"
           style="fill:#c6c6c6;fill-opacity:1;fill-rule:evenodd;stroke:none"
           id="path3987" />
        <path
           inkscape:connector-curvature="0"
           d="m 757.81671,563.17777 4.5799,0 0,-13.69787 c 0,-3.32081 2.20119,-4.75996 4.44677,-4.75996 1.1678,0 1.93112,0.31446 3.00889,1.12469 l 3.32208,-3.95226 c -1.39223,-1.07778 -2.9176,-1.75107 -4.75996,-1.75107 -2.42435,0 -4.49114,0.89899 -5.92775,2.69444 l -0.09,0 0,-2.42436 -4.5799,0 0,22.76639 z"
           style="fill:#c6c6c6;fill-opacity:1;fill-rule:evenodd;stroke:none"
           id="path3989" />
        <path
           inkscape:connector-curvature="0"
           d="m 782.38298,544.72045 c 4.26671,0 4.49114,3.77474 4.49114,7.05371 0,3.32335 -0.22443,7.09175 -4.49114,7.09175 -4.3111,0 -4.53553,-3.54651 -4.53553,-7.09175 0,-3.50467 0.22443,-7.05371 4.53553,-7.05371 m 4.49114,18.45783 4.57991,0 0,-31.97439 -4.57991,0 0,11.63236 c -1.70668,-1.61793 -3.54777,-2.69444 -5.88337,-2.69444 -2.78446,0 -4.80434,1.25529 -6.10654,2.96451 -1.25783,1.61413 -1.61667,3.09512 -1.61667,8.66784 0,5.61076 0.35884,7.09175 1.61667,8.70968 1.3022,1.70542 3.32208,2.96451 6.10654,2.96451 2.3356,0 4.44676,-1.08031 5.88337,-2.65005 l 0,2.37998 z"
           style="fill:#c6c6c6;fill-opacity:1;fill-rule:evenodd;stroke:none"
           id="path3991" />
        <path
           inkscape:connector-curvature="0"
           d="m 814.83018,563.17777 4.04356,0 7.27434,-22.76639 -4.85125,0 -4.35421,15.94091 -0.0913,0 -5.16444,-15.94091 -3.32335,0 -5.16317,15.94091 -0.0888,0 -4.35674,-15.94091 -4.84872,0 7.27308,22.76639 4.04228,0 4.75996,-15.94091 0.0888,0 4.75995,15.94091 z"
           style="fill:#c6c6c6;fill-opacity:1;fill-rule:evenodd;stroke:none"
           id="path3993" />
        <path
           inkscape:connector-curvature="0"
           d="m 840.24397,555.1836 c 0,3.54905 -1.30221,3.95226 -5.1188,3.95226 -3.09765,0 -4.31236,-1.34658 -4.31236,-2.87195 0,-1.6623 1.25909,-2.74261 3.95353,-2.74261 l 5.47763,0 0,1.6623 z m 0,7.99455 4.58117,0 0,-15.5377 c 0,-5.61203 -3.8635,-7.49877 -9.47427,-7.49877 -3.41337,0 -5.92902,0.89646 -7.68009,3.32335 l 3.59343,2.73881 c 0.80769,-1.3022 1.92858,-1.7536 4.30856,-1.7536 3.27897,0 4.6712,0.76586 4.6712,2.92014 l 0,2.37997 -6.33224,0 c -4.89436,0 -7.41002,3.10019 -7.41002,6.73546 0,3.95353 2.96452,6.96242 8.03893,6.96242 3.09765,0 4.6712,-0.71894 5.61457,-2.29122 l 0.0888,0 0,2.02114 z"
           style="fill:#c6c6c6;fill-opacity:1;fill-rule:evenodd;stroke:none"
           id="path3995" />
        <path
           inkscape:connector-curvature="0"
           d="m 849.85784,563.17777 4.57863,0 0,-13.69787 c 0,-3.32081 2.19993,-4.75996 4.4455,-4.75996 1.16907,0 1.93239,0.31446 3.00889,1.12469 l 3.32335,-3.95226 c -1.39096,-1.07778 -2.91886,-1.75107 -4.75995,-1.75107 -2.42436,0 -4.48988,0.89899 -5.92523,2.69444 l -0.0926,0 0,-2.42436 -4.57863,0 0,22.76639 z"
           style="fill:#c6c6c6;fill-opacity:1;fill-rule:evenodd;stroke:none"
           id="path3997" />
        <path
           inkscape:connector-curvature="0"
           d="m 869.88034,549.75023 c 0.0888,-3.45775 2.1099,-5.30011 4.80433,-5.30011 2.69444,0 4.6712,1.84236 4.80434,5.30011 l -9.60867,0 z m 14.18731,3.77474 0,-3.77474 c 0,-5.88211 -4.35294,-9.60867 -9.38298,-9.60867 -4.40112,0 -9.3855,2.87195 -9.3855,11.71857 0,9.34113 5.43324,11.58797 10.10318,11.58797 3.05453,0 5.97086,-1.07777 8.2177,-3.68345 l -3.32334,-2.83011 c -1.34785,1.39477 -3.23459,2.2012 -4.98312,2.2012 -3.14457,0 -5.43325,-1.88674 -5.43325,-5.61077 l 14.18731,0 z"
           style="fill:#c6c6c6;fill-opacity:1;fill-rule:evenodd;stroke:none"
           id="path3999" />
        <path
           inkscape:connector-curvature="0"
           d="m 704.5781,515.85677 c 0,3.27897 -0.26881,4.17543 -1.12216,5.38887 -0.67455,0.94337 -2.11116,1.66231 -3.68218,1.66231 -1.57228,0 -3.00889,-0.71894 -3.68218,-1.66231 -0.85334,-1.21344 -1.12342,-2.1099 -1.12342,-5.43324 0,-3.27897 0.27008,-4.17796 1.12342,-5.38887 0.67329,-0.94337 2.1099,-1.66231 3.68218,-1.66231 1.57102,0 3.00763,0.71894 3.68218,1.66231 0.85335,1.21091 1.12216,2.1099 1.12216,5.43324 m -14.18985,-0.0444 c 0,4.93747 0.71767,6.82547 2.46874,8.75659 1.25782,1.39223 3.36899,2.9176 6.91677,2.9176 3.54651,0 5.65768,-1.52537 6.91551,-2.9176 1.75106,-1.93112 2.47,-3.81912 2.47,-8.75659 0,-4.89563 -0.71894,-6.7811 -2.47,-8.71222 -1.25783,-1.39223 -3.369,-2.92013 -6.91551,-2.92013 -3.54778,0 -5.65895,1.5279 -6.91677,2.92013 -1.75107,1.93112 -2.46874,3.81659 -2.46874,8.71222"
           style="fill:#c6c6c6;fill-opacity:1;fill-rule:evenodd;stroke:none"
           id="path4001" />
        <path
           inkscape:connector-curvature="0"
           d="m 738.92346,513.79138 c 0.09,-3.46029 2.11116,-5.30011 4.8056,-5.30011 2.69443,0 4.66993,1.83982 4.80433,5.30011 l -9.60993,0 z m 14.18984,3.77221 0,-3.77221 c 0,-5.88465 -4.35547,-9.61121 -9.38424,-9.61121 -4.40239,0 -9.38551,2.87449 -9.38551,11.72111 0,9.33859 5.43325,11.58544 10.10318,11.58544 3.05454,0 5.97213,-1.07778 8.21771,-3.68345 l -3.32335,-2.82758 c -1.34658,1.39223 -3.23205,2.2012 -4.98312,2.2012 -3.14456,0 -5.43451,-1.88674 -5.43451,-5.6133 l 14.18984,0 z"
           style="fill:#c6c6c6;fill-opacity:1;fill-rule:evenodd;stroke:none"
           id="path4003" />
        <path
           inkscape:connector-curvature="0"
           d="m 757.02296,527.21651 4.5799,0 0,-13.55839 c 0,-3.10146 1.93112,-4.8969 4.53553,-4.8969 2.56003,0 4.49114,1.79544 4.49114,4.8969 l 0,13.55839 4.57991,0 0,-15.13194 c 0,-5.16571 -4.04102,-7.90452 -7.5888,-7.90452 -2.42435,0 -4.49114,0.89899 -5.92648,2.69443 l -0.0913,0 0,-2.42436 -4.5799,0 0,22.76639 z"
           style="fill:#c6c6c6;fill-opacity:1;fill-rule:evenodd;stroke:none"
           id="path4005" />
        <path
           inkscape:connector-curvature="0"
           d="m 787.59294,523.40018 c 2.91886,2.73881 6.33223,4.08666 10.01442,4.08666 5.29884,0 9.42862,-2.55876 9.42862,-7.0068 0,-3.63526 -1.88421,-6.51102 -6.59978,-6.82547 l -3.77221,-0.26628 c -2.28995,-0.18132 -3.00763,-1.16907 -3.00763,-2.15808 0,-1.56975 0.98775,-2.73882 3.90535,-2.73882 2.47127,0 4.31363,0.85462 6.10908,2.10991 l 2.82884,-3.32082 c -2.24685,-1.88673 -4.93874,-3.10018 -8.93792,-3.10018 -4.80434,0 -8.48652,2.37998 -8.48652,7.00553 0,3.90534 2.78446,6.15219 6.5554,6.46664 l 4.04229,0.35884 c 1.57355,0.13313 2.78446,0.62891 2.78446,2.24557 0,1.93239 -1.88801,2.9176 -4.49115,2.9176 -3.05327,0 -5.20882,-0.98521 -7.18431,-2.9176 l -3.18894,3.1433 z"
           style="fill:#c6c6c6;fill-opacity:1;fill-rule:evenodd;stroke:none"
           id="path4007" />
        <path
           inkscape:connector-curvature="0"
           d="m 823.83226,515.85677 c 0,3.27897 -0.26754,4.17543 -1.12215,5.38887 -0.6733,0.94337 -2.10991,1.66231 -3.68219,1.66231 -1.56974,0 -3.00889,-0.71894 -3.67964,-1.66231 -0.85462,-1.21344 -1.12469,-2.1099 -1.12469,-5.43324 0,-3.27897 0.27007,-4.17796 1.12469,-5.38887 0.67075,-0.94337 2.1099,-1.66231 3.67964,-1.66231 1.57228,0 3.00889,0.71894 3.68219,1.66231 0.85461,1.21091 1.12215,2.1099 1.12215,5.43324 m -14.18985,-0.0444 c 0,4.93747 0.72021,6.82547 2.47128,8.75659 1.25782,1.39223 3.36772,2.9176 6.91423,2.9176 3.54905,0 5.65895,-1.52537 6.91678,-2.9176 1.75106,-1.93112 2.46873,-3.81912 2.46873,-8.75659 0,-4.89563 -0.71767,-6.7811 -2.46873,-8.71222 -1.25783,-1.39223 -3.36773,-2.92013 -6.91678,-2.92013 -3.54651,0 -5.65641,1.5279 -6.91423,2.92013 -1.75107,1.93112 -2.47128,3.81659 -2.47128,8.71222"
           style="fill:#c6c6c6;fill-opacity:1;fill-rule:evenodd;stroke:none"
           id="path4009" />
        <path
           inkscape:connector-curvature="0"
           d="m 832.32423,519.58384 c 0,5.16317 4.04229,7.90199 7.63444,7.90199 2.37745,0 4.4455,-0.89899 5.88211,-2.69444 l 0.0888,0 0,2.4269 4.57991,0 0,-22.76893 -4.57991,0 0,13.5622 c 0,3.09765 -1.93112,4.89563 -4.49115,4.89563 -2.60314,0 -4.53552,-1.79798 -4.53552,-4.89563 l 0,-13.5622 -4.57864,0 0,15.13448 z"
           style="fill:#c6c6c6;fill-opacity:1;fill-rule:evenodd;stroke:none"
           id="path4011" />
        <path
           inkscape:connector-curvature="0"
           d="m 855.53149,527.21651 4.58117,0 0,-13.69533 c 0,-3.32335 2.19993,-4.75996 4.4455,-4.75996 1.16907,0 1.93239,0.31445 3.0089,1.12215 l 3.32334,-3.95226 c -1.39349,-1.07777 -2.91633,-1.75106 -4.75995,-1.75106 -2.42436,0 -4.49242,0.89899 -5.92776,2.69443 l -0.09,0 0,-2.42436 -4.58117,0 0,22.76639 z"
           style="fill:#c6c6c6;fill-opacity:1;fill-rule:evenodd;stroke:none"
           id="path4013" />
        <path
           inkscape:connector-curvature="0"
           d="m 885.47738,520.52747 c -1.12216,1.39223 -2.73882,2.37997 -4.62302,2.37997 -3.72783,0 -5.92902,-2.11243 -5.92902,-7.05371 0,-4.98185 2.20119,-7.09175 5.92902,-7.09175 1.8842,0 3.50086,0.98775 4.62302,2.37998 l 3.36772,-3.00889 c -1.97296,-2.29122 -4.71558,-3.95353 -8.17206,-3.95353 -5.2532,0 -10.32761,3.32461 -10.32761,11.67419 0,8.31154 5.07441,11.63235 10.32761,11.63235 3.45648,0 6.1991,-1.66104 8.17206,-3.94972 l -3.36772,-3.00889 z"
           style="fill:#c6c6c6;fill-opacity:1;fill-rule:evenodd;stroke:none"
           id="path4015" />
        <path
           inkscape:connector-curvature="0"
           d="m 894.59091,513.79138 c 0.0888,-3.46029 2.1099,-5.30011 4.80433,-5.30011 2.69444,0 4.66866,1.83982 4.80434,5.30011 l -9.60867,0 z m 14.18984,3.77221 0,-3.77221 c 0,-5.88465 -4.35801,-9.61121 -9.38551,-9.61121 -4.40366,0 -9.38551,2.87449 -9.38551,11.72111 0,9.33859 5.43325,11.58544 10.10318,11.58544 3.05454,0 5.9734,-1.07778 8.21771,-3.68345 l -3.32335,-2.82758 c -1.34785,1.39223 -3.23205,2.2012 -4.98312,2.2012 -3.14456,0 -5.43324,-1.88674 -5.43324,-5.6133 l 14.18984,0 z"
           style="fill:#c6c6c6;fill-opacity:1;fill-rule:evenodd;stroke:none"
           id="path4017" />
        <path
           inkscape:connector-curvature="0"
           d="m 713.05029,563.17777 0,-58.72727 4.59765,0 0,2.37998 c 1.43788,-1.57355 3.54778,-2.65005 5.88338,-2.65005 2.78319,0 4.80561,1.25782 6.10781,2.96451 1.25656,1.61666 1.61539,3.09765 1.61539,8.71222 0,5.56638 -0.35883,7.0499 -1.61539,8.6653 -1.3022,1.70542 -3.32462,2.96451 -6.10781,2.96451 -2.3356,0 -4.17669,-1.07777 -5.88338,-2.69444 l -0.0165,18.04321 c 1.52664,-1.79545 3.59216,-2.69444 6.01652,-2.69444 3.54777,0 7.58879,2.73882 7.58879,7.90199 l 0,15.13448 -4.5799,0 0,-13.56093 c 0,-3.10146 -1.93112,-4.8969 -4.49115,-4.8969 -2.60441,0 -4.53426,1.79544 -4.53426,4.8969 l 0,13.56093 -4.58117,0 z m 9.0888,-40.27071 c 4.3111,0 4.53553,-3.54904 4.53553,-7.0499 0,-3.54905 -0.22443,-7.09556 -4.53553,-7.09556 -4.26545,0 -4.49115,3.77221 -4.49115,7.09556 0,3.27896 0.2257,7.0499 4.49115,7.0499"
           style="fill:#c6c6c6;fill-opacity:1;fill-rule:nonzero;stroke:none"
           id="path4019" />
        <path
           inkscape:export-ydpi="300"
           inkscape:export-xdpi="300"
           inkscape:export-filename="/Users/airiclenz/Desktop/welove.png"
           style="opacity:0.56426332;fill:#0099b0;fill-opacity:1;stroke:none"
           d="m 524.57141,500.36218 c -13.92856,0 -25.35166,14.74629 -18.57141,32.03587 9.2857,23.67843 34.82139,32.96413 34.82139,32.96413 0,0 25.53567,-9.2857 34.82138,-32.96413 6.78026,-17.28958 -4.64285,-32.03587 -18.57141,-32.03587 -13.92854,0 -16.24997,13.92864 -16.24997,13.92864 0,0 -2.32143,-13.92864 -16.24998,-13.92864 z"
           id="path4065"
           inkscape:connector-curvature="0"
           sodipodi:nodetypes="sscsscs" />
        <path
           inkscape:connector-curvature="0"
           id="path4102"
           style="font-size:110.70277405px;font-style:normal;font-variant:normal;font-weight:600;font-stretch:normal;text-align:start;line-height:125%;letter-spacing:0px;word-spacing:0px;writing-mode:lr-tb;text-anchor:start;fill:#c6c6c6;fill-opacity:1;stroke:none;font-family:Myriad Pro;-inkscape-font-specification:Myriad Pro Semi-Bold"
           d="m 357.42255,505.45829 15.9412,53.91225 12.73082,0 6.86357,-21.91914 c 1.54984,-5.31373 2.87827,-10.62748 4.096,-17.26964 l 0.22141,0 c 1.21773,6.53146 2.43546,11.6238 4.096,17.26964 l 6.42076,21.91914 12.62012,0 16.93752,-53.91225 -13.39503,0 -5.97795,23.9118 c -1.43914,6.31005 -2.76757,12.17731 -3.54249,18.04455 l -0.22141,0 c -1.21773,-5.86724 -2.65687,-11.7345 -4.31741,-18.04455 l -6.75286,-23.9118 -11.07028,0 -7.08498,24.57602 c -1.43913,5.53513 -3.21038,11.51309 -4.31741,17.38033 l -0.2214,0 c -0.99633,-5.86724 -2.21406,-11.73449 -3.54249,-17.49103 l -5.53514,-24.46532 -13.94855,0" />
        <path
           inkscape:connector-curvature="0"
           id="path4104"
           style="font-size:110.70277405px;font-style:normal;font-variant:normal;font-weight:600;font-stretch:normal;text-align:start;line-height:125%;letter-spacing:0px;word-spacing:0px;writing-mode:lr-tb;text-anchor:start;fill:#c6c6c6;fill-opacity:1;stroke:none;font-family:Myriad Pro;-inkscape-font-specification:Myriad Pro Semi-Bold"
           d="m 486.19669,536.23366 c 0.2214,-1.21772 0.44281,-3.21038 0.44281,-5.75654 0,-11.84518 -5.75656,-26.23656 -23.24758,-26.23656 -17.26962,0 -26.34726,14.05927 -26.34726,29.00413 0,16.4947 10.29537,27.23288 27.78639,27.23288 7.74919,0 14.16996,-1.43914 18.81947,-3.43178 l -1.99265,-9.29904 c -4.2067,1.43914 -8.63482,2.43546 -14.94487,2.43546 -8.74551,0 -16.27331,-4.20671 -16.60542,-13.94855 l 36.08911,0 m -36.08911,-9.52043 c 0.55352,-5.53514 4.09601,-13.17363 12.50942,-13.17363 9.07762,0 11.29168,8.19201 11.18098,13.17363 l -23.6904,0" />
      </g>
    </g>
  </g>
</svg>
