<?xml version="1.0" encoding="UTF-8" standalone="no"?>
<!DOCTYPE svg PUBLIC "-//W3C//DTD SVG 1.1//EN" "http://www.w3.org/Graphics/SVG/1.1/DTD/svg11.dtd">
<svg width="100%" height="100%" viewBox="0 0 32 32" version="1.1" xmlns="http://www.w3.org/2000/svg" xmlns:xlink="http://www.w3.org/1999/xlink" xml:space="preserve" xmlns:serif="http://www.serif.com/" style="fill-rule:evenodd;clip-rule:evenodd;stroke-linejoin:round;stroke-miterlimit:2;">
    <g transform="matrix(0.0220292,0,0,0.0220292,-71.069,-15.2276)">
        <path d="M3889.45,2143.82C3609.35,2137.35 3408.82,1922.27 3431.64,1650.06C3461.66,1292.05 3985.36,691.246 3985.36,691.246L3985.68,691.691C3999.13,710.305 4430.05,1309.68 4413.85,1662.28C4401.31,1935.16 4172.32,2145.2 3891.1,2143.86L3889.45,2143.82ZM3968.3,954.321C3911.92,1025.26 3825.73,1139.16 3748.72,1263.23C3668.22,1392.9 3595.91,1533.41 3586.61,1644.65C3570.82,1833.54 3708.98,1981.81 3900.73,1986.27L3900.62,1986.26L3901.09,1986.28C4093.49,1987 4251.1,1842.27 4259.84,1653.03C4264.89,1543.57 4212.68,1404.31 4150.57,1274.67C4089.12,1146.42 4016.2,1027.82 3968.3,954.321ZM3889.01,1910.53C3849.48,1911.89 3749.41,1900.04 3688.93,1757.12C3631.96,1622.46 3728.12,1432.66 3813.43,1360.43C3839.67,1465.54 3967.22,1496.2 3993.47,1683.72C4010.55,1805.71 3926.59,1889.89 3908.99,1906.03C3851,1799.73 3789.83,1673.66 3785.64,1531.89C3781.51,1663.8 3832.82,1802.07 3889.01,1910.53ZM4011.92,1651.23C3994.57,1565.95 3950.36,1519.77 3912.65,1476.61C3949.64,1402.27 3994.27,1331.76 4020.07,1258.17C4130.34,1393.08 4206.36,1622.46 4135.27,1757.12C4070.11,1880.55 3975.85,1905.56 3928.65,1909.39C3959.73,1875.42 4026.49,1798.67 4018.31,1694.34C4050.94,1613.21 4056.54,1513.6 4051.6,1422.62C4046.41,1502.06 4043.75,1586.74 4011.92,1651.23Z" style="fill:rgb(37,72,80);"/>
    </g>
</svg>
