<?xml version="1.0" encoding="UTF-8" standalone="no"?>
<!DOCTYPE svg PUBLIC "-//W3C//DTD SVG 1.1//EN" "http://www.w3.org/Graphics/SVG/1.1/DTD/svg11.dtd">
<svg width="100%" height="100%" viewBox="0 0 32 32" version="1.1" xmlns="http://www.w3.org/2000/svg" xmlns:xlink="http://www.w3.org/1999/xlink" xml:space="preserve" xmlns:serif="http://www.serif.com/" style="fill-rule:evenodd;clip-rule:evenodd;stroke-linejoin:round;stroke-miterlimit:2;">
    <path d="M14.592,29.962L8.608,29.962C8.178,29.962 7.976,29.834 8.003,29.577L8.028,29.336C8.033,29.293 8.053,29.245 8.088,29.191L12.858,23.098L9.687,23.098C9.257,23.098 9.056,22.97 9.083,22.713L9.164,21.936C9.191,21.679 9.42,21.551 9.85,21.551L15.459,21.551C15.883,21.551 16.081,21.679 16.054,21.936L16.013,22.327C16.007,22.381 15.987,22.427 15.953,22.466L11.307,28.409L14.756,28.409C15.186,28.409 15.387,28.538 15.36,28.795L15.278,29.577C15.251,29.834 15.022,29.962 14.592,29.962ZM27.085,24.293L19.505,24.293C18.96,24.293 18.705,24.13 18.739,23.804L18.771,23.499C18.777,23.445 18.802,23.384 18.847,23.316L24.889,15.598L20.872,15.598C20.328,15.598 20.072,15.435 20.107,15.11L20.21,14.126C20.244,13.801 20.534,13.638 21.078,13.638L28.182,13.638C28.72,13.638 28.971,13.801 28.937,14.126L28.885,14.621C28.878,14.689 28.853,14.748 28.809,14.798L22.924,22.326L27.292,22.326C27.837,22.326 28.092,22.489 28.058,22.814L27.954,23.804C27.919,24.13 27.63,24.293 27.085,24.293ZM15.812,18.26L4.227,18.26C3.395,18.26 3.005,18.011 3.057,17.514L3.106,17.047C3.115,16.964 3.153,16.871 3.222,16.767L12.456,4.973L6.317,4.973C5.485,4.973 5.095,4.724 5.147,4.226L5.305,2.724C5.357,2.226 5.8,1.977 6.632,1.977L17.489,1.977C18.31,1.977 18.694,2.226 18.642,2.724L18.562,3.48C18.551,3.584 18.513,3.674 18.447,3.75L9.452,15.254L16.128,15.254C16.96,15.254 17.35,15.503 17.298,16L17.139,17.514C17.087,18.011 16.645,18.26 15.812,18.26Z" style="fill:white;fill-opacity:0.5;fill-rule:nonzero;"/>
</svg>
