<?xml version="1.0" encoding="UTF-8" standalone="no"?>
<!DOCTYPE svg PUBLIC "-//W3C//DTD SVG 1.1//EN" "http://www.w3.org/Graphics/SVG/1.1/DTD/svg11.dtd">
<svg width="100%" height="100%" viewBox="0 0 32 32" version="1.1" xmlns="http://www.w3.org/2000/svg" xmlns:xlink="http://www.w3.org/1999/xlink" xml:space="preserve" xmlns:serif="http://www.serif.com/" style="fill-rule:evenodd;clip-rule:evenodd;stroke-linecap:round;stroke-linejoin:round;stroke-miterlimit:1.5;">
    <g transform="matrix(1.62785,0,0,1.62785,-3.53421,-3.95013)">
        <path d="M21.171,15.398L15.259,5.544C14.483,4.251 13.296,3.511 12,3.511C10.704,3.511 9.517,4.251 8.741,5.542L2.829,15.398C2.043,16.707 1.957,18.103 2.594,19.228C3.23,20.354 4.472,21 6,21L18,21C19.528,21 20.77,20.354 21.406,19.229C22.043,18.104 21.957,16.708 21.171,15.398Z" style="fill:rgb(255,93,0);fill-rule:nonzero;"/>
    </g>
    <g transform="matrix(0.666667,0,0,0.666667,5.33333,7.33333)">
        <circle cx="16" cy="25" r="3" style="fill:white;stroke:white;stroke-width:0.9px;"/>
    </g>
    <g transform="matrix(1,0,0,1.18182,2.30926e-14,-2.45455)">
        <path d="M18,9.692L18,17.308C18,18.242 17.104,19 16,19C14.896,19 14,18.242 14,17.308L14,9.692C14,8.758 14.896,8 16,8C17.104,8 18,8.758 18,9.692Z" style="fill:white;"/>
    </g>
</svg>
