%TF.GenerationSoftware,KiCad,Pcbnew,(5.1.6-0-10_14)*%
%TF.CreationDate,2020-07-28T14:29:37+02:00*%
%TF.ProjectId,WaterPlant Pi,57617465-7250-46c6-916e-742050692e6b,rev?*%
%TF.SameCoordinates,Original*%
%TF.FileFunction,Soldermask,Bot*%
%TF.FilePolarity,Negative*%
%FSLAX46Y46*%
G04 Gerber Fmt 4.6, Leading zero omitted, Abs format (unit mm)*
G04 Created by KiCad (PCBNEW (5.1.6-0-10_14)) date 2020-07-28 14:29:37*
%MOMM*%
%LPD*%
G01*
G04 APERTURE LIST*
%ADD10C,2.100000*%
%ADD11C,1.800000*%
%ADD12C,2.400000*%
%ADD13C,3.600000*%
%ADD14O,1.800000X1.800000*%
%ADD15R,1.800000X1.800000*%
G04 APERTURE END LIST*
D10*
%TO.C,J2*%
X49500000Y-63500000D03*
%TD*%
D11*
%TO.C,J9*%
X53500000Y-77270000D03*
G36*
G01*
X53050000Y-73830000D02*
X53950000Y-73830000D01*
G75*
G02*
X54400000Y-74280000I0J-450000D01*
G01*
X54400000Y-75180000D01*
G75*
G02*
X53950000Y-75630000I-450000J0D01*
G01*
X53050000Y-75630000D01*
G75*
G02*
X52600000Y-75180000I0J450000D01*
G01*
X52600000Y-74280000D01*
G75*
G02*
X53050000Y-73830000I450000J0D01*
G01*
G37*
%TD*%
D12*
%TO.C,U1*%
X84500000Y-70850000D03*
X68500000Y-57350000D03*
D11*
X70150000Y-61560000D03*
X67610000Y-61560000D03*
X67610000Y-64100000D03*
G36*
G01*
X66710000Y-67090000D02*
X66710000Y-66190000D01*
G75*
G02*
X67160000Y-65740000I450000J0D01*
G01*
X68060000Y-65740000D01*
G75*
G02*
X68510000Y-66190000I0J-450000D01*
G01*
X68510000Y-67090000D01*
G75*
G02*
X68060000Y-67540000I-450000J0D01*
G01*
X67160000Y-67540000D01*
G75*
G02*
X66710000Y-67090000I0J450000D01*
G01*
G37*
G36*
G01*
X66710000Y-69630000D02*
X66710000Y-68730000D01*
G75*
G02*
X67160000Y-68280000I450000J0D01*
G01*
X68060000Y-68280000D01*
G75*
G02*
X68510000Y-68730000I0J-450000D01*
G01*
X68510000Y-69630000D01*
G75*
G02*
X68060000Y-70080000I-450000J0D01*
G01*
X67160000Y-70080000D01*
G75*
G02*
X66710000Y-69630000I0J450000D01*
G01*
G37*
X67610000Y-71720000D03*
%TD*%
%TO.C,J8*%
X59020000Y-96500000D03*
G36*
G01*
X55580000Y-96950000D02*
X55580000Y-96050000D01*
G75*
G02*
X56030000Y-95600000I450000J0D01*
G01*
X56930000Y-95600000D01*
G75*
G02*
X57380000Y-96050000I0J-450000D01*
G01*
X57380000Y-96950000D01*
G75*
G02*
X56930000Y-97400000I-450000J0D01*
G01*
X56030000Y-97400000D01*
G75*
G02*
X55580000Y-96950000I0J450000D01*
G01*
G37*
%TD*%
%TO.C,J7*%
X67520000Y-96500000D03*
G36*
G01*
X64080000Y-96950000D02*
X64080000Y-96050000D01*
G75*
G02*
X64530000Y-95600000I450000J0D01*
G01*
X65430000Y-95600000D01*
G75*
G02*
X65880000Y-96050000I0J-450000D01*
G01*
X65880000Y-96950000D01*
G75*
G02*
X65430000Y-97400000I-450000J0D01*
G01*
X64530000Y-97400000D01*
G75*
G02*
X64080000Y-96950000I0J450000D01*
G01*
G37*
%TD*%
%TO.C,J6*%
X76020000Y-96500000D03*
G36*
G01*
X72580000Y-96950000D02*
X72580000Y-96050000D01*
G75*
G02*
X73030000Y-95600000I450000J0D01*
G01*
X73930000Y-95600000D01*
G75*
G02*
X74380000Y-96050000I0J-450000D01*
G01*
X74380000Y-96950000D01*
G75*
G02*
X73930000Y-97400000I-450000J0D01*
G01*
X73030000Y-97400000D01*
G75*
G02*
X72580000Y-96950000I0J450000D01*
G01*
G37*
%TD*%
%TO.C,J5*%
X84520000Y-96500000D03*
G36*
G01*
X81080000Y-96950000D02*
X81080000Y-96050000D01*
G75*
G02*
X81530000Y-95600000I450000J0D01*
G01*
X82430000Y-95600000D01*
G75*
G02*
X82880000Y-96050000I0J-450000D01*
G01*
X82880000Y-96950000D01*
G75*
G02*
X82430000Y-97400000I-450000J0D01*
G01*
X81530000Y-97400000D01*
G75*
G02*
X81080000Y-96950000I0J450000D01*
G01*
G37*
%TD*%
%TO.C,J4*%
X93020000Y-96500000D03*
G36*
G01*
X89580000Y-96950000D02*
X89580000Y-96050000D01*
G75*
G02*
X90030000Y-95600000I450000J0D01*
G01*
X90930000Y-95600000D01*
G75*
G02*
X91380000Y-96050000I0J-450000D01*
G01*
X91380000Y-96950000D01*
G75*
G02*
X90930000Y-97400000I-450000J0D01*
G01*
X90030000Y-97400000D01*
G75*
G02*
X89580000Y-96950000I0J450000D01*
G01*
G37*
%TD*%
%TO.C,J3*%
X101520000Y-96500000D03*
G36*
G01*
X98080000Y-96950000D02*
X98080000Y-96050000D01*
G75*
G02*
X98530000Y-95600000I450000J0D01*
G01*
X99430000Y-95600000D01*
G75*
G02*
X99880000Y-96050000I0J-450000D01*
G01*
X99880000Y-96950000D01*
G75*
G02*
X99430000Y-97400000I-450000J0D01*
G01*
X98530000Y-97400000D01*
G75*
G02*
X98080000Y-96950000I0J450000D01*
G01*
G37*
%TD*%
D13*
%TO.C,DR4*%
X108000000Y-100000000D03*
%TD*%
%TO.C,DR3*%
X108000000Y-51000000D03*
%TD*%
%TO.C,DR2*%
X50000000Y-100000000D03*
%TD*%
%TO.C,DR1*%
X50000000Y-51000000D03*
%TD*%
D14*
%TO.C,J1*%
X103130000Y-49730000D03*
X103130000Y-52270000D03*
X100590000Y-49730000D03*
X100590000Y-52270000D03*
X98050000Y-49730000D03*
X98050000Y-52270000D03*
X95510000Y-49730000D03*
X95510000Y-52270000D03*
X92970000Y-49730000D03*
X92970000Y-52270000D03*
X90430000Y-49730000D03*
X90430000Y-52270000D03*
X87890000Y-49730000D03*
X87890000Y-52270000D03*
X85350000Y-49730000D03*
X85350000Y-52270000D03*
X82810000Y-49730000D03*
X82810000Y-52270000D03*
X80270000Y-49730000D03*
X80270000Y-52270000D03*
X77730000Y-49730000D03*
X77730000Y-52270000D03*
X75190000Y-49730000D03*
X75190000Y-52270000D03*
X72650000Y-49730000D03*
X72650000Y-52270000D03*
X70110000Y-49730000D03*
X70110000Y-52270000D03*
X67570000Y-49730000D03*
X67570000Y-52270000D03*
X65030000Y-49730000D03*
X65030000Y-52270000D03*
X62490000Y-49730000D03*
X62490000Y-52270000D03*
X59950000Y-49730000D03*
X59950000Y-52270000D03*
X57410000Y-49730000D03*
X57410000Y-52270000D03*
X54870000Y-49730000D03*
D15*
X54870000Y-52270000D03*
%TD*%
M02*
