%TF.GenerationSoftware,KiCad,Pcbnew,(5.1.6-0-10_14)*%
%TF.CreationDate,2020-07-28T14:29:37+02:00*%
%TF.ProjectId,WaterPlant Pi,57617465-7250-46c6-916e-742050692e6b,rev?*%
%TF.SameCoordinates,Original*%
%TF.FileFunction,Paste,Top*%
%TF.FilePolarity,Positive*%
%FSLAX46Y46*%
G04 Gerber Fmt 4.6, Leading zero omitted, Abs format (unit mm)*
G04 Created by KiCad (PCBNEW (5.1.6-0-10_14)) date 2020-07-28 14:29:37*
%MOMM*%
%LPD*%
G01*
G04 APERTURE LIST*
%ADD10R,4.400000X3.300000*%
%ADD11R,6.200000X3.900000*%
%ADD12R,2.000000X0.650000*%
G04 APERTURE END LIST*
%TO.C,R19*%
G36*
G01*
X65450000Y-84000000D02*
X65450000Y-83500000D01*
G75*
G02*
X65700000Y-83250000I250000J0D01*
G01*
X66500000Y-83250000D01*
G75*
G02*
X66750000Y-83500000I0J-250000D01*
G01*
X66750000Y-84000000D01*
G75*
G02*
X66500000Y-84250000I-250000J0D01*
G01*
X65700000Y-84250000D01*
G75*
G02*
X65450000Y-84000000I0J250000D01*
G01*
G37*
G36*
G01*
X63250000Y-84000000D02*
X63250000Y-83500000D01*
G75*
G02*
X63500000Y-83250000I250000J0D01*
G01*
X64300000Y-83250000D01*
G75*
G02*
X64550000Y-83500000I0J-250000D01*
G01*
X64550000Y-84000000D01*
G75*
G02*
X64300000Y-84250000I-250000J0D01*
G01*
X63500000Y-84250000D01*
G75*
G02*
X63250000Y-84000000I0J250000D01*
G01*
G37*
%TD*%
%TO.C,R18*%
G36*
G01*
X73950000Y-84000000D02*
X73950000Y-83500000D01*
G75*
G02*
X74200000Y-83250000I250000J0D01*
G01*
X75000000Y-83250000D01*
G75*
G02*
X75250000Y-83500000I0J-250000D01*
G01*
X75250000Y-84000000D01*
G75*
G02*
X75000000Y-84250000I-250000J0D01*
G01*
X74200000Y-84250000D01*
G75*
G02*
X73950000Y-84000000I0J250000D01*
G01*
G37*
G36*
G01*
X71750000Y-84000000D02*
X71750000Y-83500000D01*
G75*
G02*
X72000000Y-83250000I250000J0D01*
G01*
X72800000Y-83250000D01*
G75*
G02*
X73050000Y-83500000I0J-250000D01*
G01*
X73050000Y-84000000D01*
G75*
G02*
X72800000Y-84250000I-250000J0D01*
G01*
X72000000Y-84250000D01*
G75*
G02*
X71750000Y-84000000I0J250000D01*
G01*
G37*
%TD*%
%TO.C,R17*%
G36*
G01*
X82450000Y-84000000D02*
X82450000Y-83500000D01*
G75*
G02*
X82700000Y-83250000I250000J0D01*
G01*
X83500000Y-83250000D01*
G75*
G02*
X83750000Y-83500000I0J-250000D01*
G01*
X83750000Y-84000000D01*
G75*
G02*
X83500000Y-84250000I-250000J0D01*
G01*
X82700000Y-84250000D01*
G75*
G02*
X82450000Y-84000000I0J250000D01*
G01*
G37*
G36*
G01*
X80250000Y-84000000D02*
X80250000Y-83500000D01*
G75*
G02*
X80500000Y-83250000I250000J0D01*
G01*
X81300000Y-83250000D01*
G75*
G02*
X81550000Y-83500000I0J-250000D01*
G01*
X81550000Y-84000000D01*
G75*
G02*
X81300000Y-84250000I-250000J0D01*
G01*
X80500000Y-84250000D01*
G75*
G02*
X80250000Y-84000000I0J250000D01*
G01*
G37*
%TD*%
%TO.C,R16*%
G36*
G01*
X90950000Y-84000000D02*
X90950000Y-83500000D01*
G75*
G02*
X91200000Y-83250000I250000J0D01*
G01*
X92000000Y-83250000D01*
G75*
G02*
X92250000Y-83500000I0J-250000D01*
G01*
X92250000Y-84000000D01*
G75*
G02*
X92000000Y-84250000I-250000J0D01*
G01*
X91200000Y-84250000D01*
G75*
G02*
X90950000Y-84000000I0J250000D01*
G01*
G37*
G36*
G01*
X88750000Y-84000000D02*
X88750000Y-83500000D01*
G75*
G02*
X89000000Y-83250000I250000J0D01*
G01*
X89800000Y-83250000D01*
G75*
G02*
X90050000Y-83500000I0J-250000D01*
G01*
X90050000Y-84000000D01*
G75*
G02*
X89800000Y-84250000I-250000J0D01*
G01*
X89000000Y-84250000D01*
G75*
G02*
X88750000Y-84000000I0J250000D01*
G01*
G37*
%TD*%
%TO.C,R15*%
G36*
G01*
X99450000Y-84000000D02*
X99450000Y-83500000D01*
G75*
G02*
X99700000Y-83250000I250000J0D01*
G01*
X100500000Y-83250000D01*
G75*
G02*
X100750000Y-83500000I0J-250000D01*
G01*
X100750000Y-84000000D01*
G75*
G02*
X100500000Y-84250000I-250000J0D01*
G01*
X99700000Y-84250000D01*
G75*
G02*
X99450000Y-84000000I0J250000D01*
G01*
G37*
G36*
G01*
X97250000Y-84000000D02*
X97250000Y-83500000D01*
G75*
G02*
X97500000Y-83250000I250000J0D01*
G01*
X98300000Y-83250000D01*
G75*
G02*
X98550000Y-83500000I0J-250000D01*
G01*
X98550000Y-84000000D01*
G75*
G02*
X98300000Y-84250000I-250000J0D01*
G01*
X97500000Y-84250000D01*
G75*
G02*
X97250000Y-84000000I0J250000D01*
G01*
G37*
%TD*%
%TO.C,D12*%
G36*
G01*
X66750000Y-81608000D02*
X66750000Y-82392000D01*
G75*
G02*
X66442000Y-82700000I-308000J0D01*
G01*
X65258000Y-82700000D01*
G75*
G02*
X64950000Y-82392000I0J308000D01*
G01*
X64950000Y-81608000D01*
G75*
G02*
X65258000Y-81300000I308000J0D01*
G01*
X66442000Y-81300000D01*
G75*
G02*
X66750000Y-81608000I0J-308000D01*
G01*
G37*
G36*
G01*
X69550000Y-81608000D02*
X69550000Y-82392000D01*
G75*
G02*
X69242000Y-82700000I-308000J0D01*
G01*
X68058000Y-82700000D01*
G75*
G02*
X67750000Y-82392000I0J308000D01*
G01*
X67750000Y-81608000D01*
G75*
G02*
X68058000Y-81300000I308000J0D01*
G01*
X69242000Y-81300000D01*
G75*
G02*
X69550000Y-81608000I0J-308000D01*
G01*
G37*
%TD*%
%TO.C,D11*%
G36*
G01*
X75250000Y-81608000D02*
X75250000Y-82392000D01*
G75*
G02*
X74942000Y-82700000I-308000J0D01*
G01*
X73758000Y-82700000D01*
G75*
G02*
X73450000Y-82392000I0J308000D01*
G01*
X73450000Y-81608000D01*
G75*
G02*
X73758000Y-81300000I308000J0D01*
G01*
X74942000Y-81300000D01*
G75*
G02*
X75250000Y-81608000I0J-308000D01*
G01*
G37*
G36*
G01*
X78050000Y-81608000D02*
X78050000Y-82392000D01*
G75*
G02*
X77742000Y-82700000I-308000J0D01*
G01*
X76558000Y-82700000D01*
G75*
G02*
X76250000Y-82392000I0J308000D01*
G01*
X76250000Y-81608000D01*
G75*
G02*
X76558000Y-81300000I308000J0D01*
G01*
X77742000Y-81300000D01*
G75*
G02*
X78050000Y-81608000I0J-308000D01*
G01*
G37*
%TD*%
%TO.C,D10*%
G36*
G01*
X83750000Y-81608000D02*
X83750000Y-82392000D01*
G75*
G02*
X83442000Y-82700000I-308000J0D01*
G01*
X82258000Y-82700000D01*
G75*
G02*
X81950000Y-82392000I0J308000D01*
G01*
X81950000Y-81608000D01*
G75*
G02*
X82258000Y-81300000I308000J0D01*
G01*
X83442000Y-81300000D01*
G75*
G02*
X83750000Y-81608000I0J-308000D01*
G01*
G37*
G36*
G01*
X86550000Y-81608000D02*
X86550000Y-82392000D01*
G75*
G02*
X86242000Y-82700000I-308000J0D01*
G01*
X85058000Y-82700000D01*
G75*
G02*
X84750000Y-82392000I0J308000D01*
G01*
X84750000Y-81608000D01*
G75*
G02*
X85058000Y-81300000I308000J0D01*
G01*
X86242000Y-81300000D01*
G75*
G02*
X86550000Y-81608000I0J-308000D01*
G01*
G37*
%TD*%
%TO.C,D9*%
G36*
G01*
X92250000Y-81608000D02*
X92250000Y-82392000D01*
G75*
G02*
X91942000Y-82700000I-308000J0D01*
G01*
X90758000Y-82700000D01*
G75*
G02*
X90450000Y-82392000I0J308000D01*
G01*
X90450000Y-81608000D01*
G75*
G02*
X90758000Y-81300000I308000J0D01*
G01*
X91942000Y-81300000D01*
G75*
G02*
X92250000Y-81608000I0J-308000D01*
G01*
G37*
G36*
G01*
X95050000Y-81608000D02*
X95050000Y-82392000D01*
G75*
G02*
X94742000Y-82700000I-308000J0D01*
G01*
X93558000Y-82700000D01*
G75*
G02*
X93250000Y-82392000I0J308000D01*
G01*
X93250000Y-81608000D01*
G75*
G02*
X93558000Y-81300000I308000J0D01*
G01*
X94742000Y-81300000D01*
G75*
G02*
X95050000Y-81608000I0J-308000D01*
G01*
G37*
%TD*%
%TO.C,D8*%
G36*
G01*
X100750000Y-81608000D02*
X100750000Y-82392000D01*
G75*
G02*
X100442000Y-82700000I-308000J0D01*
G01*
X99258000Y-82700000D01*
G75*
G02*
X98950000Y-82392000I0J308000D01*
G01*
X98950000Y-81608000D01*
G75*
G02*
X99258000Y-81300000I308000J0D01*
G01*
X100442000Y-81300000D01*
G75*
G02*
X100750000Y-81608000I0J-308000D01*
G01*
G37*
G36*
G01*
X103550000Y-81608000D02*
X103550000Y-82392000D01*
G75*
G02*
X103242000Y-82700000I-308000J0D01*
G01*
X102058000Y-82700000D01*
G75*
G02*
X101750000Y-82392000I0J308000D01*
G01*
X101750000Y-81608000D01*
G75*
G02*
X102058000Y-81300000I308000J0D01*
G01*
X103242000Y-81300000D01*
G75*
G02*
X103550000Y-81608000I0J-308000D01*
G01*
G37*
%TD*%
%TO.C,R14*%
G36*
G01*
X56950000Y-84000000D02*
X56950000Y-83500000D01*
G75*
G02*
X57200000Y-83250000I250000J0D01*
G01*
X58000000Y-83250000D01*
G75*
G02*
X58250000Y-83500000I0J-250000D01*
G01*
X58250000Y-84000000D01*
G75*
G02*
X58000000Y-84250000I-250000J0D01*
G01*
X57200000Y-84250000D01*
G75*
G02*
X56950000Y-84000000I0J250000D01*
G01*
G37*
G36*
G01*
X54750000Y-84000000D02*
X54750000Y-83500000D01*
G75*
G02*
X55000000Y-83250000I250000J0D01*
G01*
X55800000Y-83250000D01*
G75*
G02*
X56050000Y-83500000I0J-250000D01*
G01*
X56050000Y-84000000D01*
G75*
G02*
X55800000Y-84250000I-250000J0D01*
G01*
X55000000Y-84250000D01*
G75*
G02*
X54750000Y-84000000I0J250000D01*
G01*
G37*
%TD*%
%TO.C,D7*%
G36*
G01*
X58250000Y-81608000D02*
X58250000Y-82392000D01*
G75*
G02*
X57942000Y-82700000I-308000J0D01*
G01*
X56758000Y-82700000D01*
G75*
G02*
X56450000Y-82392000I0J308000D01*
G01*
X56450000Y-81608000D01*
G75*
G02*
X56758000Y-81300000I308000J0D01*
G01*
X57942000Y-81300000D01*
G75*
G02*
X58250000Y-81608000I0J-308000D01*
G01*
G37*
G36*
G01*
X61050000Y-81608000D02*
X61050000Y-82392000D01*
G75*
G02*
X60742000Y-82700000I-308000J0D01*
G01*
X59558000Y-82700000D01*
G75*
G02*
X59250000Y-82392000I0J308000D01*
G01*
X59250000Y-81608000D01*
G75*
G02*
X59558000Y-81300000I308000J0D01*
G01*
X60742000Y-81300000D01*
G75*
G02*
X61050000Y-81608000I0J-308000D01*
G01*
G37*
%TD*%
D10*
%TO.C,J2*%
X62300000Y-64100000D03*
D11*
X53300000Y-69950000D03*
X53300000Y-57050000D03*
%TD*%
%TO.C,R13*%
G36*
G01*
X63300000Y-55750000D02*
X63300000Y-56250000D01*
G75*
G02*
X63050000Y-56500000I-250000J0D01*
G01*
X62250000Y-56500000D01*
G75*
G02*
X62000000Y-56250000I0J250000D01*
G01*
X62000000Y-55750000D01*
G75*
G02*
X62250000Y-55500000I250000J0D01*
G01*
X63050000Y-55500000D01*
G75*
G02*
X63300000Y-55750000I0J-250000D01*
G01*
G37*
G36*
G01*
X65500000Y-55750000D02*
X65500000Y-56250000D01*
G75*
G02*
X65250000Y-56500000I-250000J0D01*
G01*
X64450000Y-56500000D01*
G75*
G02*
X64200000Y-56250000I0J250000D01*
G01*
X64200000Y-55750000D01*
G75*
G02*
X64450000Y-55500000I250000J0D01*
G01*
X65250000Y-55500000D01*
G75*
G02*
X65500000Y-55750000I0J-250000D01*
G01*
G37*
%TD*%
%TO.C,C11*%
G36*
G01*
X59950000Y-56250000D02*
X59950000Y-55750000D01*
G75*
G02*
X60200000Y-55500000I250000J0D01*
G01*
X61000000Y-55500000D01*
G75*
G02*
X61250000Y-55750000I0J-250000D01*
G01*
X61250000Y-56250000D01*
G75*
G02*
X61000000Y-56500000I-250000J0D01*
G01*
X60200000Y-56500000D01*
G75*
G02*
X59950000Y-56250000I0J250000D01*
G01*
G37*
G36*
G01*
X57750000Y-56250000D02*
X57750000Y-55750000D01*
G75*
G02*
X58000000Y-55500000I250000J0D01*
G01*
X58800000Y-55500000D01*
G75*
G02*
X59050000Y-55750000I0J-250000D01*
G01*
X59050000Y-56250000D01*
G75*
G02*
X58800000Y-56500000I-250000J0D01*
G01*
X58000000Y-56500000D01*
G75*
G02*
X57750000Y-56250000I0J250000D01*
G01*
G37*
%TD*%
%TO.C,R12*%
G36*
G01*
X56050000Y-86500000D02*
X56050000Y-87000000D01*
G75*
G02*
X55800000Y-87250000I-250000J0D01*
G01*
X55000000Y-87250000D01*
G75*
G02*
X54750000Y-87000000I0J250000D01*
G01*
X54750000Y-86500000D01*
G75*
G02*
X55000000Y-86250000I250000J0D01*
G01*
X55800000Y-86250000D01*
G75*
G02*
X56050000Y-86500000I0J-250000D01*
G01*
G37*
G36*
G01*
X58250000Y-86500000D02*
X58250000Y-87000000D01*
G75*
G02*
X58000000Y-87250000I-250000J0D01*
G01*
X57200000Y-87250000D01*
G75*
G02*
X56950000Y-87000000I0J250000D01*
G01*
X56950000Y-86500000D01*
G75*
G02*
X57200000Y-86250000I250000J0D01*
G01*
X58000000Y-86250000D01*
G75*
G02*
X58250000Y-86500000I0J-250000D01*
G01*
G37*
%TD*%
%TO.C,R11*%
G36*
G01*
X56050000Y-85000000D02*
X56050000Y-85500000D01*
G75*
G02*
X55800000Y-85750000I-250000J0D01*
G01*
X55000000Y-85750000D01*
G75*
G02*
X54750000Y-85500000I0J250000D01*
G01*
X54750000Y-85000000D01*
G75*
G02*
X55000000Y-84750000I250000J0D01*
G01*
X55800000Y-84750000D01*
G75*
G02*
X56050000Y-85000000I0J-250000D01*
G01*
G37*
G36*
G01*
X58250000Y-85000000D02*
X58250000Y-85500000D01*
G75*
G02*
X58000000Y-85750000I-250000J0D01*
G01*
X57200000Y-85750000D01*
G75*
G02*
X56950000Y-85500000I0J250000D01*
G01*
X56950000Y-85000000D01*
G75*
G02*
X57200000Y-84750000I250000J0D01*
G01*
X58000000Y-84750000D01*
G75*
G02*
X58250000Y-85000000I0J-250000D01*
G01*
G37*
%TD*%
D12*
%TO.C,Q6*%
X55290000Y-89250000D03*
X58710000Y-88300000D03*
X58710000Y-90200000D03*
%TD*%
%TO.C,D6*%
G36*
G01*
X56750000Y-93858000D02*
X56750000Y-94642000D01*
G75*
G02*
X56442000Y-94950000I-308000J0D01*
G01*
X55258000Y-94950000D01*
G75*
G02*
X54950000Y-94642000I0J308000D01*
G01*
X54950000Y-93858000D01*
G75*
G02*
X55258000Y-93550000I308000J0D01*
G01*
X56442000Y-93550000D01*
G75*
G02*
X56750000Y-93858000I0J-308000D01*
G01*
G37*
G36*
G01*
X59550000Y-93858000D02*
X59550000Y-94642000D01*
G75*
G02*
X59242000Y-94950000I-308000J0D01*
G01*
X58058000Y-94950000D01*
G75*
G02*
X57750000Y-94642000I0J308000D01*
G01*
X57750000Y-93858000D01*
G75*
G02*
X58058000Y-93550000I308000J0D01*
G01*
X59242000Y-93550000D01*
G75*
G02*
X59550000Y-93858000I0J-308000D01*
G01*
G37*
%TD*%
%TO.C,C10*%
G36*
G01*
X56475000Y-91475000D02*
X56475000Y-92725000D01*
G75*
G02*
X56225000Y-92975000I-250000J0D01*
G01*
X55300000Y-92975000D01*
G75*
G02*
X55050000Y-92725000I0J250000D01*
G01*
X55050000Y-91475000D01*
G75*
G02*
X55300000Y-91225000I250000J0D01*
G01*
X56225000Y-91225000D01*
G75*
G02*
X56475000Y-91475000I0J-250000D01*
G01*
G37*
G36*
G01*
X59450000Y-91475000D02*
X59450000Y-92725000D01*
G75*
G02*
X59200000Y-92975000I-250000J0D01*
G01*
X58275000Y-92975000D01*
G75*
G02*
X58025000Y-92725000I0J250000D01*
G01*
X58025000Y-91475000D01*
G75*
G02*
X58275000Y-91225000I250000J0D01*
G01*
X59200000Y-91225000D01*
G75*
G02*
X59450000Y-91475000I0J-250000D01*
G01*
G37*
%TD*%
%TO.C,C3*%
G36*
G01*
X91450000Y-56750000D02*
X91450000Y-56250000D01*
G75*
G02*
X91700000Y-56000000I250000J0D01*
G01*
X92500000Y-56000000D01*
G75*
G02*
X92750000Y-56250000I0J-250000D01*
G01*
X92750000Y-56750000D01*
G75*
G02*
X92500000Y-57000000I-250000J0D01*
G01*
X91700000Y-57000000D01*
G75*
G02*
X91450000Y-56750000I0J250000D01*
G01*
G37*
G36*
G01*
X89250000Y-56750000D02*
X89250000Y-56250000D01*
G75*
G02*
X89500000Y-56000000I250000J0D01*
G01*
X90300000Y-56000000D01*
G75*
G02*
X90550000Y-56250000I0J-250000D01*
G01*
X90550000Y-56750000D01*
G75*
G02*
X90300000Y-57000000I-250000J0D01*
G01*
X89500000Y-57000000D01*
G75*
G02*
X89250000Y-56750000I0J250000D01*
G01*
G37*
%TD*%
%TO.C,C2*%
G36*
G01*
X91450000Y-58500000D02*
X91450000Y-58000000D01*
G75*
G02*
X91700000Y-57750000I250000J0D01*
G01*
X92500000Y-57750000D01*
G75*
G02*
X92750000Y-58000000I0J-250000D01*
G01*
X92750000Y-58500000D01*
G75*
G02*
X92500000Y-58750000I-250000J0D01*
G01*
X91700000Y-58750000D01*
G75*
G02*
X91450000Y-58500000I0J250000D01*
G01*
G37*
G36*
G01*
X89250000Y-58500000D02*
X89250000Y-58000000D01*
G75*
G02*
X89500000Y-57750000I250000J0D01*
G01*
X90300000Y-57750000D01*
G75*
G02*
X90550000Y-58000000I0J-250000D01*
G01*
X90550000Y-58500000D01*
G75*
G02*
X90300000Y-58750000I-250000J0D01*
G01*
X89500000Y-58750000D01*
G75*
G02*
X89250000Y-58500000I0J250000D01*
G01*
G37*
%TD*%
%TO.C,R10*%
G36*
G01*
X64550000Y-86500000D02*
X64550000Y-87000000D01*
G75*
G02*
X64300000Y-87250000I-250000J0D01*
G01*
X63500000Y-87250000D01*
G75*
G02*
X63250000Y-87000000I0J250000D01*
G01*
X63250000Y-86500000D01*
G75*
G02*
X63500000Y-86250000I250000J0D01*
G01*
X64300000Y-86250000D01*
G75*
G02*
X64550000Y-86500000I0J-250000D01*
G01*
G37*
G36*
G01*
X66750000Y-86500000D02*
X66750000Y-87000000D01*
G75*
G02*
X66500000Y-87250000I-250000J0D01*
G01*
X65700000Y-87250000D01*
G75*
G02*
X65450000Y-87000000I0J250000D01*
G01*
X65450000Y-86500000D01*
G75*
G02*
X65700000Y-86250000I250000J0D01*
G01*
X66500000Y-86250000D01*
G75*
G02*
X66750000Y-86500000I0J-250000D01*
G01*
G37*
%TD*%
%TO.C,R9*%
G36*
G01*
X73050000Y-86500000D02*
X73050000Y-87000000D01*
G75*
G02*
X72800000Y-87250000I-250000J0D01*
G01*
X72000000Y-87250000D01*
G75*
G02*
X71750000Y-87000000I0J250000D01*
G01*
X71750000Y-86500000D01*
G75*
G02*
X72000000Y-86250000I250000J0D01*
G01*
X72800000Y-86250000D01*
G75*
G02*
X73050000Y-86500000I0J-250000D01*
G01*
G37*
G36*
G01*
X75250000Y-86500000D02*
X75250000Y-87000000D01*
G75*
G02*
X75000000Y-87250000I-250000J0D01*
G01*
X74200000Y-87250000D01*
G75*
G02*
X73950000Y-87000000I0J250000D01*
G01*
X73950000Y-86500000D01*
G75*
G02*
X74200000Y-86250000I250000J0D01*
G01*
X75000000Y-86250000D01*
G75*
G02*
X75250000Y-86500000I0J-250000D01*
G01*
G37*
%TD*%
%TO.C,R8*%
G36*
G01*
X81550000Y-86500000D02*
X81550000Y-87000000D01*
G75*
G02*
X81300000Y-87250000I-250000J0D01*
G01*
X80500000Y-87250000D01*
G75*
G02*
X80250000Y-87000000I0J250000D01*
G01*
X80250000Y-86500000D01*
G75*
G02*
X80500000Y-86250000I250000J0D01*
G01*
X81300000Y-86250000D01*
G75*
G02*
X81550000Y-86500000I0J-250000D01*
G01*
G37*
G36*
G01*
X83750000Y-86500000D02*
X83750000Y-87000000D01*
G75*
G02*
X83500000Y-87250000I-250000J0D01*
G01*
X82700000Y-87250000D01*
G75*
G02*
X82450000Y-87000000I0J250000D01*
G01*
X82450000Y-86500000D01*
G75*
G02*
X82700000Y-86250000I250000J0D01*
G01*
X83500000Y-86250000D01*
G75*
G02*
X83750000Y-86500000I0J-250000D01*
G01*
G37*
%TD*%
%TO.C,R7*%
G36*
G01*
X64550000Y-85000000D02*
X64550000Y-85500000D01*
G75*
G02*
X64300000Y-85750000I-250000J0D01*
G01*
X63500000Y-85750000D01*
G75*
G02*
X63250000Y-85500000I0J250000D01*
G01*
X63250000Y-85000000D01*
G75*
G02*
X63500000Y-84750000I250000J0D01*
G01*
X64300000Y-84750000D01*
G75*
G02*
X64550000Y-85000000I0J-250000D01*
G01*
G37*
G36*
G01*
X66750000Y-85000000D02*
X66750000Y-85500000D01*
G75*
G02*
X66500000Y-85750000I-250000J0D01*
G01*
X65700000Y-85750000D01*
G75*
G02*
X65450000Y-85500000I0J250000D01*
G01*
X65450000Y-85000000D01*
G75*
G02*
X65700000Y-84750000I250000J0D01*
G01*
X66500000Y-84750000D01*
G75*
G02*
X66750000Y-85000000I0J-250000D01*
G01*
G37*
%TD*%
%TO.C,R6*%
G36*
G01*
X73050000Y-85000000D02*
X73050000Y-85500000D01*
G75*
G02*
X72800000Y-85750000I-250000J0D01*
G01*
X72000000Y-85750000D01*
G75*
G02*
X71750000Y-85500000I0J250000D01*
G01*
X71750000Y-85000000D01*
G75*
G02*
X72000000Y-84750000I250000J0D01*
G01*
X72800000Y-84750000D01*
G75*
G02*
X73050000Y-85000000I0J-250000D01*
G01*
G37*
G36*
G01*
X75250000Y-85000000D02*
X75250000Y-85500000D01*
G75*
G02*
X75000000Y-85750000I-250000J0D01*
G01*
X74200000Y-85750000D01*
G75*
G02*
X73950000Y-85500000I0J250000D01*
G01*
X73950000Y-85000000D01*
G75*
G02*
X74200000Y-84750000I250000J0D01*
G01*
X75000000Y-84750000D01*
G75*
G02*
X75250000Y-85000000I0J-250000D01*
G01*
G37*
%TD*%
%TO.C,R5*%
G36*
G01*
X81550000Y-85000000D02*
X81550000Y-85500000D01*
G75*
G02*
X81300000Y-85750000I-250000J0D01*
G01*
X80500000Y-85750000D01*
G75*
G02*
X80250000Y-85500000I0J250000D01*
G01*
X80250000Y-85000000D01*
G75*
G02*
X80500000Y-84750000I250000J0D01*
G01*
X81300000Y-84750000D01*
G75*
G02*
X81550000Y-85000000I0J-250000D01*
G01*
G37*
G36*
G01*
X83750000Y-85000000D02*
X83750000Y-85500000D01*
G75*
G02*
X83500000Y-85750000I-250000J0D01*
G01*
X82700000Y-85750000D01*
G75*
G02*
X82450000Y-85500000I0J250000D01*
G01*
X82450000Y-85000000D01*
G75*
G02*
X82700000Y-84750000I250000J0D01*
G01*
X83500000Y-84750000D01*
G75*
G02*
X83750000Y-85000000I0J-250000D01*
G01*
G37*
%TD*%
%TO.C,R4*%
G36*
G01*
X90050000Y-86500000D02*
X90050000Y-87000000D01*
G75*
G02*
X89800000Y-87250000I-250000J0D01*
G01*
X89000000Y-87250000D01*
G75*
G02*
X88750000Y-87000000I0J250000D01*
G01*
X88750000Y-86500000D01*
G75*
G02*
X89000000Y-86250000I250000J0D01*
G01*
X89800000Y-86250000D01*
G75*
G02*
X90050000Y-86500000I0J-250000D01*
G01*
G37*
G36*
G01*
X92250000Y-86500000D02*
X92250000Y-87000000D01*
G75*
G02*
X92000000Y-87250000I-250000J0D01*
G01*
X91200000Y-87250000D01*
G75*
G02*
X90950000Y-87000000I0J250000D01*
G01*
X90950000Y-86500000D01*
G75*
G02*
X91200000Y-86250000I250000J0D01*
G01*
X92000000Y-86250000D01*
G75*
G02*
X92250000Y-86500000I0J-250000D01*
G01*
G37*
%TD*%
%TO.C,R3*%
G36*
G01*
X98550000Y-86500000D02*
X98550000Y-87000000D01*
G75*
G02*
X98300000Y-87250000I-250000J0D01*
G01*
X97500000Y-87250000D01*
G75*
G02*
X97250000Y-87000000I0J250000D01*
G01*
X97250000Y-86500000D01*
G75*
G02*
X97500000Y-86250000I250000J0D01*
G01*
X98300000Y-86250000D01*
G75*
G02*
X98550000Y-86500000I0J-250000D01*
G01*
G37*
G36*
G01*
X100750000Y-86500000D02*
X100750000Y-87000000D01*
G75*
G02*
X100500000Y-87250000I-250000J0D01*
G01*
X99700000Y-87250000D01*
G75*
G02*
X99450000Y-87000000I0J250000D01*
G01*
X99450000Y-86500000D01*
G75*
G02*
X99700000Y-86250000I250000J0D01*
G01*
X100500000Y-86250000D01*
G75*
G02*
X100750000Y-86500000I0J-250000D01*
G01*
G37*
%TD*%
%TO.C,R2*%
G36*
G01*
X90050000Y-85000000D02*
X90050000Y-85500000D01*
G75*
G02*
X89800000Y-85750000I-250000J0D01*
G01*
X89000000Y-85750000D01*
G75*
G02*
X88750000Y-85500000I0J250000D01*
G01*
X88750000Y-85000000D01*
G75*
G02*
X89000000Y-84750000I250000J0D01*
G01*
X89800000Y-84750000D01*
G75*
G02*
X90050000Y-85000000I0J-250000D01*
G01*
G37*
G36*
G01*
X92250000Y-85000000D02*
X92250000Y-85500000D01*
G75*
G02*
X92000000Y-85750000I-250000J0D01*
G01*
X91200000Y-85750000D01*
G75*
G02*
X90950000Y-85500000I0J250000D01*
G01*
X90950000Y-85000000D01*
G75*
G02*
X91200000Y-84750000I250000J0D01*
G01*
X92000000Y-84750000D01*
G75*
G02*
X92250000Y-85000000I0J-250000D01*
G01*
G37*
%TD*%
%TO.C,R1*%
G36*
G01*
X98550000Y-85000000D02*
X98550000Y-85500000D01*
G75*
G02*
X98300000Y-85750000I-250000J0D01*
G01*
X97500000Y-85750000D01*
G75*
G02*
X97250000Y-85500000I0J250000D01*
G01*
X97250000Y-85000000D01*
G75*
G02*
X97500000Y-84750000I250000J0D01*
G01*
X98300000Y-84750000D01*
G75*
G02*
X98550000Y-85000000I0J-250000D01*
G01*
G37*
G36*
G01*
X100750000Y-85000000D02*
X100750000Y-85500000D01*
G75*
G02*
X100500000Y-85750000I-250000J0D01*
G01*
X99700000Y-85750000D01*
G75*
G02*
X99450000Y-85500000I0J250000D01*
G01*
X99450000Y-85000000D01*
G75*
G02*
X99700000Y-84750000I250000J0D01*
G01*
X100500000Y-84750000D01*
G75*
G02*
X100750000Y-85000000I0J-250000D01*
G01*
G37*
%TD*%
%TO.C,Q5*%
X63790000Y-89250000D03*
X67210000Y-88300000D03*
X67210000Y-90200000D03*
%TD*%
%TO.C,Q4*%
X72290000Y-89250000D03*
X75710000Y-88300000D03*
X75710000Y-90200000D03*
%TD*%
%TO.C,Q3*%
X80790000Y-89250000D03*
X84210000Y-88300000D03*
X84210000Y-90200000D03*
%TD*%
%TO.C,Q2*%
X89290000Y-89250000D03*
X92710000Y-88300000D03*
X92710000Y-90200000D03*
%TD*%
%TO.C,Q1*%
X97790000Y-89250000D03*
X101210000Y-88300000D03*
X101210000Y-90200000D03*
%TD*%
%TO.C,MOD1*%
G36*
G01*
X104450000Y-70605000D02*
X104450000Y-69325000D01*
G75*
G02*
X104810000Y-68965000I360000J0D01*
G01*
X104990000Y-68965000D01*
G75*
G02*
X105350000Y-69325000I0J-360000D01*
G01*
X105350000Y-70605000D01*
G75*
G02*
X104990000Y-70965000I-360000J0D01*
G01*
X104810000Y-70965000D01*
G75*
G02*
X104450000Y-70605000I0J360000D01*
G01*
G37*
G36*
G01*
X92256000Y-68245000D02*
X94036000Y-68245000D01*
G75*
G02*
X94396000Y-68605000I0J-360000D01*
G01*
X94396000Y-68785000D01*
G75*
G02*
X94036000Y-69145000I-360000J0D01*
G01*
X92256000Y-69145000D01*
G75*
G02*
X91896000Y-68785000I0J360000D01*
G01*
X91896000Y-68605000D01*
G75*
G02*
X92256000Y-68245000I360000J0D01*
G01*
G37*
G36*
G01*
X92256000Y-66975000D02*
X94036000Y-66975000D01*
G75*
G02*
X94396000Y-67335000I0J-360000D01*
G01*
X94396000Y-67515000D01*
G75*
G02*
X94036000Y-67875000I-360000J0D01*
G01*
X92256000Y-67875000D01*
G75*
G02*
X91896000Y-67515000I0J360000D01*
G01*
X91896000Y-67335000D01*
G75*
G02*
X92256000Y-66975000I360000J0D01*
G01*
G37*
G36*
G01*
X92256000Y-65705000D02*
X94036000Y-65705000D01*
G75*
G02*
X94396000Y-66065000I0J-360000D01*
G01*
X94396000Y-66245000D01*
G75*
G02*
X94036000Y-66605000I-360000J0D01*
G01*
X92256000Y-66605000D01*
G75*
G02*
X91896000Y-66245000I0J360000D01*
G01*
X91896000Y-66065000D01*
G75*
G02*
X92256000Y-65705000I360000J0D01*
G01*
G37*
G36*
G01*
X92256000Y-64435000D02*
X94036000Y-64435000D01*
G75*
G02*
X94396000Y-64795000I0J-360000D01*
G01*
X94396000Y-64975000D01*
G75*
G02*
X94036000Y-65335000I-360000J0D01*
G01*
X92256000Y-65335000D01*
G75*
G02*
X91896000Y-64975000I0J360000D01*
G01*
X91896000Y-64795000D01*
G75*
G02*
X92256000Y-64435000I360000J0D01*
G01*
G37*
G36*
G01*
X92256000Y-63165000D02*
X94036000Y-63165000D01*
G75*
G02*
X94396000Y-63525000I0J-360000D01*
G01*
X94396000Y-63705000D01*
G75*
G02*
X94036000Y-64065000I-360000J0D01*
G01*
X92256000Y-64065000D01*
G75*
G02*
X91896000Y-63705000I0J360000D01*
G01*
X91896000Y-63525000D01*
G75*
G02*
X92256000Y-63165000I360000J0D01*
G01*
G37*
G36*
G01*
X92256000Y-61895000D02*
X94036000Y-61895000D01*
G75*
G02*
X94396000Y-62255000I0J-360000D01*
G01*
X94396000Y-62435000D01*
G75*
G02*
X94036000Y-62795000I-360000J0D01*
G01*
X92256000Y-62795000D01*
G75*
G02*
X91896000Y-62435000I0J360000D01*
G01*
X91896000Y-62255000D01*
G75*
G02*
X92256000Y-61895000I360000J0D01*
G01*
G37*
G36*
G01*
X92256000Y-60625000D02*
X94036000Y-60625000D01*
G75*
G02*
X94396000Y-60985000I0J-360000D01*
G01*
X94396000Y-61165000D01*
G75*
G02*
X94036000Y-61525000I-360000J0D01*
G01*
X92256000Y-61525000D01*
G75*
G02*
X91896000Y-61165000I0J360000D01*
G01*
X91896000Y-60985000D01*
G75*
G02*
X92256000Y-60625000I360000J0D01*
G01*
G37*
G36*
G01*
X92256000Y-59355000D02*
X94036000Y-59355000D01*
G75*
G02*
X94396000Y-59715000I0J-360000D01*
G01*
X94396000Y-59895000D01*
G75*
G02*
X94036000Y-60255000I-360000J0D01*
G01*
X92256000Y-60255000D01*
G75*
G02*
X91896000Y-59895000I0J360000D01*
G01*
X91896000Y-59715000D01*
G75*
G02*
X92256000Y-59355000I360000J0D01*
G01*
G37*
%TD*%
%TO.C,D5*%
G36*
G01*
X65250000Y-93858000D02*
X65250000Y-94642000D01*
G75*
G02*
X64942000Y-94950000I-308000J0D01*
G01*
X63758000Y-94950000D01*
G75*
G02*
X63450000Y-94642000I0J308000D01*
G01*
X63450000Y-93858000D01*
G75*
G02*
X63758000Y-93550000I308000J0D01*
G01*
X64942000Y-93550000D01*
G75*
G02*
X65250000Y-93858000I0J-308000D01*
G01*
G37*
G36*
G01*
X68050000Y-93858000D02*
X68050000Y-94642000D01*
G75*
G02*
X67742000Y-94950000I-308000J0D01*
G01*
X66558000Y-94950000D01*
G75*
G02*
X66250000Y-94642000I0J308000D01*
G01*
X66250000Y-93858000D01*
G75*
G02*
X66558000Y-93550000I308000J0D01*
G01*
X67742000Y-93550000D01*
G75*
G02*
X68050000Y-93858000I0J-308000D01*
G01*
G37*
%TD*%
%TO.C,D4*%
G36*
G01*
X73750000Y-93858000D02*
X73750000Y-94642000D01*
G75*
G02*
X73442000Y-94950000I-308000J0D01*
G01*
X72258000Y-94950000D01*
G75*
G02*
X71950000Y-94642000I0J308000D01*
G01*
X71950000Y-93858000D01*
G75*
G02*
X72258000Y-93550000I308000J0D01*
G01*
X73442000Y-93550000D01*
G75*
G02*
X73750000Y-93858000I0J-308000D01*
G01*
G37*
G36*
G01*
X76550000Y-93858000D02*
X76550000Y-94642000D01*
G75*
G02*
X76242000Y-94950000I-308000J0D01*
G01*
X75058000Y-94950000D01*
G75*
G02*
X74750000Y-94642000I0J308000D01*
G01*
X74750000Y-93858000D01*
G75*
G02*
X75058000Y-93550000I308000J0D01*
G01*
X76242000Y-93550000D01*
G75*
G02*
X76550000Y-93858000I0J-308000D01*
G01*
G37*
%TD*%
%TO.C,D3*%
G36*
G01*
X82250000Y-93858000D02*
X82250000Y-94642000D01*
G75*
G02*
X81942000Y-94950000I-308000J0D01*
G01*
X80758000Y-94950000D01*
G75*
G02*
X80450000Y-94642000I0J308000D01*
G01*
X80450000Y-93858000D01*
G75*
G02*
X80758000Y-93550000I308000J0D01*
G01*
X81942000Y-93550000D01*
G75*
G02*
X82250000Y-93858000I0J-308000D01*
G01*
G37*
G36*
G01*
X85050000Y-93858000D02*
X85050000Y-94642000D01*
G75*
G02*
X84742000Y-94950000I-308000J0D01*
G01*
X83558000Y-94950000D01*
G75*
G02*
X83250000Y-94642000I0J308000D01*
G01*
X83250000Y-93858000D01*
G75*
G02*
X83558000Y-93550000I308000J0D01*
G01*
X84742000Y-93550000D01*
G75*
G02*
X85050000Y-93858000I0J-308000D01*
G01*
G37*
%TD*%
%TO.C,D2*%
G36*
G01*
X90750000Y-93858000D02*
X90750000Y-94642000D01*
G75*
G02*
X90442000Y-94950000I-308000J0D01*
G01*
X89258000Y-94950000D01*
G75*
G02*
X88950000Y-94642000I0J308000D01*
G01*
X88950000Y-93858000D01*
G75*
G02*
X89258000Y-93550000I308000J0D01*
G01*
X90442000Y-93550000D01*
G75*
G02*
X90750000Y-93858000I0J-308000D01*
G01*
G37*
G36*
G01*
X93550000Y-93858000D02*
X93550000Y-94642000D01*
G75*
G02*
X93242000Y-94950000I-308000J0D01*
G01*
X92058000Y-94950000D01*
G75*
G02*
X91750000Y-94642000I0J308000D01*
G01*
X91750000Y-93858000D01*
G75*
G02*
X92058000Y-93550000I308000J0D01*
G01*
X93242000Y-93550000D01*
G75*
G02*
X93550000Y-93858000I0J-308000D01*
G01*
G37*
%TD*%
%TO.C,D1*%
G36*
G01*
X99250000Y-93858000D02*
X99250000Y-94642000D01*
G75*
G02*
X98942000Y-94950000I-308000J0D01*
G01*
X97758000Y-94950000D01*
G75*
G02*
X97450000Y-94642000I0J308000D01*
G01*
X97450000Y-93858000D01*
G75*
G02*
X97758000Y-93550000I308000J0D01*
G01*
X98942000Y-93550000D01*
G75*
G02*
X99250000Y-93858000I0J-308000D01*
G01*
G37*
G36*
G01*
X102050000Y-93858000D02*
X102050000Y-94642000D01*
G75*
G02*
X101742000Y-94950000I-308000J0D01*
G01*
X100558000Y-94950000D01*
G75*
G02*
X100250000Y-94642000I0J308000D01*
G01*
X100250000Y-93858000D01*
G75*
G02*
X100558000Y-93550000I308000J0D01*
G01*
X101742000Y-93550000D01*
G75*
G02*
X102050000Y-93858000I0J-308000D01*
G01*
G37*
%TD*%
%TO.C,C9*%
G36*
G01*
X64975000Y-91475000D02*
X64975000Y-92725000D01*
G75*
G02*
X64725000Y-92975000I-250000J0D01*
G01*
X63800000Y-92975000D01*
G75*
G02*
X63550000Y-92725000I0J250000D01*
G01*
X63550000Y-91475000D01*
G75*
G02*
X63800000Y-91225000I250000J0D01*
G01*
X64725000Y-91225000D01*
G75*
G02*
X64975000Y-91475000I0J-250000D01*
G01*
G37*
G36*
G01*
X67950000Y-91475000D02*
X67950000Y-92725000D01*
G75*
G02*
X67700000Y-92975000I-250000J0D01*
G01*
X66775000Y-92975000D01*
G75*
G02*
X66525000Y-92725000I0J250000D01*
G01*
X66525000Y-91475000D01*
G75*
G02*
X66775000Y-91225000I250000J0D01*
G01*
X67700000Y-91225000D01*
G75*
G02*
X67950000Y-91475000I0J-250000D01*
G01*
G37*
%TD*%
%TO.C,C8*%
G36*
G01*
X73475000Y-91475000D02*
X73475000Y-92725000D01*
G75*
G02*
X73225000Y-92975000I-250000J0D01*
G01*
X72300000Y-92975000D01*
G75*
G02*
X72050000Y-92725000I0J250000D01*
G01*
X72050000Y-91475000D01*
G75*
G02*
X72300000Y-91225000I250000J0D01*
G01*
X73225000Y-91225000D01*
G75*
G02*
X73475000Y-91475000I0J-250000D01*
G01*
G37*
G36*
G01*
X76450000Y-91475000D02*
X76450000Y-92725000D01*
G75*
G02*
X76200000Y-92975000I-250000J0D01*
G01*
X75275000Y-92975000D01*
G75*
G02*
X75025000Y-92725000I0J250000D01*
G01*
X75025000Y-91475000D01*
G75*
G02*
X75275000Y-91225000I250000J0D01*
G01*
X76200000Y-91225000D01*
G75*
G02*
X76450000Y-91475000I0J-250000D01*
G01*
G37*
%TD*%
%TO.C,C7*%
G36*
G01*
X81975000Y-91475000D02*
X81975000Y-92725000D01*
G75*
G02*
X81725000Y-92975000I-250000J0D01*
G01*
X80800000Y-92975000D01*
G75*
G02*
X80550000Y-92725000I0J250000D01*
G01*
X80550000Y-91475000D01*
G75*
G02*
X80800000Y-91225000I250000J0D01*
G01*
X81725000Y-91225000D01*
G75*
G02*
X81975000Y-91475000I0J-250000D01*
G01*
G37*
G36*
G01*
X84950000Y-91475000D02*
X84950000Y-92725000D01*
G75*
G02*
X84700000Y-92975000I-250000J0D01*
G01*
X83775000Y-92975000D01*
G75*
G02*
X83525000Y-92725000I0J250000D01*
G01*
X83525000Y-91475000D01*
G75*
G02*
X83775000Y-91225000I250000J0D01*
G01*
X84700000Y-91225000D01*
G75*
G02*
X84950000Y-91475000I0J-250000D01*
G01*
G37*
%TD*%
%TO.C,C6*%
G36*
G01*
X90475000Y-91475000D02*
X90475000Y-92725000D01*
G75*
G02*
X90225000Y-92975000I-250000J0D01*
G01*
X89300000Y-92975000D01*
G75*
G02*
X89050000Y-92725000I0J250000D01*
G01*
X89050000Y-91475000D01*
G75*
G02*
X89300000Y-91225000I250000J0D01*
G01*
X90225000Y-91225000D01*
G75*
G02*
X90475000Y-91475000I0J-250000D01*
G01*
G37*
G36*
G01*
X93450000Y-91475000D02*
X93450000Y-92725000D01*
G75*
G02*
X93200000Y-92975000I-250000J0D01*
G01*
X92275000Y-92975000D01*
G75*
G02*
X92025000Y-92725000I0J250000D01*
G01*
X92025000Y-91475000D01*
G75*
G02*
X92275000Y-91225000I250000J0D01*
G01*
X93200000Y-91225000D01*
G75*
G02*
X93450000Y-91475000I0J-250000D01*
G01*
G37*
%TD*%
%TO.C,C5*%
G36*
G01*
X98975000Y-91475000D02*
X98975000Y-92725000D01*
G75*
G02*
X98725000Y-92975000I-250000J0D01*
G01*
X97800000Y-92975000D01*
G75*
G02*
X97550000Y-92725000I0J250000D01*
G01*
X97550000Y-91475000D01*
G75*
G02*
X97800000Y-91225000I250000J0D01*
G01*
X98725000Y-91225000D01*
G75*
G02*
X98975000Y-91475000I0J-250000D01*
G01*
G37*
G36*
G01*
X101950000Y-91475000D02*
X101950000Y-92725000D01*
G75*
G02*
X101700000Y-92975000I-250000J0D01*
G01*
X100775000Y-92975000D01*
G75*
G02*
X100525000Y-92725000I0J250000D01*
G01*
X100525000Y-91475000D01*
G75*
G02*
X100775000Y-91225000I250000J0D01*
G01*
X101700000Y-91225000D01*
G75*
G02*
X101950000Y-91475000I0J-250000D01*
G01*
G37*
%TD*%
%TO.C,C4*%
G36*
G01*
X69775000Y-75125000D02*
X69775000Y-73875000D01*
G75*
G02*
X70025000Y-73625000I250000J0D01*
G01*
X70950000Y-73625000D01*
G75*
G02*
X71200000Y-73875000I0J-250000D01*
G01*
X71200000Y-75125000D01*
G75*
G02*
X70950000Y-75375000I-250000J0D01*
G01*
X70025000Y-75375000D01*
G75*
G02*
X69775000Y-75125000I0J250000D01*
G01*
G37*
G36*
G01*
X66800000Y-75125000D02*
X66800000Y-73875000D01*
G75*
G02*
X67050000Y-73625000I250000J0D01*
G01*
X67975000Y-73625000D01*
G75*
G02*
X68225000Y-73875000I0J-250000D01*
G01*
X68225000Y-75125000D01*
G75*
G02*
X67975000Y-75375000I-250000J0D01*
G01*
X67050000Y-75375000D01*
G75*
G02*
X66800000Y-75125000I0J250000D01*
G01*
G37*
%TD*%
%TO.C,C1*%
G36*
G01*
X59625000Y-69375000D02*
X59625000Y-70625000D01*
G75*
G02*
X59375000Y-70875000I-250000J0D01*
G01*
X58450000Y-70875000D01*
G75*
G02*
X58200000Y-70625000I0J250000D01*
G01*
X58200000Y-69375000D01*
G75*
G02*
X58450000Y-69125000I250000J0D01*
G01*
X59375000Y-69125000D01*
G75*
G02*
X59625000Y-69375000I0J-250000D01*
G01*
G37*
G36*
G01*
X62600000Y-69375000D02*
X62600000Y-70625000D01*
G75*
G02*
X62350000Y-70875000I-250000J0D01*
G01*
X61425000Y-70875000D01*
G75*
G02*
X61175000Y-70625000I0J250000D01*
G01*
X61175000Y-69375000D01*
G75*
G02*
X61425000Y-69125000I250000J0D01*
G01*
X62350000Y-69125000D01*
G75*
G02*
X62600000Y-69375000I0J-250000D01*
G01*
G37*
%TD*%
M02*
