%TF.GenerationSoftware,KiCad,Pcbnew,(5.1.6-0-10_14)*%
%TF.CreationDate,2020-07-28T14:29:37+02:00*%
%TF.ProjectId,WaterPlant Pi,57617465-7250-46c6-916e-742050692e6b,rev?*%
%TF.SameCoordinates,Original*%
%TF.FileFunction,Copper,L2,Bot*%
%TF.FilePolarity,Positive*%
%FSLAX46Y46*%
G04 Gerber Fmt 4.6, Leading zero omitted, Abs format (unit mm)*
G04 Created by KiCad (PCBNEW (5.1.6-0-10_14)) date 2020-07-28 14:29:37*
%MOMM*%
%LPD*%
G01*
G04 APERTURE LIST*
%TA.AperFunction,ComponentPad*%
%ADD10C,2.000000*%
%TD*%
%TA.AperFunction,ComponentPad*%
%ADD11C,1.700000*%
%TD*%
%TA.AperFunction,WasherPad*%
%ADD12C,3.500000*%
%TD*%
%TA.AperFunction,ComponentPad*%
%ADD13O,1.700000X1.700000*%
%TD*%
%TA.AperFunction,ComponentPad*%
%ADD14R,1.700000X1.700000*%
%TD*%
%TA.AperFunction,ViaPad*%
%ADD15C,0.800000*%
%TD*%
%TA.AperFunction,Conductor*%
%ADD16C,0.400000*%
%TD*%
%TA.AperFunction,Conductor*%
%ADD17C,2.700000*%
%TD*%
%TA.AperFunction,Conductor*%
%ADD18C,0.250000*%
%TD*%
%TA.AperFunction,Conductor*%
%ADD19C,0.200000*%
%TD*%
%TA.AperFunction,Conductor*%
%ADD20C,0.300000*%
%TD*%
G04 APERTURE END LIST*
D10*
%TO.P,J2,x*%
%TO.N,N/C*%
X49500000Y-63500000D03*
%TD*%
D11*
%TO.P,J9,2*%
%TO.N,Net-(J9-Pad2)*%
X53500000Y-77270000D03*
%TO.P,J9,1*%
%TO.N,GND*%
%TA.AperFunction,ComponentPad*%
G36*
G01*
X53075000Y-73880000D02*
X53925000Y-73880000D01*
G75*
G02*
X54350000Y-74305000I0J-425000D01*
G01*
X54350000Y-75155000D01*
G75*
G02*
X53925000Y-75580000I-425000J0D01*
G01*
X53075000Y-75580000D01*
G75*
G02*
X52650000Y-75155000I0J425000D01*
G01*
X52650000Y-74305000D01*
G75*
G02*
X53075000Y-73880000I425000J0D01*
G01*
G37*
%TD.AperFunction*%
%TD*%
%TO.P,U1,6*%
%TO.N,N/C*%
X70150000Y-61560000D03*
%TO.P,U1,5*%
X67610000Y-61560000D03*
%TO.P,U1,4*%
%TO.N,+12V*%
X67610000Y-64100000D03*
%TO.P,U1,3*%
%TO.N,GND*%
%TA.AperFunction,ComponentPad*%
G36*
G01*
X66760000Y-67065000D02*
X66760000Y-66215000D01*
G75*
G02*
X67185000Y-65790000I425000J0D01*
G01*
X68035000Y-65790000D01*
G75*
G02*
X68460000Y-66215000I0J-425000D01*
G01*
X68460000Y-67065000D01*
G75*
G02*
X68035000Y-67490000I-425000J0D01*
G01*
X67185000Y-67490000D01*
G75*
G02*
X66760000Y-67065000I0J425000D01*
G01*
G37*
%TD.AperFunction*%
%TO.P,U1,2*%
%TA.AperFunction,ComponentPad*%
G36*
G01*
X66760000Y-69605000D02*
X66760000Y-68755000D01*
G75*
G02*
X67185000Y-68330000I425000J0D01*
G01*
X68035000Y-68330000D01*
G75*
G02*
X68460000Y-68755000I0J-425000D01*
G01*
X68460000Y-69605000D01*
G75*
G02*
X68035000Y-70030000I-425000J0D01*
G01*
X67185000Y-70030000D01*
G75*
G02*
X66760000Y-69605000I0J425000D01*
G01*
G37*
%TD.AperFunction*%
%TO.P,U1,1*%
%TO.N,+5V*%
X67610000Y-71720000D03*
%TD*%
%TO.P,J8,2*%
%TO.N,+12V*%
X59020000Y-96500000D03*
%TO.P,J8,1*%
%TO.N,Net-(D6-Pad2)*%
%TA.AperFunction,ComponentPad*%
G36*
G01*
X55630000Y-96925000D02*
X55630000Y-96075000D01*
G75*
G02*
X56055000Y-95650000I425000J0D01*
G01*
X56905000Y-95650000D01*
G75*
G02*
X57330000Y-96075000I0J-425000D01*
G01*
X57330000Y-96925000D01*
G75*
G02*
X56905000Y-97350000I-425000J0D01*
G01*
X56055000Y-97350000D01*
G75*
G02*
X55630000Y-96925000I0J425000D01*
G01*
G37*
%TD.AperFunction*%
%TD*%
%TO.P,J7,2*%
%TO.N,+12V*%
X67520000Y-96500000D03*
%TO.P,J7,1*%
%TO.N,Net-(D5-Pad2)*%
%TA.AperFunction,ComponentPad*%
G36*
G01*
X64130000Y-96925000D02*
X64130000Y-96075000D01*
G75*
G02*
X64555000Y-95650000I425000J0D01*
G01*
X65405000Y-95650000D01*
G75*
G02*
X65830000Y-96075000I0J-425000D01*
G01*
X65830000Y-96925000D01*
G75*
G02*
X65405000Y-97350000I-425000J0D01*
G01*
X64555000Y-97350000D01*
G75*
G02*
X64130000Y-96925000I0J425000D01*
G01*
G37*
%TD.AperFunction*%
%TD*%
%TO.P,J6,2*%
%TO.N,+12V*%
X76020000Y-96500000D03*
%TO.P,J6,1*%
%TO.N,Net-(D4-Pad2)*%
%TA.AperFunction,ComponentPad*%
G36*
G01*
X72630000Y-96925000D02*
X72630000Y-96075000D01*
G75*
G02*
X73055000Y-95650000I425000J0D01*
G01*
X73905000Y-95650000D01*
G75*
G02*
X74330000Y-96075000I0J-425000D01*
G01*
X74330000Y-96925000D01*
G75*
G02*
X73905000Y-97350000I-425000J0D01*
G01*
X73055000Y-97350000D01*
G75*
G02*
X72630000Y-96925000I0J425000D01*
G01*
G37*
%TD.AperFunction*%
%TD*%
%TO.P,J5,2*%
%TO.N,+12V*%
X84520000Y-96500000D03*
%TO.P,J5,1*%
%TO.N,Net-(D3-Pad2)*%
%TA.AperFunction,ComponentPad*%
G36*
G01*
X81130000Y-96925000D02*
X81130000Y-96075000D01*
G75*
G02*
X81555000Y-95650000I425000J0D01*
G01*
X82405000Y-95650000D01*
G75*
G02*
X82830000Y-96075000I0J-425000D01*
G01*
X82830000Y-96925000D01*
G75*
G02*
X82405000Y-97350000I-425000J0D01*
G01*
X81555000Y-97350000D01*
G75*
G02*
X81130000Y-96925000I0J425000D01*
G01*
G37*
%TD.AperFunction*%
%TD*%
%TO.P,J4,2*%
%TO.N,+12V*%
X93020000Y-96500000D03*
%TO.P,J4,1*%
%TO.N,Net-(D2-Pad2)*%
%TA.AperFunction,ComponentPad*%
G36*
G01*
X89630000Y-96925000D02*
X89630000Y-96075000D01*
G75*
G02*
X90055000Y-95650000I425000J0D01*
G01*
X90905000Y-95650000D01*
G75*
G02*
X91330000Y-96075000I0J-425000D01*
G01*
X91330000Y-96925000D01*
G75*
G02*
X90905000Y-97350000I-425000J0D01*
G01*
X90055000Y-97350000D01*
G75*
G02*
X89630000Y-96925000I0J425000D01*
G01*
G37*
%TD.AperFunction*%
%TD*%
%TO.P,J3,2*%
%TO.N,+12V*%
X101520000Y-96500000D03*
%TO.P,J3,1*%
%TO.N,Net-(D1-Pad2)*%
%TA.AperFunction,ComponentPad*%
G36*
G01*
X98130000Y-96925000D02*
X98130000Y-96075000D01*
G75*
G02*
X98555000Y-95650000I425000J0D01*
G01*
X99405000Y-95650000D01*
G75*
G02*
X99830000Y-96075000I0J-425000D01*
G01*
X99830000Y-96925000D01*
G75*
G02*
X99405000Y-97350000I-425000J0D01*
G01*
X98555000Y-97350000D01*
G75*
G02*
X98130000Y-96925000I0J425000D01*
G01*
G37*
%TD.AperFunction*%
%TD*%
D12*
%TO.P,DR4,*%
%TO.N,*%
X108000000Y-100000000D03*
%TD*%
%TO.P,DR3,*%
%TO.N,*%
X108000000Y-51000000D03*
%TD*%
%TO.P,DR2,*%
%TO.N,*%
X50000000Y-100000000D03*
%TD*%
%TO.P,DR1,*%
%TO.N,*%
X50000000Y-51000000D03*
%TD*%
D13*
%TO.P,J1,40*%
%TO.N,GPIO_21_CH5*%
X103130000Y-49730000D03*
%TO.P,J1,39*%
%TO.N,GND*%
X103130000Y-52270000D03*
%TO.P,J1,38*%
%TO.N,GPIO_20_CH3*%
X100590000Y-49730000D03*
%TO.P,J1,37*%
%TO.N,GPIO_26_CH4*%
X100590000Y-52270000D03*
%TO.P,J1,36*%
%TO.N,GPIO_16_CH1*%
X98050000Y-49730000D03*
%TO.P,J1,35*%
%TO.N,GPIO_19_CH2*%
X98050000Y-52270000D03*
%TO.P,J1,34*%
%TO.N,GND*%
X95510000Y-49730000D03*
%TO.P,J1,33*%
%TO.N,N/C*%
X95510000Y-52270000D03*
%TO.P,J1,32*%
X92970000Y-49730000D03*
%TO.P,J1,31*%
%TO.N,GPIO_06_PUMP*%
X92970000Y-52270000D03*
%TO.P,J1,30*%
%TO.N,GND*%
X90430000Y-49730000D03*
%TO.P,J1,29*%
%TO.N,N/C*%
X90430000Y-52270000D03*
%TO.P,J1,28*%
X87890000Y-49730000D03*
%TO.P,J1,27*%
X87890000Y-52270000D03*
%TO.P,J1,26*%
X85350000Y-49730000D03*
%TO.P,J1,25*%
%TO.N,GND*%
X85350000Y-52270000D03*
%TO.P,J1,24*%
%TO.N,GPIO_08_CSN*%
X82810000Y-49730000D03*
%TO.P,J1,23*%
%TO.N,GPIO_11_SCK*%
X82810000Y-52270000D03*
%TO.P,J1,22*%
%TO.N,N/C*%
X80270000Y-49730000D03*
%TO.P,J1,21*%
%TO.N,GPIO_09_MISO*%
X80270000Y-52270000D03*
%TO.P,J1,20*%
%TO.N,GND*%
X77730000Y-49730000D03*
%TO.P,J1,19*%
%TO.N,GPIO_10_MOSI*%
X77730000Y-52270000D03*
%TO.P,J1,18*%
%TO.N,N/C*%
X75190000Y-49730000D03*
%TO.P,J1,17*%
%TO.N,+3V3*%
X75190000Y-52270000D03*
%TO.P,J1,16*%
%TO.N,N/C*%
X72650000Y-49730000D03*
%TO.P,J1,15*%
%TO.N,GPIO_22_CE*%
X72650000Y-52270000D03*
%TO.P,J1,14*%
%TO.N,GND*%
X70110000Y-49730000D03*
%TO.P,J1,13*%
%TO.N,N/C*%
X70110000Y-52270000D03*
%TO.P,J1,12*%
X67570000Y-49730000D03*
%TO.P,J1,11*%
%TO.N,GPIO_17_IRQ*%
X67570000Y-52270000D03*
%TO.P,J1,10*%
%TO.N,N/C*%
X65030000Y-49730000D03*
%TO.P,J1,9*%
%TO.N,GND*%
X65030000Y-52270000D03*
%TO.P,J1,8*%
%TO.N,GPIO_14_WATER*%
X62490000Y-49730000D03*
%TO.P,J1,7*%
%TO.N,N/C*%
X62490000Y-52270000D03*
%TO.P,J1,6*%
%TO.N,GND*%
X59950000Y-49730000D03*
%TO.P,J1,5*%
%TO.N,N/C*%
X59950000Y-52270000D03*
%TO.P,J1,4*%
%TO.N,+5V*%
X57410000Y-49730000D03*
%TO.P,J1,3*%
%TO.N,N/C*%
X57410000Y-52270000D03*
%TO.P,J1,2*%
%TO.N,+5V*%
X54870000Y-49730000D03*
D14*
%TO.P,J1,1*%
%TO.N,+3V3*%
X54870000Y-52270000D03*
%TD*%
D15*
%TO.N,GND*%
X53000000Y-88250000D03*
X60250000Y-88000000D03*
X61250000Y-88000000D03*
X70500000Y-65500000D03*
X69250000Y-65500000D03*
X65500000Y-66500000D03*
X65500000Y-68500000D03*
X65500000Y-70500000D03*
X70000000Y-68000000D03*
X106000000Y-72000000D03*
X49500000Y-56500000D03*
X49500000Y-58000000D03*
X49500000Y-69000000D03*
X49500000Y-70500000D03*
X50500000Y-60000000D03*
X50500000Y-67000000D03*
X52000000Y-60000000D03*
X53500000Y-60000000D03*
X55000000Y-60000000D03*
X52000000Y-67000000D03*
X53500000Y-67000000D03*
X55000000Y-67000000D03*
X56500000Y-60000000D03*
X56500000Y-67000000D03*
X57250000Y-69000000D03*
X57250000Y-58000000D03*
X80750000Y-56500000D03*
X80750000Y-58250000D03*
X79000000Y-56500000D03*
X56500000Y-90750000D03*
X55750000Y-90750000D03*
X60750000Y-88500000D03*
X68750000Y-88000000D03*
X69750000Y-88000000D03*
X69250000Y-88500000D03*
X65000000Y-90750000D03*
X64250000Y-90750000D03*
X72750000Y-90750000D03*
X73500000Y-90750000D03*
X81250000Y-90750000D03*
X82000000Y-90750000D03*
X89750000Y-90750000D03*
X90500000Y-90750000D03*
X98250000Y-91000000D03*
X99000000Y-91000000D03*
X77250000Y-88000000D03*
X78250000Y-88000000D03*
X77750000Y-88500000D03*
X85750000Y-88000000D03*
X86750000Y-88000000D03*
X86250000Y-88500000D03*
X94250000Y-88000000D03*
X95250000Y-88000000D03*
X94750000Y-88500000D03*
X102750000Y-88000000D03*
X103750000Y-88000000D03*
X103250000Y-88500000D03*
X76000000Y-67500000D03*
X76000000Y-62500000D03*
X81000000Y-62500000D03*
X81000000Y-67500000D03*
X65500000Y-54500000D03*
X68000000Y-54500000D03*
X57000000Y-54500000D03*
X78500000Y-65000000D03*
X63000000Y-54500000D03*
X59500000Y-54500000D03*
X104000000Y-72000000D03*
X90800000Y-60600000D03*
X89900000Y-59700000D03*
X85850000Y-56500000D03*
X104000000Y-55350000D03*
X106000000Y-55350000D03*
%TO.N,GPIO_08_CSN*%
X91134994Y-63615000D03*
%TO.N,GPIO_11_SCK*%
X91135000Y-64885000D03*
%TD*%
D16*
%TO.N,GND*%
X77730000Y-49730000D02*
X76500000Y-50960000D01*
X77730000Y-49730000D02*
X79000000Y-51000000D01*
X85350000Y-52270000D02*
X86620000Y-51000000D01*
X90430000Y-49730000D02*
X89160000Y-51000000D01*
X90430000Y-49730000D02*
X91500000Y-50800000D01*
X103130000Y-52270000D02*
X102000000Y-51140000D01*
X95510000Y-49730000D02*
X94240000Y-51000000D01*
X95510000Y-49730000D02*
X96780000Y-51000000D01*
%TO.N,+3V3*%
X75190000Y-52270000D02*
X75190000Y-52440000D01*
D17*
%TO.N,+5V*%
X72700000Y-68450000D02*
X72700000Y-56350000D01*
X69430000Y-71720000D02*
X72700000Y-68450000D01*
X67610000Y-71720000D02*
X69430000Y-71720000D01*
D18*
%TO.N,GPIO_08_CSN*%
X84075000Y-50995000D02*
X82810000Y-49730000D01*
X84075000Y-56555006D02*
X84075000Y-50995000D01*
X91134994Y-63615000D02*
X84075000Y-56555006D01*
%TO.N,GPIO_11_SCK*%
X82810000Y-56560000D02*
X82810000Y-52270000D01*
X91135000Y-64885000D02*
X82810000Y-56560000D01*
%TD*%
D19*
%TO.N,GND*%
G36*
X52967157Y-48717157D02*
G01*
X52917412Y-48777772D01*
X52880448Y-48846927D01*
X52857686Y-48921964D01*
X52850000Y-49000000D01*
X52850000Y-50250000D01*
X52857686Y-50328036D01*
X52880448Y-50403073D01*
X52917412Y-50472228D01*
X52967157Y-50532843D01*
X53666717Y-51232403D01*
X53648660Y-51266186D01*
X53625788Y-51341586D01*
X53618065Y-51420000D01*
X53618065Y-53120000D01*
X53625788Y-53198414D01*
X53648660Y-53273814D01*
X53685803Y-53343303D01*
X53735789Y-53404211D01*
X53796697Y-53454197D01*
X53866186Y-53491340D01*
X53941586Y-53514212D01*
X54020000Y-53521935D01*
X55720000Y-53521935D01*
X55798414Y-53514212D01*
X55873814Y-53491340D01*
X55943303Y-53454197D01*
X56004211Y-53404211D01*
X56054197Y-53343303D01*
X56091340Y-53273814D01*
X56114212Y-53198414D01*
X56121935Y-53120000D01*
X56121935Y-51650000D01*
X56320909Y-51650000D01*
X56302265Y-51677903D01*
X56208037Y-51905389D01*
X56160000Y-52146886D01*
X56160000Y-52393114D01*
X56208037Y-52634611D01*
X56302265Y-52862097D01*
X56439062Y-53066828D01*
X56613172Y-53240938D01*
X56817903Y-53377735D01*
X57045389Y-53471963D01*
X57286886Y-53520000D01*
X57533114Y-53520000D01*
X57774611Y-53471963D01*
X58002097Y-53377735D01*
X58206828Y-53240938D01*
X58380938Y-53066828D01*
X58517735Y-52862097D01*
X58611963Y-52634611D01*
X58660000Y-52393114D01*
X58660000Y-52146886D01*
X58611963Y-51905389D01*
X58517735Y-51677903D01*
X58499091Y-51650000D01*
X58860909Y-51650000D01*
X58842265Y-51677903D01*
X58748037Y-51905389D01*
X58700000Y-52146886D01*
X58700000Y-52393114D01*
X58748037Y-52634611D01*
X58842265Y-52862097D01*
X58979062Y-53066828D01*
X59153172Y-53240938D01*
X59357903Y-53377735D01*
X59585389Y-53471963D01*
X59826886Y-53520000D01*
X60073114Y-53520000D01*
X60314611Y-53471963D01*
X60542097Y-53377735D01*
X60746828Y-53240938D01*
X60920938Y-53066828D01*
X61057735Y-52862097D01*
X61151963Y-52634611D01*
X61200000Y-52393114D01*
X61200000Y-52146886D01*
X61151963Y-51905389D01*
X61057735Y-51677903D01*
X61039091Y-51650000D01*
X61400909Y-51650000D01*
X61382265Y-51677903D01*
X61288037Y-51905389D01*
X61240000Y-52146886D01*
X61240000Y-52393114D01*
X61288037Y-52634611D01*
X61382265Y-52862097D01*
X61519062Y-53066828D01*
X61693172Y-53240938D01*
X61897903Y-53377735D01*
X62125389Y-53471963D01*
X62366886Y-53520000D01*
X62613114Y-53520000D01*
X62854611Y-53471963D01*
X63082097Y-53377735D01*
X63286828Y-53240938D01*
X63460938Y-53066828D01*
X63597735Y-52862097D01*
X63657118Y-52718735D01*
X63728833Y-52909908D01*
X63878674Y-53151457D01*
X64072760Y-53359133D01*
X64303632Y-53524954D01*
X64562418Y-53642548D01*
X64656234Y-53671000D01*
X64880000Y-53561317D01*
X64880000Y-52420000D01*
X64860000Y-52420000D01*
X64860000Y-52120000D01*
X64880000Y-52120000D01*
X64880000Y-52100000D01*
X65180000Y-52100000D01*
X65180000Y-52120000D01*
X65200000Y-52120000D01*
X65200000Y-52420000D01*
X65180000Y-52420000D01*
X65180000Y-53561317D01*
X65403766Y-53671000D01*
X65497582Y-53642548D01*
X65756368Y-53524954D01*
X65987240Y-53359133D01*
X66181326Y-53151457D01*
X66331167Y-52909908D01*
X66402882Y-52718735D01*
X66462265Y-52862097D01*
X66599062Y-53066828D01*
X66773172Y-53240938D01*
X66977903Y-53377735D01*
X67205389Y-53471963D01*
X67446886Y-53520000D01*
X67693114Y-53520000D01*
X67934611Y-53471963D01*
X68162097Y-53377735D01*
X68366828Y-53240938D01*
X68540938Y-53066828D01*
X68677735Y-52862097D01*
X68771963Y-52634611D01*
X68820000Y-52393114D01*
X68820000Y-52146886D01*
X68771963Y-51905389D01*
X68677735Y-51677903D01*
X68659091Y-51650000D01*
X69020909Y-51650000D01*
X69002265Y-51677903D01*
X68908037Y-51905389D01*
X68860000Y-52146886D01*
X68860000Y-52393114D01*
X68908037Y-52634611D01*
X69002265Y-52862097D01*
X69139062Y-53066828D01*
X69313172Y-53240938D01*
X69517903Y-53377735D01*
X69745389Y-53471963D01*
X69986886Y-53520000D01*
X70233114Y-53520000D01*
X70474611Y-53471963D01*
X70702097Y-53377735D01*
X70804300Y-53309445D01*
X70950137Y-56262648D01*
X70950001Y-56264032D01*
X70950001Y-60592235D01*
X70946828Y-60589062D01*
X70742097Y-60452265D01*
X70514611Y-60358037D01*
X70273114Y-60310000D01*
X70026886Y-60310000D01*
X69785389Y-60358037D01*
X69557903Y-60452265D01*
X69353172Y-60589062D01*
X69179062Y-60763172D01*
X69042265Y-60967903D01*
X68948037Y-61195389D01*
X68900000Y-61436886D01*
X68900000Y-61683114D01*
X68948037Y-61924611D01*
X69042265Y-62152097D01*
X69179062Y-62356828D01*
X69353172Y-62530938D01*
X69557903Y-62667735D01*
X69785389Y-62761963D01*
X70026886Y-62810000D01*
X70273114Y-62810000D01*
X70514611Y-62761963D01*
X70742097Y-62667735D01*
X70946828Y-62530938D01*
X70950000Y-62527766D01*
X70950000Y-67725126D01*
X69060709Y-69614417D01*
X69060000Y-69480000D01*
X68910000Y-69330000D01*
X67760000Y-69330000D01*
X67760000Y-69350000D01*
X67460000Y-69350000D01*
X67460000Y-69330000D01*
X66310000Y-69330000D01*
X66160000Y-69480000D01*
X66157097Y-70030000D01*
X66168682Y-70147621D01*
X66202990Y-70260721D01*
X66258704Y-70364955D01*
X66333683Y-70456317D01*
X66363273Y-70480601D01*
X66147888Y-70743048D01*
X65985388Y-71047064D01*
X65885321Y-71376940D01*
X65851533Y-71720000D01*
X65885321Y-72063060D01*
X65985388Y-72392936D01*
X66147888Y-72696952D01*
X66366576Y-72963424D01*
X66633048Y-73182112D01*
X66937064Y-73344612D01*
X67266940Y-73444679D01*
X67524032Y-73470000D01*
X69344035Y-73470000D01*
X69430000Y-73478467D01*
X69515965Y-73470000D01*
X69515968Y-73470000D01*
X69773060Y-73444679D01*
X70102936Y-73344612D01*
X70406952Y-73182112D01*
X70673424Y-72963424D01*
X70728229Y-72896644D01*
X72927535Y-70697338D01*
X82950000Y-70697338D01*
X82950000Y-71002662D01*
X83009565Y-71302118D01*
X83126408Y-71584200D01*
X83296036Y-71838068D01*
X83511932Y-72053964D01*
X83765800Y-72223592D01*
X84047882Y-72340435D01*
X84347338Y-72400000D01*
X84652662Y-72400000D01*
X84952118Y-72340435D01*
X85234200Y-72223592D01*
X85488068Y-72053964D01*
X85703964Y-71838068D01*
X85873592Y-71584200D01*
X85990435Y-71302118D01*
X86050000Y-71002662D01*
X86050000Y-70697338D01*
X85990435Y-70397882D01*
X85873592Y-70115800D01*
X85703964Y-69861932D01*
X85488068Y-69646036D01*
X85234200Y-69476408D01*
X84952118Y-69359565D01*
X84652662Y-69300000D01*
X84347338Y-69300000D01*
X84047882Y-69359565D01*
X83765800Y-69476408D01*
X83511932Y-69646036D01*
X83296036Y-69861932D01*
X83126408Y-70115800D01*
X83009565Y-70397882D01*
X82950000Y-70697338D01*
X72927535Y-70697338D01*
X73876651Y-69748223D01*
X73943424Y-69693424D01*
X74118577Y-69480000D01*
X74162112Y-69426953D01*
X74324611Y-69122937D01*
X74324612Y-69122936D01*
X74424679Y-68793060D01*
X74450000Y-68535968D01*
X74450000Y-68535959D01*
X74458466Y-68450001D01*
X74450000Y-68364043D01*
X74450000Y-56264032D01*
X74449637Y-56260343D01*
X74449921Y-56257945D01*
X74508333Y-53317886D01*
X74597903Y-53377735D01*
X74825389Y-53471963D01*
X75066886Y-53520000D01*
X75313114Y-53520000D01*
X75554611Y-53471963D01*
X75782097Y-53377735D01*
X75986828Y-53240938D01*
X76160938Y-53066828D01*
X76297735Y-52862097D01*
X76391963Y-52634611D01*
X76440000Y-52393114D01*
X76440000Y-52146886D01*
X76391963Y-51905389D01*
X76297735Y-51677903D01*
X76160938Y-51473172D01*
X75986828Y-51299062D01*
X75782097Y-51162265D01*
X75554611Y-51068037D01*
X75313114Y-51020000D01*
X75066886Y-51020000D01*
X74825389Y-51068037D01*
X74597903Y-51162265D01*
X74550531Y-51193918D01*
X74558135Y-50811163D01*
X74597903Y-50837735D01*
X74825389Y-50931963D01*
X75066886Y-50980000D01*
X75313114Y-50980000D01*
X75554611Y-50931963D01*
X75782097Y-50837735D01*
X75986828Y-50700938D01*
X76160938Y-50526828D01*
X76297735Y-50322097D01*
X76357118Y-50178735D01*
X76428833Y-50369908D01*
X76578674Y-50611457D01*
X76772760Y-50819133D01*
X77003632Y-50984954D01*
X77262418Y-51102548D01*
X77273765Y-51105989D01*
X77137903Y-51162265D01*
X76933172Y-51299062D01*
X76759062Y-51473172D01*
X76622265Y-51677903D01*
X76528037Y-51905389D01*
X76480000Y-52146886D01*
X76480000Y-52393114D01*
X76528037Y-52634611D01*
X76622265Y-52862097D01*
X76759062Y-53066828D01*
X76933172Y-53240938D01*
X77137903Y-53377735D01*
X77365389Y-53471963D01*
X77606886Y-53520000D01*
X77853114Y-53520000D01*
X78094611Y-53471963D01*
X78322097Y-53377735D01*
X78526828Y-53240938D01*
X78700938Y-53066828D01*
X78837735Y-52862097D01*
X78931963Y-52634611D01*
X78980000Y-52393114D01*
X78980000Y-52146886D01*
X79020000Y-52146886D01*
X79020000Y-52393114D01*
X79068037Y-52634611D01*
X79162265Y-52862097D01*
X79299062Y-53066828D01*
X79473172Y-53240938D01*
X79677903Y-53377735D01*
X79905389Y-53471963D01*
X80146886Y-53520000D01*
X80393114Y-53520000D01*
X80634611Y-53471963D01*
X80862097Y-53377735D01*
X81066828Y-53240938D01*
X81240938Y-53066828D01*
X81377735Y-52862097D01*
X81471963Y-52634611D01*
X81520000Y-52393114D01*
X81520000Y-52146886D01*
X81471963Y-51905389D01*
X81377735Y-51677903D01*
X81240938Y-51473172D01*
X81066828Y-51299062D01*
X80862097Y-51162265D01*
X80634611Y-51068037D01*
X80393114Y-51020000D01*
X80146886Y-51020000D01*
X79905389Y-51068037D01*
X79677903Y-51162265D01*
X79473172Y-51299062D01*
X79299062Y-51473172D01*
X79162265Y-51677903D01*
X79068037Y-51905389D01*
X79020000Y-52146886D01*
X78980000Y-52146886D01*
X78931963Y-51905389D01*
X78837735Y-51677903D01*
X78700938Y-51473172D01*
X78526828Y-51299062D01*
X78322097Y-51162265D01*
X78186235Y-51105989D01*
X78197582Y-51102548D01*
X78456368Y-50984954D01*
X78687240Y-50819133D01*
X78881326Y-50611457D01*
X79031167Y-50369908D01*
X79102882Y-50178735D01*
X79162265Y-50322097D01*
X79299062Y-50526828D01*
X79473172Y-50700938D01*
X79677903Y-50837735D01*
X79905389Y-50931963D01*
X80146886Y-50980000D01*
X80393114Y-50980000D01*
X80634611Y-50931963D01*
X80862097Y-50837735D01*
X81066828Y-50700938D01*
X81240938Y-50526828D01*
X81377735Y-50322097D01*
X81471963Y-50094611D01*
X81520000Y-49853114D01*
X81520000Y-49606886D01*
X81560000Y-49606886D01*
X81560000Y-49853114D01*
X81608037Y-50094611D01*
X81702265Y-50322097D01*
X81839062Y-50526828D01*
X82013172Y-50700938D01*
X82217903Y-50837735D01*
X82445389Y-50931963D01*
X82686886Y-50980000D01*
X82933114Y-50980000D01*
X83174611Y-50931963D01*
X83241709Y-50904170D01*
X83550001Y-51212463D01*
X83550001Y-51261091D01*
X83402097Y-51162265D01*
X83174611Y-51068037D01*
X82933114Y-51020000D01*
X82686886Y-51020000D01*
X82445389Y-51068037D01*
X82217903Y-51162265D01*
X82013172Y-51299062D01*
X81839062Y-51473172D01*
X81702265Y-51677903D01*
X81608037Y-51905389D01*
X81560000Y-52146886D01*
X81560000Y-52393114D01*
X81608037Y-52634611D01*
X81702265Y-52862097D01*
X81839062Y-53066828D01*
X82013172Y-53240938D01*
X82217903Y-53377735D01*
X82285001Y-53405528D01*
X82285000Y-56534220D01*
X82282461Y-56560000D01*
X82285000Y-56585780D01*
X82285000Y-56585787D01*
X82292597Y-56662917D01*
X82322617Y-56761880D01*
X82371367Y-56853086D01*
X82436973Y-56933027D01*
X82457010Y-56949471D01*
X90335000Y-64827462D01*
X90335000Y-64963793D01*
X90365743Y-65118351D01*
X90426049Y-65263942D01*
X90513599Y-65394970D01*
X90625030Y-65506401D01*
X90756058Y-65593951D01*
X90901649Y-65654257D01*
X91056207Y-65685000D01*
X91213793Y-65685000D01*
X91368351Y-65654257D01*
X91513942Y-65593951D01*
X91644970Y-65506401D01*
X91756401Y-65394970D01*
X91843951Y-65263942D01*
X91904257Y-65118351D01*
X91935000Y-64963793D01*
X91935000Y-64806207D01*
X91904257Y-64651649D01*
X91843951Y-64506058D01*
X91756401Y-64375030D01*
X91644970Y-64263599D01*
X91624615Y-64249998D01*
X91644964Y-64236401D01*
X91756395Y-64124970D01*
X91843945Y-63993942D01*
X91904251Y-63848351D01*
X91934994Y-63693793D01*
X91934994Y-63536207D01*
X91904251Y-63381649D01*
X91843945Y-63236058D01*
X91756395Y-63105030D01*
X91644964Y-62993599D01*
X91513936Y-62906049D01*
X91368345Y-62845743D01*
X91213787Y-62815000D01*
X91077456Y-62815000D01*
X84600000Y-56337545D01*
X84600000Y-53507981D01*
X84623632Y-53524954D01*
X84882418Y-53642548D01*
X84976234Y-53671000D01*
X85200000Y-53561317D01*
X85200000Y-52420000D01*
X85180000Y-52420000D01*
X85180000Y-52120000D01*
X85200000Y-52120000D01*
X85200000Y-52100000D01*
X85500000Y-52100000D01*
X85500000Y-52120000D01*
X85520000Y-52120000D01*
X85520000Y-52420000D01*
X85500000Y-52420000D01*
X85500000Y-53561317D01*
X85723766Y-53671000D01*
X85817582Y-53642548D01*
X86076368Y-53524954D01*
X86307240Y-53359133D01*
X86501326Y-53151457D01*
X86651167Y-52909908D01*
X86722882Y-52718735D01*
X86782265Y-52862097D01*
X86919062Y-53066828D01*
X87093172Y-53240938D01*
X87297903Y-53377735D01*
X87525389Y-53471963D01*
X87766886Y-53520000D01*
X88013114Y-53520000D01*
X88254611Y-53471963D01*
X88482097Y-53377735D01*
X88686828Y-53240938D01*
X88860938Y-53066828D01*
X88997735Y-52862097D01*
X89091963Y-52634611D01*
X89140000Y-52393114D01*
X89140000Y-52146886D01*
X89091963Y-51905389D01*
X88997735Y-51677903D01*
X88860938Y-51473172D01*
X88686828Y-51299062D01*
X88482097Y-51162265D01*
X88254611Y-51068037D01*
X88013114Y-51020000D01*
X87766886Y-51020000D01*
X87525389Y-51068037D01*
X87297903Y-51162265D01*
X87093172Y-51299062D01*
X86919062Y-51473172D01*
X86782265Y-51677903D01*
X86722882Y-51821265D01*
X86651167Y-51630092D01*
X86501326Y-51388543D01*
X86307240Y-51180867D01*
X86076368Y-51015046D01*
X85817582Y-50897452D01*
X85806235Y-50894011D01*
X85942097Y-50837735D01*
X86146828Y-50700938D01*
X86320938Y-50526828D01*
X86457735Y-50322097D01*
X86551963Y-50094611D01*
X86600000Y-49853114D01*
X86600000Y-49606886D01*
X86640000Y-49606886D01*
X86640000Y-49853114D01*
X86688037Y-50094611D01*
X86782265Y-50322097D01*
X86919062Y-50526828D01*
X87093172Y-50700938D01*
X87297903Y-50837735D01*
X87525389Y-50931963D01*
X87766886Y-50980000D01*
X88013114Y-50980000D01*
X88254611Y-50931963D01*
X88482097Y-50837735D01*
X88686828Y-50700938D01*
X88860938Y-50526828D01*
X88997735Y-50322097D01*
X89057118Y-50178735D01*
X89128833Y-50369908D01*
X89278674Y-50611457D01*
X89472760Y-50819133D01*
X89703632Y-50984954D01*
X89962418Y-51102548D01*
X89973765Y-51105989D01*
X89837903Y-51162265D01*
X89633172Y-51299062D01*
X89459062Y-51473172D01*
X89322265Y-51677903D01*
X89228037Y-51905389D01*
X89180000Y-52146886D01*
X89180000Y-52393114D01*
X89228037Y-52634611D01*
X89322265Y-52862097D01*
X89459062Y-53066828D01*
X89633172Y-53240938D01*
X89837903Y-53377735D01*
X90065389Y-53471963D01*
X90306886Y-53520000D01*
X90553114Y-53520000D01*
X90794611Y-53471963D01*
X91022097Y-53377735D01*
X91226828Y-53240938D01*
X91400938Y-53066828D01*
X91537735Y-52862097D01*
X91631963Y-52634611D01*
X91680000Y-52393114D01*
X91680000Y-52146886D01*
X91720000Y-52146886D01*
X91720000Y-52393114D01*
X91768037Y-52634611D01*
X91862265Y-52862097D01*
X91999062Y-53066828D01*
X92173172Y-53240938D01*
X92377903Y-53377735D01*
X92605389Y-53471963D01*
X92846886Y-53520000D01*
X93093114Y-53520000D01*
X93334611Y-53471963D01*
X93562097Y-53377735D01*
X93766828Y-53240938D01*
X93940938Y-53066828D01*
X94077735Y-52862097D01*
X94171963Y-52634611D01*
X94220000Y-52393114D01*
X94220000Y-52146886D01*
X94171963Y-51905389D01*
X94077735Y-51677903D01*
X93940938Y-51473172D01*
X93766828Y-51299062D01*
X93562097Y-51162265D01*
X93334611Y-51068037D01*
X93093114Y-51020000D01*
X92846886Y-51020000D01*
X92605389Y-51068037D01*
X92377903Y-51162265D01*
X92173172Y-51299062D01*
X91999062Y-51473172D01*
X91862265Y-51677903D01*
X91768037Y-51905389D01*
X91720000Y-52146886D01*
X91680000Y-52146886D01*
X91631963Y-51905389D01*
X91537735Y-51677903D01*
X91400938Y-51473172D01*
X91226828Y-51299062D01*
X91022097Y-51162265D01*
X90886235Y-51105989D01*
X90897582Y-51102548D01*
X91156368Y-50984954D01*
X91387240Y-50819133D01*
X91581326Y-50611457D01*
X91731167Y-50369908D01*
X91802882Y-50178735D01*
X91862265Y-50322097D01*
X91999062Y-50526828D01*
X92173172Y-50700938D01*
X92377903Y-50837735D01*
X92605389Y-50931963D01*
X92846886Y-50980000D01*
X93093114Y-50980000D01*
X93334611Y-50931963D01*
X93562097Y-50837735D01*
X93766828Y-50700938D01*
X93940938Y-50526828D01*
X94077735Y-50322097D01*
X94137118Y-50178735D01*
X94208833Y-50369908D01*
X94358674Y-50611457D01*
X94552760Y-50819133D01*
X94783632Y-50984954D01*
X95042418Y-51102548D01*
X95053765Y-51105989D01*
X94917903Y-51162265D01*
X94713172Y-51299062D01*
X94539062Y-51473172D01*
X94402265Y-51677903D01*
X94308037Y-51905389D01*
X94260000Y-52146886D01*
X94260000Y-52393114D01*
X94308037Y-52634611D01*
X94402265Y-52862097D01*
X94539062Y-53066828D01*
X94713172Y-53240938D01*
X94917903Y-53377735D01*
X95145389Y-53471963D01*
X95386886Y-53520000D01*
X95633114Y-53520000D01*
X95874611Y-53471963D01*
X96102097Y-53377735D01*
X96306828Y-53240938D01*
X96480938Y-53066828D01*
X96617735Y-52862097D01*
X96711963Y-52634611D01*
X96760000Y-52393114D01*
X96760000Y-52146886D01*
X96800000Y-52146886D01*
X96800000Y-52393114D01*
X96848037Y-52634611D01*
X96942265Y-52862097D01*
X97079062Y-53066828D01*
X97253172Y-53240938D01*
X97457903Y-53377735D01*
X97685389Y-53471963D01*
X97926886Y-53520000D01*
X98173114Y-53520000D01*
X98414611Y-53471963D01*
X98642097Y-53377735D01*
X98846828Y-53240938D01*
X99020938Y-53066828D01*
X99157735Y-52862097D01*
X99251963Y-52634611D01*
X99300000Y-52393114D01*
X99300000Y-52146886D01*
X99340000Y-52146886D01*
X99340000Y-52393114D01*
X99388037Y-52634611D01*
X99482265Y-52862097D01*
X99619062Y-53066828D01*
X99793172Y-53240938D01*
X99997903Y-53377735D01*
X100225389Y-53471963D01*
X100466886Y-53520000D01*
X100713114Y-53520000D01*
X100954611Y-53471963D01*
X101182097Y-53377735D01*
X101386828Y-53240938D01*
X101560938Y-53066828D01*
X101697735Y-52862097D01*
X101757118Y-52718735D01*
X101828833Y-52909908D01*
X101978674Y-53151457D01*
X102172760Y-53359133D01*
X102403632Y-53524954D01*
X102662418Y-53642548D01*
X102756234Y-53671000D01*
X102980000Y-53561317D01*
X102980000Y-52420000D01*
X103280000Y-52420000D01*
X103280000Y-53561317D01*
X103503766Y-53671000D01*
X103597582Y-53642548D01*
X103856368Y-53524954D01*
X104087240Y-53359133D01*
X104281326Y-53151457D01*
X104431167Y-52909908D01*
X104531005Y-52643767D01*
X104422226Y-52420000D01*
X103280000Y-52420000D01*
X102980000Y-52420000D01*
X102960000Y-52420000D01*
X102960000Y-52120000D01*
X102980000Y-52120000D01*
X102980000Y-52100000D01*
X103280000Y-52100000D01*
X103280000Y-52120000D01*
X104422226Y-52120000D01*
X104531005Y-51896233D01*
X104431167Y-51630092D01*
X104281326Y-51388543D01*
X104087240Y-51180867D01*
X103856368Y-51015046D01*
X103597582Y-50897452D01*
X103586235Y-50894011D01*
X103722097Y-50837735D01*
X103899348Y-50719299D01*
X105150000Y-50719299D01*
X105150000Y-51280701D01*
X105259524Y-51831314D01*
X105474363Y-52349981D01*
X105786260Y-52816769D01*
X106183231Y-53213740D01*
X106650019Y-53525637D01*
X107168686Y-53740476D01*
X107719299Y-53850000D01*
X108280701Y-53850000D01*
X108831314Y-53740476D01*
X109349981Y-53525637D01*
X109816769Y-53213740D01*
X110213740Y-52816769D01*
X110525637Y-52349981D01*
X110740476Y-51831314D01*
X110850000Y-51280701D01*
X110850000Y-50719299D01*
X110740476Y-50168686D01*
X110525637Y-49650019D01*
X110213740Y-49183231D01*
X109816769Y-48786260D01*
X109349981Y-48474363D01*
X108831314Y-48259524D01*
X108280701Y-48150000D01*
X107719299Y-48150000D01*
X107168686Y-48259524D01*
X106650019Y-48474363D01*
X106183231Y-48786260D01*
X105786260Y-49183231D01*
X105474363Y-49650019D01*
X105259524Y-50168686D01*
X105150000Y-50719299D01*
X103899348Y-50719299D01*
X103926828Y-50700938D01*
X104100938Y-50526828D01*
X104237735Y-50322097D01*
X104331963Y-50094611D01*
X104380000Y-49853114D01*
X104380000Y-49606886D01*
X104331963Y-49365389D01*
X104237735Y-49137903D01*
X104100938Y-48933172D01*
X103926828Y-48759062D01*
X103722097Y-48622265D01*
X103494611Y-48528037D01*
X103253114Y-48480000D01*
X103006886Y-48480000D01*
X102765389Y-48528037D01*
X102537903Y-48622265D01*
X102333172Y-48759062D01*
X102159062Y-48933172D01*
X102022265Y-49137903D01*
X101928037Y-49365389D01*
X101880000Y-49606886D01*
X101880000Y-49853114D01*
X101928037Y-50094611D01*
X102022265Y-50322097D01*
X102159062Y-50526828D01*
X102333172Y-50700938D01*
X102537903Y-50837735D01*
X102673765Y-50894011D01*
X102662418Y-50897452D01*
X102403632Y-51015046D01*
X102172760Y-51180867D01*
X101978674Y-51388543D01*
X101828833Y-51630092D01*
X101757118Y-51821265D01*
X101697735Y-51677903D01*
X101560938Y-51473172D01*
X101386828Y-51299062D01*
X101182097Y-51162265D01*
X100954611Y-51068037D01*
X100713114Y-51020000D01*
X100466886Y-51020000D01*
X100225389Y-51068037D01*
X99997903Y-51162265D01*
X99793172Y-51299062D01*
X99619062Y-51473172D01*
X99482265Y-51677903D01*
X99388037Y-51905389D01*
X99340000Y-52146886D01*
X99300000Y-52146886D01*
X99251963Y-51905389D01*
X99157735Y-51677903D01*
X99020938Y-51473172D01*
X98846828Y-51299062D01*
X98642097Y-51162265D01*
X98414611Y-51068037D01*
X98173114Y-51020000D01*
X97926886Y-51020000D01*
X97685389Y-51068037D01*
X97457903Y-51162265D01*
X97253172Y-51299062D01*
X97079062Y-51473172D01*
X96942265Y-51677903D01*
X96848037Y-51905389D01*
X96800000Y-52146886D01*
X96760000Y-52146886D01*
X96711963Y-51905389D01*
X96617735Y-51677903D01*
X96480938Y-51473172D01*
X96306828Y-51299062D01*
X96102097Y-51162265D01*
X95966235Y-51105989D01*
X95977582Y-51102548D01*
X96236368Y-50984954D01*
X96467240Y-50819133D01*
X96661326Y-50611457D01*
X96811167Y-50369908D01*
X96882882Y-50178735D01*
X96942265Y-50322097D01*
X97079062Y-50526828D01*
X97253172Y-50700938D01*
X97457903Y-50837735D01*
X97685389Y-50931963D01*
X97926886Y-50980000D01*
X98173114Y-50980000D01*
X98414611Y-50931963D01*
X98642097Y-50837735D01*
X98846828Y-50700938D01*
X99020938Y-50526828D01*
X99157735Y-50322097D01*
X99251963Y-50094611D01*
X99300000Y-49853114D01*
X99300000Y-49606886D01*
X99340000Y-49606886D01*
X99340000Y-49853114D01*
X99388037Y-50094611D01*
X99482265Y-50322097D01*
X99619062Y-50526828D01*
X99793172Y-50700938D01*
X99997903Y-50837735D01*
X100225389Y-50931963D01*
X100466886Y-50980000D01*
X100713114Y-50980000D01*
X100954611Y-50931963D01*
X101182097Y-50837735D01*
X101386828Y-50700938D01*
X101560938Y-50526828D01*
X101697735Y-50322097D01*
X101791963Y-50094611D01*
X101840000Y-49853114D01*
X101840000Y-49606886D01*
X101791963Y-49365389D01*
X101697735Y-49137903D01*
X101560938Y-48933172D01*
X101386828Y-48759062D01*
X101182097Y-48622265D01*
X100954611Y-48528037D01*
X100713114Y-48480000D01*
X100466886Y-48480000D01*
X100225389Y-48528037D01*
X99997903Y-48622265D01*
X99793172Y-48759062D01*
X99619062Y-48933172D01*
X99482265Y-49137903D01*
X99388037Y-49365389D01*
X99340000Y-49606886D01*
X99300000Y-49606886D01*
X99251963Y-49365389D01*
X99157735Y-49137903D01*
X99020938Y-48933172D01*
X98846828Y-48759062D01*
X98642097Y-48622265D01*
X98414611Y-48528037D01*
X98173114Y-48480000D01*
X97926886Y-48480000D01*
X97685389Y-48528037D01*
X97457903Y-48622265D01*
X97253172Y-48759062D01*
X97079062Y-48933172D01*
X96942265Y-49137903D01*
X96882882Y-49281265D01*
X96811167Y-49090092D01*
X96661326Y-48848543D01*
X96467240Y-48640867D01*
X96236368Y-48475046D01*
X95977582Y-48357452D01*
X95883766Y-48329000D01*
X95660000Y-48438683D01*
X95660000Y-49580000D01*
X95680000Y-49580000D01*
X95680000Y-49880000D01*
X95660000Y-49880000D01*
X95660000Y-49900000D01*
X95360000Y-49900000D01*
X95360000Y-49880000D01*
X95340000Y-49880000D01*
X95340000Y-49580000D01*
X95360000Y-49580000D01*
X95360000Y-48438683D01*
X95136234Y-48329000D01*
X95042418Y-48357452D01*
X94783632Y-48475046D01*
X94552760Y-48640867D01*
X94358674Y-48848543D01*
X94208833Y-49090092D01*
X94137118Y-49281265D01*
X94077735Y-49137903D01*
X93940938Y-48933172D01*
X93766828Y-48759062D01*
X93562097Y-48622265D01*
X93334611Y-48528037D01*
X93093114Y-48480000D01*
X92846886Y-48480000D01*
X92605389Y-48528037D01*
X92377903Y-48622265D01*
X92173172Y-48759062D01*
X91999062Y-48933172D01*
X91862265Y-49137903D01*
X91802882Y-49281265D01*
X91731167Y-49090092D01*
X91581326Y-48848543D01*
X91387240Y-48640867D01*
X91156368Y-48475046D01*
X90897582Y-48357452D01*
X90803766Y-48329000D01*
X90580000Y-48438683D01*
X90580000Y-49580000D01*
X90600000Y-49580000D01*
X90600000Y-49880000D01*
X90580000Y-49880000D01*
X90580000Y-49900000D01*
X90280000Y-49900000D01*
X90280000Y-49880000D01*
X90260000Y-49880000D01*
X90260000Y-49580000D01*
X90280000Y-49580000D01*
X90280000Y-48438683D01*
X90056234Y-48329000D01*
X89962418Y-48357452D01*
X89703632Y-48475046D01*
X89472760Y-48640867D01*
X89278674Y-48848543D01*
X89128833Y-49090092D01*
X89057118Y-49281265D01*
X88997735Y-49137903D01*
X88860938Y-48933172D01*
X88686828Y-48759062D01*
X88482097Y-48622265D01*
X88254611Y-48528037D01*
X88013114Y-48480000D01*
X87766886Y-48480000D01*
X87525389Y-48528037D01*
X87297903Y-48622265D01*
X87093172Y-48759062D01*
X86919062Y-48933172D01*
X86782265Y-49137903D01*
X86688037Y-49365389D01*
X86640000Y-49606886D01*
X86600000Y-49606886D01*
X86551963Y-49365389D01*
X86457735Y-49137903D01*
X86320938Y-48933172D01*
X86146828Y-48759062D01*
X85942097Y-48622265D01*
X85714611Y-48528037D01*
X85473114Y-48480000D01*
X85226886Y-48480000D01*
X84985389Y-48528037D01*
X84757903Y-48622265D01*
X84553172Y-48759062D01*
X84379062Y-48933172D01*
X84242265Y-49137903D01*
X84148037Y-49365389D01*
X84100000Y-49606886D01*
X84100000Y-49853114D01*
X84148037Y-50094611D01*
X84242265Y-50322097D01*
X84379062Y-50526828D01*
X84553172Y-50700938D01*
X84757903Y-50837735D01*
X84893765Y-50894011D01*
X84882418Y-50897452D01*
X84623632Y-51015046D01*
X84600000Y-51032019D01*
X84600000Y-51020779D01*
X84602539Y-50994999D01*
X84600000Y-50969219D01*
X84600000Y-50969212D01*
X84592403Y-50892082D01*
X84562383Y-50793119D01*
X84513633Y-50701914D01*
X84448027Y-50621973D01*
X84427996Y-50605534D01*
X83984170Y-50161709D01*
X84011963Y-50094611D01*
X84060000Y-49853114D01*
X84060000Y-49606886D01*
X84011963Y-49365389D01*
X83917735Y-49137903D01*
X83780938Y-48933172D01*
X83606828Y-48759062D01*
X83402097Y-48622265D01*
X83174611Y-48528037D01*
X82933114Y-48480000D01*
X82686886Y-48480000D01*
X82445389Y-48528037D01*
X82217903Y-48622265D01*
X82013172Y-48759062D01*
X81839062Y-48933172D01*
X81702265Y-49137903D01*
X81608037Y-49365389D01*
X81560000Y-49606886D01*
X81520000Y-49606886D01*
X81471963Y-49365389D01*
X81377735Y-49137903D01*
X81240938Y-48933172D01*
X81066828Y-48759062D01*
X80862097Y-48622265D01*
X80634611Y-48528037D01*
X80393114Y-48480000D01*
X80146886Y-48480000D01*
X79905389Y-48528037D01*
X79677903Y-48622265D01*
X79473172Y-48759062D01*
X79299062Y-48933172D01*
X79162265Y-49137903D01*
X79102882Y-49281265D01*
X79031167Y-49090092D01*
X78881326Y-48848543D01*
X78687240Y-48640867D01*
X78456368Y-48475046D01*
X78197582Y-48357452D01*
X78103766Y-48329000D01*
X77880000Y-48438683D01*
X77880000Y-49580000D01*
X77900000Y-49580000D01*
X77900000Y-49880000D01*
X77880000Y-49880000D01*
X77880000Y-49900000D01*
X77580000Y-49900000D01*
X77580000Y-49880000D01*
X77560000Y-49880000D01*
X77560000Y-49580000D01*
X77580000Y-49580000D01*
X77580000Y-48438683D01*
X77356234Y-48329000D01*
X77262418Y-48357452D01*
X77003632Y-48475046D01*
X76772760Y-48640867D01*
X76578674Y-48848543D01*
X76428833Y-49090092D01*
X76357118Y-49281265D01*
X76297735Y-49137903D01*
X76160938Y-48933172D01*
X75986828Y-48759062D01*
X75782097Y-48622265D01*
X75554611Y-48528037D01*
X75313114Y-48480000D01*
X75066886Y-48480000D01*
X74825389Y-48528037D01*
X74597903Y-48622265D01*
X74592651Y-48625774D01*
X74592314Y-48621964D01*
X74569552Y-48546927D01*
X74532588Y-48477772D01*
X74482843Y-48417157D01*
X74040686Y-47975000D01*
X107976769Y-47975000D01*
X108587115Y-48034845D01*
X109151871Y-48205355D01*
X109672750Y-48482311D01*
X110129915Y-48855166D01*
X110505951Y-49309716D01*
X110786537Y-49828650D01*
X110960983Y-50392195D01*
X111025001Y-51001279D01*
X111025001Y-57150000D01*
X99500000Y-57150000D01*
X99477340Y-57152601D01*
X99458774Y-57158894D01*
X99441792Y-57168687D01*
X99427047Y-57181605D01*
X98927047Y-57714930D01*
X98916853Y-57727768D01*
X98907612Y-57745057D01*
X98901921Y-57763816D01*
X98900000Y-57783325D01*
X98900000Y-70750000D01*
X98901921Y-70769509D01*
X98907612Y-70788268D01*
X98916853Y-70805557D01*
X98929289Y-70820711D01*
X99429289Y-71320711D01*
X99444443Y-71333147D01*
X99461732Y-71342388D01*
X99480491Y-71348079D01*
X99500000Y-71350000D01*
X111025001Y-71350000D01*
X111025000Y-99976769D01*
X110965155Y-100587115D01*
X110794645Y-101151871D01*
X110517689Y-101672750D01*
X110144836Y-102129913D01*
X109690284Y-102505951D01*
X109171353Y-102786536D01*
X108607805Y-102960983D01*
X107998730Y-103025000D01*
X50023231Y-103025000D01*
X49412885Y-102965155D01*
X48848129Y-102794645D01*
X48327250Y-102517689D01*
X47870087Y-102144836D01*
X47494049Y-101690284D01*
X47213464Y-101171353D01*
X47039017Y-100607805D01*
X46975000Y-99998730D01*
X46975000Y-99719299D01*
X47150000Y-99719299D01*
X47150000Y-100280701D01*
X47259524Y-100831314D01*
X47474363Y-101349981D01*
X47786260Y-101816769D01*
X48183231Y-102213740D01*
X48650019Y-102525637D01*
X49168686Y-102740476D01*
X49719299Y-102850000D01*
X50280701Y-102850000D01*
X50831314Y-102740476D01*
X51349981Y-102525637D01*
X51816769Y-102213740D01*
X52213740Y-101816769D01*
X52525637Y-101349981D01*
X52740476Y-100831314D01*
X52850000Y-100280701D01*
X52850000Y-99719299D01*
X105150000Y-99719299D01*
X105150000Y-100280701D01*
X105259524Y-100831314D01*
X105474363Y-101349981D01*
X105786260Y-101816769D01*
X106183231Y-102213740D01*
X106650019Y-102525637D01*
X107168686Y-102740476D01*
X107719299Y-102850000D01*
X108280701Y-102850000D01*
X108831314Y-102740476D01*
X109349981Y-102525637D01*
X109816769Y-102213740D01*
X110213740Y-101816769D01*
X110525637Y-101349981D01*
X110740476Y-100831314D01*
X110850000Y-100280701D01*
X110850000Y-99719299D01*
X110740476Y-99168686D01*
X110525637Y-98650019D01*
X110213740Y-98183231D01*
X109816769Y-97786260D01*
X109349981Y-97474363D01*
X108831314Y-97259524D01*
X108280701Y-97150000D01*
X107719299Y-97150000D01*
X107168686Y-97259524D01*
X106650019Y-97474363D01*
X106183231Y-97786260D01*
X105786260Y-98183231D01*
X105474363Y-98650019D01*
X105259524Y-99168686D01*
X105150000Y-99719299D01*
X52850000Y-99719299D01*
X52740476Y-99168686D01*
X52525637Y-98650019D01*
X52213740Y-98183231D01*
X51816769Y-97786260D01*
X51349981Y-97474363D01*
X50831314Y-97259524D01*
X50280701Y-97150000D01*
X49719299Y-97150000D01*
X49168686Y-97259524D01*
X48650019Y-97474363D01*
X48183231Y-97786260D01*
X47786260Y-98183231D01*
X47474363Y-98650019D01*
X47259524Y-99168686D01*
X47150000Y-99719299D01*
X46975000Y-99719299D01*
X46975000Y-96075000D01*
X55228065Y-96075000D01*
X55228065Y-96925000D01*
X55243954Y-97086327D01*
X55291012Y-97241454D01*
X55367429Y-97384420D01*
X55470269Y-97509731D01*
X55595580Y-97612571D01*
X55738546Y-97688988D01*
X55893673Y-97736046D01*
X56055000Y-97751935D01*
X56905000Y-97751935D01*
X57066327Y-97736046D01*
X57221454Y-97688988D01*
X57364420Y-97612571D01*
X57489731Y-97509731D01*
X57592571Y-97384420D01*
X57668988Y-97241454D01*
X57716046Y-97086327D01*
X57731935Y-96925000D01*
X57731935Y-96376886D01*
X57770000Y-96376886D01*
X57770000Y-96623114D01*
X57818037Y-96864611D01*
X57912265Y-97092097D01*
X58049062Y-97296828D01*
X58223172Y-97470938D01*
X58427903Y-97607735D01*
X58655389Y-97701963D01*
X58896886Y-97750000D01*
X59143114Y-97750000D01*
X59384611Y-97701963D01*
X59612097Y-97607735D01*
X59816828Y-97470938D01*
X59990938Y-97296828D01*
X60127735Y-97092097D01*
X60221963Y-96864611D01*
X60270000Y-96623114D01*
X60270000Y-96376886D01*
X60221963Y-96135389D01*
X60196950Y-96075000D01*
X63728065Y-96075000D01*
X63728065Y-96925000D01*
X63743954Y-97086327D01*
X63791012Y-97241454D01*
X63867429Y-97384420D01*
X63970269Y-97509731D01*
X64095580Y-97612571D01*
X64238546Y-97688988D01*
X64393673Y-97736046D01*
X64555000Y-97751935D01*
X65405000Y-97751935D01*
X65566327Y-97736046D01*
X65721454Y-97688988D01*
X65864420Y-97612571D01*
X65989731Y-97509731D01*
X66092571Y-97384420D01*
X66168988Y-97241454D01*
X66216046Y-97086327D01*
X66231935Y-96925000D01*
X66231935Y-96376886D01*
X66270000Y-96376886D01*
X66270000Y-96623114D01*
X66318037Y-96864611D01*
X66412265Y-97092097D01*
X66549062Y-97296828D01*
X66723172Y-97470938D01*
X66927903Y-97607735D01*
X67155389Y-97701963D01*
X67396886Y-97750000D01*
X67643114Y-97750000D01*
X67884611Y-97701963D01*
X68112097Y-97607735D01*
X68316828Y-97470938D01*
X68490938Y-97296828D01*
X68627735Y-97092097D01*
X68721963Y-96864611D01*
X68770000Y-96623114D01*
X68770000Y-96376886D01*
X68721963Y-96135389D01*
X68696950Y-96075000D01*
X72228065Y-96075000D01*
X72228065Y-96925000D01*
X72243954Y-97086327D01*
X72291012Y-97241454D01*
X72367429Y-97384420D01*
X72470269Y-97509731D01*
X72595580Y-97612571D01*
X72738546Y-97688988D01*
X72893673Y-97736046D01*
X73055000Y-97751935D01*
X73905000Y-97751935D01*
X74066327Y-97736046D01*
X74221454Y-97688988D01*
X74364420Y-97612571D01*
X74489731Y-97509731D01*
X74592571Y-97384420D01*
X74668988Y-97241454D01*
X74716046Y-97086327D01*
X74731935Y-96925000D01*
X74731935Y-96376886D01*
X74770000Y-96376886D01*
X74770000Y-96623114D01*
X74818037Y-96864611D01*
X74912265Y-97092097D01*
X75049062Y-97296828D01*
X75223172Y-97470938D01*
X75427903Y-97607735D01*
X75655389Y-97701963D01*
X75896886Y-97750000D01*
X76143114Y-97750000D01*
X76384611Y-97701963D01*
X76612097Y-97607735D01*
X76816828Y-97470938D01*
X76990938Y-97296828D01*
X77127735Y-97092097D01*
X77221963Y-96864611D01*
X77270000Y-96623114D01*
X77270000Y-96376886D01*
X77221963Y-96135389D01*
X77196950Y-96075000D01*
X80728065Y-96075000D01*
X80728065Y-96925000D01*
X80743954Y-97086327D01*
X80791012Y-97241454D01*
X80867429Y-97384420D01*
X80970269Y-97509731D01*
X81095580Y-97612571D01*
X81238546Y-97688988D01*
X81393673Y-97736046D01*
X81555000Y-97751935D01*
X82405000Y-97751935D01*
X82566327Y-97736046D01*
X82721454Y-97688988D01*
X82864420Y-97612571D01*
X82989731Y-97509731D01*
X83092571Y-97384420D01*
X83168988Y-97241454D01*
X83216046Y-97086327D01*
X83231935Y-96925000D01*
X83231935Y-96376886D01*
X83270000Y-96376886D01*
X83270000Y-96623114D01*
X83318037Y-96864611D01*
X83412265Y-97092097D01*
X83549062Y-97296828D01*
X83723172Y-97470938D01*
X83927903Y-97607735D01*
X84155389Y-97701963D01*
X84396886Y-97750000D01*
X84643114Y-97750000D01*
X84884611Y-97701963D01*
X85112097Y-97607735D01*
X85316828Y-97470938D01*
X85490938Y-97296828D01*
X85627735Y-97092097D01*
X85721963Y-96864611D01*
X85770000Y-96623114D01*
X85770000Y-96376886D01*
X85721963Y-96135389D01*
X85696950Y-96075000D01*
X89228065Y-96075000D01*
X89228065Y-96925000D01*
X89243954Y-97086327D01*
X89291012Y-97241454D01*
X89367429Y-97384420D01*
X89470269Y-97509731D01*
X89595580Y-97612571D01*
X89738546Y-97688988D01*
X89893673Y-97736046D01*
X90055000Y-97751935D01*
X90905000Y-97751935D01*
X91066327Y-97736046D01*
X91221454Y-97688988D01*
X91364420Y-97612571D01*
X91489731Y-97509731D01*
X91592571Y-97384420D01*
X91668988Y-97241454D01*
X91716046Y-97086327D01*
X91731935Y-96925000D01*
X91731935Y-96376886D01*
X91770000Y-96376886D01*
X91770000Y-96623114D01*
X91818037Y-96864611D01*
X91912265Y-97092097D01*
X92049062Y-97296828D01*
X92223172Y-97470938D01*
X92427903Y-97607735D01*
X92655389Y-97701963D01*
X92896886Y-97750000D01*
X93143114Y-97750000D01*
X93384611Y-97701963D01*
X93612097Y-97607735D01*
X93816828Y-97470938D01*
X93990938Y-97296828D01*
X94127735Y-97092097D01*
X94221963Y-96864611D01*
X94270000Y-96623114D01*
X94270000Y-96376886D01*
X94221963Y-96135389D01*
X94196950Y-96075000D01*
X97728065Y-96075000D01*
X97728065Y-96925000D01*
X97743954Y-97086327D01*
X97791012Y-97241454D01*
X97867429Y-97384420D01*
X97970269Y-97509731D01*
X98095580Y-97612571D01*
X98238546Y-97688988D01*
X98393673Y-97736046D01*
X98555000Y-97751935D01*
X99405000Y-97751935D01*
X99566327Y-97736046D01*
X99721454Y-97688988D01*
X99864420Y-97612571D01*
X99989731Y-97509731D01*
X100092571Y-97384420D01*
X100168988Y-97241454D01*
X100216046Y-97086327D01*
X100231935Y-96925000D01*
X100231935Y-96376886D01*
X100270000Y-96376886D01*
X100270000Y-96623114D01*
X100318037Y-96864611D01*
X100412265Y-97092097D01*
X100549062Y-97296828D01*
X100723172Y-97470938D01*
X100927903Y-97607735D01*
X101155389Y-97701963D01*
X101396886Y-97750000D01*
X101643114Y-97750000D01*
X101884611Y-97701963D01*
X102112097Y-97607735D01*
X102316828Y-97470938D01*
X102490938Y-97296828D01*
X102627735Y-97092097D01*
X102721963Y-96864611D01*
X102770000Y-96623114D01*
X102770000Y-96376886D01*
X102721963Y-96135389D01*
X102627735Y-95907903D01*
X102490938Y-95703172D01*
X102316828Y-95529062D01*
X102112097Y-95392265D01*
X101884611Y-95298037D01*
X101643114Y-95250000D01*
X101396886Y-95250000D01*
X101155389Y-95298037D01*
X100927903Y-95392265D01*
X100723172Y-95529062D01*
X100549062Y-95703172D01*
X100412265Y-95907903D01*
X100318037Y-96135389D01*
X100270000Y-96376886D01*
X100231935Y-96376886D01*
X100231935Y-96075000D01*
X100216046Y-95913673D01*
X100168988Y-95758546D01*
X100092571Y-95615580D01*
X99989731Y-95490269D01*
X99864420Y-95387429D01*
X99721454Y-95311012D01*
X99566327Y-95263954D01*
X99405000Y-95248065D01*
X98555000Y-95248065D01*
X98393673Y-95263954D01*
X98238546Y-95311012D01*
X98095580Y-95387429D01*
X97970269Y-95490269D01*
X97867429Y-95615580D01*
X97791012Y-95758546D01*
X97743954Y-95913673D01*
X97728065Y-96075000D01*
X94196950Y-96075000D01*
X94127735Y-95907903D01*
X93990938Y-95703172D01*
X93816828Y-95529062D01*
X93612097Y-95392265D01*
X93384611Y-95298037D01*
X93143114Y-95250000D01*
X92896886Y-95250000D01*
X92655389Y-95298037D01*
X92427903Y-95392265D01*
X92223172Y-95529062D01*
X92049062Y-95703172D01*
X91912265Y-95907903D01*
X91818037Y-96135389D01*
X91770000Y-96376886D01*
X91731935Y-96376886D01*
X91731935Y-96075000D01*
X91716046Y-95913673D01*
X91668988Y-95758546D01*
X91592571Y-95615580D01*
X91489731Y-95490269D01*
X91364420Y-95387429D01*
X91221454Y-95311012D01*
X91066327Y-95263954D01*
X90905000Y-95248065D01*
X90055000Y-95248065D01*
X89893673Y-95263954D01*
X89738546Y-95311012D01*
X89595580Y-95387429D01*
X89470269Y-95490269D01*
X89367429Y-95615580D01*
X89291012Y-95758546D01*
X89243954Y-95913673D01*
X89228065Y-96075000D01*
X85696950Y-96075000D01*
X85627735Y-95907903D01*
X85490938Y-95703172D01*
X85316828Y-95529062D01*
X85112097Y-95392265D01*
X84884611Y-95298037D01*
X84643114Y-95250000D01*
X84396886Y-95250000D01*
X84155389Y-95298037D01*
X83927903Y-95392265D01*
X83723172Y-95529062D01*
X83549062Y-95703172D01*
X83412265Y-95907903D01*
X83318037Y-96135389D01*
X83270000Y-96376886D01*
X83231935Y-96376886D01*
X83231935Y-96075000D01*
X83216046Y-95913673D01*
X83168988Y-95758546D01*
X83092571Y-95615580D01*
X82989731Y-95490269D01*
X82864420Y-95387429D01*
X82721454Y-95311012D01*
X82566327Y-95263954D01*
X82405000Y-95248065D01*
X81555000Y-95248065D01*
X81393673Y-95263954D01*
X81238546Y-95311012D01*
X81095580Y-95387429D01*
X80970269Y-95490269D01*
X80867429Y-95615580D01*
X80791012Y-95758546D01*
X80743954Y-95913673D01*
X80728065Y-96075000D01*
X77196950Y-96075000D01*
X77127735Y-95907903D01*
X76990938Y-95703172D01*
X76816828Y-95529062D01*
X76612097Y-95392265D01*
X76384611Y-95298037D01*
X76143114Y-95250000D01*
X75896886Y-95250000D01*
X75655389Y-95298037D01*
X75427903Y-95392265D01*
X75223172Y-95529062D01*
X75049062Y-95703172D01*
X74912265Y-95907903D01*
X74818037Y-96135389D01*
X74770000Y-96376886D01*
X74731935Y-96376886D01*
X74731935Y-96075000D01*
X74716046Y-95913673D01*
X74668988Y-95758546D01*
X74592571Y-95615580D01*
X74489731Y-95490269D01*
X74364420Y-95387429D01*
X74221454Y-95311012D01*
X74066327Y-95263954D01*
X73905000Y-95248065D01*
X73055000Y-95248065D01*
X72893673Y-95263954D01*
X72738546Y-95311012D01*
X72595580Y-95387429D01*
X72470269Y-95490269D01*
X72367429Y-95615580D01*
X72291012Y-95758546D01*
X72243954Y-95913673D01*
X72228065Y-96075000D01*
X68696950Y-96075000D01*
X68627735Y-95907903D01*
X68490938Y-95703172D01*
X68316828Y-95529062D01*
X68112097Y-95392265D01*
X67884611Y-95298037D01*
X67643114Y-95250000D01*
X67396886Y-95250000D01*
X67155389Y-95298037D01*
X66927903Y-95392265D01*
X66723172Y-95529062D01*
X66549062Y-95703172D01*
X66412265Y-95907903D01*
X66318037Y-96135389D01*
X66270000Y-96376886D01*
X66231935Y-96376886D01*
X66231935Y-96075000D01*
X66216046Y-95913673D01*
X66168988Y-95758546D01*
X66092571Y-95615580D01*
X65989731Y-95490269D01*
X65864420Y-95387429D01*
X65721454Y-95311012D01*
X65566327Y-95263954D01*
X65405000Y-95248065D01*
X64555000Y-95248065D01*
X64393673Y-95263954D01*
X64238546Y-95311012D01*
X64095580Y-95387429D01*
X63970269Y-95490269D01*
X63867429Y-95615580D01*
X63791012Y-95758546D01*
X63743954Y-95913673D01*
X63728065Y-96075000D01*
X60196950Y-96075000D01*
X60127735Y-95907903D01*
X59990938Y-95703172D01*
X59816828Y-95529062D01*
X59612097Y-95392265D01*
X59384611Y-95298037D01*
X59143114Y-95250000D01*
X58896886Y-95250000D01*
X58655389Y-95298037D01*
X58427903Y-95392265D01*
X58223172Y-95529062D01*
X58049062Y-95703172D01*
X57912265Y-95907903D01*
X57818037Y-96135389D01*
X57770000Y-96376886D01*
X57731935Y-96376886D01*
X57731935Y-96075000D01*
X57716046Y-95913673D01*
X57668988Y-95758546D01*
X57592571Y-95615580D01*
X57489731Y-95490269D01*
X57364420Y-95387429D01*
X57221454Y-95311012D01*
X57066327Y-95263954D01*
X56905000Y-95248065D01*
X56055000Y-95248065D01*
X55893673Y-95263954D01*
X55738546Y-95311012D01*
X55595580Y-95387429D01*
X55470269Y-95490269D01*
X55367429Y-95615580D01*
X55291012Y-95758546D01*
X55243954Y-95913673D01*
X55228065Y-96075000D01*
X46975000Y-96075000D01*
X46975000Y-75580000D01*
X52047097Y-75580000D01*
X52058682Y-75697621D01*
X52092990Y-75810721D01*
X52148704Y-75914955D01*
X52223683Y-76006317D01*
X52315045Y-76081296D01*
X52419279Y-76137010D01*
X52532379Y-76171318D01*
X52650000Y-76182903D01*
X52878824Y-76181695D01*
X52703172Y-76299062D01*
X52529062Y-76473172D01*
X52392265Y-76677903D01*
X52298037Y-76905389D01*
X52250000Y-77146886D01*
X52250000Y-77393114D01*
X52298037Y-77634611D01*
X52392265Y-77862097D01*
X52529062Y-78066828D01*
X52703172Y-78240938D01*
X52907903Y-78377735D01*
X53135389Y-78471963D01*
X53376886Y-78520000D01*
X53623114Y-78520000D01*
X53864611Y-78471963D01*
X54092097Y-78377735D01*
X54296828Y-78240938D01*
X54470938Y-78066828D01*
X54607735Y-77862097D01*
X54701963Y-77634611D01*
X54750000Y-77393114D01*
X54750000Y-77146886D01*
X54701963Y-76905389D01*
X54607735Y-76677903D01*
X54470938Y-76473172D01*
X54296828Y-76299062D01*
X54121176Y-76181695D01*
X54350000Y-76182903D01*
X54467621Y-76171318D01*
X54580721Y-76137010D01*
X54684955Y-76081296D01*
X54776317Y-76006317D01*
X54851296Y-75914955D01*
X54907010Y-75810721D01*
X54941318Y-75697621D01*
X54952903Y-75580000D01*
X54950000Y-75030000D01*
X54800000Y-74880000D01*
X53650000Y-74880000D01*
X53650000Y-74900000D01*
X53350000Y-74900000D01*
X53350000Y-74880000D01*
X52200000Y-74880000D01*
X52050000Y-75030000D01*
X52047097Y-75580000D01*
X46975000Y-75580000D01*
X46975000Y-73880000D01*
X52047097Y-73880000D01*
X52050000Y-74430000D01*
X52200000Y-74580000D01*
X53350000Y-74580000D01*
X53350000Y-73430000D01*
X53650000Y-73430000D01*
X53650000Y-74580000D01*
X54800000Y-74580000D01*
X54950000Y-74430000D01*
X54952903Y-73880000D01*
X54941318Y-73762379D01*
X54907010Y-73649279D01*
X54851296Y-73545045D01*
X54776317Y-73453683D01*
X54684955Y-73378704D01*
X54580721Y-73322990D01*
X54467621Y-73288682D01*
X54350000Y-73277097D01*
X53800000Y-73280000D01*
X53650000Y-73430000D01*
X53350000Y-73430000D01*
X53200000Y-73280000D01*
X52650000Y-73277097D01*
X52532379Y-73288682D01*
X52419279Y-73322990D01*
X52315045Y-73378704D01*
X52223683Y-73453683D01*
X52148704Y-73545045D01*
X52092990Y-73649279D01*
X52058682Y-73762379D01*
X52047097Y-73880000D01*
X46975000Y-73880000D01*
X46975000Y-67490000D01*
X66157097Y-67490000D01*
X66168682Y-67607621D01*
X66202990Y-67720721D01*
X66258704Y-67824955D01*
X66328499Y-67910000D01*
X66258704Y-67995045D01*
X66202990Y-68099279D01*
X66168682Y-68212379D01*
X66157097Y-68330000D01*
X66160000Y-68880000D01*
X66310000Y-69030000D01*
X67460000Y-69030000D01*
X67460000Y-66790000D01*
X67760000Y-66790000D01*
X67760000Y-69030000D01*
X68910000Y-69030000D01*
X69060000Y-68880000D01*
X69062903Y-68330000D01*
X69051318Y-68212379D01*
X69017010Y-68099279D01*
X68961296Y-67995045D01*
X68891501Y-67910000D01*
X68961296Y-67824955D01*
X69017010Y-67720721D01*
X69051318Y-67607621D01*
X69062903Y-67490000D01*
X69060000Y-66940000D01*
X68910000Y-66790000D01*
X67760000Y-66790000D01*
X67460000Y-66790000D01*
X66310000Y-66790000D01*
X66160000Y-66940000D01*
X66157097Y-67490000D01*
X46975000Y-67490000D01*
X46975000Y-65790000D01*
X66157097Y-65790000D01*
X66160000Y-66340000D01*
X66310000Y-66490000D01*
X67460000Y-66490000D01*
X67460000Y-66470000D01*
X67760000Y-66470000D01*
X67760000Y-66490000D01*
X68910000Y-66490000D01*
X69060000Y-66340000D01*
X69062903Y-65790000D01*
X69051318Y-65672379D01*
X69017010Y-65559279D01*
X68961296Y-65455045D01*
X68886317Y-65363683D01*
X68794955Y-65288704D01*
X68690721Y-65232990D01*
X68577621Y-65198682D01*
X68460000Y-65187097D01*
X68231176Y-65188305D01*
X68406828Y-65070938D01*
X68580938Y-64896828D01*
X68717735Y-64692097D01*
X68811963Y-64464611D01*
X68860000Y-64223114D01*
X68860000Y-63976886D01*
X68811963Y-63735389D01*
X68717735Y-63507903D01*
X68580938Y-63303172D01*
X68406828Y-63129062D01*
X68202097Y-62992265D01*
X67974611Y-62898037D01*
X67733114Y-62850000D01*
X67486886Y-62850000D01*
X67245389Y-62898037D01*
X67017903Y-62992265D01*
X66813172Y-63129062D01*
X66639062Y-63303172D01*
X66502265Y-63507903D01*
X66408037Y-63735389D01*
X66360000Y-63976886D01*
X66360000Y-64223114D01*
X66408037Y-64464611D01*
X66502265Y-64692097D01*
X66639062Y-64896828D01*
X66813172Y-65070938D01*
X66988824Y-65188305D01*
X66760000Y-65187097D01*
X66642379Y-65198682D01*
X66529279Y-65232990D01*
X66425045Y-65288704D01*
X66333683Y-65363683D01*
X66258704Y-65455045D01*
X66202990Y-65559279D01*
X66168682Y-65672379D01*
X66157097Y-65790000D01*
X46975000Y-65790000D01*
X46975000Y-63362112D01*
X48100000Y-63362112D01*
X48100000Y-63637888D01*
X48153801Y-63908365D01*
X48259336Y-64163149D01*
X48412549Y-64392448D01*
X48607552Y-64587451D01*
X48836851Y-64740664D01*
X49091635Y-64846199D01*
X49362112Y-64900000D01*
X49637888Y-64900000D01*
X49908365Y-64846199D01*
X50163149Y-64740664D01*
X50392448Y-64587451D01*
X50587451Y-64392448D01*
X50740664Y-64163149D01*
X50846199Y-63908365D01*
X50900000Y-63637888D01*
X50900000Y-63362112D01*
X50846199Y-63091635D01*
X50740664Y-62836851D01*
X50587451Y-62607552D01*
X50392448Y-62412549D01*
X50163149Y-62259336D01*
X49908365Y-62153801D01*
X49637888Y-62100000D01*
X49362112Y-62100000D01*
X49091635Y-62153801D01*
X48836851Y-62259336D01*
X48607552Y-62412549D01*
X48412549Y-62607552D01*
X48259336Y-62836851D01*
X48153801Y-63091635D01*
X48100000Y-63362112D01*
X46975000Y-63362112D01*
X46975000Y-61436886D01*
X66360000Y-61436886D01*
X66360000Y-61683114D01*
X66408037Y-61924611D01*
X66502265Y-62152097D01*
X66639062Y-62356828D01*
X66813172Y-62530938D01*
X67017903Y-62667735D01*
X67245389Y-62761963D01*
X67486886Y-62810000D01*
X67733114Y-62810000D01*
X67974611Y-62761963D01*
X68202097Y-62667735D01*
X68406828Y-62530938D01*
X68580938Y-62356828D01*
X68717735Y-62152097D01*
X68811963Y-61924611D01*
X68860000Y-61683114D01*
X68860000Y-61436886D01*
X68811963Y-61195389D01*
X68717735Y-60967903D01*
X68580938Y-60763172D01*
X68406828Y-60589062D01*
X68202097Y-60452265D01*
X67974611Y-60358037D01*
X67733114Y-60310000D01*
X67486886Y-60310000D01*
X67245389Y-60358037D01*
X67017903Y-60452265D01*
X66813172Y-60589062D01*
X66639062Y-60763172D01*
X66502265Y-60967903D01*
X66408037Y-61195389D01*
X66360000Y-61436886D01*
X46975000Y-61436886D01*
X46975000Y-57197338D01*
X66950000Y-57197338D01*
X66950000Y-57502662D01*
X67009565Y-57802118D01*
X67126408Y-58084200D01*
X67296036Y-58338068D01*
X67511932Y-58553964D01*
X67765800Y-58723592D01*
X68047882Y-58840435D01*
X68347338Y-58900000D01*
X68652662Y-58900000D01*
X68952118Y-58840435D01*
X69234200Y-58723592D01*
X69488068Y-58553964D01*
X69703964Y-58338068D01*
X69873592Y-58084200D01*
X69990435Y-57802118D01*
X70050000Y-57502662D01*
X70050000Y-57197338D01*
X69990435Y-56897882D01*
X69873592Y-56615800D01*
X69703964Y-56361932D01*
X69488068Y-56146036D01*
X69234200Y-55976408D01*
X68952118Y-55859565D01*
X68652662Y-55800000D01*
X68347338Y-55800000D01*
X68047882Y-55859565D01*
X67765800Y-55976408D01*
X67511932Y-56146036D01*
X67296036Y-56361932D01*
X67126408Y-56615800D01*
X67009565Y-56897882D01*
X66950000Y-57197338D01*
X46975000Y-57197338D01*
X46975000Y-51023231D01*
X47004800Y-50719299D01*
X47150000Y-50719299D01*
X47150000Y-51280701D01*
X47259524Y-51831314D01*
X47474363Y-52349981D01*
X47786260Y-52816769D01*
X48183231Y-53213740D01*
X48650019Y-53525637D01*
X49168686Y-53740476D01*
X49719299Y-53850000D01*
X50280701Y-53850000D01*
X50831314Y-53740476D01*
X51349981Y-53525637D01*
X51816769Y-53213740D01*
X52213740Y-52816769D01*
X52525637Y-52349981D01*
X52740476Y-51831314D01*
X52850000Y-51280701D01*
X52850000Y-50719299D01*
X52740476Y-50168686D01*
X52525637Y-49650019D01*
X52213740Y-49183231D01*
X51816769Y-48786260D01*
X51349981Y-48474363D01*
X50831314Y-48259524D01*
X50280701Y-48150000D01*
X49719299Y-48150000D01*
X49168686Y-48259524D01*
X48650019Y-48474363D01*
X48183231Y-48786260D01*
X47786260Y-49183231D01*
X47474363Y-49650019D01*
X47259524Y-50168686D01*
X47150000Y-50719299D01*
X47004800Y-50719299D01*
X47034845Y-50412885D01*
X47205355Y-49848129D01*
X47482311Y-49327250D01*
X47855166Y-48870085D01*
X48309716Y-48494049D01*
X48828650Y-48213463D01*
X49392195Y-48039017D01*
X50001270Y-47975000D01*
X53709314Y-47975000D01*
X52967157Y-48717157D01*
G37*
X52967157Y-48717157D02*
X52917412Y-48777772D01*
X52880448Y-48846927D01*
X52857686Y-48921964D01*
X52850000Y-49000000D01*
X52850000Y-50250000D01*
X52857686Y-50328036D01*
X52880448Y-50403073D01*
X52917412Y-50472228D01*
X52967157Y-50532843D01*
X53666717Y-51232403D01*
X53648660Y-51266186D01*
X53625788Y-51341586D01*
X53618065Y-51420000D01*
X53618065Y-53120000D01*
X53625788Y-53198414D01*
X53648660Y-53273814D01*
X53685803Y-53343303D01*
X53735789Y-53404211D01*
X53796697Y-53454197D01*
X53866186Y-53491340D01*
X53941586Y-53514212D01*
X54020000Y-53521935D01*
X55720000Y-53521935D01*
X55798414Y-53514212D01*
X55873814Y-53491340D01*
X55943303Y-53454197D01*
X56004211Y-53404211D01*
X56054197Y-53343303D01*
X56091340Y-53273814D01*
X56114212Y-53198414D01*
X56121935Y-53120000D01*
X56121935Y-51650000D01*
X56320909Y-51650000D01*
X56302265Y-51677903D01*
X56208037Y-51905389D01*
X56160000Y-52146886D01*
X56160000Y-52393114D01*
X56208037Y-52634611D01*
X56302265Y-52862097D01*
X56439062Y-53066828D01*
X56613172Y-53240938D01*
X56817903Y-53377735D01*
X57045389Y-53471963D01*
X57286886Y-53520000D01*
X57533114Y-53520000D01*
X57774611Y-53471963D01*
X58002097Y-53377735D01*
X58206828Y-53240938D01*
X58380938Y-53066828D01*
X58517735Y-52862097D01*
X58611963Y-52634611D01*
X58660000Y-52393114D01*
X58660000Y-52146886D01*
X58611963Y-51905389D01*
X58517735Y-51677903D01*
X58499091Y-51650000D01*
X58860909Y-51650000D01*
X58842265Y-51677903D01*
X58748037Y-51905389D01*
X58700000Y-52146886D01*
X58700000Y-52393114D01*
X58748037Y-52634611D01*
X58842265Y-52862097D01*
X58979062Y-53066828D01*
X59153172Y-53240938D01*
X59357903Y-53377735D01*
X59585389Y-53471963D01*
X59826886Y-53520000D01*
X60073114Y-53520000D01*
X60314611Y-53471963D01*
X60542097Y-53377735D01*
X60746828Y-53240938D01*
X60920938Y-53066828D01*
X61057735Y-52862097D01*
X61151963Y-52634611D01*
X61200000Y-52393114D01*
X61200000Y-52146886D01*
X61151963Y-51905389D01*
X61057735Y-51677903D01*
X61039091Y-51650000D01*
X61400909Y-51650000D01*
X61382265Y-51677903D01*
X61288037Y-51905389D01*
X61240000Y-52146886D01*
X61240000Y-52393114D01*
X61288037Y-52634611D01*
X61382265Y-52862097D01*
X61519062Y-53066828D01*
X61693172Y-53240938D01*
X61897903Y-53377735D01*
X62125389Y-53471963D01*
X62366886Y-53520000D01*
X62613114Y-53520000D01*
X62854611Y-53471963D01*
X63082097Y-53377735D01*
X63286828Y-53240938D01*
X63460938Y-53066828D01*
X63597735Y-52862097D01*
X63657118Y-52718735D01*
X63728833Y-52909908D01*
X63878674Y-53151457D01*
X64072760Y-53359133D01*
X64303632Y-53524954D01*
X64562418Y-53642548D01*
X64656234Y-53671000D01*
X64880000Y-53561317D01*
X64880000Y-52420000D01*
X64860000Y-52420000D01*
X64860000Y-52120000D01*
X64880000Y-52120000D01*
X64880000Y-52100000D01*
X65180000Y-52100000D01*
X65180000Y-52120000D01*
X65200000Y-52120000D01*
X65200000Y-52420000D01*
X65180000Y-52420000D01*
X65180000Y-53561317D01*
X65403766Y-53671000D01*
X65497582Y-53642548D01*
X65756368Y-53524954D01*
X65987240Y-53359133D01*
X66181326Y-53151457D01*
X66331167Y-52909908D01*
X66402882Y-52718735D01*
X66462265Y-52862097D01*
X66599062Y-53066828D01*
X66773172Y-53240938D01*
X66977903Y-53377735D01*
X67205389Y-53471963D01*
X67446886Y-53520000D01*
X67693114Y-53520000D01*
X67934611Y-53471963D01*
X68162097Y-53377735D01*
X68366828Y-53240938D01*
X68540938Y-53066828D01*
X68677735Y-52862097D01*
X68771963Y-52634611D01*
X68820000Y-52393114D01*
X68820000Y-52146886D01*
X68771963Y-51905389D01*
X68677735Y-51677903D01*
X68659091Y-51650000D01*
X69020909Y-51650000D01*
X69002265Y-51677903D01*
X68908037Y-51905389D01*
X68860000Y-52146886D01*
X68860000Y-52393114D01*
X68908037Y-52634611D01*
X69002265Y-52862097D01*
X69139062Y-53066828D01*
X69313172Y-53240938D01*
X69517903Y-53377735D01*
X69745389Y-53471963D01*
X69986886Y-53520000D01*
X70233114Y-53520000D01*
X70474611Y-53471963D01*
X70702097Y-53377735D01*
X70804300Y-53309445D01*
X70950137Y-56262648D01*
X70950001Y-56264032D01*
X70950001Y-60592235D01*
X70946828Y-60589062D01*
X70742097Y-60452265D01*
X70514611Y-60358037D01*
X70273114Y-60310000D01*
X70026886Y-60310000D01*
X69785389Y-60358037D01*
X69557903Y-60452265D01*
X69353172Y-60589062D01*
X69179062Y-60763172D01*
X69042265Y-60967903D01*
X68948037Y-61195389D01*
X68900000Y-61436886D01*
X68900000Y-61683114D01*
X68948037Y-61924611D01*
X69042265Y-62152097D01*
X69179062Y-62356828D01*
X69353172Y-62530938D01*
X69557903Y-62667735D01*
X69785389Y-62761963D01*
X70026886Y-62810000D01*
X70273114Y-62810000D01*
X70514611Y-62761963D01*
X70742097Y-62667735D01*
X70946828Y-62530938D01*
X70950000Y-62527766D01*
X70950000Y-67725126D01*
X69060709Y-69614417D01*
X69060000Y-69480000D01*
X68910000Y-69330000D01*
X67760000Y-69330000D01*
X67760000Y-69350000D01*
X67460000Y-69350000D01*
X67460000Y-69330000D01*
X66310000Y-69330000D01*
X66160000Y-69480000D01*
X66157097Y-70030000D01*
X66168682Y-70147621D01*
X66202990Y-70260721D01*
X66258704Y-70364955D01*
X66333683Y-70456317D01*
X66363273Y-70480601D01*
X66147888Y-70743048D01*
X65985388Y-71047064D01*
X65885321Y-71376940D01*
X65851533Y-71720000D01*
X65885321Y-72063060D01*
X65985388Y-72392936D01*
X66147888Y-72696952D01*
X66366576Y-72963424D01*
X66633048Y-73182112D01*
X66937064Y-73344612D01*
X67266940Y-73444679D01*
X67524032Y-73470000D01*
X69344035Y-73470000D01*
X69430000Y-73478467D01*
X69515965Y-73470000D01*
X69515968Y-73470000D01*
X69773060Y-73444679D01*
X70102936Y-73344612D01*
X70406952Y-73182112D01*
X70673424Y-72963424D01*
X70728229Y-72896644D01*
X72927535Y-70697338D01*
X82950000Y-70697338D01*
X82950000Y-71002662D01*
X83009565Y-71302118D01*
X83126408Y-71584200D01*
X83296036Y-71838068D01*
X83511932Y-72053964D01*
X83765800Y-72223592D01*
X84047882Y-72340435D01*
X84347338Y-72400000D01*
X84652662Y-72400000D01*
X84952118Y-72340435D01*
X85234200Y-72223592D01*
X85488068Y-72053964D01*
X85703964Y-71838068D01*
X85873592Y-71584200D01*
X85990435Y-71302118D01*
X86050000Y-71002662D01*
X86050000Y-70697338D01*
X85990435Y-70397882D01*
X85873592Y-70115800D01*
X85703964Y-69861932D01*
X85488068Y-69646036D01*
X85234200Y-69476408D01*
X84952118Y-69359565D01*
X84652662Y-69300000D01*
X84347338Y-69300000D01*
X84047882Y-69359565D01*
X83765800Y-69476408D01*
X83511932Y-69646036D01*
X83296036Y-69861932D01*
X83126408Y-70115800D01*
X83009565Y-70397882D01*
X82950000Y-70697338D01*
X72927535Y-70697338D01*
X73876651Y-69748223D01*
X73943424Y-69693424D01*
X74118577Y-69480000D01*
X74162112Y-69426953D01*
X74324611Y-69122937D01*
X74324612Y-69122936D01*
X74424679Y-68793060D01*
X74450000Y-68535968D01*
X74450000Y-68535959D01*
X74458466Y-68450001D01*
X74450000Y-68364043D01*
X74450000Y-56264032D01*
X74449637Y-56260343D01*
X74449921Y-56257945D01*
X74508333Y-53317886D01*
X74597903Y-53377735D01*
X74825389Y-53471963D01*
X75066886Y-53520000D01*
X75313114Y-53520000D01*
X75554611Y-53471963D01*
X75782097Y-53377735D01*
X75986828Y-53240938D01*
X76160938Y-53066828D01*
X76297735Y-52862097D01*
X76391963Y-52634611D01*
X76440000Y-52393114D01*
X76440000Y-52146886D01*
X76391963Y-51905389D01*
X76297735Y-51677903D01*
X76160938Y-51473172D01*
X75986828Y-51299062D01*
X75782097Y-51162265D01*
X75554611Y-51068037D01*
X75313114Y-51020000D01*
X75066886Y-51020000D01*
X74825389Y-51068037D01*
X74597903Y-51162265D01*
X74550531Y-51193918D01*
X74558135Y-50811163D01*
X74597903Y-50837735D01*
X74825389Y-50931963D01*
X75066886Y-50980000D01*
X75313114Y-50980000D01*
X75554611Y-50931963D01*
X75782097Y-50837735D01*
X75986828Y-50700938D01*
X76160938Y-50526828D01*
X76297735Y-50322097D01*
X76357118Y-50178735D01*
X76428833Y-50369908D01*
X76578674Y-50611457D01*
X76772760Y-50819133D01*
X77003632Y-50984954D01*
X77262418Y-51102548D01*
X77273765Y-51105989D01*
X77137903Y-51162265D01*
X76933172Y-51299062D01*
X76759062Y-51473172D01*
X76622265Y-51677903D01*
X76528037Y-51905389D01*
X76480000Y-52146886D01*
X76480000Y-52393114D01*
X76528037Y-52634611D01*
X76622265Y-52862097D01*
X76759062Y-53066828D01*
X76933172Y-53240938D01*
X77137903Y-53377735D01*
X77365389Y-53471963D01*
X77606886Y-53520000D01*
X77853114Y-53520000D01*
X78094611Y-53471963D01*
X78322097Y-53377735D01*
X78526828Y-53240938D01*
X78700938Y-53066828D01*
X78837735Y-52862097D01*
X78931963Y-52634611D01*
X78980000Y-52393114D01*
X78980000Y-52146886D01*
X79020000Y-52146886D01*
X79020000Y-52393114D01*
X79068037Y-52634611D01*
X79162265Y-52862097D01*
X79299062Y-53066828D01*
X79473172Y-53240938D01*
X79677903Y-53377735D01*
X79905389Y-53471963D01*
X80146886Y-53520000D01*
X80393114Y-53520000D01*
X80634611Y-53471963D01*
X80862097Y-53377735D01*
X81066828Y-53240938D01*
X81240938Y-53066828D01*
X81377735Y-52862097D01*
X81471963Y-52634611D01*
X81520000Y-52393114D01*
X81520000Y-52146886D01*
X81471963Y-51905389D01*
X81377735Y-51677903D01*
X81240938Y-51473172D01*
X81066828Y-51299062D01*
X80862097Y-51162265D01*
X80634611Y-51068037D01*
X80393114Y-51020000D01*
X80146886Y-51020000D01*
X79905389Y-51068037D01*
X79677903Y-51162265D01*
X79473172Y-51299062D01*
X79299062Y-51473172D01*
X79162265Y-51677903D01*
X79068037Y-51905389D01*
X79020000Y-52146886D01*
X78980000Y-52146886D01*
X78931963Y-51905389D01*
X78837735Y-51677903D01*
X78700938Y-51473172D01*
X78526828Y-51299062D01*
X78322097Y-51162265D01*
X78186235Y-51105989D01*
X78197582Y-51102548D01*
X78456368Y-50984954D01*
X78687240Y-50819133D01*
X78881326Y-50611457D01*
X79031167Y-50369908D01*
X79102882Y-50178735D01*
X79162265Y-50322097D01*
X79299062Y-50526828D01*
X79473172Y-50700938D01*
X79677903Y-50837735D01*
X79905389Y-50931963D01*
X80146886Y-50980000D01*
X80393114Y-50980000D01*
X80634611Y-50931963D01*
X80862097Y-50837735D01*
X81066828Y-50700938D01*
X81240938Y-50526828D01*
X81377735Y-50322097D01*
X81471963Y-50094611D01*
X81520000Y-49853114D01*
X81520000Y-49606886D01*
X81560000Y-49606886D01*
X81560000Y-49853114D01*
X81608037Y-50094611D01*
X81702265Y-50322097D01*
X81839062Y-50526828D01*
X82013172Y-50700938D01*
X82217903Y-50837735D01*
X82445389Y-50931963D01*
X82686886Y-50980000D01*
X82933114Y-50980000D01*
X83174611Y-50931963D01*
X83241709Y-50904170D01*
X83550001Y-51212463D01*
X83550001Y-51261091D01*
X83402097Y-51162265D01*
X83174611Y-51068037D01*
X82933114Y-51020000D01*
X82686886Y-51020000D01*
X82445389Y-51068037D01*
X82217903Y-51162265D01*
X82013172Y-51299062D01*
X81839062Y-51473172D01*
X81702265Y-51677903D01*
X81608037Y-51905389D01*
X81560000Y-52146886D01*
X81560000Y-52393114D01*
X81608037Y-52634611D01*
X81702265Y-52862097D01*
X81839062Y-53066828D01*
X82013172Y-53240938D01*
X82217903Y-53377735D01*
X82285001Y-53405528D01*
X82285000Y-56534220D01*
X82282461Y-56560000D01*
X82285000Y-56585780D01*
X82285000Y-56585787D01*
X82292597Y-56662917D01*
X82322617Y-56761880D01*
X82371367Y-56853086D01*
X82436973Y-56933027D01*
X82457010Y-56949471D01*
X90335000Y-64827462D01*
X90335000Y-64963793D01*
X90365743Y-65118351D01*
X90426049Y-65263942D01*
X90513599Y-65394970D01*
X90625030Y-65506401D01*
X90756058Y-65593951D01*
X90901649Y-65654257D01*
X91056207Y-65685000D01*
X91213793Y-65685000D01*
X91368351Y-65654257D01*
X91513942Y-65593951D01*
X91644970Y-65506401D01*
X91756401Y-65394970D01*
X91843951Y-65263942D01*
X91904257Y-65118351D01*
X91935000Y-64963793D01*
X91935000Y-64806207D01*
X91904257Y-64651649D01*
X91843951Y-64506058D01*
X91756401Y-64375030D01*
X91644970Y-64263599D01*
X91624615Y-64249998D01*
X91644964Y-64236401D01*
X91756395Y-64124970D01*
X91843945Y-63993942D01*
X91904251Y-63848351D01*
X91934994Y-63693793D01*
X91934994Y-63536207D01*
X91904251Y-63381649D01*
X91843945Y-63236058D01*
X91756395Y-63105030D01*
X91644964Y-62993599D01*
X91513936Y-62906049D01*
X91368345Y-62845743D01*
X91213787Y-62815000D01*
X91077456Y-62815000D01*
X84600000Y-56337545D01*
X84600000Y-53507981D01*
X84623632Y-53524954D01*
X84882418Y-53642548D01*
X84976234Y-53671000D01*
X85200000Y-53561317D01*
X85200000Y-52420000D01*
X85180000Y-52420000D01*
X85180000Y-52120000D01*
X85200000Y-52120000D01*
X85200000Y-52100000D01*
X85500000Y-52100000D01*
X85500000Y-52120000D01*
X85520000Y-52120000D01*
X85520000Y-52420000D01*
X85500000Y-52420000D01*
X85500000Y-53561317D01*
X85723766Y-53671000D01*
X85817582Y-53642548D01*
X86076368Y-53524954D01*
X86307240Y-53359133D01*
X86501326Y-53151457D01*
X86651167Y-52909908D01*
X86722882Y-52718735D01*
X86782265Y-52862097D01*
X86919062Y-53066828D01*
X87093172Y-53240938D01*
X87297903Y-53377735D01*
X87525389Y-53471963D01*
X87766886Y-53520000D01*
X88013114Y-53520000D01*
X88254611Y-53471963D01*
X88482097Y-53377735D01*
X88686828Y-53240938D01*
X88860938Y-53066828D01*
X88997735Y-52862097D01*
X89091963Y-52634611D01*
X89140000Y-52393114D01*
X89140000Y-52146886D01*
X89091963Y-51905389D01*
X88997735Y-51677903D01*
X88860938Y-51473172D01*
X88686828Y-51299062D01*
X88482097Y-51162265D01*
X88254611Y-51068037D01*
X88013114Y-51020000D01*
X87766886Y-51020000D01*
X87525389Y-51068037D01*
X87297903Y-51162265D01*
X87093172Y-51299062D01*
X86919062Y-51473172D01*
X86782265Y-51677903D01*
X86722882Y-51821265D01*
X86651167Y-51630092D01*
X86501326Y-51388543D01*
X86307240Y-51180867D01*
X86076368Y-51015046D01*
X85817582Y-50897452D01*
X85806235Y-50894011D01*
X85942097Y-50837735D01*
X86146828Y-50700938D01*
X86320938Y-50526828D01*
X86457735Y-50322097D01*
X86551963Y-50094611D01*
X86600000Y-49853114D01*
X86600000Y-49606886D01*
X86640000Y-49606886D01*
X86640000Y-49853114D01*
X86688037Y-50094611D01*
X86782265Y-50322097D01*
X86919062Y-50526828D01*
X87093172Y-50700938D01*
X87297903Y-50837735D01*
X87525389Y-50931963D01*
X87766886Y-50980000D01*
X88013114Y-50980000D01*
X88254611Y-50931963D01*
X88482097Y-50837735D01*
X88686828Y-50700938D01*
X88860938Y-50526828D01*
X88997735Y-50322097D01*
X89057118Y-50178735D01*
X89128833Y-50369908D01*
X89278674Y-50611457D01*
X89472760Y-50819133D01*
X89703632Y-50984954D01*
X89962418Y-51102548D01*
X89973765Y-51105989D01*
X89837903Y-51162265D01*
X89633172Y-51299062D01*
X89459062Y-51473172D01*
X89322265Y-51677903D01*
X89228037Y-51905389D01*
X89180000Y-52146886D01*
X89180000Y-52393114D01*
X89228037Y-52634611D01*
X89322265Y-52862097D01*
X89459062Y-53066828D01*
X89633172Y-53240938D01*
X89837903Y-53377735D01*
X90065389Y-53471963D01*
X90306886Y-53520000D01*
X90553114Y-53520000D01*
X90794611Y-53471963D01*
X91022097Y-53377735D01*
X91226828Y-53240938D01*
X91400938Y-53066828D01*
X91537735Y-52862097D01*
X91631963Y-52634611D01*
X91680000Y-52393114D01*
X91680000Y-52146886D01*
X91720000Y-52146886D01*
X91720000Y-52393114D01*
X91768037Y-52634611D01*
X91862265Y-52862097D01*
X91999062Y-53066828D01*
X92173172Y-53240938D01*
X92377903Y-53377735D01*
X92605389Y-53471963D01*
X92846886Y-53520000D01*
X93093114Y-53520000D01*
X93334611Y-53471963D01*
X93562097Y-53377735D01*
X93766828Y-53240938D01*
X93940938Y-53066828D01*
X94077735Y-52862097D01*
X94171963Y-52634611D01*
X94220000Y-52393114D01*
X94220000Y-52146886D01*
X94171963Y-51905389D01*
X94077735Y-51677903D01*
X93940938Y-51473172D01*
X93766828Y-51299062D01*
X93562097Y-51162265D01*
X93334611Y-51068037D01*
X93093114Y-51020000D01*
X92846886Y-51020000D01*
X92605389Y-51068037D01*
X92377903Y-51162265D01*
X92173172Y-51299062D01*
X91999062Y-51473172D01*
X91862265Y-51677903D01*
X91768037Y-51905389D01*
X91720000Y-52146886D01*
X91680000Y-52146886D01*
X91631963Y-51905389D01*
X91537735Y-51677903D01*
X91400938Y-51473172D01*
X91226828Y-51299062D01*
X91022097Y-51162265D01*
X90886235Y-51105989D01*
X90897582Y-51102548D01*
X91156368Y-50984954D01*
X91387240Y-50819133D01*
X91581326Y-50611457D01*
X91731167Y-50369908D01*
X91802882Y-50178735D01*
X91862265Y-50322097D01*
X91999062Y-50526828D01*
X92173172Y-50700938D01*
X92377903Y-50837735D01*
X92605389Y-50931963D01*
X92846886Y-50980000D01*
X93093114Y-50980000D01*
X93334611Y-50931963D01*
X93562097Y-50837735D01*
X93766828Y-50700938D01*
X93940938Y-50526828D01*
X94077735Y-50322097D01*
X94137118Y-50178735D01*
X94208833Y-50369908D01*
X94358674Y-50611457D01*
X94552760Y-50819133D01*
X94783632Y-50984954D01*
X95042418Y-51102548D01*
X95053765Y-51105989D01*
X94917903Y-51162265D01*
X94713172Y-51299062D01*
X94539062Y-51473172D01*
X94402265Y-51677903D01*
X94308037Y-51905389D01*
X94260000Y-52146886D01*
X94260000Y-52393114D01*
X94308037Y-52634611D01*
X94402265Y-52862097D01*
X94539062Y-53066828D01*
X94713172Y-53240938D01*
X94917903Y-53377735D01*
X95145389Y-53471963D01*
X95386886Y-53520000D01*
X95633114Y-53520000D01*
X95874611Y-53471963D01*
X96102097Y-53377735D01*
X96306828Y-53240938D01*
X96480938Y-53066828D01*
X96617735Y-52862097D01*
X96711963Y-52634611D01*
X96760000Y-52393114D01*
X96760000Y-52146886D01*
X96800000Y-52146886D01*
X96800000Y-52393114D01*
X96848037Y-52634611D01*
X96942265Y-52862097D01*
X97079062Y-53066828D01*
X97253172Y-53240938D01*
X97457903Y-53377735D01*
X97685389Y-53471963D01*
X97926886Y-53520000D01*
X98173114Y-53520000D01*
X98414611Y-53471963D01*
X98642097Y-53377735D01*
X98846828Y-53240938D01*
X99020938Y-53066828D01*
X99157735Y-52862097D01*
X99251963Y-52634611D01*
X99300000Y-52393114D01*
X99300000Y-52146886D01*
X99340000Y-52146886D01*
X99340000Y-52393114D01*
X99388037Y-52634611D01*
X99482265Y-52862097D01*
X99619062Y-53066828D01*
X99793172Y-53240938D01*
X99997903Y-53377735D01*
X100225389Y-53471963D01*
X100466886Y-53520000D01*
X100713114Y-53520000D01*
X100954611Y-53471963D01*
X101182097Y-53377735D01*
X101386828Y-53240938D01*
X101560938Y-53066828D01*
X101697735Y-52862097D01*
X101757118Y-52718735D01*
X101828833Y-52909908D01*
X101978674Y-53151457D01*
X102172760Y-53359133D01*
X102403632Y-53524954D01*
X102662418Y-53642548D01*
X102756234Y-53671000D01*
X102980000Y-53561317D01*
X102980000Y-52420000D01*
X103280000Y-52420000D01*
X103280000Y-53561317D01*
X103503766Y-53671000D01*
X103597582Y-53642548D01*
X103856368Y-53524954D01*
X104087240Y-53359133D01*
X104281326Y-53151457D01*
X104431167Y-52909908D01*
X104531005Y-52643767D01*
X104422226Y-52420000D01*
X103280000Y-52420000D01*
X102980000Y-52420000D01*
X102960000Y-52420000D01*
X102960000Y-52120000D01*
X102980000Y-52120000D01*
X102980000Y-52100000D01*
X103280000Y-52100000D01*
X103280000Y-52120000D01*
X104422226Y-52120000D01*
X104531005Y-51896233D01*
X104431167Y-51630092D01*
X104281326Y-51388543D01*
X104087240Y-51180867D01*
X103856368Y-51015046D01*
X103597582Y-50897452D01*
X103586235Y-50894011D01*
X103722097Y-50837735D01*
X103899348Y-50719299D01*
X105150000Y-50719299D01*
X105150000Y-51280701D01*
X105259524Y-51831314D01*
X105474363Y-52349981D01*
X105786260Y-52816769D01*
X106183231Y-53213740D01*
X106650019Y-53525637D01*
X107168686Y-53740476D01*
X107719299Y-53850000D01*
X108280701Y-53850000D01*
X108831314Y-53740476D01*
X109349981Y-53525637D01*
X109816769Y-53213740D01*
X110213740Y-52816769D01*
X110525637Y-52349981D01*
X110740476Y-51831314D01*
X110850000Y-51280701D01*
X110850000Y-50719299D01*
X110740476Y-50168686D01*
X110525637Y-49650019D01*
X110213740Y-49183231D01*
X109816769Y-48786260D01*
X109349981Y-48474363D01*
X108831314Y-48259524D01*
X108280701Y-48150000D01*
X107719299Y-48150000D01*
X107168686Y-48259524D01*
X106650019Y-48474363D01*
X106183231Y-48786260D01*
X105786260Y-49183231D01*
X105474363Y-49650019D01*
X105259524Y-50168686D01*
X105150000Y-50719299D01*
X103899348Y-50719299D01*
X103926828Y-50700938D01*
X104100938Y-50526828D01*
X104237735Y-50322097D01*
X104331963Y-50094611D01*
X104380000Y-49853114D01*
X104380000Y-49606886D01*
X104331963Y-49365389D01*
X104237735Y-49137903D01*
X104100938Y-48933172D01*
X103926828Y-48759062D01*
X103722097Y-48622265D01*
X103494611Y-48528037D01*
X103253114Y-48480000D01*
X103006886Y-48480000D01*
X102765389Y-48528037D01*
X102537903Y-48622265D01*
X102333172Y-48759062D01*
X102159062Y-48933172D01*
X102022265Y-49137903D01*
X101928037Y-49365389D01*
X101880000Y-49606886D01*
X101880000Y-49853114D01*
X101928037Y-50094611D01*
X102022265Y-50322097D01*
X102159062Y-50526828D01*
X102333172Y-50700938D01*
X102537903Y-50837735D01*
X102673765Y-50894011D01*
X102662418Y-50897452D01*
X102403632Y-51015046D01*
X102172760Y-51180867D01*
X101978674Y-51388543D01*
X101828833Y-51630092D01*
X101757118Y-51821265D01*
X101697735Y-51677903D01*
X101560938Y-51473172D01*
X101386828Y-51299062D01*
X101182097Y-51162265D01*
X100954611Y-51068037D01*
X100713114Y-51020000D01*
X100466886Y-51020000D01*
X100225389Y-51068037D01*
X99997903Y-51162265D01*
X99793172Y-51299062D01*
X99619062Y-51473172D01*
X99482265Y-51677903D01*
X99388037Y-51905389D01*
X99340000Y-52146886D01*
X99300000Y-52146886D01*
X99251963Y-51905389D01*
X99157735Y-51677903D01*
X99020938Y-51473172D01*
X98846828Y-51299062D01*
X98642097Y-51162265D01*
X98414611Y-51068037D01*
X98173114Y-51020000D01*
X97926886Y-51020000D01*
X97685389Y-51068037D01*
X97457903Y-51162265D01*
X97253172Y-51299062D01*
X97079062Y-51473172D01*
X96942265Y-51677903D01*
X96848037Y-51905389D01*
X96800000Y-52146886D01*
X96760000Y-52146886D01*
X96711963Y-51905389D01*
X96617735Y-51677903D01*
X96480938Y-51473172D01*
X96306828Y-51299062D01*
X96102097Y-51162265D01*
X95966235Y-51105989D01*
X95977582Y-51102548D01*
X96236368Y-50984954D01*
X96467240Y-50819133D01*
X96661326Y-50611457D01*
X96811167Y-50369908D01*
X96882882Y-50178735D01*
X96942265Y-50322097D01*
X97079062Y-50526828D01*
X97253172Y-50700938D01*
X97457903Y-50837735D01*
X97685389Y-50931963D01*
X97926886Y-50980000D01*
X98173114Y-50980000D01*
X98414611Y-50931963D01*
X98642097Y-50837735D01*
X98846828Y-50700938D01*
X99020938Y-50526828D01*
X99157735Y-50322097D01*
X99251963Y-50094611D01*
X99300000Y-49853114D01*
X99300000Y-49606886D01*
X99340000Y-49606886D01*
X99340000Y-49853114D01*
X99388037Y-50094611D01*
X99482265Y-50322097D01*
X99619062Y-50526828D01*
X99793172Y-50700938D01*
X99997903Y-50837735D01*
X100225389Y-50931963D01*
X100466886Y-50980000D01*
X100713114Y-50980000D01*
X100954611Y-50931963D01*
X101182097Y-50837735D01*
X101386828Y-50700938D01*
X101560938Y-50526828D01*
X101697735Y-50322097D01*
X101791963Y-50094611D01*
X101840000Y-49853114D01*
X101840000Y-49606886D01*
X101791963Y-49365389D01*
X101697735Y-49137903D01*
X101560938Y-48933172D01*
X101386828Y-48759062D01*
X101182097Y-48622265D01*
X100954611Y-48528037D01*
X100713114Y-48480000D01*
X100466886Y-48480000D01*
X100225389Y-48528037D01*
X99997903Y-48622265D01*
X99793172Y-48759062D01*
X99619062Y-48933172D01*
X99482265Y-49137903D01*
X99388037Y-49365389D01*
X99340000Y-49606886D01*
X99300000Y-49606886D01*
X99251963Y-49365389D01*
X99157735Y-49137903D01*
X99020938Y-48933172D01*
X98846828Y-48759062D01*
X98642097Y-48622265D01*
X98414611Y-48528037D01*
X98173114Y-48480000D01*
X97926886Y-48480000D01*
X97685389Y-48528037D01*
X97457903Y-48622265D01*
X97253172Y-48759062D01*
X97079062Y-48933172D01*
X96942265Y-49137903D01*
X96882882Y-49281265D01*
X96811167Y-49090092D01*
X96661326Y-48848543D01*
X96467240Y-48640867D01*
X96236368Y-48475046D01*
X95977582Y-48357452D01*
X95883766Y-48329000D01*
X95660000Y-48438683D01*
X95660000Y-49580000D01*
X95680000Y-49580000D01*
X95680000Y-49880000D01*
X95660000Y-49880000D01*
X95660000Y-49900000D01*
X95360000Y-49900000D01*
X95360000Y-49880000D01*
X95340000Y-49880000D01*
X95340000Y-49580000D01*
X95360000Y-49580000D01*
X95360000Y-48438683D01*
X95136234Y-48329000D01*
X95042418Y-48357452D01*
X94783632Y-48475046D01*
X94552760Y-48640867D01*
X94358674Y-48848543D01*
X94208833Y-49090092D01*
X94137118Y-49281265D01*
X94077735Y-49137903D01*
X93940938Y-48933172D01*
X93766828Y-48759062D01*
X93562097Y-48622265D01*
X93334611Y-48528037D01*
X93093114Y-48480000D01*
X92846886Y-48480000D01*
X92605389Y-48528037D01*
X92377903Y-48622265D01*
X92173172Y-48759062D01*
X91999062Y-48933172D01*
X91862265Y-49137903D01*
X91802882Y-49281265D01*
X91731167Y-49090092D01*
X91581326Y-48848543D01*
X91387240Y-48640867D01*
X91156368Y-48475046D01*
X90897582Y-48357452D01*
X90803766Y-48329000D01*
X90580000Y-48438683D01*
X90580000Y-49580000D01*
X90600000Y-49580000D01*
X90600000Y-49880000D01*
X90580000Y-49880000D01*
X90580000Y-49900000D01*
X90280000Y-49900000D01*
X90280000Y-49880000D01*
X90260000Y-49880000D01*
X90260000Y-49580000D01*
X90280000Y-49580000D01*
X90280000Y-48438683D01*
X90056234Y-48329000D01*
X89962418Y-48357452D01*
X89703632Y-48475046D01*
X89472760Y-48640867D01*
X89278674Y-48848543D01*
X89128833Y-49090092D01*
X89057118Y-49281265D01*
X88997735Y-49137903D01*
X88860938Y-48933172D01*
X88686828Y-48759062D01*
X88482097Y-48622265D01*
X88254611Y-48528037D01*
X88013114Y-48480000D01*
X87766886Y-48480000D01*
X87525389Y-48528037D01*
X87297903Y-48622265D01*
X87093172Y-48759062D01*
X86919062Y-48933172D01*
X86782265Y-49137903D01*
X86688037Y-49365389D01*
X86640000Y-49606886D01*
X86600000Y-49606886D01*
X86551963Y-49365389D01*
X86457735Y-49137903D01*
X86320938Y-48933172D01*
X86146828Y-48759062D01*
X85942097Y-48622265D01*
X85714611Y-48528037D01*
X85473114Y-48480000D01*
X85226886Y-48480000D01*
X84985389Y-48528037D01*
X84757903Y-48622265D01*
X84553172Y-48759062D01*
X84379062Y-48933172D01*
X84242265Y-49137903D01*
X84148037Y-49365389D01*
X84100000Y-49606886D01*
X84100000Y-49853114D01*
X84148037Y-50094611D01*
X84242265Y-50322097D01*
X84379062Y-50526828D01*
X84553172Y-50700938D01*
X84757903Y-50837735D01*
X84893765Y-50894011D01*
X84882418Y-50897452D01*
X84623632Y-51015046D01*
X84600000Y-51032019D01*
X84600000Y-51020779D01*
X84602539Y-50994999D01*
X84600000Y-50969219D01*
X84600000Y-50969212D01*
X84592403Y-50892082D01*
X84562383Y-50793119D01*
X84513633Y-50701914D01*
X84448027Y-50621973D01*
X84427996Y-50605534D01*
X83984170Y-50161709D01*
X84011963Y-50094611D01*
X84060000Y-49853114D01*
X84060000Y-49606886D01*
X84011963Y-49365389D01*
X83917735Y-49137903D01*
X83780938Y-48933172D01*
X83606828Y-48759062D01*
X83402097Y-48622265D01*
X83174611Y-48528037D01*
X82933114Y-48480000D01*
X82686886Y-48480000D01*
X82445389Y-48528037D01*
X82217903Y-48622265D01*
X82013172Y-48759062D01*
X81839062Y-48933172D01*
X81702265Y-49137903D01*
X81608037Y-49365389D01*
X81560000Y-49606886D01*
X81520000Y-49606886D01*
X81471963Y-49365389D01*
X81377735Y-49137903D01*
X81240938Y-48933172D01*
X81066828Y-48759062D01*
X80862097Y-48622265D01*
X80634611Y-48528037D01*
X80393114Y-48480000D01*
X80146886Y-48480000D01*
X79905389Y-48528037D01*
X79677903Y-48622265D01*
X79473172Y-48759062D01*
X79299062Y-48933172D01*
X79162265Y-49137903D01*
X79102882Y-49281265D01*
X79031167Y-49090092D01*
X78881326Y-48848543D01*
X78687240Y-48640867D01*
X78456368Y-48475046D01*
X78197582Y-48357452D01*
X78103766Y-48329000D01*
X77880000Y-48438683D01*
X77880000Y-49580000D01*
X77900000Y-49580000D01*
X77900000Y-49880000D01*
X77880000Y-49880000D01*
X77880000Y-49900000D01*
X77580000Y-49900000D01*
X77580000Y-49880000D01*
X77560000Y-49880000D01*
X77560000Y-49580000D01*
X77580000Y-49580000D01*
X77580000Y-48438683D01*
X77356234Y-48329000D01*
X77262418Y-48357452D01*
X77003632Y-48475046D01*
X76772760Y-48640867D01*
X76578674Y-48848543D01*
X76428833Y-49090092D01*
X76357118Y-49281265D01*
X76297735Y-49137903D01*
X76160938Y-48933172D01*
X75986828Y-48759062D01*
X75782097Y-48622265D01*
X75554611Y-48528037D01*
X75313114Y-48480000D01*
X75066886Y-48480000D01*
X74825389Y-48528037D01*
X74597903Y-48622265D01*
X74592651Y-48625774D01*
X74592314Y-48621964D01*
X74569552Y-48546927D01*
X74532588Y-48477772D01*
X74482843Y-48417157D01*
X74040686Y-47975000D01*
X107976769Y-47975000D01*
X108587115Y-48034845D01*
X109151871Y-48205355D01*
X109672750Y-48482311D01*
X110129915Y-48855166D01*
X110505951Y-49309716D01*
X110786537Y-49828650D01*
X110960983Y-50392195D01*
X111025001Y-51001279D01*
X111025001Y-57150000D01*
X99500000Y-57150000D01*
X99477340Y-57152601D01*
X99458774Y-57158894D01*
X99441792Y-57168687D01*
X99427047Y-57181605D01*
X98927047Y-57714930D01*
X98916853Y-57727768D01*
X98907612Y-57745057D01*
X98901921Y-57763816D01*
X98900000Y-57783325D01*
X98900000Y-70750000D01*
X98901921Y-70769509D01*
X98907612Y-70788268D01*
X98916853Y-70805557D01*
X98929289Y-70820711D01*
X99429289Y-71320711D01*
X99444443Y-71333147D01*
X99461732Y-71342388D01*
X99480491Y-71348079D01*
X99500000Y-71350000D01*
X111025001Y-71350000D01*
X111025000Y-99976769D01*
X110965155Y-100587115D01*
X110794645Y-101151871D01*
X110517689Y-101672750D01*
X110144836Y-102129913D01*
X109690284Y-102505951D01*
X109171353Y-102786536D01*
X108607805Y-102960983D01*
X107998730Y-103025000D01*
X50023231Y-103025000D01*
X49412885Y-102965155D01*
X48848129Y-102794645D01*
X48327250Y-102517689D01*
X47870087Y-102144836D01*
X47494049Y-101690284D01*
X47213464Y-101171353D01*
X47039017Y-100607805D01*
X46975000Y-99998730D01*
X46975000Y-99719299D01*
X47150000Y-99719299D01*
X47150000Y-100280701D01*
X47259524Y-100831314D01*
X47474363Y-101349981D01*
X47786260Y-101816769D01*
X48183231Y-102213740D01*
X48650019Y-102525637D01*
X49168686Y-102740476D01*
X49719299Y-102850000D01*
X50280701Y-102850000D01*
X50831314Y-102740476D01*
X51349981Y-102525637D01*
X51816769Y-102213740D01*
X52213740Y-101816769D01*
X52525637Y-101349981D01*
X52740476Y-100831314D01*
X52850000Y-100280701D01*
X52850000Y-99719299D01*
X105150000Y-99719299D01*
X105150000Y-100280701D01*
X105259524Y-100831314D01*
X105474363Y-101349981D01*
X105786260Y-101816769D01*
X106183231Y-102213740D01*
X106650019Y-102525637D01*
X107168686Y-102740476D01*
X107719299Y-102850000D01*
X108280701Y-102850000D01*
X108831314Y-102740476D01*
X109349981Y-102525637D01*
X109816769Y-102213740D01*
X110213740Y-101816769D01*
X110525637Y-101349981D01*
X110740476Y-100831314D01*
X110850000Y-100280701D01*
X110850000Y-99719299D01*
X110740476Y-99168686D01*
X110525637Y-98650019D01*
X110213740Y-98183231D01*
X109816769Y-97786260D01*
X109349981Y-97474363D01*
X108831314Y-97259524D01*
X108280701Y-97150000D01*
X107719299Y-97150000D01*
X107168686Y-97259524D01*
X106650019Y-97474363D01*
X106183231Y-97786260D01*
X105786260Y-98183231D01*
X105474363Y-98650019D01*
X105259524Y-99168686D01*
X105150000Y-99719299D01*
X52850000Y-99719299D01*
X52740476Y-99168686D01*
X52525637Y-98650019D01*
X52213740Y-98183231D01*
X51816769Y-97786260D01*
X51349981Y-97474363D01*
X50831314Y-97259524D01*
X50280701Y-97150000D01*
X49719299Y-97150000D01*
X49168686Y-97259524D01*
X48650019Y-97474363D01*
X48183231Y-97786260D01*
X47786260Y-98183231D01*
X47474363Y-98650019D01*
X47259524Y-99168686D01*
X47150000Y-99719299D01*
X46975000Y-99719299D01*
X46975000Y-96075000D01*
X55228065Y-96075000D01*
X55228065Y-96925000D01*
X55243954Y-97086327D01*
X55291012Y-97241454D01*
X55367429Y-97384420D01*
X55470269Y-97509731D01*
X55595580Y-97612571D01*
X55738546Y-97688988D01*
X55893673Y-97736046D01*
X56055000Y-97751935D01*
X56905000Y-97751935D01*
X57066327Y-97736046D01*
X57221454Y-97688988D01*
X57364420Y-97612571D01*
X57489731Y-97509731D01*
X57592571Y-97384420D01*
X57668988Y-97241454D01*
X57716046Y-97086327D01*
X57731935Y-96925000D01*
X57731935Y-96376886D01*
X57770000Y-96376886D01*
X57770000Y-96623114D01*
X57818037Y-96864611D01*
X57912265Y-97092097D01*
X58049062Y-97296828D01*
X58223172Y-97470938D01*
X58427903Y-97607735D01*
X58655389Y-97701963D01*
X58896886Y-97750000D01*
X59143114Y-97750000D01*
X59384611Y-97701963D01*
X59612097Y-97607735D01*
X59816828Y-97470938D01*
X59990938Y-97296828D01*
X60127735Y-97092097D01*
X60221963Y-96864611D01*
X60270000Y-96623114D01*
X60270000Y-96376886D01*
X60221963Y-96135389D01*
X60196950Y-96075000D01*
X63728065Y-96075000D01*
X63728065Y-96925000D01*
X63743954Y-97086327D01*
X63791012Y-97241454D01*
X63867429Y-97384420D01*
X63970269Y-97509731D01*
X64095580Y-97612571D01*
X64238546Y-97688988D01*
X64393673Y-97736046D01*
X64555000Y-97751935D01*
X65405000Y-97751935D01*
X65566327Y-97736046D01*
X65721454Y-97688988D01*
X65864420Y-97612571D01*
X65989731Y-97509731D01*
X66092571Y-97384420D01*
X66168988Y-97241454D01*
X66216046Y-97086327D01*
X66231935Y-96925000D01*
X66231935Y-96376886D01*
X66270000Y-96376886D01*
X66270000Y-96623114D01*
X66318037Y-96864611D01*
X66412265Y-97092097D01*
X66549062Y-97296828D01*
X66723172Y-97470938D01*
X66927903Y-97607735D01*
X67155389Y-97701963D01*
X67396886Y-97750000D01*
X67643114Y-97750000D01*
X67884611Y-97701963D01*
X68112097Y-97607735D01*
X68316828Y-97470938D01*
X68490938Y-97296828D01*
X68627735Y-97092097D01*
X68721963Y-96864611D01*
X68770000Y-96623114D01*
X68770000Y-96376886D01*
X68721963Y-96135389D01*
X68696950Y-96075000D01*
X72228065Y-96075000D01*
X72228065Y-96925000D01*
X72243954Y-97086327D01*
X72291012Y-97241454D01*
X72367429Y-97384420D01*
X72470269Y-97509731D01*
X72595580Y-97612571D01*
X72738546Y-97688988D01*
X72893673Y-97736046D01*
X73055000Y-97751935D01*
X73905000Y-97751935D01*
X74066327Y-97736046D01*
X74221454Y-97688988D01*
X74364420Y-97612571D01*
X74489731Y-97509731D01*
X74592571Y-97384420D01*
X74668988Y-97241454D01*
X74716046Y-97086327D01*
X74731935Y-96925000D01*
X74731935Y-96376886D01*
X74770000Y-96376886D01*
X74770000Y-96623114D01*
X74818037Y-96864611D01*
X74912265Y-97092097D01*
X75049062Y-97296828D01*
X75223172Y-97470938D01*
X75427903Y-97607735D01*
X75655389Y-97701963D01*
X75896886Y-97750000D01*
X76143114Y-97750000D01*
X76384611Y-97701963D01*
X76612097Y-97607735D01*
X76816828Y-97470938D01*
X76990938Y-97296828D01*
X77127735Y-97092097D01*
X77221963Y-96864611D01*
X77270000Y-96623114D01*
X77270000Y-96376886D01*
X77221963Y-96135389D01*
X77196950Y-96075000D01*
X80728065Y-96075000D01*
X80728065Y-96925000D01*
X80743954Y-97086327D01*
X80791012Y-97241454D01*
X80867429Y-97384420D01*
X80970269Y-97509731D01*
X81095580Y-97612571D01*
X81238546Y-97688988D01*
X81393673Y-97736046D01*
X81555000Y-97751935D01*
X82405000Y-97751935D01*
X82566327Y-97736046D01*
X82721454Y-97688988D01*
X82864420Y-97612571D01*
X82989731Y-97509731D01*
X83092571Y-97384420D01*
X83168988Y-97241454D01*
X83216046Y-97086327D01*
X83231935Y-96925000D01*
X83231935Y-96376886D01*
X83270000Y-96376886D01*
X83270000Y-96623114D01*
X83318037Y-96864611D01*
X83412265Y-97092097D01*
X83549062Y-97296828D01*
X83723172Y-97470938D01*
X83927903Y-97607735D01*
X84155389Y-97701963D01*
X84396886Y-97750000D01*
X84643114Y-97750000D01*
X84884611Y-97701963D01*
X85112097Y-97607735D01*
X85316828Y-97470938D01*
X85490938Y-97296828D01*
X85627735Y-97092097D01*
X85721963Y-96864611D01*
X85770000Y-96623114D01*
X85770000Y-96376886D01*
X85721963Y-96135389D01*
X85696950Y-96075000D01*
X89228065Y-96075000D01*
X89228065Y-96925000D01*
X89243954Y-97086327D01*
X89291012Y-97241454D01*
X89367429Y-97384420D01*
X89470269Y-97509731D01*
X89595580Y-97612571D01*
X89738546Y-97688988D01*
X89893673Y-97736046D01*
X90055000Y-97751935D01*
X90905000Y-97751935D01*
X91066327Y-97736046D01*
X91221454Y-97688988D01*
X91364420Y-97612571D01*
X91489731Y-97509731D01*
X91592571Y-97384420D01*
X91668988Y-97241454D01*
X91716046Y-97086327D01*
X91731935Y-96925000D01*
X91731935Y-96376886D01*
X91770000Y-96376886D01*
X91770000Y-96623114D01*
X91818037Y-96864611D01*
X91912265Y-97092097D01*
X92049062Y-97296828D01*
X92223172Y-97470938D01*
X92427903Y-97607735D01*
X92655389Y-97701963D01*
X92896886Y-97750000D01*
X93143114Y-97750000D01*
X93384611Y-97701963D01*
X93612097Y-97607735D01*
X93816828Y-97470938D01*
X93990938Y-97296828D01*
X94127735Y-97092097D01*
X94221963Y-96864611D01*
X94270000Y-96623114D01*
X94270000Y-96376886D01*
X94221963Y-96135389D01*
X94196950Y-96075000D01*
X97728065Y-96075000D01*
X97728065Y-96925000D01*
X97743954Y-97086327D01*
X97791012Y-97241454D01*
X97867429Y-97384420D01*
X97970269Y-97509731D01*
X98095580Y-97612571D01*
X98238546Y-97688988D01*
X98393673Y-97736046D01*
X98555000Y-97751935D01*
X99405000Y-97751935D01*
X99566327Y-97736046D01*
X99721454Y-97688988D01*
X99864420Y-97612571D01*
X99989731Y-97509731D01*
X100092571Y-97384420D01*
X100168988Y-97241454D01*
X100216046Y-97086327D01*
X100231935Y-96925000D01*
X100231935Y-96376886D01*
X100270000Y-96376886D01*
X100270000Y-96623114D01*
X100318037Y-96864611D01*
X100412265Y-97092097D01*
X100549062Y-97296828D01*
X100723172Y-97470938D01*
X100927903Y-97607735D01*
X101155389Y-97701963D01*
X101396886Y-97750000D01*
X101643114Y-97750000D01*
X101884611Y-97701963D01*
X102112097Y-97607735D01*
X102316828Y-97470938D01*
X102490938Y-97296828D01*
X102627735Y-97092097D01*
X102721963Y-96864611D01*
X102770000Y-96623114D01*
X102770000Y-96376886D01*
X102721963Y-96135389D01*
X102627735Y-95907903D01*
X102490938Y-95703172D01*
X102316828Y-95529062D01*
X102112097Y-95392265D01*
X101884611Y-95298037D01*
X101643114Y-95250000D01*
X101396886Y-95250000D01*
X101155389Y-95298037D01*
X100927903Y-95392265D01*
X100723172Y-95529062D01*
X100549062Y-95703172D01*
X100412265Y-95907903D01*
X100318037Y-96135389D01*
X100270000Y-96376886D01*
X100231935Y-96376886D01*
X100231935Y-96075000D01*
X100216046Y-95913673D01*
X100168988Y-95758546D01*
X100092571Y-95615580D01*
X99989731Y-95490269D01*
X99864420Y-95387429D01*
X99721454Y-95311012D01*
X99566327Y-95263954D01*
X99405000Y-95248065D01*
X98555000Y-95248065D01*
X98393673Y-95263954D01*
X98238546Y-95311012D01*
X98095580Y-95387429D01*
X97970269Y-95490269D01*
X97867429Y-95615580D01*
X97791012Y-95758546D01*
X97743954Y-95913673D01*
X97728065Y-96075000D01*
X94196950Y-96075000D01*
X94127735Y-95907903D01*
X93990938Y-95703172D01*
X93816828Y-95529062D01*
X93612097Y-95392265D01*
X93384611Y-95298037D01*
X93143114Y-95250000D01*
X92896886Y-95250000D01*
X92655389Y-95298037D01*
X92427903Y-95392265D01*
X92223172Y-95529062D01*
X92049062Y-95703172D01*
X91912265Y-95907903D01*
X91818037Y-96135389D01*
X91770000Y-96376886D01*
X91731935Y-96376886D01*
X91731935Y-96075000D01*
X91716046Y-95913673D01*
X91668988Y-95758546D01*
X91592571Y-95615580D01*
X91489731Y-95490269D01*
X91364420Y-95387429D01*
X91221454Y-95311012D01*
X91066327Y-95263954D01*
X90905000Y-95248065D01*
X90055000Y-95248065D01*
X89893673Y-95263954D01*
X89738546Y-95311012D01*
X89595580Y-95387429D01*
X89470269Y-95490269D01*
X89367429Y-95615580D01*
X89291012Y-95758546D01*
X89243954Y-95913673D01*
X89228065Y-96075000D01*
X85696950Y-96075000D01*
X85627735Y-95907903D01*
X85490938Y-95703172D01*
X85316828Y-95529062D01*
X85112097Y-95392265D01*
X84884611Y-95298037D01*
X84643114Y-95250000D01*
X84396886Y-95250000D01*
X84155389Y-95298037D01*
X83927903Y-95392265D01*
X83723172Y-95529062D01*
X83549062Y-95703172D01*
X83412265Y-95907903D01*
X83318037Y-96135389D01*
X83270000Y-96376886D01*
X83231935Y-96376886D01*
X83231935Y-96075000D01*
X83216046Y-95913673D01*
X83168988Y-95758546D01*
X83092571Y-95615580D01*
X82989731Y-95490269D01*
X82864420Y-95387429D01*
X82721454Y-95311012D01*
X82566327Y-95263954D01*
X82405000Y-95248065D01*
X81555000Y-95248065D01*
X81393673Y-95263954D01*
X81238546Y-95311012D01*
X81095580Y-95387429D01*
X80970269Y-95490269D01*
X80867429Y-95615580D01*
X80791012Y-95758546D01*
X80743954Y-95913673D01*
X80728065Y-96075000D01*
X77196950Y-96075000D01*
X77127735Y-95907903D01*
X76990938Y-95703172D01*
X76816828Y-95529062D01*
X76612097Y-95392265D01*
X76384611Y-95298037D01*
X76143114Y-95250000D01*
X75896886Y-95250000D01*
X75655389Y-95298037D01*
X75427903Y-95392265D01*
X75223172Y-95529062D01*
X75049062Y-95703172D01*
X74912265Y-95907903D01*
X74818037Y-96135389D01*
X74770000Y-96376886D01*
X74731935Y-96376886D01*
X74731935Y-96075000D01*
X74716046Y-95913673D01*
X74668988Y-95758546D01*
X74592571Y-95615580D01*
X74489731Y-95490269D01*
X74364420Y-95387429D01*
X74221454Y-95311012D01*
X74066327Y-95263954D01*
X73905000Y-95248065D01*
X73055000Y-95248065D01*
X72893673Y-95263954D01*
X72738546Y-95311012D01*
X72595580Y-95387429D01*
X72470269Y-95490269D01*
X72367429Y-95615580D01*
X72291012Y-95758546D01*
X72243954Y-95913673D01*
X72228065Y-96075000D01*
X68696950Y-96075000D01*
X68627735Y-95907903D01*
X68490938Y-95703172D01*
X68316828Y-95529062D01*
X68112097Y-95392265D01*
X67884611Y-95298037D01*
X67643114Y-95250000D01*
X67396886Y-95250000D01*
X67155389Y-95298037D01*
X66927903Y-95392265D01*
X66723172Y-95529062D01*
X66549062Y-95703172D01*
X66412265Y-95907903D01*
X66318037Y-96135389D01*
X66270000Y-96376886D01*
X66231935Y-96376886D01*
X66231935Y-96075000D01*
X66216046Y-95913673D01*
X66168988Y-95758546D01*
X66092571Y-95615580D01*
X65989731Y-95490269D01*
X65864420Y-95387429D01*
X65721454Y-95311012D01*
X65566327Y-95263954D01*
X65405000Y-95248065D01*
X64555000Y-95248065D01*
X64393673Y-95263954D01*
X64238546Y-95311012D01*
X64095580Y-95387429D01*
X63970269Y-95490269D01*
X63867429Y-95615580D01*
X63791012Y-95758546D01*
X63743954Y-95913673D01*
X63728065Y-96075000D01*
X60196950Y-96075000D01*
X60127735Y-95907903D01*
X59990938Y-95703172D01*
X59816828Y-95529062D01*
X59612097Y-95392265D01*
X59384611Y-95298037D01*
X59143114Y-95250000D01*
X58896886Y-95250000D01*
X58655389Y-95298037D01*
X58427903Y-95392265D01*
X58223172Y-95529062D01*
X58049062Y-95703172D01*
X57912265Y-95907903D01*
X57818037Y-96135389D01*
X57770000Y-96376886D01*
X57731935Y-96376886D01*
X57731935Y-96075000D01*
X57716046Y-95913673D01*
X57668988Y-95758546D01*
X57592571Y-95615580D01*
X57489731Y-95490269D01*
X57364420Y-95387429D01*
X57221454Y-95311012D01*
X57066327Y-95263954D01*
X56905000Y-95248065D01*
X56055000Y-95248065D01*
X55893673Y-95263954D01*
X55738546Y-95311012D01*
X55595580Y-95387429D01*
X55470269Y-95490269D01*
X55367429Y-95615580D01*
X55291012Y-95758546D01*
X55243954Y-95913673D01*
X55228065Y-96075000D01*
X46975000Y-96075000D01*
X46975000Y-75580000D01*
X52047097Y-75580000D01*
X52058682Y-75697621D01*
X52092990Y-75810721D01*
X52148704Y-75914955D01*
X52223683Y-76006317D01*
X52315045Y-76081296D01*
X52419279Y-76137010D01*
X52532379Y-76171318D01*
X52650000Y-76182903D01*
X52878824Y-76181695D01*
X52703172Y-76299062D01*
X52529062Y-76473172D01*
X52392265Y-76677903D01*
X52298037Y-76905389D01*
X52250000Y-77146886D01*
X52250000Y-77393114D01*
X52298037Y-77634611D01*
X52392265Y-77862097D01*
X52529062Y-78066828D01*
X52703172Y-78240938D01*
X52907903Y-78377735D01*
X53135389Y-78471963D01*
X53376886Y-78520000D01*
X53623114Y-78520000D01*
X53864611Y-78471963D01*
X54092097Y-78377735D01*
X54296828Y-78240938D01*
X54470938Y-78066828D01*
X54607735Y-77862097D01*
X54701963Y-77634611D01*
X54750000Y-77393114D01*
X54750000Y-77146886D01*
X54701963Y-76905389D01*
X54607735Y-76677903D01*
X54470938Y-76473172D01*
X54296828Y-76299062D01*
X54121176Y-76181695D01*
X54350000Y-76182903D01*
X54467621Y-76171318D01*
X54580721Y-76137010D01*
X54684955Y-76081296D01*
X54776317Y-76006317D01*
X54851296Y-75914955D01*
X54907010Y-75810721D01*
X54941318Y-75697621D01*
X54952903Y-75580000D01*
X54950000Y-75030000D01*
X54800000Y-74880000D01*
X53650000Y-74880000D01*
X53650000Y-74900000D01*
X53350000Y-74900000D01*
X53350000Y-74880000D01*
X52200000Y-74880000D01*
X52050000Y-75030000D01*
X52047097Y-75580000D01*
X46975000Y-75580000D01*
X46975000Y-73880000D01*
X52047097Y-73880000D01*
X52050000Y-74430000D01*
X52200000Y-74580000D01*
X53350000Y-74580000D01*
X53350000Y-73430000D01*
X53650000Y-73430000D01*
X53650000Y-74580000D01*
X54800000Y-74580000D01*
X54950000Y-74430000D01*
X54952903Y-73880000D01*
X54941318Y-73762379D01*
X54907010Y-73649279D01*
X54851296Y-73545045D01*
X54776317Y-73453683D01*
X54684955Y-73378704D01*
X54580721Y-73322990D01*
X54467621Y-73288682D01*
X54350000Y-73277097D01*
X53800000Y-73280000D01*
X53650000Y-73430000D01*
X53350000Y-73430000D01*
X53200000Y-73280000D01*
X52650000Y-73277097D01*
X52532379Y-73288682D01*
X52419279Y-73322990D01*
X52315045Y-73378704D01*
X52223683Y-73453683D01*
X52148704Y-73545045D01*
X52092990Y-73649279D01*
X52058682Y-73762379D01*
X52047097Y-73880000D01*
X46975000Y-73880000D01*
X46975000Y-67490000D01*
X66157097Y-67490000D01*
X66168682Y-67607621D01*
X66202990Y-67720721D01*
X66258704Y-67824955D01*
X66328499Y-67910000D01*
X66258704Y-67995045D01*
X66202990Y-68099279D01*
X66168682Y-68212379D01*
X66157097Y-68330000D01*
X66160000Y-68880000D01*
X66310000Y-69030000D01*
X67460000Y-69030000D01*
X67460000Y-66790000D01*
X67760000Y-66790000D01*
X67760000Y-69030000D01*
X68910000Y-69030000D01*
X69060000Y-68880000D01*
X69062903Y-68330000D01*
X69051318Y-68212379D01*
X69017010Y-68099279D01*
X68961296Y-67995045D01*
X68891501Y-67910000D01*
X68961296Y-67824955D01*
X69017010Y-67720721D01*
X69051318Y-67607621D01*
X69062903Y-67490000D01*
X69060000Y-66940000D01*
X68910000Y-66790000D01*
X67760000Y-66790000D01*
X67460000Y-66790000D01*
X66310000Y-66790000D01*
X66160000Y-66940000D01*
X66157097Y-67490000D01*
X46975000Y-67490000D01*
X46975000Y-65790000D01*
X66157097Y-65790000D01*
X66160000Y-66340000D01*
X66310000Y-66490000D01*
X67460000Y-66490000D01*
X67460000Y-66470000D01*
X67760000Y-66470000D01*
X67760000Y-66490000D01*
X68910000Y-66490000D01*
X69060000Y-66340000D01*
X69062903Y-65790000D01*
X69051318Y-65672379D01*
X69017010Y-65559279D01*
X68961296Y-65455045D01*
X68886317Y-65363683D01*
X68794955Y-65288704D01*
X68690721Y-65232990D01*
X68577621Y-65198682D01*
X68460000Y-65187097D01*
X68231176Y-65188305D01*
X68406828Y-65070938D01*
X68580938Y-64896828D01*
X68717735Y-64692097D01*
X68811963Y-64464611D01*
X68860000Y-64223114D01*
X68860000Y-63976886D01*
X68811963Y-63735389D01*
X68717735Y-63507903D01*
X68580938Y-63303172D01*
X68406828Y-63129062D01*
X68202097Y-62992265D01*
X67974611Y-62898037D01*
X67733114Y-62850000D01*
X67486886Y-62850000D01*
X67245389Y-62898037D01*
X67017903Y-62992265D01*
X66813172Y-63129062D01*
X66639062Y-63303172D01*
X66502265Y-63507903D01*
X66408037Y-63735389D01*
X66360000Y-63976886D01*
X66360000Y-64223114D01*
X66408037Y-64464611D01*
X66502265Y-64692097D01*
X66639062Y-64896828D01*
X66813172Y-65070938D01*
X66988824Y-65188305D01*
X66760000Y-65187097D01*
X66642379Y-65198682D01*
X66529279Y-65232990D01*
X66425045Y-65288704D01*
X66333683Y-65363683D01*
X66258704Y-65455045D01*
X66202990Y-65559279D01*
X66168682Y-65672379D01*
X66157097Y-65790000D01*
X46975000Y-65790000D01*
X46975000Y-63362112D01*
X48100000Y-63362112D01*
X48100000Y-63637888D01*
X48153801Y-63908365D01*
X48259336Y-64163149D01*
X48412549Y-64392448D01*
X48607552Y-64587451D01*
X48836851Y-64740664D01*
X49091635Y-64846199D01*
X49362112Y-64900000D01*
X49637888Y-64900000D01*
X49908365Y-64846199D01*
X50163149Y-64740664D01*
X50392448Y-64587451D01*
X50587451Y-64392448D01*
X50740664Y-64163149D01*
X50846199Y-63908365D01*
X50900000Y-63637888D01*
X50900000Y-63362112D01*
X50846199Y-63091635D01*
X50740664Y-62836851D01*
X50587451Y-62607552D01*
X50392448Y-62412549D01*
X50163149Y-62259336D01*
X49908365Y-62153801D01*
X49637888Y-62100000D01*
X49362112Y-62100000D01*
X49091635Y-62153801D01*
X48836851Y-62259336D01*
X48607552Y-62412549D01*
X48412549Y-62607552D01*
X48259336Y-62836851D01*
X48153801Y-63091635D01*
X48100000Y-63362112D01*
X46975000Y-63362112D01*
X46975000Y-61436886D01*
X66360000Y-61436886D01*
X66360000Y-61683114D01*
X66408037Y-61924611D01*
X66502265Y-62152097D01*
X66639062Y-62356828D01*
X66813172Y-62530938D01*
X67017903Y-62667735D01*
X67245389Y-62761963D01*
X67486886Y-62810000D01*
X67733114Y-62810000D01*
X67974611Y-62761963D01*
X68202097Y-62667735D01*
X68406828Y-62530938D01*
X68580938Y-62356828D01*
X68717735Y-62152097D01*
X68811963Y-61924611D01*
X68860000Y-61683114D01*
X68860000Y-61436886D01*
X68811963Y-61195389D01*
X68717735Y-60967903D01*
X68580938Y-60763172D01*
X68406828Y-60589062D01*
X68202097Y-60452265D01*
X67974611Y-60358037D01*
X67733114Y-60310000D01*
X67486886Y-60310000D01*
X67245389Y-60358037D01*
X67017903Y-60452265D01*
X66813172Y-60589062D01*
X66639062Y-60763172D01*
X66502265Y-60967903D01*
X66408037Y-61195389D01*
X66360000Y-61436886D01*
X46975000Y-61436886D01*
X46975000Y-57197338D01*
X66950000Y-57197338D01*
X66950000Y-57502662D01*
X67009565Y-57802118D01*
X67126408Y-58084200D01*
X67296036Y-58338068D01*
X67511932Y-58553964D01*
X67765800Y-58723592D01*
X68047882Y-58840435D01*
X68347338Y-58900000D01*
X68652662Y-58900000D01*
X68952118Y-58840435D01*
X69234200Y-58723592D01*
X69488068Y-58553964D01*
X69703964Y-58338068D01*
X69873592Y-58084200D01*
X69990435Y-57802118D01*
X70050000Y-57502662D01*
X70050000Y-57197338D01*
X69990435Y-56897882D01*
X69873592Y-56615800D01*
X69703964Y-56361932D01*
X69488068Y-56146036D01*
X69234200Y-55976408D01*
X68952118Y-55859565D01*
X68652662Y-55800000D01*
X68347338Y-55800000D01*
X68047882Y-55859565D01*
X67765800Y-55976408D01*
X67511932Y-56146036D01*
X67296036Y-56361932D01*
X67126408Y-56615800D01*
X67009565Y-56897882D01*
X66950000Y-57197338D01*
X46975000Y-57197338D01*
X46975000Y-51023231D01*
X47004800Y-50719299D01*
X47150000Y-50719299D01*
X47150000Y-51280701D01*
X47259524Y-51831314D01*
X47474363Y-52349981D01*
X47786260Y-52816769D01*
X48183231Y-53213740D01*
X48650019Y-53525637D01*
X49168686Y-53740476D01*
X49719299Y-53850000D01*
X50280701Y-53850000D01*
X50831314Y-53740476D01*
X51349981Y-53525637D01*
X51816769Y-53213740D01*
X52213740Y-52816769D01*
X52525637Y-52349981D01*
X52740476Y-51831314D01*
X52850000Y-51280701D01*
X52850000Y-50719299D01*
X52740476Y-50168686D01*
X52525637Y-49650019D01*
X52213740Y-49183231D01*
X51816769Y-48786260D01*
X51349981Y-48474363D01*
X50831314Y-48259524D01*
X50280701Y-48150000D01*
X49719299Y-48150000D01*
X49168686Y-48259524D01*
X48650019Y-48474363D01*
X48183231Y-48786260D01*
X47786260Y-49183231D01*
X47474363Y-49650019D01*
X47259524Y-50168686D01*
X47150000Y-50719299D01*
X47004800Y-50719299D01*
X47034845Y-50412885D01*
X47205355Y-49848129D01*
X47482311Y-49327250D01*
X47855166Y-48870085D01*
X48309716Y-48494049D01*
X48828650Y-48213463D01*
X49392195Y-48039017D01*
X50001270Y-47975000D01*
X53709314Y-47975000D01*
X52967157Y-48717157D01*
D20*
%TO.N,+5V*%
G36*
X74048761Y-48760893D02*
G01*
X74039205Y-49241858D01*
X73988037Y-49365389D01*
X73940000Y-49606886D01*
X73940000Y-49853114D01*
X73988037Y-50094611D01*
X74020697Y-50173458D01*
X73986093Y-51915160D01*
X73940000Y-52146886D01*
X73940000Y-52393114D01*
X73973274Y-52560394D01*
X73901126Y-56191852D01*
X72517695Y-57753790D01*
X71497801Y-56201778D01*
X71319719Y-52595619D01*
X71360000Y-52393114D01*
X71360000Y-52146886D01*
X71400000Y-52146886D01*
X71400000Y-52393114D01*
X71448037Y-52634611D01*
X71542265Y-52862097D01*
X71679062Y-53066828D01*
X71853172Y-53240938D01*
X72057903Y-53377735D01*
X72285389Y-53471963D01*
X72526886Y-53520000D01*
X72773114Y-53520000D01*
X73014611Y-53471963D01*
X73242097Y-53377735D01*
X73446828Y-53240938D01*
X73620938Y-53066828D01*
X73757735Y-52862097D01*
X73851963Y-52634611D01*
X73900000Y-52393114D01*
X73900000Y-52146886D01*
X73851963Y-51905389D01*
X73757735Y-51677903D01*
X73620938Y-51473172D01*
X73446828Y-51299062D01*
X73242097Y-51162265D01*
X73014611Y-51068037D01*
X72773114Y-51020000D01*
X72526886Y-51020000D01*
X72285389Y-51068037D01*
X72057903Y-51162265D01*
X71853172Y-51299062D01*
X71679062Y-51473172D01*
X71542265Y-51677903D01*
X71448037Y-51905389D01*
X71400000Y-52146886D01*
X71360000Y-52146886D01*
X71311963Y-51905389D01*
X71217735Y-51677903D01*
X71080938Y-51473172D01*
X70906828Y-51299062D01*
X70702097Y-51162265D01*
X70474611Y-51068037D01*
X70233114Y-51020000D01*
X69986886Y-51020000D01*
X69745389Y-51068037D01*
X69668224Y-51100000D01*
X68011776Y-51100000D01*
X67934611Y-51068037D01*
X67693114Y-51020000D01*
X67446886Y-51020000D01*
X67205389Y-51068037D01*
X67128224Y-51100000D01*
X65471776Y-51100000D01*
X65394611Y-51068037D01*
X65153114Y-51020000D01*
X64906886Y-51020000D01*
X64665389Y-51068037D01*
X64588224Y-51100000D01*
X62931776Y-51100000D01*
X62854611Y-51068037D01*
X62613114Y-51020000D01*
X62366886Y-51020000D01*
X62125389Y-51068037D01*
X62048224Y-51100000D01*
X60391776Y-51100000D01*
X60314611Y-51068037D01*
X60073114Y-51020000D01*
X59826886Y-51020000D01*
X59585389Y-51068037D01*
X59508224Y-51100000D01*
X57851776Y-51100000D01*
X57774611Y-51068037D01*
X57533114Y-51020000D01*
X57286886Y-51020000D01*
X57045389Y-51068037D01*
X56968224Y-51100000D01*
X55960602Y-51100000D01*
X55943303Y-51085803D01*
X55873814Y-51048660D01*
X55798414Y-51025788D01*
X55720000Y-51018065D01*
X54230197Y-51018065D01*
X53400000Y-50187868D01*
X53400000Y-49606886D01*
X58700000Y-49606886D01*
X58700000Y-49853114D01*
X58748037Y-50094611D01*
X58842265Y-50322097D01*
X58979062Y-50526828D01*
X59153172Y-50700938D01*
X59357903Y-50837735D01*
X59585389Y-50931963D01*
X59826886Y-50980000D01*
X60073114Y-50980000D01*
X60314611Y-50931963D01*
X60542097Y-50837735D01*
X60746828Y-50700938D01*
X60920938Y-50526828D01*
X61057735Y-50322097D01*
X61151963Y-50094611D01*
X61200000Y-49853114D01*
X61200000Y-49606886D01*
X61240000Y-49606886D01*
X61240000Y-49853114D01*
X61288037Y-50094611D01*
X61382265Y-50322097D01*
X61519062Y-50526828D01*
X61693172Y-50700938D01*
X61897903Y-50837735D01*
X62125389Y-50931963D01*
X62366886Y-50980000D01*
X62613114Y-50980000D01*
X62854611Y-50931963D01*
X63082097Y-50837735D01*
X63286828Y-50700938D01*
X63460938Y-50526828D01*
X63597735Y-50322097D01*
X63691963Y-50094611D01*
X63740000Y-49853114D01*
X63740000Y-49606886D01*
X63780000Y-49606886D01*
X63780000Y-49853114D01*
X63828037Y-50094611D01*
X63922265Y-50322097D01*
X64059062Y-50526828D01*
X64233172Y-50700938D01*
X64437903Y-50837735D01*
X64665389Y-50931963D01*
X64906886Y-50980000D01*
X65153114Y-50980000D01*
X65394611Y-50931963D01*
X65622097Y-50837735D01*
X65826828Y-50700938D01*
X66000938Y-50526828D01*
X66137735Y-50322097D01*
X66231963Y-50094611D01*
X66280000Y-49853114D01*
X66280000Y-49606886D01*
X66320000Y-49606886D01*
X66320000Y-49853114D01*
X66368037Y-50094611D01*
X66462265Y-50322097D01*
X66599062Y-50526828D01*
X66773172Y-50700938D01*
X66977903Y-50837735D01*
X67205389Y-50931963D01*
X67446886Y-50980000D01*
X67693114Y-50980000D01*
X67934611Y-50931963D01*
X68162097Y-50837735D01*
X68366828Y-50700938D01*
X68540938Y-50526828D01*
X68677735Y-50322097D01*
X68771963Y-50094611D01*
X68820000Y-49853114D01*
X68820000Y-49606886D01*
X68860000Y-49606886D01*
X68860000Y-49853114D01*
X68908037Y-50094611D01*
X69002265Y-50322097D01*
X69139062Y-50526828D01*
X69313172Y-50700938D01*
X69517903Y-50837735D01*
X69745389Y-50931963D01*
X69986886Y-50980000D01*
X70233114Y-50980000D01*
X70474611Y-50931963D01*
X70702097Y-50837735D01*
X70906828Y-50700938D01*
X71080938Y-50526828D01*
X71217735Y-50322097D01*
X71311963Y-50094611D01*
X71360000Y-49853114D01*
X71360000Y-49606886D01*
X71400000Y-49606886D01*
X71400000Y-49853114D01*
X71448037Y-50094611D01*
X71542265Y-50322097D01*
X71679062Y-50526828D01*
X71853172Y-50700938D01*
X72057903Y-50837735D01*
X72285389Y-50931963D01*
X72526886Y-50980000D01*
X72773114Y-50980000D01*
X73014611Y-50931963D01*
X73242097Y-50837735D01*
X73446828Y-50700938D01*
X73620938Y-50526828D01*
X73757735Y-50322097D01*
X73851963Y-50094611D01*
X73900000Y-49853114D01*
X73900000Y-49606886D01*
X73851963Y-49365389D01*
X73757735Y-49137903D01*
X73620938Y-48933172D01*
X73446828Y-48759062D01*
X73242097Y-48622265D01*
X73014611Y-48528037D01*
X72773114Y-48480000D01*
X72526886Y-48480000D01*
X72285389Y-48528037D01*
X72057903Y-48622265D01*
X71853172Y-48759062D01*
X71679062Y-48933172D01*
X71542265Y-49137903D01*
X71448037Y-49365389D01*
X71400000Y-49606886D01*
X71360000Y-49606886D01*
X71311963Y-49365389D01*
X71217735Y-49137903D01*
X71080938Y-48933172D01*
X70906828Y-48759062D01*
X70702097Y-48622265D01*
X70474611Y-48528037D01*
X70233114Y-48480000D01*
X69986886Y-48480000D01*
X69745389Y-48528037D01*
X69517903Y-48622265D01*
X69313172Y-48759062D01*
X69139062Y-48933172D01*
X69002265Y-49137903D01*
X68908037Y-49365389D01*
X68860000Y-49606886D01*
X68820000Y-49606886D01*
X68771963Y-49365389D01*
X68677735Y-49137903D01*
X68540938Y-48933172D01*
X68366828Y-48759062D01*
X68162097Y-48622265D01*
X67934611Y-48528037D01*
X67693114Y-48480000D01*
X67446886Y-48480000D01*
X67205389Y-48528037D01*
X66977903Y-48622265D01*
X66773172Y-48759062D01*
X66599062Y-48933172D01*
X66462265Y-49137903D01*
X66368037Y-49365389D01*
X66320000Y-49606886D01*
X66280000Y-49606886D01*
X66231963Y-49365389D01*
X66137735Y-49137903D01*
X66000938Y-48933172D01*
X65826828Y-48759062D01*
X65622097Y-48622265D01*
X65394611Y-48528037D01*
X65153114Y-48480000D01*
X64906886Y-48480000D01*
X64665389Y-48528037D01*
X64437903Y-48622265D01*
X64233172Y-48759062D01*
X64059062Y-48933172D01*
X63922265Y-49137903D01*
X63828037Y-49365389D01*
X63780000Y-49606886D01*
X63740000Y-49606886D01*
X63691963Y-49365389D01*
X63597735Y-49137903D01*
X63460938Y-48933172D01*
X63286828Y-48759062D01*
X63082097Y-48622265D01*
X62854611Y-48528037D01*
X62613114Y-48480000D01*
X62366886Y-48480000D01*
X62125389Y-48528037D01*
X61897903Y-48622265D01*
X61693172Y-48759062D01*
X61519062Y-48933172D01*
X61382265Y-49137903D01*
X61288037Y-49365389D01*
X61240000Y-49606886D01*
X61200000Y-49606886D01*
X61151963Y-49365389D01*
X61057735Y-49137903D01*
X60920938Y-48933172D01*
X60746828Y-48759062D01*
X60542097Y-48622265D01*
X60314611Y-48528037D01*
X60073114Y-48480000D01*
X59826886Y-48480000D01*
X59585389Y-48528037D01*
X59357903Y-48622265D01*
X59153172Y-48759062D01*
X58979062Y-48933172D01*
X58842265Y-49137903D01*
X58748037Y-49365389D01*
X58700000Y-49606886D01*
X53400000Y-49606886D01*
X53400000Y-49062132D01*
X54487132Y-47975000D01*
X73262868Y-47975000D01*
X74048761Y-48760893D01*
G37*
X74048761Y-48760893D02*
X74039205Y-49241858D01*
X73988037Y-49365389D01*
X73940000Y-49606886D01*
X73940000Y-49853114D01*
X73988037Y-50094611D01*
X74020697Y-50173458D01*
X73986093Y-51915160D01*
X73940000Y-52146886D01*
X73940000Y-52393114D01*
X73973274Y-52560394D01*
X73901126Y-56191852D01*
X72517695Y-57753790D01*
X71497801Y-56201778D01*
X71319719Y-52595619D01*
X71360000Y-52393114D01*
X71360000Y-52146886D01*
X71400000Y-52146886D01*
X71400000Y-52393114D01*
X71448037Y-52634611D01*
X71542265Y-52862097D01*
X71679062Y-53066828D01*
X71853172Y-53240938D01*
X72057903Y-53377735D01*
X72285389Y-53471963D01*
X72526886Y-53520000D01*
X72773114Y-53520000D01*
X73014611Y-53471963D01*
X73242097Y-53377735D01*
X73446828Y-53240938D01*
X73620938Y-53066828D01*
X73757735Y-52862097D01*
X73851963Y-52634611D01*
X73900000Y-52393114D01*
X73900000Y-52146886D01*
X73851963Y-51905389D01*
X73757735Y-51677903D01*
X73620938Y-51473172D01*
X73446828Y-51299062D01*
X73242097Y-51162265D01*
X73014611Y-51068037D01*
X72773114Y-51020000D01*
X72526886Y-51020000D01*
X72285389Y-51068037D01*
X72057903Y-51162265D01*
X71853172Y-51299062D01*
X71679062Y-51473172D01*
X71542265Y-51677903D01*
X71448037Y-51905389D01*
X71400000Y-52146886D01*
X71360000Y-52146886D01*
X71311963Y-51905389D01*
X71217735Y-51677903D01*
X71080938Y-51473172D01*
X70906828Y-51299062D01*
X70702097Y-51162265D01*
X70474611Y-51068037D01*
X70233114Y-51020000D01*
X69986886Y-51020000D01*
X69745389Y-51068037D01*
X69668224Y-51100000D01*
X68011776Y-51100000D01*
X67934611Y-51068037D01*
X67693114Y-51020000D01*
X67446886Y-51020000D01*
X67205389Y-51068037D01*
X67128224Y-51100000D01*
X65471776Y-51100000D01*
X65394611Y-51068037D01*
X65153114Y-51020000D01*
X64906886Y-51020000D01*
X64665389Y-51068037D01*
X64588224Y-51100000D01*
X62931776Y-51100000D01*
X62854611Y-51068037D01*
X62613114Y-51020000D01*
X62366886Y-51020000D01*
X62125389Y-51068037D01*
X62048224Y-51100000D01*
X60391776Y-51100000D01*
X60314611Y-51068037D01*
X60073114Y-51020000D01*
X59826886Y-51020000D01*
X59585389Y-51068037D01*
X59508224Y-51100000D01*
X57851776Y-51100000D01*
X57774611Y-51068037D01*
X57533114Y-51020000D01*
X57286886Y-51020000D01*
X57045389Y-51068037D01*
X56968224Y-51100000D01*
X55960602Y-51100000D01*
X55943303Y-51085803D01*
X55873814Y-51048660D01*
X55798414Y-51025788D01*
X55720000Y-51018065D01*
X54230197Y-51018065D01*
X53400000Y-50187868D01*
X53400000Y-49606886D01*
X58700000Y-49606886D01*
X58700000Y-49853114D01*
X58748037Y-50094611D01*
X58842265Y-50322097D01*
X58979062Y-50526828D01*
X59153172Y-50700938D01*
X59357903Y-50837735D01*
X59585389Y-50931963D01*
X59826886Y-50980000D01*
X60073114Y-50980000D01*
X60314611Y-50931963D01*
X60542097Y-50837735D01*
X60746828Y-50700938D01*
X60920938Y-50526828D01*
X61057735Y-50322097D01*
X61151963Y-50094611D01*
X61200000Y-49853114D01*
X61200000Y-49606886D01*
X61240000Y-49606886D01*
X61240000Y-49853114D01*
X61288037Y-50094611D01*
X61382265Y-50322097D01*
X61519062Y-50526828D01*
X61693172Y-50700938D01*
X61897903Y-50837735D01*
X62125389Y-50931963D01*
X62366886Y-50980000D01*
X62613114Y-50980000D01*
X62854611Y-50931963D01*
X63082097Y-50837735D01*
X63286828Y-50700938D01*
X63460938Y-50526828D01*
X63597735Y-50322097D01*
X63691963Y-50094611D01*
X63740000Y-49853114D01*
X63740000Y-49606886D01*
X63780000Y-49606886D01*
X63780000Y-49853114D01*
X63828037Y-50094611D01*
X63922265Y-50322097D01*
X64059062Y-50526828D01*
X64233172Y-50700938D01*
X64437903Y-50837735D01*
X64665389Y-50931963D01*
X64906886Y-50980000D01*
X65153114Y-50980000D01*
X65394611Y-50931963D01*
X65622097Y-50837735D01*
X65826828Y-50700938D01*
X66000938Y-50526828D01*
X66137735Y-50322097D01*
X66231963Y-50094611D01*
X66280000Y-49853114D01*
X66280000Y-49606886D01*
X66320000Y-49606886D01*
X66320000Y-49853114D01*
X66368037Y-50094611D01*
X66462265Y-50322097D01*
X66599062Y-50526828D01*
X66773172Y-50700938D01*
X66977903Y-50837735D01*
X67205389Y-50931963D01*
X67446886Y-50980000D01*
X67693114Y-50980000D01*
X67934611Y-50931963D01*
X68162097Y-50837735D01*
X68366828Y-50700938D01*
X68540938Y-50526828D01*
X68677735Y-50322097D01*
X68771963Y-50094611D01*
X68820000Y-49853114D01*
X68820000Y-49606886D01*
X68860000Y-49606886D01*
X68860000Y-49853114D01*
X68908037Y-50094611D01*
X69002265Y-50322097D01*
X69139062Y-50526828D01*
X69313172Y-50700938D01*
X69517903Y-50837735D01*
X69745389Y-50931963D01*
X69986886Y-50980000D01*
X70233114Y-50980000D01*
X70474611Y-50931963D01*
X70702097Y-50837735D01*
X70906828Y-50700938D01*
X71080938Y-50526828D01*
X71217735Y-50322097D01*
X71311963Y-50094611D01*
X71360000Y-49853114D01*
X71360000Y-49606886D01*
X71400000Y-49606886D01*
X71400000Y-49853114D01*
X71448037Y-50094611D01*
X71542265Y-50322097D01*
X71679062Y-50526828D01*
X71853172Y-50700938D01*
X72057903Y-50837735D01*
X72285389Y-50931963D01*
X72526886Y-50980000D01*
X72773114Y-50980000D01*
X73014611Y-50931963D01*
X73242097Y-50837735D01*
X73446828Y-50700938D01*
X73620938Y-50526828D01*
X73757735Y-50322097D01*
X73851963Y-50094611D01*
X73900000Y-49853114D01*
X73900000Y-49606886D01*
X73851963Y-49365389D01*
X73757735Y-49137903D01*
X73620938Y-48933172D01*
X73446828Y-48759062D01*
X73242097Y-48622265D01*
X73014611Y-48528037D01*
X72773114Y-48480000D01*
X72526886Y-48480000D01*
X72285389Y-48528037D01*
X72057903Y-48622265D01*
X71853172Y-48759062D01*
X71679062Y-48933172D01*
X71542265Y-49137903D01*
X71448037Y-49365389D01*
X71400000Y-49606886D01*
X71360000Y-49606886D01*
X71311963Y-49365389D01*
X71217735Y-49137903D01*
X71080938Y-48933172D01*
X70906828Y-48759062D01*
X70702097Y-48622265D01*
X70474611Y-48528037D01*
X70233114Y-48480000D01*
X69986886Y-48480000D01*
X69745389Y-48528037D01*
X69517903Y-48622265D01*
X69313172Y-48759062D01*
X69139062Y-48933172D01*
X69002265Y-49137903D01*
X68908037Y-49365389D01*
X68860000Y-49606886D01*
X68820000Y-49606886D01*
X68771963Y-49365389D01*
X68677735Y-49137903D01*
X68540938Y-48933172D01*
X68366828Y-48759062D01*
X68162097Y-48622265D01*
X67934611Y-48528037D01*
X67693114Y-48480000D01*
X67446886Y-48480000D01*
X67205389Y-48528037D01*
X66977903Y-48622265D01*
X66773172Y-48759062D01*
X66599062Y-48933172D01*
X66462265Y-49137903D01*
X66368037Y-49365389D01*
X66320000Y-49606886D01*
X66280000Y-49606886D01*
X66231963Y-49365389D01*
X66137735Y-49137903D01*
X66000938Y-48933172D01*
X65826828Y-48759062D01*
X65622097Y-48622265D01*
X65394611Y-48528037D01*
X65153114Y-48480000D01*
X64906886Y-48480000D01*
X64665389Y-48528037D01*
X64437903Y-48622265D01*
X64233172Y-48759062D01*
X64059062Y-48933172D01*
X63922265Y-49137903D01*
X63828037Y-49365389D01*
X63780000Y-49606886D01*
X63740000Y-49606886D01*
X63691963Y-49365389D01*
X63597735Y-49137903D01*
X63460938Y-48933172D01*
X63286828Y-48759062D01*
X63082097Y-48622265D01*
X62854611Y-48528037D01*
X62613114Y-48480000D01*
X62366886Y-48480000D01*
X62125389Y-48528037D01*
X61897903Y-48622265D01*
X61693172Y-48759062D01*
X61519062Y-48933172D01*
X61382265Y-49137903D01*
X61288037Y-49365389D01*
X61240000Y-49606886D01*
X61200000Y-49606886D01*
X61151963Y-49365389D01*
X61057735Y-49137903D01*
X60920938Y-48933172D01*
X60746828Y-48759062D01*
X60542097Y-48622265D01*
X60314611Y-48528037D01*
X60073114Y-48480000D01*
X59826886Y-48480000D01*
X59585389Y-48528037D01*
X59357903Y-48622265D01*
X59153172Y-48759062D01*
X58979062Y-48933172D01*
X58842265Y-49137903D01*
X58748037Y-49365389D01*
X58700000Y-49606886D01*
X53400000Y-49606886D01*
X53400000Y-49062132D01*
X54487132Y-47975000D01*
X73262868Y-47975000D01*
X74048761Y-48760893D01*
%TD*%
M02*
