%TF.GenerationSoftware,KiCad,Pcbnew,(5.1.6-0-10_14)*%
%TF.CreationDate,2020-07-28T14:29:37+02:00*%
%TF.ProjectId,WaterPlant Pi,57617465-7250-46c6-916e-742050692e6b,rev?*%
%TF.SameCoordinates,Original*%
%TF.FileFunction,Soldermask,Top*%
%TF.FilePolarity,Negative*%
%FSLAX46Y46*%
G04 Gerber Fmt 4.6, Leading zero omitted, Abs format (unit mm)*
G04 Created by KiCad (PCBNEW (5.1.6-0-10_14)) date 2020-07-28 14:29:37*
%MOMM*%
%LPD*%
G01*
G04 APERTURE LIST*
%ADD10R,4.500000X3.400000*%
%ADD11R,6.300000X4.000000*%
%ADD12C,2.100000*%
%ADD13C,1.800000*%
%ADD14C,2.400000*%
%ADD15R,2.100000X0.750000*%
%ADD16C,3.600000*%
%ADD17O,1.800000X1.800000*%
%ADD18R,1.800000X1.800000*%
G04 APERTURE END LIST*
%TO.C,R19*%
G36*
G01*
X65400000Y-84025000D02*
X65400000Y-83475000D01*
G75*
G02*
X65675000Y-83200000I275000J0D01*
G01*
X66525000Y-83200000D01*
G75*
G02*
X66800000Y-83475000I0J-275000D01*
G01*
X66800000Y-84025000D01*
G75*
G02*
X66525000Y-84300000I-275000J0D01*
G01*
X65675000Y-84300000D01*
G75*
G02*
X65400000Y-84025000I0J275000D01*
G01*
G37*
G36*
G01*
X63200000Y-84025000D02*
X63200000Y-83475000D01*
G75*
G02*
X63475000Y-83200000I275000J0D01*
G01*
X64325000Y-83200000D01*
G75*
G02*
X64600000Y-83475000I0J-275000D01*
G01*
X64600000Y-84025000D01*
G75*
G02*
X64325000Y-84300000I-275000J0D01*
G01*
X63475000Y-84300000D01*
G75*
G02*
X63200000Y-84025000I0J275000D01*
G01*
G37*
%TD*%
%TO.C,R18*%
G36*
G01*
X73900000Y-84025000D02*
X73900000Y-83475000D01*
G75*
G02*
X74175000Y-83200000I275000J0D01*
G01*
X75025000Y-83200000D01*
G75*
G02*
X75300000Y-83475000I0J-275000D01*
G01*
X75300000Y-84025000D01*
G75*
G02*
X75025000Y-84300000I-275000J0D01*
G01*
X74175000Y-84300000D01*
G75*
G02*
X73900000Y-84025000I0J275000D01*
G01*
G37*
G36*
G01*
X71700000Y-84025000D02*
X71700000Y-83475000D01*
G75*
G02*
X71975000Y-83200000I275000J0D01*
G01*
X72825000Y-83200000D01*
G75*
G02*
X73100000Y-83475000I0J-275000D01*
G01*
X73100000Y-84025000D01*
G75*
G02*
X72825000Y-84300000I-275000J0D01*
G01*
X71975000Y-84300000D01*
G75*
G02*
X71700000Y-84025000I0J275000D01*
G01*
G37*
%TD*%
%TO.C,R17*%
G36*
G01*
X82400000Y-84025000D02*
X82400000Y-83475000D01*
G75*
G02*
X82675000Y-83200000I275000J0D01*
G01*
X83525000Y-83200000D01*
G75*
G02*
X83800000Y-83475000I0J-275000D01*
G01*
X83800000Y-84025000D01*
G75*
G02*
X83525000Y-84300000I-275000J0D01*
G01*
X82675000Y-84300000D01*
G75*
G02*
X82400000Y-84025000I0J275000D01*
G01*
G37*
G36*
G01*
X80200000Y-84025000D02*
X80200000Y-83475000D01*
G75*
G02*
X80475000Y-83200000I275000J0D01*
G01*
X81325000Y-83200000D01*
G75*
G02*
X81600000Y-83475000I0J-275000D01*
G01*
X81600000Y-84025000D01*
G75*
G02*
X81325000Y-84300000I-275000J0D01*
G01*
X80475000Y-84300000D01*
G75*
G02*
X80200000Y-84025000I0J275000D01*
G01*
G37*
%TD*%
%TO.C,R16*%
G36*
G01*
X90900000Y-84025000D02*
X90900000Y-83475000D01*
G75*
G02*
X91175000Y-83200000I275000J0D01*
G01*
X92025000Y-83200000D01*
G75*
G02*
X92300000Y-83475000I0J-275000D01*
G01*
X92300000Y-84025000D01*
G75*
G02*
X92025000Y-84300000I-275000J0D01*
G01*
X91175000Y-84300000D01*
G75*
G02*
X90900000Y-84025000I0J275000D01*
G01*
G37*
G36*
G01*
X88700000Y-84025000D02*
X88700000Y-83475000D01*
G75*
G02*
X88975000Y-83200000I275000J0D01*
G01*
X89825000Y-83200000D01*
G75*
G02*
X90100000Y-83475000I0J-275000D01*
G01*
X90100000Y-84025000D01*
G75*
G02*
X89825000Y-84300000I-275000J0D01*
G01*
X88975000Y-84300000D01*
G75*
G02*
X88700000Y-84025000I0J275000D01*
G01*
G37*
%TD*%
%TO.C,R15*%
G36*
G01*
X99400000Y-84025000D02*
X99400000Y-83475000D01*
G75*
G02*
X99675000Y-83200000I275000J0D01*
G01*
X100525000Y-83200000D01*
G75*
G02*
X100800000Y-83475000I0J-275000D01*
G01*
X100800000Y-84025000D01*
G75*
G02*
X100525000Y-84300000I-275000J0D01*
G01*
X99675000Y-84300000D01*
G75*
G02*
X99400000Y-84025000I0J275000D01*
G01*
G37*
G36*
G01*
X97200000Y-84025000D02*
X97200000Y-83475000D01*
G75*
G02*
X97475000Y-83200000I275000J0D01*
G01*
X98325000Y-83200000D01*
G75*
G02*
X98600000Y-83475000I0J-275000D01*
G01*
X98600000Y-84025000D01*
G75*
G02*
X98325000Y-84300000I-275000J0D01*
G01*
X97475000Y-84300000D01*
G75*
G02*
X97200000Y-84025000I0J275000D01*
G01*
G37*
%TD*%
%TO.C,D12*%
G36*
G01*
X66800000Y-81580000D02*
X66800000Y-82420000D01*
G75*
G02*
X66470000Y-82750000I-330000J0D01*
G01*
X65230000Y-82750000D01*
G75*
G02*
X64900000Y-82420000I0J330000D01*
G01*
X64900000Y-81580000D01*
G75*
G02*
X65230000Y-81250000I330000J0D01*
G01*
X66470000Y-81250000D01*
G75*
G02*
X66800000Y-81580000I0J-330000D01*
G01*
G37*
G36*
G01*
X69600000Y-81580000D02*
X69600000Y-82420000D01*
G75*
G02*
X69270000Y-82750000I-330000J0D01*
G01*
X68030000Y-82750000D01*
G75*
G02*
X67700000Y-82420000I0J330000D01*
G01*
X67700000Y-81580000D01*
G75*
G02*
X68030000Y-81250000I330000J0D01*
G01*
X69270000Y-81250000D01*
G75*
G02*
X69600000Y-81580000I0J-330000D01*
G01*
G37*
%TD*%
%TO.C,D11*%
G36*
G01*
X75300000Y-81580000D02*
X75300000Y-82420000D01*
G75*
G02*
X74970000Y-82750000I-330000J0D01*
G01*
X73730000Y-82750000D01*
G75*
G02*
X73400000Y-82420000I0J330000D01*
G01*
X73400000Y-81580000D01*
G75*
G02*
X73730000Y-81250000I330000J0D01*
G01*
X74970000Y-81250000D01*
G75*
G02*
X75300000Y-81580000I0J-330000D01*
G01*
G37*
G36*
G01*
X78100000Y-81580000D02*
X78100000Y-82420000D01*
G75*
G02*
X77770000Y-82750000I-330000J0D01*
G01*
X76530000Y-82750000D01*
G75*
G02*
X76200000Y-82420000I0J330000D01*
G01*
X76200000Y-81580000D01*
G75*
G02*
X76530000Y-81250000I330000J0D01*
G01*
X77770000Y-81250000D01*
G75*
G02*
X78100000Y-81580000I0J-330000D01*
G01*
G37*
%TD*%
%TO.C,D10*%
G36*
G01*
X83800000Y-81580000D02*
X83800000Y-82420000D01*
G75*
G02*
X83470000Y-82750000I-330000J0D01*
G01*
X82230000Y-82750000D01*
G75*
G02*
X81900000Y-82420000I0J330000D01*
G01*
X81900000Y-81580000D01*
G75*
G02*
X82230000Y-81250000I330000J0D01*
G01*
X83470000Y-81250000D01*
G75*
G02*
X83800000Y-81580000I0J-330000D01*
G01*
G37*
G36*
G01*
X86600000Y-81580000D02*
X86600000Y-82420000D01*
G75*
G02*
X86270000Y-82750000I-330000J0D01*
G01*
X85030000Y-82750000D01*
G75*
G02*
X84700000Y-82420000I0J330000D01*
G01*
X84700000Y-81580000D01*
G75*
G02*
X85030000Y-81250000I330000J0D01*
G01*
X86270000Y-81250000D01*
G75*
G02*
X86600000Y-81580000I0J-330000D01*
G01*
G37*
%TD*%
%TO.C,D9*%
G36*
G01*
X92300000Y-81580000D02*
X92300000Y-82420000D01*
G75*
G02*
X91970000Y-82750000I-330000J0D01*
G01*
X90730000Y-82750000D01*
G75*
G02*
X90400000Y-82420000I0J330000D01*
G01*
X90400000Y-81580000D01*
G75*
G02*
X90730000Y-81250000I330000J0D01*
G01*
X91970000Y-81250000D01*
G75*
G02*
X92300000Y-81580000I0J-330000D01*
G01*
G37*
G36*
G01*
X95100000Y-81580000D02*
X95100000Y-82420000D01*
G75*
G02*
X94770000Y-82750000I-330000J0D01*
G01*
X93530000Y-82750000D01*
G75*
G02*
X93200000Y-82420000I0J330000D01*
G01*
X93200000Y-81580000D01*
G75*
G02*
X93530000Y-81250000I330000J0D01*
G01*
X94770000Y-81250000D01*
G75*
G02*
X95100000Y-81580000I0J-330000D01*
G01*
G37*
%TD*%
%TO.C,D8*%
G36*
G01*
X100800000Y-81580000D02*
X100800000Y-82420000D01*
G75*
G02*
X100470000Y-82750000I-330000J0D01*
G01*
X99230000Y-82750000D01*
G75*
G02*
X98900000Y-82420000I0J330000D01*
G01*
X98900000Y-81580000D01*
G75*
G02*
X99230000Y-81250000I330000J0D01*
G01*
X100470000Y-81250000D01*
G75*
G02*
X100800000Y-81580000I0J-330000D01*
G01*
G37*
G36*
G01*
X103600000Y-81580000D02*
X103600000Y-82420000D01*
G75*
G02*
X103270000Y-82750000I-330000J0D01*
G01*
X102030000Y-82750000D01*
G75*
G02*
X101700000Y-82420000I0J330000D01*
G01*
X101700000Y-81580000D01*
G75*
G02*
X102030000Y-81250000I330000J0D01*
G01*
X103270000Y-81250000D01*
G75*
G02*
X103600000Y-81580000I0J-330000D01*
G01*
G37*
%TD*%
%TO.C,R14*%
G36*
G01*
X56900000Y-84025000D02*
X56900000Y-83475000D01*
G75*
G02*
X57175000Y-83200000I275000J0D01*
G01*
X58025000Y-83200000D01*
G75*
G02*
X58300000Y-83475000I0J-275000D01*
G01*
X58300000Y-84025000D01*
G75*
G02*
X58025000Y-84300000I-275000J0D01*
G01*
X57175000Y-84300000D01*
G75*
G02*
X56900000Y-84025000I0J275000D01*
G01*
G37*
G36*
G01*
X54700000Y-84025000D02*
X54700000Y-83475000D01*
G75*
G02*
X54975000Y-83200000I275000J0D01*
G01*
X55825000Y-83200000D01*
G75*
G02*
X56100000Y-83475000I0J-275000D01*
G01*
X56100000Y-84025000D01*
G75*
G02*
X55825000Y-84300000I-275000J0D01*
G01*
X54975000Y-84300000D01*
G75*
G02*
X54700000Y-84025000I0J275000D01*
G01*
G37*
%TD*%
%TO.C,D7*%
G36*
G01*
X58300000Y-81580000D02*
X58300000Y-82420000D01*
G75*
G02*
X57970000Y-82750000I-330000J0D01*
G01*
X56730000Y-82750000D01*
G75*
G02*
X56400000Y-82420000I0J330000D01*
G01*
X56400000Y-81580000D01*
G75*
G02*
X56730000Y-81250000I330000J0D01*
G01*
X57970000Y-81250000D01*
G75*
G02*
X58300000Y-81580000I0J-330000D01*
G01*
G37*
G36*
G01*
X61100000Y-81580000D02*
X61100000Y-82420000D01*
G75*
G02*
X60770000Y-82750000I-330000J0D01*
G01*
X59530000Y-82750000D01*
G75*
G02*
X59200000Y-82420000I0J330000D01*
G01*
X59200000Y-81580000D01*
G75*
G02*
X59530000Y-81250000I330000J0D01*
G01*
X60770000Y-81250000D01*
G75*
G02*
X61100000Y-81580000I0J-330000D01*
G01*
G37*
%TD*%
D10*
%TO.C,J2*%
X62300000Y-64100000D03*
D11*
X53300000Y-69950000D03*
X53300000Y-57050000D03*
D12*
X49500000Y-63500000D03*
%TD*%
%TO.C,R13*%
G36*
G01*
X63350000Y-55725000D02*
X63350000Y-56275000D01*
G75*
G02*
X63075000Y-56550000I-275000J0D01*
G01*
X62225000Y-56550000D01*
G75*
G02*
X61950000Y-56275000I0J275000D01*
G01*
X61950000Y-55725000D01*
G75*
G02*
X62225000Y-55450000I275000J0D01*
G01*
X63075000Y-55450000D01*
G75*
G02*
X63350000Y-55725000I0J-275000D01*
G01*
G37*
G36*
G01*
X65550000Y-55725000D02*
X65550000Y-56275000D01*
G75*
G02*
X65275000Y-56550000I-275000J0D01*
G01*
X64425000Y-56550000D01*
G75*
G02*
X64150000Y-56275000I0J275000D01*
G01*
X64150000Y-55725000D01*
G75*
G02*
X64425000Y-55450000I275000J0D01*
G01*
X65275000Y-55450000D01*
G75*
G02*
X65550000Y-55725000I0J-275000D01*
G01*
G37*
%TD*%
D13*
%TO.C,J9*%
X53500000Y-77270000D03*
G36*
G01*
X53050000Y-73830000D02*
X53950000Y-73830000D01*
G75*
G02*
X54400000Y-74280000I0J-450000D01*
G01*
X54400000Y-75180000D01*
G75*
G02*
X53950000Y-75630000I-450000J0D01*
G01*
X53050000Y-75630000D01*
G75*
G02*
X52600000Y-75180000I0J450000D01*
G01*
X52600000Y-74280000D01*
G75*
G02*
X53050000Y-73830000I450000J0D01*
G01*
G37*
%TD*%
%TO.C,C11*%
G36*
G01*
X59900000Y-56275000D02*
X59900000Y-55725000D01*
G75*
G02*
X60175000Y-55450000I275000J0D01*
G01*
X61025000Y-55450000D01*
G75*
G02*
X61300000Y-55725000I0J-275000D01*
G01*
X61300000Y-56275000D01*
G75*
G02*
X61025000Y-56550000I-275000J0D01*
G01*
X60175000Y-56550000D01*
G75*
G02*
X59900000Y-56275000I0J275000D01*
G01*
G37*
G36*
G01*
X57700000Y-56275000D02*
X57700000Y-55725000D01*
G75*
G02*
X57975000Y-55450000I275000J0D01*
G01*
X58825000Y-55450000D01*
G75*
G02*
X59100000Y-55725000I0J-275000D01*
G01*
X59100000Y-56275000D01*
G75*
G02*
X58825000Y-56550000I-275000J0D01*
G01*
X57975000Y-56550000D01*
G75*
G02*
X57700000Y-56275000I0J275000D01*
G01*
G37*
%TD*%
D14*
%TO.C,U1*%
X84500000Y-70850000D03*
X68500000Y-57350000D03*
D13*
X70150000Y-61560000D03*
X67610000Y-61560000D03*
X67610000Y-64100000D03*
G36*
G01*
X66710000Y-67090000D02*
X66710000Y-66190000D01*
G75*
G02*
X67160000Y-65740000I450000J0D01*
G01*
X68060000Y-65740000D01*
G75*
G02*
X68510000Y-66190000I0J-450000D01*
G01*
X68510000Y-67090000D01*
G75*
G02*
X68060000Y-67540000I-450000J0D01*
G01*
X67160000Y-67540000D01*
G75*
G02*
X66710000Y-67090000I0J450000D01*
G01*
G37*
G36*
G01*
X66710000Y-69630000D02*
X66710000Y-68730000D01*
G75*
G02*
X67160000Y-68280000I450000J0D01*
G01*
X68060000Y-68280000D01*
G75*
G02*
X68510000Y-68730000I0J-450000D01*
G01*
X68510000Y-69630000D01*
G75*
G02*
X68060000Y-70080000I-450000J0D01*
G01*
X67160000Y-70080000D01*
G75*
G02*
X66710000Y-69630000I0J450000D01*
G01*
G37*
X67610000Y-71720000D03*
%TD*%
%TO.C,R12*%
G36*
G01*
X56100000Y-86475000D02*
X56100000Y-87025000D01*
G75*
G02*
X55825000Y-87300000I-275000J0D01*
G01*
X54975000Y-87300000D01*
G75*
G02*
X54700000Y-87025000I0J275000D01*
G01*
X54700000Y-86475000D01*
G75*
G02*
X54975000Y-86200000I275000J0D01*
G01*
X55825000Y-86200000D01*
G75*
G02*
X56100000Y-86475000I0J-275000D01*
G01*
G37*
G36*
G01*
X58300000Y-86475000D02*
X58300000Y-87025000D01*
G75*
G02*
X58025000Y-87300000I-275000J0D01*
G01*
X57175000Y-87300000D01*
G75*
G02*
X56900000Y-87025000I0J275000D01*
G01*
X56900000Y-86475000D01*
G75*
G02*
X57175000Y-86200000I275000J0D01*
G01*
X58025000Y-86200000D01*
G75*
G02*
X58300000Y-86475000I0J-275000D01*
G01*
G37*
%TD*%
%TO.C,R11*%
G36*
G01*
X56100000Y-84975000D02*
X56100000Y-85525000D01*
G75*
G02*
X55825000Y-85800000I-275000J0D01*
G01*
X54975000Y-85800000D01*
G75*
G02*
X54700000Y-85525000I0J275000D01*
G01*
X54700000Y-84975000D01*
G75*
G02*
X54975000Y-84700000I275000J0D01*
G01*
X55825000Y-84700000D01*
G75*
G02*
X56100000Y-84975000I0J-275000D01*
G01*
G37*
G36*
G01*
X58300000Y-84975000D02*
X58300000Y-85525000D01*
G75*
G02*
X58025000Y-85800000I-275000J0D01*
G01*
X57175000Y-85800000D01*
G75*
G02*
X56900000Y-85525000I0J275000D01*
G01*
X56900000Y-84975000D01*
G75*
G02*
X57175000Y-84700000I275000J0D01*
G01*
X58025000Y-84700000D01*
G75*
G02*
X58300000Y-84975000I0J-275000D01*
G01*
G37*
%TD*%
D15*
%TO.C,Q6*%
X55290000Y-89250000D03*
X58710000Y-88300000D03*
X58710000Y-90200000D03*
%TD*%
D13*
%TO.C,J8*%
X59020000Y-96500000D03*
G36*
G01*
X55580000Y-96950000D02*
X55580000Y-96050000D01*
G75*
G02*
X56030000Y-95600000I450000J0D01*
G01*
X56930000Y-95600000D01*
G75*
G02*
X57380000Y-96050000I0J-450000D01*
G01*
X57380000Y-96950000D01*
G75*
G02*
X56930000Y-97400000I-450000J0D01*
G01*
X56030000Y-97400000D01*
G75*
G02*
X55580000Y-96950000I0J450000D01*
G01*
G37*
%TD*%
%TO.C,D6*%
G36*
G01*
X56800000Y-93830000D02*
X56800000Y-94670000D01*
G75*
G02*
X56470000Y-95000000I-330000J0D01*
G01*
X55230000Y-95000000D01*
G75*
G02*
X54900000Y-94670000I0J330000D01*
G01*
X54900000Y-93830000D01*
G75*
G02*
X55230000Y-93500000I330000J0D01*
G01*
X56470000Y-93500000D01*
G75*
G02*
X56800000Y-93830000I0J-330000D01*
G01*
G37*
G36*
G01*
X59600000Y-93830000D02*
X59600000Y-94670000D01*
G75*
G02*
X59270000Y-95000000I-330000J0D01*
G01*
X58030000Y-95000000D01*
G75*
G02*
X57700000Y-94670000I0J330000D01*
G01*
X57700000Y-93830000D01*
G75*
G02*
X58030000Y-93500000I330000J0D01*
G01*
X59270000Y-93500000D01*
G75*
G02*
X59600000Y-93830000I0J-330000D01*
G01*
G37*
%TD*%
%TO.C,C10*%
G36*
G01*
X56525000Y-91442544D02*
X56525000Y-92757456D01*
G75*
G02*
X56257456Y-93025000I-267544J0D01*
G01*
X55267544Y-93025000D01*
G75*
G02*
X55000000Y-92757456I0J267544D01*
G01*
X55000000Y-91442544D01*
G75*
G02*
X55267544Y-91175000I267544J0D01*
G01*
X56257456Y-91175000D01*
G75*
G02*
X56525000Y-91442544I0J-267544D01*
G01*
G37*
G36*
G01*
X59500000Y-91442544D02*
X59500000Y-92757456D01*
G75*
G02*
X59232456Y-93025000I-267544J0D01*
G01*
X58242544Y-93025000D01*
G75*
G02*
X57975000Y-92757456I0J267544D01*
G01*
X57975000Y-91442544D01*
G75*
G02*
X58242544Y-91175000I267544J0D01*
G01*
X59232456Y-91175000D01*
G75*
G02*
X59500000Y-91442544I0J-267544D01*
G01*
G37*
%TD*%
%TO.C,C3*%
G36*
G01*
X91400000Y-56775000D02*
X91400000Y-56225000D01*
G75*
G02*
X91675000Y-55950000I275000J0D01*
G01*
X92525000Y-55950000D01*
G75*
G02*
X92800000Y-56225000I0J-275000D01*
G01*
X92800000Y-56775000D01*
G75*
G02*
X92525000Y-57050000I-275000J0D01*
G01*
X91675000Y-57050000D01*
G75*
G02*
X91400000Y-56775000I0J275000D01*
G01*
G37*
G36*
G01*
X89200000Y-56775000D02*
X89200000Y-56225000D01*
G75*
G02*
X89475000Y-55950000I275000J0D01*
G01*
X90325000Y-55950000D01*
G75*
G02*
X90600000Y-56225000I0J-275000D01*
G01*
X90600000Y-56775000D01*
G75*
G02*
X90325000Y-57050000I-275000J0D01*
G01*
X89475000Y-57050000D01*
G75*
G02*
X89200000Y-56775000I0J275000D01*
G01*
G37*
%TD*%
%TO.C,C2*%
G36*
G01*
X91400000Y-58525000D02*
X91400000Y-57975000D01*
G75*
G02*
X91675000Y-57700000I275000J0D01*
G01*
X92525000Y-57700000D01*
G75*
G02*
X92800000Y-57975000I0J-275000D01*
G01*
X92800000Y-58525000D01*
G75*
G02*
X92525000Y-58800000I-275000J0D01*
G01*
X91675000Y-58800000D01*
G75*
G02*
X91400000Y-58525000I0J275000D01*
G01*
G37*
G36*
G01*
X89200000Y-58525000D02*
X89200000Y-57975000D01*
G75*
G02*
X89475000Y-57700000I275000J0D01*
G01*
X90325000Y-57700000D01*
G75*
G02*
X90600000Y-57975000I0J-275000D01*
G01*
X90600000Y-58525000D01*
G75*
G02*
X90325000Y-58800000I-275000J0D01*
G01*
X89475000Y-58800000D01*
G75*
G02*
X89200000Y-58525000I0J275000D01*
G01*
G37*
%TD*%
%TO.C,R10*%
G36*
G01*
X64600000Y-86475000D02*
X64600000Y-87025000D01*
G75*
G02*
X64325000Y-87300000I-275000J0D01*
G01*
X63475000Y-87300000D01*
G75*
G02*
X63200000Y-87025000I0J275000D01*
G01*
X63200000Y-86475000D01*
G75*
G02*
X63475000Y-86200000I275000J0D01*
G01*
X64325000Y-86200000D01*
G75*
G02*
X64600000Y-86475000I0J-275000D01*
G01*
G37*
G36*
G01*
X66800000Y-86475000D02*
X66800000Y-87025000D01*
G75*
G02*
X66525000Y-87300000I-275000J0D01*
G01*
X65675000Y-87300000D01*
G75*
G02*
X65400000Y-87025000I0J275000D01*
G01*
X65400000Y-86475000D01*
G75*
G02*
X65675000Y-86200000I275000J0D01*
G01*
X66525000Y-86200000D01*
G75*
G02*
X66800000Y-86475000I0J-275000D01*
G01*
G37*
%TD*%
%TO.C,R9*%
G36*
G01*
X73100000Y-86475000D02*
X73100000Y-87025000D01*
G75*
G02*
X72825000Y-87300000I-275000J0D01*
G01*
X71975000Y-87300000D01*
G75*
G02*
X71700000Y-87025000I0J275000D01*
G01*
X71700000Y-86475000D01*
G75*
G02*
X71975000Y-86200000I275000J0D01*
G01*
X72825000Y-86200000D01*
G75*
G02*
X73100000Y-86475000I0J-275000D01*
G01*
G37*
G36*
G01*
X75300000Y-86475000D02*
X75300000Y-87025000D01*
G75*
G02*
X75025000Y-87300000I-275000J0D01*
G01*
X74175000Y-87300000D01*
G75*
G02*
X73900000Y-87025000I0J275000D01*
G01*
X73900000Y-86475000D01*
G75*
G02*
X74175000Y-86200000I275000J0D01*
G01*
X75025000Y-86200000D01*
G75*
G02*
X75300000Y-86475000I0J-275000D01*
G01*
G37*
%TD*%
%TO.C,R8*%
G36*
G01*
X81600000Y-86475000D02*
X81600000Y-87025000D01*
G75*
G02*
X81325000Y-87300000I-275000J0D01*
G01*
X80475000Y-87300000D01*
G75*
G02*
X80200000Y-87025000I0J275000D01*
G01*
X80200000Y-86475000D01*
G75*
G02*
X80475000Y-86200000I275000J0D01*
G01*
X81325000Y-86200000D01*
G75*
G02*
X81600000Y-86475000I0J-275000D01*
G01*
G37*
G36*
G01*
X83800000Y-86475000D02*
X83800000Y-87025000D01*
G75*
G02*
X83525000Y-87300000I-275000J0D01*
G01*
X82675000Y-87300000D01*
G75*
G02*
X82400000Y-87025000I0J275000D01*
G01*
X82400000Y-86475000D01*
G75*
G02*
X82675000Y-86200000I275000J0D01*
G01*
X83525000Y-86200000D01*
G75*
G02*
X83800000Y-86475000I0J-275000D01*
G01*
G37*
%TD*%
%TO.C,R7*%
G36*
G01*
X64600000Y-84975000D02*
X64600000Y-85525000D01*
G75*
G02*
X64325000Y-85800000I-275000J0D01*
G01*
X63475000Y-85800000D01*
G75*
G02*
X63200000Y-85525000I0J275000D01*
G01*
X63200000Y-84975000D01*
G75*
G02*
X63475000Y-84700000I275000J0D01*
G01*
X64325000Y-84700000D01*
G75*
G02*
X64600000Y-84975000I0J-275000D01*
G01*
G37*
G36*
G01*
X66800000Y-84975000D02*
X66800000Y-85525000D01*
G75*
G02*
X66525000Y-85800000I-275000J0D01*
G01*
X65675000Y-85800000D01*
G75*
G02*
X65400000Y-85525000I0J275000D01*
G01*
X65400000Y-84975000D01*
G75*
G02*
X65675000Y-84700000I275000J0D01*
G01*
X66525000Y-84700000D01*
G75*
G02*
X66800000Y-84975000I0J-275000D01*
G01*
G37*
%TD*%
%TO.C,R6*%
G36*
G01*
X73100000Y-84975000D02*
X73100000Y-85525000D01*
G75*
G02*
X72825000Y-85800000I-275000J0D01*
G01*
X71975000Y-85800000D01*
G75*
G02*
X71700000Y-85525000I0J275000D01*
G01*
X71700000Y-84975000D01*
G75*
G02*
X71975000Y-84700000I275000J0D01*
G01*
X72825000Y-84700000D01*
G75*
G02*
X73100000Y-84975000I0J-275000D01*
G01*
G37*
G36*
G01*
X75300000Y-84975000D02*
X75300000Y-85525000D01*
G75*
G02*
X75025000Y-85800000I-275000J0D01*
G01*
X74175000Y-85800000D01*
G75*
G02*
X73900000Y-85525000I0J275000D01*
G01*
X73900000Y-84975000D01*
G75*
G02*
X74175000Y-84700000I275000J0D01*
G01*
X75025000Y-84700000D01*
G75*
G02*
X75300000Y-84975000I0J-275000D01*
G01*
G37*
%TD*%
%TO.C,R5*%
G36*
G01*
X81600000Y-84975000D02*
X81600000Y-85525000D01*
G75*
G02*
X81325000Y-85800000I-275000J0D01*
G01*
X80475000Y-85800000D01*
G75*
G02*
X80200000Y-85525000I0J275000D01*
G01*
X80200000Y-84975000D01*
G75*
G02*
X80475000Y-84700000I275000J0D01*
G01*
X81325000Y-84700000D01*
G75*
G02*
X81600000Y-84975000I0J-275000D01*
G01*
G37*
G36*
G01*
X83800000Y-84975000D02*
X83800000Y-85525000D01*
G75*
G02*
X83525000Y-85800000I-275000J0D01*
G01*
X82675000Y-85800000D01*
G75*
G02*
X82400000Y-85525000I0J275000D01*
G01*
X82400000Y-84975000D01*
G75*
G02*
X82675000Y-84700000I275000J0D01*
G01*
X83525000Y-84700000D01*
G75*
G02*
X83800000Y-84975000I0J-275000D01*
G01*
G37*
%TD*%
%TO.C,R4*%
G36*
G01*
X90100000Y-86475000D02*
X90100000Y-87025000D01*
G75*
G02*
X89825000Y-87300000I-275000J0D01*
G01*
X88975000Y-87300000D01*
G75*
G02*
X88700000Y-87025000I0J275000D01*
G01*
X88700000Y-86475000D01*
G75*
G02*
X88975000Y-86200000I275000J0D01*
G01*
X89825000Y-86200000D01*
G75*
G02*
X90100000Y-86475000I0J-275000D01*
G01*
G37*
G36*
G01*
X92300000Y-86475000D02*
X92300000Y-87025000D01*
G75*
G02*
X92025000Y-87300000I-275000J0D01*
G01*
X91175000Y-87300000D01*
G75*
G02*
X90900000Y-87025000I0J275000D01*
G01*
X90900000Y-86475000D01*
G75*
G02*
X91175000Y-86200000I275000J0D01*
G01*
X92025000Y-86200000D01*
G75*
G02*
X92300000Y-86475000I0J-275000D01*
G01*
G37*
%TD*%
%TO.C,R3*%
G36*
G01*
X98600000Y-86475000D02*
X98600000Y-87025000D01*
G75*
G02*
X98325000Y-87300000I-275000J0D01*
G01*
X97475000Y-87300000D01*
G75*
G02*
X97200000Y-87025000I0J275000D01*
G01*
X97200000Y-86475000D01*
G75*
G02*
X97475000Y-86200000I275000J0D01*
G01*
X98325000Y-86200000D01*
G75*
G02*
X98600000Y-86475000I0J-275000D01*
G01*
G37*
G36*
G01*
X100800000Y-86475000D02*
X100800000Y-87025000D01*
G75*
G02*
X100525000Y-87300000I-275000J0D01*
G01*
X99675000Y-87300000D01*
G75*
G02*
X99400000Y-87025000I0J275000D01*
G01*
X99400000Y-86475000D01*
G75*
G02*
X99675000Y-86200000I275000J0D01*
G01*
X100525000Y-86200000D01*
G75*
G02*
X100800000Y-86475000I0J-275000D01*
G01*
G37*
%TD*%
%TO.C,R2*%
G36*
G01*
X90100000Y-84975000D02*
X90100000Y-85525000D01*
G75*
G02*
X89825000Y-85800000I-275000J0D01*
G01*
X88975000Y-85800000D01*
G75*
G02*
X88700000Y-85525000I0J275000D01*
G01*
X88700000Y-84975000D01*
G75*
G02*
X88975000Y-84700000I275000J0D01*
G01*
X89825000Y-84700000D01*
G75*
G02*
X90100000Y-84975000I0J-275000D01*
G01*
G37*
G36*
G01*
X92300000Y-84975000D02*
X92300000Y-85525000D01*
G75*
G02*
X92025000Y-85800000I-275000J0D01*
G01*
X91175000Y-85800000D01*
G75*
G02*
X90900000Y-85525000I0J275000D01*
G01*
X90900000Y-84975000D01*
G75*
G02*
X91175000Y-84700000I275000J0D01*
G01*
X92025000Y-84700000D01*
G75*
G02*
X92300000Y-84975000I0J-275000D01*
G01*
G37*
%TD*%
%TO.C,R1*%
G36*
G01*
X98600000Y-84975000D02*
X98600000Y-85525000D01*
G75*
G02*
X98325000Y-85800000I-275000J0D01*
G01*
X97475000Y-85800000D01*
G75*
G02*
X97200000Y-85525000I0J275000D01*
G01*
X97200000Y-84975000D01*
G75*
G02*
X97475000Y-84700000I275000J0D01*
G01*
X98325000Y-84700000D01*
G75*
G02*
X98600000Y-84975000I0J-275000D01*
G01*
G37*
G36*
G01*
X100800000Y-84975000D02*
X100800000Y-85525000D01*
G75*
G02*
X100525000Y-85800000I-275000J0D01*
G01*
X99675000Y-85800000D01*
G75*
G02*
X99400000Y-85525000I0J275000D01*
G01*
X99400000Y-84975000D01*
G75*
G02*
X99675000Y-84700000I275000J0D01*
G01*
X100525000Y-84700000D01*
G75*
G02*
X100800000Y-84975000I0J-275000D01*
G01*
G37*
%TD*%
D15*
%TO.C,Q5*%
X63790000Y-89250000D03*
X67210000Y-88300000D03*
X67210000Y-90200000D03*
%TD*%
%TO.C,Q4*%
X72290000Y-89250000D03*
X75710000Y-88300000D03*
X75710000Y-90200000D03*
%TD*%
%TO.C,Q3*%
X80790000Y-89250000D03*
X84210000Y-88300000D03*
X84210000Y-90200000D03*
%TD*%
%TO.C,Q2*%
X89290000Y-89250000D03*
X92710000Y-88300000D03*
X92710000Y-90200000D03*
%TD*%
%TO.C,Q1*%
X97790000Y-89250000D03*
X101210000Y-88300000D03*
X101210000Y-90200000D03*
%TD*%
%TO.C,MOD1*%
G36*
G01*
X104400000Y-70615000D02*
X104400000Y-69315000D01*
G75*
G02*
X104800000Y-68915000I400000J0D01*
G01*
X105000000Y-68915000D01*
G75*
G02*
X105400000Y-69315000I0J-400000D01*
G01*
X105400000Y-70615000D01*
G75*
G02*
X105000000Y-71015000I-400000J0D01*
G01*
X104800000Y-71015000D01*
G75*
G02*
X104400000Y-70615000I0J400000D01*
G01*
G37*
G36*
G01*
X92246000Y-68195000D02*
X94046000Y-68195000D01*
G75*
G02*
X94446000Y-68595000I0J-400000D01*
G01*
X94446000Y-68795000D01*
G75*
G02*
X94046000Y-69195000I-400000J0D01*
G01*
X92246000Y-69195000D01*
G75*
G02*
X91846000Y-68795000I0J400000D01*
G01*
X91846000Y-68595000D01*
G75*
G02*
X92246000Y-68195000I400000J0D01*
G01*
G37*
G36*
G01*
X92246000Y-66925000D02*
X94046000Y-66925000D01*
G75*
G02*
X94446000Y-67325000I0J-400000D01*
G01*
X94446000Y-67525000D01*
G75*
G02*
X94046000Y-67925000I-400000J0D01*
G01*
X92246000Y-67925000D01*
G75*
G02*
X91846000Y-67525000I0J400000D01*
G01*
X91846000Y-67325000D01*
G75*
G02*
X92246000Y-66925000I400000J0D01*
G01*
G37*
G36*
G01*
X92246000Y-65655000D02*
X94046000Y-65655000D01*
G75*
G02*
X94446000Y-66055000I0J-400000D01*
G01*
X94446000Y-66255000D01*
G75*
G02*
X94046000Y-66655000I-400000J0D01*
G01*
X92246000Y-66655000D01*
G75*
G02*
X91846000Y-66255000I0J400000D01*
G01*
X91846000Y-66055000D01*
G75*
G02*
X92246000Y-65655000I400000J0D01*
G01*
G37*
G36*
G01*
X92246000Y-64385000D02*
X94046000Y-64385000D01*
G75*
G02*
X94446000Y-64785000I0J-400000D01*
G01*
X94446000Y-64985000D01*
G75*
G02*
X94046000Y-65385000I-400000J0D01*
G01*
X92246000Y-65385000D01*
G75*
G02*
X91846000Y-64985000I0J400000D01*
G01*
X91846000Y-64785000D01*
G75*
G02*
X92246000Y-64385000I400000J0D01*
G01*
G37*
G36*
G01*
X92246000Y-63115000D02*
X94046000Y-63115000D01*
G75*
G02*
X94446000Y-63515000I0J-400000D01*
G01*
X94446000Y-63715000D01*
G75*
G02*
X94046000Y-64115000I-400000J0D01*
G01*
X92246000Y-64115000D01*
G75*
G02*
X91846000Y-63715000I0J400000D01*
G01*
X91846000Y-63515000D01*
G75*
G02*
X92246000Y-63115000I400000J0D01*
G01*
G37*
G36*
G01*
X92246000Y-61845000D02*
X94046000Y-61845000D01*
G75*
G02*
X94446000Y-62245000I0J-400000D01*
G01*
X94446000Y-62445000D01*
G75*
G02*
X94046000Y-62845000I-400000J0D01*
G01*
X92246000Y-62845000D01*
G75*
G02*
X91846000Y-62445000I0J400000D01*
G01*
X91846000Y-62245000D01*
G75*
G02*
X92246000Y-61845000I400000J0D01*
G01*
G37*
G36*
G01*
X92246000Y-60575000D02*
X94046000Y-60575000D01*
G75*
G02*
X94446000Y-60975000I0J-400000D01*
G01*
X94446000Y-61175000D01*
G75*
G02*
X94046000Y-61575000I-400000J0D01*
G01*
X92246000Y-61575000D01*
G75*
G02*
X91846000Y-61175000I0J400000D01*
G01*
X91846000Y-60975000D01*
G75*
G02*
X92246000Y-60575000I400000J0D01*
G01*
G37*
G36*
G01*
X92246000Y-59305000D02*
X94046000Y-59305000D01*
G75*
G02*
X94446000Y-59705000I0J-400000D01*
G01*
X94446000Y-59905000D01*
G75*
G02*
X94046000Y-60305000I-400000J0D01*
G01*
X92246000Y-60305000D01*
G75*
G02*
X91846000Y-59905000I0J400000D01*
G01*
X91846000Y-59705000D01*
G75*
G02*
X92246000Y-59305000I400000J0D01*
G01*
G37*
%TD*%
D13*
%TO.C,J7*%
X67520000Y-96500000D03*
G36*
G01*
X64080000Y-96950000D02*
X64080000Y-96050000D01*
G75*
G02*
X64530000Y-95600000I450000J0D01*
G01*
X65430000Y-95600000D01*
G75*
G02*
X65880000Y-96050000I0J-450000D01*
G01*
X65880000Y-96950000D01*
G75*
G02*
X65430000Y-97400000I-450000J0D01*
G01*
X64530000Y-97400000D01*
G75*
G02*
X64080000Y-96950000I0J450000D01*
G01*
G37*
%TD*%
%TO.C,J6*%
X76020000Y-96500000D03*
G36*
G01*
X72580000Y-96950000D02*
X72580000Y-96050000D01*
G75*
G02*
X73030000Y-95600000I450000J0D01*
G01*
X73930000Y-95600000D01*
G75*
G02*
X74380000Y-96050000I0J-450000D01*
G01*
X74380000Y-96950000D01*
G75*
G02*
X73930000Y-97400000I-450000J0D01*
G01*
X73030000Y-97400000D01*
G75*
G02*
X72580000Y-96950000I0J450000D01*
G01*
G37*
%TD*%
%TO.C,J5*%
X84520000Y-96500000D03*
G36*
G01*
X81080000Y-96950000D02*
X81080000Y-96050000D01*
G75*
G02*
X81530000Y-95600000I450000J0D01*
G01*
X82430000Y-95600000D01*
G75*
G02*
X82880000Y-96050000I0J-450000D01*
G01*
X82880000Y-96950000D01*
G75*
G02*
X82430000Y-97400000I-450000J0D01*
G01*
X81530000Y-97400000D01*
G75*
G02*
X81080000Y-96950000I0J450000D01*
G01*
G37*
%TD*%
%TO.C,J4*%
X93020000Y-96500000D03*
G36*
G01*
X89580000Y-96950000D02*
X89580000Y-96050000D01*
G75*
G02*
X90030000Y-95600000I450000J0D01*
G01*
X90930000Y-95600000D01*
G75*
G02*
X91380000Y-96050000I0J-450000D01*
G01*
X91380000Y-96950000D01*
G75*
G02*
X90930000Y-97400000I-450000J0D01*
G01*
X90030000Y-97400000D01*
G75*
G02*
X89580000Y-96950000I0J450000D01*
G01*
G37*
%TD*%
%TO.C,J3*%
X101520000Y-96500000D03*
G36*
G01*
X98080000Y-96950000D02*
X98080000Y-96050000D01*
G75*
G02*
X98530000Y-95600000I450000J0D01*
G01*
X99430000Y-95600000D01*
G75*
G02*
X99880000Y-96050000I0J-450000D01*
G01*
X99880000Y-96950000D01*
G75*
G02*
X99430000Y-97400000I-450000J0D01*
G01*
X98530000Y-97400000D01*
G75*
G02*
X98080000Y-96950000I0J450000D01*
G01*
G37*
%TD*%
%TO.C,D5*%
G36*
G01*
X65300000Y-93830000D02*
X65300000Y-94670000D01*
G75*
G02*
X64970000Y-95000000I-330000J0D01*
G01*
X63730000Y-95000000D01*
G75*
G02*
X63400000Y-94670000I0J330000D01*
G01*
X63400000Y-93830000D01*
G75*
G02*
X63730000Y-93500000I330000J0D01*
G01*
X64970000Y-93500000D01*
G75*
G02*
X65300000Y-93830000I0J-330000D01*
G01*
G37*
G36*
G01*
X68100000Y-93830000D02*
X68100000Y-94670000D01*
G75*
G02*
X67770000Y-95000000I-330000J0D01*
G01*
X66530000Y-95000000D01*
G75*
G02*
X66200000Y-94670000I0J330000D01*
G01*
X66200000Y-93830000D01*
G75*
G02*
X66530000Y-93500000I330000J0D01*
G01*
X67770000Y-93500000D01*
G75*
G02*
X68100000Y-93830000I0J-330000D01*
G01*
G37*
%TD*%
%TO.C,D4*%
G36*
G01*
X73800000Y-93830000D02*
X73800000Y-94670000D01*
G75*
G02*
X73470000Y-95000000I-330000J0D01*
G01*
X72230000Y-95000000D01*
G75*
G02*
X71900000Y-94670000I0J330000D01*
G01*
X71900000Y-93830000D01*
G75*
G02*
X72230000Y-93500000I330000J0D01*
G01*
X73470000Y-93500000D01*
G75*
G02*
X73800000Y-93830000I0J-330000D01*
G01*
G37*
G36*
G01*
X76600000Y-93830000D02*
X76600000Y-94670000D01*
G75*
G02*
X76270000Y-95000000I-330000J0D01*
G01*
X75030000Y-95000000D01*
G75*
G02*
X74700000Y-94670000I0J330000D01*
G01*
X74700000Y-93830000D01*
G75*
G02*
X75030000Y-93500000I330000J0D01*
G01*
X76270000Y-93500000D01*
G75*
G02*
X76600000Y-93830000I0J-330000D01*
G01*
G37*
%TD*%
%TO.C,D3*%
G36*
G01*
X82300000Y-93830000D02*
X82300000Y-94670000D01*
G75*
G02*
X81970000Y-95000000I-330000J0D01*
G01*
X80730000Y-95000000D01*
G75*
G02*
X80400000Y-94670000I0J330000D01*
G01*
X80400000Y-93830000D01*
G75*
G02*
X80730000Y-93500000I330000J0D01*
G01*
X81970000Y-93500000D01*
G75*
G02*
X82300000Y-93830000I0J-330000D01*
G01*
G37*
G36*
G01*
X85100000Y-93830000D02*
X85100000Y-94670000D01*
G75*
G02*
X84770000Y-95000000I-330000J0D01*
G01*
X83530000Y-95000000D01*
G75*
G02*
X83200000Y-94670000I0J330000D01*
G01*
X83200000Y-93830000D01*
G75*
G02*
X83530000Y-93500000I330000J0D01*
G01*
X84770000Y-93500000D01*
G75*
G02*
X85100000Y-93830000I0J-330000D01*
G01*
G37*
%TD*%
%TO.C,D2*%
G36*
G01*
X90800000Y-93830000D02*
X90800000Y-94670000D01*
G75*
G02*
X90470000Y-95000000I-330000J0D01*
G01*
X89230000Y-95000000D01*
G75*
G02*
X88900000Y-94670000I0J330000D01*
G01*
X88900000Y-93830000D01*
G75*
G02*
X89230000Y-93500000I330000J0D01*
G01*
X90470000Y-93500000D01*
G75*
G02*
X90800000Y-93830000I0J-330000D01*
G01*
G37*
G36*
G01*
X93600000Y-93830000D02*
X93600000Y-94670000D01*
G75*
G02*
X93270000Y-95000000I-330000J0D01*
G01*
X92030000Y-95000000D01*
G75*
G02*
X91700000Y-94670000I0J330000D01*
G01*
X91700000Y-93830000D01*
G75*
G02*
X92030000Y-93500000I330000J0D01*
G01*
X93270000Y-93500000D01*
G75*
G02*
X93600000Y-93830000I0J-330000D01*
G01*
G37*
%TD*%
%TO.C,D1*%
G36*
G01*
X99300000Y-93830000D02*
X99300000Y-94670000D01*
G75*
G02*
X98970000Y-95000000I-330000J0D01*
G01*
X97730000Y-95000000D01*
G75*
G02*
X97400000Y-94670000I0J330000D01*
G01*
X97400000Y-93830000D01*
G75*
G02*
X97730000Y-93500000I330000J0D01*
G01*
X98970000Y-93500000D01*
G75*
G02*
X99300000Y-93830000I0J-330000D01*
G01*
G37*
G36*
G01*
X102100000Y-93830000D02*
X102100000Y-94670000D01*
G75*
G02*
X101770000Y-95000000I-330000J0D01*
G01*
X100530000Y-95000000D01*
G75*
G02*
X100200000Y-94670000I0J330000D01*
G01*
X100200000Y-93830000D01*
G75*
G02*
X100530000Y-93500000I330000J0D01*
G01*
X101770000Y-93500000D01*
G75*
G02*
X102100000Y-93830000I0J-330000D01*
G01*
G37*
%TD*%
%TO.C,C9*%
G36*
G01*
X65025000Y-91442544D02*
X65025000Y-92757456D01*
G75*
G02*
X64757456Y-93025000I-267544J0D01*
G01*
X63767544Y-93025000D01*
G75*
G02*
X63500000Y-92757456I0J267544D01*
G01*
X63500000Y-91442544D01*
G75*
G02*
X63767544Y-91175000I267544J0D01*
G01*
X64757456Y-91175000D01*
G75*
G02*
X65025000Y-91442544I0J-267544D01*
G01*
G37*
G36*
G01*
X68000000Y-91442544D02*
X68000000Y-92757456D01*
G75*
G02*
X67732456Y-93025000I-267544J0D01*
G01*
X66742544Y-93025000D01*
G75*
G02*
X66475000Y-92757456I0J267544D01*
G01*
X66475000Y-91442544D01*
G75*
G02*
X66742544Y-91175000I267544J0D01*
G01*
X67732456Y-91175000D01*
G75*
G02*
X68000000Y-91442544I0J-267544D01*
G01*
G37*
%TD*%
%TO.C,C8*%
G36*
G01*
X73525000Y-91442544D02*
X73525000Y-92757456D01*
G75*
G02*
X73257456Y-93025000I-267544J0D01*
G01*
X72267544Y-93025000D01*
G75*
G02*
X72000000Y-92757456I0J267544D01*
G01*
X72000000Y-91442544D01*
G75*
G02*
X72267544Y-91175000I267544J0D01*
G01*
X73257456Y-91175000D01*
G75*
G02*
X73525000Y-91442544I0J-267544D01*
G01*
G37*
G36*
G01*
X76500000Y-91442544D02*
X76500000Y-92757456D01*
G75*
G02*
X76232456Y-93025000I-267544J0D01*
G01*
X75242544Y-93025000D01*
G75*
G02*
X74975000Y-92757456I0J267544D01*
G01*
X74975000Y-91442544D01*
G75*
G02*
X75242544Y-91175000I267544J0D01*
G01*
X76232456Y-91175000D01*
G75*
G02*
X76500000Y-91442544I0J-267544D01*
G01*
G37*
%TD*%
%TO.C,C7*%
G36*
G01*
X82025000Y-91442544D02*
X82025000Y-92757456D01*
G75*
G02*
X81757456Y-93025000I-267544J0D01*
G01*
X80767544Y-93025000D01*
G75*
G02*
X80500000Y-92757456I0J267544D01*
G01*
X80500000Y-91442544D01*
G75*
G02*
X80767544Y-91175000I267544J0D01*
G01*
X81757456Y-91175000D01*
G75*
G02*
X82025000Y-91442544I0J-267544D01*
G01*
G37*
G36*
G01*
X85000000Y-91442544D02*
X85000000Y-92757456D01*
G75*
G02*
X84732456Y-93025000I-267544J0D01*
G01*
X83742544Y-93025000D01*
G75*
G02*
X83475000Y-92757456I0J267544D01*
G01*
X83475000Y-91442544D01*
G75*
G02*
X83742544Y-91175000I267544J0D01*
G01*
X84732456Y-91175000D01*
G75*
G02*
X85000000Y-91442544I0J-267544D01*
G01*
G37*
%TD*%
%TO.C,C6*%
G36*
G01*
X90525000Y-91442544D02*
X90525000Y-92757456D01*
G75*
G02*
X90257456Y-93025000I-267544J0D01*
G01*
X89267544Y-93025000D01*
G75*
G02*
X89000000Y-92757456I0J267544D01*
G01*
X89000000Y-91442544D01*
G75*
G02*
X89267544Y-91175000I267544J0D01*
G01*
X90257456Y-91175000D01*
G75*
G02*
X90525000Y-91442544I0J-267544D01*
G01*
G37*
G36*
G01*
X93500000Y-91442544D02*
X93500000Y-92757456D01*
G75*
G02*
X93232456Y-93025000I-267544J0D01*
G01*
X92242544Y-93025000D01*
G75*
G02*
X91975000Y-92757456I0J267544D01*
G01*
X91975000Y-91442544D01*
G75*
G02*
X92242544Y-91175000I267544J0D01*
G01*
X93232456Y-91175000D01*
G75*
G02*
X93500000Y-91442544I0J-267544D01*
G01*
G37*
%TD*%
%TO.C,C5*%
G36*
G01*
X99025000Y-91442544D02*
X99025000Y-92757456D01*
G75*
G02*
X98757456Y-93025000I-267544J0D01*
G01*
X97767544Y-93025000D01*
G75*
G02*
X97500000Y-92757456I0J267544D01*
G01*
X97500000Y-91442544D01*
G75*
G02*
X97767544Y-91175000I267544J0D01*
G01*
X98757456Y-91175000D01*
G75*
G02*
X99025000Y-91442544I0J-267544D01*
G01*
G37*
G36*
G01*
X102000000Y-91442544D02*
X102000000Y-92757456D01*
G75*
G02*
X101732456Y-93025000I-267544J0D01*
G01*
X100742544Y-93025000D01*
G75*
G02*
X100475000Y-92757456I0J267544D01*
G01*
X100475000Y-91442544D01*
G75*
G02*
X100742544Y-91175000I267544J0D01*
G01*
X101732456Y-91175000D01*
G75*
G02*
X102000000Y-91442544I0J-267544D01*
G01*
G37*
%TD*%
%TO.C,C4*%
G36*
G01*
X69725000Y-75157456D02*
X69725000Y-73842544D01*
G75*
G02*
X69992544Y-73575000I267544J0D01*
G01*
X70982456Y-73575000D01*
G75*
G02*
X71250000Y-73842544I0J-267544D01*
G01*
X71250000Y-75157456D01*
G75*
G02*
X70982456Y-75425000I-267544J0D01*
G01*
X69992544Y-75425000D01*
G75*
G02*
X69725000Y-75157456I0J267544D01*
G01*
G37*
G36*
G01*
X66750000Y-75157456D02*
X66750000Y-73842544D01*
G75*
G02*
X67017544Y-73575000I267544J0D01*
G01*
X68007456Y-73575000D01*
G75*
G02*
X68275000Y-73842544I0J-267544D01*
G01*
X68275000Y-75157456D01*
G75*
G02*
X68007456Y-75425000I-267544J0D01*
G01*
X67017544Y-75425000D01*
G75*
G02*
X66750000Y-75157456I0J267544D01*
G01*
G37*
%TD*%
%TO.C,C1*%
G36*
G01*
X59675000Y-69342544D02*
X59675000Y-70657456D01*
G75*
G02*
X59407456Y-70925000I-267544J0D01*
G01*
X58417544Y-70925000D01*
G75*
G02*
X58150000Y-70657456I0J267544D01*
G01*
X58150000Y-69342544D01*
G75*
G02*
X58417544Y-69075000I267544J0D01*
G01*
X59407456Y-69075000D01*
G75*
G02*
X59675000Y-69342544I0J-267544D01*
G01*
G37*
G36*
G01*
X62650000Y-69342544D02*
X62650000Y-70657456D01*
G75*
G02*
X62382456Y-70925000I-267544J0D01*
G01*
X61392544Y-70925000D01*
G75*
G02*
X61125000Y-70657456I0J267544D01*
G01*
X61125000Y-69342544D01*
G75*
G02*
X61392544Y-69075000I267544J0D01*
G01*
X62382456Y-69075000D01*
G75*
G02*
X62650000Y-69342544I0J-267544D01*
G01*
G37*
%TD*%
D16*
%TO.C,DR4*%
X108000000Y-100000000D03*
%TD*%
%TO.C,DR3*%
X108000000Y-51000000D03*
%TD*%
%TO.C,DR2*%
X50000000Y-100000000D03*
%TD*%
%TO.C,DR1*%
X50000000Y-51000000D03*
%TD*%
D17*
%TO.C,J1*%
X103130000Y-49730000D03*
X103130000Y-52270000D03*
X100590000Y-49730000D03*
X100590000Y-52270000D03*
X98050000Y-49730000D03*
X98050000Y-52270000D03*
X95510000Y-49730000D03*
X95510000Y-52270000D03*
X92970000Y-49730000D03*
X92970000Y-52270000D03*
X90430000Y-49730000D03*
X90430000Y-52270000D03*
X87890000Y-49730000D03*
X87890000Y-52270000D03*
X85350000Y-49730000D03*
X85350000Y-52270000D03*
X82810000Y-49730000D03*
X82810000Y-52270000D03*
X80270000Y-49730000D03*
X80270000Y-52270000D03*
X77730000Y-49730000D03*
X77730000Y-52270000D03*
X75190000Y-49730000D03*
X75190000Y-52270000D03*
X72650000Y-49730000D03*
X72650000Y-52270000D03*
X70110000Y-49730000D03*
X70110000Y-52270000D03*
X67570000Y-49730000D03*
X67570000Y-52270000D03*
X65030000Y-49730000D03*
X65030000Y-52270000D03*
X62490000Y-49730000D03*
X62490000Y-52270000D03*
X59950000Y-49730000D03*
X59950000Y-52270000D03*
X57410000Y-49730000D03*
X57410000Y-52270000D03*
X54870000Y-49730000D03*
D18*
X54870000Y-52270000D03*
%TD*%
M02*
