%TF.GenerationSoftware,KiCad,Pcbnew,(5.1.6-0-10_14)*%
%TF.CreationDate,2020-07-28T14:29:37+02:00*%
%TF.ProjectId,WaterPlant Pi,57617465-7250-46c6-916e-742050692e6b,rev?*%
%TF.SameCoordinates,Original*%
%TF.FileFunction,Legend,Bot*%
%TF.FilePolarity,Positive*%
%FSLAX46Y46*%
G04 Gerber Fmt 4.6, Leading zero omitted, Abs format (unit mm)*
G04 Created by KiCad (PCBNEW (5.1.6-0-10_14)) date 2020-07-28 14:29:37*
%MOMM*%
%LPD*%
G01*
G04 APERTURE LIST*
%ADD10C,0.152400*%
%ADD11C,0.002540*%
%ADD12C,0.150000*%
G04 APERTURE END LIST*
D10*
%TO.C,BatteryPolaritySign*%
X55450000Y-63500000D02*
X54150000Y-63500000D01*
X53250000Y-63900000D02*
X53250000Y-63100000D01*
X53650000Y-63500000D02*
X52850000Y-63500000D01*
X55350000Y-63500000D02*
G75*
G03*
X55350000Y-63500000I-100000J0D01*
G01*
X55450000Y-63500000D02*
G75*
G03*
X55450000Y-63500000I-200000J0D01*
G01*
X55550000Y-63500000D02*
G75*
G03*
X55550000Y-63500000I-300000J0D01*
G01*
X57850000Y-63500000D02*
X57050000Y-63500000D01*
X56150000Y-63500000D02*
X56650000Y-63500000D01*
X54074621Y-63500000D02*
G75*
G03*
X54074621Y-63500000I-824621J0D01*
G01*
X58250000Y-63500000D02*
G75*
G03*
X58250000Y-63500000I-800000J0D01*
G01*
X54650000Y-62900000D02*
G75*
G02*
X54650000Y-64100000I600000J-600000D01*
G01*
D11*
%TO.C,L1*%
G36*
X101130920Y-62711900D02*
G01*
X101133460Y-62856680D01*
X101136000Y-62983680D01*
X101143620Y-63082740D01*
X101153780Y-63141160D01*
X101158860Y-63153860D01*
X101196960Y-63166560D01*
X101275700Y-63184340D01*
X101387460Y-63207200D01*
X101519540Y-63232600D01*
X101552560Y-63240220D01*
X101699880Y-63268160D01*
X101844660Y-63293560D01*
X101966580Y-63316420D01*
X102052940Y-63334200D01*
X102058020Y-63334200D01*
X102200260Y-63364680D01*
X102367900Y-63788860D01*
X102538080Y-64207960D01*
X102258680Y-64614360D01*
X102167240Y-64748980D01*
X102085960Y-64868360D01*
X102022460Y-64964880D01*
X101979280Y-65030920D01*
X101964040Y-65058860D01*
X101976740Y-65086800D01*
X102025000Y-65145220D01*
X102096120Y-65229040D01*
X102187560Y-65328100D01*
X102289160Y-65434780D01*
X102393300Y-65544000D01*
X102497440Y-65648140D01*
X102588880Y-65739580D01*
X102665080Y-65810700D01*
X102715880Y-65851340D01*
X102733660Y-65861500D01*
X102761600Y-65846260D01*
X102827640Y-65805620D01*
X102921620Y-65742120D01*
X103041000Y-65663380D01*
X103157840Y-65582100D01*
X103287380Y-65493200D01*
X103404220Y-65414460D01*
X103500740Y-65353500D01*
X103564240Y-65312860D01*
X103589640Y-65300160D01*
X103627740Y-65310320D01*
X103698860Y-65340800D01*
X103792840Y-65386520D01*
X103818240Y-65401760D01*
X103917300Y-65450020D01*
X103978260Y-65477960D01*
X104011280Y-65483040D01*
X104034140Y-65470340D01*
X104046840Y-65447480D01*
X104069700Y-65399220D01*
X104107800Y-65310320D01*
X104161140Y-65188400D01*
X104222100Y-65041080D01*
X104290680Y-64873440D01*
X104364340Y-64693100D01*
X104440540Y-64510220D01*
X104514200Y-64327340D01*
X104585320Y-64157160D01*
X104646280Y-64004760D01*
X104697080Y-63875220D01*
X104735180Y-63776160D01*
X104758040Y-63717740D01*
X104760580Y-63702500D01*
X104740260Y-63672020D01*
X104684380Y-63623760D01*
X104625960Y-63583120D01*
X104427840Y-63425640D01*
X104272900Y-63242760D01*
X104163680Y-63037020D01*
X104097640Y-62818580D01*
X104077320Y-62595060D01*
X104105260Y-62369000D01*
X104181460Y-62148020D01*
X104303380Y-61942280D01*
X104435460Y-61789880D01*
X104623420Y-61642560D01*
X104834240Y-61540960D01*
X105057760Y-61487620D01*
X105281280Y-61480000D01*
X105507340Y-61520640D01*
X105725780Y-61607000D01*
X105923900Y-61741620D01*
X105992480Y-61802580D01*
X106152500Y-61993080D01*
X106261720Y-62201360D01*
X106325220Y-62422340D01*
X106340460Y-62648400D01*
X106309980Y-62871920D01*
X106233780Y-63087820D01*
X106109320Y-63288480D01*
X105941680Y-63471360D01*
X105829920Y-63557720D01*
X105751180Y-63621220D01*
X105692760Y-63674560D01*
X105667360Y-63712660D01*
X105667360Y-63715200D01*
X105677520Y-63750760D01*
X105705460Y-63826960D01*
X105748640Y-63941260D01*
X105807060Y-64080960D01*
X105873100Y-64243520D01*
X105944220Y-64423860D01*
X106020420Y-64606740D01*
X106096620Y-64792160D01*
X106167740Y-64967420D01*
X106236320Y-65127440D01*
X106294740Y-65267140D01*
X106343000Y-65373820D01*
X106376020Y-65444940D01*
X106388720Y-65470340D01*
X106414120Y-65480500D01*
X106459840Y-65470340D01*
X106538580Y-65437320D01*
X106619860Y-65394140D01*
X106823060Y-65279840D01*
X107247240Y-65571940D01*
X107381860Y-65663380D01*
X107501240Y-65742120D01*
X107597760Y-65805620D01*
X107663800Y-65846260D01*
X107691740Y-65861500D01*
X107717140Y-65843720D01*
X107778100Y-65790380D01*
X107859380Y-65711640D01*
X107963520Y-65610040D01*
X108080360Y-65495740D01*
X108093060Y-65483040D01*
X108209900Y-65363660D01*
X108311500Y-65259520D01*
X108392780Y-65173160D01*
X108448660Y-65112200D01*
X108471520Y-65084260D01*
X108456280Y-65053780D01*
X108415640Y-64987740D01*
X108352140Y-64893760D01*
X108273400Y-64774380D01*
X108192120Y-64657540D01*
X108103220Y-64525460D01*
X108021940Y-64406080D01*
X107958440Y-64309560D01*
X107915260Y-64243520D01*
X107902560Y-64218120D01*
X107907640Y-64182560D01*
X107930500Y-64108900D01*
X107966060Y-64007300D01*
X108009240Y-63887920D01*
X108060040Y-63758380D01*
X108108300Y-63631380D01*
X108154020Y-63519620D01*
X108192120Y-63435800D01*
X108220060Y-63385000D01*
X108222600Y-63377380D01*
X108253080Y-63369760D01*
X108326740Y-63351980D01*
X108433420Y-63326580D01*
X108565500Y-63301180D01*
X108707740Y-63270700D01*
X108852520Y-63242760D01*
X108992220Y-63214820D01*
X109111600Y-63191960D01*
X109203040Y-63176720D01*
X109256380Y-63169100D01*
X109261460Y-63169100D01*
X109264000Y-63143700D01*
X109264000Y-63070040D01*
X109266540Y-62958280D01*
X109269080Y-62816040D01*
X109269080Y-62650940D01*
X109269080Y-62607760D01*
X109269080Y-62419800D01*
X109266540Y-62277560D01*
X109264000Y-62178500D01*
X109261460Y-62109920D01*
X109253840Y-62069280D01*
X109241140Y-62046420D01*
X109223360Y-62036260D01*
X109205580Y-62031180D01*
X109159860Y-62021020D01*
X109070960Y-62003240D01*
X108946500Y-61980380D01*
X108799180Y-61952440D01*
X108677260Y-61929580D01*
X108524860Y-61901640D01*
X108392780Y-61876240D01*
X108288640Y-61855920D01*
X108222600Y-61840680D01*
X108202280Y-61835600D01*
X108184500Y-61805120D01*
X108154020Y-61734000D01*
X108108300Y-61634940D01*
X108057500Y-61520640D01*
X108006700Y-61396180D01*
X107955900Y-61276800D01*
X107912720Y-61172660D01*
X107882240Y-61093920D01*
X107867000Y-61050740D01*
X107867000Y-61048200D01*
X107882240Y-61017720D01*
X107922880Y-60949140D01*
X107986380Y-60850080D01*
X108067660Y-60730700D01*
X108161640Y-60593540D01*
X108169260Y-60580840D01*
X108263240Y-60443680D01*
X108344520Y-60321760D01*
X108410560Y-60225240D01*
X108453740Y-60154120D01*
X108471520Y-60123640D01*
X108471520Y-60121100D01*
X108453740Y-60093160D01*
X108400400Y-60032200D01*
X108324200Y-59950920D01*
X108227680Y-59856940D01*
X108121000Y-59750260D01*
X108011780Y-59646120D01*
X107905100Y-59547060D01*
X107811120Y-59463240D01*
X107734920Y-59397200D01*
X107684120Y-59359100D01*
X107668880Y-59351480D01*
X107635860Y-59371800D01*
X107564740Y-59417520D01*
X107465680Y-59483560D01*
X107343760Y-59567380D01*
X107209140Y-59658820D01*
X107071980Y-59750260D01*
X106950060Y-59831540D01*
X106851000Y-59895040D01*
X106779880Y-59935680D01*
X106746860Y-59950920D01*
X106711300Y-59940760D01*
X106635100Y-59915360D01*
X106530960Y-59874720D01*
X106411580Y-59829000D01*
X106289660Y-59780740D01*
X106172820Y-59732480D01*
X106078840Y-59691840D01*
X106012800Y-59663900D01*
X105992480Y-59651200D01*
X105982320Y-59620720D01*
X105962000Y-59544520D01*
X105939140Y-59430220D01*
X105908660Y-59287980D01*
X105878180Y-59125420D01*
X105875640Y-59100020D01*
X105842620Y-58934920D01*
X105812140Y-58787600D01*
X105781660Y-58668220D01*
X105758800Y-58584400D01*
X105743560Y-58543760D01*
X105741020Y-58543760D01*
X105705460Y-58536140D01*
X105621640Y-58531060D01*
X105502260Y-58525980D01*
X105354940Y-58523440D01*
X105194920Y-58520900D01*
X105014580Y-58520900D01*
X104879960Y-58523440D01*
X104785980Y-58525980D01*
X104725020Y-58531060D01*
X104689460Y-58541220D01*
X104669140Y-58553920D01*
X104656440Y-58574240D01*
X104653900Y-58581860D01*
X104638660Y-58630120D01*
X104618340Y-58719020D01*
X104592940Y-58843480D01*
X104565000Y-58993340D01*
X104539600Y-59125420D01*
X104509120Y-59282900D01*
X104481180Y-59422600D01*
X104455780Y-59536900D01*
X104432920Y-59613100D01*
X104420220Y-59641040D01*
X104384660Y-59663900D01*
X104308460Y-59699460D01*
X104204320Y-59745180D01*
X104084940Y-59795980D01*
X103963020Y-59846780D01*
X103846180Y-59892500D01*
X103752200Y-59928060D01*
X103686160Y-59948380D01*
X103670920Y-59950920D01*
X103637900Y-59935680D01*
X103566780Y-59895040D01*
X103467720Y-59829000D01*
X103343260Y-59750260D01*
X103206100Y-59656280D01*
X103195940Y-59648660D01*
X103058780Y-59554680D01*
X102936860Y-59473400D01*
X102837800Y-59407360D01*
X102769220Y-59364180D01*
X102736200Y-59346400D01*
X102708260Y-59364180D01*
X102652380Y-59414980D01*
X102571100Y-59491180D01*
X102474580Y-59585160D01*
X102367900Y-59689300D01*
X102263760Y-59795980D01*
X102162160Y-59900120D01*
X102073260Y-59991560D01*
X102004680Y-60065220D01*
X101964040Y-60113480D01*
X101956420Y-60126180D01*
X101971660Y-60154120D01*
X102012300Y-60220160D01*
X102075800Y-60316680D01*
X102154540Y-60438600D01*
X102248520Y-60575760D01*
X102261220Y-60596080D01*
X102566020Y-61043120D01*
X102411080Y-61411420D01*
X102352660Y-61546040D01*
X102299320Y-61662880D01*
X102256140Y-61751780D01*
X102228200Y-61805120D01*
X102220580Y-61815280D01*
X102185020Y-61830520D01*
X102103740Y-61853380D01*
X101986900Y-61881320D01*
X101842120Y-61911800D01*
X101689720Y-61939740D01*
X101529700Y-61970220D01*
X101390000Y-61998160D01*
X101273160Y-62023560D01*
X101194420Y-62041340D01*
X101163940Y-62054040D01*
X101151240Y-62084520D01*
X101143620Y-62163260D01*
X101136000Y-62275020D01*
X101133460Y-62409640D01*
X101130920Y-62559500D01*
X101130920Y-62711900D01*
G37*
X101130920Y-62711900D02*
X101133460Y-62856680D01*
X101136000Y-62983680D01*
X101143620Y-63082740D01*
X101153780Y-63141160D01*
X101158860Y-63153860D01*
X101196960Y-63166560D01*
X101275700Y-63184340D01*
X101387460Y-63207200D01*
X101519540Y-63232600D01*
X101552560Y-63240220D01*
X101699880Y-63268160D01*
X101844660Y-63293560D01*
X101966580Y-63316420D01*
X102052940Y-63334200D01*
X102058020Y-63334200D01*
X102200260Y-63364680D01*
X102367900Y-63788860D01*
X102538080Y-64207960D01*
X102258680Y-64614360D01*
X102167240Y-64748980D01*
X102085960Y-64868360D01*
X102022460Y-64964880D01*
X101979280Y-65030920D01*
X101964040Y-65058860D01*
X101976740Y-65086800D01*
X102025000Y-65145220D01*
X102096120Y-65229040D01*
X102187560Y-65328100D01*
X102289160Y-65434780D01*
X102393300Y-65544000D01*
X102497440Y-65648140D01*
X102588880Y-65739580D01*
X102665080Y-65810700D01*
X102715880Y-65851340D01*
X102733660Y-65861500D01*
X102761600Y-65846260D01*
X102827640Y-65805620D01*
X102921620Y-65742120D01*
X103041000Y-65663380D01*
X103157840Y-65582100D01*
X103287380Y-65493200D01*
X103404220Y-65414460D01*
X103500740Y-65353500D01*
X103564240Y-65312860D01*
X103589640Y-65300160D01*
X103627740Y-65310320D01*
X103698860Y-65340800D01*
X103792840Y-65386520D01*
X103818240Y-65401760D01*
X103917300Y-65450020D01*
X103978260Y-65477960D01*
X104011280Y-65483040D01*
X104034140Y-65470340D01*
X104046840Y-65447480D01*
X104069700Y-65399220D01*
X104107800Y-65310320D01*
X104161140Y-65188400D01*
X104222100Y-65041080D01*
X104290680Y-64873440D01*
X104364340Y-64693100D01*
X104440540Y-64510220D01*
X104514200Y-64327340D01*
X104585320Y-64157160D01*
X104646280Y-64004760D01*
X104697080Y-63875220D01*
X104735180Y-63776160D01*
X104758040Y-63717740D01*
X104760580Y-63702500D01*
X104740260Y-63672020D01*
X104684380Y-63623760D01*
X104625960Y-63583120D01*
X104427840Y-63425640D01*
X104272900Y-63242760D01*
X104163680Y-63037020D01*
X104097640Y-62818580D01*
X104077320Y-62595060D01*
X104105260Y-62369000D01*
X104181460Y-62148020D01*
X104303380Y-61942280D01*
X104435460Y-61789880D01*
X104623420Y-61642560D01*
X104834240Y-61540960D01*
X105057760Y-61487620D01*
X105281280Y-61480000D01*
X105507340Y-61520640D01*
X105725780Y-61607000D01*
X105923900Y-61741620D01*
X105992480Y-61802580D01*
X106152500Y-61993080D01*
X106261720Y-62201360D01*
X106325220Y-62422340D01*
X106340460Y-62648400D01*
X106309980Y-62871920D01*
X106233780Y-63087820D01*
X106109320Y-63288480D01*
X105941680Y-63471360D01*
X105829920Y-63557720D01*
X105751180Y-63621220D01*
X105692760Y-63674560D01*
X105667360Y-63712660D01*
X105667360Y-63715200D01*
X105677520Y-63750760D01*
X105705460Y-63826960D01*
X105748640Y-63941260D01*
X105807060Y-64080960D01*
X105873100Y-64243520D01*
X105944220Y-64423860D01*
X106020420Y-64606740D01*
X106096620Y-64792160D01*
X106167740Y-64967420D01*
X106236320Y-65127440D01*
X106294740Y-65267140D01*
X106343000Y-65373820D01*
X106376020Y-65444940D01*
X106388720Y-65470340D01*
X106414120Y-65480500D01*
X106459840Y-65470340D01*
X106538580Y-65437320D01*
X106619860Y-65394140D01*
X106823060Y-65279840D01*
X107247240Y-65571940D01*
X107381860Y-65663380D01*
X107501240Y-65742120D01*
X107597760Y-65805620D01*
X107663800Y-65846260D01*
X107691740Y-65861500D01*
X107717140Y-65843720D01*
X107778100Y-65790380D01*
X107859380Y-65711640D01*
X107963520Y-65610040D01*
X108080360Y-65495740D01*
X108093060Y-65483040D01*
X108209900Y-65363660D01*
X108311500Y-65259520D01*
X108392780Y-65173160D01*
X108448660Y-65112200D01*
X108471520Y-65084260D01*
X108456280Y-65053780D01*
X108415640Y-64987740D01*
X108352140Y-64893760D01*
X108273400Y-64774380D01*
X108192120Y-64657540D01*
X108103220Y-64525460D01*
X108021940Y-64406080D01*
X107958440Y-64309560D01*
X107915260Y-64243520D01*
X107902560Y-64218120D01*
X107907640Y-64182560D01*
X107930500Y-64108900D01*
X107966060Y-64007300D01*
X108009240Y-63887920D01*
X108060040Y-63758380D01*
X108108300Y-63631380D01*
X108154020Y-63519620D01*
X108192120Y-63435800D01*
X108220060Y-63385000D01*
X108222600Y-63377380D01*
X108253080Y-63369760D01*
X108326740Y-63351980D01*
X108433420Y-63326580D01*
X108565500Y-63301180D01*
X108707740Y-63270700D01*
X108852520Y-63242760D01*
X108992220Y-63214820D01*
X109111600Y-63191960D01*
X109203040Y-63176720D01*
X109256380Y-63169100D01*
X109261460Y-63169100D01*
X109264000Y-63143700D01*
X109264000Y-63070040D01*
X109266540Y-62958280D01*
X109269080Y-62816040D01*
X109269080Y-62650940D01*
X109269080Y-62607760D01*
X109269080Y-62419800D01*
X109266540Y-62277560D01*
X109264000Y-62178500D01*
X109261460Y-62109920D01*
X109253840Y-62069280D01*
X109241140Y-62046420D01*
X109223360Y-62036260D01*
X109205580Y-62031180D01*
X109159860Y-62021020D01*
X109070960Y-62003240D01*
X108946500Y-61980380D01*
X108799180Y-61952440D01*
X108677260Y-61929580D01*
X108524860Y-61901640D01*
X108392780Y-61876240D01*
X108288640Y-61855920D01*
X108222600Y-61840680D01*
X108202280Y-61835600D01*
X108184500Y-61805120D01*
X108154020Y-61734000D01*
X108108300Y-61634940D01*
X108057500Y-61520640D01*
X108006700Y-61396180D01*
X107955900Y-61276800D01*
X107912720Y-61172660D01*
X107882240Y-61093920D01*
X107867000Y-61050740D01*
X107867000Y-61048200D01*
X107882240Y-61017720D01*
X107922880Y-60949140D01*
X107986380Y-60850080D01*
X108067660Y-60730700D01*
X108161640Y-60593540D01*
X108169260Y-60580840D01*
X108263240Y-60443680D01*
X108344520Y-60321760D01*
X108410560Y-60225240D01*
X108453740Y-60154120D01*
X108471520Y-60123640D01*
X108471520Y-60121100D01*
X108453740Y-60093160D01*
X108400400Y-60032200D01*
X108324200Y-59950920D01*
X108227680Y-59856940D01*
X108121000Y-59750260D01*
X108011780Y-59646120D01*
X107905100Y-59547060D01*
X107811120Y-59463240D01*
X107734920Y-59397200D01*
X107684120Y-59359100D01*
X107668880Y-59351480D01*
X107635860Y-59371800D01*
X107564740Y-59417520D01*
X107465680Y-59483560D01*
X107343760Y-59567380D01*
X107209140Y-59658820D01*
X107071980Y-59750260D01*
X106950060Y-59831540D01*
X106851000Y-59895040D01*
X106779880Y-59935680D01*
X106746860Y-59950920D01*
X106711300Y-59940760D01*
X106635100Y-59915360D01*
X106530960Y-59874720D01*
X106411580Y-59829000D01*
X106289660Y-59780740D01*
X106172820Y-59732480D01*
X106078840Y-59691840D01*
X106012800Y-59663900D01*
X105992480Y-59651200D01*
X105982320Y-59620720D01*
X105962000Y-59544520D01*
X105939140Y-59430220D01*
X105908660Y-59287980D01*
X105878180Y-59125420D01*
X105875640Y-59100020D01*
X105842620Y-58934920D01*
X105812140Y-58787600D01*
X105781660Y-58668220D01*
X105758800Y-58584400D01*
X105743560Y-58543760D01*
X105741020Y-58543760D01*
X105705460Y-58536140D01*
X105621640Y-58531060D01*
X105502260Y-58525980D01*
X105354940Y-58523440D01*
X105194920Y-58520900D01*
X105014580Y-58520900D01*
X104879960Y-58523440D01*
X104785980Y-58525980D01*
X104725020Y-58531060D01*
X104689460Y-58541220D01*
X104669140Y-58553920D01*
X104656440Y-58574240D01*
X104653900Y-58581860D01*
X104638660Y-58630120D01*
X104618340Y-58719020D01*
X104592940Y-58843480D01*
X104565000Y-58993340D01*
X104539600Y-59125420D01*
X104509120Y-59282900D01*
X104481180Y-59422600D01*
X104455780Y-59536900D01*
X104432920Y-59613100D01*
X104420220Y-59641040D01*
X104384660Y-59663900D01*
X104308460Y-59699460D01*
X104204320Y-59745180D01*
X104084940Y-59795980D01*
X103963020Y-59846780D01*
X103846180Y-59892500D01*
X103752200Y-59928060D01*
X103686160Y-59948380D01*
X103670920Y-59950920D01*
X103637900Y-59935680D01*
X103566780Y-59895040D01*
X103467720Y-59829000D01*
X103343260Y-59750260D01*
X103206100Y-59656280D01*
X103195940Y-59648660D01*
X103058780Y-59554680D01*
X102936860Y-59473400D01*
X102837800Y-59407360D01*
X102769220Y-59364180D01*
X102736200Y-59346400D01*
X102708260Y-59364180D01*
X102652380Y-59414980D01*
X102571100Y-59491180D01*
X102474580Y-59585160D01*
X102367900Y-59689300D01*
X102263760Y-59795980D01*
X102162160Y-59900120D01*
X102073260Y-59991560D01*
X102004680Y-60065220D01*
X101964040Y-60113480D01*
X101956420Y-60126180D01*
X101971660Y-60154120D01*
X102012300Y-60220160D01*
X102075800Y-60316680D01*
X102154540Y-60438600D01*
X102248520Y-60575760D01*
X102261220Y-60596080D01*
X102566020Y-61043120D01*
X102411080Y-61411420D01*
X102352660Y-61546040D01*
X102299320Y-61662880D01*
X102256140Y-61751780D01*
X102228200Y-61805120D01*
X102220580Y-61815280D01*
X102185020Y-61830520D01*
X102103740Y-61853380D01*
X101986900Y-61881320D01*
X101842120Y-61911800D01*
X101689720Y-61939740D01*
X101529700Y-61970220D01*
X101390000Y-61998160D01*
X101273160Y-62023560D01*
X101194420Y-62041340D01*
X101163940Y-62054040D01*
X101151240Y-62084520D01*
X101143620Y-62163260D01*
X101136000Y-62275020D01*
X101133460Y-62409640D01*
X101130920Y-62559500D01*
X101130920Y-62711900D01*
G36*
X101786240Y-66773360D02*
G01*
X101849740Y-66847020D01*
X101898000Y-66902900D01*
X101928480Y-66938460D01*
X101931020Y-66941000D01*
X101966580Y-66948620D01*
X102019920Y-66930840D01*
X102111360Y-66915600D01*
X102202800Y-66946080D01*
X102271380Y-67012120D01*
X102284080Y-67032440D01*
X102296780Y-67088320D01*
X102304400Y-67187380D01*
X102312020Y-67316920D01*
X102314560Y-67443920D01*
X102314560Y-67786820D01*
X102423780Y-67786820D01*
X102533000Y-67786820D01*
X102533000Y-67250880D01*
X102533000Y-66714940D01*
X102423780Y-66714940D01*
X102347580Y-66720020D01*
X102317100Y-66742880D01*
X102314560Y-66755580D01*
X102306940Y-66775900D01*
X102273920Y-66773360D01*
X102210420Y-66740340D01*
X102078340Y-66694620D01*
X101953880Y-66697160D01*
X101870060Y-66730180D01*
X101786240Y-66773360D01*
G37*
X101786240Y-66773360D02*
X101849740Y-66847020D01*
X101898000Y-66902900D01*
X101928480Y-66938460D01*
X101931020Y-66941000D01*
X101966580Y-66948620D01*
X102019920Y-66930840D01*
X102111360Y-66915600D01*
X102202800Y-66946080D01*
X102271380Y-67012120D01*
X102284080Y-67032440D01*
X102296780Y-67088320D01*
X102304400Y-67187380D01*
X102312020Y-67316920D01*
X102314560Y-67443920D01*
X102314560Y-67786820D01*
X102423780Y-67786820D01*
X102533000Y-67786820D01*
X102533000Y-67250880D01*
X102533000Y-66714940D01*
X102423780Y-66714940D01*
X102347580Y-66720020D01*
X102317100Y-66742880D01*
X102314560Y-66755580D01*
X102306940Y-66775900D01*
X102273920Y-66773360D01*
X102210420Y-66740340D01*
X102078340Y-66694620D01*
X101953880Y-66697160D01*
X101870060Y-66730180D01*
X101786240Y-66773360D01*
G36*
X106381100Y-67786820D02*
G01*
X106490320Y-67786820D01*
X106602080Y-67786820D01*
X106602080Y-67418520D01*
X106604620Y-67245800D01*
X106612240Y-67118800D01*
X106630020Y-67032440D01*
X106657960Y-66976560D01*
X106703680Y-66941000D01*
X106767180Y-66920680D01*
X106782420Y-66918140D01*
X106856080Y-66915600D01*
X106924660Y-66951160D01*
X106947520Y-66968940D01*
X107028800Y-67040060D01*
X107036420Y-67413440D01*
X107046580Y-67786820D01*
X107153260Y-67786820D01*
X107262480Y-67786820D01*
X107262480Y-67250880D01*
X107262480Y-66714940D01*
X107150720Y-66714940D01*
X107074520Y-66720020D01*
X107044040Y-66742880D01*
X107041500Y-66755580D01*
X107038960Y-66783520D01*
X107028800Y-66793680D01*
X106993240Y-66778440D01*
X106922120Y-66742880D01*
X106917040Y-66740340D01*
X106800200Y-66697160D01*
X106698600Y-66692080D01*
X106586840Y-66730180D01*
X106581760Y-66732720D01*
X106510640Y-66770820D01*
X106459840Y-66816540D01*
X106424280Y-66880040D01*
X106401420Y-66966400D01*
X106388720Y-67085780D01*
X106383640Y-67245800D01*
X106381100Y-67367720D01*
X106381100Y-67786820D01*
G37*
X106381100Y-67786820D02*
X106490320Y-67786820D01*
X106602080Y-67786820D01*
X106602080Y-67418520D01*
X106604620Y-67245800D01*
X106612240Y-67118800D01*
X106630020Y-67032440D01*
X106657960Y-66976560D01*
X106703680Y-66941000D01*
X106767180Y-66920680D01*
X106782420Y-66918140D01*
X106856080Y-66915600D01*
X106924660Y-66951160D01*
X106947520Y-66968940D01*
X107028800Y-67040060D01*
X107036420Y-67413440D01*
X107046580Y-67786820D01*
X107153260Y-67786820D01*
X107262480Y-67786820D01*
X107262480Y-67250880D01*
X107262480Y-66714940D01*
X107150720Y-66714940D01*
X107074520Y-66720020D01*
X107044040Y-66742880D01*
X107041500Y-66755580D01*
X107038960Y-66783520D01*
X107028800Y-66793680D01*
X106993240Y-66778440D01*
X106922120Y-66742880D01*
X106917040Y-66740340D01*
X106800200Y-66697160D01*
X106698600Y-66692080D01*
X106586840Y-66730180D01*
X106581760Y-66732720D01*
X106510640Y-66770820D01*
X106459840Y-66816540D01*
X106424280Y-66880040D01*
X106401420Y-66966400D01*
X106388720Y-67085780D01*
X106383640Y-67245800D01*
X106381100Y-67367720D01*
X106381100Y-67786820D01*
G36*
X99970140Y-67344860D02*
G01*
X100196200Y-67344860D01*
X100196200Y-67123880D01*
X100211440Y-67065460D01*
X100252080Y-66996880D01*
X100295260Y-66941000D01*
X100320660Y-66923220D01*
X100432420Y-66905440D01*
X100534020Y-66938460D01*
X100612760Y-67014660D01*
X100648320Y-67090860D01*
X100655940Y-67121340D01*
X100648320Y-67139120D01*
X100612760Y-67149280D01*
X100544180Y-67151820D01*
X100432420Y-67154360D01*
X100310500Y-67149280D01*
X100229220Y-67141660D01*
X100196200Y-67126420D01*
X100196200Y-67123880D01*
X100196200Y-67344860D01*
X100318120Y-67344860D01*
X100460360Y-67344860D01*
X100559420Y-67347400D01*
X100617840Y-67352480D01*
X100648320Y-67362640D01*
X100655940Y-67377880D01*
X100650860Y-67403280D01*
X100650860Y-67408360D01*
X100597520Y-67502340D01*
X100508620Y-67565840D01*
X100401940Y-67591240D01*
X100287640Y-67576000D01*
X100221600Y-67548060D01*
X100165720Y-67517580D01*
X100127620Y-67520120D01*
X100079360Y-67558220D01*
X100074280Y-67565840D01*
X100031100Y-67616640D01*
X100033640Y-67664900D01*
X100079360Y-67708080D01*
X100178420Y-67761420D01*
X100183500Y-67761420D01*
X100343520Y-67807140D01*
X100516240Y-67796980D01*
X100569580Y-67784280D01*
X100694040Y-67723320D01*
X100788020Y-67619180D01*
X100843900Y-67474400D01*
X100866760Y-67286440D01*
X100869300Y-67250880D01*
X100854060Y-67065460D01*
X100810880Y-66923220D01*
X100734680Y-66816540D01*
X100622920Y-66740340D01*
X100490840Y-66694620D01*
X100363840Y-66694620D01*
X100234300Y-66737800D01*
X100120000Y-66811460D01*
X100041260Y-66907980D01*
X99998080Y-67040060D01*
X99982840Y-67156900D01*
X99970140Y-67344860D01*
G37*
X99970140Y-67344860D02*
X100196200Y-67344860D01*
X100196200Y-67123880D01*
X100211440Y-67065460D01*
X100252080Y-66996880D01*
X100295260Y-66941000D01*
X100320660Y-66923220D01*
X100432420Y-66905440D01*
X100534020Y-66938460D01*
X100612760Y-67014660D01*
X100648320Y-67090860D01*
X100655940Y-67121340D01*
X100648320Y-67139120D01*
X100612760Y-67149280D01*
X100544180Y-67151820D01*
X100432420Y-67154360D01*
X100310500Y-67149280D01*
X100229220Y-67141660D01*
X100196200Y-67126420D01*
X100196200Y-67123880D01*
X100196200Y-67344860D01*
X100318120Y-67344860D01*
X100460360Y-67344860D01*
X100559420Y-67347400D01*
X100617840Y-67352480D01*
X100648320Y-67362640D01*
X100655940Y-67377880D01*
X100650860Y-67403280D01*
X100650860Y-67408360D01*
X100597520Y-67502340D01*
X100508620Y-67565840D01*
X100401940Y-67591240D01*
X100287640Y-67576000D01*
X100221600Y-67548060D01*
X100165720Y-67517580D01*
X100127620Y-67520120D01*
X100079360Y-67558220D01*
X100074280Y-67565840D01*
X100031100Y-67616640D01*
X100033640Y-67664900D01*
X100079360Y-67708080D01*
X100178420Y-67761420D01*
X100183500Y-67761420D01*
X100343520Y-67807140D01*
X100516240Y-67796980D01*
X100569580Y-67784280D01*
X100694040Y-67723320D01*
X100788020Y-67619180D01*
X100843900Y-67474400D01*
X100866760Y-67286440D01*
X100869300Y-67250880D01*
X100854060Y-67065460D01*
X100810880Y-66923220D01*
X100734680Y-66816540D01*
X100622920Y-66740340D01*
X100490840Y-66694620D01*
X100363840Y-66694620D01*
X100234300Y-66737800D01*
X100120000Y-66811460D01*
X100041260Y-66907980D01*
X99998080Y-67040060D01*
X99982840Y-67156900D01*
X99970140Y-67344860D01*
G36*
X100950580Y-66882580D02*
G01*
X100975980Y-66928300D01*
X101029320Y-66971480D01*
X101082660Y-67007040D01*
X101118220Y-67007040D01*
X101151240Y-66981640D01*
X101250300Y-66928300D01*
X101362060Y-66915600D01*
X101433180Y-66933380D01*
X101514460Y-66994340D01*
X101567800Y-67088320D01*
X101595740Y-67202620D01*
X101593200Y-67322000D01*
X101562720Y-67433760D01*
X101501760Y-67522660D01*
X101456040Y-67555680D01*
X101346820Y-67583620D01*
X101235060Y-67568380D01*
X101153780Y-67520120D01*
X101113140Y-67492180D01*
X101080120Y-67494720D01*
X101029320Y-67527740D01*
X100968360Y-67583620D01*
X100950580Y-67629340D01*
X100986140Y-67675060D01*
X101047100Y-67720780D01*
X101194420Y-67786820D01*
X101349360Y-67807140D01*
X101499220Y-67776660D01*
X101529700Y-67763960D01*
X101664320Y-67675060D01*
X101755760Y-67553140D01*
X101806560Y-67398200D01*
X101816720Y-67243260D01*
X101796400Y-67068000D01*
X101732900Y-66920680D01*
X101641460Y-66806380D01*
X101522080Y-66727640D01*
X101384920Y-66692080D01*
X101237600Y-66697160D01*
X101087740Y-66755580D01*
X101044560Y-66780980D01*
X100973440Y-66836860D01*
X100950580Y-66882580D01*
G37*
X100950580Y-66882580D02*
X100975980Y-66928300D01*
X101029320Y-66971480D01*
X101082660Y-67007040D01*
X101118220Y-67007040D01*
X101151240Y-66981640D01*
X101250300Y-66928300D01*
X101362060Y-66915600D01*
X101433180Y-66933380D01*
X101514460Y-66994340D01*
X101567800Y-67088320D01*
X101595740Y-67202620D01*
X101593200Y-67322000D01*
X101562720Y-67433760D01*
X101501760Y-67522660D01*
X101456040Y-67555680D01*
X101346820Y-67583620D01*
X101235060Y-67568380D01*
X101153780Y-67520120D01*
X101113140Y-67492180D01*
X101080120Y-67494720D01*
X101029320Y-67527740D01*
X100968360Y-67583620D01*
X100950580Y-67629340D01*
X100986140Y-67675060D01*
X101047100Y-67720780D01*
X101194420Y-67786820D01*
X101349360Y-67807140D01*
X101499220Y-67776660D01*
X101529700Y-67763960D01*
X101664320Y-67675060D01*
X101755760Y-67553140D01*
X101806560Y-67398200D01*
X101816720Y-67243260D01*
X101796400Y-67068000D01*
X101732900Y-66920680D01*
X101641460Y-66806380D01*
X101522080Y-66727640D01*
X101384920Y-66692080D01*
X101237600Y-66697160D01*
X101087740Y-66755580D01*
X101044560Y-66780980D01*
X100973440Y-66836860D01*
X100950580Y-66882580D01*
G36*
X102781920Y-67786820D02*
G01*
X102891140Y-67786820D01*
X102969880Y-67779200D01*
X103000360Y-67753800D01*
X103000360Y-67748720D01*
X103010520Y-67728400D01*
X103048620Y-67736020D01*
X103104500Y-67761420D01*
X103228960Y-67804600D01*
X103345800Y-67802060D01*
X103434700Y-67771580D01*
X103503280Y-67736020D01*
X103556620Y-67687760D01*
X103592180Y-67621720D01*
X103615040Y-67527740D01*
X103627740Y-67398200D01*
X103632820Y-67225480D01*
X103632820Y-67134040D01*
X103632820Y-66714940D01*
X103523600Y-66714940D01*
X103414380Y-66714940D01*
X103414380Y-67085780D01*
X103414380Y-67235640D01*
X103411840Y-67342320D01*
X103404220Y-67413440D01*
X103394060Y-67459160D01*
X103376280Y-67492180D01*
X103350880Y-67522660D01*
X103345800Y-67525200D01*
X103279760Y-67573460D01*
X103211180Y-67593780D01*
X103206100Y-67593780D01*
X103137520Y-67573460D01*
X103071480Y-67527740D01*
X103068940Y-67525200D01*
X103041000Y-67497260D01*
X103023220Y-67464240D01*
X103010520Y-67418520D01*
X103005440Y-67352480D01*
X103002900Y-67250880D01*
X103002900Y-67106100D01*
X103000360Y-67085780D01*
X103000360Y-66714940D01*
X102891140Y-66714940D01*
X102781920Y-66714940D01*
X102781920Y-67250880D01*
X102781920Y-67786820D01*
G37*
X102781920Y-67786820D02*
X102891140Y-67786820D01*
X102969880Y-67779200D01*
X103000360Y-67753800D01*
X103000360Y-67748720D01*
X103010520Y-67728400D01*
X103048620Y-67736020D01*
X103104500Y-67761420D01*
X103228960Y-67804600D01*
X103345800Y-67802060D01*
X103434700Y-67771580D01*
X103503280Y-67736020D01*
X103556620Y-67687760D01*
X103592180Y-67621720D01*
X103615040Y-67527740D01*
X103627740Y-67398200D01*
X103632820Y-67225480D01*
X103632820Y-67134040D01*
X103632820Y-66714940D01*
X103523600Y-66714940D01*
X103414380Y-66714940D01*
X103414380Y-67085780D01*
X103414380Y-67235640D01*
X103411840Y-67342320D01*
X103404220Y-67413440D01*
X103394060Y-67459160D01*
X103376280Y-67492180D01*
X103350880Y-67522660D01*
X103345800Y-67525200D01*
X103279760Y-67573460D01*
X103211180Y-67593780D01*
X103206100Y-67593780D01*
X103137520Y-67573460D01*
X103071480Y-67527740D01*
X103068940Y-67525200D01*
X103041000Y-67497260D01*
X103023220Y-67464240D01*
X103010520Y-67418520D01*
X103005440Y-67352480D01*
X103002900Y-67250880D01*
X103002900Y-67106100D01*
X103000360Y-67085780D01*
X103000360Y-66714940D01*
X102891140Y-66714940D01*
X102781920Y-66714940D01*
X102781920Y-67250880D01*
X102781920Y-67786820D01*
G36*
X103841100Y-67250880D02*
G01*
X103846180Y-67413440D01*
X103869040Y-67535360D01*
X103912220Y-67629340D01*
X103980800Y-67703000D01*
X104016360Y-67730940D01*
X104059540Y-67748720D01*
X104059540Y-67301680D01*
X104059540Y-67250880D01*
X104062080Y-67141660D01*
X104069700Y-67070540D01*
X104087480Y-67024820D01*
X104117960Y-66989260D01*
X104135740Y-66971480D01*
X104206860Y-66928300D01*
X104272900Y-66905440D01*
X104280520Y-66905440D01*
X104344020Y-66923220D01*
X104415140Y-66966400D01*
X104422760Y-66971480D01*
X104460860Y-67009580D01*
X104486260Y-67050220D01*
X104496420Y-67108640D01*
X104498960Y-67197540D01*
X104498960Y-67250880D01*
X104498960Y-67360100D01*
X104491340Y-67428680D01*
X104473560Y-67474400D01*
X104440540Y-67509960D01*
X104422760Y-67527740D01*
X104354180Y-67570920D01*
X104285600Y-67593780D01*
X104280520Y-67593780D01*
X104214480Y-67576000D01*
X104143360Y-67532820D01*
X104135740Y-67527740D01*
X104097640Y-67489640D01*
X104074780Y-67449000D01*
X104064620Y-67390580D01*
X104059540Y-67301680D01*
X104059540Y-67748720D01*
X104107800Y-67771580D01*
X104224640Y-67796980D01*
X104349100Y-67804600D01*
X104425300Y-67794440D01*
X104509120Y-67753800D01*
X104595480Y-67675060D01*
X104666600Y-67576000D01*
X104707240Y-67482020D01*
X104725020Y-67362640D01*
X104727560Y-67222940D01*
X104714860Y-67083240D01*
X104689460Y-66963860D01*
X104669140Y-66915600D01*
X104585320Y-66801300D01*
X104468480Y-66730180D01*
X104318620Y-66699700D01*
X104280520Y-66699700D01*
X104168760Y-66704780D01*
X104084940Y-66730180D01*
X104026520Y-66763200D01*
X103942700Y-66834320D01*
X103886820Y-66918140D01*
X103856340Y-67022280D01*
X103841100Y-67164520D01*
X103841100Y-67250880D01*
G37*
X103841100Y-67250880D02*
X103846180Y-67413440D01*
X103869040Y-67535360D01*
X103912220Y-67629340D01*
X103980800Y-67703000D01*
X104016360Y-67730940D01*
X104059540Y-67748720D01*
X104059540Y-67301680D01*
X104059540Y-67250880D01*
X104062080Y-67141660D01*
X104069700Y-67070540D01*
X104087480Y-67024820D01*
X104117960Y-66989260D01*
X104135740Y-66971480D01*
X104206860Y-66928300D01*
X104272900Y-66905440D01*
X104280520Y-66905440D01*
X104344020Y-66923220D01*
X104415140Y-66966400D01*
X104422760Y-66971480D01*
X104460860Y-67009580D01*
X104486260Y-67050220D01*
X104496420Y-67108640D01*
X104498960Y-67197540D01*
X104498960Y-67250880D01*
X104498960Y-67360100D01*
X104491340Y-67428680D01*
X104473560Y-67474400D01*
X104440540Y-67509960D01*
X104422760Y-67527740D01*
X104354180Y-67570920D01*
X104285600Y-67593780D01*
X104280520Y-67593780D01*
X104214480Y-67576000D01*
X104143360Y-67532820D01*
X104135740Y-67527740D01*
X104097640Y-67489640D01*
X104074780Y-67449000D01*
X104064620Y-67390580D01*
X104059540Y-67301680D01*
X104059540Y-67748720D01*
X104107800Y-67771580D01*
X104224640Y-67796980D01*
X104349100Y-67804600D01*
X104425300Y-67794440D01*
X104509120Y-67753800D01*
X104595480Y-67675060D01*
X104666600Y-67576000D01*
X104707240Y-67482020D01*
X104725020Y-67362640D01*
X104727560Y-67222940D01*
X104714860Y-67083240D01*
X104689460Y-66963860D01*
X104669140Y-66915600D01*
X104585320Y-66801300D01*
X104468480Y-66730180D01*
X104318620Y-66699700D01*
X104280520Y-66699700D01*
X104168760Y-66704780D01*
X104084940Y-66730180D01*
X104026520Y-66763200D01*
X103942700Y-66834320D01*
X103886820Y-66918140D01*
X103856340Y-67022280D01*
X103841100Y-67164520D01*
X103841100Y-67250880D01*
G36*
X104854560Y-67461700D02*
G01*
X104874880Y-67573460D01*
X104935840Y-67667440D01*
X105032360Y-67743640D01*
X105156820Y-67791900D01*
X105299060Y-67809680D01*
X105459080Y-67791900D01*
X105499720Y-67781740D01*
X105614020Y-67733480D01*
X105738480Y-67657280D01*
X105774040Y-67629340D01*
X105763880Y-67606480D01*
X105725780Y-67558220D01*
X105710540Y-67540440D01*
X105634340Y-67461700D01*
X105535280Y-67527740D01*
X105431140Y-67576000D01*
X105316840Y-67596320D01*
X105207620Y-67586160D01*
X105126340Y-67545520D01*
X105118720Y-67537900D01*
X105078080Y-67489640D01*
X105062840Y-67456620D01*
X105088240Y-67415980D01*
X105151740Y-67377880D01*
X105235560Y-67352480D01*
X105301600Y-67344860D01*
X105456540Y-67327080D01*
X105578460Y-67273740D01*
X105664820Y-67189920D01*
X105710540Y-67083240D01*
X105708000Y-66966400D01*
X105662280Y-66857180D01*
X105575920Y-66770820D01*
X105459080Y-66714940D01*
X105324460Y-66689540D01*
X105182220Y-66697160D01*
X105037440Y-66742880D01*
X104976480Y-66775900D01*
X104874880Y-66836860D01*
X104940920Y-66918140D01*
X105006960Y-66999420D01*
X105103480Y-66953700D01*
X105215240Y-66915600D01*
X105324460Y-66907980D01*
X105415900Y-66928300D01*
X105456540Y-66956240D01*
X105489560Y-67001960D01*
X105502260Y-67022280D01*
X105474320Y-67068000D01*
X105400660Y-67106100D01*
X105286360Y-67134040D01*
X105233020Y-67141660D01*
X105093320Y-67161980D01*
X104994260Y-67200080D01*
X104925680Y-67258500D01*
X104882500Y-67337240D01*
X104854560Y-67461700D01*
G37*
X104854560Y-67461700D02*
X104874880Y-67573460D01*
X104935840Y-67667440D01*
X105032360Y-67743640D01*
X105156820Y-67791900D01*
X105299060Y-67809680D01*
X105459080Y-67791900D01*
X105499720Y-67781740D01*
X105614020Y-67733480D01*
X105738480Y-67657280D01*
X105774040Y-67629340D01*
X105763880Y-67606480D01*
X105725780Y-67558220D01*
X105710540Y-67540440D01*
X105634340Y-67461700D01*
X105535280Y-67527740D01*
X105431140Y-67576000D01*
X105316840Y-67596320D01*
X105207620Y-67586160D01*
X105126340Y-67545520D01*
X105118720Y-67537900D01*
X105078080Y-67489640D01*
X105062840Y-67456620D01*
X105088240Y-67415980D01*
X105151740Y-67377880D01*
X105235560Y-67352480D01*
X105301600Y-67344860D01*
X105456540Y-67327080D01*
X105578460Y-67273740D01*
X105664820Y-67189920D01*
X105710540Y-67083240D01*
X105708000Y-66966400D01*
X105662280Y-66857180D01*
X105575920Y-66770820D01*
X105459080Y-66714940D01*
X105324460Y-66689540D01*
X105182220Y-66697160D01*
X105037440Y-66742880D01*
X104976480Y-66775900D01*
X104874880Y-66836860D01*
X104940920Y-66918140D01*
X105006960Y-66999420D01*
X105103480Y-66953700D01*
X105215240Y-66915600D01*
X105324460Y-66907980D01*
X105415900Y-66928300D01*
X105456540Y-66956240D01*
X105489560Y-67001960D01*
X105502260Y-67022280D01*
X105474320Y-67068000D01*
X105400660Y-67106100D01*
X105286360Y-67134040D01*
X105233020Y-67141660D01*
X105093320Y-67161980D01*
X104994260Y-67200080D01*
X104925680Y-67258500D01*
X104882500Y-67337240D01*
X104854560Y-67461700D01*
G36*
X107440280Y-67332160D02*
G01*
X107673960Y-67337240D01*
X107673960Y-67093400D01*
X107699360Y-67012120D01*
X107762860Y-66946080D01*
X107849220Y-66910520D01*
X107884780Y-66905440D01*
X107973680Y-66925760D01*
X108052420Y-66979100D01*
X108103220Y-67050220D01*
X108113380Y-67098480D01*
X108108300Y-67126420D01*
X108090520Y-67141660D01*
X108042260Y-67149280D01*
X107955900Y-67154360D01*
X107894940Y-67154360D01*
X107783180Y-67151820D01*
X107719680Y-67149280D01*
X107686660Y-67136580D01*
X107676500Y-67113720D01*
X107673960Y-67093400D01*
X107673960Y-67337240D01*
X107778100Y-67339780D01*
X107925420Y-67344860D01*
X108037180Y-67355020D01*
X108100680Y-67367720D01*
X108113380Y-67375340D01*
X108095600Y-67436300D01*
X108054960Y-67504880D01*
X108006700Y-67558220D01*
X107930500Y-67586160D01*
X107831440Y-67588700D01*
X107729840Y-67565840D01*
X107699360Y-67550600D01*
X107613000Y-67527740D01*
X107534260Y-67555680D01*
X107486000Y-67601400D01*
X107478380Y-67647120D01*
X107519020Y-67697920D01*
X107602840Y-67748720D01*
X107666340Y-67774120D01*
X107828900Y-67809680D01*
X107983840Y-67794440D01*
X108087980Y-67751260D01*
X108187040Y-67687760D01*
X108255620Y-67611560D01*
X108296260Y-67507420D01*
X108316580Y-67370260D01*
X108319120Y-67250880D01*
X108319120Y-67123880D01*
X108308960Y-67034980D01*
X108293720Y-66971480D01*
X108263240Y-66910520D01*
X108253080Y-66895280D01*
X108164180Y-66796220D01*
X108042260Y-66725100D01*
X107912720Y-66689540D01*
X107882240Y-66687000D01*
X107770480Y-66707320D01*
X107651100Y-66763200D01*
X107552040Y-66839400D01*
X107508860Y-66892740D01*
X107465680Y-66994340D01*
X107445360Y-67128960D01*
X107445360Y-67159440D01*
X107440280Y-67332160D01*
G37*
X107440280Y-67332160D02*
X107673960Y-67337240D01*
X107673960Y-67093400D01*
X107699360Y-67012120D01*
X107762860Y-66946080D01*
X107849220Y-66910520D01*
X107884780Y-66905440D01*
X107973680Y-66925760D01*
X108052420Y-66979100D01*
X108103220Y-67050220D01*
X108113380Y-67098480D01*
X108108300Y-67126420D01*
X108090520Y-67141660D01*
X108042260Y-67149280D01*
X107955900Y-67154360D01*
X107894940Y-67154360D01*
X107783180Y-67151820D01*
X107719680Y-67149280D01*
X107686660Y-67136580D01*
X107676500Y-67113720D01*
X107673960Y-67093400D01*
X107673960Y-67337240D01*
X107778100Y-67339780D01*
X107925420Y-67344860D01*
X108037180Y-67355020D01*
X108100680Y-67367720D01*
X108113380Y-67375340D01*
X108095600Y-67436300D01*
X108054960Y-67504880D01*
X108006700Y-67558220D01*
X107930500Y-67586160D01*
X107831440Y-67588700D01*
X107729840Y-67565840D01*
X107699360Y-67550600D01*
X107613000Y-67527740D01*
X107534260Y-67555680D01*
X107486000Y-67601400D01*
X107478380Y-67647120D01*
X107519020Y-67697920D01*
X107602840Y-67748720D01*
X107666340Y-67774120D01*
X107828900Y-67809680D01*
X107983840Y-67794440D01*
X108087980Y-67751260D01*
X108187040Y-67687760D01*
X108255620Y-67611560D01*
X108296260Y-67507420D01*
X108316580Y-67370260D01*
X108319120Y-67250880D01*
X108319120Y-67123880D01*
X108308960Y-67034980D01*
X108293720Y-66971480D01*
X108263240Y-66910520D01*
X108253080Y-66895280D01*
X108164180Y-66796220D01*
X108042260Y-66725100D01*
X107912720Y-66689540D01*
X107882240Y-66687000D01*
X107770480Y-66707320D01*
X107651100Y-66763200D01*
X107552040Y-66839400D01*
X107508860Y-66892740D01*
X107465680Y-66994340D01*
X107445360Y-67128960D01*
X107445360Y-67159440D01*
X107440280Y-67332160D01*
G36*
X109556100Y-67250880D02*
G01*
X109558640Y-67382960D01*
X109563720Y-67476940D01*
X109576420Y-67537900D01*
X109596740Y-67586160D01*
X109614520Y-67611560D01*
X109731360Y-67725860D01*
X109764380Y-67741100D01*
X109764380Y-67250880D01*
X109766920Y-67149280D01*
X109777080Y-67083240D01*
X109802480Y-67032440D01*
X109848200Y-66984180D01*
X109909160Y-66928300D01*
X109965040Y-66913060D01*
X110018380Y-66918140D01*
X110109820Y-66946080D01*
X110170780Y-66996880D01*
X110203800Y-67080700D01*
X110216500Y-67202620D01*
X110216500Y-67253420D01*
X110216500Y-67360100D01*
X110208880Y-67431220D01*
X110191100Y-67474400D01*
X110158080Y-67512500D01*
X110140300Y-67527740D01*
X110046320Y-67583620D01*
X109954880Y-67583620D01*
X109863440Y-67530280D01*
X109845660Y-67512500D01*
X109799940Y-67464240D01*
X109777080Y-67413440D01*
X109766920Y-67344860D01*
X109764380Y-67250880D01*
X109764380Y-67741100D01*
X109865980Y-67791900D01*
X110013300Y-67807140D01*
X110163160Y-67771580D01*
X110203800Y-67753800D01*
X110302860Y-67690300D01*
X110371440Y-67611560D01*
X110414620Y-67507420D01*
X110434940Y-67370260D01*
X110437480Y-67250880D01*
X110429860Y-67083240D01*
X110404460Y-66956240D01*
X110353660Y-66862260D01*
X110277460Y-66791140D01*
X110203800Y-66745420D01*
X110053940Y-66697160D01*
X109904080Y-66697160D01*
X109764380Y-66753040D01*
X109642460Y-66854640D01*
X109614520Y-66890200D01*
X109586580Y-66930840D01*
X109571340Y-66984180D01*
X109561180Y-67055300D01*
X109558640Y-67164520D01*
X109556100Y-67250880D01*
G37*
X109556100Y-67250880D02*
X109558640Y-67382960D01*
X109563720Y-67476940D01*
X109576420Y-67537900D01*
X109596740Y-67586160D01*
X109614520Y-67611560D01*
X109731360Y-67725860D01*
X109764380Y-67741100D01*
X109764380Y-67250880D01*
X109766920Y-67149280D01*
X109777080Y-67083240D01*
X109802480Y-67032440D01*
X109848200Y-66984180D01*
X109909160Y-66928300D01*
X109965040Y-66913060D01*
X110018380Y-66918140D01*
X110109820Y-66946080D01*
X110170780Y-66996880D01*
X110203800Y-67080700D01*
X110216500Y-67202620D01*
X110216500Y-67253420D01*
X110216500Y-67360100D01*
X110208880Y-67431220D01*
X110191100Y-67474400D01*
X110158080Y-67512500D01*
X110140300Y-67527740D01*
X110046320Y-67583620D01*
X109954880Y-67583620D01*
X109863440Y-67530280D01*
X109845660Y-67512500D01*
X109799940Y-67464240D01*
X109777080Y-67413440D01*
X109766920Y-67344860D01*
X109764380Y-67250880D01*
X109764380Y-67741100D01*
X109865980Y-67791900D01*
X110013300Y-67807140D01*
X110163160Y-67771580D01*
X110203800Y-67753800D01*
X110302860Y-67690300D01*
X110371440Y-67611560D01*
X110414620Y-67507420D01*
X110434940Y-67370260D01*
X110437480Y-67250880D01*
X110429860Y-67083240D01*
X110404460Y-66956240D01*
X110353660Y-66862260D01*
X110277460Y-66791140D01*
X110203800Y-66745420D01*
X110053940Y-66697160D01*
X109904080Y-66697160D01*
X109764380Y-66753040D01*
X109642460Y-66854640D01*
X109614520Y-66890200D01*
X109586580Y-66930840D01*
X109571340Y-66984180D01*
X109561180Y-67055300D01*
X109558640Y-67164520D01*
X109556100Y-67250880D01*
G36*
X101151240Y-69051740D02*
G01*
X101397620Y-69051740D01*
X101397620Y-68830760D01*
X101400160Y-68802820D01*
X101433180Y-68719000D01*
X101504300Y-68658040D01*
X101593200Y-68627560D01*
X101687180Y-68632640D01*
X101750680Y-68665660D01*
X101796400Y-68721540D01*
X101826880Y-68790120D01*
X101834500Y-68848540D01*
X101829420Y-68861240D01*
X101796400Y-68873940D01*
X101722740Y-68881560D01*
X101623680Y-68881560D01*
X101603360Y-68881560D01*
X101496680Y-68876480D01*
X101435720Y-68868860D01*
X101405240Y-68853620D01*
X101397620Y-68830760D01*
X101397620Y-69051740D01*
X101501760Y-69051740D01*
X101852280Y-69051740D01*
X101834500Y-69127940D01*
X101786240Y-69227000D01*
X101704960Y-69293040D01*
X101600820Y-69320980D01*
X101486520Y-69305740D01*
X101417940Y-69275260D01*
X101362060Y-69242240D01*
X101323960Y-69242240D01*
X101275700Y-69272720D01*
X101257920Y-69290500D01*
X101209660Y-69338760D01*
X101202040Y-69374320D01*
X101212200Y-69394640D01*
X101296020Y-69458140D01*
X101415400Y-69498780D01*
X101550020Y-69519100D01*
X101687180Y-69511480D01*
X101806560Y-69481000D01*
X101847200Y-69455600D01*
X101946260Y-69374320D01*
X102007220Y-69272720D01*
X102042780Y-69145720D01*
X102052940Y-68983160D01*
X102037700Y-68787580D01*
X101991980Y-68637720D01*
X101913240Y-68528500D01*
X101801480Y-68462460D01*
X101654160Y-68434520D01*
X101608440Y-68431980D01*
X101448420Y-68452300D01*
X101323960Y-68513260D01*
X101235060Y-68612320D01*
X101181720Y-68757100D01*
X101166480Y-68868860D01*
X101151240Y-69051740D01*
G37*
X101151240Y-69051740D02*
X101397620Y-69051740D01*
X101397620Y-68830760D01*
X101400160Y-68802820D01*
X101433180Y-68719000D01*
X101504300Y-68658040D01*
X101593200Y-68627560D01*
X101687180Y-68632640D01*
X101750680Y-68665660D01*
X101796400Y-68721540D01*
X101826880Y-68790120D01*
X101834500Y-68848540D01*
X101829420Y-68861240D01*
X101796400Y-68873940D01*
X101722740Y-68881560D01*
X101623680Y-68881560D01*
X101603360Y-68881560D01*
X101496680Y-68876480D01*
X101435720Y-68868860D01*
X101405240Y-68853620D01*
X101397620Y-68830760D01*
X101397620Y-69051740D01*
X101501760Y-69051740D01*
X101852280Y-69051740D01*
X101834500Y-69127940D01*
X101786240Y-69227000D01*
X101704960Y-69293040D01*
X101600820Y-69320980D01*
X101486520Y-69305740D01*
X101417940Y-69275260D01*
X101362060Y-69242240D01*
X101323960Y-69242240D01*
X101275700Y-69272720D01*
X101257920Y-69290500D01*
X101209660Y-69338760D01*
X101202040Y-69374320D01*
X101212200Y-69394640D01*
X101296020Y-69458140D01*
X101415400Y-69498780D01*
X101550020Y-69519100D01*
X101687180Y-69511480D01*
X101806560Y-69481000D01*
X101847200Y-69455600D01*
X101946260Y-69374320D01*
X102007220Y-69272720D01*
X102042780Y-69145720D01*
X102052940Y-68983160D01*
X102037700Y-68787580D01*
X101991980Y-68637720D01*
X101913240Y-68528500D01*
X101801480Y-68462460D01*
X101654160Y-68434520D01*
X101608440Y-68431980D01*
X101448420Y-68452300D01*
X101323960Y-68513260D01*
X101235060Y-68612320D01*
X101181720Y-68757100D01*
X101166480Y-68868860D01*
X101151240Y-69051740D01*
G36*
X102070720Y-68490400D02*
G01*
X102078340Y-68513260D01*
X102116440Y-68564060D01*
X102139300Y-68589460D01*
X102192640Y-68645340D01*
X102235820Y-68665660D01*
X102286620Y-68658040D01*
X102294240Y-68655500D01*
X102393300Y-68642800D01*
X102487280Y-68675820D01*
X102553320Y-68746940D01*
X102553320Y-68749480D01*
X102571100Y-68815520D01*
X102581260Y-68929820D01*
X102586340Y-69092380D01*
X102588880Y-69168580D01*
X102588880Y-69519100D01*
X102698100Y-69519100D01*
X102809860Y-69519100D01*
X102809860Y-68967920D01*
X102809860Y-68419280D01*
X102698100Y-68419280D01*
X102626980Y-68424360D01*
X102593960Y-68442140D01*
X102588880Y-68472620D01*
X102586340Y-68508180D01*
X102571100Y-68513260D01*
X102525380Y-68490400D01*
X102499980Y-68472620D01*
X102388220Y-68431980D01*
X102261220Y-68421820D01*
X102144380Y-68447220D01*
X102070720Y-68490400D01*
G37*
X102070720Y-68490400D02*
X102078340Y-68513260D01*
X102116440Y-68564060D01*
X102139300Y-68589460D01*
X102192640Y-68645340D01*
X102235820Y-68665660D01*
X102286620Y-68658040D01*
X102294240Y-68655500D01*
X102393300Y-68642800D01*
X102487280Y-68675820D01*
X102553320Y-68746940D01*
X102553320Y-68749480D01*
X102571100Y-68815520D01*
X102581260Y-68929820D01*
X102586340Y-69092380D01*
X102588880Y-69168580D01*
X102588880Y-69519100D01*
X102698100Y-69519100D01*
X102809860Y-69519100D01*
X102809860Y-68967920D01*
X102809860Y-68419280D01*
X102698100Y-68419280D01*
X102626980Y-68424360D01*
X102593960Y-68442140D01*
X102588880Y-68472620D01*
X102586340Y-68508180D01*
X102571100Y-68513260D01*
X102525380Y-68490400D01*
X102499980Y-68472620D01*
X102388220Y-68431980D01*
X102261220Y-68421820D01*
X102144380Y-68447220D01*
X102070720Y-68490400D01*
G36*
X103056240Y-69519100D02*
G01*
X103165460Y-69519100D01*
X103234040Y-69511480D01*
X103272140Y-69496240D01*
X103277220Y-69491160D01*
X103277220Y-69181280D01*
X103277220Y-69160960D01*
X103277220Y-69051740D01*
X103434700Y-69051740D01*
X103566780Y-69064440D01*
X103660760Y-69100000D01*
X103711560Y-69153340D01*
X103716640Y-69188900D01*
X103691240Y-69247320D01*
X103627740Y-69293040D01*
X103538840Y-69320980D01*
X103442320Y-69326060D01*
X103350880Y-69308280D01*
X103330560Y-69298120D01*
X103292460Y-69257480D01*
X103277220Y-69181280D01*
X103277220Y-69491160D01*
X103292460Y-69475920D01*
X103330560Y-69491160D01*
X103406760Y-69511480D01*
X103513440Y-69519100D01*
X103627740Y-69511480D01*
X103726800Y-69491160D01*
X103777600Y-69470840D01*
X103856340Y-69397180D01*
X103899520Y-69290500D01*
X103909680Y-69181280D01*
X103891900Y-69061900D01*
X103838560Y-68978080D01*
X103747120Y-68922200D01*
X103612500Y-68891720D01*
X103485500Y-68886640D01*
X103277220Y-68886640D01*
X103277220Y-68792660D01*
X103287380Y-68721540D01*
X103312780Y-68670740D01*
X103312780Y-68668200D01*
X103401680Y-68627560D01*
X103513440Y-68622480D01*
X103615040Y-68652960D01*
X103681080Y-68680900D01*
X103724260Y-68683440D01*
X103769980Y-68658040D01*
X103782680Y-68647880D01*
X103836020Y-68594540D01*
X103838560Y-68543740D01*
X103785220Y-68495480D01*
X103744580Y-68470080D01*
X103637900Y-68434520D01*
X103503280Y-68419280D01*
X103363580Y-68426900D01*
X103244200Y-68454840D01*
X103236580Y-68457380D01*
X103175620Y-68487860D01*
X103129900Y-68520880D01*
X103096880Y-68569140D01*
X103074020Y-68640260D01*
X103063860Y-68739320D01*
X103058780Y-68879020D01*
X103056240Y-69061900D01*
X103056240Y-69072060D01*
X103056240Y-69519100D01*
G37*
X103056240Y-69519100D02*
X103165460Y-69519100D01*
X103234040Y-69511480D01*
X103272140Y-69496240D01*
X103277220Y-69491160D01*
X103277220Y-69181280D01*
X103277220Y-69160960D01*
X103277220Y-69051740D01*
X103434700Y-69051740D01*
X103566780Y-69064440D01*
X103660760Y-69100000D01*
X103711560Y-69153340D01*
X103716640Y-69188900D01*
X103691240Y-69247320D01*
X103627740Y-69293040D01*
X103538840Y-69320980D01*
X103442320Y-69326060D01*
X103350880Y-69308280D01*
X103330560Y-69298120D01*
X103292460Y-69257480D01*
X103277220Y-69181280D01*
X103277220Y-69491160D01*
X103292460Y-69475920D01*
X103330560Y-69491160D01*
X103406760Y-69511480D01*
X103513440Y-69519100D01*
X103627740Y-69511480D01*
X103726800Y-69491160D01*
X103777600Y-69470840D01*
X103856340Y-69397180D01*
X103899520Y-69290500D01*
X103909680Y-69181280D01*
X103891900Y-69061900D01*
X103838560Y-68978080D01*
X103747120Y-68922200D01*
X103612500Y-68891720D01*
X103485500Y-68886640D01*
X103277220Y-68886640D01*
X103277220Y-68792660D01*
X103287380Y-68721540D01*
X103312780Y-68670740D01*
X103312780Y-68668200D01*
X103401680Y-68627560D01*
X103513440Y-68622480D01*
X103615040Y-68652960D01*
X103681080Y-68680900D01*
X103724260Y-68683440D01*
X103769980Y-68658040D01*
X103782680Y-68647880D01*
X103836020Y-68594540D01*
X103838560Y-68543740D01*
X103785220Y-68495480D01*
X103744580Y-68470080D01*
X103637900Y-68434520D01*
X103503280Y-68419280D01*
X103363580Y-68426900D01*
X103244200Y-68454840D01*
X103236580Y-68457380D01*
X103175620Y-68487860D01*
X103129900Y-68520880D01*
X103096880Y-68569140D01*
X103074020Y-68640260D01*
X103063860Y-68739320D01*
X103058780Y-68879020D01*
X103056240Y-69061900D01*
X103056240Y-69072060D01*
X103056240Y-69519100D01*
G36*
X103945240Y-68457380D02*
G01*
X103947780Y-68465000D01*
X103960480Y-68505640D01*
X103988420Y-68589460D01*
X104026520Y-68708840D01*
X104072240Y-68851080D01*
X104123040Y-69011100D01*
X104280520Y-69503860D01*
X104382120Y-69514020D01*
X104450700Y-69514020D01*
X104486260Y-69491160D01*
X104509120Y-69430200D01*
X104529440Y-69366700D01*
X104559920Y-69265100D01*
X104598020Y-69143180D01*
X104625960Y-69051740D01*
X104714860Y-68762180D01*
X104826620Y-69140640D01*
X104938380Y-69519100D01*
X105037440Y-69519100D01*
X105136500Y-69519100D01*
X105304140Y-68988240D01*
X105354940Y-68828220D01*
X105400660Y-68683440D01*
X105436220Y-68564060D01*
X105461620Y-68480240D01*
X105474320Y-68439600D01*
X105474320Y-68437060D01*
X105448920Y-68426900D01*
X105387960Y-68421820D01*
X105360020Y-68424360D01*
X105245720Y-68431980D01*
X105149200Y-68795200D01*
X105113640Y-68927280D01*
X105080620Y-69033960D01*
X105052680Y-69107620D01*
X105037440Y-69140640D01*
X105032360Y-69140640D01*
X105017120Y-69107620D01*
X104989180Y-69033960D01*
X104953620Y-68927280D01*
X104912980Y-68800280D01*
X104905360Y-68777420D01*
X104859640Y-68635180D01*
X104826620Y-68538660D01*
X104801220Y-68480240D01*
X104775820Y-68444680D01*
X104750420Y-68429440D01*
X104717400Y-68424360D01*
X104684380Y-68421820D01*
X104658980Y-68429440D01*
X104638660Y-68454840D01*
X104613260Y-68503100D01*
X104582780Y-68584380D01*
X104539600Y-68706300D01*
X104509120Y-68795200D01*
X104463400Y-68924740D01*
X104425300Y-69031420D01*
X104392280Y-69102540D01*
X104371960Y-69135560D01*
X104366880Y-69133020D01*
X104354180Y-69092380D01*
X104331320Y-69008560D01*
X104298300Y-68896800D01*
X104262740Y-68767260D01*
X104262740Y-68762180D01*
X104168760Y-68431980D01*
X104051920Y-68424360D01*
X103978260Y-68421820D01*
X103945240Y-68431980D01*
X103945240Y-68457380D01*
G37*
X103945240Y-68457380D02*
X103947780Y-68465000D01*
X103960480Y-68505640D01*
X103988420Y-68589460D01*
X104026520Y-68708840D01*
X104072240Y-68851080D01*
X104123040Y-69011100D01*
X104280520Y-69503860D01*
X104382120Y-69514020D01*
X104450700Y-69514020D01*
X104486260Y-69491160D01*
X104509120Y-69430200D01*
X104529440Y-69366700D01*
X104559920Y-69265100D01*
X104598020Y-69143180D01*
X104625960Y-69051740D01*
X104714860Y-68762180D01*
X104826620Y-69140640D01*
X104938380Y-69519100D01*
X105037440Y-69519100D01*
X105136500Y-69519100D01*
X105304140Y-68988240D01*
X105354940Y-68828220D01*
X105400660Y-68683440D01*
X105436220Y-68564060D01*
X105461620Y-68480240D01*
X105474320Y-68439600D01*
X105474320Y-68437060D01*
X105448920Y-68426900D01*
X105387960Y-68421820D01*
X105360020Y-68424360D01*
X105245720Y-68431980D01*
X105149200Y-68795200D01*
X105113640Y-68927280D01*
X105080620Y-69033960D01*
X105052680Y-69107620D01*
X105037440Y-69140640D01*
X105032360Y-69140640D01*
X105017120Y-69107620D01*
X104989180Y-69033960D01*
X104953620Y-68927280D01*
X104912980Y-68800280D01*
X104905360Y-68777420D01*
X104859640Y-68635180D01*
X104826620Y-68538660D01*
X104801220Y-68480240D01*
X104775820Y-68444680D01*
X104750420Y-68429440D01*
X104717400Y-68424360D01*
X104684380Y-68421820D01*
X104658980Y-68429440D01*
X104638660Y-68454840D01*
X104613260Y-68503100D01*
X104582780Y-68584380D01*
X104539600Y-68706300D01*
X104509120Y-68795200D01*
X104463400Y-68924740D01*
X104425300Y-69031420D01*
X104392280Y-69102540D01*
X104371960Y-69135560D01*
X104366880Y-69133020D01*
X104354180Y-69092380D01*
X104331320Y-69008560D01*
X104298300Y-68896800D01*
X104262740Y-68767260D01*
X104262740Y-68762180D01*
X104168760Y-68431980D01*
X104051920Y-68424360D01*
X103978260Y-68421820D01*
X103945240Y-68431980D01*
X103945240Y-68457380D01*
G36*
X105611480Y-69519100D02*
G01*
X105720700Y-69519100D01*
X105796900Y-69511480D01*
X105827380Y-69491160D01*
X105832460Y-69473380D01*
X105832460Y-68980620D01*
X105842620Y-68828220D01*
X105875640Y-68724080D01*
X105936600Y-68660580D01*
X106025500Y-68637720D01*
X106038200Y-68637720D01*
X106134720Y-68660580D01*
X106198220Y-68726620D01*
X106236320Y-68835840D01*
X106243940Y-68952680D01*
X106238860Y-69087300D01*
X106223620Y-69178740D01*
X106195680Y-69237160D01*
X106147420Y-69275260D01*
X106127100Y-69282880D01*
X106020420Y-69305740D01*
X105928980Y-69285420D01*
X105873100Y-69234620D01*
X105845160Y-69160960D01*
X105832460Y-69039040D01*
X105832460Y-68980620D01*
X105832460Y-69473380D01*
X105835000Y-69445440D01*
X105860400Y-69450520D01*
X105898500Y-69473380D01*
X105982320Y-69503860D01*
X106094080Y-69516560D01*
X106208380Y-69506400D01*
X106302360Y-69478460D01*
X106302360Y-69475920D01*
X106370940Y-69425120D01*
X106416660Y-69354000D01*
X106447140Y-69249860D01*
X106459840Y-69110160D01*
X106459840Y-68924740D01*
X106454760Y-68790120D01*
X106449680Y-68698680D01*
X106439520Y-68635180D01*
X106421740Y-68592000D01*
X106393800Y-68556440D01*
X106360780Y-68523420D01*
X106302360Y-68470080D01*
X106249020Y-68442140D01*
X106175360Y-68434520D01*
X106109320Y-68431980D01*
X105997560Y-68439600D01*
X105923900Y-68459920D01*
X105890880Y-68482780D01*
X105832460Y-68536120D01*
X105824840Y-68264340D01*
X105817220Y-67992560D01*
X105715620Y-67984940D01*
X105611480Y-67974780D01*
X105611480Y-68746940D01*
X105611480Y-69519100D01*
G37*
X105611480Y-69519100D02*
X105720700Y-69519100D01*
X105796900Y-69511480D01*
X105827380Y-69491160D01*
X105832460Y-69473380D01*
X105832460Y-68980620D01*
X105842620Y-68828220D01*
X105875640Y-68724080D01*
X105936600Y-68660580D01*
X106025500Y-68637720D01*
X106038200Y-68637720D01*
X106134720Y-68660580D01*
X106198220Y-68726620D01*
X106236320Y-68835840D01*
X106243940Y-68952680D01*
X106238860Y-69087300D01*
X106223620Y-69178740D01*
X106195680Y-69237160D01*
X106147420Y-69275260D01*
X106127100Y-69282880D01*
X106020420Y-69305740D01*
X105928980Y-69285420D01*
X105873100Y-69234620D01*
X105845160Y-69160960D01*
X105832460Y-69039040D01*
X105832460Y-68980620D01*
X105832460Y-69473380D01*
X105835000Y-69445440D01*
X105860400Y-69450520D01*
X105898500Y-69473380D01*
X105982320Y-69503860D01*
X106094080Y-69516560D01*
X106208380Y-69506400D01*
X106302360Y-69478460D01*
X106302360Y-69475920D01*
X106370940Y-69425120D01*
X106416660Y-69354000D01*
X106447140Y-69249860D01*
X106459840Y-69110160D01*
X106459840Y-68924740D01*
X106454760Y-68790120D01*
X106449680Y-68698680D01*
X106439520Y-68635180D01*
X106421740Y-68592000D01*
X106393800Y-68556440D01*
X106360780Y-68523420D01*
X106302360Y-68470080D01*
X106249020Y-68442140D01*
X106175360Y-68434520D01*
X106109320Y-68431980D01*
X105997560Y-68439600D01*
X105923900Y-68459920D01*
X105890880Y-68482780D01*
X105832460Y-68536120D01*
X105824840Y-68264340D01*
X105817220Y-67992560D01*
X105715620Y-67984940D01*
X105611480Y-67974780D01*
X105611480Y-68746940D01*
X105611480Y-69519100D01*
G36*
X106495400Y-68505640D02*
G01*
X106523340Y-68558980D01*
X106561440Y-68609780D01*
X106614780Y-68663120D01*
X106655420Y-68675820D01*
X106683360Y-68665660D01*
X106779880Y-68640260D01*
X106873860Y-68668200D01*
X106919580Y-68706300D01*
X106944980Y-68736780D01*
X106965300Y-68767260D01*
X106975460Y-68812980D01*
X106983080Y-68881560D01*
X106985620Y-68983160D01*
X106985620Y-69125400D01*
X106985620Y-69145720D01*
X106985620Y-69519100D01*
X107097380Y-69519100D01*
X107206600Y-69519100D01*
X107206600Y-68967920D01*
X107206600Y-68419280D01*
X107097380Y-68419280D01*
X107026260Y-68421820D01*
X106993240Y-68439600D01*
X106985620Y-68477700D01*
X106983080Y-68518340D01*
X106965300Y-68515800D01*
X106932280Y-68487860D01*
X106858620Y-68449760D01*
X106754480Y-68426900D01*
X106645260Y-68426900D01*
X106566520Y-68442140D01*
X106510640Y-68472620D01*
X106495400Y-68505640D01*
G37*
X106495400Y-68505640D02*
X106523340Y-68558980D01*
X106561440Y-68609780D01*
X106614780Y-68663120D01*
X106655420Y-68675820D01*
X106683360Y-68665660D01*
X106779880Y-68640260D01*
X106873860Y-68668200D01*
X106919580Y-68706300D01*
X106944980Y-68736780D01*
X106965300Y-68767260D01*
X106975460Y-68812980D01*
X106983080Y-68881560D01*
X106985620Y-68983160D01*
X106985620Y-69125400D01*
X106985620Y-69145720D01*
X106985620Y-69519100D01*
X107097380Y-69519100D01*
X107206600Y-69519100D01*
X107206600Y-68967920D01*
X107206600Y-68419280D01*
X107097380Y-68419280D01*
X107026260Y-68421820D01*
X106993240Y-68439600D01*
X106985620Y-68477700D01*
X106983080Y-68518340D01*
X106965300Y-68515800D01*
X106932280Y-68487860D01*
X106858620Y-68449760D01*
X106754480Y-68426900D01*
X106645260Y-68426900D01*
X106566520Y-68442140D01*
X106510640Y-68472620D01*
X106495400Y-68505640D01*
G36*
X107452980Y-69519100D02*
G01*
X107564740Y-69519100D01*
X107638400Y-69511480D01*
X107671420Y-69491160D01*
X107673960Y-69473380D01*
X107673960Y-69145720D01*
X107673960Y-69051740D01*
X107823820Y-69051740D01*
X107966060Y-69059360D01*
X108057500Y-69084760D01*
X108105760Y-69130480D01*
X108113380Y-69173660D01*
X108087980Y-69247320D01*
X108021940Y-69300660D01*
X107922880Y-69326060D01*
X107894940Y-69326060D01*
X107808580Y-69313360D01*
X107737460Y-69285420D01*
X107734920Y-69282880D01*
X107686660Y-69221920D01*
X107673960Y-69145720D01*
X107673960Y-69473380D01*
X107679040Y-69442900D01*
X107699360Y-69450520D01*
X107724760Y-69473380D01*
X107790800Y-69503860D01*
X107892400Y-69519100D01*
X108006700Y-69516560D01*
X108113380Y-69496240D01*
X108184500Y-69468300D01*
X108273400Y-69384480D01*
X108321660Y-69277800D01*
X108326740Y-69158420D01*
X108291180Y-69046660D01*
X108225140Y-68962840D01*
X108179420Y-68924740D01*
X108133700Y-68901880D01*
X108072740Y-68891720D01*
X107981300Y-68886640D01*
X107907640Y-68886640D01*
X107673960Y-68886640D01*
X107673960Y-68792660D01*
X107686660Y-68719000D01*
X107714600Y-68665660D01*
X107717140Y-68665660D01*
X107778100Y-68640260D01*
X107867000Y-68630100D01*
X107963520Y-68632640D01*
X108039720Y-68647880D01*
X108070200Y-68663120D01*
X108105760Y-68680900D01*
X108151480Y-68668200D01*
X108197200Y-68637720D01*
X108250540Y-68594540D01*
X108263240Y-68564060D01*
X108245460Y-68536120D01*
X108164180Y-68475160D01*
X108044800Y-68437060D01*
X107907640Y-68419280D01*
X107765400Y-68429440D01*
X107646020Y-68462460D01*
X107579980Y-68495480D01*
X107531720Y-68533580D01*
X107496160Y-68586920D01*
X107473300Y-68663120D01*
X107460600Y-68772340D01*
X107455520Y-68919660D01*
X107452980Y-69089840D01*
X107452980Y-69519100D01*
G37*
X107452980Y-69519100D02*
X107564740Y-69519100D01*
X107638400Y-69511480D01*
X107671420Y-69491160D01*
X107673960Y-69473380D01*
X107673960Y-69145720D01*
X107673960Y-69051740D01*
X107823820Y-69051740D01*
X107966060Y-69059360D01*
X108057500Y-69084760D01*
X108105760Y-69130480D01*
X108113380Y-69173660D01*
X108087980Y-69247320D01*
X108021940Y-69300660D01*
X107922880Y-69326060D01*
X107894940Y-69326060D01*
X107808580Y-69313360D01*
X107737460Y-69285420D01*
X107734920Y-69282880D01*
X107686660Y-69221920D01*
X107673960Y-69145720D01*
X107673960Y-69473380D01*
X107679040Y-69442900D01*
X107699360Y-69450520D01*
X107724760Y-69473380D01*
X107790800Y-69503860D01*
X107892400Y-69519100D01*
X108006700Y-69516560D01*
X108113380Y-69496240D01*
X108184500Y-69468300D01*
X108273400Y-69384480D01*
X108321660Y-69277800D01*
X108326740Y-69158420D01*
X108291180Y-69046660D01*
X108225140Y-68962840D01*
X108179420Y-68924740D01*
X108133700Y-68901880D01*
X108072740Y-68891720D01*
X107981300Y-68886640D01*
X107907640Y-68886640D01*
X107673960Y-68886640D01*
X107673960Y-68792660D01*
X107686660Y-68719000D01*
X107714600Y-68665660D01*
X107717140Y-68665660D01*
X107778100Y-68640260D01*
X107867000Y-68630100D01*
X107963520Y-68632640D01*
X108039720Y-68647880D01*
X108070200Y-68663120D01*
X108105760Y-68680900D01*
X108151480Y-68668200D01*
X108197200Y-68637720D01*
X108250540Y-68594540D01*
X108263240Y-68564060D01*
X108245460Y-68536120D01*
X108164180Y-68475160D01*
X108044800Y-68437060D01*
X107907640Y-68419280D01*
X107765400Y-68429440D01*
X107646020Y-68462460D01*
X107579980Y-68495480D01*
X107531720Y-68533580D01*
X107496160Y-68586920D01*
X107473300Y-68663120D01*
X107460600Y-68772340D01*
X107455520Y-68919660D01*
X107452980Y-69089840D01*
X107452980Y-69519100D01*
G36*
X108486760Y-67309300D02*
G01*
X108494380Y-67441380D01*
X108509620Y-67553140D01*
X108532480Y-67626800D01*
X108537560Y-67631880D01*
X108634080Y-67736020D01*
X108710280Y-67771580D01*
X108710280Y-67278820D01*
X108710280Y-67273740D01*
X108715360Y-67141660D01*
X108733140Y-67052760D01*
X108753460Y-67007040D01*
X108827120Y-66938460D01*
X108913480Y-66913060D01*
X109002380Y-66925760D01*
X109076040Y-66981640D01*
X109106520Y-67037520D01*
X109121760Y-67103560D01*
X109126840Y-67202620D01*
X109126840Y-67301680D01*
X109116680Y-67408360D01*
X109101440Y-67476940D01*
X109073500Y-67520120D01*
X109050640Y-67542980D01*
X108959200Y-67588700D01*
X108865220Y-67578540D01*
X108783940Y-67530280D01*
X108745840Y-67489640D01*
X108722980Y-67446460D01*
X108712820Y-67380420D01*
X108710280Y-67278820D01*
X108710280Y-67771580D01*
X108753460Y-67794440D01*
X108885540Y-67804600D01*
X109020160Y-67761420D01*
X109131920Y-67705540D01*
X109131920Y-68119560D01*
X109131920Y-68279580D01*
X109129380Y-68391340D01*
X109126840Y-68462460D01*
X109119220Y-68498020D01*
X109109060Y-68508180D01*
X109091280Y-68500560D01*
X109078580Y-68487860D01*
X108994760Y-68444680D01*
X108883000Y-68424360D01*
X108768700Y-68431980D01*
X108687420Y-68457380D01*
X108621380Y-68492940D01*
X108573120Y-68536120D01*
X108540100Y-68594540D01*
X108517240Y-68678360D01*
X108504540Y-68792660D01*
X108499460Y-68947600D01*
X108499460Y-69089840D01*
X108499460Y-69519100D01*
X108593440Y-69519100D01*
X108684880Y-69519100D01*
X108695040Y-69150800D01*
X108700120Y-68998400D01*
X108705200Y-68894260D01*
X108715360Y-68823140D01*
X108728060Y-68772340D01*
X108748380Y-68739320D01*
X108771240Y-68708840D01*
X108860140Y-68650420D01*
X108954120Y-68642800D01*
X109045560Y-68688520D01*
X109063340Y-68706300D01*
X109091280Y-68736780D01*
X109109060Y-68767260D01*
X109121760Y-68812980D01*
X109129380Y-68881560D01*
X109131920Y-68983160D01*
X109131920Y-69125400D01*
X109131920Y-69145720D01*
X109131920Y-69519100D01*
X109241140Y-69519100D01*
X109350360Y-69519100D01*
X109350360Y-68117020D01*
X109350360Y-66714940D01*
X109241140Y-66714940D01*
X109162400Y-66722560D01*
X109131920Y-66745420D01*
X109131920Y-66753040D01*
X109121760Y-66770820D01*
X109083660Y-66763200D01*
X109027780Y-66735260D01*
X108895700Y-66697160D01*
X108763620Y-66704780D01*
X108639160Y-66760660D01*
X108542640Y-66859720D01*
X108537560Y-66867340D01*
X108512160Y-66933380D01*
X108496920Y-67040060D01*
X108489300Y-67172140D01*
X108486760Y-67309300D01*
G37*
X108486760Y-67309300D02*
X108494380Y-67441380D01*
X108509620Y-67553140D01*
X108532480Y-67626800D01*
X108537560Y-67631880D01*
X108634080Y-67736020D01*
X108710280Y-67771580D01*
X108710280Y-67278820D01*
X108710280Y-67273740D01*
X108715360Y-67141660D01*
X108733140Y-67052760D01*
X108753460Y-67007040D01*
X108827120Y-66938460D01*
X108913480Y-66913060D01*
X109002380Y-66925760D01*
X109076040Y-66981640D01*
X109106520Y-67037520D01*
X109121760Y-67103560D01*
X109126840Y-67202620D01*
X109126840Y-67301680D01*
X109116680Y-67408360D01*
X109101440Y-67476940D01*
X109073500Y-67520120D01*
X109050640Y-67542980D01*
X108959200Y-67588700D01*
X108865220Y-67578540D01*
X108783940Y-67530280D01*
X108745840Y-67489640D01*
X108722980Y-67446460D01*
X108712820Y-67380420D01*
X108710280Y-67278820D01*
X108710280Y-67771580D01*
X108753460Y-67794440D01*
X108885540Y-67804600D01*
X109020160Y-67761420D01*
X109131920Y-67705540D01*
X109131920Y-68119560D01*
X109131920Y-68279580D01*
X109129380Y-68391340D01*
X109126840Y-68462460D01*
X109119220Y-68498020D01*
X109109060Y-68508180D01*
X109091280Y-68500560D01*
X109078580Y-68487860D01*
X108994760Y-68444680D01*
X108883000Y-68424360D01*
X108768700Y-68431980D01*
X108687420Y-68457380D01*
X108621380Y-68492940D01*
X108573120Y-68536120D01*
X108540100Y-68594540D01*
X108517240Y-68678360D01*
X108504540Y-68792660D01*
X108499460Y-68947600D01*
X108499460Y-69089840D01*
X108499460Y-69519100D01*
X108593440Y-69519100D01*
X108684880Y-69519100D01*
X108695040Y-69150800D01*
X108700120Y-68998400D01*
X108705200Y-68894260D01*
X108715360Y-68823140D01*
X108728060Y-68772340D01*
X108748380Y-68739320D01*
X108771240Y-68708840D01*
X108860140Y-68650420D01*
X108954120Y-68642800D01*
X109045560Y-68688520D01*
X109063340Y-68706300D01*
X109091280Y-68736780D01*
X109109060Y-68767260D01*
X109121760Y-68812980D01*
X109129380Y-68881560D01*
X109131920Y-68983160D01*
X109131920Y-69125400D01*
X109131920Y-69145720D01*
X109131920Y-69519100D01*
X109241140Y-69519100D01*
X109350360Y-69519100D01*
X109350360Y-68117020D01*
X109350360Y-66714940D01*
X109241140Y-66714940D01*
X109162400Y-66722560D01*
X109131920Y-66745420D01*
X109131920Y-66753040D01*
X109121760Y-66770820D01*
X109083660Y-66763200D01*
X109027780Y-66735260D01*
X108895700Y-66697160D01*
X108763620Y-66704780D01*
X108639160Y-66760660D01*
X108542640Y-66859720D01*
X108537560Y-66867340D01*
X108512160Y-66933380D01*
X108496920Y-67040060D01*
X108489300Y-67172140D01*
X108486760Y-67309300D01*
D12*
%TO.C,DR4*%
X111000000Y-100000000D02*
G75*
G03*
X111000000Y-100000000I-3000000J0D01*
G01*
%TO.C,DR3*%
X111000000Y-51000000D02*
G75*
G03*
X111000000Y-51000000I-3000000J0D01*
G01*
%TO.C,DR2*%
X53000000Y-100000000D02*
G75*
G03*
X53000000Y-100000000I-3000000J0D01*
G01*
%TO.C,DR1*%
X53000000Y-51000000D02*
G75*
G03*
X53000000Y-51000000I-3000000J0D01*
G01*
%TD*%
M02*
