M48
INCH,TZ
T1C0.0157
T2C0.0354
T3C0.0394
T4C0.0787
T5C0.0906
T6C0.1260
%
G90
G05
T1
X19488Y-22244
X19488Y-22835
X19488Y-27165
X19488Y-27756
X19882Y-23622
X19882Y-26378
X20472Y-23622
X20472Y-26378
X20866Y-34744
X21063Y-23622
X21063Y-26378
X21654Y-23622
X21654Y-26378
X21949Y-35728
X22244Y-23622
X22244Y-26378
X22244Y-35728
X22441Y-21457
X22539Y-22835
X22539Y-27165
X23425Y-21457
X23720Y-34646
X23917Y-34843
X24114Y-34646
X24803Y-21457
X25295Y-35728
X25591Y-35728
X25787Y-21457
X25787Y-26181
X25787Y-26969
X25787Y-27756
X26772Y-21457
X27067Y-34646
X27264Y-25787
X27264Y-34843
X27461Y-34646
X27559Y-26772
X27756Y-25787
X28642Y-35728
X28937Y-35728
X29921Y-24606
X29921Y-26575
X30413Y-34646
X30610Y-34843
X30807Y-34646
X30906Y-25591
X31102Y-22244
X31791Y-22244
X31791Y-22933
X31890Y-24606
X31890Y-26575
X31988Y-35728
X32283Y-35728
X33760Y-34646
X33799Y-22244
X33957Y-34843
X34154Y-34646
X35335Y-35728
X35394Y-23504
X35630Y-35728
X35748Y-23858
X35880Y-25045
X35880Y-25545
X37106Y-34646
X37303Y-34843
X37500Y-34646
X38681Y-35827
X38976Y-35827
X40453Y-34646
X40650Y-34843
X40846Y-34646
X40945Y-21791
X40945Y-28346
X41732Y-21791
X41732Y-28346
T2
X21063Y-29421
X21063Y-30421
X38969Y-37992
X39969Y-37992
X26618Y-24236
X26618Y-25236
X26618Y-26236
X26618Y-27236
X26618Y-28236
X27618Y-24236
X22236Y-37992
X23236Y-37992
X35622Y-37992
X36622Y-37992
X32276Y-37992
X33276Y-37992
X28929Y-37992
X29929Y-37992
X25583Y-37992
X26583Y-37992
T3
X21602Y-19579
X21602Y-20579
X22602Y-19579
X22602Y-20579
X23602Y-19579
X23602Y-20579
X24602Y-19579
X24602Y-20579
X25602Y-19579
X25602Y-20579
X26602Y-19579
X26602Y-20579
X27602Y-19579
X27602Y-20579
X28602Y-19579
X28602Y-20579
X29602Y-19579
X29602Y-20579
X30602Y-19579
X30602Y-20579
X31602Y-19579
X31602Y-20579
X32602Y-19579
X32602Y-20579
X33602Y-19579
X33602Y-20579
X34602Y-19579
X34602Y-20579
X35602Y-19579
X35602Y-20579
X36602Y-19579
X36602Y-20579
X37602Y-19579
X37602Y-20579
X38602Y-19579
X38602Y-20579
X39602Y-19579
X39602Y-20579
X40602Y-19579
X40602Y-20579
T4
X19488Y-25000
T5
X26969Y-22579
X33268Y-27894
T6
X19685Y-39370
X19685Y-20079
X42520Y-39370
X42520Y-20079
T0
M30
